<?xml version="1.0" encoding="utf-8"?>
<!-- Generator: Adobe Illustrator 23.0.3, SVG Export Plug-In . SVG Version: 6.00 Build 0)  -->
<svg version="1.1" id="Layer_1" xmlns="http://www.w3.org/2000/svg" xmlns:xlink="http://www.w3.org/1999/xlink" x="0px" y="0px"
	 viewBox="0 0 129.6 129.6" style="enable-background:new 0 0 129.6 129.6;" xml:space="preserve">
<style type="text/css">
	.st0{fill:#FFFFFF;}
	.st1{fill:#37984B;}
	.st2{fill:#F7C528;}
	.st3{fill:#38994C;}
	.st4{fill:#070707;}
	.st5{fill:none;stroke:#ED1B25;stroke-width:7;stroke-miterlimit:10;}
	.st6{fill:url(#SVGID_1_);}
	.st7{fill:url(#SVGID_2_);}
	.st8{fill:url(#SVGID_3_);}
	.st9{fill:url(#SVGID_4_);}
	.st10{fill:url(#SVGID_5_);}
	.st11{fill:url(#SVGID_6_);}
	.st12{fill:url(#SVGID_7_);}
	.st13{fill:url(#SVGID_8_);}
	.st14{fill:url(#SVGID_9_);}
	.st15{fill:url(#SVGID_10_);}
	.st16{fill:#B112EB;}
	.st17{fill:#42BA2A;}
	.st18{fill:url(#SVGID_11_);}
	.st19{fill:url(#SVGID_12_);}
	.st20{fill:url(#SVGID_13_);}
	.st21{fill:url(#SVGID_14_);}
	.st22{fill:url(#SVGID_15_);}
	.st23{fill:url(#SVGID_16_);}
	.st24{fill:url(#SVGID_17_);}
	.st25{fill:url(#SVGID_18_);}
	.st26{fill:url(#SVGID_19_);}
	.st27{fill:url(#SVGID_20_);}
	.st28{fill:url(#SVGID_21_);}
	.st29{fill:url(#SVGID_22_);}
	.st30{fill:url(#SVGID_23_);}
	.st31{fill:url(#SVGID_24_);}
	.st32{fill:url(#SVGID_25_);}
	.st33{fill:url(#SVGID_26_);}
	.st34{fill:url(#SVGID_27_);}
	.st35{fill:url(#SVGID_28_);}
	.st36{fill:url(#SVGID_29_);}
	.st37{fill:url(#SVGID_30_);}
	.st38{fill:url(#SVGID_31_);}
	.st39{fill:url(#SVGID_32_);}
	.st40{fill:url(#SVGID_33_);}
	.st41{fill:url(#SVGID_34_);}
	.st42{fill:url(#SVGID_35_);}
	.st43{fill:url(#SVGID_36_);}
	.st44{fill:url(#SVGID_37_);}
	.st45{fill:url(#SVGID_38_);}
	.st46{fill:url(#SVGID_39_);}
	.st47{fill:url(#SVGID_40_);}
	.st48{fill:url(#SVGID_41_);}
	.st49{fill:url(#SVGID_42_);}
	.st50{fill:url(#SVGID_43_);}
	.st51{fill:url(#SVGID_44_);}
	.st52{fill:url(#SVGID_45_);}
	.st53{fill:url(#SVGID_46_);}
	.st54{fill:url(#SVGID_47_);}
	.st55{fill:url(#SVGID_48_);}
	.st56{fill:url(#SVGID_49_);}
	.st57{fill:url(#SVGID_50_);}
	.st58{fill:url(#SVGID_51_);}
	.st59{fill:url(#SVGID_52_);}
	.st60{fill:url(#SVGID_53_);}
	.st61{fill:url(#SVGID_54_);}
	.st62{fill:url(#SVGID_55_);}
	.st63{fill:url(#SVGID_56_);}
	.st64{fill:url(#SVGID_57_);}
	.st65{fill:url(#SVGID_58_);}
	.st66{fill:url(#SVGID_59_);}
	.st67{fill:url(#SVGID_60_);}
	.st68{fill:#353535;}
	.st69{fill:#E22310;}
	.st70{fill:url(#SVGID_61_);}
	.st71{fill:url(#SVGID_62_);}
	.st72{fill:url(#SVGID_63_);}
	.st73{fill:url(#SVGID_64_);}
	.st74{fill:url(#SVGID_65_);}
</style>
<radialGradient id="SVGID_1_" cx="64.6698" cy="63.5805" r="52.2804" gradientUnits="userSpaceOnUse">
	<stop  offset="0" style="stop-color:#9D3ADF"/>
	<stop  offset="0.2061" style="stop-color:#8542D8"/>
	<stop  offset="0.6385" style="stop-color:#4857C6"/>
	<stop  offset="1" style="stop-color:#106AB6"/>
</radialGradient>
<path class="st6" d="M115,66.6c-1.2-0.1-2.3,0.7-2.5,2l-0.1,1c-2.7-0.2-9-0.8-14.9-3.7c-1.5-0.7-2.6-2.1-2.9-3.7l-0.9-3.7
	c2-1.2,4.6-2.2,7.6-2.7l0.4,1.5c0.3,1.1,1.4,1.9,2.6,1.6c1.1-0.3,1.9-1.4,1.6-2.6l-1.1-4.9c-0.3-1.1-1.4-1.9-2.6-1.6
	c-1.1,0.3-1.9,1.4-1.6,2.6l0.3,1.4c-1.5,0.4-4.7,1.2-8,1.3l-1-4.4c-0.4-1.6,0-3.3,1-4.6c3.8-5,8.8-8.4,11.3-9.8l1,1.5
	c0.7,1,2,1.3,3.1,0.7c1-0.7,1.3-2,0.7-3.1l-3.2-4.9c-0.7-1-2-1.3-3.1-0.7c-1,0.7-1.3,2-0.7,3.1l0.9,1.4c-2.1,1.8-7,5.7-13,7.8
	c-1.6,0.5-3.3,0.3-4.7-0.5l-3.5-2.2c0.6-2.3,1.7-4.7,3.5-7.2l1.3,0.8c1,0.6,2.3,0.3,2.9-0.7c0.6-1,0.3-2.3-0.7-2.9l-4.2-2.6
	c-1-0.6-2.3-0.3-2.9,0.7c-0.6,1-0.3,2.3,0.7,2.9l1.3,0.8c-0.8,1.4-2.4,4.1-4.6,6.5l-3.6-2.2c-1.4-0.9-2.3-2.3-2.6-4
	c-0.9-6.3,0.4-12.3,1.1-15.1l1.8,0.2c1.2,0.1,2.3-0.7,2.5-2c0.1-1.2-0.7-2.3-2-2.5l-5.8-0.7c-1.2-0.1-2.3,0.7-2.5,2
	c-0.1,1.2,0.7,2.3,2,2.5l1.4,0.2c-0.2,2.7-0.8,9-3.7,14.9c-0.7,1.5-2.1,2.6-3.7,2.9l-4,0.9c-1.2-2.1-2.3-4.7-2.8-7.9l1.5-0.4
	c1.1-0.3,1.9-1.4,1.6-2.6c-0.3-1.1-1.4-1.9-2.6-1.6l-4.9,1.1c-1.1,0.3-1.9,1.4-1.6,2.6c0.3,1.1,1.4,1.9,2.6,1.6l1.4-0.3
	c0.5,1.6,1.3,4.8,1.3,8.2l-4,0.9c-1.6,0.4-3.3,0-4.6-1c-5.3-4-8.7-9.4-10-11.7l1.2-0.8c1-0.7,1.3-2,0.7-3.1c-0.7-1-2-1.3-3.1-0.7
	l-4.9,3.2c-1,0.7-1.3,2-0.7,3.1c0.7,1,2,1.3,3.1,0.7l1.2-0.8c1.6,1.7,6,6.9,8.2,13.5c0.5,1.6,0.3,3.3-0.5,4.7l-2,3.2
	c-2.4-0.6-5-1.7-7.6-3.6l0.8-1.3c0.6-1,0.3-2.3-0.7-2.9c-1-0.6-2.3-0.3-2.9,0.7l-2.6,4.2c-0.6,1-0.3,2.3,0.7,2.9
	c1,0.6,2.3,0.3,2.9-0.7l0.8-1.3c1.4,0.8,4.3,2.5,6.8,4.9l-2.4,3.8c-0.9,1.4-2.3,2.3-4,2.6C26.2,57,20,55.4,17.3,54.6l0.2-1.8
	c0.1-1.2-0.7-2.3-2-2.5c-1.2-0.1-2.3,0.7-2.5,2L12.4,58c-0.1,1.2,0.7,2.3,2,2.5s2.3-0.7,2.5-2l0.2-1.6c3,0.2,8.8,1,14.2,3.7
	c1.5,0.7,2.6,2.1,2.9,3.7l1.1,4.6c-2,1.1-4.5,2.1-7.4,2.6l-0.4-1.5c-0.3-1.1-1.4-1.9-2.6-1.6c-1.1,0.3-1.9,1.4-1.6,2.6l1.1,4.9
	c0.3,1.1,1.4,1.9,2.6,1.6c1.1-0.3,1.9-1.4,1.6-2.6l-0.3-1.4c1.5-0.4,4.5-1.2,7.7-1.3l0.9,3.7c0.4,1.6,0,3.3-1,4.6
	c-3.8,5-8.9,8.4-11.4,9.9L24,89.4c-0.7-1-2-1.3-3.1-0.7c-1,0.7-1.3,2-0.7,3.1l3.2,4.9c0.7,1,2,1.3,3.1,0.7c1-0.7,1.3-2,0.7-3.1
	l-1.3-2c1.9-1.7,7-5.9,13.3-8c1.6-0.5,3.3-0.3,4.7,0.5l3.9,2.4c-0.6,2.4-1.7,5.1-3.6,7.8l-1.3-0.8c-1-0.6-2.3-0.3-2.9,0.7
	c-0.6,1-0.3,2.3,0.7,2.9l4.2,2.6c1,0.6,2.3,0.3,2.9-0.7c0.6-1,0.3-2.3-0.7-2.9l-1.3-0.8c0.8-1.5,2.6-4.4,5-6.9l3,1.9
	c1.4,0.9,2.3,2.3,2.6,4c1,7-0.7,13.8-1.3,15.9l-1.3-0.2c-1.2-0.1-2.3,0.7-2.5,2c-0.1,1.2,0.7,2.3,2,2.5l5.8,0.7
	c1.2,0.1,2.3-0.7,2.5-2c0.1-1.2-0.7-2.3-2-2.5l-1.7-0.2c0.1-1.9,0.5-9.1,3.8-15.7c0.7-1.5,2.1-2.6,3.7-2.9l3.8-0.9
	c1.4,2.2,2.7,5,3.3,8.6l-1.5,0.4c-1.1,0.3-1.9,1.4-1.6,2.6c0.3,1.1,1.4,1.9,2.6,1.6l4.9-1.1c1.1-0.3,1.9-1.4,1.6-2.6
	c-0.3-1.1-1.4-1.9-2.6-1.6l-1.4,0.3c-0.5-1.7-1.4-5.3-1.3-9.1l3.8-0.9c1.6-0.4,3.3,0,4.6,1c5.9,4.4,9.1,10.9,9.9,12.6l-0.9,0.6
	c-1,0.7-1.3,2-0.7,3.1c0.7,1,2,1.3,3.1,0.7l4.9-3.2c1-0.7,1.3-2,0.7-3.1s-2-1.3-3.1-0.7l-1.2,0.8c-1.5-1.7-6-6.9-8.2-13.6
	c-0.5-1.6-0.3-3.3,0.5-4.7l1.9-3c2.4,0.6,5.1,1.7,7.8,3.6l-0.8,1.3c-0.6,1-0.3,2.3,0.7,2.9c1,0.6,2.3,0.3,2.9-0.7l2.6-4.2
	c0.6-1,0.3-2.3-0.7-2.9c-1-0.6-2.3-0.3-2.9,0.7l-0.8,1.3c-1.5-0.8-4.4-2.6-6.9-5l2.4-3.9c0.9-1.4,2.3-2.3,4-2.6
	c6.6-0.9,13,0.5,15.5,1.2l-0.3,2.3c-0.1,1.2,0.7,2.3,2,2.5c1.2,0.1,2.3-0.7,2.5-2l0.7-5.8C117.1,67.8,116.2,66.7,115,66.6z
	 M39.7,62.3c0-1.4,1.1-2.5,2.5-2.5c1.4,0,2.5,1.1,2.5,2.5s-1.1,2.5-2.5,2.5C40.8,64.7,39.7,63.6,39.7,62.3z M44.6,80.2
	c-1.4,0-2.5-1.1-2.5-2.5s1.1-2.5,2.5-2.5c1.4,0,2.5,1.1,2.5,2.5S45.9,80.2,44.6,80.2z M49.4,50.2c-1.4,0-2.5-1.1-2.5-2.5
	s1.1-2.5,2.5-2.5c1.4,0,2.5,1.1,2.5,2.5S50.7,50.2,49.4,50.2z M53,62.3c0-1.4,1.1-2.5,2.5-2.5s2.5,1.1,2.5,2.5s-1.1,2.5-2.5,2.5
	S53,63.6,53,62.3z M58.7,83.5c-1.4,0-2.5-1.1-2.5-2.5s1.1-2.5,2.5-2.5s2.5,1.1,2.5,2.5S60.1,83.5,58.7,83.5z M61.2,43.5
	c-1.4,0-2.5-1.1-2.5-2.5s1.1-2.5,2.5-2.5c1.4,0,2.5,1.1,2.5,2.5S62.5,43.5,61.2,43.5z M65.9,71.9c-1.4,0-2.5-1.1-2.5-2.5
	c0-1.4,1.1-2.5,2.5-2.5c1.4,0,2.5,1.1,2.5,2.5C68.4,70.8,67.3,71.9,65.9,71.9z M69.2,52.7c-1.4,0-2.5-1.1-2.5-2.5
	c0-1.4,1.1-2.5,2.5-2.5c1.4,0,2.5,1.1,2.5,2.5C71.7,51.6,70.6,52.7,69.2,52.7z M69.2,41c-1.4,0-2.5-1.1-2.5-2.5
	c0-1.4,1.1-2.5,2.5-2.5c1.4,0,2.5,1.1,2.5,2.5C71.7,39.9,70.6,41,69.2,41z M75,81.1c-1.4,0-2.5-1.1-2.5-2.5c0-1.4,1.1-2.5,2.5-2.5
	c1.4,0,2.5,1.1,2.5,2.5C77.5,80,76.4,81.1,75,81.1z M77.5,69.5c-1.4,0-2.5-1.1-2.5-2.5s1.1-2.5,2.5-2.5c1.4,0,2.5,1.1,2.5,2.5
	S78.8,69.5,77.5,69.5z M79.3,50.2c-1.4,0-2.5-1.1-2.5-2.5s1.1-2.5,2.5-2.5s2.5,1.1,2.5,2.5S80.6,50.2,79.3,50.2z M86.3,64.7
	c-1.4,0-2.5-1.1-2.5-2.5s1.1-2.5,2.5-2.5c1.4,0,2.5,1.1,2.5,2.5S87.7,64.7,86.3,64.7z"/>
</svg>
