<?xml version="1.0" encoding="utf-8"?>
<!-- Svg Vector Icons : http://www.onlinewebfonts.com/icon -->
<!DOCTYPE svg PUBLIC "-//W3C//DTD SVG 1.1//EN" "http://www.w3.org/Graphics/SVG/1.1/DTD/svg11.dtd">
<svg version="1.1" xmlns="http://www.w3.org/2000/svg" xmlns:xlink="http://www.w3.org/1999/xlink" x="0px" y="0px" viewBox="0 0 1000 1000" enable-background="new 0 0 1000 1000" xml:space="preserve">
<metadata> Svg Vector Icons : http://www.onlinewebfonts.com/icon </metadata>
<g><g><path d="M500,10c-81.8,0-162.8,20.6-234.3,59.6c-9.4,5.1-12.9,16.9-7.8,26.3c5.1,9.4,16.9,12.9,26.3,7.7C350.1,67.8,424.6,48.8,500,48.8c248.8,0,451.2,202.4,451.2,451.2S748.8,951.2,500,951.2S48.8,748.8,48.8,500c0-121.5,47.6-235.5,134.2-321c7.6-7.5,7.7-19.8,0.2-27.4c-7.5-7.6-19.8-7.7-27.4-0.2C61.7,244.2,10,368,10,500c0,270.2,219.8,490,490,490c270.2,0,490-219.8,490-490C990,229.8,770.2,10,500,10z"/><path d="M517.9,669.9c-8.8,6.2-10.9,18.3-4.7,27c3.8,5.4,9.8,8.2,15.9,8.2c3.9,0,7.7-1.1,11.1-3.5l264-185.7c5.2-3.6,8.2-9.5,8.2-15.9s-3.1-12.2-8.2-15.9l-264-185.7c-8.8-6.2-20.9-4.1-27,4.7c-6.2,8.8-4.1,20.9,4.7,27L759.3,500L517.9,669.9z"/><path d="M265.1,587.6c10.7,0,19.4-8.7,19.4-19.4V351.6L495.4,500L253.9,669.9c-8.8,6.2-10.9,18.3-4.7,27c3.8,5.4,9.8,8.2,15.9,8.2c3.9,0,7.7-1.1,11.1-3.5l264-185.7c5.2-3.6,8.2-9.5,8.2-15.9s-3.1-12.2-8.2-15.9l-264-185.7c-5.9-4.2-13.7-4.7-20.1-1.4c-6.4,3.3-10.5,10-10.5,17.2v253.9C245.7,578.9,254.4,587.6,265.1,587.6z"/></g><g></g><g></g><g></g><g></g><g></g><g></g><g></g><g></g><g></g><g></g><g></g><g></g><g></g><g></g><g></g></g>
</svg>