<svg xmlns="http://www.w3.org/2000/svg" xmlns:xlink="http://www.w3.org/1999/xlink" width="1920" zoomAndPan="magnify" viewBox="0 0 1440 809.999993" height="1080" preserveAspectRatio="xMidYMid meet" version="1.0"><defs><clipPath id="id1"><path d="M 630.769531 1 L 1439.730469 1 L 1439.730469 809.960938 L 630.769531 809.960938 Z M 630.769531 1 " clip-rule="nonzero"/></clipPath></defs><g clip-path="url(#id1)"><path fill="rgb(20.388794%, 35.289001%, 77.648926%)" d="M 1439.730469 405.476562 C 1439.730469 628.867188 1258.636719 809.960938 1035.246094 809.960938 C 811.859375 809.960938 630.769531 628.867188 630.769531 405.476562 C 630.769531 182.089844 811.859375 1 1035.246094 1 C 1258.636719 1 1439.730469 182.089844 1439.730469 405.476562 " fill-opacity="1" fill-rule="nonzero"/></g><path fill="rgb(23.139954%, 50.979614%, 95.689392%)" d="M 630.835938 398 C 630.808594 399.683594 630.785156 401.359375 630.777344 403.042969 C 630.214844 497.59375 678.898438 586.566406 760.464844 634.394531 C 814.832031 666.28125 878.085938 684.644531 945.621094 684.867188 C 1148.429688 685.53125 1315.335938 519.816406 1316.050781 317.007812 C 1316.277344 252.871094 1300.144531 192.527344 1271.585938 139.902344 C 1223.988281 52.1875 1130.699219 -0.0234375 1030.910156 1.023438 C 1027.859375 1.054688 1024.796875 1.121094 1021.730469 1.222656 C 807.660156 8.214844 634.71875 183.847656 630.835938 398 " fill-opacity="1" fill-rule="nonzero"/><path fill="rgb(32.548523%, 60.778809%, 97.24884%)" d="M 1208.46875 306.117188 C 1208.46875 430.957031 1107.265625 532.15625 982.425781 532.15625 C 857.585938 532.15625 756.386719 430.957031 756.386719 306.117188 C 756.386719 181.277344 857.585938 80.074219 982.425781 80.074219 C 1107.265625 80.074219 1208.46875 181.277344 1208.46875 306.117188 " fill-opacity="1" fill-rule="nonzero"/><path fill="rgb(32.548523%, 60.778809%, 97.24884%)" d="M 1032.863281 428.363281 C 1032.863281 515.6875 962.070312 586.480469 874.742188 586.480469 C 787.414062 586.480469 716.621094 515.6875 716.621094 428.363281 C 716.621094 341.03125 787.414062 270.238281 874.742188 270.238281 C 962.070312 270.238281 1032.863281 341.03125 1032.863281 428.363281 " fill-opacity="1" fill-rule="nonzero"/><path fill="rgb(41.569519%, 70.199585%, 98.81897%)" d="M 1040.414062 293.195312 C 1009.445312 339.113281 955.363281 356.792969 919.617188 332.6875 C 883.871094 308.578125 880 251.8125 910.972656 205.894531 C 941.941406 159.972656 996.023438 142.292969 1031.765625 166.398438 C 1067.511719 190.507812 1071.382812 247.273438 1040.414062 293.195312 " fill-opacity="1" fill-rule="nonzero"/><path fill="rgb(20.388794%, 35.289001%, 77.648926%)" d="M 901.417969 408.390625 L 1025.90625 444.660156 C 1050.035156 451.6875 1061.734375 479.007812 1050.175781 501.324219 L 992.179688 613.285156 C 981.066406 634.742188 976.941406 659.128906 980.375 683.042969 L 990.691406 754.863281 C 992.144531 764.988281 980.269531 771.5 972.515625 764.828125 L 838.71875 649.664062 C 815.097656 629.332031 805.472656 597.097656 814.089844 567.140625 L 851.90625 435.667969 C 858.015625 414.441406 880.210938 402.210938 901.417969 408.390625 " fill-opacity="1" fill-rule="nonzero"/><path fill="rgb(37.649536%, 70.979309%, 37.249756%)" d="M 867.652344 384.03125 L 992.132812 420.300781 C 1016.261719 427.328125 1027.964844 454.648438 1016.402344 476.964844 L 958.40625 588.925781 C 947.292969 610.378906 943.167969 634.769531 946.605469 658.683594 L 956.921875 730.503906 C 958.375 740.625 946.496094 747.136719 938.746094 740.464844 L 804.949219 625.304688 C 781.324219 604.96875 771.707031 572.738281 780.320312 542.78125 L 818.136719 411.308594 C 824.242188 390.078125 846.441406 377.851562 867.652344 384.03125 " fill-opacity="1" fill-rule="nonzero"/><path fill="rgb(56.858826%, 83.529663%, 36.859131%)" d="M 867.652344 384.03125 L 992.132812 420.300781 C 1016.261719 427.328125 1027.964844 454.648438 1016.402344 476.964844 L 958.40625 588.925781 C 957.625 590.4375 956.882812 591.929688 956.179688 593.40625 C 928.726562 651.175781 854.832031 668.238281 806.355469 626.511719 L 804.949219 625.304688 C 781.324219 604.96875 771.707031 572.738281 780.320312 542.78125 L 818.136719 411.308594 C 824.242188 390.078125 846.441406 377.851562 867.652344 384.03125 " fill-opacity="1" fill-rule="nonzero"/><path fill="rgb(20.388794%, 35.289001%, 77.648926%)" d="M 967.511719 149.371094 L 911.648438 62.40625 C 794.242188 100.046875 692.175781 183.039062 646.09375 295.460938 C 641.289062 312.351562 637.558594 329.679688 634.984375 347.363281 C 632.8125 362.308594 638.609375 377.3125 650.230469 386.957031 L 688.027344 418.34375 C 698.480469 426.984375 712.523438 429.910156 725.5625 426.160156 L 804.847656 403.363281 C 813.167969 400.96875 815.921875 390.554688 809.863281 384.363281 L 784.3125 358.234375 C 777.199219 350.964844 779.496094 338.839844 788.769531 334.667969 L 815.632812 322.585938 C 826.125 317.867188 837.914062 316.867188 849.050781 319.753906 L 865.984375 324.148438 C 878.078125 327.28125 890.890625 323.191406 898.933594 313.632812 L 961.761719 238.929688 C 983.09375 213.5625 985.421875 177.257812 967.511719 149.371094 " fill-opacity="1" fill-rule="nonzero"/><path fill="rgb(56.858826%, 83.529663%, 36.859131%)" d="M 662.605469 355.191406 L 688.027344 376.199219 C 698.480469 384.839844 712.523438 387.765625 725.5625 384.015625 L 804.847656 361.21875 C 813.167969 358.824219 815.921875 348.410156 809.863281 342.21875 L 784.3125 316.09375 C 777.199219 308.820312 779.496094 296.695312 788.769531 292.523438 L 815.632812 280.441406 C 826.125 275.722656 837.910156 274.722656 849.046875 277.609375 L 865.988281 282.003906 C 878.078125 285.136719 890.890625 281.046875 898.933594 271.488281 L 961.761719 196.785156 C 983.09375 171.417969 985.421875 135.113281 967.511719 107.226562 L 926.714844 43.714844 C 917.671875 29.640625 899.886719 23.863281 884.367188 30.109375 C 767.707031 77.039062 677.964844 176.757812 644.746094 299.703125 C 639.242188 320.058594 646.351562 341.757812 662.605469 355.191406 " fill-opacity="1" fill-rule="nonzero"/><path fill="rgb(69.40918%, 91.369629%, 39.99939%)" d="M 779.53125 368.53125 C 786.992188 366.363281 795.386719 363.9375 804.847656 361.21875 C 813.167969 358.824219 815.917969 348.410156 809.863281 342.21875 L 784.3125 316.09375 C 777.199219 308.820312 779.496094 296.695312 788.769531 292.523438 L 815.628906 280.441406 C 826.121094 275.722656 837.910156 274.722656 849.046875 277.609375 L 865.988281 282.003906 C 878.078125 285.136719 890.890625 281.046875 898.933594 271.488281 L 961.761719 196.785156 C 977.976562 177.496094 983.214844 151.890625 976.921875 128.46875 C 976.164062 125.640625 975.402344 123.199219 974.464844 120.777344 C 959.394531 81.910156 912.023438 66.726562 876.289062 88.191406 C 796.132812 136.328125 737.460938 216.164062 717.335938 310.265625 C 709.46875 347.042969 743.410156 379.019531 779.53125 368.53125 " fill-opacity="1" fill-rule="nonzero"/><path fill="rgb(20.388794%, 35.289001%, 77.648926%)" d="M 1184.160156 161.238281 L 1177.859375 186.441406 C 1174.8125 198.621094 1180.707031 211.269531 1191.992188 216.769531 L 1244.578125 242.398438 C 1253.664062 246.828125 1264.476562 245.714844 1272.46875 239.53125 L 1294.65625 222.375 C 1305.632812 213.886719 1308.226562 198.378906 1300.613281 186.777344 L 1275.570312 148.636719 C 1270.125 140.347656 1260.511719 135.777344 1250.644531 136.792969 L 1207.21875 141.253906 C 1196.09375 142.402344 1186.871094 150.390625 1184.160156 161.238281 " fill-opacity="1" fill-rule="nonzero"/><path fill="rgb(56.858826%, 83.529663%, 36.859131%)" d="M 1184.152344 130.519531 L 1178.402344 153.53125 C 1175.617188 164.652344 1181.003906 176.199219 1191.304688 181.222656 L 1239.320312 204.625 C 1247.613281 208.667969 1257.488281 207.65625 1264.789062 202.007812 L 1285.042969 186.34375 C 1295.066406 178.59375 1297.4375 164.433594 1290.484375 153.839844 L 1267.617188 119.015625 C 1262.644531 111.441406 1253.871094 107.269531 1244.859375 108.199219 L 1205.207031 112.273438 C 1195.046875 113.316406 1186.628906 120.613281 1184.152344 130.519531 " fill-opacity="1" fill-rule="nonzero"/><path fill="rgb(20.388794%, 35.289001%, 77.648926%)" d="M 1083.855469 362.710938 L 1064.136719 419.585938 C 1059.214844 433.785156 1063.242188 449.546875 1074.367188 459.644531 L 1098.679688 481.707031 C 1110.941406 492.835938 1129.050781 494.605469 1143.238281 486.0625 L 1158.441406 476.90625 C 1176.242188 466.183594 1199.277344 470.710938 1211.695312 487.371094 L 1223.9375 503.800781 C 1227.550781 508.652344 1228.867188 514.839844 1227.53125 520.746094 L 1207.671875 608.558594 C 1203.484375 627.089844 1210.390625 646.375 1225.394531 658.035156 L 1248.824219 676.238281 C 1258.820312 684.007812 1273.386719 681.0625 1279.585938 670.027344 L 1382.054688 487.542969 C 1405.8125 445.242188 1398.703125 392.332031 1364.628906 357.792969 L 1294.042969 286.242188 C 1282.535156 274.578125 1265.191406 270.882812 1249.929688 276.832031 L 1116.371094 328.925781 C 1101.105469 334.878906 1089.222656 347.230469 1083.855469 362.710938 " fill-opacity="1" fill-rule="nonzero"/><path fill="rgb(37.649536%, 70.979309%, 37.249756%)" d="M 1093.175781 323.496094 L 1073.457031 380.375 C 1068.535156 394.574219 1072.5625 410.335938 1083.691406 420.433594 L 1108 442.496094 C 1120.261719 453.625 1138.375 455.394531 1152.558594 446.851562 L 1167.761719 437.691406 C 1185.5625 426.96875 1208.597656 431.496094 1221.015625 448.164062 L 1233.257812 464.589844 C 1236.875 469.441406 1238.1875 475.632812 1236.851562 481.53125 L 1216.996094 569.347656 C 1212.804688 587.878906 1219.710938 607.167969 1234.714844 618.824219 L 1258.144531 637.027344 C 1268.140625 644.796875 1282.710938 641.855469 1288.910156 630.8125 L 1391.375 448.332031 C 1415.128906 406.03125 1408.023438 353.117188 1373.953125 318.582031 L 1303.363281 247.03125 C 1291.855469 235.371094 1274.515625 231.667969 1259.25 237.625 L 1125.695312 289.714844 C 1110.429688 295.667969 1098.542969 308.015625 1093.175781 323.496094 " fill-opacity="1" fill-rule="nonzero"/><path fill="rgb(56.858826%, 83.529663%, 36.859131%)" d="M 1225.769531 529.707031 C 1221.054688 549.984375 1247.84375 561.847656 1259.710938 544.746094 C 1300.828125 485.492188 1325.101562 413.800781 1325.375 336.742188 C 1325.4375 318.644531 1324.175781 300.855469 1321.710938 283.457031 C 1319.273438 266.234375 1310.082031 250.316406 1295.382812 241.011719 C 1285.847656 234.972656 1274.054688 231.847656 1259.25 237.621094 L 1125.691406 289.714844 C 1110.429688 295.667969 1098.542969 308.015625 1093.179688 323.496094 L 1073.457031 380.378906 C 1068.535156 394.574219 1072.5625 410.335938 1083.691406 420.433594 L 1108.003906 442.496094 C 1120.265625 453.625 1138.375 455.394531 1152.558594 446.851562 L 1167.761719 437.695312 C 1185.5625 426.96875 1208.597656 431.496094 1221.015625 448.164062 L 1233.257812 464.589844 C 1236.875 469.441406 1238.179688 475.660156 1236.847656 481.558594 C 1232.371094 501.339844 1228.710938 517.054688 1225.769531 529.707031 " fill-opacity="1" fill-rule="nonzero"/><path fill="rgb(23.139954%, 50.979614%, 95.689392%)" d="M 1158.417969 703.34375 C 1165.597656 721.703125 1149.207031 745.273438 1121.816406 755.984375 C 1094.417969 766.695312 1066.390625 760.496094 1059.207031 742.136719 C 1052.03125 723.773438 1068.417969 700.207031 1095.816406 689.496094 C 1123.210938 678.78125 1151.242188 684.984375 1158.417969 703.34375 " fill-opacity="1" fill-rule="nonzero"/><path fill="rgb(23.139954%, 50.979614%, 95.689392%)" d="M 1191.691406 668.640625 C 1191.691406 677.601562 1184.425781 684.867188 1175.460938 684.867188 C 1166.5 684.867188 1159.230469 677.601562 1159.230469 668.640625 C 1159.230469 659.675781 1166.5 652.410156 1175.460938 652.410156 C 1184.425781 652.410156 1191.691406 659.675781 1191.691406 668.640625 " fill-opacity="1" fill-rule="nonzero"/><path fill="rgb(32.548523%, 60.778809%, 97.24884%)" d="M 1147.136719 212.472656 C 1147.136719 224.675781 1137.246094 234.566406 1125.042969 234.566406 C 1112.84375 234.566406 1102.953125 224.675781 1102.953125 212.472656 C 1102.953125 200.273438 1112.84375 190.382812 1125.042969 190.382812 C 1137.246094 190.382812 1147.136719 200.273438 1147.136719 212.472656 " fill-opacity="1" fill-rule="nonzero"/><path fill="rgb(37.649536%, 70.979309%, 37.249756%)" d="M 1249.855469 311.953125 L 1245.742188 319.925781 C 1242.863281 325.5 1243.519531 332.238281 1247.410156 337.160156 L 1260.984375 354.308594 C 1267.480469 362.519531 1279.992188 362.359375 1286.273438 353.984375 L 1299.402344 336.5 C 1302.84375 331.914062 1303.5625 325.832031 1301.28125 320.566406 L 1295.59375 307.441406 C 1292.320312 299.890625 1283.84375 296.0625 1276.015625 298.605469 L 1259.113281 304.089844 C 1255.113281 305.386719 1251.785156 308.214844 1249.855469 311.953125 " fill-opacity="1" fill-rule="nonzero"/><path fill="rgb(56.858826%, 83.529663%, 36.859131%)" d="M 1333.546875 437.324219 L 1321.03125 452.144531 C 1317.125 456.765625 1310.089844 457.023438 1305.855469 452.703125 L 1295.8125 442.453125 C 1290.117188 436.640625 1293.128906 426.820312 1301.109375 425.207031 L 1323.671875 420.640625 C 1333.210938 418.710938 1339.828125 429.894531 1333.546875 437.324219 " fill-opacity="1" fill-rule="nonzero"/><path fill="rgb(37.649536%, 70.979309%, 37.249756%)" d="M 1265.203125 401.308594 C 1262.746094 404.46875 1263.121094 408.988281 1266.070312 411.699219 L 1276.550781 421.355469 C 1280.34375 424.847656 1286.433594 423.699219 1288.695312 419.0625 L 1293.40625 409.410156 C 1295.898438 404.292969 1292.175781 398.328125 1286.480469 398.328125 L 1271.289062 398.328125 C 1268.90625 398.328125 1266.660156 399.429688 1265.203125 401.308594 " fill-opacity="1" fill-rule="nonzero"/><path fill="rgb(37.649536%, 70.979309%, 37.249756%)" d="M 833.539062 586.046875 C 828.171875 589.453125 826.3125 596.40625 829.257812 602.035156 L 834.148438 611.382812 C 840.726562 623.964844 857.574219 626.652344 867.746094 616.742188 L 871.308594 613.273438 C 877.78125 606.964844 875.414062 596.0625 866.910156 593.011719 L 844.21875 584.863281 C 840.664062 583.585938 836.726562 584.027344 833.539062 586.046875 " fill-opacity="1" fill-rule="nonzero"/><path fill="rgb(69.40918%, 91.369629%, 39.99939%)" d="M 857.929688 441.625 L 845.535156 451.398438 C 839.1875 456.40625 837.632812 465.390625 841.917969 472.242188 L 850.726562 486.328125 C 855.453125 493.886719 865.480469 496.058594 872.914062 491.136719 L 910.789062 466.039062 C 922.035156 458.59375 919.421875 441.398438 906.476562 437.621094 L 895.304688 434.359375 C 882.402344 430.59375 868.476562 433.300781 857.929688 441.625 " fill-opacity="1" fill-rule="nonzero"/><path fill="rgb(56.858826%, 83.529663%, 36.859131%)" d="M 871.355469 118.351562 L 863.511719 128.390625 C 859.46875 133.570312 860.6875 141.085938 866.152344 144.722656 L 881.527344 154.953125 C 889.023438 159.941406 899.050781 154.566406 899.050781 145.5625 L 899.050781 125.292969 C 899.050781 119.0625 894.003906 114.015625 887.773438 114.015625 L 880.246094 114.015625 C 876.773438 114.015625 873.496094 115.613281 871.355469 118.351562 " fill-opacity="1" fill-rule="nonzero"/><path fill="rgb(69.40918%, 91.369629%, 39.99939%)" d="M 728.976562 207.523438 L 721.722656 214.132812 C 714.347656 220.847656 715.074219 232.664062 723.21875 238.425781 L 745.351562 254.089844 C 754.003906 260.214844 766.117188 256.121094 769.28125 246.003906 L 777.355469 220.1875 C 780.503906 210.128906 772.988281 199.90625 762.449219 199.90625 L 748.640625 199.90625 C 741.363281 199.90625 734.351562 202.621094 728.976562 207.523438 " fill-opacity="1" fill-rule="nonzero"/><path fill="rgb(85.488892%, 15.689087%, 24.708557%)" d="M 967.339844 490.6875 C 967.339844 514.015625 948.433594 532.925781 925.105469 532.925781 C 901.777344 532.925781 882.871094 514.015625 882.871094 490.6875 C 882.871094 467.363281 901.777344 448.453125 925.105469 448.453125 C 948.433594 448.453125 967.339844 467.363281 967.339844 490.6875 " fill-opacity="1" fill-rule="nonzero"/><path fill="rgb(85.488892%, 15.689087%, 24.708557%)" d="M 1305.816406 249.542969 C 1305.816406 272.867188 1286.910156 291.777344 1263.582031 291.777344 C 1240.257812 291.777344 1221.347656 272.867188 1221.347656 249.542969 C 1221.347656 226.214844 1240.257812 207.304688 1263.582031 207.304688 C 1286.910156 207.304688 1305.816406 226.214844 1305.816406 249.542969 " fill-opacity="1" fill-rule="nonzero"/><path fill="rgb(85.488892%, 15.689087%, 24.708557%)" d="M 976.125 235.261719 C 977.296875 263.511719 955.347656 287.359375 927.097656 288.53125 C 898.851562 289.703125 875 267.75 873.832031 239.503906 C 872.660156 211.253906 894.609375 187.40625 922.859375 186.234375 C 951.105469 185.0625 974.957031 207.015625 976.125 235.261719 " fill-opacity="1" fill-rule="nonzero"/><path fill="rgb(94.898987%, 25.099182%, 25.099182%)" d="M 868.78125 652.410156 C 868.78125 672.214844 852.722656 688.273438 832.910156 688.273438 C 813.101562 688.273438 797.042969 672.214844 797.042969 652.410156 C 797.042969 632.597656 813.101562 616.539062 832.910156 616.539062 C 852.722656 616.539062 868.78125 632.597656 868.78125 652.410156 " fill-opacity="1" fill-rule="nonzero"/><path fill="rgb(94.898987%, 25.099182%, 25.099182%)" d="M 812.617188 525.59375 C 812.617188 538.355469 802.273438 548.699219 789.511719 548.699219 C 776.75 548.699219 766.40625 538.355469 766.40625 525.59375 C 766.40625 512.832031 776.75 502.488281 789.511719 502.488281 C 802.273438 502.488281 812.617188 512.832031 812.617188 525.59375 " fill-opacity="1" fill-rule="nonzero"/><path fill="rgb(94.898987%, 25.099182%, 25.099182%)" d="M 1315.976562 603.453125 C 1315.976562 616.214844 1305.632812 626.5625 1292.871094 626.5625 C 1280.109375 626.5625 1269.765625 616.214844 1269.765625 603.453125 C 1269.765625 590.695312 1280.109375 580.347656 1292.871094 580.347656 C 1305.632812 580.347656 1315.976562 590.695312 1315.976562 603.453125 " fill-opacity="1" fill-rule="nonzero"/><path fill="rgb(75.689697%, 5.879211%, 23.919678%)" d="M 1126.058594 212.472656 C 1126.058594 225.234375 1115.714844 235.578125 1102.953125 235.578125 C 1090.191406 235.578125 1079.847656 225.234375 1079.847656 212.472656 C 1079.847656 199.714844 1090.191406 189.367188 1102.953125 189.367188 C 1115.714844 189.367188 1126.058594 199.714844 1126.058594 212.472656 " fill-opacity="1" fill-rule="nonzero"/><path fill="rgb(96.078491%, 27.449036%, 27.449036%)" d="M 1309.148438 190.871094 C 1309.148438 210.675781 1293.089844 226.734375 1273.28125 226.734375 C 1253.472656 226.734375 1237.414062 210.675781 1237.414062 190.871094 C 1237.414062 171.058594 1253.472656 155 1273.28125 155 C 1293.089844 155 1309.148438 171.058594 1309.148438 190.871094 " fill-opacity="1" fill-rule="nonzero"/><path fill="rgb(96.078491%, 27.449036%, 27.449036%)" d="M 905.277344 270.238281 C 905.277344 290.050781 889.21875 306.109375 869.410156 306.109375 C 849.601562 306.109375 833.542969 290.050781 833.542969 270.238281 C 833.542969 250.433594 849.601562 234.375 869.410156 234.375 C 889.21875 234.375 905.277344 250.433594 905.277344 270.238281 " fill-opacity="1" fill-rule="nonzero"/><path fill="rgb(94.898987%, 25.099182%, 25.099182%)" d="M 889.015625 207.304688 C 889.015625 218.136719 880.238281 226.914062 869.410156 226.914062 C 858.582031 226.914062 849.804688 218.136719 849.804688 207.304688 C 849.804688 196.480469 858.582031 187.699219 869.410156 187.699219 C 880.238281 187.699219 889.015625 196.480469 889.015625 207.304688 " fill-opacity="1" fill-rule="nonzero"/><path fill="rgb(96.078491%, 27.449036%, 27.449036%)" d="M 821.628906 380.648438 C 821.628906 391.476562 812.847656 400.253906 802.019531 400.253906 C 791.191406 400.253906 782.414062 391.476562 782.414062 380.648438 C 782.414062 369.820312 791.191406 361.042969 802.019531 361.042969 C 812.847656 361.042969 821.628906 369.820312 821.628906 380.648438 " fill-opacity="1" fill-rule="nonzero"/><path fill="rgb(96.078491%, 27.449036%, 27.449036%)" d="M 950.953125 523.671875 C 950.953125 534.5 942.175781 543.28125 931.347656 543.28125 C 920.519531 543.28125 911.738281 534.5 911.738281 523.671875 C 911.738281 512.84375 920.519531 504.066406 931.347656 504.066406 C 942.175781 504.066406 950.953125 512.84375 950.953125 523.671875 " fill-opacity="1" fill-rule="nonzero"/><path fill="rgb(94.898987%, 25.099182%, 25.099182%)" d="M 1231.25 194.199219 C 1231.25 205.027344 1222.472656 213.808594 1211.644531 213.808594 C 1200.816406 213.808594 1192.039062 205.027344 1192.039062 194.199219 C 1192.039062 183.371094 1200.816406 174.59375 1211.644531 174.59375 C 1222.472656 174.59375 1231.25 183.371094 1231.25 194.199219 " fill-opacity="1" fill-rule="nonzero"/><path fill="rgb(85.488892%, 15.689087%, 24.708557%)" d="M 826.628906 224.480469 C 826.628906 235.308594 817.851562 244.089844 807.019531 244.089844 C 796.191406 244.089844 787.414062 235.308594 787.414062 224.480469 C 787.414062 213.652344 796.191406 204.871094 807.019531 204.871094 C 817.851562 204.871094 826.628906 213.652344 826.628906 224.480469 " fill-opacity="1" fill-rule="nonzero"/><path fill="rgb(85.488892%, 15.689087%, 24.708557%)" d="M 847.472656 393.757812 C 847.472656 404.585938 838.695312 413.367188 827.863281 413.367188 C 817.035156 413.367188 808.257812 404.585938 808.257812 393.757812 C 808.257812 382.929688 817.035156 374.152344 827.863281 374.152344 C 838.695312 374.152344 847.472656 382.929688 847.472656 393.757812 " fill-opacity="1" fill-rule="nonzero"/><path fill="rgb(85.488892%, 15.689087%, 24.708557%)" d="M 822.875 455.785156 C 822.875 466.613281 814.097656 475.390625 803.269531 475.390625 C 792.441406 475.390625 783.664062 466.613281 783.664062 455.785156 C 783.664062 444.953125 792.441406 436.175781 803.269531 436.175781 C 814.097656 436.175781 822.875 444.953125 822.875 455.785156 " fill-opacity="1" fill-rule="nonzero"/><path fill="rgb(75.689697%, 5.879211%, 23.919678%)" d="M 1322.53125 199.90625 C 1322.53125 210.738281 1313.753906 219.515625 1302.921875 219.515625 C 1292.09375 219.515625 1283.316406 210.738281 1283.316406 199.90625 C 1283.316406 189.078125 1292.09375 180.300781 1302.921875 180.300781 C 1313.753906 180.300781 1322.53125 189.078125 1322.53125 199.90625 " fill-opacity="1" fill-rule="nonzero"/><path fill="rgb(75.689697%, 5.879211%, 23.919678%)" d="M 873.78125 187.25 C 873.78125 194.238281 868.113281 199.90625 861.121094 199.90625 C 854.132812 199.90625 848.464844 194.238281 848.464844 187.25 C 848.464844 180.261719 854.132812 174.59375 861.121094 174.59375 C 868.113281 174.59375 873.78125 180.261719 873.78125 187.25 " fill-opacity="1" fill-rule="nonzero"/><path fill="rgb(75.689697%, 5.879211%, 23.919678%)" d="M 815.925781 477.3125 C 815.925781 484.304688 810.257812 489.972656 803.269531 489.972656 C 796.277344 489.972656 790.613281 484.304688 790.613281 477.3125 C 790.613281 470.324219 796.277344 464.65625 803.269531 464.65625 C 810.257812 464.65625 815.925781 470.324219 815.925781 477.3125 " fill-opacity="1" fill-rule="nonzero"/><path fill="rgb(75.689697%, 5.879211%, 23.919678%)" d="M 875.210938 652.410156 C 875.210938 659.398438 869.542969 665.066406 862.550781 665.066406 C 855.5625 665.066406 849.898438 659.398438 849.898438 652.410156 C 849.898438 645.417969 855.5625 639.75 862.550781 639.75 C 869.542969 639.75 875.210938 645.417969 875.210938 652.410156 " fill-opacity="1" fill-rule="nonzero"/><path fill="rgb(75.689697%, 5.879211%, 23.919678%)" d="M 944.003906 364.445312 C 944.003906 371.433594 938.335938 377.101562 931.347656 377.101562 C 924.355469 377.101562 918.6875 371.433594 918.6875 364.445312 C 918.6875 357.453125 924.355469 351.785156 931.347656 351.785156 C 938.335938 351.785156 944.003906 357.453125 944.003906 364.445312 " fill-opacity="1" fill-rule="nonzero"/><path fill="rgb(85.488892%, 15.689087%, 24.708557%)" d="M 1212.367188 398.328125 C 1212.367188 407.535156 1204.902344 414.996094 1195.703125 414.996094 C 1186.496094 414.996094 1179.035156 407.535156 1179.035156 398.328125 C 1179.035156 389.125 1186.496094 381.664062 1195.703125 381.664062 C 1204.902344 381.664062 1212.367188 389.125 1212.367188 398.328125 " fill-opacity="1" fill-rule="nonzero"/><path fill="rgb(85.488892%, 15.689087%, 24.708557%)" d="M 1382.660156 321.660156 C 1382.660156 330.863281 1375.199219 338.324219 1365.992188 338.324219 C 1356.789062 338.324219 1349.328125 330.863281 1349.328125 321.660156 C 1349.328125 312.457031 1356.789062 304.996094 1365.992188 304.996094 C 1375.199219 304.996094 1382.660156 312.457031 1382.660156 321.660156 " fill-opacity="1" fill-rule="nonzero"/><path fill="rgb(85.488892%, 15.689087%, 24.708557%)" d="M 1211.644531 266.210938 C 1211.644531 275.414062 1204.183594 282.875 1194.980469 282.875 C 1185.773438 282.875 1178.3125 275.414062 1178.3125 266.210938 C 1178.3125 257.003906 1185.773438 249.542969 1194.980469 249.542969 C 1204.183594 249.542969 1211.644531 257.003906 1211.644531 266.210938 " fill-opacity="1" fill-rule="nonzero"/><path fill="rgb(85.488892%, 15.689087%, 24.708557%)" d="M 703.25 306.117188 C 703.25 315.320312 695.789062 322.78125 686.585938 322.78125 C 677.382812 322.78125 669.921875 315.320312 669.921875 306.117188 C 669.921875 296.914062 677.382812 289.453125 686.585938 289.453125 C 695.789062 289.453125 703.25 296.914062 703.25 306.117188 " fill-opacity="1" fill-rule="nonzero"/><path fill="rgb(75.689697%, 5.879211%, 23.919678%)" d="M 1159.792969 408.789062 C 1159.792969 415.78125 1154.128906 421.445312 1147.136719 421.445312 C 1140.144531 421.445312 1134.480469 415.78125 1134.480469 408.789062 C 1134.480469 401.800781 1140.144531 396.132812 1147.136719 396.132812 C 1154.128906 396.132812 1159.792969 401.800781 1159.792969 408.789062 " fill-opacity="1" fill-rule="nonzero"/><path fill="rgb(94.898987%, 25.099182%, 25.099182%)" d="M 1276.238281 487.773438 C 1276.238281 494.765625 1270.574219 500.429688 1263.582031 500.429688 C 1256.589844 500.429688 1250.925781 494.765625 1250.925781 487.773438 C 1250.925781 480.785156 1256.589844 475.117188 1263.582031 475.117188 C 1270.574219 475.117188 1276.238281 480.785156 1276.238281 487.773438 " fill-opacity="1" fill-rule="nonzero"/></svg>