<?xml version="1.0" ?><svg id="Icons" viewBox="0 0 60 60" xmlns="http://www.w3.org/2000/svg"><defs><style>.cls-1{fill:#f8536c;}.cls-2{fill:#ffc388;}.cls-3{fill:#fccb55;}.cls-4{fill:#262626;}</style></defs><path class="cls-1" d="M5.449,59.412a.5.5,0,0,1-.272-.919l1.872-1.22L4.161,58.94a.5.5,0,0,1-.528-.847l6.7-4.494L2.787,57.955a.5.5,0,0,1-.532-.845l9.726-6.664L1.721,56.37a.5.5,0,0,1-.525-.85l7.087-4.66-6.94,4.007a.5.5,0,0,1-.531-.846l10.6-7.2L1.28,52.666a.5.5,0,0,1-.531-.846L11.6,44.428,1.28,50.385a.5.5,0,0,1-.523-.852l6.583-4.3-6.06,3.5a.5.5,0,0,1-.531-.845l10.9-7.434L1.28,46.444a.5.5,0,0,1-.516-.855l.421-.266a.5.5,0,0,1-.421-.9l.437-.277a.5.5,0,0,1-.442-.889l5.279-3.414L1.311,42.574a.5.5,0,0,1-.517-.855l.529-.334a.5.5,0,0,1-.462-.88l10.828-7.387L1.556,38.969a.5.5,0,0,1-.524-.852l6.359-4.15-5.474,3.16a.5.5,0,0,1-.518-.855l1.2-.761-.4.228a.5.5,0,0,1-.53-.846L11.2,28.438l-8.24,4.756a.5.5,0,0,1-.531-.845l9.11-6.2L3.955,30.522a.5.5,0,0,1-.523-.851L7.32,27.13,5,28.472a.5.5,0,0,1-.539-.841L12.549,21.9l-5.39,3.111a.5.5,0,0,1-.535-.843l3.6-2.506-.581.335a.5.5,0,0,1-.543-.838l3.835-2.78a.463.463,0,0,1-.092-.117.5.5,0,0,1,.182-.683l5-2.887a.5.5,0,0,1,.543.838l-1.074.779,2.508-1.448a.5.5,0,0,1,.535.843l-3.61,2.512,4.433-2.559a.5.5,0,0,1,.539.841l-8.088,5.731,8.664-5a.5.5,0,0,1,.523.851l-3.889,2.541,3.6-2.078a.5.5,0,0,1,.531.846l-9.1,6.2L22.72,20.63a.5.5,0,0,1,.53.847l-9.527,6.457,9-5.195a.5.5,0,0,1,.517.855l-1.192.758.675-.39a.5.5,0,0,1,.523.851l-6.354,4.148L22.72,25.6a.5.5,0,0,1,.532.845L12.42,33.83l10.3-5.946a.5.5,0,0,1,.516.855l-.466.295a.5.5,0,0,1,.471.878l-5.278,3.413,4.757-2.746a.5.5,0,0,1,.516.856l-.437.276a.5.5,0,0,1,.437.893l-.421.265a.5.5,0,0,1,.436.889l-10.9,7.433L22.72,35.2a.5.5,0,0,1,.523.852l-6.583,4.3,6.06-3.5a.5.5,0,0,1,.531.845L12.4,45.091,22.72,39.134a.5.5,0,0,1,.531.845l-10.6,7.206L22.72,41.371a.5.5,0,0,1,.524.851L16.16,46.879l6.56-3.787a.5.5,0,0,1,.532.845L13.527,50.6l9.193-5.308a.5.5,0,0,1,.528.848l-6.709,4.5,6.14-3.544a.5.5,0,0,1,.522.851l-1.875,1.222,1.208-.7a.5.5,0,0,1,.553.83l-6.266,4.772,4.9-2.829a.5.5,0,0,1,.546.836l-1.629,1.2a.509.509,0,0,1,.483.247.5.5,0,0,1-.183.683L13.6,58.444a.5.5,0,0,1-.546-.836l1.309-.962-3.844,2.219a.5.5,0,0,1-.552-.83l6.268-4.773L5.7,59.345A.494.494,0,0,1,5.449,59.412Z"/><path class="cls-1" d="M54.825,59.366a.5.5,0,0,1-.368-.839l1.849-2.006-4.495,2.594a.5.5,0,0,1-.58-.808l3.56-3.114-6.064,3.5a.5.5,0,0,1-.555-.829l4.44-3.406L46.06,58.241a.5.5,0,0,1-.542-.839l4.961-3.56-6.541,3.775a.5.5,0,0,1-.671-.165.5.5,0,0,1,.136-.679l5.388-3.738-6.439,3.718a.5.5,0,0,1-.54-.84l8.327-5.932L40.7,55.429a.5.5,0,0,1-.537-.842l9.218-6.47L39.379,53.894a.5.5,0,0,1-.525-.851l4.858-3.183L38.627,52.8a.5.5,0,0,1-.528-.849l7.738-5.177L38.01,51.288a.5.5,0,0,1-.524-.851l5.492-3.586-5.4,3.119a.5.5,0,0,1-.518-.855l1.283-.816-.905.522a.5.5,0,0,1-.526-.849l6.868-4.539-6.5,3.75a.5.5,0,0,1-.52-.853l3.424-2.208L37.28,45.8a.5.5,0,0,1-.532-.846l9.024-6.168-8.492,4.9a.5.5,0,0,1-.53-.847L44.483,37.6l-7.2,4.158a.5.5,0,0,1-.524-.851l4.36-2.867L37.28,40.258a.5.5,0,0,1-.53-.847l6.5-4.4L37.28,38.452a.5.5,0,0,1-.535-.844l7.175-4.974-6.64,3.833a.5.5,0,0,1-.528-.849l3.783-2.528L37.28,34.969a.5.5,0,0,1-.543-.838l7.335-5.3-6.793,3.922a.5.5,0,0,1-.534-.844l4.086-2.818-3.552,2.05a.5.5,0,0,1-.545-.837l5.578-4.064-5.033,2.906a.5.5,0,0,1-.556-.828l5.813-4.5-5.257,3.035A.5.5,0,0,1,36.743,26l1.168-.814-.632.364a.5.5,0,0,1-.552-.831l3.2-2.427-2.644,1.526a.5.5,0,0,1-.549-.833L38.3,21.814l-1.019.588a.5.5,0,0,1-.55-.832l.768-.578-.218.125a.5.5,0,0,1-.559-.825l.784-.617-.225.129a.5.5,0,0,1-.565-.821l.5-.406a.559.559,0,0,1-.417-.2.5.5,0,0,1,.056-.662l.844-.8a.488.488,0,0,1-.185-.184.5.5,0,0,1,.182-.683l2.369-1.367a.5.5,0,0,1,.595.8l-.083.079,1.273-.735a.5.5,0,0,1,.565.821l-.212.173.831-.48a.5.5,0,0,1,.56.825l-.787.62,1.3-.749a.5.5,0,0,1,.55.832l-.764.576,1.259-.727a.5.5,0,0,1,.549.833l-1.564,1.168L46.3,17.456a.5.5,0,0,1,.553.831l-3.2,2.431,3.884-2.242a.5.5,0,0,1,.536.842l-1.16.809,1.5-.865a.5.5,0,0,1,.557.828L43.152,24.6,49.97,20.66a.5.5,0,0,1,.544.837l-5.58,4.066,6.182-3.569a.5.5,0,0,1,.534.844l-4.083,2.816,4.447-2.566a.5.5,0,0,1,.543.838l-7.331,5.3,8-4.62a.5.5,0,0,1,.528.849l-3.778,2.525,3.912-2.258a.5.5,0,0,1,.535.843l-7.18,4.979L54.766,27.2a.5.5,0,0,1,.53.847l-6.493,4.4,6.748-3.9a.5.5,0,0,1,.524.85l-4.366,2.871,4.335-2.5a.5.5,0,0,1,.53.847l-7.733,5.238,7.834-4.522a.5.5,0,0,1,.532.846L48.18,38.351l9.15-5.283a.5.5,0,0,1,.521.853l-3.428,2.211,3.2-1.845a.5.5,0,0,1,.526.85l-6.863,4.535,6.7-3.865a.5.5,0,0,1,.518.854l-1.3.827,1.038-.6a.5.5,0,0,1,.524.851l-5.479,3.577,5.147-2.97a.5.5,0,0,1,.528.848l-7.739,5.179,7.349-4.243a.5.5,0,0,1,.525.85l-4.858,3.183L58.677,41.6a.5.5,0,0,1,.537.841L50,48.909l8.723-5.036a.5.5,0,0,1,.54.84l-8.327,5.932,7.787-4.5a.5.5,0,0,1,.535.844l-5.39,3.739,4.856-2.8a.5.5,0,0,1,.542.839L54.3,52.328l4.419-2.551a.5.5,0,0,1,.554.829l-4.44,3.408,3.886-2.243a.5.5,0,0,1,.579.808l-3.561,3.113,2.9-1.674a.5.5,0,0,1,.618.771L57.412,56.8l.211-.122a.5.5,0,1,1,.5.865L55.075,59.3A.489.489,0,0,1,54.825,59.366Z"/><path class="cls-2" d="M38.471,32.275a.5.5,0,0,1-.489-.607l.059-.265-.2.118a.5.5,0,0,1-.673-.7l.182-.288-.448.258a.5.5,0,0,1-.618-.77l.064-.07-.3.174a.5.5,0,0,1-.642-.743l.927-1.169-1.575.909a.5.5,0,0,1-.671-.7l1.173-1.837-2.162,1.248a.5.5,0,0,1-.625-.764l.812-.92-1.384.8a.5.5,0,0,1-.626-.762l.894-1.019L29.9,26.473a.5.5,0,0,1-.5-.866l4.894-2.825a.5.5,0,0,1,.626.763l-.9,1.018,1.405-.81a.5.5,0,0,1,.625.764l-.813.921,1.289-.745a.5.5,0,0,1,.671.7l-1.173,1.835,2.074-1.2a.5.5,0,0,1,.641.743l-.928,1.17.856-.493a.5.5,0,0,1,.618.771l-.342.373a.489.489,0,0,1,.264.143.5.5,0,0,1,.062.613l-.358.569a.453.453,0,0,1,.154.076.5.5,0,0,1,.194.511l-.178.808a.574.574,0,0,1,.052.074.5.5,0,0,1-.184.683l-.23.133A.508.508,0,0,1,38.471,32.275Z"/><path class="cls-2" d="M21.279,31.83a.5.5,0,0,1-.3-.9l6.039-4.642L21.4,29.536a.5.5,0,0,1-.557-.828l5.374-4.167L21.49,27.267a.5.5,0,0,1-.544-.837l5.409-3.938a.5.5,0,0,1-.018-.794L27.59,20.69a.5.5,0,0,1-.171-.812L29.1,18.154l-.817.471a.5.5,0,0,1-.628-.76l2-2.321-1.377.795a.5.5,0,0,1-.581-.807l.387-.343a.5.5,0,0,1-.447-.184.5.5,0,0,1,.023-.651L29.376,12.5l-1.1.633a.5.5,0,0,1-.627-.762l1.966-2.253-1.339.773a.5.5,0,0,1-.606-.783L29.02,8.736l-.741.427a.5.5,0,0,1-.622-.767l1.831-2.034-1.209.7a.5.5,0,0,1-.618-.771l1.741-1.9-1.123.647a.5.5,0,0,1-.606-.783l.821-.834-.215.123a.5.5,0,0,1-.681-.685l.4-.691a.5.5,0,0,1-.137-.921L28.992.6a.5.5,0,0,1,.682.685l-.265.455L31.185.712a.5.5,0,0,1,.606.783l-.823.837L31.72,1.9a.5.5,0,0,1,.618.771l-1.74,1.9,1.122-.647a.5.5,0,0,1,.622.767L30.511,6.72l1.209-.7a.5.5,0,0,1,.606.784L30.978,8.174l.742-.428a.5.5,0,0,1,.627.762l-1.966,2.253,1.339-.773a.5.5,0,0,1,.617.772l-1.712,1.856,1.095-.632a.5.5,0,0,1,.581.807l-.387.343a.506.506,0,0,1,.442.179.5.5,0,0,1-.007.645L30.343,16.28l1.378-.8a.5.5,0,0,1,.608.782l-1.677,1.722,1.069-.616a.5.5,0,0,1,.563.822l-.385.31a.5.5,0,0,1,.408.891L29.184,21.67l2.884-1.665a.5.5,0,0,1,.557.828L27.249,25l5.833-3.367a.5.5,0,0,1,.555.829L24.88,29.193a.478.478,0,0,1,.026.042.5.5,0,0,1-.182.683l-3.195,1.845A.491.491,0,0,1,21.279,31.83Z"/><path class="cls-3" d="M15.532,38.345a.5.5,0,0,1-.442-.733l.922-1.758-1.635.944a.5.5,0,0,1-.643-.742l.463-.588a.5.5,0,0,1-.124-.917L15.71,33.6a.5.5,0,0,1,.643.743l-.225.286.878-.507a.5.5,0,0,1,.692.665l-.922,1.757.8-.464a.5.5,0,1,1,.5.865l-2.3,1.327A.49.49,0,0,1,15.532,38.345Z"/><path class="cls-3" d="M12.048,45.46a.5.5,0,0,1-.438-.743l.771-1.386-1.84,1.062a.5.5,0,0,1-.685-.681l.752-1.316-.035.02a.5.5,0,0,1-.5-.865L11.71,40.6a.494.494,0,0,1,.6.079.5.5,0,0,1,.083.6L11.643,42.6l1.8-1.04a.5.5,0,0,1,.6.076.5.5,0,0,1,.087.6l-.771,1.386.061-.034a.5.5,0,0,1,.5.865l-1.624.938A.5.5,0,0,1,12.048,45.46Z"/><path class="cls-3" d="M43.931,38.45a.5.5,0,0,1-.418-.775l.658-1-1.507.869a.5.5,0,0,1-.7-.657l.795-1.581-.19.108a.5.5,0,0,1-.5-.865L43.71,33.6a.5.5,0,0,1,.7.658l-.8,1.582,1.889-1.09a.5.5,0,0,1,.668.708l-.66,1a.5.5,0,0,1,.468.883l-1.8,1.036A.489.489,0,0,1,43.931,38.45Z"/><path class="cls-3" d="M47.638,45.372a.506.506,0,0,1-.361-.153.5.5,0,0,1-.063-.613l.833-1.33-1.565.9a.5.5,0,0,1-.671-.7l.646-1.013a.5.5,0,0,1-.566-.233.5.5,0,0,1,.182-.682L47.71,40.6a.5.5,0,0,1,.672.7l-.628.984,1.533-.885a.5.5,0,0,1,.674.7l-.833,1.331.426-.246a.5.5,0,0,1,.5.866l-2.166,1.25A.489.489,0,0,1,47.638,45.372Z"/><path class="cls-4" d="M58.856,35.122a31.355,31.355,0,0,0-14.735-19.7c-2.116-1.22-4.6-1.4-6.467.425-1.351,1.318-1.391,2.951-1.391,4.7v3.286l-1.213-1.04a5.815,5.815,0,0,1-2.263-3.492,10.338,10.338,0,0,1-.063-1.66V3.672a15.492,15.492,0,0,0,0-1.79C32.594.787,31.752.714,30.837.714c-.987,0-2.264-.15-3.081.541a1.734,1.734,0,0,0-.48,1.54V16.6c0,2.308.1,4.4-1.846,6.1-.562.493-1.135.973-1.7,1.46V21.093c0-1.374.182-2.907-.469-4.164a4.635,4.635,0,0,0-5.073-2.268c-2.391.491-4.723,2.458-6.56,3.977C4.066,24.888.273,34.045.273,43.735v9.571a6.2,6.2,0,0,0,1.109,4.06,5.729,5.729,0,0,0,5.254,2.018,56.684,56.684,0,0,0,8.321-1.233,11.759,11.759,0,0,0,8.721-10.058c.276-2.927.049-5.963.049-8.9v-8.6h0l4.434-3.449a3.6,3.6,0,0,1,1.166-.748,2.449,2.449,0,0,1,2.1.731l3.545,2.757,1.287,1c0,5.33-.02,10.661,0,15.99A11.653,11.653,0,0,0,41.81,57.013c2.949,1.762,6.592,1.86,9.918,2.315a8.239,8.239,0,0,0,4.385-.2,5.736,5.736,0,0,0,3.624-5.176c.082-2.737,0-5.49,0-8.229A44.483,44.483,0,0,0,58.856,35.122Zm-.593,18.212A5.057,5.057,0,0,1,56.8,57.405c-1.309,1.165-2.812,1.047-4.395.831-2.892-.395-6.249-.448-8.9-1.776a10.715,10.715,0,0,1-5.77-9.678c-.018-4.918,0-9.836,0-14.754l.294.229c.335.261,1.628-.3,1.359-.514q-.852-.663-1.706-1.327a.511.511,0,0,0-.351-.274c-1.55-1.21-3.1-2.424-4.656-3.621-3.066-2.352-6.085.869-8.417,2.683l-1.353,1.052c-.327.073-.629.255-.633.492l-1.547,1.2c-.595.464.84.319,1.125.1l.421-.328V45.779c0,3.261-.549,6.332-2.905,8.8-2.6,2.726-5.946,3.025-9.437,3.5-1.051.144-2.1.329-3.162.432a4.646,4.646,0,0,1-5.037-4.481c-.134-2.456,0-4.953,0-7.412a58.328,58.328,0,0,1,.344-8.707A30.651,30.651,0,0,1,7.69,24.32a30.009,30.009,0,0,1,5.983-6.081c2.081-1.583,5.1-4.129,7.514-1.741,1.3,1.292,1.086,3.089,1.086,4.756v4.118c0,.012.008.019.009.03-.647.551-1.291,1.107-1.936,1.66-.285.244,1.044.1,1.308-.124l1.437-1.232c.33-.073.636-.257.636-.5v-.049l2.429-2.082a6.2,6.2,0,0,0,2.568-4.909c.033-4.341,0-8.683,0-13.024V2.622a6.327,6.327,0,0,0,0-.646c-.032-.323-.218-.572.034-.691a4.572,4.572,0,0,1,1.621,0c.6.087.822.44.9,1.007a12.861,12.861,0,0,1,0,1.607V17.563c0,.443-.014.889,0,1.331a5.475,5.475,0,0,0,2.077,4.1c.979.852,1.969,1.692,2.957,2.534a.5.5,0,0,0,.337.289c.558.475,1.113.954,1.669,1.431.286.245,1.564-.317,1.368-.486l-1.947-1.669V21.734a13.673,13.673,0,0,1,.162-3.893c1.875-5.944,9.8,1.57,11.882,3.74a30.581,30.581,0,0,1,7.351,12.876,36.973,36.973,0,0,1,1.131,10.1Z"/><path class="cls-4" d="M15.669,34.471h0a.233.233,0,0,0-.025.006l-.033.008C15.583,34.5,15.626,34.507,15.669,34.471Z"/><path class="cls-4" d="M17.1,33.681a3.1,3.1,0,0,0-3.212.86,2.354,2.354,0,0,0-.275,2.782A2.643,2.643,0,0,0,16.4,38.4a2.721,2.721,0,0,0,2.331-2.477A2.357,2.357,0,0,0,17.1,33.681Zm-.12,3.388s-.031.042-.049.067l-.054.063c-.022.023-.124.116-.136.132-.039.028-.079.056-.12.082.026-.015,0,.014-.036.028l-.011,0-.012.008.011-.008c-.045.02-.092.039-.137.06h-.008l-.056.016c.076-.025-.122,0-.144.014h-.071c-.046,0-.091-.009-.137-.012h0L16,37.519c-.052-.014-.1-.026-.156-.041-.007,0-.093-.036-.1-.036-.02-.009-.041-.018-.06-.028a1.83,1.83,0,0,1-.227-.131,1.67,1.67,0,0,1-.357-.342,1.754,1.754,0,0,1-.161-1.876,1.9,1.9,0,0,1,.13-.2l.038-.045c.03-.031.059-.063.09-.093l.036-.035c.015-.011.073-.059.075-.061.028-.02.059-.037.087-.058l.022-.014.046-.023c.032-.015.065-.027.1-.041h0c.007,0,0,0,.012,0l.037-.008a.228.228,0,0,1,.033-.008.162.162,0,0,0,.034-.01l-.007,0,.079-.007c.02,0,.049,0,.067,0,.046,0,.092.007.138.01h.026a.07.07,0,0,0,.024.009c.052.015.1.026.156.041l.085.031a2.014,2.014,0,0,1,.256.135,1.426,1.426,0,0,1,.368.331,1.739,1.739,0,0,1,.4,1.057A1.7,1.7,0,0,1,16.98,37.069Z"/><path class="cls-4" d="M16.574,37.446l.047-.033-.048.033Z"/><path class="cls-4" d="M13.058,40.694a3.172,3.172,0,0,0-3.238.965,2.272,2.272,0,0,0-.2,2.675,2.654,2.654,0,0,0,2.86,1,2.685,2.685,0,0,0,2.241-2.426c0-.021-.013-.031-.016-.05s.016-.035.015-.057A2.288,2.288,0,0,0,13.058,40.694Zm-.635,3.866a.177.177,0,0,1-.053.01l.053-.01Zm.486-.363c-.006.009-.026.031-.038.046-.056.059-.115.111-.175.166l-.011.011h0a.982.982,0,0,0-.11.071l-.011.008c-.033.015-.074.036-.113.051-.006,0,0,0-.008,0l-.052.013-.027.007-.044,0-.023.005h-.015c-.037,0-.075,0-.112,0a.2.2,0,0,0-.032,0l-.024-.006c-.035-.007-.071-.013-.106-.021-.018,0-.1-.026-.132-.034l-.089-.035c-.04-.017-.08-.036-.119-.056-.063-.032-.161-.089-.2-.114a1.986,1.986,0,0,1-.366-.358A1.8,1.8,0,0,1,10.958,42c.045-.075.1-.144.148-.214l.023-.026c.031-.033.063-.066.1-.1s.053-.045.079-.069l.011-.011h0a.982.982,0,0,0,.11-.071l.014-.011.009,0c.023-.01.063-.031.1-.045.007,0,0,0,.01,0l.041-.011c.028,0,.066-.009.082-.012a.1.1,0,0,0,.02-.006l.018,0,.112,0a.145.145,0,0,0,.03,0,.18.18,0,0,0,.026.007c.053.01.106.02.158.033l.093.027.124.051a1.887,1.887,0,0,1,.274.154,2.147,2.147,0,0,1,.36.353,1.853,1.853,0,0,1,.369,1.093,1.8,1.8,0,0,1-.281.95C12.961,44.127,12.935,44.161,12.909,44.2Z"/><path class="cls-4" d="M44.431,37.665l.012,0h.005l.007,0a.431.431,0,0,0-.048.008Z"/><path class="cls-4" d="M46.182,37.268a2.157,2.157,0,0,0,.2-2.575,2.577,2.577,0,0,0-2.8-.935,2.657,2.657,0,0,0-2.313,2.436,2.172,2.172,0,0,0,1.569,2.028A3.4,3.4,0,0,0,46.182,37.268Zm-1.752.4h-.008l.017,0h0l0,0Zm-.867-3.336h.006l-.017,0Zm-.839,1.473a1.871,1.871,0,0,1,.305-.994,1.773,1.773,0,0,1,.165-.2,1.075,1.075,0,0,1,.13-.127c.033-.026.239-.155.125-.093.03-.017.061-.032.092-.049l.033-.007h.1l.087.007c-.019,0,.156.024.1.013a2.316,2.316,0,0,1,.245.074,1.82,1.82,0,0,1,.819.634,1.906,1.906,0,0,1,.105,2.034,1.769,1.769,0,0,1-.293.369l-.028.03s0,0-.01.006c-.033.028-.068.054-.1.079l-.087.059c.087-.056.007-.012-.051.02.009,0,0,0-.007,0h-.005l-.006,0h-.006l-.032.005.031,0-.01,0c-.048,0-.04,0-.013,0l-.066,0-.074-.005a.829.829,0,0,1-.218-.04A1.88,1.88,0,0,1,42.724,35.806Z"/><path class="cls-4" d="M48.511,44.546Z"/><path class="cls-4" d="M46.9,45.277a3.229,3.229,0,0,0,3.28-.947,2.247,2.247,0,0,0,.2-2.658,2.642,2.642,0,0,0-2.856-.988,2.676,2.676,0,0,0-2.246,2.409c0,.019.013.028.015.045s-.016.035-.015.056A2.249,2.249,0,0,0,46.9,45.277Zm.261-3.57c.014-.014.036-.038.044-.045.033-.029.064-.059.1-.087l.067-.049.057-.037c.006,0,.084-.043.09-.048l.031-.013h.01l.052-.014.023,0,.048,0a.1.1,0,0,0,.019,0,.123.123,0,0,0,.02,0c.037,0,.075,0,.112,0a.157.157,0,0,0,.027,0,.142.142,0,0,0,.029.009c.035.008.072.013.107.021s.069.016.1.026c-.039-.013-.041-.013-.006,0a1.684,1.684,0,0,1,.807.582,1.812,1.812,0,0,1,.149,1.972,2.1,2.1,0,0,1-.148.215l-.046.055c-.007,0-.069.069-.072.072l-.078.069-.067.049-.057.037a.571.571,0,0,1-.066.035l.044-.019c-.02.009-.057.029-.093.044l-.016,0-.037.01c-.026,0-.071.01-.086.013l-.017,0a.123.123,0,0,0-.022,0l-.112,0h-.025a.119.119,0,0,0-.031-.009l-.159-.033-.032-.007-.014-.006c-.059-.021-.116-.044-.172-.07a2.252,2.252,0,0,1-.221-.119,1.8,1.8,0,0,1-.507-2.453A1.974,1.974,0,0,1,47.158,41.707Z"/><path class="cls-4" d="M14.983,29.372c-.052-.009-.064.008.024,0l-.01,0Z"/><path class="cls-4" d="M7.118,32.639c.085-.023.172-.039.258-.057l.016,0,.191-.028q.214-.03.432-.048c.163-.014.327-.02.491-.025h0c.05,0,.1,0,.148,0,.1,0,.2.007.3.013.2.014.4.036.592.067l.075.014.059.013a12.528,12.528,0,0,0-1.407,2.526c-.111.274.483.227.6.209.258-.04.725-.155.839-.435a11.876,11.876,0,0,1,1.294-2.359.693.693,0,0,0,.132-.1.462.462,0,0,0,.11-.235,9.4,9.4,0,0,1,2.025-1.977,7.364,7.364,0,0,1,.757-.474c.123-.068.248-.131.374-.194l.114-.053.072-.032c.089-.037.18-.069.27-.1a.613.613,0,0,0,.116.017h0l.01,0a.088.088,0,0,0,.017,0h-.007l.062.013c.059.012.118.026.176.041a6.024,6.024,0,0,1,1.855.827,1.158,1.158,0,0,0,.941-.054c.086-.035.657-.3.418-.461a6.311,6.311,0,0,0-2.695-1.022,4.18,4.18,0,0,1,1.8-2.659c.256-.162.149-.356-.106-.4a1.592,1.592,0,0,0-1.024.275,4.848,4.848,0,0,0-2.111,2.985,9.3,9.3,0,0,0-3.911,2.744,8,8,0,0,0-2.19-.118,7.5,7.5,0,0,0-1.341.211c-.253.067-.695.3-.606.633S6.872,32.7,7.118,32.639Z"/><path class="cls-4" d="M16.2,50.723a7.811,7.811,0,0,0-3.589-.065,9.83,9.83,0,0,0-1.9-1.8,7.69,7.69,0,0,0-2.228-1.14,4.646,4.646,0,0,0-2.022-2.985,1.114,1.114,0,0,0-.948.028c-.1.038-.665.342-.407.506a4.381,4.381,0,0,1,1.8,2.365c-.027.006-.055.011-.082.018a7.614,7.614,0,0,0-2.293,1.034c-.242.158-.378.545-.084.725a1,1,0,0,0,1.038-.093l.137-.089.053-.032c.075-.047.155-.088.232-.129.164-.086.332-.166.5-.238.078-.033.157-.062.235-.094-.245.1,0,0,.07-.021.131-.042.263-.08.4-.113q.087-.021.174-.039l.05-.009c.059-.008.117-.018.176-.024a2.056,2.056,0,0,1,.208-.014c.015,0,.032-.009.048-.01a7.889,7.889,0,0,1,1.594.888,10.7,10.7,0,0,1,3.7,4.8c.177.435,1.6-.012,1.449-.388a12.389,12.389,0,0,0-1.223-2.256c.058-.006.115-.012.173-.016q.153-.011.306-.015l.148,0h.016a2.691,2.691,0,0,1,.507.027,7.671,7.671,0,0,1,.771.1c.031.005.062.012.092.018l.064.015a1.021,1.021,0,0,0,1.025-.274A.4.4,0,0,0,16.2,50.723ZM7.343,48.55c.064-.011.1-.016,0,0Z"/><path class="cls-4" d="M44.376,29.5c.012,0,.042-.008.088-.018l-.018,0Z"/><path class="cls-4" d="M42.677,30.241c.175-.115.364-.208.539-.322l-.059.039a.808.808,0,0,1,.07-.042l.127-.062c.081-.038.163-.075.246-.11s.156-.064.235-.093l.051-.019h0q.2-.065.4-.114l.091-.022c-.028.005.018-.007.057-.014l.013,0h0l.082-.016-.064.014c.028-.005.057-.008.085-.012.011,0,.022.015.031.017a6.208,6.208,0,0,1,2.076,1.032,10.4,10.4,0,0,1,3.62,4.679c.26.64,1.7.228,1.448-.388a12.684,12.684,0,0,0-1.255-2.319c.063-.007.124-.018.187-.022l.154-.01.053,0c.089,0,.177,0,.265,0,.169,0,.338.012.507.026.145.013.288.03.432.048h0l.041.006.159.028c.1.019.2.039.294.064a1.127,1.127,0,0,0,1.025-.274c.211-.229.163-.494-.155-.578a7.32,7.32,0,0,0-1.308-.2,8.007,8.007,0,0,0-2.227.134,10.208,10.208,0,0,0-2.056-1.972A8.115,8.115,0,0,0,45.679,28.6a4.9,4.9,0,0,0-2.12-3.017.962.962,0,0,0-1.038.091c-.231.176-.39.542-.08.738a4.131,4.131,0,0,1,1.7,2.3c-.023,0-.046.008-.069.014a7.584,7.584,0,0,0-2.311,1.026c-.2.13-.427.453-.116.607A1.134,1.134,0,0,0,42.677,30.241Zm9.4,2.287Zm-.009,0-.047-.007Z"/><path class="cls-4" d="M43.157,29.958Z"/><path class="cls-4" d="M53.507,47.763a5.092,5.092,0,0,0-.512-.1,4.088,4.088,0,0,1,.961-1.863,4.442,4.442,0,0,1,.536-.508c.071-.057.449-.312.163-.131.181-.115.442-.327.151-.478a1.3,1.3,0,0,0-1.02.158,4.984,4.984,0,0,0-2.237,3.052,9.517,9.517,0,0,0-2.112,1.135A10.14,10.14,0,0,0,47.6,50.716a8.289,8.289,0,0,0-2.134-.088,7.483,7.483,0,0,0-1.34.214c-.209.055-.709.254-.629.552s.625.215.82.164l.074-.018.055-.012c.255-.043.511-.081.769-.1l.1-.008h.008a2.464,2.464,0,0,1,.272-.008c.19,0,.379,0,.569.016l.146.011.039,0c.107.013.215.028.322.047.086.015.169.041.254.06A12.432,12.432,0,0,0,45.5,54.108c-.116.283.48.25.6.232.269-.04.718-.16.835-.448a11.676,11.676,0,0,1,1.4-2.521l.007-.005a.517.517,0,0,0,.12-.159A9.428,9.428,0,0,1,50.5,49.224a7.769,7.769,0,0,1,.757-.471,4.678,4.678,0,0,1,.561-.277c.074-.032.149-.057.223-.085a4.511,4.511,0,0,1,.529.1.636.636,0,0,0,.093.024c-.069,0-.079-.022,0,0s.139.041.208.064c.155.051.308.109.458.172a6.278,6.278,0,0,1,.991.525,1.064,1.064,0,0,0,.952-.013A.927.927,0,0,0,55.669,49c.051-.07.1-.2.007-.268A7.109,7.109,0,0,0,53.507,47.763Z"/><path class="cls-4" d="M4.918,40.463a1.173,1.173,0,0,0,.546-.193.614.614,0,0,0,.265-.344l0-.007a1.6,1.6,0,0,1,.181-.323,1.46,1.46,0,0,1,.109-.113c.018-.013.035-.025.053-.036s.051-.025.077-.035a1.036,1.036,0,0,0,.442-.248.332.332,0,0,0-.162-.6,1.094,1.094,0,0,0-.545.012,2.375,2.375,0,0,0-1.16.683,2.107,2.107,0,0,0-.4.654,1.584,1.584,0,0,0-.056.164.3.3,0,0,0,.161.309A.816.816,0,0,0,4.918,40.463Z"/><path class="cls-4" d="M53.426,38.906c-.072.065-.193.176-.15.288s.162.144.272.174l-.115-.032a1.487,1.487,0,0,1,.312.135,1.457,1.457,0,0,1,.381.39,1.262,1.262,0,0,1,.15.333c.027.112.181.157.274.174a1.265,1.265,0,0,0,.537-.042,1.241,1.241,0,0,0,.487-.232c.079-.072.18-.168.15-.288a1.236,1.236,0,0,0-.117-.287,1.658,1.658,0,0,0-.5-.593,2.014,2.014,0,0,0-.286-.17,2.13,2.13,0,0,0-.374-.124.845.845,0,0,0-.251,0,1.111,1.111,0,0,0-.286.047,1.128,1.128,0,0,0-.272.1A.857.857,0,0,0,53.426,38.906Z"/></svg>