<svg xmlns="http://www.w3.org/2000/svg" xmlns:xlink="http://www.w3.org/1999/xlink" width="1920" zoomAndPan="magnify" viewBox="0 0 1440 809.999993" height="1080" preserveAspectRatio="xMidYMid meet" version="1.0"><defs><clipPath id="id1"><path d="M 97.046875 123.917969 L 365.546875 123.917969 L 365.546875 339.167969 L 97.046875 339.167969 Z M 97.046875 123.917969 " clip-rule="nonzero"/></clipPath></defs><path fill="rgb(95.289612%, 100%, 96.859741%)" d="M 231.375 0 C 103.589844 0 0 103.589844 0 231.375 C 0 359.160156 103.589844 462.75 231.375 462.75 C 359.160156 462.75 462.75 359.160156 462.75 231.375 C 462.75 103.589844 359.160156 0 231.375 0 " fill-opacity="1" fill-rule="nonzero"/><g clip-path="url(#id1)"><path fill="rgb(0%, 0%, 0%)" d="M 365.546875 144.847656 C 365.546875 145.53125 365.515625 146.21875 365.449219 146.898438 C 365.378906 147.582031 365.28125 148.257812 365.148438 148.929688 C 365.011719 149.601562 364.847656 150.265625 364.648438 150.921875 C 364.449219 151.578125 364.21875 152.222656 363.957031 152.855469 C 363.695312 153.488281 363.40625 154.109375 363.082031 154.710938 C 362.757812 155.316406 362.410156 155.902344 362.027344 156.472656 C 361.648438 157.042969 361.242188 157.59375 360.808594 158.125 C 360.375 158.652344 359.914062 159.160156 359.429688 159.644531 C 358.949219 160.128906 358.441406 160.589844 357.914062 161.023438 C 357.382812 161.457031 356.835938 161.867188 356.265625 162.246094 C 355.699219 162.628906 355.113281 162.980469 354.507812 163.304688 C 353.90625 163.625 353.289062 163.917969 352.65625 164.179688 C 352.023438 164.445312 351.382812 164.675781 350.726562 164.871094 C 350.074219 165.070312 349.410156 165.238281 348.738281 165.371094 C 348.066406 165.503906 347.390625 165.605469 346.710938 165.671875 C 346.03125 165.742188 345.347656 165.773438 344.664062 165.773438 L 180.582031 165.773438 C 179.898438 165.773438 179.214844 165.742188 178.535156 165.671875 C 177.855469 165.605469 177.179688 165.503906 176.507812 165.371094 C 175.835938 165.238281 175.171875 165.070312 174.519531 164.871094 C 173.863281 164.675781 173.222656 164.445312 172.589844 164.179688 C 171.957031 163.917969 171.339844 163.625 170.738281 163.304688 C 170.132812 162.980469 169.546875 162.628906 168.980469 162.246094 C 168.410156 161.867188 167.863281 161.457031 167.332031 161.023438 C 166.804688 160.589844 166.296875 160.128906 165.816406 159.644531 C 165.332031 159.160156 164.871094 158.652344 164.4375 158.125 C 164.003906 157.59375 163.597656 157.042969 163.21875 156.472656 C 162.835938 155.902344 162.488281 155.316406 162.164062 154.710938 C 161.839844 154.109375 161.550781 153.488281 161.289062 152.855469 C 161.027344 152.222656 160.796875 151.578125 160.597656 150.921875 C 160.398438 150.265625 160.234375 149.601562 160.097656 148.929688 C 159.964844 148.257812 159.867188 147.582031 159.796875 146.898438 C 159.730469 146.21875 159.699219 145.53125 159.699219 144.847656 C 159.699219 144.164062 159.730469 143.480469 159.796875 142.796875 C 159.867188 142.113281 159.964844 141.4375 160.097656 140.765625 C 160.234375 140.09375 160.398438 139.429688 160.597656 138.773438 C 160.796875 138.117188 161.027344 137.472656 161.289062 136.839844 C 161.550781 136.207031 161.839844 135.585938 162.164062 134.984375 C 162.488281 134.378906 162.835938 133.792969 163.21875 133.222656 C 163.597656 132.652344 164.003906 132.101562 164.4375 131.570312 C 164.871094 131.042969 165.332031 130.535156 165.816406 130.050781 C 166.296875 129.566406 166.804688 129.105469 167.332031 128.671875 C 167.863281 128.238281 168.410156 127.828125 168.980469 127.449219 C 169.546875 127.066406 170.132812 126.714844 170.738281 126.390625 C 171.339844 126.070312 171.957031 125.777344 172.589844 125.515625 C 173.222656 125.253906 173.863281 125.019531 174.519531 124.824219 C 175.171875 124.625 175.835938 124.457031 176.507812 124.324219 C 177.179688 124.191406 177.855469 124.089844 178.535156 124.023438 C 179.214844 123.953125 179.898438 123.921875 180.582031 123.921875 L 344.664062 123.921875 C 345.347656 123.921875 346.03125 123.953125 346.710938 124.023438 C 347.390625 124.089844 348.066406 124.191406 348.738281 124.324219 C 349.410156 124.457031 350.074219 124.625 350.726562 124.824219 C 351.382812 125.019531 352.023438 125.253906 352.65625 125.515625 C 353.289062 125.777344 353.90625 126.070312 354.507812 126.390625 C 355.113281 126.714844 355.699219 127.066406 356.265625 127.449219 C 356.835938 127.828125 357.382812 128.238281 357.914062 128.671875 C 358.441406 129.105469 358.949219 129.566406 359.429688 130.050781 C 359.914062 130.535156 360.375 131.042969 360.808594 131.570312 C 361.242188 132.101562 361.648438 132.652344 362.027344 133.222656 C 362.410156 133.792969 362.757812 134.378906 363.082031 134.984375 C 363.40625 135.585938 363.695312 136.207031 363.957031 136.839844 C 364.21875 137.472656 364.449219 138.117188 364.648438 138.773438 C 364.847656 139.429688 365.011719 140.09375 365.148438 140.765625 C 365.28125 141.4375 365.378906 142.113281 365.449219 142.796875 C 365.515625 143.480469 365.546875 144.164062 365.546875 144.847656 Z M 344.664062 297.3125 L 180.582031 297.3125 C 179.898438 297.3125 179.214844 297.34375 178.535156 297.414062 C 177.855469 297.480469 177.179688 297.578125 176.507812 297.714844 C 175.835938 297.847656 175.171875 298.011719 174.519531 298.210938 C 173.863281 298.410156 173.222656 298.640625 172.589844 298.90625 C 171.957031 299.167969 171.339844 299.460938 170.738281 299.78125 C 170.132812 300.105469 169.546875 300.457031 168.980469 300.839844 C 168.410156 301.21875 167.863281 301.625 167.332031 302.0625 C 166.804688 302.496094 166.296875 302.957031 165.816406 303.441406 C 165.332031 303.925781 164.871094 304.433594 164.4375 304.960938 C 164.003906 305.492188 163.597656 306.042969 163.21875 306.613281 C 162.835938 307.183594 162.488281 307.769531 162.164062 308.375 C 161.839844 308.976562 161.550781 309.597656 161.289062 310.230469 C 161.027344 310.863281 160.796875 311.507812 160.597656 312.164062 C 160.398438 312.820312 160.234375 313.484375 160.097656 314.15625 C 159.964844 314.828125 159.867188 315.503906 159.796875 316.1875 C 159.730469 316.867188 159.699219 317.550781 159.699219 318.238281 C 159.699219 318.921875 159.730469 319.605469 159.796875 320.289062 C 159.867188 320.972656 159.964844 321.648438 160.097656 322.320312 C 160.234375 322.992188 160.398438 323.65625 160.597656 324.3125 C 160.796875 324.96875 161.027344 325.613281 161.289062 326.246094 C 161.550781 326.878906 161.839844 327.5 162.164062 328.101562 C 162.488281 328.707031 162.835938 329.292969 163.21875 329.863281 C 163.597656 330.433594 164.003906 330.984375 164.4375 331.511719 C 164.871094 332.042969 165.332031 332.550781 165.816406 333.035156 C 166.296875 333.519531 166.804688 333.980469 167.332031 334.414062 C 167.863281 334.847656 168.410156 335.257812 168.980469 335.636719 C 169.546875 336.019531 170.132812 336.371094 170.738281 336.691406 C 171.339844 337.015625 171.957031 337.308594 172.589844 337.570312 C 173.222656 337.832031 173.863281 338.0625 174.519531 338.261719 C 175.171875 338.460938 175.835938 338.628906 176.507812 338.761719 C 177.179688 338.894531 177.855469 338.996094 178.535156 339.0625 C 179.214844 339.128906 179.898438 339.164062 180.582031 339.164062 L 344.664062 339.164062 C 345.347656 339.164062 346.03125 339.128906 346.710938 339.0625 C 347.390625 338.996094 348.066406 338.894531 348.738281 338.761719 C 349.410156 338.628906 350.074219 338.460938 350.726562 338.261719 C 351.382812 338.0625 352.023438 337.832031 352.65625 337.570312 C 353.289062 337.308594 353.90625 337.015625 354.507812 336.691406 C 355.113281 336.371094 355.699219 336.019531 356.265625 335.636719 C 356.835938 335.257812 357.382812 334.847656 357.914062 334.414062 C 358.441406 333.980469 358.949219 333.519531 359.429688 333.035156 C 359.914062 332.550781 360.375 332.042969 360.808594 331.511719 C 361.242188 330.984375 361.648438 330.433594 362.027344 329.863281 C 362.410156 329.292969 362.757812 328.707031 363.082031 328.101562 C 363.40625 327.5 363.695312 326.878906 363.957031 326.246094 C 364.21875 325.613281 364.449219 324.96875 364.648438 324.3125 C 364.847656 323.65625 365.011719 322.992188 365.148438 322.320312 C 365.28125 321.648438 365.378906 320.972656 365.449219 320.289062 C 365.515625 319.605469 365.546875 318.921875 365.546875 318.238281 C 365.546875 317.550781 365.515625 316.867188 365.449219 316.1875 C 365.378906 315.503906 365.28125 314.828125 365.148438 314.15625 C 365.011719 313.484375 364.847656 312.820312 364.648438 312.164062 C 364.449219 311.507812 364.21875 310.863281 363.957031 310.230469 C 363.695312 309.597656 363.40625 308.976562 363.082031 308.375 C 362.757812 307.769531 362.410156 307.179688 362.027344 306.613281 C 361.648438 306.042969 361.242188 305.492188 360.808594 304.960938 C 360.375 304.433594 359.914062 303.925781 359.429688 303.441406 C 358.949219 302.957031 358.441406 302.496094 357.914062 302.0625 C 357.382812 301.625 356.835938 301.21875 356.265625 300.839844 C 355.699219 300.457031 355.113281 300.105469 354.507812 299.78125 C 353.90625 299.460938 353.289062 299.167969 352.65625 298.90625 C 352.023438 298.640625 351.382812 298.410156 350.726562 298.210938 C 350.074219 298.011719 349.410156 297.847656 348.738281 297.714844 C 348.066406 297.578125 347.390625 297.480469 346.710938 297.414062 C 346.03125 297.34375 345.347656 297.3125 344.664062 297.3125 Z M 365.546875 231.542969 C 365.546875 230.859375 365.515625 230.171875 365.449219 229.492188 C 365.378906 228.808594 365.28125 228.132812 365.148438 227.460938 C 365.011719 226.789062 364.847656 226.125 364.648438 225.46875 C 364.449219 224.8125 364.21875 224.167969 363.957031 223.535156 C 363.695312 222.902344 363.40625 222.28125 363.082031 221.679688 C 362.757812 221.074219 362.410156 220.488281 362.027344 219.917969 C 361.648438 219.347656 361.242188 218.796875 360.808594 218.265625 C 360.375 217.738281 359.914062 217.230469 359.429688 216.746094 C 358.949219 216.261719 358.441406 215.800781 357.914062 215.367188 C 357.382812 214.933594 356.835938 214.523438 356.265625 214.144531 C 355.699219 213.761719 355.113281 213.410156 354.507812 213.085938 C 353.90625 212.765625 353.289062 212.472656 352.65625 212.210938 C 352.023438 211.945312 351.382812 211.714844 350.726562 211.515625 C 350.074219 211.320312 349.410156 211.152344 348.738281 211.019531 C 348.066406 210.886719 347.390625 210.785156 346.710938 210.71875 C 346.03125 210.648438 345.347656 210.617188 344.664062 210.617188 L 180.582031 210.617188 C 179.898438 210.617188 179.214844 210.648438 178.535156 210.71875 C 177.855469 210.785156 177.179688 210.886719 176.507812 211.019531 C 175.835938 211.152344 175.171875 211.320312 174.519531 211.515625 C 173.863281 211.714844 173.222656 211.945312 172.589844 212.210938 C 171.957031 212.472656 171.339844 212.765625 170.738281 213.085938 C 170.132812 213.410156 169.546875 213.761719 168.980469 214.144531 C 168.410156 214.523438 167.863281 214.933594 167.332031 215.367188 C 166.804688 215.800781 166.296875 216.261719 165.816406 216.746094 C 165.332031 217.230469 164.871094 217.738281 164.4375 218.265625 C 164.003906 218.796875 163.597656 219.347656 163.21875 219.917969 C 162.835938 220.488281 162.488281 221.074219 162.164062 221.679688 C 161.839844 222.28125 161.550781 222.902344 161.289062 223.535156 C 161.027344 224.167969 160.796875 224.8125 160.597656 225.46875 C 160.398438 226.125 160.234375 226.789062 160.097656 227.460938 C 159.964844 228.132812 159.867188 228.808594 159.796875 229.492188 C 159.730469 230.171875 159.699219 230.859375 159.699219 231.542969 C 159.699219 232.226562 159.730469 232.910156 159.796875 233.59375 C 159.867188 234.277344 159.964844 234.953125 160.097656 235.625 C 160.234375 236.296875 160.398438 236.960938 160.597656 237.617188 C 160.796875 238.273438 161.027344 238.917969 161.289062 239.550781 C 161.550781 240.183594 161.839844 240.804688 162.164062 241.40625 C 162.488281 242.011719 162.835938 242.597656 163.21875 243.167969 C 163.597656 243.738281 164.003906 244.289062 164.4375 244.816406 C 164.871094 245.347656 165.332031 245.855469 165.816406 246.339844 C 166.296875 246.824219 166.804688 247.285156 167.332031 247.71875 C 167.863281 248.152344 168.410156 248.5625 168.980469 248.941406 C 169.546875 249.324219 170.132812 249.675781 170.738281 250 C 171.339844 250.320312 171.957031 250.613281 172.589844 250.875 C 173.222656 251.136719 173.863281 251.371094 174.519531 251.566406 C 175.171875 251.765625 175.835938 251.933594 176.507812 252.066406 C 177.179688 252.199219 177.855469 252.300781 178.535156 252.367188 C 179.214844 252.4375 179.898438 252.46875 180.582031 252.46875 L 344.664062 252.46875 C 345.347656 252.46875 346.03125 252.4375 346.710938 252.367188 C 347.390625 252.300781 348.066406 252.199219 348.738281 252.066406 C 349.410156 251.933594 350.074219 251.765625 350.726562 251.566406 C 351.382812 251.371094 352.023438 251.136719 352.65625 250.875 C 353.289062 250.613281 353.90625 250.320312 354.507812 250 C 355.113281 249.675781 355.699219 249.324219 356.265625 248.941406 C 356.835938 248.5625 357.382812 248.152344 357.914062 247.71875 C 358.441406 247.285156 358.949219 246.824219 359.429688 246.339844 C 359.914062 245.855469 360.375 245.347656 360.808594 244.816406 C 361.242188 244.289062 361.648438 243.738281 362.027344 243.167969 C 362.410156 242.597656 362.757812 242.011719 363.082031 241.40625 C 363.40625 240.804688 363.695312 240.183594 363.957031 239.550781 C 364.21875 238.917969 364.449219 238.273438 364.648438 237.617188 C 364.847656 236.960938 365.011719 236.296875 365.148438 235.625 C 365.28125 234.953125 365.378906 234.277344 365.449219 233.59375 C 365.515625 232.910156 365.546875 232.226562 365.546875 231.542969 Z M 117.929688 165.773438 C 118.617188 165.773438 119.296875 165.742188 119.976562 165.671875 C 120.660156 165.605469 121.335938 165.503906 122.003906 165.371094 C 122.675781 165.238281 123.339844 165.070312 123.992188 164.871094 C 124.648438 164.675781 125.292969 164.445312 125.921875 164.179688 C 126.554688 163.917969 127.171875 163.625 127.777344 163.304688 C 128.378906 162.980469 128.964844 162.628906 129.535156 162.246094 C 130.101562 161.867188 130.652344 161.457031 131.179688 161.023438 C 131.707031 160.589844 132.214844 160.128906 132.699219 159.644531 C 133.183594 159.160156 133.640625 158.652344 134.074219 158.125 C 134.507812 157.59375 134.914062 157.042969 135.296875 156.472656 C 135.675781 155.902344 136.027344 155.316406 136.347656 154.710938 C 136.671875 154.109375 136.964844 153.488281 137.226562 152.855469 C 137.488281 152.222656 137.71875 151.578125 137.914062 150.921875 C 138.113281 150.265625 138.28125 149.601562 138.414062 148.929688 C 138.546875 148.257812 138.648438 147.582031 138.714844 146.898438 C 138.78125 146.21875 138.816406 145.53125 138.816406 144.847656 C 138.816406 144.164062 138.78125 143.480469 138.714844 142.796875 C 138.648438 142.113281 138.546875 141.4375 138.414062 140.765625 C 138.28125 140.09375 138.113281 139.429688 137.914062 138.773438 C 137.71875 138.117188 137.488281 137.472656 137.226562 136.839844 C 136.964844 136.207031 136.671875 135.585938 136.347656 134.984375 C 136.027344 134.378906 135.675781 133.792969 135.296875 133.222656 C 134.914062 132.652344 134.507812 132.101562 134.074219 131.570312 C 133.640625 131.042969 133.183594 130.535156 132.699219 130.050781 C 132.214844 129.566406 131.707031 129.105469 131.179688 128.671875 C 130.652344 128.238281 130.101562 127.828125 129.535156 127.449219 C 128.964844 127.066406 128.378906 126.714844 127.777344 126.390625 C 127.171875 126.070312 126.554688 125.777344 125.921875 125.515625 C 125.292969 125.253906 124.648438 125.019531 123.992188 124.824219 C 123.339844 124.625 122.675781 124.457031 122.003906 124.324219 C 121.335938 124.191406 120.660156 124.089844 119.976562 124.023438 C 119.296875 123.953125 118.617188 123.921875 117.929688 123.921875 C 117.246094 123.921875 116.566406 123.953125 115.882812 124.023438 C 115.203125 124.089844 114.527344 124.191406 113.855469 124.324219 C 113.1875 124.457031 112.523438 124.625 111.871094 124.824219 C 111.214844 125.019531 110.570312 125.253906 109.941406 125.515625 C 109.308594 125.777344 108.691406 126.070312 108.085938 126.390625 C 107.484375 126.714844 106.898438 127.066406 106.328125 127.449219 C 105.761719 127.828125 105.210938 128.238281 104.683594 128.671875 C 104.15625 129.105469 103.648438 129.566406 103.164062 130.050781 C 102.679688 130.535156 102.222656 131.042969 101.789062 131.570312 C 101.355469 132.101562 100.949219 132.652344 100.566406 133.222656 C 100.1875 133.792969 99.835938 134.378906 99.515625 134.984375 C 99.191406 135.585938 98.898438 136.207031 98.636719 136.839844 C 98.375 137.472656 98.144531 138.117188 97.949219 138.773438 C 97.75 139.429688 97.582031 140.09375 97.449219 140.765625 C 97.316406 141.4375 97.214844 142.113281 97.148438 142.796875 C 97.082031 143.480469 97.046875 144.164062 97.046875 144.847656 C 97.046875 145.53125 97.082031 146.21875 97.148438 146.898438 C 97.214844 147.582031 97.316406 148.257812 97.449219 148.929688 C 97.582031 149.601562 97.75 150.265625 97.949219 150.921875 C 98.144531 151.578125 98.375 152.222656 98.636719 152.855469 C 98.898438 153.488281 99.191406 154.109375 99.515625 154.710938 C 99.835938 155.316406 100.1875 155.902344 100.566406 156.472656 C 100.949219 157.042969 101.355469 157.59375 101.789062 158.125 C 102.222656 158.652344 102.679688 159.160156 103.164062 159.644531 C 103.648438 160.128906 104.15625 160.589844 104.683594 161.023438 C 105.210938 161.457031 105.761719 161.867188 106.328125 162.246094 C 106.898438 162.628906 107.484375 162.980469 108.085938 163.304688 C 108.691406 163.625 109.308594 163.917969 109.941406 164.179688 C 110.570312 164.445312 111.214844 164.675781 111.871094 164.871094 C 112.523438 165.070312 113.1875 165.238281 113.855469 165.371094 C 114.527344 165.503906 115.203125 165.605469 115.882812 165.671875 C 116.566406 165.742188 117.246094 165.773438 117.929688 165.773438 Z M 117.929688 252.46875 C 118.617188 252.46875 119.296875 252.4375 119.976562 252.367188 C 120.660156 252.300781 121.335938 252.199219 122.003906 252.066406 C 122.675781 251.933594 123.339844 251.765625 123.992188 251.566406 C 124.648438 251.371094 125.292969 251.136719 125.921875 250.875 C 126.554688 250.613281 127.171875 250.320312 127.777344 250 C 128.378906 249.675781 128.964844 249.324219 129.535156 248.941406 C 130.101562 248.5625 130.652344 248.152344 131.179688 247.71875 C 131.707031 247.285156 132.214844 246.824219 132.699219 246.339844 C 133.183594 245.855469 133.640625 245.347656 134.074219 244.816406 C 134.507812 244.289062 134.914062 243.738281 135.296875 243.167969 C 135.675781 242.597656 136.027344 242.011719 136.347656 241.40625 C 136.671875 240.804688 136.964844 240.183594 137.226562 239.550781 C 137.488281 238.917969 137.71875 238.273438 137.914062 237.617188 C 138.113281 236.960938 138.28125 236.296875 138.414062 235.625 C 138.546875 234.953125 138.648438 234.277344 138.714844 233.59375 C 138.78125 232.910156 138.816406 232.226562 138.816406 231.542969 C 138.816406 230.859375 138.78125 230.171875 138.714844 229.492188 C 138.648438 228.808594 138.546875 228.132812 138.414062 227.460938 C 138.28125 226.789062 138.113281 226.125 137.914062 225.46875 C 137.71875 224.8125 137.488281 224.167969 137.226562 223.535156 C 136.964844 222.902344 136.671875 222.28125 136.347656 221.679688 C 136.027344 221.074219 135.675781 220.488281 135.296875 219.917969 C 134.914062 219.347656 134.507812 218.796875 134.074219 218.265625 C 133.640625 217.738281 133.183594 217.230469 132.699219 216.746094 C 132.214844 216.261719 131.707031 215.800781 131.179688 215.367188 C 130.652344 214.933594 130.101562 214.523438 129.535156 214.144531 C 128.964844 213.761719 128.378906 213.410156 127.777344 213.085938 C 127.171875 212.765625 126.554688 212.472656 125.921875 212.210938 C 125.292969 211.945312 124.648438 211.714844 123.992188 211.515625 C 123.339844 211.320312 122.675781 211.152344 122.003906 211.019531 C 121.335938 210.886719 120.660156 210.785156 119.976562 210.71875 C 119.296875 210.648438 118.617188 210.617188 117.929688 210.617188 C 117.246094 210.617188 116.566406 210.648438 115.882812 210.71875 C 115.203125 210.785156 114.527344 210.886719 113.855469 211.019531 C 113.1875 211.152344 112.523438 211.320312 111.871094 211.515625 C 111.214844 211.714844 110.570312 211.945312 109.941406 212.210938 C 109.308594 212.472656 108.691406 212.765625 108.085938 213.085938 C 107.484375 213.410156 106.898438 213.761719 106.328125 214.144531 C 105.761719 214.523438 105.210938 214.933594 104.683594 215.367188 C 104.15625 215.800781 103.648438 216.261719 103.164062 216.746094 C 102.679688 217.230469 102.222656 217.738281 101.789062 218.265625 C 101.355469 218.796875 100.949219 219.347656 100.566406 219.917969 C 100.1875 220.488281 99.835938 221.074219 99.515625 221.679688 C 99.191406 222.28125 98.898438 222.902344 98.636719 223.535156 C 98.375 224.167969 98.144531 224.8125 97.949219 225.46875 C 97.75 226.125 97.582031 226.789062 97.449219 227.460938 C 97.316406 228.132812 97.214844 228.808594 97.148438 229.492188 C 97.082031 230.171875 97.046875 230.859375 97.046875 231.542969 C 97.046875 232.226562 97.082031 232.910156 97.148438 233.59375 C 97.214844 234.277344 97.316406 234.953125 97.449219 235.625 C 97.582031 236.296875 97.75 236.960938 97.949219 237.617188 C 98.144531 238.273438 98.375 238.917969 98.636719 239.550781 C 98.898438 240.183594 99.191406 240.804688 99.515625 241.40625 C 99.835938 242.011719 100.1875 242.597656 100.566406 243.167969 C 100.949219 243.738281 101.355469 244.289062 101.789062 244.816406 C 102.222656 245.347656 102.679688 245.855469 103.164062 246.339844 C 103.648438 246.824219 104.15625 247.285156 104.683594 247.71875 C 105.210938 248.152344 105.761719 248.5625 106.328125 248.941406 C 106.898438 249.324219 107.484375 249.675781 108.085938 250 C 108.691406 250.320312 109.308594 250.613281 109.941406 250.875 C 110.570312 251.136719 111.214844 251.371094 111.871094 251.566406 C 112.523438 251.765625 113.1875 251.933594 113.855469 252.066406 C 114.527344 252.199219 115.203125 252.300781 115.882812 252.367188 C 116.566406 252.4375 117.246094 252.46875 117.929688 252.46875 Z M 117.929688 339.164062 C 118.617188 339.164062 119.296875 339.128906 119.976562 339.0625 C 120.660156 338.996094 121.335938 338.894531 122.003906 338.761719 C 122.675781 338.628906 123.339844 338.460938 123.992188 338.261719 C 124.648438 338.0625 125.292969 337.832031 125.921875 337.570312 C 126.554688 337.308594 127.171875 337.015625 127.777344 336.691406 C 128.378906 336.371094 128.964844 336.019531 129.535156 335.636719 C 130.101562 335.257812 130.652344 334.847656 131.179688 334.414062 C 131.707031 333.980469 132.214844 333.519531 132.699219 333.035156 C 133.183594 332.550781 133.640625 332.042969 134.074219 331.511719 C 134.507812 330.984375 134.914062 330.433594 135.296875 329.863281 C 135.675781 329.292969 136.027344 328.707031 136.347656 328.101562 C 136.671875 327.5 136.964844 326.878906 137.226562 326.246094 C 137.488281 325.613281 137.71875 324.96875 137.914062 324.3125 C 138.113281 323.65625 138.28125 322.992188 138.414062 322.320312 C 138.546875 321.648438 138.648438 320.972656 138.714844 320.289062 C 138.78125 319.605469 138.816406 318.921875 138.816406 318.238281 C 138.816406 317.550781 138.78125 316.867188 138.714844 316.1875 C 138.648438 315.503906 138.546875 314.828125 138.414062 314.15625 C 138.28125 313.484375 138.113281 312.820312 137.914062 312.164062 C 137.71875 311.507812 137.488281 310.863281 137.226562 310.230469 C 136.964844 309.597656 136.671875 308.976562 136.347656 308.375 C 136.027344 307.769531 135.675781 307.179688 135.296875 306.613281 C 134.914062 306.042969 134.507812 305.492188 134.074219 304.960938 C 133.640625 304.433594 133.183594 303.925781 132.699219 303.441406 C 132.214844 302.957031 131.707031 302.496094 131.179688 302.0625 C 130.652344 301.625 130.101562 301.21875 129.535156 300.839844 C 128.964844 300.457031 128.378906 300.105469 127.777344 299.78125 C 127.171875 299.460938 126.554688 299.167969 125.921875 298.90625 C 125.292969 298.640625 124.648438 298.410156 123.992188 298.210938 C 123.339844 298.011719 122.675781 297.847656 122.003906 297.714844 C 121.335938 297.578125 120.660156 297.480469 119.976562 297.414062 C 119.296875 297.34375 118.617188 297.3125 117.929688 297.3125 C 117.246094 297.3125 116.566406 297.34375 115.882812 297.414062 C 115.203125 297.480469 114.527344 297.578125 113.855469 297.714844 C 113.1875 297.847656 112.523438 298.011719 111.871094 298.210938 C 111.214844 298.410156 110.570312 298.640625 109.941406 298.90625 C 109.308594 299.167969 108.691406 299.460938 108.085938 299.78125 C 107.484375 300.105469 106.898438 300.457031 106.328125 300.839844 C 105.761719 301.21875 105.210938 301.625 104.683594 302.0625 C 104.15625 302.496094 103.648438 302.957031 103.164062 303.441406 C 102.679688 303.925781 102.222656 304.433594 101.789062 304.960938 C 101.355469 305.492188 100.949219 306.042969 100.566406 306.613281 C 100.1875 307.179688 99.835938 307.769531 99.515625 308.375 C 99.191406 308.976562 98.898438 309.597656 98.636719 310.230469 C 98.375 310.863281 98.144531 311.507812 97.949219 312.164062 C 97.75 312.820312 97.582031 313.484375 97.449219 314.15625 C 97.316406 314.828125 97.214844 315.503906 97.148438 316.1875 C 97.082031 316.867188 97.046875 317.550781 97.046875 318.238281 C 97.046875 318.921875 97.082031 319.605469 97.148438 320.289062 C 97.214844 320.972656 97.316406 321.648438 97.449219 322.320312 C 97.582031 322.992188 97.75 323.65625 97.949219 324.3125 C 98.144531 324.96875 98.375 325.613281 98.636719 326.246094 C 98.898438 326.878906 99.191406 327.5 99.515625 328.101562 C 99.835938 328.707031 100.1875 329.292969 100.566406 329.863281 C 100.949219 330.433594 101.355469 330.984375 101.789062 331.511719 C 102.222656 332.042969 102.679688 332.550781 103.164062 333.035156 C 103.648438 333.519531 104.15625 333.980469 104.683594 334.414062 C 105.210938 334.847656 105.761719 335.257812 106.328125 335.636719 C 106.898438 336.019531 107.484375 336.371094 108.085938 336.691406 C 108.691406 337.015625 109.308594 337.308594 109.941406 337.570312 C 110.570312 337.832031 111.214844 338.0625 111.871094 338.261719 C 112.523438 338.460938 113.1875 338.628906 113.855469 338.761719 C 114.527344 338.894531 115.203125 338.996094 115.882812 339.0625 C 116.566406 339.128906 117.246094 339.164062 117.929688 339.164062 Z M 117.929688 339.164062 " fill-opacity="1" fill-rule="nonzero"/></g></svg>