<svg xmlns="http://www.w3.org/2000/svg" xmlns:xlink="http://www.w3.org/1999/xlink" width="1920" zoomAndPan="magnify" viewBox="0 0 1440 809.999993" height="1080" preserveAspectRatio="xMidYMid meet" version="1.0"><defs><clipPath id="id1"><path d="M 139 140 L 546.839844 140 L 546.839844 546 L 139 546 Z M 139 140 " clip-rule="nonzero"/></clipPath></defs><path fill="rgb(81.568909%, 100%, 87.838745%)" d="M 343.125 0 C 153.621094 0 0 153.621094 0 343.125 C 0 532.628906 153.621094 686.25 343.125 686.25 C 532.628906 686.25 686.25 532.628906 686.25 343.125 C 686.25 153.621094 532.628906 0 343.125 0 " fill-opacity="1" fill-rule="nonzero"/><g clip-path="url(#id1)"><path fill="rgb(0%, 0%, 0%)" d="M 529.082031 313.507812 L 187.644531 144.226562 C 177.304688 139.019531 164.960938 139.582031 155.105469 145.5625 C 145.203125 151.515625 139.222656 162.136719 139.222656 173.53125 L 139.222656 512.195312 C 139.222656 523.5625 145.203125 534.160156 155.105469 540.140625 C 160.445312 543.375 166.5 545.015625 172.632812 545.015625 C 177.789062 545.015625 182.921875 543.835938 187.667969 541.476562 L 529.105469 372.140625 C 540.347656 366.546875 547.480469 355.257812 547.480469 342.8125 C 547.480469 330.367188 540.320312 319.101562 529.082031 313.507812 Z M 529.082031 313.507812 " fill-opacity="1" fill-rule="nonzero"/></g></svg>