<svg xmlns="http://www.w3.org/2000/svg" xmlns:xlink="http://www.w3.org/1999/xlink" width="1080" zoomAndPan="magnify" viewBox="0 0 810 809.999993" height="1080" preserveAspectRatio="xMidYMid meet" version="1.0"><path fill="rgb(0%, 96.469116%, 77.648926%)" d="M 292.84375 350.472656 C 277.929688 350.472656 265.84375 362.5625 265.84375 377.472656 C 265.84375 392.382812 277.929688 404.472656 292.84375 404.472656 C 307.753906 404.472656 319.84375 392.382812 319.84375 377.472656 C 319.84375 362.5625 307.753906 350.472656 292.84375 350.472656 " fill-opacity="1" fill-rule="nonzero"/><path fill="rgb(0%, 96.469116%, 77.648926%)" d="M 305.230469 16.074219 C 290.941406 16.074219 279.355469 27.65625 279.355469 41.949219 C 279.355469 56.238281 290.941406 67.824219 305.230469 67.824219 C 319.523438 67.824219 331.105469 56.238281 331.105469 41.949219 C 331.105469 27.65625 319.523438 16.074219 305.230469 16.074219 " fill-opacity="1" fill-rule="nonzero"/><path fill="rgb(12.548828%, 47.44873%, 40.388489%)" d="M 756.71875 17.679688 C 745.535156 17.679688 736.46875 26.746094 736.46875 37.929688 C 736.46875 49.113281 745.535156 58.179688 756.71875 58.179688 C 767.902344 58.179688 776.96875 49.113281 776.96875 37.929688 C 776.96875 26.746094 767.902344 17.679688 756.71875 17.679688 " fill-opacity="1" fill-rule="nonzero"/><path fill="rgb(36.468506%, 67.83905%, 92.549133%)" d="M 765.421875 113.78125 C 750.714844 113.78125 738.796875 125.699219 738.796875 140.40625 C 738.796875 155.109375 750.714844 167.03125 765.421875 167.03125 C 780.125 167.03125 792.046875 155.109375 792.046875 140.40625 C 792.046875 125.699219 780.125 113.78125 765.421875 113.78125 " fill-opacity="1" fill-rule="nonzero"/><path fill="rgb(49.798584%, 100%, 66.668701%)" d="M 143.589844 302.65625 C 132.613281 302.65625 123.714844 311.554688 123.714844 322.53125 C 123.714844 333.507812 132.613281 342.40625 143.589844 342.40625 C 154.566406 342.40625 163.464844 333.507812 163.464844 322.53125 C 163.464844 311.554688 154.566406 302.65625 143.589844 302.65625 " fill-opacity="1" fill-rule="nonzero"/><path fill="rgb(50.588989%, 83.139038%, 98.039246%)" d="M 462.953125 31.667969 C 448.042969 31.667969 435.953125 43.757812 435.953125 58.667969 C 435.953125 73.578125 448.042969 85.667969 462.953125 85.667969 C 477.867188 85.667969 489.953125 73.578125 489.953125 58.667969 C 489.953125 43.757812 477.867188 31.667969 462.953125 31.667969 " fill-opacity="1" fill-rule="nonzero"/><path fill="rgb(12.548828%, 47.44873%, 40.388489%)" d="M 35.613281 14.582031 C 25.878906 14.582031 17.988281 22.472656 17.988281 32.207031 C 17.988281 41.941406 25.878906 49.832031 35.613281 49.832031 C 45.347656 49.832031 53.238281 41.941406 53.238281 32.207031 C 53.238281 22.472656 45.347656 14.582031 35.613281 14.582031 " fill-opacity="1" fill-rule="nonzero"/><path fill="rgb(36.468506%, 67.83905%, 92.549133%)" d="M 202.285156 183.90625 C 172.253906 183.90625 147.910156 208.25 147.910156 238.28125 C 147.910156 268.3125 172.253906 292.65625 202.285156 292.65625 C 232.316406 292.65625 256.660156 268.3125 256.660156 238.28125 C 256.660156 208.25 232.316406 183.90625 202.285156 183.90625 " fill-opacity="1" fill-rule="nonzero"/><path fill="rgb(46.669006%, 75.689697%, 16.859436%)" d="M 139.875 31.667969 C 126.207031 31.667969 115.125 42.75 115.125 56.417969 C 115.125 70.085938 126.207031 81.167969 139.875 81.167969 C 153.546875 81.167969 164.625 70.085938 164.625 56.417969 C 164.625 42.75 153.546875 31.667969 139.875 31.667969 " fill-opacity="1" fill-rule="nonzero"/><path fill="rgb(46.669006%, 75.689697%, 16.859436%)" d="M 579.523438 232.878906 C 574.34375 232.878906 570.148438 237.078125 570.148438 242.253906 C 570.148438 247.433594 574.34375 251.628906 579.523438 251.628906 C 584.699219 251.628906 588.898438 247.433594 588.898438 242.253906 C 588.898438 237.078125 584.699219 232.878906 579.523438 232.878906 " fill-opacity="1" fill-rule="nonzero"/><path fill="rgb(50.588989%, 83.139038%, 98.039246%)" d="M 474.65625 191.894531 C 460.160156 191.894531 448.40625 203.644531 448.40625 218.144531 C 448.40625 232.640625 460.160156 244.394531 474.65625 244.394531 C 489.152344 244.394531 500.90625 232.640625 500.90625 218.144531 C 500.90625 203.644531 489.152344 191.894531 474.65625 191.894531 " fill-opacity="1" fill-rule="nonzero"/><path fill="rgb(50.588989%, 83.139038%, 98.039246%)" d="M 33.105469 160.667969 C 22.128906 160.667969 13.230469 169.566406 13.230469 180.542969 C 13.230469 191.519531 22.128906 200.417969 33.105469 200.417969 C 44.082031 200.417969 52.980469 191.519531 52.980469 180.542969 C 52.980469 169.566406 44.082031 160.667969 33.105469 160.667969 " fill-opacity="1" fill-rule="nonzero"/><path fill="rgb(46.669006%, 75.689697%, 16.859436%)" d="M 362.265625 153.078125 C 338.863281 153.078125 319.890625 172.046875 319.890625 195.453125 C 319.890625 218.855469 338.863281 237.828125 362.265625 237.828125 C 385.671875 237.828125 404.640625 218.855469 404.640625 195.453125 C 404.640625 172.046875 385.671875 153.078125 362.265625 153.078125 " fill-opacity="1" fill-rule="nonzero"/><path fill="rgb(0%, 96.469116%, 77.648926%)" d="M 184.820312 145.570312 C 177.984375 145.570312 172.445312 151.109375 172.445312 157.945312 C 172.445312 164.777344 177.984375 170.320312 184.820312 170.320312 C 191.652344 170.320312 197.195312 164.777344 197.195312 157.945312 C 197.195312 151.109375 191.652344 145.570312 184.820312 145.570312 " fill-opacity="1" fill-rule="nonzero"/><path fill="rgb(12.548828%, 47.44873%, 40.388489%)" d="M 613.464844 297.332031 C 595.242188 297.332031 580.464844 312.105469 580.464844 330.332031 C 580.464844 348.558594 595.242188 363.332031 613.464844 363.332031 C 631.691406 363.332031 646.464844 348.558594 646.464844 330.332031 C 646.464844 312.105469 631.691406 297.332031 613.464844 297.332031 " fill-opacity="1" fill-rule="nonzero"/><path fill="rgb(81.568909%, 100%, 87.838745%)" d="M 542.855469 131.9375 C 529.394531 131.9375 518.480469 142.851562 518.480469 156.3125 C 518.480469 169.773438 529.394531 180.6875 542.855469 180.6875 C 556.320312 180.6875 567.230469 169.773438 567.230469 156.3125 C 567.230469 142.851562 556.320312 131.9375 542.855469 131.9375 " fill-opacity="1" fill-rule="nonzero"/><path fill="rgb(49.798584%, 100%, 66.668701%)" d="M 607.839844 26.417969 C 592.722656 26.417969 580.464844 38.675781 580.464844 53.792969 C 580.464844 68.910156 592.722656 81.167969 607.839844 81.167969 C 622.960938 81.167969 635.214844 68.910156 635.214844 53.792969 C 635.214844 38.675781 622.960938 26.417969 607.839844 26.417969 " fill-opacity="1" fill-rule="nonzero"/><path fill="rgb(12.548828%, 47.44873%, 40.388489%)" d="M 718.703125 226.457031 C 702.757812 226.457031 689.828125 239.382812 689.828125 255.332031 C 689.828125 271.277344 702.757812 284.207031 718.703125 284.207031 C 734.652344 284.207031 747.578125 271.277344 747.578125 255.332031 C 747.578125 239.382812 734.652344 226.457031 718.703125 226.457031 " fill-opacity="1" fill-rule="nonzero"/><path fill="rgb(12.548828%, 47.44873%, 40.388489%)" d="M 61.738281 250.011719 C 47.242188 250.011719 35.488281 261.765625 35.488281 276.261719 C 35.488281 290.757812 47.242188 302.511719 61.738281 302.511719 C 76.234375 302.511719 87.988281 290.757812 87.988281 276.261719 C 87.988281 261.765625 76.234375 250.011719 61.738281 250.011719 " fill-opacity="1" fill-rule="nonzero"/><path fill="rgb(0%, 96.469116%, 77.648926%)" d="M 646.355469 155.640625 C 638.277344 155.640625 631.730469 162.1875 631.730469 170.265625 C 631.730469 178.34375 638.277344 184.890625 646.355469 184.890625 C 654.433594 184.890625 660.980469 178.34375 660.980469 170.265625 C 660.980469 162.1875 654.433594 155.640625 646.355469 155.640625 " fill-opacity="1" fill-rule="nonzero"/><path fill="rgb(0%, 96.469116%, 77.648926%)" d="M 501.816406 315.519531 C 479.035156 315.519531 460.566406 333.988281 460.566406 356.769531 C 460.566406 379.550781 479.035156 398.019531 501.816406 398.019531 C 524.597656 398.019531 543.066406 379.550781 543.066406 356.769531 C 543.066406 333.988281 524.597656 315.519531 501.816406 315.519531 " fill-opacity="1" fill-rule="nonzero"/><path fill="rgb(46.669006%, 75.689697%, 16.859436%)" d="M 646.28125 125.691406 C 640.691406 125.691406 636.15625 130.222656 636.15625 135.816406 C 636.15625 141.40625 640.691406 145.941406 646.28125 145.941406 C 651.875 145.941406 656.40625 141.40625 656.40625 135.816406 C 656.40625 130.222656 651.875 125.691406 646.28125 125.691406 " fill-opacity="1" fill-rule="nonzero"/><path fill="rgb(50.588989%, 83.139038%, 98.039246%)" d="M 281.027344 95.328125 C 274.398438 95.328125 269.027344 100.699219 269.027344 107.328125 C 269.027344 113.957031 274.398438 119.328125 281.027344 119.328125 C 287.652344 119.328125 293.027344 113.957031 293.027344 107.328125 C 293.027344 100.699219 287.652344 95.328125 281.027344 95.328125 " fill-opacity="1" fill-rule="nonzero"/><path fill="rgb(36.468506%, 67.83905%, 92.549133%)" d="M 320.703125 780.605469 C 315.109375 780.605469 310.578125 785.136719 310.578125 790.730469 C 310.578125 796.320312 315.109375 800.855469 320.703125 800.855469 C 326.292969 800.855469 330.828125 796.320312 330.828125 790.730469 C 330.828125 785.136719 326.292969 780.605469 320.703125 780.605469 " fill-opacity="1" fill-rule="nonzero"/><path fill="rgb(0%, 96.469116%, 77.648926%)" d="M 330.734375 688.890625 C 313.339844 688.890625 299.234375 702.992188 299.234375 720.390625 C 299.234375 737.785156 313.339844 751.890625 330.734375 751.890625 C 348.132812 751.890625 362.234375 737.785156 362.234375 720.390625 C 362.234375 702.992188 348.132812 688.890625 330.734375 688.890625 " fill-opacity="1" fill-rule="nonzero"/><path fill="rgb(0%, 96.469116%, 77.648926%)" d="M 396.195312 405.867188 C 377.554688 405.867188 362.445312 420.980469 362.445312 439.617188 C 362.445312 458.257812 377.554688 473.367188 396.195312 473.367188 C 414.835938 473.367188 429.945312 458.257812 429.945312 439.617188 C 429.945312 420.980469 414.835938 405.867188 396.195312 405.867188 " fill-opacity="1" fill-rule="nonzero"/><path fill="rgb(12.548828%, 47.44873%, 40.388489%)" d="M 749.777344 410.277344 C 731.347656 410.277344 716.402344 425.21875 716.402344 443.652344 C 716.402344 462.082031 731.347656 477.027344 749.777344 477.027344 C 768.210938 477.027344 783.152344 462.082031 783.152344 443.652344 C 783.152344 425.21875 768.210938 410.277344 749.777344 410.277344 " fill-opacity="1" fill-rule="nonzero"/><path fill="rgb(36.468506%, 67.83905%, 92.549133%)" d="M 756.429688 633.65625 C 741.722656 633.65625 729.804688 645.578125 729.804688 660.28125 C 729.804688 674.988281 741.722656 686.90625 756.429688 686.90625 C 771.132812 686.90625 783.054688 674.988281 783.054688 660.28125 C 783.054688 645.578125 771.132812 633.65625 756.429688 633.65625 " fill-opacity="1" fill-rule="nonzero"/><path fill="rgb(49.798584%, 100%, 66.668701%)" d="M 164.457031 750.976562 C 153.480469 750.976562 144.582031 759.875 144.582031 770.851562 C 144.582031 781.828125 153.480469 790.726562 164.457031 790.726562 C 175.433594 790.726562 184.332031 781.828125 184.332031 770.851562 C 184.332031 759.875 175.433594 750.976562 164.457031 750.976562 " fill-opacity="1" fill-rule="nonzero"/><path fill="rgb(50.588989%, 83.139038%, 98.039246%)" d="M 402.210938 307.003906 C 393.722656 307.003906 386.835938 313.886719 386.835938 322.378906 C 386.835938 330.867188 393.722656 337.753906 402.210938 337.753906 C 410.703125 337.753906 417.585938 330.867188 417.585938 322.378906 C 417.585938 313.886719 410.703125 307.003906 402.210938 307.003906 " fill-opacity="1" fill-rule="nonzero"/><path fill="rgb(12.548828%, 47.44873%, 40.388489%)" d="M 44.4375 406.691406 C 34.703125 406.691406 26.8125 414.582031 26.8125 424.316406 C 26.8125 434.050781 34.703125 441.941406 44.4375 441.941406 C 54.171875 441.941406 62.0625 434.050781 62.0625 424.316406 C 62.0625 414.582031 54.171875 406.691406 44.4375 406.691406 " fill-opacity="1" fill-rule="nonzero"/><path fill="rgb(36.468506%, 67.83905%, 92.549133%)" d="M 141.253906 608.3125 C 110.601562 608.3125 85.753906 633.160156 85.753906 663.8125 C 85.753906 694.464844 110.601562 719.3125 141.253906 719.3125 C 171.90625 719.3125 196.753906 694.464844 196.753906 663.8125 C 196.753906 633.160156 171.90625 608.3125 141.253906 608.3125 " fill-opacity="1" fill-rule="nonzero"/><path fill="rgb(46.669006%, 75.689697%, 16.859436%)" d="M 157.753906 394.742188 C 136.214844 394.742188 118.753906 412.203125 118.753906 433.742188 C 118.753906 455.28125 136.214844 472.742188 157.753906 472.742188 C 179.292969 472.742188 196.753906 455.28125 196.753906 433.742188 C 196.753906 412.203125 179.292969 394.742188 157.753906 394.742188 " fill-opacity="1" fill-rule="nonzero"/><path fill="rgb(46.669006%, 75.689697%, 16.859436%)" d="M 646.375 614.625 C 630.21875 614.625 617.125 627.71875 617.125 643.875 C 617.125 660.027344 630.21875 673.125 646.375 673.125 C 662.527344 673.125 675.625 660.027344 675.625 643.875 C 675.625 627.71875 662.527344 614.625 646.375 614.625 " fill-opacity="1" fill-rule="nonzero"/><path fill="rgb(50.588989%, 83.139038%, 98.039246%)" d="M 509.53125 713.464844 C 488.199219 713.464844 470.90625 730.757812 470.90625 752.089844 C 470.90625 773.421875 488.199219 790.714844 509.53125 790.714844 C 530.863281 790.714844 548.15625 773.421875 548.15625 752.089844 C 548.15625 730.757812 530.863281 713.464844 509.53125 713.464844 " fill-opacity="1" fill-rule="nonzero"/><path fill="rgb(50.588989%, 83.139038%, 98.039246%)" d="M 81.6875 534.070312 C 70.710938 534.070312 61.8125 542.96875 61.8125 553.945312 C 61.8125 564.921875 70.710938 573.820312 81.6875 573.820312 C 92.664062 573.820312 101.5625 564.921875 101.5625 553.945312 C 101.5625 542.96875 92.664062 534.070312 81.6875 534.070312 " fill-opacity="1" fill-rule="nonzero"/><path fill="rgb(46.669006%, 75.689697%, 16.859436%)" d="M 346.515625 547.125 C 331.8125 547.125 319.890625 559.042969 319.890625 573.75 C 319.890625 588.453125 331.8125 600.375 346.515625 600.375 C 361.222656 600.375 373.140625 588.453125 373.140625 573.75 C 373.140625 559.042969 361.222656 547.125 346.515625 547.125 " fill-opacity="1" fill-rule="nonzero"/><path fill="rgb(0%, 96.469116%, 77.648926%)" d="M 197.875 502.566406 C 183.582031 502.566406 172 514.152344 172 528.441406 C 172 542.734375 183.582031 554.316406 197.875 554.316406 C 212.164062 554.316406 223.75 542.734375 223.75 528.441406 C 223.75 514.152344 212.164062 502.566406 197.875 502.566406 " fill-opacity="1" fill-rule="nonzero"/><path fill="rgb(49.798584%, 100%, 66.668701%)" d="M 460.699219 520.1875 C 450.34375 520.1875 441.949219 528.582031 441.949219 538.9375 C 441.949219 549.292969 450.34375 557.6875 460.699219 557.6875 C 471.054688 557.6875 479.449219 549.292969 479.449219 538.9375 C 479.449219 528.582031 471.054688 520.1875 460.699219 520.1875 " fill-opacity="1" fill-rule="nonzero"/><path fill="rgb(12.548828%, 47.44873%, 40.388489%)" d="M 533.855469 608.910156 C 525.367188 608.910156 518.480469 615.796875 518.480469 624.285156 C 518.480469 632.777344 525.367188 639.660156 533.855469 639.660156 C 542.347656 639.660156 549.230469 632.777344 549.230469 624.285156 C 549.230469 615.796875 542.347656 608.910156 533.855469 608.910156 " fill-opacity="1" fill-rule="nonzero"/><path fill="rgb(81.568909%, 100%, 87.838745%)" d="M 559.660156 488.933594 C 536.671875 488.933594 518.035156 507.570312 518.035156 530.558594 C 518.035156 553.550781 536.671875 572.183594 559.660156 572.183594 C 582.652344 572.183594 601.285156 553.550781 601.285156 530.558594 C 601.285156 507.570312 582.652344 488.933594 559.660156 488.933594 " fill-opacity="1" fill-rule="nonzero"/><path fill="rgb(49.798584%, 100%, 66.668701%)" d="M 559.800781 377.496094 C 553.382812 377.496094 548.175781 382.703125 548.175781 389.121094 C 548.175781 395.542969 553.382812 400.746094 559.800781 400.746094 C 566.222656 400.746094 571.425781 395.542969 571.425781 389.121094 C 571.425781 382.703125 566.222656 377.496094 559.800781 377.496094 " fill-opacity="1" fill-rule="nonzero"/><path fill="rgb(12.548828%, 47.44873%, 40.388489%)" d="M 635.996094 739.789062 C 627.507812 739.789062 620.621094 746.671875 620.621094 755.164062 C 620.621094 763.65625 627.507812 770.539062 635.996094 770.539062 C 644.488281 770.539062 651.371094 763.65625 651.371094 755.164062 C 651.371094 746.671875 644.488281 739.789062 635.996094 739.789062 " fill-opacity="1" fill-rule="nonzero"/><path fill="rgb(12.548828%, 47.44873%, 40.388489%)" d="M 59.359375 713.464844 C 44.863281 713.464844 33.109375 725.21875 33.109375 739.714844 C 33.109375 754.214844 44.863281 765.964844 59.359375 765.964844 C 73.855469 765.964844 85.609375 754.214844 85.609375 739.714844 C 85.609375 725.21875 73.855469 713.464844 59.359375 713.464844 " fill-opacity="1" fill-rule="nonzero"/><path fill="rgb(0%, 96.469116%, 77.648926%)" d="M 718.746094 557.421875 C 710.671875 557.421875 704.121094 563.96875 704.121094 572.046875 C 704.121094 580.125 710.671875 586.671875 718.746094 586.671875 C 726.824219 586.671875 733.371094 580.125 733.371094 572.046875 C 733.371094 563.96875 726.824219 557.421875 718.746094 557.421875 " fill-opacity="1" fill-rule="nonzero"/><path fill="rgb(0%, 96.469116%, 77.648926%)" d="M 444.15625 634.78125 C 429.660156 634.78125 417.90625 646.53125 417.90625 661.03125 C 417.90625 675.527344 429.660156 687.28125 444.15625 687.28125 C 458.652344 687.28125 470.40625 675.527344 470.40625 661.03125 C 470.40625 646.53125 458.652344 634.78125 444.15625 634.78125 " fill-opacity="1" fill-rule="nonzero"/><path fill="rgb(46.669006%, 75.689697%, 16.859436%)" d="M 645.835938 482.6875 C 640.246094 482.6875 635.710938 487.222656 635.710938 492.8125 C 635.710938 498.40625 640.246094 502.9375 645.835938 502.9375 C 651.429688 502.9375 655.960938 498.40625 655.960938 492.8125 C 655.960938 487.222656 651.429688 482.6875 645.835938 482.6875 " fill-opacity="1" fill-rule="nonzero"/></svg>