<svg xmlns="http://www.w3.org/2000/svg" xmlns:xlink="http://www.w3.org/1999/xlink" width="1920" zoomAndPan="magnify" viewBox="0 0 1440 809.999993" height="1080" preserveAspectRatio="xMidYMid meet" version="1.0"><defs><clipPath id="id1"><path d="M 709.988281 1 L 1436 1 L 1436 809 L 709.988281 809 Z M 709.988281 1 " clip-rule="nonzero"/></clipPath></defs><g clip-path="url(#id1)"><path fill="rgb(73.329163%, 96.469116%, 81.17981%)" d="M 1429.253906 408.46875 L 1353.015625 288.722656 C 1335.394531 127.234375 1198.679688 1.679688 1032.527344 1.679688 C 854.40625 1.679688 709.988281 146.148438 709.988281 324.335938 C 709.988281 526.15625 830.941406 503.007812 830.941406 696.921875 L 830.941406 808.320312 L 1193.800781 808.320312 L 1193.800781 687.324219 L 1274.433594 687.324219 C 1318.984375 687.324219 1355.070312 651.226562 1355.070312 606.660156 L 1355.070312 486.46875 L 1412.5625 462.351562 C 1433.488281 453.359375 1441.550781 427.707031 1429.253906 408.46875 Z M 1429.253906 408.46875 " fill-opacity="1" fill-rule="nonzero"/></g></svg>