<svg width="32" height="32" viewBox="0 0 32 32" fill="none" xmlns="http://www.w3.org/2000/svg">
<path d="M0 0V32H32V0H0ZM15.9837 2C17.0591 2 17.9575 3.24375 17.4437 4.25125C17.2244 4.68148 17.0885 5.00816 16.9925 5.26125H22.5625V9.42125C22.3098 9.32133 21.9818 9.17328 21.5537 8.92875C20.5871 8.37659 19.3467 9.28704 19.31 10.3438H12.6375C12.6007 9.28704 11.3604 8.37659 10.3937 8.92875C9.97987 9.16515 9.66039 9.31026 9.41124 9.41C9.41124 9.41064 9.41124 9.41094 9.41124 9.41125C9.31147 9.66421 9.16393 9.99299 8.91999 10.4213C8.36861 11.3893 9.27726 12.6307 10.3325 12.6675V19.3488C9.27726 19.3856 8.36861 20.6282 8.91999 21.5963C9.15814 22.0144 9.30286 22.3358 9.40249 22.5863C9.65287 22.6861 9.97509 22.8321 10.3937 23.0713C11.3604 23.6234 12.6007 22.713 12.6375 21.6563H19.31C19.3467 22.713 20.5871 23.6234 21.5537 23.0713C21.9818 22.8267 22.3098 22.6787 22.5625 22.5788V26.74H16.9925C17.0885 26.9931 17.2244 27.3198 17.4437 27.75C17.9575 28.7575 17.0591 30 15.9837 30C14.9084 30 13.9628 28.7326 14.5225 27.75C14.7667 27.3212 14.9152 26.9931 15.015 26.74H9.38499V22.6063H5.25625V17.0275C5.00351 17.1237 4.67712 17.2603 4.2475 17.48C3.24141 17.9945 2 17.0944 2 16.0175C2 14.9406 3.26624 13.9945 4.2475 14.555C4.67572 14.7996 5.00351 14.9476 5.25625 15.0475V9.41H9.38499V5.26125H15.015C14.9152 5.00816 14.7667 4.68008 14.5225 4.25125C13.9628 3.26862 14.9084 2 15.9837 2V2ZM22.59 9.41H26.7437V15.0475C26.9965 14.9476 27.3243 14.7996 27.7525 14.555C28.7337 13.9945 30 14.9406 30 16.0175C30 17.0944 28.7586 17.9945 27.7525 17.48C27.3228 17.2603 26.9965 17.1236 26.7437 17.0275V22.6062H22.59C22.6898 22.3532 22.837 22.025 23.0812 21.5962C23.6326 20.6282 22.724 19.3856 21.6687 19.3488V12.6675C22.724 12.6307 23.6326 11.3893 23.0812 10.4213C22.837 9.99243 22.6898 9.66308 22.59 9.41Z" fill="white"/>
</svg>
