<?xml version="1.0" encoding="utf-8"?>
<!-- Svg Vector Icons : http://www.onlinewebfonts.com/icon -->
<!DOCTYPE svg PUBLIC "-//W3C//DTD SVG 1.1//EN" "http://www.w3.org/Graphics/SVG/1.1/DTD/svg11.dtd">
<svg version="1.1" xmlns="http://www.w3.org/2000/svg" xmlns:xlink="http://www.w3.org/1999/xlink" x="0px" y="0px" viewBox="0 0 1000 1000" enable-background="new 0 0 1000 1000" xml:space="preserve">
<metadata> Svg Vector Icons : http://www.onlinewebfonts.com/icon </metadata>
<g><g><g><path d="M500,990C229.8,990,10,770.2,10,500c0-132,51.7-255.8,145.7-348.6c7.6-7.5,19.9-7.5,27.5,0.2c7.5,7.6,7.5,19.9-0.2,27.4C96.5,264.5,48.8,378.5,48.8,500c0,248.8,202.4,451.2,451.2,451.2S951.2,748.8,951.2,500S748.8,48.8,500,48.8c-75.4,0-149.9,19-215.7,54.8c-9.4,5.1-21.2,1.7-26.3-7.7c-5.1-9.4-1.6-21.2,7.7-26.3C337.2,30.6,418.2,10,500,10c270.2,0,490,219.8,490,490S770.2,990,500,990z"/></g><g><path d="M351.7,728.1c-6.1,0-12.1-2.9-15.9-8.2c-6.2-8.8-4.1-20.9,4.7-27l274-192.8L371.1,328.7v247.9c0,10.7-8.7,19.4-19.4,19.4c-10.7,0-19.4-8.7-19.4-19.4V291.3c0-7.3,4-13.9,10.5-17.2c6.4-3.3,14.2-2.8,20.1,1.4l296.6,208.7c5.2,3.6,8.2,9.5,8.2,15.9s-3.1,12.2-8.2,15.9L362.9,724.5C359.5,726.9,355.6,728.1,351.7,728.1z"/></g><g><path d="M648.3,728.1c-10.7,0-19.4-8.7-19.4-19.4V291.3c0-10.7,8.7-19.4,19.4-19.4s19.4,8.7,19.4,19.4v417.3C667.7,719.4,659,728.1,648.3,728.1z"/></g></g><g></g><g></g><g></g><g></g><g></g><g></g><g></g><g></g><g></g><g></g><g></g><g></g><g></g><g></g><g></g></g>
</svg>