<svg xmlns="http://www.w3.org/2000/svg" xmlns:xlink="http://www.w3.org/1999/xlink" width="480" zoomAndPan="magnify" viewBox="0 0 360 359.999987" height="480" preserveAspectRatio="xMidYMid meet" version="1.0"><defs><g/></defs><path fill="rgb(35.688782%, 93.728638%, 82.348633%)" d="M 180.070312 0 C 80.621094 0 0 80.621094 0 180.070312 C 0 279.523438 80.621094 360.144531 180.070312 360.144531 C 279.523438 360.144531 360.144531 279.523438 360.144531 180.070312 C 360.144531 80.621094 279.523438 0 180.070312 0 " fill-opacity="1" fill-rule="nonzero"/><g fill="rgb(0%, 0%, 0%)" fill-opacity="1"><g transform="translate(105.34914, 131.398707)"><g><path d="M 18.160156 -18.023438 L 15.535156 -18.023438 C 14.632812 -18.023438 14.496094 -17.421875 14.304688 -17.09375 L 10.527344 -10.363281 L 6.78125 -17.09375 C 6.5625 -17.421875 6.453125 -18.023438 5.523438 -18.023438 L 2.816406 -18.023438 C 2.1875 -18.023438 2.023438 -17.722656 2.023438 -17.230469 L 2.023438 -0.792969 C 2.023438 -0.164062 2.324219 0 2.816406 0 L 5.523438 0 C 6.015625 0 6.316406 -0.164062 6.316406 -0.792969 L 6.316406 -10.0625 L 9.078125 -5.277344 C 9.214844 -5.058594 9.433594 -4.703125 9.84375 -4.703125 L 11.210938 -4.703125 C 11.621094 -4.703125 11.867188 -5.058594 12.003906 -5.277344 L 14.742188 -10.0625 L 14.742188 -0.792969 C 14.742188 -0.164062 15.042969 0 15.535156 0 L 18.160156 0 C 18.652344 0 18.953125 -0.164062 18.953125 -0.792969 L 18.953125 -17.230469 C 18.953125 -17.722656 18.789062 -18.023438 18.160156 -18.023438 Z M 18.160156 -18.023438 "/></g></g></g><g fill="rgb(0%, 0%, 0%)" fill-opacity="1"><g transform="translate(129.928114, 131.398707)"><g><path d="M 17.503906 -0.765625 L 11.457031 -17.148438 C 11.210938 -17.722656 10.9375 -17.996094 10.335938 -17.996094 L 7.710938 -17.996094 C 7.109375 -17.996094 6.808594 -17.722656 6.589844 -17.148438 L 0.519531 -0.765625 C 0.382812 -0.4375 0.382812 0 0.984375 0 L 3.855469 0 C 4.457031 0 4.675781 -0.164062 4.894531 -0.820312 L 5.660156 -2.980469 L 12.359375 -2.980469 L 13.128906 -0.820312 C 13.347656 -0.164062 13.566406 0 14.167969 0 L 17.039062 0 C 17.640625 0 17.640625 -0.4375 17.503906 -0.765625 Z M 9.023438 -12.855469 L 11.074219 -6.808594 L 6.972656 -6.808594 Z M 9.023438 -12.855469 "/></g></g></g><g fill="rgb(0%, 0%, 0%)" fill-opacity="1"><g transform="translate(151.445216, 131.398707)"><g><path d="M 14.195312 -17.996094 L 1.503906 -17.996094 C 0.875 -17.996094 0.710938 -17.695312 0.710938 -17.203125 L 0.710938 -14.933594 C 0.710938 -14.441406 0.875 -14.140625 1.503906 -14.140625 L 5.714844 -14.140625 L 5.714844 -0.792969 C 5.714844 -0.164062 6.015625 0 6.507812 0 L 9.214844 0 C 9.707031 0 10.007812 -0.164062 10.007812 -0.792969 L 10.007812 -14.140625 L 14.195312 -14.140625 C 14.824219 -14.140625 14.988281 -14.441406 14.988281 -14.933594 L 14.988281 -17.203125 C 14.988281 -17.695312 14.824219 -17.996094 14.195312 -17.996094 Z M 14.195312 -17.996094 "/></g></g></g><g fill="rgb(0%, 0%, 0%)" fill-opacity="1"><g transform="translate(170.747908, 131.398707)"><g><path d="M 17.503906 -0.765625 L 11.457031 -17.148438 C 11.210938 -17.722656 10.9375 -17.996094 10.335938 -17.996094 L 7.710938 -17.996094 C 7.109375 -17.996094 6.808594 -17.722656 6.589844 -17.148438 L 0.519531 -0.765625 C 0.382812 -0.4375 0.382812 0 0.984375 0 L 3.855469 0 C 4.457031 0 4.675781 -0.164062 4.894531 -0.820312 L 5.660156 -2.980469 L 12.359375 -2.980469 L 13.128906 -0.820312 C 13.347656 -0.164062 13.566406 0 14.167969 0 L 17.039062 0 C 17.640625 0 17.640625 -0.4375 17.503906 -0.765625 Z M 9.023438 -12.855469 L 11.074219 -6.808594 L 6.972656 -6.808594 Z M 9.023438 -12.855469 "/></g></g></g><g fill="rgb(0%, 0%, 0%)" fill-opacity="1"><g transform="translate(192.265013, 131.398707)"><g><path d="M 18.160156 -18.023438 L 15.535156 -18.023438 C 14.632812 -18.023438 14.496094 -17.421875 14.304688 -17.09375 L 10.527344 -10.363281 L 6.78125 -17.09375 C 6.5625 -17.421875 6.453125 -18.023438 5.523438 -18.023438 L 2.816406 -18.023438 C 2.1875 -18.023438 2.023438 -17.722656 2.023438 -17.230469 L 2.023438 -0.792969 C 2.023438 -0.164062 2.324219 0 2.816406 0 L 5.523438 0 C 6.015625 0 6.316406 -0.164062 6.316406 -0.792969 L 6.316406 -10.0625 L 9.078125 -5.277344 C 9.214844 -5.058594 9.433594 -4.703125 9.84375 -4.703125 L 11.210938 -4.703125 C 11.621094 -4.703125 11.867188 -5.058594 12.003906 -5.277344 L 14.742188 -10.0625 L 14.742188 -0.792969 C 14.742188 -0.164062 15.042969 0 15.535156 0 L 18.160156 0 C 18.652344 0 18.953125 -0.164062 18.953125 -0.792969 L 18.953125 -17.230469 C 18.953125 -17.722656 18.789062 -18.023438 18.160156 -18.023438 Z M 18.160156 -18.023438 "/></g></g></g><g fill="rgb(0%, 0%, 0%)" fill-opacity="1"><g transform="translate(216.843989, 131.398707)"><g><path d="M 16.164062 -5.769531 L 16.164062 -12.222656 C 16.164062 -16.546875 12.058594 -18.40625 8.804688 -18.40625 C 5.550781 -18.40625 1.503906 -16.546875 1.503906 -12.222656 L 1.503906 -5.769531 C 1.503906 -1.449219 5.550781 0.410156 8.804688 0.410156 C 12.058594 0.410156 16.164062 -1.449219 16.164062 -5.769531 Z M 11.867188 -11.839844 L 11.867188 -6.152344 C 11.867188 -4.402344 10.609375 -3.390625 8.804688 -3.390625 C 7.027344 -3.390625 5.769531 -4.402344 5.769531 -6.152344 L 5.769531 -11.839844 C 5.769531 -13.59375 7.027344 -14.605469 8.804688 -14.605469 C 10.609375 -14.605469 11.867188 -13.59375 11.867188 -11.839844 Z M 11.867188 -11.839844 "/></g></g></g><g fill="rgb(0%, 0%, 0%)" fill-opacity="1"><g transform="translate(238.087705, 131.398707)"><g><path d="M 10.5 -10.445312 C 9.40625 -10.882812 5.386719 -11.484375 5.386719 -13.15625 C 5.386719 -14.386719 6.890625 -14.742188 7.792969 -14.742188 C 8.613281 -14.742188 9.597656 -14.496094 10.117188 -14.003906 C 10.445312 -13.675781 10.582031 -13.457031 10.691406 -13.183594 C 10.828125 -12.828125 10.910156 -12.445312 11.429688 -12.445312 L 14.113281 -12.445312 C 14.742188 -12.445312 14.90625 -12.554688 14.90625 -13.210938 C 14.90625 -16.820312 11.101562 -18.40625 7.628906 -18.40625 C 4.210938 -18.269531 0.984375 -16.519531 0.984375 -12.964844 C 0.984375 -9.488281 3.527344 -8.394531 6.289062 -7.519531 C 8.613281 -6.78125 11.046875 -6.753906 11.046875 -5.222656 C 11.046875 -3.691406 9.84375 -3.363281 8.367188 -3.363281 C 7.355469 -3.363281 6.234375 -3.609375 5.6875 -4.265625 C 5.332031 -4.675781 5.195312 -5.03125 5.167969 -5.386719 C 5.113281 -6.070312 4.8125 -6.152344 4.183594 -6.152344 L 1.53125 -6.152344 C 0.902344 -6.152344 0.738281 -6.015625 0.738281 -5.386719 C 0.738281 -1.558594 4.675781 0.410156 8.09375 0.410156 C 12.304688 0.410156 15.371094 -1.449219 15.371094 -5.332031 C 15.371094 -9.050781 12.472656 -9.84375 10.5 -10.445312 Z M 10.5 -10.445312 "/></g></g></g><g fill="rgb(0%, 0%, 0%)" fill-opacity="1"><g transform="translate(74.788626, 169.491597)"><g><path d="M 14.195312 -17.996094 L 1.503906 -17.996094 C 0.875 -17.996094 0.710938 -17.695312 0.710938 -17.203125 L 0.710938 -14.933594 C 0.710938 -14.441406 0.875 -14.140625 1.503906 -14.140625 L 5.714844 -14.140625 L 5.714844 -0.792969 C 5.714844 -0.164062 6.015625 0 6.507812 0 L 9.214844 0 C 9.707031 0 10.007812 -0.164062 10.007812 -0.792969 L 10.007812 -14.140625 L 14.195312 -14.140625 C 14.824219 -14.140625 14.988281 -14.441406 14.988281 -14.933594 L 14.988281 -17.203125 C 14.988281 -17.695312 14.824219 -17.996094 14.195312 -17.996094 Z M 14.195312 -17.996094 "/></g></g></g><g fill="rgb(0%, 0%, 0%)" fill-opacity="1"><g transform="translate(94.091321, 169.491597)"><g><path d="M 16.765625 -0.875 L 12.910156 -6.480469 C 14.605469 -7.054688 16.710938 -9.050781 16.710938 -11.921875 C 16.710938 -13.675781 16.136719 -15.234375 15.125 -16.21875 C 13.976562 -17.367188 12.664062 -17.96875 9.679688 -17.96875 L 2.789062 -17.96875 C 2.160156 -17.96875 2.023438 -17.667969 2.023438 -17.175781 L 2.023438 -0.792969 C 2.023438 -0.164062 2.296875 0 2.789062 0 L 5.496094 0 C 5.988281 0 6.289062 -0.164062 6.289062 -0.792969 L 6.289062 -14.140625 L 9.925781 -14.140625 C 11.347656 -14.140625 12.445312 -13.238281 12.445312 -11.8125 C 12.445312 -10.527344 11.183594 -9.597656 9.84375 -9.597656 L 9.296875 -9.597656 C 8.667969 -9.597656 8.503906 -9.296875 8.503906 -8.804688 L 8.503906 -6.617188 C 8.503906 -5.851562 8.558594 -5.550781 8.804688 -5.222656 L 11.757812 -0.820312 C 12.140625 -0.246094 12.472656 0 13.128906 0 L 16.355469 0 C 16.875 0 17.011719 -0.492188 16.765625 -0.875 Z M 16.765625 -0.875 "/></g></g></g><g fill="rgb(0%, 0%, 0%)" fill-opacity="1"><g transform="translate(115.90913, 169.491597)"><g><path d="M 9.84375 -3.746094 L 8.121094 -3.746094 L 8.121094 -14.195312 L 9.761719 -14.195312 C 10.390625 -14.195312 10.554688 -14.496094 10.554688 -14.988281 L 10.554688 -17.203125 C 10.554688 -17.695312 10.390625 -17.996094 9.761719 -17.996094 L 2.160156 -17.996094 C 1.53125 -17.996094 1.367188 -17.695312 1.367188 -17.203125 L 1.367188 -14.988281 C 1.367188 -14.496094 1.53125 -14.195312 2.160156 -14.195312 L 3.828125 -14.195312 L 3.828125 -3.746094 L 2.105469 -3.746094 C 1.476562 -3.746094 1.3125 -3.445312 1.3125 -2.953125 L 1.3125 -0.792969 C 1.3125 -0.300781 1.476562 0 2.105469 0 L 9.84375 0 C 10.472656 0 10.636719 -0.300781 10.636719 -0.792969 L 10.636719 -2.953125 C 10.636719 -3.445312 10.472656 -3.746094 9.84375 -3.746094 Z M 9.84375 -3.746094 "/></g></g></g><g fill="rgb(0%, 0%, 0%)" fill-opacity="1"><g transform="translate(131.657851, 169.491597)"><g><path d="M 14.195312 -3.828125 L 6.316406 -3.828125 L 6.316406 -17.203125 C 6.316406 -17.832031 6.015625 -17.996094 5.523438 -17.996094 L 2.816406 -17.996094 C 2.324219 -17.996094 2.023438 -17.832031 2.023438 -17.203125 L 2.023438 -0.792969 C 2.023438 -0.300781 2.1875 0 2.816406 0 L 14.195312 0 C 14.824219 0 14.988281 -0.300781 14.988281 -0.792969 L 14.988281 -3.035156 C 14.988281 -3.527344 14.824219 -3.828125 14.195312 -3.828125 Z M 14.195312 -3.828125 "/></g></g></g><g fill="rgb(0%, 0%, 0%)" fill-opacity="1"><g transform="translate(151.179259, 169.491597)"><g><path d="M 15.917969 -17.996094 L 13.210938 -17.996094 C 12.71875 -17.996094 12.417969 -17.832031 12.417969 -17.203125 L 12.417969 -11.019531 L 6.316406 -11.019531 L 6.316406 -17.203125 C 6.316406 -17.832031 6.042969 -17.996094 5.523438 -17.996094 L 2.816406 -17.996094 C 2.324219 -17.996094 2.023438 -17.832031 2.023438 -17.203125 L 2.023438 -0.792969 C 2.023438 -0.164062 2.324219 0 2.816406 0 L 5.523438 0 C 6.042969 0 6.316406 -0.164062 6.316406 -0.792969 L 6.316406 -6.972656 L 12.417969 -6.972656 L 12.417969 -0.792969 C 12.417969 -0.164062 12.71875 0 13.210938 0 L 15.917969 0 C 16.410156 0 16.710938 -0.164062 16.710938 -0.792969 L 16.710938 -17.203125 C 16.710938 -17.832031 16.410156 -17.996094 15.917969 -17.996094 Z M 15.917969 -17.996094 "/></g></g></g><g fill="rgb(0%, 0%, 0%)" fill-opacity="1"><g transform="translate(173.516509, 169.491597)"><g><path d="M 13.648438 -23.164062 L 12.390625 -23.164062 C 11.894531 -23.164062 11.785156 -22.945312 11.703125 -22.671875 C 11.539062 -22.125 11.101562 -21.988281 10.746094 -22.042969 C 10.417969 -22.097656 8.804688 -22.671875 8.804688 -22.671875 C 8.203125 -22.890625 7.300781 -23.164062 6.589844 -23.164062 C 4.8125 -23.164062 3.636719 -21.769531 3.636719 -20.15625 L 3.636719 -20.128906 C 3.636719 -19.964844 3.636719 -19.582031 3.964844 -19.582031 L 5.222656 -19.582031 C 5.714844 -19.582031 5.824219 -19.800781 5.90625 -20.074219 C 6.070312 -20.621094 6.507812 -20.757812 6.863281 -20.703125 C 7.191406 -20.648438 8.804688 -20.074219 8.804688 -20.074219 C 9.40625 -19.855469 10.308594 -19.582031 11.019531 -19.582031 C 12.800781 -19.582031 13.976562 -20.976562 13.976562 -22.589844 L 13.976562 -22.617188 C 13.976562 -22.78125 13.976562 -23.164062 13.648438 -23.164062 Z M 16.164062 -12.222656 L 16.164062 -5.769531 C 16.164062 -1.449219 12.058594 0.410156 8.804688 0.410156 C 5.550781 0.410156 1.503906 -1.449219 1.503906 -5.769531 L 1.503906 -12.222656 C 1.503906 -16.546875 5.550781 -18.40625 8.804688 -18.40625 C 12.058594 -18.40625 16.164062 -16.546875 16.164062 -12.222656 Z M 11.867188 -6.152344 L 11.867188 -11.839844 C 11.867188 -13.59375 10.609375 -14.605469 8.804688 -14.605469 C 7.027344 -14.605469 5.769531 -13.59375 5.769531 -11.839844 L 5.769531 -6.152344 C 5.769531 -4.402344 7.027344 -3.390625 8.804688 -3.390625 C 10.609375 -3.390625 11.867188 -4.402344 11.867188 -6.152344 Z M 11.867188 -6.152344 "/></g></g></g><g fill="rgb(0%, 0%, 0%)" fill-opacity="1"><g transform="translate(194.760225, 169.491597)"><g><path d="M 15.070312 -3.828125 L 6.34375 -3.828125 L 6.34375 -7.4375 L 13.675781 -7.4375 C 14.304688 -7.4375 14.46875 -7.738281 14.46875 -8.230469 L 14.46875 -10.363281 C 14.46875 -10.855469 14.304688 -11.15625 13.675781 -11.15625 L 6.34375 -11.15625 L 6.34375 -14.140625 L 14.605469 -14.140625 C 15.234375 -14.140625 15.398438 -14.441406 15.398438 -14.933594 L 15.398438 -17.203125 C 15.398438 -17.695312 15.234375 -17.996094 14.605469 -17.996094 L 2.816406 -17.996094 C 2.1875 -17.996094 2.023438 -17.695312 2.023438 -17.203125 L 2.023438 -0.792969 C 2.023438 -0.300781 2.1875 0 2.816406 0 L 15.070312 0 C 15.699219 0 15.863281 -0.300781 15.863281 -0.792969 L 15.863281 -3.035156 C 15.863281 -3.527344 15.699219 -3.828125 15.070312 -3.828125 Z M 15.070312 -3.828125 "/></g></g></g><g fill="rgb(0%, 0%, 0%)" fill-opacity="1"><g transform="translate(215.511842, 169.491597)"><g><path d="M 10.5 -10.445312 C 9.40625 -10.882812 5.386719 -11.484375 5.386719 -13.15625 C 5.386719 -14.386719 6.890625 -14.742188 7.792969 -14.742188 C 8.613281 -14.742188 9.597656 -14.496094 10.117188 -14.003906 C 10.445312 -13.675781 10.582031 -13.457031 10.691406 -13.183594 C 10.828125 -12.828125 10.910156 -12.445312 11.429688 -12.445312 L 14.113281 -12.445312 C 14.742188 -12.445312 14.90625 -12.554688 14.90625 -13.210938 C 14.90625 -16.820312 11.101562 -18.40625 7.628906 -18.40625 C 4.210938 -18.269531 0.984375 -16.519531 0.984375 -12.964844 C 0.984375 -9.488281 3.527344 -8.394531 6.289062 -7.519531 C 8.613281 -6.78125 11.046875 -6.753906 11.046875 -5.222656 C 11.046875 -3.691406 9.84375 -3.363281 8.367188 -3.363281 C 7.355469 -3.363281 6.234375 -3.609375 5.6875 -4.265625 C 5.332031 -4.675781 5.195312 -5.03125 5.167969 -5.386719 C 5.113281 -6.070312 4.8125 -6.152344 4.183594 -6.152344 L 1.53125 -6.152344 C 0.902344 -6.152344 0.738281 -6.015625 0.738281 -5.386719 C 0.738281 -1.558594 4.675781 0.410156 8.09375 0.410156 C 12.304688 0.410156 15.371094 -1.449219 15.371094 -5.332031 C 15.371094 -9.050781 12.472656 -9.84375 10.5 -10.445312 Z M 10.5 -10.445312 "/></g></g></g><g fill="rgb(0%, 0%, 0%)" fill-opacity="1"><g transform="translate(235.662023, 169.491597)"><g/></g></g><g fill="rgb(0%, 0%, 0%)" fill-opacity="1"><g transform="translate(246.681236, 169.491597)"><g><path d="M 8.941406 -17.996094 L 2.816406 -17.996094 C 2.1875 -17.996094 2.023438 -17.695312 2.023438 -17.203125 L 2.023438 -0.792969 C 2.023438 -0.300781 2.1875 0 2.816406 0 L 8.941406 0 C 12.195312 0 16.300781 -1.859375 16.300781 -6.152344 L 16.300781 -11.839844 C 16.300781 -16.109375 12.195312 -17.996094 8.941406 -17.996094 Z M 12.003906 -11.457031 L 12.003906 -6.535156 C 12.003906 -4.785156 10.746094 -3.800781 8.941406 -3.800781 L 6.316406 -3.800781 L 6.316406 -14.195312 L 8.941406 -14.195312 C 10.746094 -14.195312 12.003906 -13.183594 12.003906 -11.457031 Z M 12.003906 -11.457031 "/></g></g></g><g fill="rgb(0%, 0%, 0%)" fill-opacity="1"><g transform="translate(268.061647, 169.491597)"><g><path d="M 15.070312 -3.828125 L 6.34375 -3.828125 L 6.34375 -7.4375 L 13.675781 -7.4375 C 14.304688 -7.4375 14.46875 -7.738281 14.46875 -8.230469 L 14.46875 -10.363281 C 14.46875 -10.855469 14.304688 -11.15625 13.675781 -11.15625 L 6.34375 -11.15625 L 6.34375 -14.140625 L 14.605469 -14.140625 C 15.234375 -14.140625 15.398438 -14.441406 15.398438 -14.933594 L 15.398438 -17.203125 C 15.398438 -17.695312 15.234375 -17.996094 14.605469 -17.996094 L 2.816406 -17.996094 C 2.1875 -17.996094 2.023438 -17.695312 2.023438 -17.203125 L 2.023438 -0.792969 C 2.023438 -0.300781 2.1875 0 2.816406 0 L 15.070312 0 C 15.699219 0 15.863281 -0.300781 15.863281 -0.792969 L 15.863281 -3.035156 C 15.863281 -3.527344 15.699219 -3.828125 15.070312 -3.828125 Z M 15.070312 -3.828125 "/></g></g></g><g fill="rgb(0%, 0%, 0%)" fill-opacity="1"><g transform="translate(52.335166, 207.584488)"><g><path d="M 14.851562 -9.324219 C 15.097656 -9.433594 16.847656 -10.308594 16.847656 -13.074219 C 16.847656 -15.644531 14.933594 -18.023438 10.472656 -18.023438 L 2.816406 -18.023438 C 2.1875 -18.023438 2.023438 -17.722656 2.023438 -17.230469 L 2.023438 -0.792969 C 2.023438 -0.300781 2.1875 0 2.816406 0 L 10.855469 0 C 14.660156 0 17.367188 -1.777344 17.367188 -5.25 C 17.367188 -8.203125 15.070312 -9.242188 14.851562 -9.324219 Z M 10.910156 -3.882812 L 6.316406 -3.882812 L 6.316406 -14.167969 L 10.472656 -14.167969 C 11.894531 -14.167969 12.746094 -13.867188 12.746094 -12.636719 C 12.746094 -11.566406 12.058594 -10.992188 10.472656 -10.992188 L 10.117188 -10.992188 C 9.488281 -10.992188 9.324219 -10.691406 9.324219 -10.199219 L 9.324219 -8.121094 C 9.324219 -7.628906 9.488281 -7.328125 10.117188 -7.328125 L 10.746094 -7.328125 C 12.058594 -7.328125 13.019531 -6.945312 13.019531 -5.660156 C 13.019531 -4.429688 12.25 -3.882812 10.910156 -3.882812 Z M 10.910156 -3.882812 "/></g></g></g><g fill="rgb(0%, 0%, 0%)" fill-opacity="1"><g transform="translate(74.727092, 207.584488)"><g><path d="M 17.503906 -0.765625 L 11.457031 -17.148438 C 11.210938 -17.722656 10.9375 -17.996094 10.335938 -17.996094 L 7.710938 -17.996094 C 7.109375 -17.996094 6.808594 -17.722656 6.589844 -17.148438 L 0.519531 -0.765625 C 0.382812 -0.4375 0.382812 0 0.984375 0 L 3.855469 0 C 4.457031 0 4.675781 -0.164062 4.894531 -0.820312 L 5.660156 -2.980469 L 12.359375 -2.980469 L 13.128906 -0.820312 C 13.347656 -0.164062 13.566406 0 14.167969 0 L 17.039062 0 C 17.640625 0 17.640625 -0.4375 17.503906 -0.765625 Z M 9.023438 -12.855469 L 11.074219 -6.808594 L 6.972656 -6.808594 Z M 9.023438 -12.855469 "/></g></g></g><g fill="rgb(0%, 0%, 0%)" fill-opacity="1"><g transform="translate(96.244194, 207.584488)"><g><path d="M 15.890625 -5.332031 C 15.890625 -5.988281 15.671875 -6.261719 15.070312 -6.261719 L 12.390625 -6.261719 C 11.785156 -6.261719 11.730469 -5.824219 11.648438 -5.277344 C 11.429688 -3.964844 10.253906 -3.417969 8.777344 -3.417969 C 6.972656 -3.417969 5.742188 -4.402344 5.742188 -6.152344 L 5.742188 -11.839844 C 5.742188 -13.566406 6.972656 -14.578125 8.777344 -14.578125 C 10.253906 -14.578125 11.019531 -14.167969 11.59375 -13.265625 C 11.8125 -12.9375 11.839844 -12.417969 12.417969 -12.417969 L 15.042969 -12.417969 C 15.671875 -12.417969 15.890625 -12.554688 15.890625 -13.210938 C 15.535156 -16.683594 12.167969 -18.40625 8.777344 -18.40625 C 5.523438 -18.40625 1.449219 -16.519531 1.449219 -12.222656 L 1.449219 -5.769531 C 1.449219 -1.476562 5.523438 0.410156 8.777344 0.410156 C 12.167969 0.410156 15.890625 -1.804688 15.890625 -5.332031 Z M 15.890625 -5.332031 "/></g></g></g><g fill="rgb(0%, 0%, 0%)" fill-opacity="1"><g transform="translate(117.132499, 207.584488)"><g><path d="M 14.195312 -17.996094 L 1.503906 -17.996094 C 0.875 -17.996094 0.710938 -17.695312 0.710938 -17.203125 L 0.710938 -14.933594 C 0.710938 -14.441406 0.875 -14.140625 1.503906 -14.140625 L 5.714844 -14.140625 L 5.714844 -0.792969 C 5.714844 -0.164062 6.015625 0 6.507812 0 L 9.214844 0 C 9.707031 0 10.007812 -0.164062 10.007812 -0.792969 L 10.007812 -14.140625 L 14.195312 -14.140625 C 14.824219 -14.140625 14.988281 -14.441406 14.988281 -14.933594 L 14.988281 -17.203125 C 14.988281 -17.695312 14.824219 -17.996094 14.195312 -17.996094 Z M 14.195312 -17.996094 "/></g></g></g><g fill="rgb(0%, 0%, 0%)" fill-opacity="1"><g transform="translate(136.435196, 207.584488)"><g><path d="M 6.945312 -19.582031 L 9.625 -19.582031 C 10.308594 -19.582031 10.527344 -19.964844 10.910156 -20.347656 L 13.648438 -23.300781 C 13.894531 -23.546875 13.8125 -24.066406 13.128906 -24.066406 L 9.652344 -24.066406 C 9.050781 -24.066406 8.832031 -23.984375 8.421875 -23.300781 L 6.589844 -20.347656 C 6.425781 -20.101562 6.425781 -19.582031 6.945312 -19.582031 Z M 15.070312 -3.828125 L 6.34375 -3.828125 L 6.34375 -7.4375 L 13.675781 -7.4375 C 14.304688 -7.4375 14.46875 -7.738281 14.46875 -8.230469 L 14.46875 -10.363281 C 14.46875 -10.855469 14.304688 -11.15625 13.675781 -11.15625 L 6.34375 -11.15625 L 6.34375 -14.140625 L 14.605469 -14.140625 C 15.234375 -14.140625 15.398438 -14.441406 15.398438 -14.933594 L 15.398438 -17.203125 C 15.398438 -17.695312 15.234375 -17.996094 14.605469 -17.996094 L 2.816406 -17.996094 C 2.1875 -17.996094 2.023438 -17.695312 2.023438 -17.203125 L 2.023438 -0.792969 C 2.023438 -0.300781 2.1875 0 2.816406 0 L 15.070312 0 C 15.699219 0 15.863281 -0.300781 15.863281 -0.792969 L 15.863281 -3.035156 C 15.863281 -3.527344 15.699219 -3.828125 15.070312 -3.828125 Z M 15.070312 -3.828125 "/></g></g></g><g fill="rgb(0%, 0%, 0%)" fill-opacity="1"><g transform="translate(157.186813, 207.584488)"><g><path d="M 16.765625 -0.875 L 12.910156 -6.480469 C 14.605469 -7.054688 16.710938 -9.050781 16.710938 -11.921875 C 16.710938 -13.675781 16.136719 -15.234375 15.125 -16.21875 C 13.976562 -17.367188 12.664062 -17.96875 9.679688 -17.96875 L 2.789062 -17.96875 C 2.160156 -17.96875 2.023438 -17.667969 2.023438 -17.175781 L 2.023438 -0.792969 C 2.023438 -0.164062 2.296875 0 2.789062 0 L 5.496094 0 C 5.988281 0 6.289062 -0.164062 6.289062 -0.792969 L 6.289062 -14.140625 L 9.925781 -14.140625 C 11.347656 -14.140625 12.445312 -13.238281 12.445312 -11.8125 C 12.445312 -10.527344 11.183594 -9.597656 9.84375 -9.597656 L 9.296875 -9.597656 C 8.667969 -9.597656 8.503906 -9.296875 8.503906 -8.804688 L 8.503906 -6.617188 C 8.503906 -5.851562 8.558594 -5.550781 8.804688 -5.222656 L 11.757812 -0.820312 C 12.140625 -0.246094 12.472656 0 13.128906 0 L 16.355469 0 C 16.875 0 17.011719 -0.492188 16.765625 -0.875 Z M 16.765625 -0.875 "/></g></g></g><g fill="rgb(0%, 0%, 0%)" fill-opacity="1"><g transform="translate(179.004625, 207.584488)"><g><path d="M 9.84375 -3.746094 L 8.121094 -3.746094 L 8.121094 -14.195312 L 9.761719 -14.195312 C 10.390625 -14.195312 10.554688 -14.496094 10.554688 -14.988281 L 10.554688 -17.203125 C 10.554688 -17.695312 10.390625 -17.996094 9.761719 -17.996094 L 2.160156 -17.996094 C 1.53125 -17.996094 1.367188 -17.695312 1.367188 -17.203125 L 1.367188 -14.988281 C 1.367188 -14.496094 1.53125 -14.195312 2.160156 -14.195312 L 3.828125 -14.195312 L 3.828125 -3.746094 L 2.105469 -3.746094 C 1.476562 -3.746094 1.3125 -3.445312 1.3125 -2.953125 L 1.3125 -0.792969 C 1.3125 -0.300781 1.476562 0 2.105469 0 L 9.84375 0 C 10.472656 0 10.636719 -0.300781 10.636719 -0.792969 L 10.636719 -2.953125 C 10.636719 -3.445312 10.472656 -3.746094 9.84375 -3.746094 Z M 9.84375 -3.746094 "/></g></g></g><g fill="rgb(0%, 0%, 0%)" fill-opacity="1"><g transform="translate(194.75335, 207.584488)"><g><path d="M 17.503906 -0.765625 L 11.457031 -17.148438 C 11.210938 -17.722656 10.9375 -17.996094 10.335938 -17.996094 L 7.710938 -17.996094 C 7.109375 -17.996094 6.808594 -17.722656 6.589844 -17.148438 L 0.519531 -0.765625 C 0.382812 -0.4375 0.382812 0 0.984375 0 L 3.855469 0 C 4.457031 0 4.675781 -0.164062 4.894531 -0.820312 L 5.660156 -2.980469 L 12.359375 -2.980469 L 13.128906 -0.820312 C 13.347656 -0.164062 13.566406 0 14.167969 0 L 17.039062 0 C 17.640625 0 17.640625 -0.4375 17.503906 -0.765625 Z M 9.023438 -12.855469 L 11.074219 -6.808594 L 6.972656 -6.808594 Z M 9.023438 -12.855469 "/></g></g></g><g fill="rgb(0%, 0%, 0%)" fill-opacity="1"><g transform="translate(216.270455, 207.584488)"><g><path d="M 10.5 -10.445312 C 9.40625 -10.882812 5.386719 -11.484375 5.386719 -13.15625 C 5.386719 -14.386719 6.890625 -14.742188 7.792969 -14.742188 C 8.613281 -14.742188 9.597656 -14.496094 10.117188 -14.003906 C 10.445312 -13.675781 10.582031 -13.457031 10.691406 -13.183594 C 10.828125 -12.828125 10.910156 -12.445312 11.429688 -12.445312 L 14.113281 -12.445312 C 14.742188 -12.445312 14.90625 -12.554688 14.90625 -13.210938 C 14.90625 -16.820312 11.101562 -18.40625 7.628906 -18.40625 C 4.210938 -18.269531 0.984375 -16.519531 0.984375 -12.964844 C 0.984375 -9.488281 3.527344 -8.394531 6.289062 -7.519531 C 8.613281 -6.78125 11.046875 -6.753906 11.046875 -5.222656 C 11.046875 -3.691406 9.84375 -3.363281 8.367188 -3.363281 C 7.355469 -3.363281 6.234375 -3.609375 5.6875 -4.265625 C 5.332031 -4.675781 5.195312 -5.03125 5.167969 -5.386719 C 5.113281 -6.070312 4.8125 -6.152344 4.183594 -6.152344 L 1.53125 -6.152344 C 0.902344 -6.152344 0.738281 -6.015625 0.738281 -5.386719 C 0.738281 -1.558594 4.675781 0.410156 8.09375 0.410156 C 12.304688 0.410156 15.371094 -1.449219 15.371094 -5.332031 C 15.371094 -9.050781 12.472656 -9.84375 10.5 -10.445312 Z M 10.5 -10.445312 "/></g></g></g><g fill="rgb(0%, 0%, 0%)" fill-opacity="1"><g transform="translate(236.420626, 207.584488)"><g/></g></g><g fill="rgb(0%, 0%, 0%)" fill-opacity="1"><g transform="translate(247.43985, 207.584488)"><g><path d="M 8.96875 -17.996094 L 2.816406 -17.996094 C 2.1875 -17.996094 2.023438 -17.695312 2.023438 -17.203125 L 2.023438 -0.792969 C 2.023438 -0.164062 2.324219 0 2.816406 0 L 5.523438 0 C 6.015625 0 6.316406 -0.164062 6.316406 -0.792969 L 6.316406 -5.332031 L 8.941406 -5.332031 C 13.621094 -5.332031 16.136719 -7.847656 16.136719 -11.648438 C 16.136719 -15.425781 13.675781 -17.996094 8.96875 -17.996094 Z M 8.941406 -9.023438 L 6.316406 -9.023438 L 6.316406 -14.140625 L 8.941406 -14.140625 C 11.074219 -14.140625 12.003906 -12.992188 12.003906 -11.566406 C 12.003906 -10.199219 11.074219 -9.023438 8.941406 -9.023438 Z M 8.941406 -9.023438 "/></g></g></g><g fill="rgb(0%, 0%, 0%)" fill-opacity="1"><g transform="translate(268.218805, 207.584488)"><g><path d="M 16.164062 -5.769531 L 16.164062 -12.222656 C 16.164062 -16.546875 12.058594 -18.40625 8.804688 -18.40625 C 5.550781 -18.40625 1.503906 -16.546875 1.503906 -12.222656 L 1.503906 -5.769531 C 1.503906 -1.449219 5.550781 0.410156 8.804688 0.410156 C 12.058594 0.410156 16.164062 -1.449219 16.164062 -5.769531 Z M 11.867188 -11.839844 L 11.867188 -6.152344 C 11.867188 -4.402344 10.609375 -3.390625 8.804688 -3.390625 C 7.027344 -3.390625 5.769531 -4.402344 5.769531 -6.152344 L 5.769531 -11.839844 C 5.769531 -13.59375 7.027344 -14.605469 8.804688 -14.605469 C 10.609375 -14.605469 11.867188 -13.59375 11.867188 -11.839844 Z M 11.867188 -11.839844 "/></g></g></g><g fill="rgb(0%, 0%, 0%)" fill-opacity="1"><g transform="translate(289.462521, 207.584488)"><g><path d="M 16.765625 -0.875 L 12.910156 -6.480469 C 14.605469 -7.054688 16.710938 -9.050781 16.710938 -11.921875 C 16.710938 -13.675781 16.136719 -15.234375 15.125 -16.21875 C 13.976562 -17.367188 12.664062 -17.96875 9.679688 -17.96875 L 2.789062 -17.96875 C 2.160156 -17.96875 2.023438 -17.667969 2.023438 -17.175781 L 2.023438 -0.792969 C 2.023438 -0.164062 2.296875 0 2.789062 0 L 5.496094 0 C 5.988281 0 6.289062 -0.164062 6.289062 -0.792969 L 6.289062 -14.140625 L 9.925781 -14.140625 C 11.347656 -14.140625 12.445312 -13.238281 12.445312 -11.8125 C 12.445312 -10.527344 11.183594 -9.597656 9.84375 -9.597656 L 9.296875 -9.597656 C 8.667969 -9.597656 8.503906 -9.296875 8.503906 -8.804688 L 8.503906 -6.617188 C 8.503906 -5.851562 8.558594 -5.550781 8.804688 -5.222656 L 11.757812 -0.820312 C 12.140625 -0.246094 12.472656 0 13.128906 0 L 16.355469 0 C 16.875 0 17.011719 -0.492188 16.765625 -0.875 Z M 16.765625 -0.875 "/></g></g></g><g fill="rgb(0%, 0%, 0%)" fill-opacity="1"><g transform="translate(146.274369, 245.677379)"><g><path d="M 8.941406 -17.996094 L 2.816406 -17.996094 C 2.1875 -17.996094 2.023438 -17.695312 2.023438 -17.203125 L 2.023438 -0.792969 C 2.023438 -0.300781 2.1875 0 2.816406 0 L 8.941406 0 C 12.195312 0 16.300781 -1.859375 16.300781 -6.152344 L 16.300781 -11.839844 C 16.300781 -16.109375 12.195312 -17.996094 8.941406 -17.996094 Z M 12.003906 -11.457031 L 12.003906 -6.535156 C 12.003906 -4.785156 10.746094 -3.800781 8.941406 -3.800781 L 6.316406 -3.800781 L 6.316406 -14.195312 L 8.941406 -14.195312 C 10.746094 -14.195312 12.003906 -13.183594 12.003906 -11.457031 Z M 12.003906 -11.457031 "/></g></g></g><g fill="rgb(0%, 0%, 0%)" fill-opacity="1"><g transform="translate(167.654776, 245.677379)"><g><path d="M 9.84375 -3.746094 L 8.121094 -3.746094 L 8.121094 -14.195312 L 9.761719 -14.195312 C 10.390625 -14.195312 10.554688 -14.496094 10.554688 -14.988281 L 10.554688 -17.203125 C 10.554688 -17.695312 10.390625 -17.996094 9.761719 -17.996094 L 2.160156 -17.996094 C 1.53125 -17.996094 1.367188 -17.695312 1.367188 -17.203125 L 1.367188 -14.988281 C 1.367188 -14.496094 1.53125 -14.195312 2.160156 -14.195312 L 3.828125 -14.195312 L 3.828125 -3.746094 L 2.105469 -3.746094 C 1.476562 -3.746094 1.3125 -3.445312 1.3125 -2.953125 L 1.3125 -0.792969 C 1.3125 -0.300781 1.476562 0 2.105469 0 L 9.84375 0 C 10.472656 0 10.636719 -0.300781 10.636719 -0.792969 L 10.636719 -2.953125 C 10.636719 -3.445312 10.472656 -3.746094 9.84375 -3.746094 Z M 9.84375 -3.746094 "/></g></g></g><g fill="rgb(0%, 0%, 0%)" fill-opacity="1"><g transform="translate(183.403499, 245.677379)"><g><path d="M 17.503906 -0.765625 L 11.457031 -17.148438 C 11.210938 -17.722656 10.9375 -17.996094 10.335938 -17.996094 L 7.710938 -17.996094 C 7.109375 -17.996094 6.808594 -17.722656 6.589844 -17.148438 L 0.519531 -0.765625 C 0.382812 -0.4375 0.382812 0 0.984375 0 L 3.855469 0 C 4.457031 0 4.675781 -0.164062 4.894531 -0.820312 L 5.660156 -2.980469 L 12.359375 -2.980469 L 13.128906 -0.820312 C 13.347656 -0.164062 13.566406 0 14.167969 0 L 17.039062 0 C 17.640625 0 17.640625 -0.4375 17.503906 -0.765625 Z M 9.023438 -12.855469 L 11.074219 -6.808594 L 6.972656 -6.808594 Z M 9.023438 -12.855469 "/></g></g></g><g fill="rgb(0%, 0%, 0%)" fill-opacity="1"><g transform="translate(204.920599, 245.677379)"><g><path d="M 3.855469 -5.660156 L 5.195312 -5.660156 C 5.824219 -5.660156 5.878906 -5.742188 5.960938 -6.453125 C 7.136719 -17.257812 7.164062 -17.339844 7.164062 -17.421875 C 7.164062 -17.914062 6.917969 -17.996094 6.34375 -17.996094 L 2.679688 -17.996094 C 2.132812 -17.996094 1.886719 -17.886719 1.886719 -17.421875 C 1.886719 -17.339844 1.914062 -17.257812 3.0625 -6.453125 C 3.144531 -5.769531 3.199219 -5.660156 3.855469 -5.660156 Z M 6.042969 -4.621094 L 3.007812 -4.621094 C 2.515625 -4.621094 2.214844 -4.457031 2.214844 -3.828125 L 2.214844 -0.792969 C 2.214844 -0.164062 2.515625 0 3.007812 0 L 6.042969 0 C 6.535156 0 6.835938 -0.164062 6.835938 -0.792969 L 6.835938 -3.828125 C 6.835938 -4.457031 6.535156 -4.621094 6.042969 -4.621094 Z M 6.042969 -4.621094 "/></g></g></g></svg>