<svg xmlns="http://www.w3.org/2000/svg" xmlns:xlink="http://www.w3.org/1999/xlink" width="480" zoomAndPan="magnify" viewBox="0 0 360 359.999987" height="480" preserveAspectRatio="xMidYMid meet" version="1.0"><defs><g/></defs><path fill="rgb(49.798584%, 100%, 66.668701%)" d="M 180.0625 0 C 80.617188 0 0 80.617188 0 180.0625 C 0 279.507812 80.617188 360.125 180.0625 360.125 C 279.507812 360.125 360.125 279.507812 360.125 180.0625 C 360.125 80.617188 279.507812 0 180.0625 0 " fill-opacity="1" fill-rule="nonzero"/><g fill="rgb(0%, 0%, 0%)" fill-opacity="1"><g transform="translate(69.214023, 148.126856)"><g><path d="M 14.273438 -19.878906 L 5.339844 -19.878906 C 4.628906 -19.878906 4.484375 -19.554688 4.484375 -19.023438 L 4.484375 -16.574219 C 4.484375 -16.042969 4.628906 -15.71875 5.339844 -15.71875 L 10.5 -15.71875 L 10.5 -6.988281 C 10.5 -5.160156 9.761719 -4.097656 7.816406 -4.097656 C 6.488281 -4.097656 5.542969 -4.808594 5.457031 -6.546875 C 5.457031 -6.695312 5.398438 -7.167969 4.71875 -7.167969 L 1.59375 -7.167969 C 0.914062 -7.167969 0.886719 -6.519531 0.886719 -6.371094 C 0.886719 -2.210938 3.894531 0 7.816406 0 C 11.324219 0 15.128906 -1.738281 15.128906 -6.339844 L 15.128906 -19.023438 C 15.128906 -19.554688 14.953125 -19.878906 14.273438 -19.878906 Z M 14.273438 -19.878906 "/></g></g></g><g fill="rgb(0%, 0%, 0%)" fill-opacity="1"><g transform="translate(90.207731, 148.126856)"><g><path d="M 8.375 -21.117188 L 11.265625 -21.117188 C 12.003906 -21.117188 12.238281 -21.53125 12.652344 -21.941406 L 15.601562 -25.128906 C 15.867188 -25.394531 15.777344 -25.953125 15.042969 -25.953125 L 11.296875 -25.953125 C 10.648438 -25.953125 10.410156 -25.867188 9.96875 -25.128906 L 7.992188 -21.941406 C 7.816406 -21.675781 7.816406 -21.117188 8.375 -21.117188 Z M 18.875 -0.824219 L 12.359375 -18.492188 C 12.09375 -19.113281 11.796875 -19.40625 11.148438 -19.40625 L 8.316406 -19.40625 C 7.667969 -19.40625 7.34375 -19.113281 7.109375 -18.492188 L 0.558594 -0.824219 C 0.414062 -0.472656 0.414062 0 1.0625 0 L 4.160156 0 C 4.808594 0 5.042969 -0.175781 5.277344 -0.886719 L 6.105469 -3.214844 L 13.332031 -3.214844 L 14.15625 -0.886719 C 14.394531 -0.175781 14.628906 0 15.277344 0 L 18.375 0 C 19.023438 0 19.023438 -0.472656 18.875 -0.824219 Z M 9.734375 -13.863281 L 11.945312 -7.34375 L 7.519531 -7.34375 Z M 9.734375 -13.863281 "/></g></g></g><g fill="rgb(0%, 0%, 0%)" fill-opacity="1"><g transform="translate(113.412645, 148.126856)"><g/></g></g><g fill="rgb(0%, 0%, 0%)" fill-opacity="1"><g transform="translate(125.296217, 148.126856)"><g><path d="M 9.671875 -19.40625 L 3.039062 -19.40625 C 2.359375 -19.40625 2.183594 -19.082031 2.183594 -18.550781 L 2.183594 -0.855469 C 2.183594 -0.175781 2.507812 0 3.039062 0 L 5.957031 0 C 6.488281 0 6.8125 -0.175781 6.8125 -0.855469 L 6.8125 -5.75 L 9.644531 -5.75 C 14.6875 -5.75 17.402344 -8.464844 17.402344 -12.5625 C 17.402344 -16.632812 14.746094 -19.40625 9.671875 -19.40625 Z M 9.644531 -9.734375 L 6.8125 -9.734375 L 6.8125 -15.246094 L 9.644531 -15.246094 C 11.945312 -15.246094 12.949219 -14.007812 12.949219 -12.476562 C 12.949219 -11 11.945312 -9.734375 9.644531 -9.734375 Z M 9.644531 -9.734375 "/></g></g></g><g fill="rgb(0%, 0%, 0%)" fill-opacity="1"><g transform="translate(147.705084, 148.126856)"><g><path d="M 17.429688 -6.222656 L 17.429688 -13.183594 C 17.429688 -17.84375 13.007812 -19.847656 9.496094 -19.847656 C 5.988281 -19.847656 1.621094 -17.84375 1.621094 -13.183594 L 1.621094 -6.222656 C 1.621094 -1.5625 5.988281 0.441406 9.496094 0.441406 C 13.007812 0.441406 17.429688 -1.5625 17.429688 -6.222656 Z M 12.800781 -12.769531 L 12.800781 -6.636719 C 12.800781 -4.75 11.445312 -3.65625 9.496094 -3.65625 C 7.578125 -3.65625 6.222656 -4.75 6.222656 -6.636719 L 6.222656 -12.769531 C 6.222656 -14.65625 7.578125 -15.75 9.496094 -15.75 C 11.445312 -15.75 12.800781 -14.65625 12.800781 -12.769531 Z M 12.800781 -12.769531 "/></g></g></g><g fill="rgb(0%, 0%, 0%)" fill-opacity="1"><g transform="translate(170.615168, 148.126856)"><g><path d="M 9.644531 -19.40625 L 3.039062 -19.40625 C 2.359375 -19.40625 2.183594 -19.082031 2.183594 -18.550781 L 2.183594 -0.855469 C 2.183594 -0.324219 2.359375 0 3.039062 0 L 9.644531 0 C 13.152344 0 17.578125 -2.003906 17.578125 -6.636719 L 17.578125 -12.769531 C 17.578125 -17.371094 13.152344 -19.40625 9.644531 -19.40625 Z M 12.949219 -12.359375 L 12.949219 -7.050781 C 12.949219 -5.160156 11.589844 -4.097656 9.644531 -4.097656 L 6.8125 -4.097656 L 6.8125 -15.308594 L 9.644531 -15.308594 C 11.589844 -15.308594 12.949219 -14.214844 12.949219 -12.359375 Z M 12.949219 -12.359375 "/></g></g></g><g fill="rgb(0%, 0%, 0%)" fill-opacity="1"><g transform="translate(193.672668, 148.126856)"><g><path d="M 16.25 -4.128906 L 6.84375 -4.128906 L 6.84375 -8.023438 L 14.746094 -8.023438 C 15.425781 -8.023438 15.601562 -8.347656 15.601562 -8.878906 L 15.601562 -11.179688 C 15.601562 -11.707031 15.425781 -12.035156 14.746094 -12.035156 L 6.84375 -12.035156 L 6.84375 -15.246094 L 15.75 -15.246094 C 16.429688 -15.246094 16.605469 -15.574219 16.605469 -16.101562 L 16.605469 -18.550781 C 16.605469 -19.082031 16.429688 -19.40625 15.75 -19.40625 L 3.039062 -19.40625 C 2.359375 -19.40625 2.183594 -19.082031 2.183594 -18.550781 L 2.183594 -0.855469 C 2.183594 -0.324219 2.359375 0 3.039062 0 L 16.25 0 C 16.929688 0 17.105469 -0.324219 17.105469 -0.855469 L 17.105469 -3.273438 C 17.105469 -3.804688 16.929688 -4.128906 16.25 -4.128906 Z M 16.25 -4.128906 "/></g></g></g><g fill="rgb(0%, 0%, 0%)" fill-opacity="1"><g transform="translate(216.052052, 148.126856)"><g/></g></g><g fill="rgb(0%, 0%, 0%)" fill-opacity="1"><g transform="translate(227.935629, 148.126856)"><g><path d="M 15.308594 -19.40625 L 1.621094 -19.40625 C 0.945312 -19.40625 0.765625 -19.082031 0.765625 -18.550781 L 0.765625 -16.101562 C 0.765625 -15.574219 0.945312 -15.246094 1.621094 -15.246094 L 6.164062 -15.246094 L 6.164062 -0.855469 C 6.164062 -0.175781 6.488281 0 7.019531 0 L 9.9375 0 C 10.46875 0 10.792969 -0.175781 10.792969 -0.855469 L 10.792969 -15.246094 L 15.308594 -15.246094 C 15.984375 -15.246094 16.164062 -15.574219 16.164062 -16.101562 L 16.164062 -18.550781 C 16.164062 -19.082031 15.984375 -19.40625 15.308594 -19.40625 Z M 15.308594 -19.40625 "/></g></g></g><g fill="rgb(0%, 0%, 0%)" fill-opacity="1"><g transform="translate(248.752439, 148.126856)"><g><path d="M 16.25 -4.128906 L 6.84375 -4.128906 L 6.84375 -8.023438 L 14.746094 -8.023438 C 15.425781 -8.023438 15.601562 -8.347656 15.601562 -8.878906 L 15.601562 -11.179688 C 15.601562 -11.707031 15.425781 -12.035156 14.746094 -12.035156 L 6.84375 -12.035156 L 6.84375 -15.246094 L 15.75 -15.246094 C 16.429688 -15.246094 16.605469 -15.574219 16.605469 -16.101562 L 16.605469 -18.550781 C 16.605469 -19.082031 16.429688 -19.40625 15.75 -19.40625 L 3.039062 -19.40625 C 2.359375 -19.40625 2.183594 -19.082031 2.183594 -18.550781 L 2.183594 -0.855469 C 2.183594 -0.324219 2.359375 0 3.039062 0 L 16.25 0 C 16.929688 0 17.105469 -0.324219 17.105469 -0.855469 L 17.105469 -3.273438 C 17.105469 -3.804688 16.929688 -4.128906 16.25 -4.128906 Z M 16.25 -4.128906 "/></g></g></g><g fill="rgb(0%, 0%, 0%)" fill-opacity="1"><g transform="translate(271.131813, 148.126856)"><g><path d="M 18.078125 -0.945312 L 13.921875 -6.988281 C 15.75 -7.609375 18.019531 -9.761719 18.019531 -12.859375 C 18.019531 -14.746094 17.402344 -16.429688 16.308594 -17.488281 C 15.070312 -18.726562 13.65625 -19.378906 10.441406 -19.378906 L 3.007812 -19.378906 C 2.328125 -19.378906 2.183594 -19.050781 2.183594 -18.523438 L 2.183594 -0.855469 C 2.183594 -0.175781 2.476562 0 3.007812 0 L 5.929688 0 C 6.460938 0 6.785156 -0.175781 6.785156 -0.855469 L 6.785156 -15.246094 L 10.707031 -15.246094 C 12.238281 -15.246094 13.417969 -14.273438 13.417969 -12.742188 C 13.417969 -11.355469 12.0625 -10.351562 10.617188 -10.351562 L 10.027344 -10.351562 C 9.347656 -10.351562 9.171875 -10.027344 9.171875 -9.496094 L 9.171875 -7.136719 C 9.171875 -6.3125 9.230469 -5.988281 9.496094 -5.632812 L 12.683594 -0.886719 C 13.09375 -0.265625 13.449219 0 14.15625 0 L 17.636719 0 C 18.199219 0 18.34375 -0.53125 18.078125 -0.945312 Z M 18.078125 -0.945312 "/></g></g></g><g fill="rgb(0%, 0%, 0%)" fill-opacity="1"><g transform="translate(50.04588, 189.207772)"><g><path d="M 16.25 -4.128906 L 6.84375 -4.128906 L 6.84375 -8.023438 L 14.746094 -8.023438 C 15.425781 -8.023438 15.601562 -8.347656 15.601562 -8.878906 L 15.601562 -11.179688 C 15.601562 -11.707031 15.425781 -12.035156 14.746094 -12.035156 L 6.84375 -12.035156 L 6.84375 -15.246094 L 15.75 -15.246094 C 16.429688 -15.246094 16.605469 -15.574219 16.605469 -16.101562 L 16.605469 -18.550781 C 16.605469 -19.082031 16.429688 -19.40625 15.75 -19.40625 L 3.039062 -19.40625 C 2.359375 -19.40625 2.183594 -19.082031 2.183594 -18.550781 L 2.183594 -0.855469 C 2.183594 -0.324219 2.359375 0 3.039062 0 L 16.25 0 C 16.929688 0 17.105469 -0.324219 17.105469 -0.855469 L 17.105469 -3.273438 C 17.105469 -3.804688 16.929688 -4.128906 16.25 -4.128906 Z M 16.25 -4.128906 "/></g></g></g><g fill="rgb(0%, 0%, 0%)" fill-opacity="1"><g transform="translate(72.425261, 189.207772)"><g><path d="M 16.605469 -0.914062 L 11.382812 -9.9375 L 16.691406 -18.582031 C 16.898438 -18.90625 16.753906 -19.40625 16.25 -19.40625 L 12.800781 -19.40625 C 12.210938 -19.40625 12.003906 -19.171875 11.589844 -18.550781 L 8.671875 -13.804688 L 5.722656 -18.550781 C 5.339844 -19.171875 5.101562 -19.40625 4.542969 -19.40625 L 1.0625 -19.40625 C 0.558594 -19.40625 0.441406 -18.90625 0.621094 -18.582031 L 5.957031 -9.9375 L 0.707031 -0.914062 C 0.472656 -0.558594 0.621094 0 1.0625 0 L 4.425781 0 C 5.074219 0 5.339844 -0.0585938 5.722656 -0.824219 L 8.671875 -6.074219 L 11.589844 -0.824219 C 12.003906 -0.0585938 12.238281 0 12.886719 0 L 16.25 0 C 16.691406 0 16.839844 -0.558594 16.605469 -0.914062 Z M 16.605469 -0.914062 "/></g></g></g><g fill="rgb(0%, 0%, 0%)" fill-opacity="1"><g transform="translate(93.595869, 189.207772)"><g><path d="M 10.617188 -4.039062 L 8.757812 -4.039062 L 8.757812 -15.308594 L 10.527344 -15.308594 C 11.207031 -15.308594 11.382812 -15.632812 11.382812 -16.164062 L 11.382812 -18.550781 C 11.382812 -19.082031 11.207031 -19.40625 10.527344 -19.40625 L 2.328125 -19.40625 C 1.652344 -19.40625 1.476562 -19.082031 1.476562 -18.550781 L 1.476562 -16.164062 C 1.476562 -15.632812 1.652344 -15.308594 2.328125 -15.308594 L 4.128906 -15.308594 L 4.128906 -4.039062 L 2.269531 -4.039062 C 1.59375 -4.039062 1.414062 -3.714844 1.414062 -3.183594 L 1.414062 -0.855469 C 1.414062 -0.324219 1.59375 0 2.269531 0 L 10.617188 0 C 11.296875 0 11.472656 -0.324219 11.472656 -0.855469 L 11.472656 -3.183594 C 11.472656 -3.714844 11.296875 -4.039062 10.617188 -4.039062 Z M 10.617188 -4.039062 "/></g></g></g><g fill="rgb(0%, 0%, 0%)" fill-opacity="1"><g transform="translate(110.579927, 189.207772)"><g><path d="M 11.324219 -11.265625 C 10.144531 -11.738281 5.808594 -12.386719 5.808594 -14.1875 C 5.808594 -15.511719 7.433594 -15.898438 8.40625 -15.898438 C 9.289062 -15.898438 10.351562 -15.632812 10.914062 -15.101562 C 11.265625 -14.746094 11.414062 -14.511719 11.53125 -14.214844 C 11.679688 -13.832031 11.769531 -13.417969 12.328125 -13.417969 L 15.21875 -13.417969 C 15.898438 -13.417969 16.074219 -13.539062 16.074219 -14.246094 C 16.074219 -18.136719 11.972656 -19.847656 8.230469 -19.847656 C 4.542969 -19.703125 1.0625 -17.8125 1.0625 -13.980469 C 1.0625 -10.234375 3.804688 -9.054688 6.785156 -8.109375 C 9.289062 -7.3125 11.914062 -7.285156 11.914062 -5.632812 C 11.914062 -3.980469 10.617188 -3.628906 9.023438 -3.628906 C 7.933594 -3.628906 6.722656 -3.894531 6.132812 -4.601562 C 5.75 -5.042969 5.605469 -5.425781 5.574219 -5.808594 C 5.515625 -6.546875 5.191406 -6.636719 4.511719 -6.636719 L 1.652344 -6.636719 C 0.972656 -6.636719 0.796875 -6.488281 0.796875 -5.808594 C 0.796875 -1.679688 5.042969 0.441406 8.730469 0.441406 C 13.273438 0.441406 16.574219 -1.5625 16.574219 -5.75 C 16.574219 -9.761719 13.449219 -10.617188 11.324219 -11.265625 Z M 11.324219 -11.265625 "/></g></g></g><g fill="rgb(0%, 0%, 0%)" fill-opacity="1"><g transform="translate(132.310699, 189.207772)"><g><path d="M 15.308594 -19.40625 L 1.621094 -19.40625 C 0.945312 -19.40625 0.765625 -19.082031 0.765625 -18.550781 L 0.765625 -16.101562 C 0.765625 -15.574219 0.945312 -15.246094 1.621094 -15.246094 L 6.164062 -15.246094 L 6.164062 -0.855469 C 6.164062 -0.175781 6.488281 0 7.019531 0 L 9.9375 0 C 10.46875 0 10.792969 -0.175781 10.792969 -0.855469 L 10.792969 -15.246094 L 15.308594 -15.246094 C 15.984375 -15.246094 16.164062 -15.574219 16.164062 -16.101562 L 16.164062 -18.550781 C 16.164062 -19.082031 15.984375 -19.40625 15.308594 -19.40625 Z M 15.308594 -19.40625 "/></g></g></g><g fill="rgb(0%, 0%, 0%)" fill-opacity="1"><g transform="translate(153.12751, 189.207772)"><g><path d="M 10.617188 -4.039062 L 8.757812 -4.039062 L 8.757812 -15.308594 L 10.527344 -15.308594 C 11.207031 -15.308594 11.382812 -15.632812 11.382812 -16.164062 L 11.382812 -18.550781 C 11.382812 -19.082031 11.207031 -19.40625 10.527344 -19.40625 L 2.328125 -19.40625 C 1.652344 -19.40625 1.476562 -19.082031 1.476562 -18.550781 L 1.476562 -16.164062 C 1.476562 -15.632812 1.652344 -15.308594 2.328125 -15.308594 L 4.128906 -15.308594 L 4.128906 -4.039062 L 2.269531 -4.039062 C 1.59375 -4.039062 1.414062 -3.714844 1.414062 -3.183594 L 1.414062 -0.855469 C 1.414062 -0.324219 1.59375 0 2.269531 0 L 10.617188 0 C 11.296875 0 11.472656 -0.324219 11.472656 -0.855469 L 11.472656 -3.183594 C 11.472656 -3.714844 11.296875 -4.039062 10.617188 -4.039062 Z M 10.617188 -4.039062 "/></g></g></g><g fill="rgb(0%, 0%, 0%)" fill-opacity="1"><g transform="translate(170.111574, 189.207772)"><g><path d="M 9.644531 -19.40625 L 3.039062 -19.40625 C 2.359375 -19.40625 2.183594 -19.082031 2.183594 -18.550781 L 2.183594 -0.855469 C 2.183594 -0.324219 2.359375 0 3.039062 0 L 9.644531 0 C 13.152344 0 17.578125 -2.003906 17.578125 -6.636719 L 17.578125 -12.769531 C 17.578125 -17.371094 13.152344 -19.40625 9.644531 -19.40625 Z M 12.949219 -12.359375 L 12.949219 -7.050781 C 12.949219 -5.160156 11.589844 -4.097656 9.644531 -4.097656 L 6.8125 -4.097656 L 6.8125 -15.308594 L 9.644531 -15.308594 C 11.589844 -15.308594 12.949219 -14.214844 12.949219 -12.359375 Z M 12.949219 -12.359375 "/></g></g></g><g fill="rgb(0%, 0%, 0%)" fill-opacity="1"><g transform="translate(193.169074, 189.207772)"><g><path d="M 17.429688 -6.222656 L 17.429688 -13.183594 C 17.429688 -17.84375 13.007812 -19.847656 9.496094 -19.847656 C 5.988281 -19.847656 1.621094 -17.84375 1.621094 -13.183594 L 1.621094 -6.222656 C 1.621094 -1.5625 5.988281 0.441406 9.496094 0.441406 C 13.007812 0.441406 17.429688 -1.5625 17.429688 -6.222656 Z M 12.800781 -12.769531 L 12.800781 -6.636719 C 12.800781 -4.75 11.445312 -3.65625 9.496094 -3.65625 C 7.578125 -3.65625 6.222656 -4.75 6.222656 -6.636719 L 6.222656 -12.769531 C 6.222656 -14.65625 7.578125 -15.75 9.496094 -15.75 C 11.445312 -15.75 12.800781 -14.65625 12.800781 -12.769531 Z M 12.800781 -12.769531 "/></g></g></g><g fill="rgb(0%, 0%, 0%)" fill-opacity="1"><g transform="translate(216.079158, 189.207772)"><g/></g></g><g fill="rgb(0%, 0%, 0%)" fill-opacity="1"><g transform="translate(227.962735, 189.207772)"><g><path d="M 17.667969 -19.40625 L 14.539062 -19.40625 C 13.742188 -19.40625 13.539062 -19.171875 13.300781 -18.460938 L 9.320312 -6.253906 L 5.308594 -18.460938 C 5.074219 -19.171875 4.867188 -19.40625 4.097656 -19.40625 L 0.824219 -19.40625 C 0.265625 -19.40625 0.148438 -18.933594 0.296875 -18.550781 L 6.636719 -0.886719 C 6.988281 -0.117188 7.195312 0 7.84375 0 L 10.675781 0 C 11.324219 0 11.53125 -0.117188 11.886719 -0.886719 L 18.199219 -18.550781 C 18.34375 -18.933594 18.226562 -19.40625 17.667969 -19.40625 Z M 17.667969 -19.40625 "/></g></g></g><g fill="rgb(0%, 0%, 0%)" fill-opacity="1"><g transform="translate(250.607458, 189.207772)"><g><path d="M 10.617188 -4.039062 L 8.757812 -4.039062 L 8.757812 -15.308594 L 10.527344 -15.308594 C 11.207031 -15.308594 11.382812 -15.632812 11.382812 -16.164062 L 11.382812 -18.550781 C 11.382812 -19.082031 11.207031 -19.40625 10.527344 -19.40625 L 2.328125 -19.40625 C 1.652344 -19.40625 1.476562 -19.082031 1.476562 -18.550781 L 1.476562 -16.164062 C 1.476562 -15.632812 1.652344 -15.308594 2.328125 -15.308594 L 4.128906 -15.308594 L 4.128906 -4.039062 L 2.269531 -4.039062 C 1.59375 -4.039062 1.414062 -3.714844 1.414062 -3.183594 L 1.414062 -0.855469 C 1.414062 -0.324219 1.59375 0 2.269531 0 L 10.617188 0 C 11.296875 0 11.472656 -0.324219 11.472656 -0.855469 L 11.472656 -3.183594 C 11.472656 -3.714844 11.296875 -4.039062 10.617188 -4.039062 Z M 10.617188 -4.039062 "/></g></g></g><g fill="rgb(0%, 0%, 0%)" fill-opacity="1"><g transform="translate(267.591522, 189.207772)"><g><path d="M 9.644531 -19.40625 L 3.039062 -19.40625 C 2.359375 -19.40625 2.183594 -19.082031 2.183594 -18.550781 L 2.183594 -0.855469 C 2.183594 -0.324219 2.359375 0 3.039062 0 L 9.644531 0 C 13.152344 0 17.578125 -2.003906 17.578125 -6.636719 L 17.578125 -12.769531 C 17.578125 -17.371094 13.152344 -19.40625 9.644531 -19.40625 Z M 12.949219 -12.359375 L 12.949219 -7.050781 C 12.949219 -5.160156 11.589844 -4.097656 9.644531 -4.097656 L 6.8125 -4.097656 L 6.8125 -15.308594 L 9.644531 -15.308594 C 11.589844 -15.308594 12.949219 -14.214844 12.949219 -12.359375 Z M 12.949219 -12.359375 "/></g></g></g><g fill="rgb(0%, 0%, 0%)" fill-opacity="1"><g transform="translate(290.649022, 189.207772)"><g><path d="M 18.875 -0.824219 L 12.359375 -18.492188 C 12.09375 -19.113281 11.796875 -19.40625 11.148438 -19.40625 L 8.316406 -19.40625 C 7.667969 -19.40625 7.34375 -19.113281 7.109375 -18.492188 L 0.558594 -0.824219 C 0.414062 -0.472656 0.414062 0 1.0625 0 L 4.160156 0 C 4.808594 0 5.042969 -0.175781 5.277344 -0.886719 L 6.105469 -3.214844 L 13.332031 -3.214844 L 14.15625 -0.886719 C 14.394531 -0.175781 14.628906 0 15.277344 0 L 18.375 0 C 19.023438 0 19.023438 -0.472656 18.875 -0.824219 Z M 9.734375 -13.863281 L 11.945312 -7.34375 L 7.519531 -7.34375 Z M 9.734375 -13.863281 "/></g></g></g><g fill="rgb(0%, 0%, 0%)" fill-opacity="1"><g transform="translate(86.655705, 230.288689)"><g><path d="M 16.25 -4.128906 L 6.84375 -4.128906 L 6.84375 -8.023438 L 14.746094 -8.023438 C 15.425781 -8.023438 15.601562 -8.347656 15.601562 -8.878906 L 15.601562 -11.179688 C 15.601562 -11.707031 15.425781 -12.035156 14.746094 -12.035156 L 6.84375 -12.035156 L 6.84375 -15.246094 L 15.75 -15.246094 C 16.429688 -15.246094 16.605469 -15.574219 16.605469 -16.101562 L 16.605469 -18.550781 C 16.605469 -19.082031 16.429688 -19.40625 15.75 -19.40625 L 3.039062 -19.40625 C 2.359375 -19.40625 2.183594 -19.082031 2.183594 -18.550781 L 2.183594 -0.855469 C 2.183594 -0.324219 2.359375 0 3.039062 0 L 16.25 0 C 16.929688 0 17.105469 -0.324219 17.105469 -0.855469 L 17.105469 -3.273438 C 17.105469 -3.804688 16.929688 -4.128906 16.25 -4.128906 Z M 16.25 -4.128906 "/></g></g></g><g fill="rgb(0%, 0%, 0%)" fill-opacity="1"><g transform="translate(109.035086, 230.288689)"><g><path d="M 19.582031 -19.4375 L 16.753906 -19.4375 C 15.777344 -19.4375 15.632812 -18.789062 15.425781 -18.433594 L 11.355469 -11.179688 L 7.3125 -18.433594 C 7.078125 -18.789062 6.960938 -19.4375 5.957031 -19.4375 L 3.039062 -19.4375 C 2.359375 -19.4375 2.183594 -19.113281 2.183594 -18.582031 L 2.183594 -0.855469 C 2.183594 -0.175781 2.507812 0 3.039062 0 L 5.957031 0 C 6.488281 0 6.8125 -0.175781 6.8125 -0.855469 L 6.8125 -10.855469 L 9.792969 -5.691406 C 9.9375 -5.457031 10.175781 -5.074219 10.617188 -5.074219 L 12.09375 -5.074219 C 12.535156 -5.074219 12.800781 -5.457031 12.949219 -5.691406 L 15.898438 -10.855469 L 15.898438 -0.855469 C 15.898438 -0.175781 16.222656 0 16.753906 0 L 19.582031 0 C 20.113281 0 20.4375 -0.175781 20.4375 -0.855469 L 20.4375 -18.582031 C 20.4375 -19.113281 20.261719 -19.4375 19.582031 -19.4375 Z M 19.582031 -19.4375 "/></g></g></g><g fill="rgb(0%, 0%, 0%)" fill-opacity="1"><g transform="translate(135.542048, 230.288689)"><g/></g></g><g fill="rgb(0%, 0%, 0%)" fill-opacity="1"><g transform="translate(147.425619, 230.288689)"><g><path d="M 19.582031 -19.4375 L 16.753906 -19.4375 C 15.777344 -19.4375 15.632812 -18.789062 15.425781 -18.433594 L 11.355469 -11.179688 L 7.3125 -18.433594 C 7.078125 -18.789062 6.960938 -19.4375 5.957031 -19.4375 L 3.039062 -19.4375 C 2.359375 -19.4375 2.183594 -19.113281 2.183594 -18.582031 L 2.183594 -0.855469 C 2.183594 -0.175781 2.507812 0 3.039062 0 L 5.957031 0 C 6.488281 0 6.8125 -0.175781 6.8125 -0.855469 L 6.8125 -10.855469 L 9.792969 -5.691406 C 9.9375 -5.457031 10.175781 -5.074219 10.617188 -5.074219 L 12.09375 -5.074219 C 12.535156 -5.074219 12.800781 -5.457031 12.949219 -5.691406 L 15.898438 -10.855469 L 15.898438 -0.855469 C 15.898438 -0.175781 16.222656 0 16.753906 0 L 19.582031 0 C 20.113281 0 20.4375 -0.175781 20.4375 -0.855469 L 20.4375 -18.582031 C 20.4375 -19.113281 20.261719 -19.4375 19.582031 -19.4375 Z M 19.582031 -19.4375 "/></g></g></g><g fill="rgb(0%, 0%, 0%)" fill-opacity="1"><g transform="translate(173.932583, 230.288689)"><g><path d="M 18.875 -0.824219 L 12.359375 -18.492188 C 12.09375 -19.113281 11.796875 -19.40625 11.148438 -19.40625 L 8.316406 -19.40625 C 7.667969 -19.40625 7.34375 -19.113281 7.109375 -18.492188 L 0.558594 -0.824219 C 0.414062 -0.472656 0.414062 0 1.0625 0 L 4.160156 0 C 4.808594 0 5.042969 -0.175781 5.277344 -0.886719 L 6.105469 -3.214844 L 13.332031 -3.214844 L 14.15625 -0.886719 C 14.394531 -0.175781 14.628906 0 15.277344 0 L 18.375 0 C 19.023438 0 19.023438 -0.472656 18.875 -0.824219 Z M 9.734375 -13.863281 L 11.945312 -7.34375 L 7.519531 -7.34375 Z M 9.734375 -13.863281 "/></g></g></g><g fill="rgb(0%, 0%, 0%)" fill-opacity="1"><g transform="translate(197.137501, 230.288689)"><g><path d="M 18.078125 -0.945312 L 13.921875 -6.988281 C 15.75 -7.609375 18.019531 -9.761719 18.019531 -12.859375 C 18.019531 -14.746094 17.402344 -16.429688 16.308594 -17.488281 C 15.070312 -18.726562 13.65625 -19.378906 10.441406 -19.378906 L 3.007812 -19.378906 C 2.328125 -19.378906 2.183594 -19.050781 2.183594 -18.523438 L 2.183594 -0.855469 C 2.183594 -0.175781 2.476562 0 3.007812 0 L 5.929688 0 C 6.460938 0 6.785156 -0.175781 6.785156 -0.855469 L 6.785156 -15.246094 L 10.707031 -15.246094 C 12.238281 -15.246094 13.417969 -14.273438 13.417969 -12.742188 C 13.417969 -11.355469 12.0625 -10.351562 10.617188 -10.351562 L 10.027344 -10.351562 C 9.347656 -10.351562 9.171875 -10.027344 9.171875 -9.496094 L 9.171875 -7.136719 C 9.171875 -6.3125 9.230469 -5.988281 9.496094 -5.632812 L 12.683594 -0.886719 C 13.09375 -0.265625 13.449219 0 14.15625 0 L 17.636719 0 C 18.199219 0 18.34375 -0.53125 18.078125 -0.945312 Z M 18.078125 -0.945312 "/></g></g></g><g fill="rgb(0%, 0%, 0%)" fill-opacity="1"><g transform="translate(220.666713, 230.288689)"><g><path d="M 15.308594 -19.40625 L 1.621094 -19.40625 C 0.945312 -19.40625 0.765625 -19.082031 0.765625 -18.550781 L 0.765625 -16.101562 C 0.765625 -15.574219 0.945312 -15.246094 1.621094 -15.246094 L 6.164062 -15.246094 L 6.164062 -0.855469 C 6.164062 -0.175781 6.488281 0 7.019531 0 L 9.9375 0 C 10.46875 0 10.792969 -0.175781 10.792969 -0.855469 L 10.792969 -15.246094 L 15.308594 -15.246094 C 15.984375 -15.246094 16.164062 -15.574219 16.164062 -16.101562 L 16.164062 -18.550781 C 16.164062 -19.082031 15.984375 -19.40625 15.308594 -19.40625 Z M 15.308594 -19.40625 "/></g></g></g><g fill="rgb(0%, 0%, 0%)" fill-opacity="1"><g transform="translate(241.483523, 230.288689)"><g><path d="M 16.25 -4.128906 L 6.84375 -4.128906 L 6.84375 -8.023438 L 14.746094 -8.023438 C 15.425781 -8.023438 15.601562 -8.347656 15.601562 -8.878906 L 15.601562 -11.179688 C 15.601562 -11.707031 15.425781 -12.035156 14.746094 -12.035156 L 6.84375 -12.035156 L 6.84375 -15.246094 L 15.75 -15.246094 C 16.429688 -15.246094 16.605469 -15.574219 16.605469 -16.101562 L 16.605469 -18.550781 C 16.605469 -19.082031 16.429688 -19.40625 15.75 -19.40625 L 3.039062 -19.40625 C 2.359375 -19.40625 2.183594 -19.082031 2.183594 -18.550781 L 2.183594 -0.855469 C 2.183594 -0.324219 2.359375 0 3.039062 0 L 16.25 0 C 16.929688 0 17.105469 -0.324219 17.105469 -0.855469 L 17.105469 -3.273438 C 17.105469 -3.804688 16.929688 -4.128906 16.25 -4.128906 Z M 16.25 -4.128906 "/></g></g></g><g fill="rgb(0%, 0%, 0%)" fill-opacity="1"><g transform="translate(263.862907, 230.288689)"><g><path d="M 4.160156 -6.105469 L 5.605469 -6.105469 C 6.28125 -6.105469 6.339844 -6.195312 6.429688 -6.960938 C 7.699219 -18.609375 7.726562 -18.699219 7.726562 -18.789062 C 7.726562 -19.316406 7.460938 -19.40625 6.84375 -19.40625 L 2.890625 -19.40625 C 2.300781 -19.40625 2.035156 -19.289062 2.035156 -18.789062 C 2.035156 -18.699219 2.066406 -18.609375 3.304688 -6.960938 C 3.390625 -6.222656 3.449219 -6.105469 4.160156 -6.105469 Z M 6.519531 -4.984375 L 3.246094 -4.984375 C 2.714844 -4.984375 2.390625 -4.808594 2.390625 -4.128906 L 2.390625 -0.855469 C 2.390625 -0.175781 2.714844 0 3.246094 0 L 6.519531 0 C 7.050781 0 7.375 -0.175781 7.375 -0.855469 L 7.375 -4.128906 C 7.375 -4.808594 7.050781 -4.984375 6.519531 -4.984375 Z M 6.519531 -4.984375 "/></g></g></g></svg>