<svg xmlns="http://www.w3.org/2000/svg" xmlns:xlink="http://www.w3.org/1999/xlink" width="800" zoomAndPan="magnify" viewBox="0 0 600 599.999999" height="800" preserveAspectRatio="xMidYMid meet" version="1.0"><defs><g/></defs><path fill="rgb(49.798584%, 100%, 66.668701%)" d="M 300.039062 190.628906 C 239.613281 190.628906 190.628906 239.613281 190.628906 300.039062 C 190.628906 360.460938 239.613281 409.445312 300.039062 409.445312 C 360.460938 409.445312 409.445312 360.460938 409.445312 300.039062 C 409.445312 239.613281 360.460938 190.628906 300.039062 190.628906 " fill-opacity="1" fill-rule="nonzero"/><g fill="rgb(0%, 0%, 0%)" fill-opacity="1"><g transform="translate(232.684666, 280.633384)"><g><path d="M 8.671875 -12.078125 L 3.242188 -12.078125 C 2.8125 -12.078125 2.722656 -11.882812 2.722656 -11.558594 L 2.722656 -10.070312 C 2.722656 -9.75 2.8125 -9.550781 3.242188 -9.550781 L 6.378906 -9.550781 L 6.378906 -4.246094 C 6.378906 -3.136719 5.933594 -2.492188 4.75 -2.492188 C 3.941406 -2.492188 3.367188 -2.921875 3.316406 -3.976562 C 3.316406 -4.066406 3.28125 -4.355469 2.867188 -4.355469 L 0.96875 -4.355469 C 0.554688 -4.355469 0.539062 -3.960938 0.539062 -3.871094 C 0.539062 -1.34375 2.367188 0 4.75 0 C 6.882812 0 9.191406 -1.058594 9.191406 -3.851562 L 9.191406 -11.558594 C 9.191406 -11.882812 9.085938 -12.078125 8.671875 -12.078125 Z M 8.671875 -12.078125 "/></g></g></g><g fill="rgb(0%, 0%, 0%)" fill-opacity="1"><g transform="translate(245.440779, 280.633384)"><g><path d="M 5.089844 -12.832031 L 6.84375 -12.832031 C 7.292969 -12.832031 7.4375 -13.082031 7.6875 -13.332031 L 9.480469 -15.269531 C 9.640625 -15.429688 9.585938 -15.769531 9.140625 -15.769531 L 6.863281 -15.769531 C 6.46875 -15.769531 6.324219 -15.714844 6.058594 -15.269531 L 4.855469 -13.332031 C 4.75 -13.171875 4.75 -12.832031 5.089844 -12.832031 Z M 11.46875 -0.5 L 7.507812 -11.234375 C 7.347656 -11.613281 7.167969 -11.792969 6.773438 -11.792969 L 5.054688 -11.792969 C 4.660156 -11.792969 4.460938 -11.613281 4.320312 -11.234375 L 0.339844 -0.5 C 0.25 -0.285156 0.25 0 0.644531 0 L 2.527344 0 C 2.921875 0 3.0625 -0.109375 3.207031 -0.539062 L 3.710938 -1.953125 L 8.101562 -1.953125 L 8.601562 -0.539062 C 8.746094 -0.109375 8.886719 0 9.28125 0 L 11.164062 0 C 11.558594 0 11.558594 -0.285156 11.46875 -0.5 Z M 5.914062 -8.421875 L 7.257812 -4.460938 L 4.570312 -4.460938 Z M 5.914062 -8.421875 "/></g></g></g><g fill="rgb(0%, 0%, 0%)" fill-opacity="1"><g transform="translate(259.540456, 280.633384)"><g/></g></g><g fill="rgb(0%, 0%, 0%)" fill-opacity="1"><g transform="translate(266.761105, 280.633384)"><g><path d="M 5.878906 -11.792969 L 1.847656 -11.792969 C 1.433594 -11.792969 1.324219 -11.59375 1.324219 -11.273438 L 1.324219 -0.519531 C 1.324219 -0.109375 1.523438 0 1.847656 0 L 3.621094 0 C 3.941406 0 4.140625 -0.109375 4.140625 -0.519531 L 4.140625 -3.496094 L 5.859375 -3.496094 C 8.925781 -3.496094 10.574219 -5.144531 10.574219 -7.632812 C 10.574219 -10.105469 8.960938 -11.792969 5.878906 -11.792969 Z M 5.859375 -5.914062 L 4.140625 -5.914062 L 4.140625 -9.265625 L 5.859375 -9.265625 C 7.257812 -9.265625 7.867188 -8.511719 7.867188 -7.582031 C 7.867188 -6.683594 7.257812 -5.914062 5.859375 -5.914062 Z M 5.859375 -5.914062 "/></g></g></g><g fill="rgb(0%, 0%, 0%)" fill-opacity="1"><g transform="translate(280.377092, 280.633384)"><g><path d="M 10.589844 -3.78125 L 10.589844 -8.011719 C 10.589844 -10.84375 7.902344 -12.0625 5.769531 -12.0625 C 3.636719 -12.0625 0.984375 -10.84375 0.984375 -8.011719 L 0.984375 -3.78125 C 0.984375 -0.949219 3.636719 0.269531 5.769531 0.269531 C 7.902344 0.269531 10.589844 -0.949219 10.589844 -3.78125 Z M 7.777344 -7.757812 L 7.777344 -4.03125 C 7.777344 -2.886719 6.953125 -2.222656 5.769531 -2.222656 C 4.605469 -2.222656 3.78125 -2.886719 3.78125 -4.03125 L 3.78125 -7.757812 C 3.78125 -8.90625 4.605469 -9.570312 5.769531 -9.570312 C 6.953125 -9.570312 7.777344 -8.90625 7.777344 -7.757812 Z M 7.777344 -7.757812 "/></g></g></g><g fill="rgb(0%, 0%, 0%)" fill-opacity="1"><g transform="translate(294.297626, 280.633384)"><g><path d="M 5.859375 -11.792969 L 1.847656 -11.792969 C 1.433594 -11.792969 1.324219 -11.59375 1.324219 -11.273438 L 1.324219 -0.519531 C 1.324219 -0.195312 1.433594 0 1.847656 0 L 5.859375 0 C 7.992188 0 10.679688 -1.21875 10.679688 -4.03125 L 10.679688 -7.757812 C 10.679688 -10.554688 7.992188 -11.792969 5.859375 -11.792969 Z M 7.867188 -7.507812 L 7.867188 -4.28125 C 7.867188 -3.136719 7.042969 -2.492188 5.859375 -2.492188 L 4.140625 -2.492188 L 4.140625 -9.300781 L 5.859375 -9.300781 C 7.042969 -9.300781 7.867188 -8.636719 7.867188 -7.507812 Z M 7.867188 -7.507812 "/></g></g></g><g fill="rgb(0%, 0%, 0%)" fill-opacity="1"><g transform="translate(308.307732, 280.633384)"><g><path d="M 9.875 -2.507812 L 4.15625 -2.507812 L 4.15625 -4.875 L 8.960938 -4.875 C 9.371094 -4.875 9.480469 -5.070312 9.480469 -5.394531 L 9.480469 -6.792969 C 9.480469 -7.113281 9.371094 -7.3125 8.960938 -7.3125 L 4.15625 -7.3125 L 4.15625 -9.265625 L 9.570312 -9.265625 C 9.980469 -9.265625 10.089844 -9.460938 10.089844 -9.785156 L 10.089844 -11.273438 C 10.089844 -11.59375 9.980469 -11.792969 9.570312 -11.792969 L 1.847656 -11.792969 C 1.433594 -11.792969 1.324219 -11.59375 1.324219 -11.273438 L 1.324219 -0.519531 C 1.324219 -0.195312 1.433594 0 1.847656 0 L 9.875 0 C 10.285156 0 10.394531 -0.195312 10.394531 -0.519531 L 10.394531 -1.988281 C 10.394531 -2.3125 10.285156 -2.507812 9.875 -2.507812 Z M 9.875 -2.507812 "/></g></g></g><g fill="rgb(0%, 0%, 0%)" fill-opacity="1"><g transform="translate(321.905804, 280.633384)"><g/></g></g><g fill="rgb(0%, 0%, 0%)" fill-opacity="1"><g transform="translate(329.126456, 280.633384)"><g><path d="M 9.300781 -11.792969 L 0.984375 -11.792969 C 0.574219 -11.792969 0.464844 -11.59375 0.464844 -11.273438 L 0.464844 -9.785156 C 0.464844 -9.460938 0.574219 -9.265625 0.984375 -9.265625 L 3.746094 -9.265625 L 3.746094 -0.519531 C 3.746094 -0.109375 3.941406 0 4.265625 0 L 6.039062 0 C 6.363281 0 6.558594 -0.109375 6.558594 -0.519531 L 6.558594 -9.265625 L 9.300781 -9.265625 C 9.714844 -9.265625 9.820312 -9.460938 9.820312 -9.785156 L 9.820312 -11.273438 C 9.820312 -11.59375 9.714844 -11.792969 9.300781 -11.792969 Z M 9.300781 -11.792969 "/></g></g></g><g fill="rgb(0%, 0%, 0%)" fill-opacity="1"><g transform="translate(341.775084, 280.633384)"><g><path d="M 9.875 -2.507812 L 4.15625 -2.507812 L 4.15625 -4.875 L 8.960938 -4.875 C 9.371094 -4.875 9.480469 -5.070312 9.480469 -5.394531 L 9.480469 -6.792969 C 9.480469 -7.113281 9.371094 -7.3125 8.960938 -7.3125 L 4.15625 -7.3125 L 4.15625 -9.265625 L 9.570312 -9.265625 C 9.980469 -9.265625 10.089844 -9.460938 10.089844 -9.785156 L 10.089844 -11.273438 C 10.089844 -11.59375 9.980469 -11.792969 9.570312 -11.792969 L 1.847656 -11.792969 C 1.433594 -11.792969 1.324219 -11.59375 1.324219 -11.273438 L 1.324219 -0.519531 C 1.324219 -0.195312 1.433594 0 1.847656 0 L 9.875 0 C 10.285156 0 10.394531 -0.195312 10.394531 -0.519531 L 10.394531 -1.988281 C 10.394531 -2.3125 10.285156 -2.507812 9.875 -2.507812 Z M 9.875 -2.507812 "/></g></g></g><g fill="rgb(0%, 0%, 0%)" fill-opacity="1"><g transform="translate(355.373149, 280.633384)"><g><path d="M 10.984375 -0.574219 L 8.457031 -4.246094 C 9.570312 -4.625 10.949219 -5.933594 10.949219 -7.8125 C 10.949219 -8.960938 10.574219 -9.980469 9.910156 -10.625 C 9.15625 -11.378906 8.296875 -11.773438 6.34375 -11.773438 L 1.828125 -11.773438 C 1.414062 -11.773438 1.324219 -11.578125 1.324219 -11.253906 L 1.324219 -0.519531 C 1.324219 -0.109375 1.503906 0 1.828125 0 L 3.601562 0 C 3.925781 0 4.121094 -0.109375 4.121094 -0.519531 L 4.121094 -9.265625 L 6.503906 -9.265625 C 7.4375 -9.265625 8.152344 -8.671875 8.152344 -7.742188 C 8.152344 -6.898438 7.328125 -6.289062 6.453125 -6.289062 L 6.09375 -6.289062 C 5.679688 -6.289062 5.574219 -6.09375 5.574219 -5.769531 L 5.574219 -4.335938 C 5.574219 -3.835938 5.609375 -3.636719 5.769531 -3.421875 L 7.707031 -0.539062 C 7.957031 -0.160156 8.171875 0 8.601562 0 L 10.714844 0 C 11.058594 0 11.148438 -0.324219 10.984375 -0.574219 Z M 10.984375 -0.574219 "/></g></g></g><g fill="rgb(0%, 0%, 0%)" fill-opacity="1"><g transform="translate(221.037795, 305.594807)"><g><path d="M 9.875 -2.507812 L 4.15625 -2.507812 L 4.15625 -4.875 L 8.960938 -4.875 C 9.371094 -4.875 9.480469 -5.070312 9.480469 -5.394531 L 9.480469 -6.792969 C 9.480469 -7.113281 9.371094 -7.3125 8.960938 -7.3125 L 4.15625 -7.3125 L 4.15625 -9.265625 L 9.570312 -9.265625 C 9.980469 -9.265625 10.089844 -9.460938 10.089844 -9.785156 L 10.089844 -11.273438 C 10.089844 -11.59375 9.980469 -11.792969 9.570312 -11.792969 L 1.847656 -11.792969 C 1.433594 -11.792969 1.324219 -11.59375 1.324219 -11.273438 L 1.324219 -0.519531 C 1.324219 -0.195312 1.433594 0 1.847656 0 L 9.875 0 C 10.285156 0 10.394531 -0.195312 10.394531 -0.519531 L 10.394531 -1.988281 C 10.394531 -2.3125 10.285156 -2.507812 9.875 -2.507812 Z M 9.875 -2.507812 "/></g></g></g><g fill="rgb(0%, 0%, 0%)" fill-opacity="1"><g transform="translate(234.635865, 305.594807)"><g><path d="M 10.089844 -0.554688 L 6.917969 -6.039062 L 10.144531 -11.289062 C 10.269531 -11.488281 10.179688 -11.792969 9.875 -11.792969 L 7.777344 -11.792969 C 7.417969 -11.792969 7.292969 -11.648438 7.042969 -11.273438 L 5.269531 -8.386719 L 3.476562 -11.273438 C 3.242188 -11.648438 3.101562 -11.792969 2.761719 -11.792969 L 0.644531 -11.792969 C 0.339844 -11.792969 0.269531 -11.488281 0.375 -11.289062 L 3.621094 -6.039062 L 0.429688 -0.554688 C 0.285156 -0.339844 0.375 0 0.644531 0 L 2.6875 0 C 3.082031 0 3.242188 -0.0351562 3.476562 -0.5 L 5.269531 -3.691406 L 7.042969 -0.5 C 7.292969 -0.0351562 7.4375 0 7.832031 0 L 9.875 0 C 10.144531 0 10.234375 -0.339844 10.089844 -0.554688 Z M 10.089844 -0.554688 "/></g></g></g><g fill="rgb(0%, 0%, 0%)" fill-opacity="1"><g transform="translate(247.499466, 305.594807)"><g><path d="M 6.453125 -2.457031 L 5.324219 -2.457031 L 5.324219 -9.300781 L 6.398438 -9.300781 C 6.808594 -9.300781 6.917969 -9.496094 6.917969 -9.820312 L 6.917969 -11.273438 C 6.917969 -11.59375 6.808594 -11.792969 6.398438 -11.792969 L 1.414062 -11.792969 C 1.003906 -11.792969 0.894531 -11.59375 0.894531 -11.273438 L 0.894531 -9.820312 C 0.894531 -9.496094 1.003906 -9.300781 1.414062 -9.300781 L 2.507812 -9.300781 L 2.507812 -2.457031 L 1.378906 -2.457031 C 0.96875 -2.457031 0.859375 -2.257812 0.859375 -1.933594 L 0.859375 -0.519531 C 0.859375 -0.195312 0.96875 0 1.378906 0 L 6.453125 0 C 6.863281 0 6.972656 -0.195312 6.972656 -0.519531 L 6.972656 -1.933594 C 6.972656 -2.257812 6.863281 -2.457031 6.453125 -2.457031 Z M 6.453125 -2.457031 "/></g></g></g><g fill="rgb(0%, 0%, 0%)" fill-opacity="1"><g transform="translate(257.819252, 305.594807)"><g><path d="M 6.882812 -6.84375 C 6.164062 -7.132812 3.53125 -7.527344 3.53125 -8.621094 C 3.53125 -9.425781 4.515625 -9.660156 5.105469 -9.660156 C 5.644531 -9.660156 6.289062 -9.496094 6.628906 -9.175781 C 6.84375 -8.960938 6.933594 -8.816406 7.007812 -8.636719 C 7.097656 -8.40625 7.148438 -8.152344 7.492188 -8.152344 L 9.246094 -8.152344 C 9.660156 -8.152344 9.765625 -8.226562 9.765625 -8.65625 C 9.765625 -11.019531 7.277344 -12.0625 5 -12.0625 C 2.761719 -11.972656 0.644531 -10.824219 0.644531 -8.496094 C 0.644531 -6.21875 2.3125 -5.5 4.121094 -4.929688 C 5.644531 -4.445312 7.238281 -4.425781 7.238281 -3.421875 C 7.238281 -2.417969 6.453125 -2.203125 5.484375 -2.203125 C 4.820312 -2.203125 4.085938 -2.367188 3.726562 -2.796875 C 3.496094 -3.0625 3.40625 -3.296875 3.386719 -3.53125 C 3.351562 -3.976562 3.152344 -4.03125 2.742188 -4.03125 L 1.003906 -4.03125 C 0.589844 -4.03125 0.484375 -3.941406 0.484375 -3.53125 C 0.484375 -1.019531 3.0625 0.269531 5.304688 0.269531 C 8.0625 0.269531 10.070312 -0.949219 10.070312 -3.496094 C 10.070312 -5.933594 8.171875 -6.453125 6.882812 -6.84375 Z M 6.882812 -6.84375 "/></g></g></g><g fill="rgb(0%, 0%, 0%)" fill-opacity="1"><g transform="translate(271.023217, 305.594807)"><g><path d="M 9.300781 -11.792969 L 0.984375 -11.792969 C 0.574219 -11.792969 0.464844 -11.59375 0.464844 -11.273438 L 0.464844 -9.785156 C 0.464844 -9.460938 0.574219 -9.265625 0.984375 -9.265625 L 3.746094 -9.265625 L 3.746094 -0.519531 C 3.746094 -0.109375 3.941406 0 4.265625 0 L 6.039062 0 C 6.363281 0 6.558594 -0.109375 6.558594 -0.519531 L 6.558594 -9.265625 L 9.300781 -9.265625 C 9.714844 -9.265625 9.820312 -9.460938 9.820312 -9.785156 L 9.820312 -11.273438 C 9.820312 -11.59375 9.714844 -11.792969 9.300781 -11.792969 Z M 9.300781 -11.792969 "/></g></g></g><g fill="rgb(0%, 0%, 0%)" fill-opacity="1"><g transform="translate(283.671844, 305.594807)"><g><path d="M 6.453125 -2.457031 L 5.324219 -2.457031 L 5.324219 -9.300781 L 6.398438 -9.300781 C 6.808594 -9.300781 6.917969 -9.496094 6.917969 -9.820312 L 6.917969 -11.273438 C 6.917969 -11.59375 6.808594 -11.792969 6.398438 -11.792969 L 1.414062 -11.792969 C 1.003906 -11.792969 0.894531 -11.59375 0.894531 -11.273438 L 0.894531 -9.820312 C 0.894531 -9.496094 1.003906 -9.300781 1.414062 -9.300781 L 2.507812 -9.300781 L 2.507812 -2.457031 L 1.378906 -2.457031 C 0.96875 -2.457031 0.859375 -2.257812 0.859375 -1.933594 L 0.859375 -0.519531 C 0.859375 -0.195312 0.96875 0 1.378906 0 L 6.453125 0 C 6.863281 0 6.972656 -0.195312 6.972656 -0.519531 L 6.972656 -1.933594 C 6.972656 -2.257812 6.863281 -2.457031 6.453125 -2.457031 Z M 6.453125 -2.457031 "/></g></g></g><g fill="rgb(0%, 0%, 0%)" fill-opacity="1"><g transform="translate(293.991634, 305.594807)"><g><path d="M 5.859375 -11.792969 L 1.847656 -11.792969 C 1.433594 -11.792969 1.324219 -11.59375 1.324219 -11.273438 L 1.324219 -0.519531 C 1.324219 -0.195312 1.433594 0 1.847656 0 L 5.859375 0 C 7.992188 0 10.679688 -1.21875 10.679688 -4.03125 L 10.679688 -7.757812 C 10.679688 -10.554688 7.992188 -11.792969 5.859375 -11.792969 Z M 7.867188 -7.507812 L 7.867188 -4.28125 C 7.867188 -3.136719 7.042969 -2.492188 5.859375 -2.492188 L 4.140625 -2.492188 L 4.140625 -9.300781 L 5.859375 -9.300781 C 7.042969 -9.300781 7.867188 -8.636719 7.867188 -7.507812 Z M 7.867188 -7.507812 "/></g></g></g><g fill="rgb(0%, 0%, 0%)" fill-opacity="1"><g transform="translate(308.00174, 305.594807)"><g><path d="M 10.589844 -3.78125 L 10.589844 -8.011719 C 10.589844 -10.84375 7.902344 -12.0625 5.769531 -12.0625 C 3.636719 -12.0625 0.984375 -10.84375 0.984375 -8.011719 L 0.984375 -3.78125 C 0.984375 -0.949219 3.636719 0.269531 5.769531 0.269531 C 7.902344 0.269531 10.589844 -0.949219 10.589844 -3.78125 Z M 7.777344 -7.757812 L 7.777344 -4.03125 C 7.777344 -2.886719 6.953125 -2.222656 5.769531 -2.222656 C 4.605469 -2.222656 3.78125 -2.886719 3.78125 -4.03125 L 3.78125 -7.757812 C 3.78125 -8.90625 4.605469 -9.570312 5.769531 -9.570312 C 6.953125 -9.570312 7.777344 -8.90625 7.777344 -7.757812 Z M 7.777344 -7.757812 "/></g></g></g><g fill="rgb(0%, 0%, 0%)" fill-opacity="1"><g transform="translate(321.922274, 305.594807)"><g/></g></g><g fill="rgb(0%, 0%, 0%)" fill-opacity="1"><g transform="translate(329.142926, 305.594807)"><g><path d="M 10.734375 -11.792969 L 8.835938 -11.792969 C 8.351562 -11.792969 8.226562 -11.648438 8.082031 -11.21875 L 5.664062 -3.800781 L 3.226562 -11.21875 C 3.082031 -11.648438 2.957031 -11.792969 2.492188 -11.792969 L 0.5 -11.792969 C 0.160156 -11.792969 0.0898438 -11.503906 0.179688 -11.273438 L 4.03125 -0.539062 C 4.246094 -0.0703125 4.371094 0 4.765625 0 L 6.488281 0 C 6.882812 0 7.007812 -0.0703125 7.222656 -0.539062 L 11.058594 -11.273438 C 11.148438 -11.503906 11.074219 -11.792969 10.734375 -11.792969 Z M 10.734375 -11.792969 "/></g></g></g><g fill="rgb(0%, 0%, 0%)" fill-opacity="1"><g transform="translate(342.902222, 305.594807)"><g><path d="M 6.453125 -2.457031 L 5.324219 -2.457031 L 5.324219 -9.300781 L 6.398438 -9.300781 C 6.808594 -9.300781 6.917969 -9.496094 6.917969 -9.820312 L 6.917969 -11.273438 C 6.917969 -11.59375 6.808594 -11.792969 6.398438 -11.792969 L 1.414062 -11.792969 C 1.003906 -11.792969 0.894531 -11.59375 0.894531 -11.273438 L 0.894531 -9.820312 C 0.894531 -9.496094 1.003906 -9.300781 1.414062 -9.300781 L 2.507812 -9.300781 L 2.507812 -2.457031 L 1.378906 -2.457031 C 0.96875 -2.457031 0.859375 -2.257812 0.859375 -1.933594 L 0.859375 -0.519531 C 0.859375 -0.195312 0.96875 0 1.378906 0 L 6.453125 0 C 6.863281 0 6.972656 -0.195312 6.972656 -0.519531 L 6.972656 -1.933594 C 6.972656 -2.257812 6.863281 -2.457031 6.453125 -2.457031 Z M 6.453125 -2.457031 "/></g></g></g><g fill="rgb(0%, 0%, 0%)" fill-opacity="1"><g transform="translate(353.222012, 305.594807)"><g><path d="M 5.859375 -11.792969 L 1.847656 -11.792969 C 1.433594 -11.792969 1.324219 -11.59375 1.324219 -11.273438 L 1.324219 -0.519531 C 1.324219 -0.195312 1.433594 0 1.847656 0 L 5.859375 0 C 7.992188 0 10.679688 -1.21875 10.679688 -4.03125 L 10.679688 -7.757812 C 10.679688 -10.554688 7.992188 -11.792969 5.859375 -11.792969 Z M 7.867188 -7.507812 L 7.867188 -4.28125 C 7.867188 -3.136719 7.042969 -2.492188 5.859375 -2.492188 L 4.140625 -2.492188 L 4.140625 -9.300781 L 5.859375 -9.300781 C 7.042969 -9.300781 7.867188 -8.636719 7.867188 -7.507812 Z M 7.867188 -7.507812 "/></g></g></g><g fill="rgb(0%, 0%, 0%)" fill-opacity="1"><g transform="translate(367.232118, 305.594807)"><g><path d="M 11.46875 -0.5 L 7.507812 -11.234375 C 7.347656 -11.613281 7.167969 -11.792969 6.773438 -11.792969 L 5.054688 -11.792969 C 4.660156 -11.792969 4.460938 -11.613281 4.320312 -11.234375 L 0.339844 -0.5 C 0.25 -0.285156 0.25 0 0.644531 0 L 2.527344 0 C 2.921875 0 3.0625 -0.109375 3.207031 -0.539062 L 3.710938 -1.953125 L 8.101562 -1.953125 L 8.601562 -0.539062 C 8.746094 -0.109375 8.886719 0 9.28125 0 L 11.164062 0 C 11.558594 0 11.558594 -0.285156 11.46875 -0.5 Z M 5.914062 -8.421875 L 7.257812 -4.460938 L 4.570312 -4.460938 Z M 5.914062 -8.421875 "/></g></g></g><g fill="rgb(0%, 0%, 0%)" fill-opacity="1"><g transform="translate(243.282511, 330.55623)"><g><path d="M 9.875 -2.507812 L 4.15625 -2.507812 L 4.15625 -4.875 L 8.960938 -4.875 C 9.371094 -4.875 9.480469 -5.070312 9.480469 -5.394531 L 9.480469 -6.792969 C 9.480469 -7.113281 9.371094 -7.3125 8.960938 -7.3125 L 4.15625 -7.3125 L 4.15625 -9.265625 L 9.570312 -9.265625 C 9.980469 -9.265625 10.089844 -9.460938 10.089844 -9.785156 L 10.089844 -11.273438 C 10.089844 -11.59375 9.980469 -11.792969 9.570312 -11.792969 L 1.847656 -11.792969 C 1.433594 -11.792969 1.324219 -11.59375 1.324219 -11.273438 L 1.324219 -0.519531 C 1.324219 -0.195312 1.433594 0 1.847656 0 L 9.875 0 C 10.285156 0 10.394531 -0.195312 10.394531 -0.519531 L 10.394531 -1.988281 C 10.394531 -2.3125 10.285156 -2.507812 9.875 -2.507812 Z M 9.875 -2.507812 "/></g></g></g><g fill="rgb(0%, 0%, 0%)" fill-opacity="1"><g transform="translate(256.880582, 330.55623)"><g><path d="M 11.898438 -11.808594 L 10.179688 -11.808594 C 9.585938 -11.808594 9.496094 -11.414062 9.371094 -11.199219 L 6.898438 -6.792969 L 4.445312 -11.199219 C 4.300781 -11.414062 4.230469 -11.808594 3.621094 -11.808594 L 1.847656 -11.808594 C 1.433594 -11.808594 1.324219 -11.613281 1.324219 -11.289062 L 1.324219 -0.519531 C 1.324219 -0.109375 1.523438 0 1.847656 0 L 3.621094 0 C 3.941406 0 4.140625 -0.109375 4.140625 -0.519531 L 4.140625 -6.59375 L 5.949219 -3.457031 C 6.039062 -3.316406 6.183594 -3.082031 6.453125 -3.082031 L 7.347656 -3.082031 C 7.617188 -3.082031 7.777344 -3.316406 7.867188 -3.457031 L 9.660156 -6.59375 L 9.660156 -0.519531 C 9.660156 -0.109375 9.855469 0 10.179688 0 L 11.898438 0 C 12.222656 0 12.417969 -0.109375 12.417969 -0.519531 L 12.417969 -11.289062 C 12.417969 -11.613281 12.3125 -11.808594 11.898438 -11.808594 Z M 11.898438 -11.808594 "/></g></g></g><g fill="rgb(0%, 0%, 0%)" fill-opacity="1"><g transform="translate(272.986636, 330.55623)"><g/></g></g><g fill="rgb(0%, 0%, 0%)" fill-opacity="1"><g transform="translate(280.207284, 330.55623)"><g><path d="M 11.898438 -11.808594 L 10.179688 -11.808594 C 9.585938 -11.808594 9.496094 -11.414062 9.371094 -11.199219 L 6.898438 -6.792969 L 4.445312 -11.199219 C 4.300781 -11.414062 4.230469 -11.808594 3.621094 -11.808594 L 1.847656 -11.808594 C 1.433594 -11.808594 1.324219 -11.613281 1.324219 -11.289062 L 1.324219 -0.519531 C 1.324219 -0.109375 1.523438 0 1.847656 0 L 3.621094 0 C 3.941406 0 4.140625 -0.109375 4.140625 -0.519531 L 4.140625 -6.59375 L 5.949219 -3.457031 C 6.039062 -3.316406 6.183594 -3.082031 6.453125 -3.082031 L 7.347656 -3.082031 C 7.617188 -3.082031 7.777344 -3.316406 7.867188 -3.457031 L 9.660156 -6.59375 L 9.660156 -0.519531 C 9.660156 -0.109375 9.855469 0 10.179688 0 L 11.898438 0 C 12.222656 0 12.417969 -0.109375 12.417969 -0.519531 L 12.417969 -11.289062 C 12.417969 -11.613281 12.3125 -11.808594 11.898438 -11.808594 Z M 11.898438 -11.808594 "/></g></g></g><g fill="rgb(0%, 0%, 0%)" fill-opacity="1"><g transform="translate(296.31334, 330.55623)"><g><path d="M 11.46875 -0.5 L 7.507812 -11.234375 C 7.347656 -11.613281 7.167969 -11.792969 6.773438 -11.792969 L 5.054688 -11.792969 C 4.660156 -11.792969 4.460938 -11.613281 4.320312 -11.234375 L 0.339844 -0.5 C 0.25 -0.285156 0.25 0 0.644531 0 L 2.527344 0 C 2.921875 0 3.0625 -0.109375 3.207031 -0.539062 L 3.710938 -1.953125 L 8.101562 -1.953125 L 8.601562 -0.539062 C 8.746094 -0.109375 8.886719 0 9.28125 0 L 11.164062 0 C 11.558594 0 11.558594 -0.285156 11.46875 -0.5 Z M 5.914062 -8.421875 L 7.257812 -4.460938 L 4.570312 -4.460938 Z M 5.914062 -8.421875 "/></g></g></g><g fill="rgb(0%, 0%, 0%)" fill-opacity="1"><g transform="translate(310.41302, 330.55623)"><g><path d="M 10.984375 -0.574219 L 8.457031 -4.246094 C 9.570312 -4.625 10.949219 -5.933594 10.949219 -7.8125 C 10.949219 -8.960938 10.574219 -9.980469 9.910156 -10.625 C 9.15625 -11.378906 8.296875 -11.773438 6.34375 -11.773438 L 1.828125 -11.773438 C 1.414062 -11.773438 1.324219 -11.578125 1.324219 -11.253906 L 1.324219 -0.519531 C 1.324219 -0.109375 1.503906 0 1.828125 0 L 3.601562 0 C 3.925781 0 4.121094 -0.109375 4.121094 -0.519531 L 4.121094 -9.265625 L 6.503906 -9.265625 C 7.4375 -9.265625 8.152344 -8.671875 8.152344 -7.742188 C 8.152344 -6.898438 7.328125 -6.289062 6.453125 -6.289062 L 6.09375 -6.289062 C 5.679688 -6.289062 5.574219 -6.09375 5.574219 -5.769531 L 5.574219 -4.335938 C 5.574219 -3.835938 5.609375 -3.636719 5.769531 -3.421875 L 7.707031 -0.539062 C 7.957031 -0.160156 8.171875 0 8.601562 0 L 10.714844 0 C 11.058594 0 11.148438 -0.324219 10.984375 -0.574219 Z M 10.984375 -0.574219 "/></g></g></g><g fill="rgb(0%, 0%, 0%)" fill-opacity="1"><g transform="translate(324.709746, 330.55623)"><g><path d="M 9.300781 -11.792969 L 0.984375 -11.792969 C 0.574219 -11.792969 0.464844 -11.59375 0.464844 -11.273438 L 0.464844 -9.785156 C 0.464844 -9.460938 0.574219 -9.265625 0.984375 -9.265625 L 3.746094 -9.265625 L 3.746094 -0.519531 C 3.746094 -0.109375 3.941406 0 4.265625 0 L 6.039062 0 C 6.363281 0 6.558594 -0.109375 6.558594 -0.519531 L 6.558594 -9.265625 L 9.300781 -9.265625 C 9.714844 -9.265625 9.820312 -9.460938 9.820312 -9.785156 L 9.820312 -11.273438 C 9.820312 -11.59375 9.714844 -11.792969 9.300781 -11.792969 Z M 9.300781 -11.792969 "/></g></g></g><g fill="rgb(0%, 0%, 0%)" fill-opacity="1"><g transform="translate(337.358374, 330.55623)"><g><path d="M 9.875 -2.507812 L 4.15625 -2.507812 L 4.15625 -4.875 L 8.960938 -4.875 C 9.371094 -4.875 9.480469 -5.070312 9.480469 -5.394531 L 9.480469 -6.792969 C 9.480469 -7.113281 9.371094 -7.3125 8.960938 -7.3125 L 4.15625 -7.3125 L 4.15625 -9.265625 L 9.570312 -9.265625 C 9.980469 -9.265625 10.089844 -9.460938 10.089844 -9.785156 L 10.089844 -11.273438 C 10.089844 -11.59375 9.980469 -11.792969 9.570312 -11.792969 L 1.847656 -11.792969 C 1.433594 -11.792969 1.324219 -11.59375 1.324219 -11.273438 L 1.324219 -0.519531 C 1.324219 -0.195312 1.433594 0 1.847656 0 L 9.875 0 C 10.285156 0 10.394531 -0.195312 10.394531 -0.519531 L 10.394531 -1.988281 C 10.394531 -2.3125 10.285156 -2.507812 9.875 -2.507812 Z M 9.875 -2.507812 "/></g></g></g><g fill="rgb(0%, 0%, 0%)" fill-opacity="1"><g transform="translate(350.956446, 330.55623)"><g><path d="M 2.527344 -3.710938 L 3.40625 -3.710938 C 3.816406 -3.710938 3.851562 -3.761719 3.90625 -4.230469 C 4.675781 -11.308594 4.695312 -11.363281 4.695312 -11.414062 C 4.695312 -11.738281 4.535156 -11.792969 4.15625 -11.792969 L 1.757812 -11.792969 C 1.398438 -11.792969 1.238281 -11.71875 1.238281 -11.414062 C 1.238281 -11.363281 1.253906 -11.308594 2.007812 -4.230469 C 2.0625 -3.78125 2.097656 -3.710938 2.527344 -3.710938 Z M 3.960938 -3.027344 L 1.972656 -3.027344 C 1.648438 -3.027344 1.453125 -2.921875 1.453125 -2.507812 L 1.453125 -0.519531 C 1.453125 -0.109375 1.648438 0 1.972656 0 L 3.960938 0 C 4.28125 0 4.480469 -0.109375 4.480469 -0.519531 L 4.480469 -2.507812 C 4.480469 -2.921875 4.28125 -3.027344 3.960938 -3.027344 Z M 3.960938 -3.027344 "/></g></g></g></svg>