<svg xmlns="http://www.w3.org/2000/svg" xmlns:xlink="http://www.w3.org/1999/xlink" width="480" zoomAndPan="magnify" viewBox="0 0 360 359.999987" height="480" preserveAspectRatio="xMidYMid meet" version="1.0"><defs><g/></defs><path fill="rgb(35.688782%, 93.728638%, 82.348633%)" d="M 179.832031 0 C 80.515625 0 0 80.515625 0 179.832031 C 0 279.152344 80.515625 359.667969 179.832031 359.667969 C 279.152344 359.667969 359.667969 279.152344 359.667969 179.832031 C 359.667969 80.515625 279.152344 0 179.832031 0 " fill-opacity="1" fill-rule="nonzero"/><g fill="rgb(0%, 0%, 0%)" fill-opacity="1"><g transform="translate(74.928887, 116.995625)"><g><path d="M 13.429688 -8.433594 C 13.652344 -8.53125 15.234375 -9.324219 15.234375 -11.820312 C 15.234375 -14.144531 13.503906 -16.296875 9.472656 -16.296875 L 2.546875 -16.296875 C 1.976562 -16.296875 1.828125 -16.023438 1.828125 -15.578125 L 1.828125 -0.71875 C 1.828125 -0.273438 1.976562 0 2.546875 0 L 9.816406 0 C 13.253906 0 15.703125 -1.605469 15.703125 -4.75 C 15.703125 -7.417969 13.625 -8.359375 13.429688 -8.433594 Z M 9.867188 -3.511719 L 5.710938 -3.511719 L 5.710938 -12.808594 L 9.472656 -12.808594 C 10.757812 -12.808594 11.523438 -12.539062 11.523438 -11.425781 C 11.523438 -10.460938 10.90625 -9.941406 9.472656 -9.941406 L 9.148438 -9.941406 C 8.582031 -9.941406 8.433594 -9.667969 8.433594 -9.222656 L 8.433594 -7.34375 C 8.433594 -6.898438 8.582031 -6.628906 9.148438 -6.628906 L 9.71875 -6.628906 C 10.90625 -6.628906 11.769531 -6.28125 11.769531 -5.117188 C 11.769531 -4.007812 11.078125 -3.511719 9.867188 -3.511719 Z M 9.867188 -3.511719 "/></g></g></g><g fill="rgb(0%, 0%, 0%)" fill-opacity="1"><g transform="translate(95.176744, 116.995625)"><g><path d="M 15.828125 -0.691406 L 10.363281 -15.503906 C 10.140625 -16.023438 9.890625 -16.273438 9.347656 -16.273438 L 6.972656 -16.273438 C 6.429688 -16.273438 6.15625 -16.023438 5.960938 -15.503906 L 0.46875 -0.691406 C 0.347656 -0.394531 0.347656 0 0.890625 0 L 3.488281 0 C 4.03125 0 4.230469 -0.148438 4.425781 -0.742188 L 5.117188 -2.695312 L 11.175781 -2.695312 L 11.871094 -0.742188 C 12.066406 -0.148438 12.265625 0 12.808594 0 L 15.40625 0 C 15.949219 0 15.949219 -0.394531 15.828125 -0.691406 Z M 8.160156 -11.621094 L 10.015625 -6.15625 L 6.304688 -6.15625 Z M 8.160156 -11.621094 "/></g></g></g><g fill="rgb(0%, 0%, 0%)" fill-opacity="1"><g transform="translate(114.633543, 116.995625)"><g><path d="M 14.367188 -4.820312 C 14.367188 -5.414062 14.171875 -5.664062 13.625 -5.664062 L 11.203125 -5.664062 C 10.660156 -5.664062 10.609375 -5.265625 10.535156 -4.773438 C 10.335938 -3.585938 9.273438 -3.089844 7.9375 -3.089844 C 6.304688 -3.089844 5.191406 -3.980469 5.191406 -5.5625 L 5.191406 -10.707031 C 5.191406 -12.265625 6.304688 -13.179688 7.9375 -13.179688 C 9.273438 -13.179688 9.964844 -12.808594 10.484375 -11.992188 C 10.683594 -11.695312 10.707031 -11.226562 11.226562 -11.226562 L 13.601562 -11.226562 C 14.171875 -11.226562 14.367188 -11.351562 14.367188 -11.945312 C 14.046875 -15.085938 11.003906 -16.644531 7.9375 -16.644531 C 4.996094 -16.644531 1.3125 -14.9375 1.3125 -11.054688 L 1.3125 -5.21875 C 1.3125 -1.335938 4.996094 0.371094 7.9375 0.371094 C 11.003906 0.371094 14.367188 -1.632812 14.367188 -4.820312 Z M 14.367188 -4.820312 "/></g></g></g><g fill="rgb(0%, 0%, 0%)" fill-opacity="1"><g transform="translate(133.521754, 116.995625)"><g><path d="M 12.835938 -16.273438 L 1.359375 -16.273438 C 0.792969 -16.273438 0.644531 -16 0.644531 -15.554688 L 0.644531 -13.503906 C 0.644531 -13.058594 0.792969 -12.785156 1.359375 -12.785156 L 5.167969 -12.785156 L 5.167969 -0.71875 C 5.167969 -0.148438 5.441406 0 5.886719 0 L 8.332031 0 C 8.777344 0 9.050781 -0.148438 9.050781 -0.71875 L 9.050781 -12.785156 L 12.835938 -12.785156 C 13.402344 -12.785156 13.550781 -13.058594 13.550781 -13.503906 L 13.550781 -15.554688 C 13.550781 -16 13.402344 -16.273438 12.835938 -16.273438 Z M 12.835938 -16.273438 "/></g></g></g><g fill="rgb(0%, 0%, 0%)" fill-opacity="1"><g transform="translate(150.976182, 116.995625)"><g><path d="M 6.28125 -17.707031 L 8.703125 -17.707031 C 9.324219 -17.707031 9.519531 -18.050781 9.867188 -18.398438 L 12.339844 -21.070312 C 12.5625 -21.292969 12.488281 -21.761719 11.871094 -21.761719 L 8.730469 -21.761719 C 8.183594 -21.761719 7.988281 -21.6875 7.617188 -21.070312 L 5.960938 -18.398438 C 5.8125 -18.175781 5.8125 -17.707031 6.28125 -17.707031 Z M 13.625 -3.460938 L 5.738281 -3.460938 L 5.738281 -6.726562 L 12.363281 -6.726562 C 12.933594 -6.726562 13.082031 -7 13.082031 -7.445312 L 13.082031 -9.371094 C 13.082031 -9.816406 12.933594 -10.089844 12.363281 -10.089844 L 5.738281 -10.089844 L 5.738281 -12.785156 L 13.207031 -12.785156 C 13.773438 -12.785156 13.921875 -13.058594 13.921875 -13.503906 L 13.921875 -15.554688 C 13.921875 -16 13.773438 -16.273438 13.207031 -16.273438 L 2.546875 -16.273438 C 1.976562 -16.273438 1.828125 -16 1.828125 -15.554688 L 1.828125 -0.71875 C 1.828125 -0.273438 1.976562 0 2.546875 0 L 13.625 0 C 14.195312 0 14.34375 -0.273438 14.34375 -0.71875 L 14.34375 -2.746094 C 14.34375 -3.191406 14.195312 -3.460938 13.625 -3.460938 Z M 13.625 -3.460938 "/></g></g></g><g fill="rgb(0%, 0%, 0%)" fill-opacity="1"><g transform="translate(169.740792, 116.995625)"><g><path d="M 15.160156 -0.792969 L 11.671875 -5.859375 C 13.207031 -6.378906 15.109375 -8.183594 15.109375 -10.78125 C 15.109375 -12.363281 14.589844 -13.773438 13.675781 -14.664062 C 12.636719 -15.703125 11.449219 -16.246094 8.753906 -16.246094 L 2.523438 -16.246094 C 1.953125 -16.246094 1.828125 -15.976562 1.828125 -15.53125 L 1.828125 -0.71875 C 1.828125 -0.148438 2.078125 0 2.523438 0 L 4.96875 0 C 5.414062 0 5.6875 -0.148438 5.6875 -0.71875 L 5.6875 -12.785156 L 8.976562 -12.785156 C 10.261719 -12.785156 11.25 -11.96875 11.25 -10.683594 C 11.25 -9.519531 10.113281 -8.679688 8.902344 -8.679688 L 8.40625 -8.679688 C 7.839844 -8.679688 7.691406 -8.40625 7.691406 -7.960938 L 7.691406 -5.984375 C 7.691406 -5.292969 7.742188 -5.019531 7.960938 -4.722656 L 10.632812 -0.742188 C 10.980469 -0.222656 11.277344 0 11.871094 0 L 14.789062 0 C 15.257812 0 15.382812 -0.445312 15.160156 -0.792969 Z M 15.160156 -0.792969 "/></g></g></g><g fill="rgb(0%, 0%, 0%)" fill-opacity="1"><g transform="translate(189.469508, 116.995625)"><g><path d="M 8.902344 -3.386719 L 7.34375 -3.386719 L 7.34375 -12.835938 L 8.828125 -12.835938 C 9.398438 -12.835938 9.546875 -13.105469 9.546875 -13.550781 L 9.546875 -15.554688 C 9.546875 -16 9.398438 -16.273438 8.828125 -16.273438 L 1.953125 -16.273438 C 1.386719 -16.273438 1.238281 -16 1.238281 -15.554688 L 1.238281 -13.550781 C 1.238281 -13.105469 1.386719 -12.835938 1.953125 -12.835938 L 3.460938 -12.835938 L 3.460938 -3.386719 L 1.902344 -3.386719 C 1.335938 -3.386719 1.1875 -3.117188 1.1875 -2.671875 L 1.1875 -0.71875 C 1.1875 -0.273438 1.335938 0 1.902344 0 L 8.902344 0 C 9.472656 0 9.621094 -0.273438 9.621094 -0.71875 L 9.621094 -2.671875 C 9.621094 -3.117188 9.472656 -3.386719 8.902344 -3.386719 Z M 8.902344 -3.386719 "/></g></g></g><g fill="rgb(0%, 0%, 0%)" fill-opacity="1"><g transform="translate(203.710263, 116.995625)"><g><path d="M 15.828125 -0.691406 L 10.363281 -15.503906 C 10.140625 -16.023438 9.890625 -16.273438 9.347656 -16.273438 L 6.972656 -16.273438 C 6.429688 -16.273438 6.15625 -16.023438 5.960938 -15.503906 L 0.46875 -0.691406 C 0.347656 -0.394531 0.347656 0 0.890625 0 L 3.488281 0 C 4.03125 0 4.230469 -0.148438 4.425781 -0.742188 L 5.117188 -2.695312 L 11.175781 -2.695312 L 11.871094 -0.742188 C 12.066406 -0.148438 12.265625 0 12.808594 0 L 15.40625 0 C 15.949219 0 15.949219 -0.394531 15.828125 -0.691406 Z M 8.160156 -11.621094 L 10.015625 -6.15625 L 6.304688 -6.15625 Z M 8.160156 -11.621094 "/></g></g></g><g fill="rgb(0%, 0%, 0%)" fill-opacity="1"><g transform="translate(223.167065, 116.995625)"><g><path d="M 9.496094 -9.445312 C 8.507812 -9.84375 4.871094 -10.386719 4.871094 -11.894531 C 4.871094 -13.007812 6.230469 -13.328125 7.046875 -13.328125 C 7.789062 -13.328125 8.679688 -13.105469 9.148438 -12.660156 C 9.445312 -12.363281 9.570312 -12.167969 9.667969 -11.917969 C 9.792969 -11.597656 9.867188 -11.25 10.335938 -11.25 L 12.761719 -11.25 C 13.328125 -11.25 13.476562 -11.351562 13.476562 -11.945312 C 13.476562 -15.207031 10.039062 -16.644531 6.898438 -16.644531 C 3.808594 -16.519531 0.890625 -14.9375 0.890625 -11.722656 C 0.890625 -8.582031 3.191406 -7.59375 5.6875 -6.800781 C 7.789062 -6.132812 9.992188 -6.109375 9.992188 -4.722656 C 9.992188 -3.339844 8.902344 -3.042969 7.566406 -3.042969 C 6.652344 -3.042969 5.636719 -3.265625 5.144531 -3.859375 C 4.820312 -4.230469 4.699219 -4.550781 4.675781 -4.871094 C 4.625 -5.488281 4.351562 -5.5625 3.785156 -5.5625 L 1.386719 -5.5625 C 0.816406 -5.5625 0.667969 -5.441406 0.667969 -4.871094 C 0.667969 -1.410156 4.230469 0.371094 7.320312 0.371094 C 11.128906 0.371094 13.898438 -1.3125 13.898438 -4.820312 C 13.898438 -8.183594 11.277344 -8.902344 9.496094 -9.445312 Z M 9.496094 -9.445312 "/></g></g></g><g fill="rgb(0%, 0%, 0%)" fill-opacity="1"><g transform="translate(241.38782, 116.995625)"><g/></g></g><g fill="rgb(0%, 0%, 0%)" fill-opacity="1"><g transform="translate(251.351932, 116.995625)"><g><path d="M 9.496094 -9.445312 C 8.507812 -9.84375 4.871094 -10.386719 4.871094 -11.894531 C 4.871094 -13.007812 6.230469 -13.328125 7.046875 -13.328125 C 7.789062 -13.328125 8.679688 -13.105469 9.148438 -12.660156 C 9.445312 -12.363281 9.570312 -12.167969 9.667969 -11.917969 C 9.792969 -11.597656 9.867188 -11.25 10.335938 -11.25 L 12.761719 -11.25 C 13.328125 -11.25 13.476562 -11.351562 13.476562 -11.945312 C 13.476562 -15.207031 10.039062 -16.644531 6.898438 -16.644531 C 3.808594 -16.519531 0.890625 -14.9375 0.890625 -11.722656 C 0.890625 -8.582031 3.191406 -7.59375 5.6875 -6.800781 C 7.789062 -6.132812 9.992188 -6.109375 9.992188 -4.722656 C 9.992188 -3.339844 8.902344 -3.042969 7.566406 -3.042969 C 6.652344 -3.042969 5.636719 -3.265625 5.144531 -3.859375 C 4.820312 -4.230469 4.699219 -4.550781 4.675781 -4.871094 C 4.625 -5.488281 4.351562 -5.5625 3.785156 -5.5625 L 1.386719 -5.5625 C 0.816406 -5.5625 0.667969 -5.441406 0.667969 -4.871094 C 0.667969 -1.410156 4.230469 0.371094 7.320312 0.371094 C 11.128906 0.371094 13.898438 -1.3125 13.898438 -4.820312 C 13.898438 -8.183594 11.277344 -8.902344 9.496094 -9.445312 Z M 9.496094 -9.445312 "/></g></g></g><g fill="rgb(0%, 0%, 0%)" fill-opacity="1"><g transform="translate(269.572696, 116.995625)"><g><path d="M 13.625 -3.460938 L 5.738281 -3.460938 L 5.738281 -6.726562 L 12.363281 -6.726562 C 12.933594 -6.726562 13.082031 -7 13.082031 -7.445312 L 13.082031 -9.371094 C 13.082031 -9.816406 12.933594 -10.089844 12.363281 -10.089844 L 5.738281 -10.089844 L 5.738281 -12.785156 L 13.207031 -12.785156 C 13.773438 -12.785156 13.921875 -13.058594 13.921875 -13.503906 L 13.921875 -15.554688 C 13.921875 -16 13.773438 -16.273438 13.207031 -16.273438 L 2.546875 -16.273438 C 1.976562 -16.273438 1.828125 -16 1.828125 -15.554688 L 1.828125 -0.71875 C 1.828125 -0.273438 1.976562 0 2.546875 0 L 13.625 0 C 14.195312 0 14.34375 -0.273438 14.34375 -0.71875 L 14.34375 -2.746094 C 14.34375 -3.191406 14.195312 -3.460938 13.625 -3.460938 Z M 13.625 -3.460938 "/></g></g></g><g fill="rgb(0%, 0%, 0%)" fill-opacity="1"><g transform="translate(69.936528, 151.44105)"><g><path d="M 14.367188 -4.820312 C 14.367188 -5.414062 14.171875 -5.664062 13.625 -5.664062 L 11.203125 -5.664062 C 10.660156 -5.664062 10.609375 -5.265625 10.535156 -4.773438 C 10.335938 -3.585938 9.273438 -3.089844 7.9375 -3.089844 C 6.304688 -3.089844 5.191406 -3.980469 5.191406 -5.5625 L 5.191406 -10.707031 C 5.191406 -12.265625 6.304688 -13.179688 7.9375 -13.179688 C 9.273438 -13.179688 9.964844 -12.808594 10.484375 -11.992188 C 10.683594 -11.695312 10.707031 -11.226562 11.226562 -11.226562 L 13.601562 -11.226562 C 14.171875 -11.226562 14.367188 -11.351562 14.367188 -11.945312 C 14.046875 -15.085938 11.003906 -16.644531 7.9375 -16.644531 C 4.996094 -16.644531 1.3125 -14.9375 1.3125 -11.054688 L 1.3125 -5.21875 C 1.3125 -1.335938 4.996094 0.371094 7.9375 0.371094 C 11.003906 0.371094 14.367188 -1.632812 14.367188 -4.820312 Z M 14.367188 -4.820312 "/></g></g></g><g fill="rgb(0%, 0%, 0%)" fill-opacity="1"><g transform="translate(88.824741, 151.44105)"><g><path d="M 14.613281 -5.21875 L 14.613281 -11.054688 C 14.613281 -14.960938 10.90625 -16.644531 7.960938 -16.644531 C 5.019531 -16.644531 1.359375 -14.960938 1.359375 -11.054688 L 1.359375 -5.21875 C 1.359375 -1.3125 5.019531 0.371094 7.960938 0.371094 C 10.90625 0.371094 14.613281 -1.3125 14.613281 -5.21875 Z M 10.734375 -10.707031 L 10.734375 -5.5625 C 10.734375 -3.980469 9.59375 -3.066406 7.960938 -3.066406 C 6.355469 -3.066406 5.21875 -3.980469 5.21875 -5.5625 L 5.21875 -10.707031 C 5.21875 -12.289062 6.355469 -13.207031 7.960938 -13.207031 C 9.59375 -13.207031 10.734375 -12.289062 10.734375 -10.707031 Z M 10.734375 -10.707031 "/></g></g></g><g fill="rgb(0%, 0%, 0%)" fill-opacity="1"><g transform="translate(108.034329, 151.44105)"><g><path d="M 16.421875 -16.296875 L 14.046875 -16.296875 C 13.230469 -16.296875 13.105469 -15.753906 12.933594 -15.457031 L 9.519531 -9.371094 L 6.132812 -15.457031 C 5.933594 -15.753906 5.835938 -16.296875 4.996094 -16.296875 L 2.546875 -16.296875 C 1.976562 -16.296875 1.828125 -16.023438 1.828125 -15.578125 L 1.828125 -0.71875 C 1.828125 -0.148438 2.101562 0 2.546875 0 L 4.996094 0 C 5.441406 0 5.710938 -0.148438 5.710938 -0.71875 L 5.710938 -9.101562 L 8.210938 -4.773438 C 8.332031 -4.574219 8.53125 -4.253906 8.902344 -4.253906 L 10.140625 -4.253906 C 10.511719 -4.253906 10.734375 -4.574219 10.855469 -4.773438 L 13.328125 -9.101562 L 13.328125 -0.71875 C 13.328125 -0.148438 13.601562 0 14.046875 0 L 16.421875 0 C 16.867188 0 17.136719 -0.148438 17.136719 -0.71875 L 17.136719 -15.578125 C 17.136719 -16.023438 16.988281 -16.296875 16.421875 -16.296875 Z M 16.421875 -16.296875 "/></g></g></g><g fill="rgb(0%, 0%, 0%)" fill-opacity="1"><g transform="translate(130.259818, 151.44105)"><g><path d="M 13.996094 -16.273438 L 11.546875 -16.273438 C 11.105469 -16.273438 10.832031 -16.125 10.832031 -15.554688 L 10.832031 -5.515625 C 10.832031 -3.957031 9.792969 -3.066406 8.160156 -3.066406 C 6.527344 -3.066406 5.515625 -3.957031 5.515625 -5.515625 L 5.515625 -15.554688 C 5.515625 -16.125 5.242188 -16.273438 4.796875 -16.273438 L 2.347656 -16.273438 C 1.902344 -16.273438 1.632812 -16.125 1.632812 -15.554688 L 1.632812 -4.96875 C 1.632812 -1.089844 5.21875 0.371094 8.160156 0.371094 C 11.105469 0.371094 14.714844 -1.089844 14.714844 -4.96875 L 14.714844 -15.554688 C 14.714844 -16.125 14.441406 -16.273438 13.996094 -16.273438 Z M 13.996094 -16.273438 "/></g></g></g><g fill="rgb(0%, 0%, 0%)" fill-opacity="1"><g transform="translate(149.864928, 151.44105)"><g><path d="M 14.316406 -16.273438 L 11.945312 -16.273438 C 11.5 -16.273438 11.226562 -16.125 11.226562 -15.554688 L 11.226562 -6.972656 L 5.984375 -15.429688 C 5.664062 -15.925781 5.488281 -16.273438 4.871094 -16.273438 L 2.546875 -16.273438 C 1.976562 -16.273438 1.828125 -16 1.828125 -15.554688 L 1.828125 -0.71875 C 1.828125 -0.148438 2.101562 0 2.546875 0 L 4.996094 0 C 5.441406 0 5.710938 -0.148438 5.710938 -0.71875 L 5.710938 -9.324219 L 10.957031 -0.839844 C 11.277344 -0.347656 11.449219 0 12.066406 0 L 14.316406 0 C 14.886719 0 15.035156 -0.273438 15.035156 -0.71875 L 15.035156 -15.554688 C 15.035156 -16.125 14.761719 -16.273438 14.316406 -16.273438 Z M 14.316406 -16.273438 "/></g></g></g><g fill="rgb(0%, 0%, 0%)" fill-opacity="1"><g transform="translate(169.989181, 151.44105)"><g><path d="M 8.902344 -3.386719 L 7.34375 -3.386719 L 7.34375 -12.835938 L 8.828125 -12.835938 C 9.398438 -12.835938 9.546875 -13.105469 9.546875 -13.550781 L 9.546875 -15.554688 C 9.546875 -16 9.398438 -16.273438 8.828125 -16.273438 L 1.953125 -16.273438 C 1.386719 -16.273438 1.238281 -16 1.238281 -15.554688 L 1.238281 -13.550781 C 1.238281 -13.105469 1.386719 -12.835938 1.953125 -12.835938 L 3.460938 -12.835938 L 3.460938 -3.386719 L 1.902344 -3.386719 C 1.335938 -3.386719 1.1875 -3.117188 1.1875 -2.671875 L 1.1875 -0.71875 C 1.1875 -0.273438 1.335938 0 1.902344 0 L 8.902344 0 C 9.472656 0 9.621094 -0.273438 9.621094 -0.71875 L 9.621094 -2.671875 C 9.621094 -3.117188 9.472656 -3.386719 8.902344 -3.386719 Z M 8.902344 -3.386719 "/></g></g></g><g fill="rgb(0%, 0%, 0%)" fill-opacity="1"><g transform="translate(184.229937, 151.44105)"><g><path d="M 14.367188 -4.820312 C 14.367188 -5.414062 14.171875 -5.664062 13.625 -5.664062 L 11.203125 -5.664062 C 10.660156 -5.664062 10.609375 -5.265625 10.535156 -4.773438 C 10.335938 -3.585938 9.273438 -3.089844 7.9375 -3.089844 C 6.304688 -3.089844 5.191406 -3.980469 5.191406 -5.5625 L 5.191406 -10.707031 C 5.191406 -12.265625 6.304688 -13.179688 7.9375 -13.179688 C 9.273438 -13.179688 9.964844 -12.808594 10.484375 -11.992188 C 10.683594 -11.695312 10.707031 -11.226562 11.226562 -11.226562 L 13.601562 -11.226562 C 14.171875 -11.226562 14.367188 -11.351562 14.367188 -11.945312 C 14.046875 -15.085938 11.003906 -16.644531 7.9375 -16.644531 C 4.996094 -16.644531 1.3125 -14.9375 1.3125 -11.054688 L 1.3125 -5.21875 C 1.3125 -1.335938 4.996094 0.371094 7.9375 0.371094 C 11.003906 0.371094 14.367188 -1.632812 14.367188 -4.820312 Z M 14.367188 -4.820312 "/></g></g></g><g fill="rgb(0%, 0%, 0%)" fill-opacity="1"><g transform="translate(203.118153, 151.44105)"><g><path d="M 15.828125 -0.691406 L 10.363281 -15.503906 C 10.140625 -16.023438 9.890625 -16.273438 9.347656 -16.273438 L 6.972656 -16.273438 C 6.429688 -16.273438 6.15625 -16.023438 5.960938 -15.503906 L 0.46875 -0.691406 C 0.347656 -0.394531 0.347656 0 0.890625 0 L 3.488281 0 C 4.03125 0 4.230469 -0.148438 4.425781 -0.742188 L 5.117188 -2.695312 L 11.175781 -2.695312 L 11.871094 -0.742188 C 12.066406 -0.148438 12.265625 0 12.808594 0 L 15.40625 0 C 15.949219 0 15.949219 -0.394531 15.828125 -0.691406 Z M 8.160156 -11.621094 L 10.015625 -6.15625 L 6.304688 -6.15625 Z M 8.160156 -11.621094 "/></g></g></g><g fill="rgb(0%, 0%, 0%)" fill-opacity="1"><g transform="translate(222.574945, 151.44105)"><g><path d="M 16.421875 -16.296875 L 14.046875 -16.296875 C 13.230469 -16.296875 13.105469 -15.753906 12.933594 -15.457031 L 9.519531 -9.371094 L 6.132812 -15.457031 C 5.933594 -15.753906 5.835938 -16.296875 4.996094 -16.296875 L 2.546875 -16.296875 C 1.976562 -16.296875 1.828125 -16.023438 1.828125 -15.578125 L 1.828125 -0.71875 C 1.828125 -0.148438 2.101562 0 2.546875 0 L 4.996094 0 C 5.441406 0 5.710938 -0.148438 5.710938 -0.71875 L 5.710938 -9.101562 L 8.210938 -4.773438 C 8.332031 -4.574219 8.53125 -4.253906 8.902344 -4.253906 L 10.140625 -4.253906 C 10.511719 -4.253906 10.734375 -4.574219 10.855469 -4.773438 L 13.328125 -9.101562 L 13.328125 -0.71875 C 13.328125 -0.148438 13.601562 0 14.046875 0 L 16.421875 0 C 16.867188 0 17.136719 -0.148438 17.136719 -0.71875 L 17.136719 -15.578125 C 17.136719 -16.023438 16.988281 -16.296875 16.421875 -16.296875 Z M 16.421875 -16.296875 "/></g></g></g><g fill="rgb(0%, 0%, 0%)" fill-opacity="1"><g transform="translate(244.800439, 151.44105)"><g/></g></g><g fill="rgb(0%, 0%, 0%)" fill-opacity="1"><g transform="translate(254.764551, 151.44105)"><g><path d="M 8.085938 -16.273438 L 2.546875 -16.273438 C 1.976562 -16.273438 1.828125 -16 1.828125 -15.554688 L 1.828125 -0.71875 C 1.828125 -0.273438 1.976562 0 2.546875 0 L 8.085938 0 C 11.03125 0 14.738281 -1.679688 14.738281 -5.5625 L 14.738281 -10.707031 C 14.738281 -14.566406 11.03125 -16.273438 8.085938 -16.273438 Z M 10.855469 -10.363281 L 10.855469 -5.910156 C 10.855469 -4.328125 9.71875 -3.4375 8.085938 -3.4375 L 5.710938 -3.4375 L 5.710938 -12.835938 L 8.085938 -12.835938 C 9.71875 -12.835938 10.855469 -11.917969 10.855469 -10.363281 Z M 10.855469 -10.363281 "/></g></g></g><g fill="rgb(0%, 0%, 0%)" fill-opacity="1"><g transform="translate(274.097747, 151.44105)"><g><path d="M 14.613281 -5.21875 L 14.613281 -11.054688 C 14.613281 -14.960938 10.90625 -16.644531 7.960938 -16.644531 C 5.019531 -16.644531 1.359375 -14.960938 1.359375 -11.054688 L 1.359375 -5.21875 C 1.359375 -1.3125 5.019531 0.371094 7.960938 0.371094 C 10.90625 0.371094 14.613281 -1.3125 14.613281 -5.21875 Z M 10.734375 -10.707031 L 10.734375 -5.5625 C 10.734375 -3.980469 9.59375 -3.066406 7.960938 -3.066406 C 6.355469 -3.066406 5.21875 -3.980469 5.21875 -5.5625 L 5.21875 -10.707031 C 5.21875 -12.289062 6.355469 -13.207031 7.960938 -13.207031 C 9.59375 -13.207031 10.734375 -12.289062 10.734375 -10.707031 Z M 10.734375 -10.707031 "/></g></g></g><g fill="rgb(0%, 0%, 0%)" fill-opacity="1"><g transform="translate(82.686531, 185.886475)"><g><path d="M 16.421875 -16.296875 L 14.046875 -16.296875 C 13.230469 -16.296875 13.105469 -15.753906 12.933594 -15.457031 L 9.519531 -9.371094 L 6.132812 -15.457031 C 5.933594 -15.753906 5.835938 -16.296875 4.996094 -16.296875 L 2.546875 -16.296875 C 1.976562 -16.296875 1.828125 -16.023438 1.828125 -15.578125 L 1.828125 -0.71875 C 1.828125 -0.148438 2.101562 0 2.546875 0 L 4.996094 0 C 5.441406 0 5.710938 -0.148438 5.710938 -0.71875 L 5.710938 -9.101562 L 8.210938 -4.773438 C 8.332031 -4.574219 8.53125 -4.253906 8.902344 -4.253906 L 10.140625 -4.253906 C 10.511719 -4.253906 10.734375 -4.574219 10.855469 -4.773438 L 13.328125 -9.101562 L 13.328125 -0.71875 C 13.328125 -0.148438 13.601562 0 14.046875 0 L 16.421875 0 C 16.867188 0 17.136719 -0.148438 17.136719 -0.71875 L 17.136719 -15.578125 C 17.136719 -16.023438 16.988281 -16.296875 16.421875 -16.296875 Z M 16.421875 -16.296875 "/></g></g></g><g fill="rgb(0%, 0%, 0%)" fill-opacity="1"><g transform="translate(104.912022, 185.886475)"><g><path d="M 13.625 -3.460938 L 5.738281 -3.460938 L 5.738281 -6.726562 L 12.363281 -6.726562 C 12.933594 -6.726562 13.082031 -7 13.082031 -7.445312 L 13.082031 -9.371094 C 13.082031 -9.816406 12.933594 -10.089844 12.363281 -10.089844 L 5.738281 -10.089844 L 5.738281 -12.785156 L 13.207031 -12.785156 C 13.773438 -12.785156 13.921875 -13.058594 13.921875 -13.503906 L 13.921875 -15.554688 C 13.921875 -16 13.773438 -16.273438 13.207031 -16.273438 L 2.546875 -16.273438 C 1.976562 -16.273438 1.828125 -16 1.828125 -15.554688 L 1.828125 -0.71875 C 1.828125 -0.273438 1.976562 0 2.546875 0 L 13.625 0 C 14.195312 0 14.34375 -0.273438 14.34375 -0.71875 L 14.34375 -2.746094 C 14.34375 -3.191406 14.195312 -3.460938 13.625 -3.460938 Z M 13.625 -3.460938 "/></g></g></g><g fill="rgb(0%, 0%, 0%)" fill-opacity="1"><g transform="translate(123.67663, 185.886475)"><g><path d="M 9.496094 -9.445312 C 8.507812 -9.84375 4.871094 -10.386719 4.871094 -11.894531 C 4.871094 -13.007812 6.230469 -13.328125 7.046875 -13.328125 C 7.789062 -13.328125 8.679688 -13.105469 9.148438 -12.660156 C 9.445312 -12.363281 9.570312 -12.167969 9.667969 -11.917969 C 9.792969 -11.597656 9.867188 -11.25 10.335938 -11.25 L 12.761719 -11.25 C 13.328125 -11.25 13.476562 -11.351562 13.476562 -11.945312 C 13.476562 -15.207031 10.039062 -16.644531 6.898438 -16.644531 C 3.808594 -16.519531 0.890625 -14.9375 0.890625 -11.722656 C 0.890625 -8.582031 3.191406 -7.59375 5.6875 -6.800781 C 7.789062 -6.132812 9.992188 -6.109375 9.992188 -4.722656 C 9.992188 -3.339844 8.902344 -3.042969 7.566406 -3.042969 C 6.652344 -3.042969 5.636719 -3.265625 5.144531 -3.859375 C 4.820312 -4.230469 4.699219 -4.550781 4.675781 -4.871094 C 4.625 -5.488281 4.351562 -5.5625 3.785156 -5.5625 L 1.386719 -5.5625 C 0.816406 -5.5625 0.667969 -5.441406 0.667969 -4.871094 C 0.667969 -1.410156 4.230469 0.371094 7.320312 0.371094 C 11.128906 0.371094 13.898438 -1.3125 13.898438 -4.820312 C 13.898438 -8.183594 11.277344 -8.902344 9.496094 -9.445312 Z M 9.496094 -9.445312 "/></g></g></g><g fill="rgb(0%, 0%, 0%)" fill-opacity="1"><g transform="translate(141.89739, 185.886475)"><g><path d="M 16.421875 -16.296875 L 14.046875 -16.296875 C 13.230469 -16.296875 13.105469 -15.753906 12.933594 -15.457031 L 9.519531 -9.371094 L 6.132812 -15.457031 C 5.933594 -15.753906 5.835938 -16.296875 4.996094 -16.296875 L 2.546875 -16.296875 C 1.976562 -16.296875 1.828125 -16.023438 1.828125 -15.578125 L 1.828125 -0.71875 C 1.828125 -0.148438 2.101562 0 2.546875 0 L 4.996094 0 C 5.441406 0 5.710938 -0.148438 5.710938 -0.71875 L 5.710938 -9.101562 L 8.210938 -4.773438 C 8.332031 -4.574219 8.53125 -4.253906 8.902344 -4.253906 L 10.140625 -4.253906 C 10.511719 -4.253906 10.734375 -4.574219 10.855469 -4.773438 L 13.328125 -9.101562 L 13.328125 -0.71875 C 13.328125 -0.148438 13.601562 0 14.046875 0 L 16.421875 0 C 16.867188 0 17.136719 -0.148438 17.136719 -0.71875 L 17.136719 -15.578125 C 17.136719 -16.023438 16.988281 -16.296875 16.421875 -16.296875 Z M 16.421875 -16.296875 "/></g></g></g><g fill="rgb(0%, 0%, 0%)" fill-opacity="1"><g transform="translate(164.122883, 185.886475)"><g><path d="M 14.613281 -5.21875 L 14.613281 -11.054688 C 14.613281 -14.960938 10.90625 -16.644531 7.960938 -16.644531 C 5.019531 -16.644531 1.359375 -14.960938 1.359375 -11.054688 L 1.359375 -5.21875 C 1.359375 -1.3125 5.019531 0.371094 7.960938 0.371094 C 10.90625 0.371094 14.613281 -1.3125 14.613281 -5.21875 Z M 10.734375 -10.707031 L 10.734375 -5.5625 C 10.734375 -3.980469 9.59375 -3.066406 7.960938 -3.066406 C 6.355469 -3.066406 5.21875 -3.980469 5.21875 -5.5625 L 5.21875 -10.707031 C 5.21875 -12.289062 6.355469 -13.207031 7.960938 -13.207031 C 9.59375 -13.207031 10.734375 -12.289062 10.734375 -10.707031 Z M 10.734375 -10.707031 "/></g></g></g><g fill="rgb(0%, 0%, 0%)" fill-opacity="1"><g transform="translate(183.332474, 185.886475)"><g/></g></g><g fill="rgb(0%, 0%, 0%)" fill-opacity="1"><g transform="translate(193.296586, 185.886475)"><g><path d="M 11.96875 -16.667969 L 4.476562 -16.667969 C 3.882812 -16.667969 3.757812 -16.394531 3.757812 -15.949219 L 3.757812 -13.898438 C 3.757812 -13.453125 3.882812 -13.179688 4.476562 -13.179688 L 8.804688 -13.179688 L 8.804688 -5.859375 C 8.804688 -4.328125 8.183594 -3.4375 6.554688 -3.4375 C 5.441406 -3.4375 4.648438 -4.03125 4.574219 -5.488281 C 4.574219 -5.613281 4.527344 -6.007812 3.957031 -6.007812 L 1.335938 -6.007812 C 0.765625 -6.007812 0.742188 -5.464844 0.742188 -5.339844 C 0.742188 -1.855469 3.265625 0 6.554688 0 C 9.496094 0 12.6875 -1.460938 12.6875 -5.316406 L 12.6875 -15.949219 C 12.6875 -16.394531 12.539062 -16.667969 11.96875 -16.667969 Z M 11.96875 -16.667969 "/></g></g></g><g fill="rgb(0%, 0%, 0%)" fill-opacity="1"><g transform="translate(210.89934, 185.886475)"><g><path d="M 13.625 -3.460938 L 5.738281 -3.460938 L 5.738281 -6.726562 L 12.363281 -6.726562 C 12.933594 -6.726562 13.082031 -7 13.082031 -7.445312 L 13.082031 -9.371094 C 13.082031 -9.816406 12.933594 -10.089844 12.363281 -10.089844 L 5.738281 -10.089844 L 5.738281 -12.785156 L 13.207031 -12.785156 C 13.773438 -12.785156 13.921875 -13.058594 13.921875 -13.503906 L 13.921875 -15.554688 C 13.921875 -16 13.773438 -16.273438 13.207031 -16.273438 L 2.546875 -16.273438 C 1.976562 -16.273438 1.828125 -16 1.828125 -15.554688 L 1.828125 -0.71875 C 1.828125 -0.273438 1.976562 0 2.546875 0 L 13.625 0 C 14.195312 0 14.34375 -0.273438 14.34375 -0.71875 L 14.34375 -2.746094 C 14.34375 -3.191406 14.195312 -3.460938 13.625 -3.460938 Z M 13.625 -3.460938 "/></g></g></g><g fill="rgb(0%, 0%, 0%)" fill-opacity="1"><g transform="translate(229.66395, 185.886475)"><g><path d="M 8.902344 -3.386719 L 7.34375 -3.386719 L 7.34375 -12.835938 L 8.828125 -12.835938 C 9.398438 -12.835938 9.546875 -13.105469 9.546875 -13.550781 L 9.546875 -15.554688 C 9.546875 -16 9.398438 -16.273438 8.828125 -16.273438 L 1.953125 -16.273438 C 1.386719 -16.273438 1.238281 -16 1.238281 -15.554688 L 1.238281 -13.550781 C 1.238281 -13.105469 1.386719 -12.835938 1.953125 -12.835938 L 3.460938 -12.835938 L 3.460938 -3.386719 L 1.902344 -3.386719 C 1.335938 -3.386719 1.1875 -3.117188 1.1875 -2.671875 L 1.1875 -0.71875 C 1.1875 -0.273438 1.335938 0 1.902344 0 L 8.902344 0 C 9.472656 0 9.621094 -0.273438 9.621094 -0.71875 L 9.621094 -2.671875 C 9.621094 -3.117188 9.472656 -3.386719 8.902344 -3.386719 Z M 8.902344 -3.386719 "/></g></g></g><g fill="rgb(0%, 0%, 0%)" fill-opacity="1"><g transform="translate(243.904697, 185.886475)"><g><path d="M 12.835938 -16.273438 L 1.359375 -16.273438 C 0.792969 -16.273438 0.644531 -16 0.644531 -15.554688 L 0.644531 -13.503906 C 0.644531 -13.058594 0.792969 -12.785156 1.359375 -12.785156 L 5.167969 -12.785156 L 5.167969 -0.71875 C 5.167969 -0.148438 5.441406 0 5.886719 0 L 8.332031 0 C 8.777344 0 9.050781 -0.148438 9.050781 -0.71875 L 9.050781 -12.785156 L 12.835938 -12.785156 C 13.402344 -12.785156 13.550781 -13.058594 13.550781 -13.503906 L 13.550781 -15.554688 C 13.550781 -16 13.402344 -16.273438 12.835938 -16.273438 Z M 12.835938 -16.273438 "/></g></g></g><g fill="rgb(0%, 0%, 0%)" fill-opacity="1"><g transform="translate(261.359124, 185.886475)"><g><path d="M 14.613281 -5.21875 L 14.613281 -11.054688 C 14.613281 -14.960938 10.90625 -16.644531 7.960938 -16.644531 C 5.019531 -16.644531 1.359375 -14.960938 1.359375 -11.054688 L 1.359375 -5.21875 C 1.359375 -1.3125 5.019531 0.371094 7.960938 0.371094 C 10.90625 0.371094 14.613281 -1.3125 14.613281 -5.21875 Z M 10.734375 -10.707031 L 10.734375 -5.5625 C 10.734375 -3.980469 9.59375 -3.066406 7.960938 -3.066406 C 6.355469 -3.066406 5.21875 -3.980469 5.21875 -5.5625 L 5.21875 -10.707031 C 5.21875 -12.289062 6.355469 -13.207031 7.960938 -13.207031 C 9.59375 -13.207031 10.734375 -12.289062 10.734375 -10.707031 Z M 10.734375 -10.707031 "/></g></g></g><g fill="rgb(0%, 0%, 0%)" fill-opacity="1"><g transform="translate(67.542422, 220.3319)"><g><path d="M 14.664062 -1.164062 L 13.726562 -2.226562 C 14.367188 -3.042969 14.589844 -3.933594 14.589844 -5.191406 L 14.589844 -11.03125 C 14.589844 -14.9375 10.882812 -16.617188 7.9375 -16.617188 C 4.996094 -16.617188 1.335938 -14.9375 1.335938 -11.03125 L 1.335938 -5.191406 C 1.335938 -1.285156 4.996094 0.394531 7.9375 0.394531 C 9 0.394531 10.039062 0.296875 11.078125 -0.148438 L 12.265625 1.0625 C 12.585938 1.386719 12.984375 1.335938 13.378906 0.941406 L 14.566406 -0.0234375 C 14.984375 -0.445312 14.984375 -0.867188 14.664062 -1.164062 Z M 10.734375 -10.707031 L 10.734375 -5.5625 C 10.734375 -3.980469 9.59375 -3.066406 7.960938 -3.066406 C 6.355469 -3.066406 5.21875 -3.980469 5.21875 -5.5625 L 5.21875 -10.707031 C 5.21875 -12.289062 6.355469 -13.207031 7.960938 -13.207031 C 9.59375 -13.207031 10.734375 -12.289062 10.734375 -10.707031 Z M 10.734375 -10.707031 "/></g></g></g><g fill="rgb(0%, 0%, 0%)" fill-opacity="1"><g transform="translate(86.776731, 220.3319)"><g><path d="M 13.996094 -16.273438 L 11.546875 -16.273438 C 11.105469 -16.273438 10.832031 -16.125 10.832031 -15.554688 L 10.832031 -5.515625 C 10.832031 -3.957031 9.792969 -3.066406 8.160156 -3.066406 C 6.527344 -3.066406 5.515625 -3.957031 5.515625 -5.515625 L 5.515625 -15.554688 C 5.515625 -16.125 5.242188 -16.273438 4.796875 -16.273438 L 2.347656 -16.273438 C 1.902344 -16.273438 1.632812 -16.125 1.632812 -15.554688 L 1.632812 -4.96875 C 1.632812 -1.089844 5.21875 0.371094 8.160156 0.371094 C 11.105469 0.371094 14.714844 -1.089844 14.714844 -4.96875 L 14.714844 -15.554688 C 14.714844 -16.125 14.441406 -16.273438 13.996094 -16.273438 Z M 13.996094 -16.273438 "/></g></g></g><g fill="rgb(0%, 0%, 0%)" fill-opacity="1"><g transform="translate(106.381839, 220.3319)"><g><path d="M 13.625 -3.460938 L 5.738281 -3.460938 L 5.738281 -6.726562 L 12.363281 -6.726562 C 12.933594 -6.726562 13.082031 -7 13.082031 -7.445312 L 13.082031 -9.371094 C 13.082031 -9.816406 12.933594 -10.089844 12.363281 -10.089844 L 5.738281 -10.089844 L 5.738281 -12.785156 L 13.207031 -12.785156 C 13.773438 -12.785156 13.921875 -13.058594 13.921875 -13.503906 L 13.921875 -15.554688 C 13.921875 -16 13.773438 -16.273438 13.207031 -16.273438 L 2.546875 -16.273438 C 1.976562 -16.273438 1.828125 -16 1.828125 -15.554688 L 1.828125 -0.71875 C 1.828125 -0.273438 1.976562 0 2.546875 0 L 13.625 0 C 14.195312 0 14.34375 -0.273438 14.34375 -0.71875 L 14.34375 -2.746094 C 14.34375 -3.191406 14.195312 -3.460938 13.625 -3.460938 Z M 13.625 -3.460938 "/></g></g></g><g fill="rgb(0%, 0%, 0%)" fill-opacity="1"><g transform="translate(125.146444, 220.3319)"><g/></g></g><g fill="rgb(0%, 0%, 0%)" fill-opacity="1"><g transform="translate(135.110557, 220.3319)"><g><path d="M 14.613281 -5.21875 L 14.613281 -11.054688 C 14.613281 -14.960938 10.90625 -16.644531 7.960938 -16.644531 C 5.019531 -16.644531 1.359375 -14.960938 1.359375 -11.054688 L 1.359375 -5.21875 C 1.359375 -1.3125 5.019531 0.371094 7.960938 0.371094 C 10.90625 0.371094 14.613281 -1.3125 14.613281 -5.21875 Z M 10.734375 -10.707031 L 10.734375 -5.5625 C 10.734375 -3.980469 9.59375 -3.066406 7.960938 -3.066406 C 6.355469 -3.066406 5.21875 -3.980469 5.21875 -5.5625 L 5.21875 -10.707031 C 5.21875 -12.289062 6.355469 -13.207031 7.960938 -13.207031 C 9.59375 -13.207031 10.734375 -12.289062 10.734375 -10.707031 Z M 10.734375 -10.707031 "/></g></g></g><g fill="rgb(0%, 0%, 0%)" fill-opacity="1"><g transform="translate(154.320147, 220.3319)"><g><path d="M 9.496094 -9.445312 C 8.507812 -9.84375 4.871094 -10.386719 4.871094 -11.894531 C 4.871094 -13.007812 6.230469 -13.328125 7.046875 -13.328125 C 7.789062 -13.328125 8.679688 -13.105469 9.148438 -12.660156 C 9.445312 -12.363281 9.570312 -12.167969 9.667969 -11.917969 C 9.792969 -11.597656 9.867188 -11.25 10.335938 -11.25 L 12.761719 -11.25 C 13.328125 -11.25 13.476562 -11.351562 13.476562 -11.945312 C 13.476562 -15.207031 10.039062 -16.644531 6.898438 -16.644531 C 3.808594 -16.519531 0.890625 -14.9375 0.890625 -11.722656 C 0.890625 -8.582031 3.191406 -7.59375 5.6875 -6.800781 C 7.789062 -6.132812 9.992188 -6.109375 9.992188 -4.722656 C 9.992188 -3.339844 8.902344 -3.042969 7.566406 -3.042969 C 6.652344 -3.042969 5.636719 -3.265625 5.144531 -3.859375 C 4.820312 -4.230469 4.699219 -4.550781 4.675781 -4.871094 C 4.625 -5.488281 4.351562 -5.5625 3.785156 -5.5625 L 1.386719 -5.5625 C 0.816406 -5.5625 0.667969 -5.441406 0.667969 -4.871094 C 0.667969 -1.410156 4.230469 0.371094 7.320312 0.371094 C 11.128906 0.371094 13.898438 -1.3125 13.898438 -4.820312 C 13.898438 -8.183594 11.277344 -8.902344 9.496094 -9.445312 Z M 9.496094 -9.445312 "/></g></g></g><g fill="rgb(0%, 0%, 0%)" fill-opacity="1"><g transform="translate(172.540911, 220.3319)"><g/></g></g><g fill="rgb(0%, 0%, 0%)" fill-opacity="1"><g transform="translate(182.505023, 220.3319)"><g><path d="M 14.316406 -16.273438 L 11.945312 -16.273438 C 11.5 -16.273438 11.226562 -16.125 11.226562 -15.554688 L 11.226562 -6.972656 L 5.984375 -15.429688 C 5.664062 -15.925781 5.488281 -16.273438 4.871094 -16.273438 L 2.546875 -16.273438 C 1.976562 -16.273438 1.828125 -16 1.828125 -15.554688 L 1.828125 -0.71875 C 1.828125 -0.148438 2.101562 0 2.546875 0 L 4.996094 0 C 5.441406 0 5.710938 -0.148438 5.710938 -0.71875 L 5.710938 -9.324219 L 10.957031 -0.839844 C 11.277344 -0.347656 11.449219 0 12.066406 0 L 14.316406 0 C 14.886719 0 15.035156 -0.273438 15.035156 -0.71875 L 15.035156 -15.554688 C 15.035156 -16.125 14.761719 -16.273438 14.316406 -16.273438 Z M 14.316406 -16.273438 "/></g></g></g><g fill="rgb(0%, 0%, 0%)" fill-opacity="1"><g transform="translate(202.629277, 220.3319)"><g><path d="M 14.613281 -5.21875 L 14.613281 -11.054688 C 14.613281 -14.960938 10.90625 -16.644531 7.960938 -16.644531 C 5.019531 -16.644531 1.359375 -14.960938 1.359375 -11.054688 L 1.359375 -5.21875 C 1.359375 -1.3125 5.019531 0.371094 7.960938 0.371094 C 10.90625 0.371094 14.613281 -1.3125 14.613281 -5.21875 Z M 10.734375 -10.707031 L 10.734375 -5.5625 C 10.734375 -3.980469 9.59375 -3.066406 7.960938 -3.066406 C 6.355469 -3.066406 5.21875 -3.980469 5.21875 -5.5625 L 5.21875 -10.707031 C 5.21875 -12.289062 6.355469 -13.207031 7.960938 -13.207031 C 9.59375 -13.207031 10.734375 -12.289062 10.734375 -10.707031 Z M 10.734375 -10.707031 "/></g></g></g><g fill="rgb(0%, 0%, 0%)" fill-opacity="1"><g transform="translate(221.838858, 220.3319)"><g><path d="M 9.496094 -9.445312 C 8.507812 -9.84375 4.871094 -10.386719 4.871094 -11.894531 C 4.871094 -13.007812 6.230469 -13.328125 7.046875 -13.328125 C 7.789062 -13.328125 8.679688 -13.105469 9.148438 -12.660156 C 9.445312 -12.363281 9.570312 -12.167969 9.667969 -11.917969 C 9.792969 -11.597656 9.867188 -11.25 10.335938 -11.25 L 12.761719 -11.25 C 13.328125 -11.25 13.476562 -11.351562 13.476562 -11.945312 C 13.476562 -15.207031 10.039062 -16.644531 6.898438 -16.644531 C 3.808594 -16.519531 0.890625 -14.9375 0.890625 -11.722656 C 0.890625 -8.582031 3.191406 -7.59375 5.6875 -6.800781 C 7.789062 -6.132812 9.992188 -6.109375 9.992188 -4.722656 C 9.992188 -3.339844 8.902344 -3.042969 7.566406 -3.042969 C 6.652344 -3.042969 5.636719 -3.265625 5.144531 -3.859375 C 4.820312 -4.230469 4.699219 -4.550781 4.675781 -4.871094 C 4.625 -5.488281 4.351562 -5.5625 3.785156 -5.5625 L 1.386719 -5.5625 C 0.816406 -5.5625 0.667969 -5.441406 0.667969 -4.871094 C 0.667969 -1.410156 4.230469 0.371094 7.320312 0.371094 C 11.128906 0.371094 13.898438 -1.3125 13.898438 -4.820312 C 13.898438 -8.183594 11.277344 -8.902344 9.496094 -9.445312 Z M 9.496094 -9.445312 "/></g></g></g><g fill="rgb(0%, 0%, 0%)" fill-opacity="1"><g transform="translate(240.059622, 220.3319)"><g><path d="M 9.496094 -9.445312 C 8.507812 -9.84375 4.871094 -10.386719 4.871094 -11.894531 C 4.871094 -13.007812 6.230469 -13.328125 7.046875 -13.328125 C 7.789062 -13.328125 8.679688 -13.105469 9.148438 -12.660156 C 9.445312 -12.363281 9.570312 -12.167969 9.667969 -11.917969 C 9.792969 -11.597656 9.867188 -11.25 10.335938 -11.25 L 12.761719 -11.25 C 13.328125 -11.25 13.476562 -11.351562 13.476562 -11.945312 C 13.476562 -15.207031 10.039062 -16.644531 6.898438 -16.644531 C 3.808594 -16.519531 0.890625 -14.9375 0.890625 -11.722656 C 0.890625 -8.582031 3.191406 -7.59375 5.6875 -6.800781 C 7.789062 -6.132812 9.992188 -6.109375 9.992188 -4.722656 C 9.992188 -3.339844 8.902344 -3.042969 7.566406 -3.042969 C 6.652344 -3.042969 5.636719 -3.265625 5.144531 -3.859375 C 4.820312 -4.230469 4.699219 -4.550781 4.675781 -4.871094 C 4.625 -5.488281 4.351562 -5.5625 3.785156 -5.5625 L 1.386719 -5.5625 C 0.816406 -5.5625 0.667969 -5.441406 0.667969 -4.871094 C 0.667969 -1.410156 4.230469 0.371094 7.320312 0.371094 C 11.128906 0.371094 13.898438 -1.3125 13.898438 -4.820312 C 13.898438 -8.183594 11.277344 -8.902344 9.496094 -9.445312 Z M 9.496094 -9.445312 "/></g></g></g><g fill="rgb(0%, 0%, 0%)" fill-opacity="1"><g transform="translate(258.280386, 220.3319)"><g><path d="M 14.613281 -5.21875 L 14.613281 -11.054688 C 14.613281 -14.960938 10.90625 -16.644531 7.960938 -16.644531 C 5.019531 -16.644531 1.359375 -14.960938 1.359375 -11.054688 L 1.359375 -5.21875 C 1.359375 -1.3125 5.019531 0.371094 7.960938 0.371094 C 10.90625 0.371094 14.613281 -1.3125 14.613281 -5.21875 Z M 10.734375 -10.707031 L 10.734375 -5.5625 C 10.734375 -3.980469 9.59375 -3.066406 7.960938 -3.066406 C 6.355469 -3.066406 5.21875 -3.980469 5.21875 -5.5625 L 5.21875 -10.707031 C 5.21875 -12.289062 6.355469 -13.207031 7.960938 -13.207031 C 9.59375 -13.207031 10.734375 -12.289062 10.734375 -10.707031 Z M 10.734375 -10.707031 "/></g></g></g><g fill="rgb(0%, 0%, 0%)" fill-opacity="1"><g transform="translate(277.489976, 220.3319)"><g><path d="M 9.496094 -9.445312 C 8.507812 -9.84375 4.871094 -10.386719 4.871094 -11.894531 C 4.871094 -13.007812 6.230469 -13.328125 7.046875 -13.328125 C 7.789062 -13.328125 8.679688 -13.105469 9.148438 -12.660156 C 9.445312 -12.363281 9.570312 -12.167969 9.667969 -11.917969 C 9.792969 -11.597656 9.867188 -11.25 10.335938 -11.25 L 12.761719 -11.25 C 13.328125 -11.25 13.476562 -11.351562 13.476562 -11.945312 C 13.476562 -15.207031 10.039062 -16.644531 6.898438 -16.644531 C 3.808594 -16.519531 0.890625 -14.9375 0.890625 -11.722656 C 0.890625 -8.582031 3.191406 -7.59375 5.6875 -6.800781 C 7.789062 -6.132812 9.992188 -6.109375 9.992188 -4.722656 C 9.992188 -3.339844 8.902344 -3.042969 7.566406 -3.042969 C 6.652344 -3.042969 5.636719 -3.265625 5.144531 -3.859375 C 4.820312 -4.230469 4.699219 -4.550781 4.675781 -4.871094 C 4.625 -5.488281 4.351562 -5.5625 3.785156 -5.5625 L 1.386719 -5.5625 C 0.816406 -5.5625 0.667969 -5.441406 0.667969 -4.871094 C 0.667969 -1.410156 4.230469 0.371094 7.320312 0.371094 C 11.128906 0.371094 13.898438 -1.3125 13.898438 -4.820312 C 13.898438 -8.183594 11.277344 -8.902344 9.496094 -9.445312 Z M 9.496094 -9.445312 "/></g></g></g><g fill="rgb(0%, 0%, 0%)" fill-opacity="1"><g transform="translate(91.390682, 254.777325)"><g><path d="M 14.316406 -16.273438 L 11.945312 -16.273438 C 11.5 -16.273438 11.226562 -16.125 11.226562 -15.554688 L 11.226562 -6.972656 L 5.984375 -15.429688 C 5.664062 -15.925781 5.488281 -16.273438 4.871094 -16.273438 L 2.546875 -16.273438 C 1.976562 -16.273438 1.828125 -16 1.828125 -15.554688 L 1.828125 -0.71875 C 1.828125 -0.148438 2.101562 0 2.546875 0 L 4.996094 0 C 5.441406 0 5.710938 -0.148438 5.710938 -0.71875 L 5.710938 -9.324219 L 10.957031 -0.839844 C 11.277344 -0.347656 11.449219 0 12.066406 0 L 14.316406 0 C 14.886719 0 15.035156 -0.273438 15.035156 -0.71875 L 15.035156 -15.554688 C 15.035156 -16.125 14.761719 -16.273438 14.316406 -16.273438 Z M 14.316406 -16.273438 "/></g></g></g><g fill="rgb(0%, 0%, 0%)" fill-opacity="1"><g transform="translate(111.514934, 254.777325)"><g><path d="M 13.625 -3.460938 L 5.738281 -3.460938 L 5.738281 -6.726562 L 12.363281 -6.726562 C 12.933594 -6.726562 13.082031 -7 13.082031 -7.445312 L 13.082031 -9.371094 C 13.082031 -9.816406 12.933594 -10.089844 12.363281 -10.089844 L 5.738281 -10.089844 L 5.738281 -12.785156 L 13.207031 -12.785156 C 13.773438 -12.785156 13.921875 -13.058594 13.921875 -13.503906 L 13.921875 -15.554688 C 13.921875 -16 13.773438 -16.273438 13.207031 -16.273438 L 2.546875 -16.273438 C 1.976562 -16.273438 1.828125 -16 1.828125 -15.554688 L 1.828125 -0.71875 C 1.828125 -0.273438 1.976562 0 2.546875 0 L 13.625 0 C 14.195312 0 14.34375 -0.273438 14.34375 -0.71875 L 14.34375 -2.746094 C 14.34375 -3.191406 14.195312 -3.460938 13.625 -3.460938 Z M 13.625 -3.460938 "/></g></g></g><g fill="rgb(0%, 0%, 0%)" fill-opacity="1"><g transform="translate(130.279542, 254.777325)"><g><path d="M 13.996094 -16.273438 L 11.546875 -16.273438 C 11.105469 -16.273438 10.832031 -16.125 10.832031 -15.554688 L 10.832031 -5.515625 C 10.832031 -3.957031 9.792969 -3.066406 8.160156 -3.066406 C 6.527344 -3.066406 5.515625 -3.957031 5.515625 -5.515625 L 5.515625 -15.554688 C 5.515625 -16.125 5.242188 -16.273438 4.796875 -16.273438 L 2.347656 -16.273438 C 1.902344 -16.273438 1.632812 -16.125 1.632812 -15.554688 L 1.632812 -4.96875 C 1.632812 -1.089844 5.21875 0.371094 8.160156 0.371094 C 11.105469 0.371094 14.714844 -1.089844 14.714844 -4.96875 L 14.714844 -15.554688 C 14.714844 -16.125 14.441406 -16.273438 13.996094 -16.273438 Z M 13.996094 -16.273438 "/></g></g></g><g fill="rgb(0%, 0%, 0%)" fill-opacity="1"><g transform="translate(149.884647, 254.777325)"><g><path d="M 15.160156 -0.792969 L 11.671875 -5.859375 C 13.207031 -6.378906 15.109375 -8.183594 15.109375 -10.78125 C 15.109375 -12.363281 14.589844 -13.773438 13.675781 -14.664062 C 12.636719 -15.703125 11.449219 -16.246094 8.753906 -16.246094 L 2.523438 -16.246094 C 1.953125 -16.246094 1.828125 -15.976562 1.828125 -15.53125 L 1.828125 -0.71875 C 1.828125 -0.148438 2.078125 0 2.523438 0 L 4.96875 0 C 5.414062 0 5.6875 -0.148438 5.6875 -0.71875 L 5.6875 -12.785156 L 8.976562 -12.785156 C 10.261719 -12.785156 11.25 -11.96875 11.25 -10.683594 C 11.25 -9.519531 10.113281 -8.679688 8.902344 -8.679688 L 8.40625 -8.679688 C 7.839844 -8.679688 7.691406 -8.40625 7.691406 -7.960938 L 7.691406 -5.984375 C 7.691406 -5.292969 7.742188 -5.019531 7.960938 -4.722656 L 10.632812 -0.742188 C 10.980469 -0.222656 11.277344 0 11.871094 0 L 14.789062 0 C 15.257812 0 15.382812 -0.445312 15.160156 -0.792969 Z M 15.160156 -0.792969 "/></g></g></g><g fill="rgb(0%, 0%, 0%)" fill-opacity="1"><g transform="translate(169.613363, 254.777325)"><g><path d="M 10.089844 -17.707031 L 12.289062 -17.707031 C 12.660156 -17.707031 12.808594 -18.101562 12.5625 -18.347656 L 9.621094 -21.738281 C 9.445312 -21.933594 9.175781 -22.035156 8.953125 -22.035156 L 7.023438 -22.035156 C 6.777344 -22.035156 6.527344 -21.933594 6.355469 -21.738281 L 3.386719 -18.347656 C 3.140625 -18.101562 3.289062 -17.707031 3.683594 -17.707031 L 5.859375 -17.707031 C 6.257812 -17.707031 6.527344 -17.976562 6.726562 -18.226562 L 7.988281 -19.757812 L 9.25 -18.226562 C 9.445312 -17.976562 9.695312 -17.707031 10.089844 -17.707031 Z M 14.613281 -11.054688 L 14.613281 -5.21875 C 14.613281 -1.3125 10.90625 0.371094 7.960938 0.371094 C 5.019531 0.371094 1.359375 -1.3125 1.359375 -5.21875 L 1.359375 -11.054688 C 1.359375 -14.960938 5.019531 -16.644531 7.960938 -16.644531 C 10.90625 -16.644531 14.613281 -14.960938 14.613281 -11.054688 Z M 10.734375 -5.5625 L 10.734375 -10.707031 C 10.734375 -12.289062 9.59375 -13.207031 7.960938 -13.207031 C 6.355469 -13.207031 5.21875 -12.289062 5.21875 -10.707031 L 5.21875 -5.5625 C 5.21875 -3.980469 6.355469 -3.066406 7.960938 -3.066406 C 9.59375 -3.066406 10.734375 -3.980469 10.734375 -5.5625 Z M 10.734375 -5.5625 "/></g></g></g><g fill="rgb(0%, 0%, 0%)" fill-opacity="1"><g transform="translate(188.822953, 254.777325)"><g><path d="M 14.316406 -16.273438 L 11.945312 -16.273438 C 11.5 -16.273438 11.226562 -16.125 11.226562 -15.554688 L 11.226562 -6.972656 L 5.984375 -15.429688 C 5.664062 -15.925781 5.488281 -16.273438 4.871094 -16.273438 L 2.546875 -16.273438 C 1.976562 -16.273438 1.828125 -16 1.828125 -15.554688 L 1.828125 -0.71875 C 1.828125 -0.148438 2.101562 0 2.546875 0 L 4.996094 0 C 5.441406 0 5.710938 -0.148438 5.710938 -0.71875 L 5.710938 -9.324219 L 10.957031 -0.839844 C 11.277344 -0.347656 11.449219 0 12.066406 0 L 14.316406 0 C 14.886719 0 15.035156 -0.273438 15.035156 -0.71875 L 15.035156 -15.554688 C 15.035156 -16.125 14.761719 -16.273438 14.316406 -16.273438 Z M 14.316406 -16.273438 "/></g></g></g><g fill="rgb(0%, 0%, 0%)" fill-opacity="1"><g transform="translate(208.947207, 254.777325)"><g><path d="M 8.902344 -3.386719 L 7.34375 -3.386719 L 7.34375 -12.835938 L 8.828125 -12.835938 C 9.398438 -12.835938 9.546875 -13.105469 9.546875 -13.550781 L 9.546875 -15.554688 C 9.546875 -16 9.398438 -16.273438 8.828125 -16.273438 L 1.953125 -16.273438 C 1.386719 -16.273438 1.238281 -16 1.238281 -15.554688 L 1.238281 -13.550781 C 1.238281 -13.105469 1.386719 -12.835938 1.953125 -12.835938 L 3.460938 -12.835938 L 3.460938 -3.386719 L 1.902344 -3.386719 C 1.335938 -3.386719 1.1875 -3.117188 1.1875 -2.671875 L 1.1875 -0.71875 C 1.1875 -0.273438 1.335938 0 1.902344 0 L 8.902344 0 C 9.472656 0 9.621094 -0.273438 9.621094 -0.71875 L 9.621094 -2.671875 C 9.621094 -3.117188 9.472656 -3.386719 8.902344 -3.386719 Z M 8.902344 -3.386719 "/></g></g></g><g fill="rgb(0%, 0%, 0%)" fill-opacity="1"><g transform="translate(223.187962, 254.777325)"><g><path d="M 14.613281 -5.21875 L 14.613281 -11.054688 C 14.613281 -14.960938 10.90625 -16.644531 7.960938 -16.644531 C 5.019531 -16.644531 1.359375 -14.960938 1.359375 -11.054688 L 1.359375 -5.21875 C 1.359375 -1.3125 5.019531 0.371094 7.960938 0.371094 C 10.90625 0.371094 14.613281 -1.3125 14.613281 -5.21875 Z M 10.734375 -10.707031 L 10.734375 -5.5625 C 10.734375 -3.980469 9.59375 -3.066406 7.960938 -3.066406 C 6.355469 -3.066406 5.21875 -3.980469 5.21875 -5.5625 L 5.21875 -10.707031 C 5.21875 -12.289062 6.355469 -13.207031 7.960938 -13.207031 C 9.59375 -13.207031 10.734375 -12.289062 10.734375 -10.707031 Z M 10.734375 -10.707031 "/></g></g></g><g fill="rgb(0%, 0%, 0%)" fill-opacity="1"><g transform="translate(242.397552, 254.777325)"><g><path d="M 9.496094 -9.445312 C 8.507812 -9.84375 4.871094 -10.386719 4.871094 -11.894531 C 4.871094 -13.007812 6.230469 -13.328125 7.046875 -13.328125 C 7.789062 -13.328125 8.679688 -13.105469 9.148438 -12.660156 C 9.445312 -12.363281 9.570312 -12.167969 9.667969 -11.917969 C 9.792969 -11.597656 9.867188 -11.25 10.335938 -11.25 L 12.761719 -11.25 C 13.328125 -11.25 13.476562 -11.351562 13.476562 -11.945312 C 13.476562 -15.207031 10.039062 -16.644531 6.898438 -16.644531 C 3.808594 -16.519531 0.890625 -14.9375 0.890625 -11.722656 C 0.890625 -8.582031 3.191406 -7.59375 5.6875 -6.800781 C 7.789062 -6.132812 9.992188 -6.109375 9.992188 -4.722656 C 9.992188 -3.339844 8.902344 -3.042969 7.566406 -3.042969 C 6.652344 -3.042969 5.636719 -3.265625 5.144531 -3.859375 C 4.820312 -4.230469 4.699219 -4.550781 4.675781 -4.871094 C 4.625 -5.488281 4.351562 -5.5625 3.785156 -5.5625 L 1.386719 -5.5625 C 0.816406 -5.5625 0.667969 -5.441406 0.667969 -4.871094 C 0.667969 -1.410156 4.230469 0.371094 7.320312 0.371094 C 11.128906 0.371094 13.898438 -1.3125 13.898438 -4.820312 C 13.898438 -8.183594 11.277344 -8.902344 9.496094 -9.445312 Z M 9.496094 -9.445312 "/></g></g></g><g fill="rgb(0%, 0%, 0%)" fill-opacity="1"><g transform="translate(260.618307, 254.777325)"><g><path d="M 3.488281 -5.117188 L 4.699219 -5.117188 C 5.265625 -5.117188 5.316406 -5.191406 5.390625 -5.835938 C 6.453125 -15.605469 6.480469 -15.679688 6.480469 -15.753906 C 6.480469 -16.199219 6.257812 -16.273438 5.738281 -16.273438 L 2.421875 -16.273438 C 1.929688 -16.273438 1.707031 -16.171875 1.707031 -15.753906 C 1.707031 -15.679688 1.730469 -15.605469 2.769531 -5.835938 C 2.84375 -5.21875 2.894531 -5.117188 3.488281 -5.117188 Z M 5.464844 -4.179688 L 2.71875 -4.179688 C 2.273438 -4.179688 2.003906 -4.03125 2.003906 -3.460938 L 2.003906 -0.71875 C 2.003906 -0.148438 2.273438 0 2.71875 0 L 5.464844 0 C 5.910156 0 6.183594 -0.148438 6.183594 -0.71875 L 6.183594 -3.460938 C 6.183594 -4.03125 5.910156 -4.179688 5.464844 -4.179688 Z M 5.464844 -4.179688 "/></g></g></g></svg>