<svg xmlns="http://www.w3.org/2000/svg" xmlns:xlink="http://www.w3.org/1999/xlink" width="480" zoomAndPan="magnify" viewBox="0 0 360 359.999987" height="480" preserveAspectRatio="xMidYMid meet" version="1.0"><defs><g/></defs><path fill="rgb(81.568909%, 100%, 87.838745%)" d="M 179.054688 0 C 80.164062 0 0 80.625 0 180.082031 C 0 279.535156 80.164062 360.160156 179.054688 360.160156 C 277.945312 360.160156 358.109375 279.535156 358.109375 180.082031 C 358.109375 80.625 277.945312 0 179.054688 0 " fill-opacity="1" fill-rule="nonzero"/><g fill="rgb(0%, 0%, 0%)" fill-opacity="1"><g transform="translate(98.000099, 136.720024)"><g><path d="M 13.367188 -8.394531 C 13.589844 -8.492188 15.164062 -9.28125 15.164062 -11.765625 C 15.164062 -14.082031 13.441406 -16.222656 9.429688 -16.222656 L 2.535156 -16.222656 C 1.96875 -16.222656 1.820312 -15.953125 1.820312 -15.507812 L 1.820312 -0.714844 C 1.820312 -0.269531 1.96875 0 2.535156 0 L 9.773438 0 C 13.195312 0 15.632812 -1.601562 15.632812 -4.726562 C 15.632812 -7.386719 13.566406 -8.320312 13.367188 -8.394531 Z M 9.824219 -3.496094 L 5.6875 -3.496094 L 5.6875 -12.753906 L 9.429688 -12.753906 C 10.707031 -12.753906 11.472656 -12.480469 11.472656 -11.375 C 11.472656 -10.414062 10.855469 -9.894531 9.429688 -9.894531 L 9.109375 -9.894531 C 8.542969 -9.894531 8.394531 -9.625 8.394531 -9.183594 L 8.394531 -7.3125 C 8.394531 -6.867188 8.542969 -6.597656 9.109375 -6.597656 L 9.675781 -6.597656 C 10.855469 -6.597656 11.71875 -6.253906 11.71875 -5.097656 C 11.71875 -3.988281 11.027344 -3.496094 9.824219 -3.496094 Z M 9.824219 -3.496094 "/></g></g></g><g fill="rgb(0%, 0%, 0%)" fill-opacity="1"><g transform="translate(118.152771, 136.720024)"><g><path d="M 15.753906 -0.6875 L 10.316406 -15.433594 C 10.09375 -15.953125 9.847656 -16.199219 9.304688 -16.199219 L 6.941406 -16.199219 C 6.402344 -16.199219 6.128906 -15.953125 5.933594 -15.433594 L 0.46875 -0.6875 C 0.34375 -0.394531 0.34375 0 0.886719 0 L 3.472656 0 C 4.011719 0 4.210938 -0.148438 4.40625 -0.738281 L 5.097656 -2.683594 L 11.128906 -2.683594 L 11.816406 -0.738281 C 12.011719 -0.148438 12.210938 0 12.753906 0 L 15.335938 0 C 15.878906 0 15.878906 -0.394531 15.753906 -0.6875 Z M 8.125 -11.570312 L 9.96875 -6.128906 L 6.277344 -6.128906 Z M 8.125 -11.570312 "/></g></g></g><g fill="rgb(0%, 0%, 0%)" fill-opacity="1"><g transform="translate(137.518151, 136.720024)"><g><path d="M 14.304688 -4.800781 C 14.304688 -5.390625 14.105469 -5.636719 13.566406 -5.636719 L 11.152344 -5.636719 C 10.609375 -5.636719 10.5625 -5.242188 10.488281 -4.75 C 10.289062 -3.570312 9.230469 -3.078125 7.902344 -3.078125 C 6.277344 -3.078125 5.167969 -3.964844 5.167969 -5.539062 L 5.167969 -10.660156 C 5.167969 -12.210938 6.277344 -13.121094 7.902344 -13.121094 C 9.230469 -13.121094 9.921875 -12.753906 10.4375 -11.941406 C 10.636719 -11.644531 10.660156 -11.175781 11.175781 -11.175781 L 13.539062 -11.175781 C 14.105469 -11.175781 14.304688 -11.300781 14.304688 -11.890625 C 13.984375 -15.015625 10.953125 -16.566406 7.902344 -16.566406 C 4.972656 -16.566406 1.304688 -14.871094 1.304688 -11.003906 L 1.304688 -5.195312 C 1.304688 -1.328125 4.972656 0.371094 7.902344 0.371094 C 10.953125 0.371094 14.304688 -1.625 14.304688 -4.800781 Z M 14.304688 -4.800781 "/></g></g></g><g fill="rgb(0%, 0%, 0%)" fill-opacity="1"><g transform="translate(156.317679, 136.720024)"><g><path d="M 12.777344 -16.199219 L 1.355469 -16.199219 C 0.789062 -16.199219 0.640625 -15.929688 0.640625 -15.484375 L 0.640625 -13.441406 C 0.640625 -13 0.789062 -12.726562 1.355469 -12.726562 L 5.144531 -12.726562 L 5.144531 -0.714844 C 5.144531 -0.148438 5.414062 0 5.859375 0 L 8.296875 0 C 8.738281 0 9.011719 -0.148438 9.011719 -0.714844 L 9.011719 -12.726562 L 12.777344 -12.726562 C 13.34375 -12.726562 13.492188 -13 13.492188 -13.441406 L 13.492188 -15.484375 C 13.492188 -15.929688 13.34375 -16.199219 12.777344 -16.199219 Z M 12.777344 -16.199219 "/></g></g></g><g fill="rgb(0%, 0%, 0%)" fill-opacity="1"><g transform="translate(173.690257, 136.720024)"><g><path d="M 6.253906 -17.625 L 8.664062 -17.625 C 9.28125 -17.625 9.476562 -17.972656 9.824219 -18.316406 L 12.285156 -20.972656 C 12.507812 -21.195312 12.433594 -21.664062 11.816406 -21.664062 L 8.691406 -21.664062 C 8.148438 -21.664062 7.953125 -21.589844 7.582031 -20.972656 L 5.933594 -18.316406 C 5.785156 -18.09375 5.785156 -17.625 6.253906 -17.625 Z M 13.566406 -3.445312 L 5.710938 -3.445312 L 5.710938 -6.695312 L 12.308594 -6.695312 C 12.875 -6.695312 13.023438 -6.96875 13.023438 -7.410156 L 13.023438 -9.332031 C 13.023438 -9.773438 12.875 -10.042969 12.308594 -10.042969 L 5.710938 -10.042969 L 5.710938 -12.726562 L 13.144531 -12.726562 C 13.710938 -12.726562 13.859375 -13 13.859375 -13.441406 L 13.859375 -15.484375 C 13.859375 -15.929688 13.710938 -16.199219 13.144531 -16.199219 L 2.535156 -16.199219 C 1.96875 -16.199219 1.820312 -15.929688 1.820312 -15.484375 L 1.820312 -0.714844 C 1.820312 -0.269531 1.96875 0 2.535156 0 L 13.566406 0 C 14.128906 0 14.277344 -0.269531 14.277344 -0.714844 L 14.277344 -2.734375 C 14.277344 -3.175781 14.128906 -3.445312 13.566406 -3.445312 Z M 13.566406 -3.445312 "/></g></g></g><g fill="rgb(0%, 0%, 0%)" fill-opacity="1"><g transform="translate(192.366761, 136.720024)"><g><path d="M 15.089844 -0.789062 L 11.621094 -5.835938 C 13.144531 -6.351562 15.042969 -8.148438 15.042969 -10.734375 C 15.042969 -12.308594 14.523438 -13.710938 13.613281 -14.597656 C 12.578125 -15.632812 11.398438 -16.175781 8.714844 -16.175781 L 2.511719 -16.175781 C 1.945312 -16.175781 1.820312 -15.902344 1.820312 -15.460938 L 1.820312 -0.714844 C 1.820312 -0.148438 2.066406 0 2.511719 0 L 4.949219 0 C 5.390625 0 5.664062 -0.148438 5.664062 -0.714844 L 5.664062 -12.726562 L 8.9375 -12.726562 C 10.214844 -12.726562 11.203125 -11.914062 11.203125 -10.636719 C 11.203125 -9.476562 10.070312 -8.640625 8.863281 -8.640625 L 8.371094 -8.640625 C 7.804688 -8.640625 7.65625 -8.371094 7.65625 -7.925781 L 7.65625 -5.957031 C 7.65625 -5.269531 7.707031 -4.996094 7.925781 -4.703125 L 10.585938 -0.738281 C 10.929688 -0.222656 11.226562 0 11.816406 0 L 14.722656 0 C 15.1875 0 15.3125 -0.441406 15.089844 -0.789062 Z M 15.089844 -0.789062 "/></g></g></g><g fill="rgb(0%, 0%, 0%)" fill-opacity="1"><g transform="translate(212.002764, 136.720024)"><g><path d="M 8.863281 -3.371094 L 7.3125 -3.371094 L 7.3125 -12.777344 L 8.789062 -12.777344 C 9.355469 -12.777344 9.503906 -13.046875 9.503906 -13.492188 L 9.503906 -15.484375 C 9.503906 -15.929688 9.355469 -16.199219 8.789062 -16.199219 L 1.945312 -16.199219 C 1.378906 -16.199219 1.230469 -15.929688 1.230469 -15.484375 L 1.230469 -13.492188 C 1.230469 -13.046875 1.378906 -12.777344 1.945312 -12.777344 L 3.445312 -12.777344 L 3.445312 -3.371094 L 1.894531 -3.371094 C 1.328125 -3.371094 1.183594 -3.101562 1.183594 -2.660156 L 1.183594 -0.714844 C 1.183594 -0.269531 1.328125 0 1.894531 0 L 8.863281 0 C 9.429688 0 9.578125 -0.269531 9.578125 -0.714844 L 9.578125 -2.660156 C 9.578125 -3.101562 9.429688 -3.371094 8.863281 -3.371094 Z M 8.863281 -3.371094 "/></g></g></g><g fill="rgb(0%, 0%, 0%)" fill-opacity="1"><g transform="translate(226.176994, 136.720024)"><g><path d="M 15.753906 -0.6875 L 10.316406 -15.433594 C 10.09375 -15.953125 9.847656 -16.199219 9.304688 -16.199219 L 6.941406 -16.199219 C 6.402344 -16.199219 6.128906 -15.953125 5.933594 -15.433594 L 0.46875 -0.6875 C 0.34375 -0.394531 0.34375 0 0.886719 0 L 3.472656 0 C 4.011719 0 4.210938 -0.148438 4.40625 -0.738281 L 5.097656 -2.683594 L 11.128906 -2.683594 L 11.816406 -0.738281 C 12.011719 -0.148438 12.210938 0 12.753906 0 L 15.335938 0 C 15.878906 0 15.878906 -0.394531 15.753906 -0.6875 Z M 8.125 -11.570312 L 9.96875 -6.128906 L 6.277344 -6.128906 Z M 8.125 -11.570312 "/></g></g></g><g fill="rgb(0%, 0%, 0%)" fill-opacity="1"><g transform="translate(245.542375, 136.720024)"><g><path d="M 9.453125 -9.402344 C 8.46875 -9.796875 4.851562 -10.339844 4.851562 -11.839844 C 4.851562 -12.949219 6.203125 -13.269531 7.015625 -13.269531 C 7.753906 -13.269531 8.640625 -13.046875 9.109375 -12.605469 C 9.402344 -12.308594 9.527344 -12.113281 9.625 -11.867188 C 9.75 -11.546875 9.824219 -11.203125 10.289062 -11.203125 L 12.703125 -11.203125 C 13.269531 -11.203125 13.417969 -11.300781 13.417969 -11.890625 C 13.417969 -15.140625 9.996094 -16.566406 6.867188 -16.566406 C 3.792969 -16.445312 0.886719 -14.871094 0.886719 -11.667969 C 0.886719 -8.542969 3.175781 -7.558594 5.664062 -6.769531 C 7.753906 -6.105469 9.945312 -6.082031 9.945312 -4.703125 C 9.945312 -3.324219 8.863281 -3.027344 7.53125 -3.027344 C 6.621094 -3.027344 5.613281 -3.25 5.121094 -3.839844 C 4.800781 -4.210938 4.675781 -4.53125 4.652344 -4.851562 C 4.605469 -5.464844 4.332031 -5.539062 3.765625 -5.539062 L 1.378906 -5.539062 C 0.8125 -5.539062 0.664062 -5.414062 0.664062 -4.851562 C 0.664062 -1.402344 4.210938 0.371094 7.285156 0.371094 C 11.078125 0.371094 13.835938 -1.304688 13.835938 -4.800781 C 13.835938 -8.148438 11.226562 -8.863281 9.453125 -9.402344 Z M 9.453125 -9.402344 "/></g></g></g><g fill="rgb(0%, 0%, 0%)" fill-opacity="1"><g transform="translate(67.053642, 170.725704)"><g><path d="M 12.777344 -16.199219 L 1.355469 -16.199219 C 0.789062 -16.199219 0.640625 -15.929688 0.640625 -15.484375 L 0.640625 -13.441406 C 0.640625 -13 0.789062 -12.726562 1.355469 -12.726562 L 5.144531 -12.726562 L 5.144531 -0.714844 C 5.144531 -0.148438 5.414062 0 5.859375 0 L 8.296875 0 C 8.738281 0 9.011719 -0.148438 9.011719 -0.714844 L 9.011719 -12.726562 L 12.777344 -12.726562 C 13.34375 -12.726562 13.492188 -13 13.492188 -13.441406 L 13.492188 -15.484375 C 13.492188 -15.929688 13.34375 -16.199219 12.777344 -16.199219 Z M 12.777344 -16.199219 "/></g></g></g><g fill="rgb(0%, 0%, 0%)" fill-opacity="1"><g transform="translate(84.42622, 170.725704)"><g><path d="M 15.753906 -0.6875 L 10.316406 -15.433594 C 10.09375 -15.953125 9.847656 -16.199219 9.304688 -16.199219 L 6.941406 -16.199219 C 6.402344 -16.199219 6.128906 -15.953125 5.933594 -15.433594 L 0.46875 -0.6875 C 0.34375 -0.394531 0.34375 0 0.886719 0 L 3.472656 0 C 4.011719 0 4.210938 -0.148438 4.40625 -0.738281 L 5.097656 -2.683594 L 11.128906 -2.683594 L 11.816406 -0.738281 C 12.011719 -0.148438 12.210938 0 12.753906 0 L 15.335938 0 C 15.878906 0 15.878906 -0.394531 15.753906 -0.6875 Z M 8.125 -11.570312 L 9.96875 -6.128906 L 6.277344 -6.128906 Z M 8.125 -11.570312 "/></g></g></g><g fill="rgb(0%, 0%, 0%)" fill-opacity="1"><g transform="translate(103.7916, 170.725704)"><g><path d="M 16.347656 -16.222656 L 13.984375 -16.222656 C 13.171875 -16.222656 13.046875 -15.683594 12.875 -15.386719 L 9.476562 -9.332031 L 6.105469 -15.386719 C 5.910156 -15.683594 5.808594 -16.222656 4.972656 -16.222656 L 2.535156 -16.222656 C 1.96875 -16.222656 1.820312 -15.953125 1.820312 -15.507812 L 1.820312 -0.714844 C 1.820312 -0.148438 2.09375 0 2.535156 0 L 4.972656 0 C 5.414062 0 5.6875 -0.148438 5.6875 -0.714844 L 5.6875 -9.058594 L 8.171875 -4.75 C 8.296875 -4.554688 8.492188 -4.234375 8.863281 -4.234375 L 10.09375 -4.234375 C 10.460938 -4.234375 10.683594 -4.554688 10.808594 -4.75 L 13.269531 -9.058594 L 13.269531 -0.714844 C 13.269531 -0.148438 13.539062 0 13.984375 0 L 16.347656 0 C 16.789062 0 17.058594 -0.148438 17.058594 -0.714844 L 17.058594 -15.507812 C 17.058594 -15.953125 16.914062 -16.222656 16.347656 -16.222656 Z M 16.347656 -16.222656 "/></g></g></g><g fill="rgb(0%, 0%, 0%)" fill-opacity="1"><g transform="translate(125.912467, 170.725704)"><g><path d="M 13.367188 -8.394531 C 13.589844 -8.492188 15.164062 -9.28125 15.164062 -11.765625 C 15.164062 -14.082031 13.441406 -16.222656 9.429688 -16.222656 L 2.535156 -16.222656 C 1.96875 -16.222656 1.820312 -15.953125 1.820312 -15.507812 L 1.820312 -0.714844 C 1.820312 -0.269531 1.96875 0 2.535156 0 L 9.773438 0 C 13.195312 0 15.632812 -1.601562 15.632812 -4.726562 C 15.632812 -7.386719 13.566406 -8.320312 13.367188 -8.394531 Z M 9.824219 -3.496094 L 5.6875 -3.496094 L 5.6875 -12.753906 L 9.429688 -12.753906 C 10.707031 -12.753906 11.472656 -12.480469 11.472656 -11.375 C 11.472656 -10.414062 10.855469 -9.894531 9.429688 -9.894531 L 9.109375 -9.894531 C 8.542969 -9.894531 8.394531 -9.625 8.394531 -9.183594 L 8.394531 -7.3125 C 8.394531 -6.867188 8.542969 -6.597656 9.109375 -6.597656 L 9.675781 -6.597656 C 10.855469 -6.597656 11.71875 -6.253906 11.71875 -5.097656 C 11.71875 -3.988281 11.027344 -3.496094 9.824219 -3.496094 Z M 9.824219 -3.496094 "/></g></g></g><g fill="rgb(0%, 0%, 0%)" fill-opacity="1"><g transform="translate(146.065139, 170.725704)"><g><path d="M 6.253906 -17.625 L 8.664062 -17.625 C 9.28125 -17.625 9.476562 -17.972656 9.824219 -18.316406 L 12.285156 -20.972656 C 12.507812 -21.195312 12.433594 -21.664062 11.816406 -21.664062 L 8.691406 -21.664062 C 8.148438 -21.664062 7.953125 -21.589844 7.582031 -20.972656 L 5.933594 -18.316406 C 5.785156 -18.09375 5.785156 -17.625 6.253906 -17.625 Z M 13.566406 -3.445312 L 5.710938 -3.445312 L 5.710938 -6.695312 L 12.308594 -6.695312 C 12.875 -6.695312 13.023438 -6.96875 13.023438 -7.410156 L 13.023438 -9.332031 C 13.023438 -9.773438 12.875 -10.042969 12.308594 -10.042969 L 5.710938 -10.042969 L 5.710938 -12.726562 L 13.144531 -12.726562 C 13.710938 -12.726562 13.859375 -13 13.859375 -13.441406 L 13.859375 -15.484375 C 13.859375 -15.929688 13.710938 -16.199219 13.144531 -16.199219 L 2.535156 -16.199219 C 1.96875 -16.199219 1.820312 -15.929688 1.820312 -15.484375 L 1.820312 -0.714844 C 1.820312 -0.269531 1.96875 0 2.535156 0 L 13.566406 0 C 14.128906 0 14.277344 -0.269531 14.277344 -0.714844 L 14.277344 -2.734375 C 14.277344 -3.175781 14.128906 -3.445312 13.566406 -3.445312 Z M 13.566406 -3.445312 "/></g></g></g><g fill="rgb(0%, 0%, 0%)" fill-opacity="1"><g transform="translate(164.741643, 170.725704)"><g><path d="M 16.347656 -16.222656 L 13.984375 -16.222656 C 13.171875 -16.222656 13.046875 -15.683594 12.875 -15.386719 L 9.476562 -9.332031 L 6.105469 -15.386719 C 5.910156 -15.683594 5.808594 -16.222656 4.972656 -16.222656 L 2.535156 -16.222656 C 1.96875 -16.222656 1.820312 -15.953125 1.820312 -15.507812 L 1.820312 -0.714844 C 1.820312 -0.148438 2.09375 0 2.535156 0 L 4.972656 0 C 5.414062 0 5.6875 -0.148438 5.6875 -0.714844 L 5.6875 -9.058594 L 8.171875 -4.75 C 8.296875 -4.554688 8.492188 -4.234375 8.863281 -4.234375 L 10.09375 -4.234375 C 10.460938 -4.234375 10.683594 -4.554688 10.808594 -4.75 L 13.269531 -9.058594 L 13.269531 -0.714844 C 13.269531 -0.148438 13.539062 0 13.984375 0 L 16.347656 0 C 16.789062 0 17.058594 -0.148438 17.058594 -0.714844 L 17.058594 -15.507812 C 17.058594 -15.953125 16.914062 -16.222656 16.347656 -16.222656 Z M 16.347656 -16.222656 "/></g></g></g><g fill="rgb(0%, 0%, 0%)" fill-opacity="1"><g transform="translate(186.86251, 170.725704)"><g/></g></g><g fill="rgb(0%, 0%, 0%)" fill-opacity="1"><g transform="translate(196.780496, 170.725704)"><g><path d="M 8.074219 -16.199219 L 2.535156 -16.199219 C 1.96875 -16.199219 1.820312 -15.929688 1.820312 -15.484375 L 1.820312 -0.714844 C 1.820312 -0.148438 2.09375 0 2.535156 0 L 4.972656 0 C 5.414062 0 5.6875 -0.148438 5.6875 -0.714844 L 5.6875 -4.800781 L 8.050781 -4.800781 C 12.261719 -4.800781 14.523438 -7.066406 14.523438 -10.488281 C 14.523438 -13.882812 12.308594 -16.199219 8.074219 -16.199219 Z M 8.050781 -8.125 L 5.6875 -8.125 L 5.6875 -12.726562 L 8.050781 -12.726562 C 9.96875 -12.726562 10.808594 -11.695312 10.808594 -10.414062 C 10.808594 -9.183594 9.96875 -8.125 8.050781 -8.125 Z M 8.050781 -8.125 "/></g></g></g><g fill="rgb(0%, 0%, 0%)" fill-opacity="1"><g transform="translate(215.481608, 170.725704)"><g><path d="M 14.550781 -5.195312 L 14.550781 -11.003906 C 14.550781 -14.894531 10.855469 -16.566406 7.925781 -16.566406 C 4.996094 -16.566406 1.355469 -14.894531 1.355469 -11.003906 L 1.355469 -5.195312 C 1.355469 -1.304688 4.996094 0.371094 7.925781 0.371094 C 10.855469 0.371094 14.550781 -1.304688 14.550781 -5.195312 Z M 10.683594 -10.660156 L 10.683594 -5.539062 C 10.683594 -3.964844 9.550781 -3.050781 7.925781 -3.050781 C 6.328125 -3.050781 5.195312 -3.964844 5.195312 -5.539062 L 5.195312 -10.660156 C 5.195312 -12.234375 6.328125 -13.144531 7.925781 -13.144531 C 9.550781 -13.144531 10.683594 -12.234375 10.683594 -10.660156 Z M 10.683594 -10.660156 "/></g></g></g><g fill="rgb(0%, 0%, 0%)" fill-opacity="1"><g transform="translate(234.60095, 170.725704)"><g><path d="M 8.050781 -16.199219 L 2.535156 -16.199219 C 1.96875 -16.199219 1.820312 -15.929688 1.820312 -15.484375 L 1.820312 -0.714844 C 1.820312 -0.269531 1.96875 0 2.535156 0 L 8.050781 0 C 10.980469 0 14.671875 -1.675781 14.671875 -5.539062 L 14.671875 -10.660156 C 14.671875 -14.5 10.980469 -16.199219 8.050781 -16.199219 Z M 10.808594 -10.316406 L 10.808594 -5.882812 C 10.808594 -4.308594 9.675781 -3.421875 8.050781 -3.421875 L 5.6875 -3.421875 L 5.6875 -12.777344 L 8.050781 -12.777344 C 9.675781 -12.777344 10.808594 -11.867188 10.808594 -10.316406 Z M 10.808594 -10.316406 "/></g></g></g><g fill="rgb(0%, 0%, 0%)" fill-opacity="1"><g transform="translate(253.843331, 170.725704)"><g><path d="M 13.566406 -3.445312 L 5.710938 -3.445312 L 5.710938 -6.695312 L 12.308594 -6.695312 C 12.875 -6.695312 13.023438 -6.96875 13.023438 -7.410156 L 13.023438 -9.332031 C 13.023438 -9.773438 12.875 -10.042969 12.308594 -10.042969 L 5.710938 -10.042969 L 5.710938 -12.726562 L 13.144531 -12.726562 C 13.710938 -12.726562 13.859375 -13 13.859375 -13.441406 L 13.859375 -15.484375 C 13.859375 -15.929688 13.710938 -16.199219 13.144531 -16.199219 L 2.535156 -16.199219 C 1.96875 -16.199219 1.820312 -15.929688 1.820312 -15.484375 L 1.820312 -0.714844 C 1.820312 -0.269531 1.96875 0 2.535156 0 L 13.566406 0 C 14.128906 0 14.277344 -0.269531 14.277344 -0.714844 L 14.277344 -2.734375 C 14.277344 -3.175781 14.128906 -3.445312 13.566406 -3.445312 Z M 13.566406 -3.445312 "/></g></g></g><g fill="rgb(0%, 0%, 0%)" fill-opacity="1"><g transform="translate(272.519844, 170.725704)"><g><path d="M 16.347656 -16.222656 L 13.984375 -16.222656 C 13.171875 -16.222656 13.046875 -15.683594 12.875 -15.386719 L 9.476562 -9.332031 L 6.105469 -15.386719 C 5.910156 -15.683594 5.808594 -16.222656 4.972656 -16.222656 L 2.535156 -16.222656 C 1.96875 -16.222656 1.820312 -15.953125 1.820312 -15.507812 L 1.820312 -0.714844 C 1.820312 -0.148438 2.09375 0 2.535156 0 L 4.972656 0 C 5.414062 0 5.6875 -0.148438 5.6875 -0.714844 L 5.6875 -9.058594 L 8.171875 -4.75 C 8.296875 -4.554688 8.492188 -4.234375 8.863281 -4.234375 L 10.09375 -4.234375 C 10.460938 -4.234375 10.683594 -4.554688 10.808594 -4.75 L 13.269531 -9.058594 L 13.269531 -0.714844 C 13.269531 -0.148438 13.539062 0 13.984375 0 L 16.347656 0 C 16.789062 0 17.058594 -0.148438 17.058594 -0.714844 L 17.058594 -15.507812 C 17.058594 -15.953125 16.914062 -16.222656 16.347656 -16.222656 Z M 16.347656 -16.222656 "/></g></g></g><g fill="rgb(0%, 0%, 0%)" fill-opacity="1"><g transform="translate(56.040439, 204.731384)"><g><path d="M 9.453125 -9.402344 C 8.46875 -9.796875 4.851562 -10.339844 4.851562 -11.839844 C 4.851562 -12.949219 6.203125 -13.269531 7.015625 -13.269531 C 7.753906 -13.269531 8.640625 -13.046875 9.109375 -12.605469 C 9.402344 -12.308594 9.527344 -12.113281 9.625 -11.867188 C 9.75 -11.546875 9.824219 -11.203125 10.289062 -11.203125 L 12.703125 -11.203125 C 13.269531 -11.203125 13.417969 -11.300781 13.417969 -11.890625 C 13.417969 -15.140625 9.996094 -16.566406 6.867188 -16.566406 C 3.792969 -16.445312 0.886719 -14.871094 0.886719 -11.667969 C 0.886719 -8.542969 3.175781 -7.558594 5.664062 -6.769531 C 7.753906 -6.105469 9.945312 -6.082031 9.945312 -4.703125 C 9.945312 -3.324219 8.863281 -3.027344 7.53125 -3.027344 C 6.621094 -3.027344 5.613281 -3.25 5.121094 -3.839844 C 4.800781 -4.210938 4.675781 -4.53125 4.652344 -4.851562 C 4.605469 -5.464844 4.332031 -5.539062 3.765625 -5.539062 L 1.378906 -5.539062 C 0.8125 -5.539062 0.664062 -5.414062 0.664062 -4.851562 C 0.664062 -1.402344 4.210938 0.371094 7.285156 0.371094 C 11.078125 0.371094 13.835938 -1.304688 13.835938 -4.800781 C 13.835938 -8.148438 11.226562 -8.863281 9.453125 -9.402344 Z M 9.453125 -9.402344 "/></g></g></g><g fill="rgb(0%, 0%, 0%)" fill-opacity="1"><g transform="translate(74.175683, 204.731384)"><g><path d="M 13.566406 -3.445312 L 5.710938 -3.445312 L 5.710938 -6.695312 L 12.308594 -6.695312 C 12.875 -6.695312 13.023438 -6.96875 13.023438 -7.410156 L 13.023438 -9.332031 C 13.023438 -9.773438 12.875 -10.042969 12.308594 -10.042969 L 5.710938 -10.042969 L 5.710938 -12.726562 L 13.144531 -12.726562 C 13.710938 -12.726562 13.859375 -13 13.859375 -13.441406 L 13.859375 -15.484375 C 13.859375 -15.929688 13.710938 -16.199219 13.144531 -16.199219 L 2.535156 -16.199219 C 1.96875 -16.199219 1.820312 -15.929688 1.820312 -15.484375 L 1.820312 -0.714844 C 1.820312 -0.269531 1.96875 0 2.535156 0 L 13.566406 0 C 14.128906 0 14.277344 -0.269531 14.277344 -0.714844 L 14.277344 -2.734375 C 14.277344 -3.175781 14.128906 -3.445312 13.566406 -3.445312 Z M 13.566406 -3.445312 "/></g></g></g><g fill="rgb(0%, 0%, 0%)" fill-opacity="1"><g transform="translate(92.852188, 204.731384)"><g><path d="M 15.089844 -0.789062 L 11.621094 -5.835938 C 13.144531 -6.351562 15.042969 -8.148438 15.042969 -10.734375 C 15.042969 -12.308594 14.523438 -13.710938 13.613281 -14.597656 C 12.578125 -15.632812 11.398438 -16.175781 8.714844 -16.175781 L 2.511719 -16.175781 C 1.945312 -16.175781 1.820312 -15.902344 1.820312 -15.460938 L 1.820312 -0.714844 C 1.820312 -0.148438 2.066406 0 2.511719 0 L 4.949219 0 C 5.390625 0 5.664062 -0.148438 5.664062 -0.714844 L 5.664062 -12.726562 L 8.9375 -12.726562 C 10.214844 -12.726562 11.203125 -11.914062 11.203125 -10.636719 C 11.203125 -9.476562 10.070312 -8.640625 8.863281 -8.640625 L 8.371094 -8.640625 C 7.804688 -8.640625 7.65625 -8.371094 7.65625 -7.925781 L 7.65625 -5.957031 C 7.65625 -5.269531 7.707031 -4.996094 7.925781 -4.703125 L 10.585938 -0.738281 C 10.929688 -0.222656 11.226562 0 11.816406 0 L 14.722656 0 C 15.1875 0 15.3125 -0.441406 15.089844 -0.789062 Z M 15.089844 -0.789062 "/></g></g></g><g fill="rgb(0%, 0%, 0%)" fill-opacity="1"><g transform="translate(112.488191, 204.731384)"><g/></g></g><g fill="rgb(0%, 0%, 0%)" fill-opacity="1"><g transform="translate(122.406176, 204.731384)"><g><path d="M 8.863281 -3.371094 L 7.3125 -3.371094 L 7.3125 -12.777344 L 8.789062 -12.777344 C 9.355469 -12.777344 9.503906 -13.046875 9.503906 -13.492188 L 9.503906 -15.484375 C 9.503906 -15.929688 9.355469 -16.199219 8.789062 -16.199219 L 1.945312 -16.199219 C 1.378906 -16.199219 1.230469 -15.929688 1.230469 -15.484375 L 1.230469 -13.492188 C 1.230469 -13.046875 1.378906 -12.777344 1.945312 -12.777344 L 3.445312 -12.777344 L 3.445312 -3.371094 L 1.894531 -3.371094 C 1.328125 -3.371094 1.183594 -3.101562 1.183594 -2.660156 L 1.183594 -0.714844 C 1.183594 -0.269531 1.328125 0 1.894531 0 L 8.863281 0 C 9.429688 0 9.578125 -0.269531 9.578125 -0.714844 L 9.578125 -2.660156 C 9.578125 -3.101562 9.429688 -3.371094 8.863281 -3.371094 Z M 8.863281 -3.371094 "/></g></g></g><g fill="rgb(0%, 0%, 0%)" fill-opacity="1"><g transform="translate(136.580406, 204.731384)"><g><path d="M 14.253906 -16.199219 L 11.890625 -16.199219 C 11.449219 -16.199219 11.175781 -16.050781 11.175781 -15.484375 L 11.175781 -6.941406 L 5.957031 -15.363281 C 5.636719 -15.855469 5.464844 -16.199219 4.851562 -16.199219 L 2.535156 -16.199219 C 1.96875 -16.199219 1.820312 -15.929688 1.820312 -15.484375 L 1.820312 -0.714844 C 1.820312 -0.148438 2.09375 0 2.535156 0 L 4.972656 0 C 5.414062 0 5.6875 -0.148438 5.6875 -0.714844 L 5.6875 -9.28125 L 10.90625 -0.835938 C 11.226562 -0.34375 11.398438 0 12.011719 0 L 14.253906 0 C 14.820312 0 14.96875 -0.269531 14.96875 -0.714844 L 14.96875 -15.484375 C 14.96875 -16.050781 14.695312 -16.199219 14.253906 -16.199219 Z M 14.253906 -16.199219 "/></g></g></g><g fill="rgb(0%, 0%, 0%)" fill-opacity="1"><g transform="translate(156.610055, 204.731384)"><g><path d="M 13.121094 -16.199219 L 2.535156 -16.199219 C 1.96875 -16.199219 1.820312 -15.929688 1.820312 -15.484375 L 1.820312 -0.714844 C 1.820312 -0.269531 1.96875 0 2.535156 0 L 4.972656 0 C 5.539062 0 5.6875 -0.0976562 5.6875 -0.738281 L 5.6875 -6.5 L 12.085938 -6.5 C 12.652344 -6.5 12.800781 -6.769531 12.800781 -7.214844 L 12.800781 -9.15625 C 12.800781 -9.601562 12.652344 -9.871094 12.085938 -9.871094 L 5.6875 -9.871094 L 5.6875 -12.753906 L 13.121094 -12.753906 C 13.6875 -12.753906 13.835938 -13.023438 13.835938 -13.464844 L 13.835938 -15.484375 C 13.835938 -15.929688 13.6875 -16.199219 13.121094 -16.199219 Z M 13.121094 -16.199219 "/></g></g></g><g fill="rgb(0%, 0%, 0%)" fill-opacity="1"><g transform="translate(174.671492, 204.731384)"><g><path d="M 13.566406 -3.445312 L 5.710938 -3.445312 L 5.710938 -6.695312 L 12.308594 -6.695312 C 12.875 -6.695312 13.023438 -6.96875 13.023438 -7.410156 L 13.023438 -9.332031 C 13.023438 -9.773438 12.875 -10.042969 12.308594 -10.042969 L 5.710938 -10.042969 L 5.710938 -12.726562 L 13.144531 -12.726562 C 13.710938 -12.726562 13.859375 -13 13.859375 -13.441406 L 13.859375 -15.484375 C 13.859375 -15.929688 13.710938 -16.199219 13.144531 -16.199219 L 2.535156 -16.199219 C 1.96875 -16.199219 1.820312 -15.929688 1.820312 -15.484375 L 1.820312 -0.714844 C 1.820312 -0.269531 1.96875 0 2.535156 0 L 13.566406 0 C 14.128906 0 14.277344 -0.269531 14.277344 -0.714844 L 14.277344 -2.734375 C 14.277344 -3.175781 14.128906 -3.445312 13.566406 -3.445312 Z M 13.566406 -3.445312 "/></g></g></g><g fill="rgb(0%, 0%, 0%)" fill-opacity="1"><g transform="translate(193.347996, 204.731384)"><g><path d="M 14.304688 -4.800781 C 14.304688 -5.390625 14.105469 -5.636719 13.566406 -5.636719 L 11.152344 -5.636719 C 10.609375 -5.636719 10.5625 -5.242188 10.488281 -4.75 C 10.289062 -3.570312 9.230469 -3.078125 7.902344 -3.078125 C 6.277344 -3.078125 5.167969 -3.964844 5.167969 -5.539062 L 5.167969 -10.660156 C 5.167969 -12.210938 6.277344 -13.121094 7.902344 -13.121094 C 9.230469 -13.121094 9.921875 -12.753906 10.4375 -11.941406 C 10.636719 -11.644531 10.660156 -11.175781 11.175781 -11.175781 L 13.539062 -11.175781 C 14.105469 -11.175781 14.304688 -11.300781 14.304688 -11.890625 C 13.984375 -15.015625 10.953125 -16.566406 7.902344 -16.566406 C 4.972656 -16.566406 1.304688 -14.871094 1.304688 -11.003906 L 1.304688 -5.195312 C 1.304688 -1.328125 4.972656 0.371094 7.902344 0.371094 C 10.953125 0.371094 14.304688 -1.625 14.304688 -4.800781 Z M 14.304688 -4.800781 "/></g></g></g><g fill="rgb(0%, 0%, 0%)" fill-opacity="1"><g transform="translate(212.147517, 204.731384)"><g><path d="M 12.777344 -16.199219 L 1.355469 -16.199219 C 0.789062 -16.199219 0.640625 -15.929688 0.640625 -15.484375 L 0.640625 -13.441406 C 0.640625 -13 0.789062 -12.726562 1.355469 -12.726562 L 5.144531 -12.726562 L 5.144531 -0.714844 C 5.144531 -0.148438 5.414062 0 5.859375 0 L 8.296875 0 C 8.738281 0 9.011719 -0.148438 9.011719 -0.714844 L 9.011719 -12.726562 L 12.777344 -12.726562 C 13.34375 -12.726562 13.492188 -13 13.492188 -13.441406 L 13.492188 -15.484375 C 13.492188 -15.929688 13.34375 -16.199219 12.777344 -16.199219 Z M 12.777344 -16.199219 "/></g></g></g><g fill="rgb(0%, 0%, 0%)" fill-opacity="1"><g transform="translate(229.520086, 204.731384)"><g><path d="M 15.753906 -0.6875 L 10.316406 -15.433594 C 10.09375 -15.953125 9.847656 -16.199219 9.304688 -16.199219 L 6.941406 -16.199219 C 6.402344 -16.199219 6.128906 -15.953125 5.933594 -15.433594 L 0.46875 -0.6875 C 0.34375 -0.394531 0.34375 0 0.886719 0 L 3.472656 0 C 4.011719 0 4.210938 -0.148438 4.40625 -0.738281 L 5.097656 -2.683594 L 11.128906 -2.683594 L 11.816406 -0.738281 C 12.011719 -0.148438 12.210938 0 12.753906 0 L 15.335938 0 C 15.878906 0 15.878906 -0.394531 15.753906 -0.6875 Z M 8.125 -11.570312 L 9.96875 -6.128906 L 6.277344 -6.128906 Z M 8.125 -11.570312 "/></g></g></g><g fill="rgb(0%, 0%, 0%)" fill-opacity="1"><g transform="translate(248.88546, 204.731384)"><g><path d="M 8.050781 -16.199219 L 2.535156 -16.199219 C 1.96875 -16.199219 1.820312 -15.929688 1.820312 -15.484375 L 1.820312 -0.714844 C 1.820312 -0.269531 1.96875 0 2.535156 0 L 8.050781 0 C 10.980469 0 14.671875 -1.675781 14.671875 -5.539062 L 14.671875 -10.660156 C 14.671875 -14.5 10.980469 -16.199219 8.050781 -16.199219 Z M 10.808594 -10.316406 L 10.808594 -5.882812 C 10.808594 -4.308594 9.675781 -3.421875 8.050781 -3.421875 L 5.6875 -3.421875 L 5.6875 -12.777344 L 8.050781 -12.777344 C 9.675781 -12.777344 10.808594 -11.867188 10.808594 -10.316406 Z M 10.808594 -10.316406 "/></g></g></g><g fill="rgb(0%, 0%, 0%)" fill-opacity="1"><g transform="translate(268.127841, 204.731384)"><g><path d="M 15.753906 -0.6875 L 10.316406 -15.433594 C 10.09375 -15.953125 9.847656 -16.199219 9.304688 -16.199219 L 6.941406 -16.199219 C 6.402344 -16.199219 6.128906 -15.953125 5.933594 -15.433594 L 0.46875 -0.6875 C 0.34375 -0.394531 0.34375 0 0.886719 0 L 3.472656 0 C 4.011719 0 4.210938 -0.148438 4.40625 -0.738281 L 5.097656 -2.683594 L 11.128906 -2.683594 L 11.816406 -0.738281 C 12.011719 -0.148438 12.210938 0 12.753906 0 L 15.335938 0 C 15.878906 0 15.878906 -0.394531 15.753906 -0.6875 Z M 8.125 -11.570312 L 9.96875 -6.128906 L 6.277344 -6.128906 Z M 8.125 -11.570312 "/></g></g></g><g fill="rgb(0%, 0%, 0%)" fill-opacity="1"><g transform="translate(287.493214, 204.731384)"><g><path d="M 9.453125 -9.402344 C 8.46875 -9.796875 4.851562 -10.339844 4.851562 -11.839844 C 4.851562 -12.949219 6.203125 -13.269531 7.015625 -13.269531 C 7.753906 -13.269531 8.640625 -13.046875 9.109375 -12.605469 C 9.402344 -12.308594 9.527344 -12.113281 9.625 -11.867188 C 9.75 -11.546875 9.824219 -11.203125 10.289062 -11.203125 L 12.703125 -11.203125 C 13.269531 -11.203125 13.417969 -11.300781 13.417969 -11.890625 C 13.417969 -15.140625 9.996094 -16.566406 6.867188 -16.566406 C 3.792969 -16.445312 0.886719 -14.871094 0.886719 -11.667969 C 0.886719 -8.542969 3.175781 -7.558594 5.664062 -6.769531 C 7.753906 -6.105469 9.945312 -6.082031 9.945312 -4.703125 C 9.945312 -3.324219 8.863281 -3.027344 7.53125 -3.027344 C 6.621094 -3.027344 5.613281 -3.25 5.121094 -3.839844 C 4.800781 -4.210938 4.675781 -4.53125 4.652344 -4.851562 C 4.605469 -5.464844 4.332031 -5.539062 3.765625 -5.539062 L 1.378906 -5.539062 C 0.8125 -5.539062 0.664062 -5.414062 0.664062 -4.851562 C 0.664062 -1.402344 4.210938 0.371094 7.285156 0.371094 C 11.078125 0.371094 13.835938 -1.304688 13.835938 -4.800781 C 13.835938 -8.148438 11.226562 -8.863281 9.453125 -9.402344 Z M 9.453125 -9.402344 "/></g></g></g><g fill="rgb(0%, 0%, 0%)" fill-opacity="1"><g transform="translate(95.890845, 238.737064)"><g><path d="M 8.074219 -16.199219 L 2.535156 -16.199219 C 1.96875 -16.199219 1.820312 -15.929688 1.820312 -15.484375 L 1.820312 -0.714844 C 1.820312 -0.148438 2.09375 0 2.535156 0 L 4.972656 0 C 5.414062 0 5.6875 -0.148438 5.6875 -0.714844 L 5.6875 -4.800781 L 8.050781 -4.800781 C 12.261719 -4.800781 14.523438 -7.066406 14.523438 -10.488281 C 14.523438 -13.882812 12.308594 -16.199219 8.074219 -16.199219 Z M 8.050781 -8.125 L 5.6875 -8.125 L 5.6875 -12.726562 L 8.050781 -12.726562 C 9.96875 -12.726562 10.808594 -11.695312 10.808594 -10.414062 C 10.808594 -9.183594 9.96875 -8.125 8.050781 -8.125 Z M 8.050781 -8.125 "/></g></g></g><g fill="rgb(0%, 0%, 0%)" fill-opacity="1"><g transform="translate(114.591958, 238.737064)"><g><path d="M 14.550781 -5.195312 L 14.550781 -11.003906 C 14.550781 -14.894531 10.855469 -16.566406 7.925781 -16.566406 C 4.996094 -16.566406 1.355469 -14.894531 1.355469 -11.003906 L 1.355469 -5.195312 C 1.355469 -1.304688 4.996094 0.371094 7.925781 0.371094 C 10.855469 0.371094 14.550781 -1.304688 14.550781 -5.195312 Z M 10.683594 -10.660156 L 10.683594 -5.539062 C 10.683594 -3.964844 9.550781 -3.050781 7.925781 -3.050781 C 6.328125 -3.050781 5.195312 -3.964844 5.195312 -5.539062 L 5.195312 -10.660156 C 5.195312 -12.234375 6.328125 -13.144531 7.925781 -13.144531 C 9.550781 -13.144531 10.683594 -12.234375 10.683594 -10.660156 Z M 10.683594 -10.660156 "/></g></g></g><g fill="rgb(0%, 0%, 0%)" fill-opacity="1"><g transform="translate(133.711308, 238.737064)"><g><path d="M 15.089844 -0.789062 L 11.621094 -5.835938 C 13.144531 -6.351562 15.042969 -8.148438 15.042969 -10.734375 C 15.042969 -12.308594 14.523438 -13.710938 13.613281 -14.597656 C 12.578125 -15.632812 11.398438 -16.175781 8.714844 -16.175781 L 2.511719 -16.175781 C 1.945312 -16.175781 1.820312 -15.902344 1.820312 -15.460938 L 1.820312 -0.714844 C 1.820312 -0.148438 2.066406 0 2.511719 0 L 4.949219 0 C 5.390625 0 5.664062 -0.148438 5.664062 -0.714844 L 5.664062 -12.726562 L 8.9375 -12.726562 C 10.214844 -12.726562 11.203125 -11.914062 11.203125 -10.636719 C 11.203125 -9.476562 10.070312 -8.640625 8.863281 -8.640625 L 8.371094 -8.640625 C 7.804688 -8.640625 7.65625 -8.371094 7.65625 -7.925781 L 7.65625 -5.957031 C 7.65625 -5.269531 7.707031 -4.996094 7.925781 -4.703125 L 10.585938 -0.738281 C 10.929688 -0.222656 11.226562 0 11.816406 0 L 14.722656 0 C 15.1875 0 15.3125 -0.441406 15.089844 -0.789062 Z M 15.089844 -0.789062 "/></g></g></g><g fill="rgb(0%, 0%, 0%)" fill-opacity="1"><g transform="translate(153.347311, 238.737064)"><g/></g></g><g fill="rgb(0%, 0%, 0%)" fill-opacity="1"><g transform="translate(163.265296, 238.737064)"><g><path d="M 14.746094 -16.199219 L 12.136719 -16.199219 C 11.472656 -16.199219 11.300781 -16 11.101562 -15.410156 L 7.78125 -5.21875 L 4.429688 -15.410156 C 4.234375 -16 4.0625 -16.199219 3.421875 -16.199219 L 0.6875 -16.199219 C 0.222656 -16.199219 0.125 -15.804688 0.246094 -15.484375 L 5.539062 -0.738281 C 5.835938 -0.0976562 6.007812 0 6.546875 0 L 8.910156 0 C 9.453125 0 9.625 -0.0976562 9.921875 -0.738281 L 15.1875 -15.484375 C 15.3125 -15.804688 15.214844 -16.199219 14.746094 -16.199219 Z M 14.746094 -16.199219 "/></g></g></g><g fill="rgb(0%, 0%, 0%)" fill-opacity="1"><g transform="translate(182.163224, 238.737064)"><g><path d="M 4.382812 -17.625 L 6.792969 -17.625 C 7.410156 -17.625 7.605469 -17.972656 7.953125 -18.316406 L 10.414062 -20.972656 C 10.636719 -21.195312 10.5625 -21.664062 9.945312 -21.664062 L 6.820312 -21.664062 C 6.277344 -21.664062 6.082031 -21.589844 5.710938 -20.972656 L 4.0625 -18.316406 C 3.914062 -18.09375 3.914062 -17.625 4.382812 -17.625 Z M 9.75 -3.445312 L 7.851562 -3.445312 L 7.851562 -12.753906 L 9.332031 -12.753906 C 9.894531 -12.753906 10.042969 -13.023438 10.042969 -13.464844 L 10.042969 -15.484375 C 10.042969 -15.929688 9.894531 -16.199219 9.332031 -16.199219 L 2.488281 -16.199219 C 1.921875 -16.199219 1.773438 -15.929688 1.773438 -15.484375 L 1.773438 -13.464844 C 1.773438 -13.023438 1.921875 -12.753906 2.488281 -12.753906 L 3.988281 -12.753906 L 3.988281 -3.445312 L 2.09375 -3.445312 C 1.527344 -3.445312 1.378906 -3.175781 1.378906 -2.734375 L 1.378906 -0.714844 C 1.378906 -0.269531 1.527344 0 2.09375 0 L 9.75 0 C 10.316406 0 10.460938 -0.269531 10.460938 -0.714844 L 10.460938 -2.734375 C 10.460938 -3.175781 10.316406 -3.445312 9.75 -3.445312 Z M 9.75 -3.445312 "/></g></g></g><g fill="rgb(0%, 0%, 0%)" fill-opacity="1"><g transform="translate(197.32156, 238.737064)"><g><path d="M 15.089844 -0.789062 L 11.621094 -5.835938 C 13.144531 -6.351562 15.042969 -8.148438 15.042969 -10.734375 C 15.042969 -12.308594 14.523438 -13.710938 13.613281 -14.597656 C 12.578125 -15.632812 11.398438 -16.175781 8.714844 -16.175781 L 2.511719 -16.175781 C 1.945312 -16.175781 1.820312 -15.902344 1.820312 -15.460938 L 1.820312 -0.714844 C 1.820312 -0.148438 2.066406 0 2.511719 0 L 4.949219 0 C 5.390625 0 5.664062 -0.148438 5.664062 -0.714844 L 5.664062 -12.726562 L 8.9375 -12.726562 C 10.214844 -12.726562 11.203125 -11.914062 11.203125 -10.636719 C 11.203125 -9.476562 10.070312 -8.640625 8.863281 -8.640625 L 8.371094 -8.640625 C 7.804688 -8.640625 7.65625 -8.371094 7.65625 -7.925781 L 7.65625 -5.957031 C 7.65625 -5.269531 7.707031 -4.996094 7.925781 -4.703125 L 10.585938 -0.738281 C 10.929688 -0.222656 11.226562 0 11.816406 0 L 14.722656 0 C 15.1875 0 15.3125 -0.441406 15.089844 -0.789062 Z M 15.089844 -0.789062 "/></g></g></g><g fill="rgb(0%, 0%, 0%)" fill-opacity="1"><g transform="translate(216.957563, 238.737064)"><g><path d="M 13.933594 -16.199219 L 11.496094 -16.199219 C 11.054688 -16.199219 10.78125 -16.050781 10.78125 -15.484375 L 10.78125 -5.488281 C 10.78125 -3.9375 9.75 -3.050781 8.125 -3.050781 C 6.5 -3.050781 5.488281 -3.9375 5.488281 -5.488281 L 5.488281 -15.484375 C 5.488281 -16.050781 5.21875 -16.199219 4.777344 -16.199219 L 2.339844 -16.199219 C 1.894531 -16.199219 1.625 -16.050781 1.625 -15.484375 L 1.625 -4.949219 C 1.625 -1.082031 5.195312 0.371094 8.125 0.371094 C 11.054688 0.371094 14.648438 -1.082031 14.648438 -4.949219 L 14.648438 -15.484375 C 14.648438 -16.050781 14.375 -16.199219 13.933594 -16.199219 Z M 13.933594 -16.199219 "/></g></g></g><g fill="rgb(0%, 0%, 0%)" fill-opacity="1"><g transform="translate(236.470559, 238.737064)"><g><path d="M 9.453125 -9.402344 C 8.46875 -9.796875 4.851562 -10.339844 4.851562 -11.839844 C 4.851562 -12.949219 6.203125 -13.269531 7.015625 -13.269531 C 7.753906 -13.269531 8.640625 -13.046875 9.109375 -12.605469 C 9.402344 -12.308594 9.527344 -12.113281 9.625 -11.867188 C 9.75 -11.546875 9.824219 -11.203125 10.289062 -11.203125 L 12.703125 -11.203125 C 13.269531 -11.203125 13.417969 -11.300781 13.417969 -11.890625 C 13.417969 -15.140625 9.996094 -16.566406 6.867188 -16.566406 C 3.792969 -16.445312 0.886719 -14.871094 0.886719 -11.667969 C 0.886719 -8.542969 3.175781 -7.558594 5.664062 -6.769531 C 7.753906 -6.105469 9.945312 -6.082031 9.945312 -4.703125 C 9.945312 -3.324219 8.863281 -3.027344 7.53125 -3.027344 C 6.621094 -3.027344 5.613281 -3.25 5.121094 -3.839844 C 4.800781 -4.210938 4.675781 -4.53125 4.652344 -4.851562 C 4.605469 -5.464844 4.332031 -5.539062 3.765625 -5.539062 L 1.378906 -5.539062 C 0.8125 -5.539062 0.664062 -5.414062 0.664062 -4.851562 C 0.664062 -1.402344 4.210938 0.371094 7.285156 0.371094 C 11.078125 0.371094 13.835938 -1.304688 13.835938 -4.800781 C 13.835938 -8.148438 11.226562 -8.863281 9.453125 -9.402344 Z M 9.453125 -9.402344 "/></g></g></g><g fill="rgb(0%, 0%, 0%)" fill-opacity="1"><g transform="translate(254.605812, 238.737064)"><g><path d="M 3.472656 -5.097656 L 4.675781 -5.097656 C 5.242188 -5.097656 5.292969 -5.167969 5.367188 -5.808594 C 6.425781 -15.535156 6.449219 -15.609375 6.449219 -15.683594 C 6.449219 -16.125 6.226562 -16.199219 5.710938 -16.199219 L 2.414062 -16.199219 C 1.921875 -16.199219 1.699219 -16.101562 1.699219 -15.683594 C 1.699219 -15.609375 1.722656 -15.535156 2.757812 -5.808594 C 2.832031 -5.195312 2.878906 -5.097656 3.472656 -5.097656 Z M 5.441406 -4.160156 L 2.707031 -4.160156 C 2.265625 -4.160156 1.992188 -4.011719 1.992188 -3.445312 L 1.992188 -0.714844 C 1.992188 -0.148438 2.265625 0 2.707031 0 L 5.441406 0 C 5.882812 0 6.15625 -0.148438 6.15625 -0.714844 L 6.15625 -3.445312 C 6.15625 -4.011719 5.882812 -4.160156 5.441406 -4.160156 Z M 5.441406 -4.160156 "/></g></g></g></svg>