<svg xmlns="http://www.w3.org/2000/svg" xmlns:xlink="http://www.w3.org/1999/xlink" width="480" zoomAndPan="magnify" viewBox="0 0 360 359.999987" height="480" preserveAspectRatio="xMidYMid meet" version="1.0"><defs><g/></defs><path fill="rgb(10.198975%, 74.119568%, 61.569214%)" d="M 179.984375 0 C 81.054688 0 0.855469 80.648438 0.855469 180.136719 C 0.855469 279.625 81.054688 360.273438 179.984375 360.273438 C 278.914062 360.273438 359.109375 279.625 359.109375 180.136719 C 359.109375 80.648438 278.914062 0 179.984375 0 " fill-opacity="1" fill-rule="nonzero"/><g fill="rgb(0%, 0%, 0%)" fill-opacity="1"><g transform="translate(69.73685, 120.424349)"><g><path d="M 15.5 -0.679688 L 10.148438 -15.183594 C 9.929688 -15.691406 9.6875 -15.933594 9.152344 -15.933594 L 6.828125 -15.933594 C 6.296875 -15.933594 6.03125 -15.691406 5.835938 -15.183594 L 0.460938 -0.679688 C 0.339844 -0.386719 0.339844 0 0.871094 0 L 3.414062 0 C 3.949219 0 4.140625 -0.144531 4.335938 -0.726562 L 5.011719 -2.640625 L 10.945312 -2.640625 L 11.625 -0.726562 C 11.816406 -0.144531 12.011719 0 12.542969 0 L 15.085938 0 C 15.621094 0 15.621094 -0.386719 15.5 -0.679688 Z M 7.992188 -11.382812 L 9.808594 -6.03125 L 6.175781 -6.03125 Z M 7.992188 -11.382812 "/></g></g></g><g fill="rgb(0%, 0%, 0%)" fill-opacity="1"><g transform="translate(88.79202, 120.424349)"><g/></g></g><g fill="rgb(0%, 0%, 0%)" fill-opacity="1"><g transform="translate(98.550216, 120.424349)"><g><path d="M 16.082031 -15.960938 L 13.753906 -15.960938 C 12.957031 -15.960938 12.835938 -15.425781 12.664062 -15.136719 L 9.324219 -9.179688 L 6.007812 -15.136719 C 5.8125 -15.425781 5.714844 -15.960938 4.890625 -15.960938 L 2.496094 -15.960938 C 1.9375 -15.960938 1.792969 -15.691406 1.792969 -15.257812 L 1.792969 -0.703125 C 1.792969 -0.144531 2.058594 0 2.496094 0 L 4.890625 0 C 5.328125 0 5.59375 -0.144531 5.59375 -0.703125 L 5.59375 -8.910156 L 8.039062 -4.675781 C 8.160156 -4.480469 8.355469 -4.164062 8.71875 -4.164062 L 9.929688 -4.164062 C 10.292969 -4.164062 10.511719 -4.480469 10.632812 -4.675781 L 13.054688 -8.910156 L 13.054688 -0.703125 C 13.054688 -0.144531 13.320312 0 13.753906 0 L 16.082031 0 C 16.515625 0 16.78125 -0.144531 16.78125 -0.703125 L 16.78125 -15.257812 C 16.78125 -15.691406 16.636719 -15.960938 16.082031 -15.960938 Z M 16.082031 -15.960938 "/></g></g></g><g fill="rgb(0%, 0%, 0%)" fill-opacity="1"><g transform="translate(120.316997, 120.424349)"><g><path d="M 15.5 -0.679688 L 10.148438 -15.183594 C 9.929688 -15.691406 9.6875 -15.933594 9.152344 -15.933594 L 6.828125 -15.933594 C 6.296875 -15.933594 6.03125 -15.691406 5.835938 -15.183594 L 0.460938 -0.679688 C 0.339844 -0.386719 0.339844 0 0.871094 0 L 3.414062 0 C 3.949219 0 4.140625 -0.144531 4.335938 -0.726562 L 5.011719 -2.640625 L 10.945312 -2.640625 L 11.625 -0.726562 C 11.816406 -0.144531 12.011719 0 12.542969 0 L 15.085938 0 C 15.621094 0 15.621094 -0.386719 15.5 -0.679688 Z M 7.992188 -11.382812 L 9.808594 -6.03125 L 6.175781 -6.03125 Z M 7.992188 -11.382812 "/></g></g></g><g fill="rgb(0%, 0%, 0%)" fill-opacity="1"><g transform="translate(139.372164, 120.424349)"><g><path d="M 8.71875 -3.316406 L 7.191406 -3.316406 L 7.191406 -12.570312 L 8.644531 -12.570312 C 9.203125 -12.570312 9.347656 -12.835938 9.347656 -13.269531 L 9.347656 -15.234375 C 9.347656 -15.667969 9.203125 -15.933594 8.644531 -15.933594 L 1.914062 -15.933594 C 1.355469 -15.933594 1.210938 -15.667969 1.210938 -15.234375 L 1.210938 -13.269531 C 1.210938 -12.835938 1.355469 -12.570312 1.914062 -12.570312 L 3.390625 -12.570312 L 3.390625 -3.316406 L 1.863281 -3.316406 C 1.308594 -3.316406 1.164062 -3.050781 1.164062 -2.617188 L 1.164062 -0.703125 C 1.164062 -0.265625 1.308594 0 1.863281 0 L 8.71875 0 C 9.273438 0 9.421875 -0.265625 9.421875 -0.703125 L 9.421875 -2.617188 C 9.421875 -3.050781 9.273438 -3.316406 8.71875 -3.316406 Z M 8.71875 -3.316406 "/></g></g></g><g fill="rgb(0%, 0%, 0%)" fill-opacity="1"><g transform="translate(153.318837, 120.424349)"><g><path d="M 14.3125 -5.109375 L 14.3125 -10.824219 C 14.3125 -14.652344 10.679688 -16.296875 7.796875 -16.296875 C 4.917969 -16.296875 1.332031 -14.652344 1.332031 -10.824219 L 1.332031 -5.109375 C 1.332031 -1.285156 4.917969 0.363281 7.796875 0.363281 C 10.679688 0.363281 14.3125 -1.285156 14.3125 -5.109375 Z M 10.511719 -10.484375 L 10.511719 -5.449219 C 10.511719 -3.898438 9.394531 -3.003906 7.796875 -3.003906 C 6.222656 -3.003906 5.109375 -3.898438 5.109375 -5.449219 L 5.109375 -10.484375 C 5.109375 -12.035156 6.222656 -12.933594 7.796875 -12.933594 C 9.394531 -12.933594 10.511719 -12.035156 10.511719 -10.484375 Z M 10.511719 -10.484375 "/></g></g></g><g fill="rgb(0%, 0%, 0%)" fill-opacity="1"><g transform="translate(172.131893, 120.424349)"><g><path d="M 14.84375 -0.773438 L 11.429688 -5.738281 C 12.933594 -6.25 14.796875 -8.015625 14.796875 -10.558594 C 14.796875 -12.109375 14.289062 -13.488281 13.390625 -14.359375 C 12.375 -15.378906 11.210938 -15.910156 8.574219 -15.910156 L 2.46875 -15.910156 C 1.914062 -15.910156 1.792969 -15.644531 1.792969 -15.207031 L 1.792969 -0.703125 C 1.792969 -0.144531 2.035156 0 2.46875 0 L 4.867188 0 C 5.304688 0 5.570312 -0.144531 5.570312 -0.703125 L 5.570312 -12.519531 L 8.789062 -12.519531 C 10.050781 -12.519531 11.019531 -11.722656 11.019531 -10.460938 C 11.019531 -9.324219 9.90625 -8.5 8.71875 -8.5 L 8.234375 -8.5 C 7.675781 -8.5 7.53125 -8.234375 7.53125 -7.796875 L 7.53125 -5.859375 C 7.53125 -5.183594 7.578125 -4.917969 7.796875 -4.625 L 10.414062 -0.726562 C 10.753906 -0.21875 11.042969 0 11.625 0 L 14.480469 0 C 14.941406 0 15.0625 -0.4375 14.84375 -0.773438 Z M 14.84375 -0.773438 "/></g></g></g><g fill="rgb(0%, 0%, 0%)" fill-opacity="1"><g transform="translate(191.453375, 120.424349)"><g/></g></g><g fill="rgb(0%, 0%, 0%)" fill-opacity="1"><g transform="translate(201.211568, 120.424349)"><g><path d="M 7.941406 -15.933594 L 2.496094 -15.933594 C 1.9375 -15.933594 1.792969 -15.667969 1.792969 -15.234375 L 1.792969 -0.703125 C 1.792969 -0.144531 2.058594 0 2.496094 0 L 4.890625 0 C 5.328125 0 5.59375 -0.144531 5.59375 -0.703125 L 5.59375 -4.722656 L 7.917969 -4.722656 C 12.058594 -4.722656 14.289062 -6.949219 14.289062 -10.316406 C 14.289062 -13.660156 12.109375 -15.933594 7.941406 -15.933594 Z M 7.917969 -7.992188 L 5.59375 -7.992188 L 5.59375 -12.519531 L 7.917969 -12.519531 C 9.808594 -12.519531 10.632812 -11.503906 10.632812 -10.242188 C 10.632812 -9.03125 9.808594 -7.992188 7.917969 -7.992188 Z M 7.917969 -7.992188 "/></g></g></g><g fill="rgb(0%, 0%, 0%)" fill-opacity="1"><g transform="translate(219.613037, 120.424349)"><g><path d="M 15.5 -0.679688 L 10.148438 -15.183594 C 9.929688 -15.691406 9.6875 -15.933594 9.152344 -15.933594 L 6.828125 -15.933594 C 6.296875 -15.933594 6.03125 -15.691406 5.835938 -15.183594 L 0.460938 -0.679688 C 0.339844 -0.386719 0.339844 0 0.871094 0 L 3.414062 0 C 3.949219 0 4.140625 -0.144531 4.335938 -0.726562 L 5.011719 -2.640625 L 10.945312 -2.640625 L 11.625 -0.726562 C 11.816406 -0.144531 12.011719 0 12.542969 0 L 15.085938 0 C 15.621094 0 15.621094 -0.386719 15.5 -0.679688 Z M 7.992188 -11.382812 L 9.808594 -6.03125 L 6.175781 -6.03125 Z M 7.992188 -11.382812 "/></g></g></g><g fill="rgb(0%, 0%, 0%)" fill-opacity="1"><g transform="translate(238.668204, 120.424349)"><g><path d="M 14.84375 -0.773438 L 11.429688 -5.738281 C 12.933594 -6.25 14.796875 -8.015625 14.796875 -10.558594 C 14.796875 -12.109375 14.289062 -13.488281 13.390625 -14.359375 C 12.375 -15.378906 11.210938 -15.910156 8.574219 -15.910156 L 2.46875 -15.910156 C 1.914062 -15.910156 1.792969 -15.644531 1.792969 -15.207031 L 1.792969 -0.703125 C 1.792969 -0.144531 2.035156 0 2.46875 0 L 4.867188 0 C 5.304688 0 5.570312 -0.144531 5.570312 -0.703125 L 5.570312 -12.519531 L 8.789062 -12.519531 C 10.050781 -12.519531 11.019531 -11.722656 11.019531 -10.460938 C 11.019531 -9.324219 9.90625 -8.5 8.71875 -8.5 L 8.234375 -8.5 C 7.675781 -8.5 7.53125 -8.234375 7.53125 -7.796875 L 7.53125 -5.859375 C 7.53125 -5.183594 7.578125 -4.917969 7.796875 -4.625 L 10.414062 -0.726562 C 10.753906 -0.21875 11.042969 0 11.625 0 L 14.480469 0 C 14.941406 0 15.0625 -0.4375 14.84375 -0.773438 Z M 14.84375 -0.773438 "/></g></g></g><g fill="rgb(0%, 0%, 0%)" fill-opacity="1"><g transform="translate(257.989686, 120.424349)"><g><path d="M 12.570312 -15.933594 L 1.332031 -15.933594 C 0.773438 -15.933594 0.628906 -15.667969 0.628906 -15.234375 L 0.628906 -13.222656 C 0.628906 -12.785156 0.773438 -12.519531 1.332031 -12.519531 L 5.0625 -12.519531 L 5.0625 -0.703125 C 5.0625 -0.144531 5.328125 0 5.765625 0 L 8.160156 0 C 8.597656 0 8.863281 -0.144531 8.863281 -0.703125 L 8.863281 -12.519531 L 12.570312 -12.519531 C 13.125 -12.519531 13.269531 -12.785156 13.269531 -13.222656 L 13.269531 -15.234375 C 13.269531 -15.667969 13.125 -15.933594 12.570312 -15.933594 Z M 12.570312 -15.933594 "/></g></g></g><g fill="rgb(0%, 0%, 0%)" fill-opacity="1"><g transform="translate(275.083782, 120.424349)"><g><path d="M 13.34375 -3.390625 L 5.617188 -3.390625 L 5.617188 -6.585938 L 12.109375 -6.585938 C 12.664062 -6.585938 12.8125 -6.855469 12.8125 -7.289062 L 12.8125 -9.179688 C 12.8125 -9.613281 12.664062 -9.878906 12.109375 -9.878906 L 5.617188 -9.878906 L 5.617188 -12.519531 L 12.933594 -12.519531 C 13.488281 -12.519531 13.632812 -12.785156 13.632812 -13.222656 L 13.632812 -15.234375 C 13.632812 -15.667969 13.488281 -15.933594 12.933594 -15.933594 L 2.496094 -15.933594 C 1.9375 -15.933594 1.792969 -15.667969 1.792969 -15.234375 L 1.792969 -0.703125 C 1.792969 -0.265625 1.9375 0 2.496094 0 L 13.34375 0 C 13.902344 0 14.046875 -0.265625 14.046875 -0.703125 L 14.046875 -2.6875 C 14.046875 -3.125 13.902344 -3.390625 13.34375 -3.390625 Z M 13.34375 -3.390625 "/></g></g></g><g fill="rgb(0%, 0%, 0%)" fill-opacity="1"><g transform="translate(60.689976, 154.174346)"><g><path d="M 7.917969 -15.933594 L 2.496094 -15.933594 C 1.9375 -15.933594 1.792969 -15.667969 1.792969 -15.234375 L 1.792969 -0.703125 C 1.792969 -0.265625 1.9375 0 2.496094 0 L 7.917969 0 C 10.800781 0 14.433594 -1.648438 14.433594 -5.449219 L 14.433594 -10.484375 C 14.433594 -14.265625 10.800781 -15.933594 7.917969 -15.933594 Z M 10.632812 -10.148438 L 10.632812 -5.789062 C 10.632812 -4.238281 9.515625 -3.367188 7.917969 -3.367188 L 5.59375 -3.367188 L 5.59375 -12.570312 L 7.917969 -12.570312 C 9.515625 -12.570312 10.632812 -11.671875 10.632812 -10.148438 Z M 10.632812 -10.148438 "/></g></g></g><g fill="rgb(0%, 0%, 0%)" fill-opacity="1"><g transform="translate(79.62409, 154.174346)"><g><path d="M 14.3125 -5.109375 L 14.3125 -10.824219 C 14.3125 -14.652344 10.679688 -16.296875 7.796875 -16.296875 C 4.917969 -16.296875 1.332031 -14.652344 1.332031 -10.824219 L 1.332031 -5.109375 C 1.332031 -1.285156 4.917969 0.363281 7.796875 0.363281 C 10.679688 0.363281 14.3125 -1.285156 14.3125 -5.109375 Z M 10.511719 -10.484375 L 10.511719 -5.449219 C 10.511719 -3.898438 9.394531 -3.003906 7.796875 -3.003906 C 6.222656 -3.003906 5.109375 -3.898438 5.109375 -5.449219 L 5.109375 -10.484375 C 5.109375 -12.035156 6.222656 -12.933594 7.796875 -12.933594 C 9.394531 -12.933594 10.511719 -12.035156 10.511719 -10.484375 Z M 10.511719 -10.484375 "/></g></g></g><g fill="rgb(0%, 0%, 0%)" fill-opacity="1"><g transform="translate(98.437148, 154.174346)"><g/></g></g><g fill="rgb(0%, 0%, 0%)" fill-opacity="1"><g transform="translate(108.195344, 154.174346)"><g><path d="M 7.941406 -15.933594 L 2.496094 -15.933594 C 1.9375 -15.933594 1.792969 -15.667969 1.792969 -15.234375 L 1.792969 -0.703125 C 1.792969 -0.144531 2.058594 0 2.496094 0 L 4.890625 0 C 5.328125 0 5.59375 -0.144531 5.59375 -0.703125 L 5.59375 -4.722656 L 7.917969 -4.722656 C 12.058594 -4.722656 14.289062 -6.949219 14.289062 -10.316406 C 14.289062 -13.660156 12.109375 -15.933594 7.941406 -15.933594 Z M 7.917969 -7.992188 L 5.59375 -7.992188 L 5.59375 -12.519531 L 7.917969 -12.519531 C 9.808594 -12.519531 10.632812 -11.503906 10.632812 -10.242188 C 10.632812 -9.03125 9.808594 -7.992188 7.917969 -7.992188 Z M 7.917969 -7.992188 "/></g></g></g><g fill="rgb(0%, 0%, 0%)" fill-opacity="1"><g transform="translate(126.596816, 154.174346)"><g><path d="M 14.3125 -5.109375 L 14.3125 -10.824219 C 14.3125 -14.652344 10.679688 -16.296875 7.796875 -16.296875 C 4.917969 -16.296875 1.332031 -14.652344 1.332031 -10.824219 L 1.332031 -5.109375 C 1.332031 -1.285156 4.917969 0.363281 7.796875 0.363281 C 10.679688 0.363281 14.3125 -1.285156 14.3125 -5.109375 Z M 10.511719 -10.484375 L 10.511719 -5.449219 C 10.511719 -3.898438 9.394531 -3.003906 7.796875 -3.003906 C 6.222656 -3.003906 5.109375 -3.898438 5.109375 -5.449219 L 5.109375 -10.484375 C 5.109375 -12.035156 6.222656 -12.933594 7.796875 -12.933594 C 9.394531 -12.933594 10.511719 -12.035156 10.511719 -10.484375 Z M 10.511719 -10.484375 "/></g></g></g><g fill="rgb(0%, 0%, 0%)" fill-opacity="1"><g transform="translate(145.409871, 154.174346)"><g><path d="M 14.507812 -15.933594 L 11.9375 -15.933594 C 11.285156 -15.933594 11.117188 -15.742188 10.921875 -15.160156 L 7.652344 -5.132812 L 4.359375 -15.160156 C 4.164062 -15.742188 3.996094 -15.933594 3.367188 -15.933594 L 0.679688 -15.933594 C 0.21875 -15.933594 0.121094 -15.546875 0.242188 -15.234375 L 5.449219 -0.726562 C 5.738281 -0.0976562 5.910156 0 6.441406 0 L 8.765625 0 C 9.300781 0 9.46875 -0.0976562 9.757812 -0.726562 L 14.941406 -15.234375 C 15.0625 -15.546875 14.964844 -15.933594 14.507812 -15.933594 Z M 14.507812 -15.933594 "/></g></g></g><g fill="rgb(0%, 0%, 0%)" fill-opacity="1"><g transform="translate(164.005031, 154.174346)"><g><path d="M 14.3125 -5.109375 L 14.3125 -10.824219 C 14.3125 -14.652344 10.679688 -16.296875 7.796875 -16.296875 C 4.917969 -16.296875 1.332031 -14.652344 1.332031 -10.824219 L 1.332031 -5.109375 C 1.332031 -1.285156 4.917969 0.363281 7.796875 0.363281 C 10.679688 0.363281 14.3125 -1.285156 14.3125 -5.109375 Z M 10.511719 -10.484375 L 10.511719 -5.449219 C 10.511719 -3.898438 9.394531 -3.003906 7.796875 -3.003906 C 6.222656 -3.003906 5.109375 -3.898438 5.109375 -5.449219 L 5.109375 -10.484375 C 5.109375 -12.035156 6.222656 -12.933594 7.796875 -12.933594 C 9.394531 -12.933594 10.511719 -12.035156 10.511719 -10.484375 Z M 10.511719 -10.484375 "/></g></g></g><g fill="rgb(0%, 0%, 0%)" fill-opacity="1"><g transform="translate(182.818087, 154.174346)"><g/></g></g><g fill="rgb(0%, 0%, 0%)" fill-opacity="1"><g transform="translate(192.57628, 154.174346)"><g><path d="M 15.5 -0.679688 L 10.148438 -15.183594 C 9.929688 -15.691406 9.6875 -15.933594 9.152344 -15.933594 L 6.828125 -15.933594 C 6.296875 -15.933594 6.03125 -15.691406 5.835938 -15.183594 L 0.460938 -0.679688 C 0.339844 -0.386719 0.339844 0 0.871094 0 L 3.414062 0 C 3.949219 0 4.140625 -0.144531 4.335938 -0.726562 L 5.011719 -2.640625 L 10.945312 -2.640625 L 11.625 -0.726562 C 11.816406 -0.144531 12.011719 0 12.542969 0 L 15.085938 0 C 15.621094 0 15.621094 -0.386719 15.5 -0.679688 Z M 7.992188 -11.382812 L 9.808594 -6.03125 L 6.175781 -6.03125 Z M 7.992188 -11.382812 "/></g></g></g><g fill="rgb(0%, 0%, 0%)" fill-opacity="1"><g transform="translate(211.631447, 154.174346)"><g><path d="M 9.300781 -9.25 C 8.332031 -9.636719 4.769531 -10.171875 4.769531 -11.648438 C 4.769531 -12.738281 6.101562 -13.054688 6.902344 -13.054688 C 7.628906 -13.054688 8.5 -12.835938 8.960938 -12.398438 C 9.25 -12.109375 9.371094 -11.914062 9.46875 -11.671875 C 9.589844 -11.359375 9.664062 -11.019531 10.121094 -11.019531 L 12.496094 -11.019531 C 13.054688 -11.019531 13.199219 -11.117188 13.199219 -11.695312 C 13.199219 -14.894531 9.832031 -16.296875 6.757812 -16.296875 C 3.730469 -16.175781 0.871094 -14.628906 0.871094 -11.480469 C 0.871094 -8.402344 3.125 -7.433594 5.570312 -6.660156 C 7.628906 -6.007812 9.785156 -5.980469 9.785156 -4.625 C 9.785156 -3.269531 8.71875 -2.980469 7.410156 -2.980469 C 6.515625 -2.980469 5.523438 -3.195312 5.039062 -3.777344 C 4.722656 -4.140625 4.601562 -4.457031 4.578125 -4.769531 C 4.527344 -5.375 4.261719 -5.449219 3.707031 -5.449219 L 1.355469 -5.449219 C 0.800781 -5.449219 0.652344 -5.328125 0.652344 -4.769531 C 0.652344 -1.378906 4.140625 0.363281 7.167969 0.363281 C 10.898438 0.363281 13.609375 -1.285156 13.609375 -4.722656 C 13.609375 -8.015625 11.042969 -8.71875 9.300781 -9.25 Z M 9.300781 -9.25 "/></g></g></g><g fill="rgb(0%, 0%, 0%)" fill-opacity="1"><g transform="translate(229.476069, 154.174346)"><g><path d="M 12.570312 -15.933594 L 1.332031 -15.933594 C 0.773438 -15.933594 0.628906 -15.667969 0.628906 -15.234375 L 0.628906 -13.222656 C 0.628906 -12.785156 0.773438 -12.519531 1.332031 -12.519531 L 5.0625 -12.519531 L 5.0625 -0.703125 C 5.0625 -0.144531 5.328125 0 5.765625 0 L 8.160156 0 C 8.597656 0 8.863281 -0.144531 8.863281 -0.703125 L 8.863281 -12.519531 L 12.570312 -12.519531 C 13.125 -12.519531 13.269531 -12.785156 13.269531 -13.222656 L 13.269531 -15.234375 C 13.269531 -15.667969 13.125 -15.933594 12.570312 -15.933594 Z M 12.570312 -15.933594 "/></g></g></g><g fill="rgb(0%, 0%, 0%)" fill-opacity="1"><g transform="translate(246.570153, 154.174346)"><g><path d="M 13.34375 -3.390625 L 5.617188 -3.390625 L 5.617188 -6.585938 L 12.109375 -6.585938 C 12.664062 -6.585938 12.8125 -6.855469 12.8125 -7.289062 L 12.8125 -9.179688 C 12.8125 -9.613281 12.664062 -9.878906 12.109375 -9.878906 L 5.617188 -9.878906 L 5.617188 -12.519531 L 12.933594 -12.519531 C 13.488281 -12.519531 13.632812 -12.785156 13.632812 -13.222656 L 13.632812 -15.234375 C 13.632812 -15.667969 13.488281 -15.933594 12.933594 -15.933594 L 2.496094 -15.933594 C 1.9375 -15.933594 1.792969 -15.667969 1.792969 -15.234375 L 1.792969 -0.703125 C 1.792969 -0.265625 1.9375 0 2.496094 0 L 13.34375 0 C 13.902344 0 14.046875 -0.265625 14.046875 -0.703125 L 14.046875 -2.6875 C 14.046875 -3.125 13.902344 -3.390625 13.34375 -3.390625 Z M 13.34375 -3.390625 "/></g></g></g><g fill="rgb(0%, 0%, 0%)" fill-opacity="1"><g transform="translate(264.947406, 154.174346)"><g><path d="M 14.070312 -4.722656 C 14.070312 -5.304688 13.875 -5.546875 13.34375 -5.546875 L 10.96875 -5.546875 C 10.4375 -5.546875 10.390625 -5.160156 10.316406 -4.675781 C 10.121094 -3.511719 9.082031 -3.027344 7.773438 -3.027344 C 6.175781 -3.027344 5.085938 -3.898438 5.085938 -5.449219 L 5.085938 -10.484375 C 5.085938 -12.011719 6.175781 -12.90625 7.773438 -12.90625 C 9.082031 -12.90625 9.757812 -12.542969 10.269531 -11.746094 C 10.460938 -11.453125 10.484375 -10.996094 10.996094 -10.996094 L 13.320312 -10.996094 C 13.875 -10.996094 14.070312 -11.117188 14.070312 -11.695312 C 13.753906 -14.773438 10.777344 -16.296875 7.773438 -16.296875 C 4.890625 -16.296875 1.285156 -14.628906 1.285156 -10.824219 L 1.285156 -5.109375 C 1.285156 -1.308594 4.890625 0.363281 7.773438 0.363281 C 10.777344 0.363281 14.070312 -1.597656 14.070312 -4.722656 Z M 14.070312 -4.722656 "/></g></g></g><g fill="rgb(0%, 0%, 0%)" fill-opacity="1"><g transform="translate(283.445726, 154.174346)"><g><path d="M 15.5 -0.679688 L 10.148438 -15.183594 C 9.929688 -15.691406 9.6875 -15.933594 9.152344 -15.933594 L 6.828125 -15.933594 C 6.296875 -15.933594 6.03125 -15.691406 5.835938 -15.183594 L 0.460938 -0.679688 C 0.339844 -0.386719 0.339844 0 0.871094 0 L 3.414062 0 C 3.949219 0 4.140625 -0.144531 4.335938 -0.726562 L 5.011719 -2.640625 L 10.945312 -2.640625 L 11.625 -0.726562 C 11.816406 -0.144531 12.011719 0 12.542969 0 L 15.085938 0 C 15.621094 0 15.621094 -0.386719 15.5 -0.679688 Z M 7.992188 -11.382812 L 9.808594 -6.03125 L 6.175781 -6.03125 Z M 7.992188 -11.382812 "/></g></g></g><g fill="rgb(0%, 0%, 0%)" fill-opacity="1"><g transform="translate(90.045442, 187.924344)"><g><path d="M 16.082031 -15.960938 L 13.753906 -15.960938 C 12.957031 -15.960938 12.835938 -15.425781 12.664062 -15.136719 L 9.324219 -9.179688 L 6.007812 -15.136719 C 5.8125 -15.425781 5.714844 -15.960938 4.890625 -15.960938 L 2.496094 -15.960938 C 1.9375 -15.960938 1.792969 -15.691406 1.792969 -15.257812 L 1.792969 -0.703125 C 1.792969 -0.144531 2.058594 0 2.496094 0 L 4.890625 0 C 5.328125 0 5.59375 -0.144531 5.59375 -0.703125 L 5.59375 -8.910156 L 8.039062 -4.675781 C 8.160156 -4.480469 8.355469 -4.164062 8.71875 -4.164062 L 9.929688 -4.164062 C 10.292969 -4.164062 10.511719 -4.480469 10.632812 -4.675781 L 13.054688 -8.910156 L 13.054688 -0.703125 C 13.054688 -0.144531 13.320312 0 13.753906 0 L 16.082031 0 C 16.515625 0 16.78125 -0.144531 16.78125 -0.703125 L 16.78125 -15.257812 C 16.78125 -15.691406 16.636719 -15.960938 16.082031 -15.960938 Z M 16.082031 -15.960938 "/></g></g></g><g fill="rgb(0%, 0%, 0%)" fill-opacity="1"><g transform="translate(111.81222, 187.924344)"><g><path d="M 14.3125 -5.109375 L 14.3125 -10.824219 C 14.3125 -14.652344 10.679688 -16.296875 7.796875 -16.296875 C 4.917969 -16.296875 1.332031 -14.652344 1.332031 -10.824219 L 1.332031 -5.109375 C 1.332031 -1.285156 4.917969 0.363281 7.796875 0.363281 C 10.679688 0.363281 14.3125 -1.285156 14.3125 -5.109375 Z M 10.511719 -10.484375 L 10.511719 -5.449219 C 10.511719 -3.898438 9.394531 -3.003906 7.796875 -3.003906 C 6.222656 -3.003906 5.109375 -3.898438 5.109375 -5.449219 L 5.109375 -10.484375 C 5.109375 -12.035156 6.222656 -12.933594 7.796875 -12.933594 C 9.394531 -12.933594 10.511719 -12.035156 10.511719 -10.484375 Z M 10.511719 -10.484375 "/></g></g></g><g fill="rgb(0%, 0%, 0%)" fill-opacity="1"><g transform="translate(130.625279, 187.924344)"><g><path d="M 14.84375 -0.773438 L 11.429688 -5.738281 C 12.933594 -6.25 14.796875 -8.015625 14.796875 -10.558594 C 14.796875 -12.109375 14.289062 -13.488281 13.390625 -14.359375 C 12.375 -15.378906 11.210938 -15.910156 8.574219 -15.910156 L 2.46875 -15.910156 C 1.914062 -15.910156 1.792969 -15.644531 1.792969 -15.207031 L 1.792969 -0.703125 C 1.792969 -0.144531 2.035156 0 2.46875 0 L 4.867188 0 C 5.304688 0 5.570312 -0.144531 5.570312 -0.703125 L 5.570312 -12.519531 L 8.789062 -12.519531 C 10.050781 -12.519531 11.019531 -11.722656 11.019531 -10.460938 C 11.019531 -9.324219 9.90625 -8.5 8.71875 -8.5 L 8.234375 -8.5 C 7.675781 -8.5 7.53125 -8.234375 7.53125 -7.796875 L 7.53125 -5.859375 C 7.53125 -5.183594 7.578125 -4.917969 7.796875 -4.625 L 10.414062 -0.726562 C 10.753906 -0.21875 11.042969 0 11.625 0 L 14.480469 0 C 14.941406 0 15.0625 -0.4375 14.84375 -0.773438 Z M 14.84375 -0.773438 "/></g></g></g><g fill="rgb(0%, 0%, 0%)" fill-opacity="1"><g transform="translate(149.946767, 187.924344)"><g><path d="M 14.84375 -0.773438 L 11.429688 -5.738281 C 12.933594 -6.25 14.796875 -8.015625 14.796875 -10.558594 C 14.796875 -12.109375 14.289062 -13.488281 13.390625 -14.359375 C 12.375 -15.378906 11.210938 -15.910156 8.574219 -15.910156 L 2.46875 -15.910156 C 1.914062 -15.910156 1.792969 -15.644531 1.792969 -15.207031 L 1.792969 -0.703125 C 1.792969 -0.144531 2.035156 0 2.46875 0 L 4.867188 0 C 5.304688 0 5.570312 -0.144531 5.570312 -0.703125 L 5.570312 -12.519531 L 8.789062 -12.519531 C 10.050781 -12.519531 11.019531 -11.722656 11.019531 -10.460938 C 11.019531 -9.324219 9.90625 -8.5 8.71875 -8.5 L 8.234375 -8.5 C 7.675781 -8.5 7.53125 -8.234375 7.53125 -7.796875 L 7.53125 -5.859375 C 7.53125 -5.183594 7.578125 -4.917969 7.796875 -4.625 L 10.414062 -0.726562 C 10.753906 -0.21875 11.042969 0 11.625 0 L 14.480469 0 C 14.941406 0 15.0625 -0.4375 14.84375 -0.773438 Z M 14.84375 -0.773438 "/></g></g></g><g fill="rgb(0%, 0%, 0%)" fill-opacity="1"><g transform="translate(169.268249, 187.924344)"><g><path d="M 13.34375 -3.390625 L 5.617188 -3.390625 L 5.617188 -6.585938 L 12.109375 -6.585938 C 12.664062 -6.585938 12.8125 -6.855469 12.8125 -7.289062 L 12.8125 -9.179688 C 12.8125 -9.613281 12.664062 -9.878906 12.109375 -9.878906 L 5.617188 -9.878906 L 5.617188 -12.519531 L 12.933594 -12.519531 C 13.488281 -12.519531 13.632812 -12.785156 13.632812 -13.222656 L 13.632812 -15.234375 C 13.632812 -15.667969 13.488281 -15.933594 12.933594 -15.933594 L 2.496094 -15.933594 C 1.9375 -15.933594 1.792969 -15.667969 1.792969 -15.234375 L 1.792969 -0.703125 C 1.792969 -0.265625 1.9375 0 2.496094 0 L 13.34375 0 C 13.902344 0 14.046875 -0.265625 14.046875 -0.703125 L 14.046875 -2.6875 C 14.046875 -3.125 13.902344 -3.390625 13.34375 -3.390625 Z M 13.34375 -3.390625 "/></g></g></g><g fill="rgb(0%, 0%, 0%)" fill-opacity="1"><g transform="translate(187.645502, 187.924344)"><g><path d="M 13.707031 -15.933594 L 11.308594 -15.933594 C 10.875 -15.933594 10.605469 -15.789062 10.605469 -15.234375 L 10.605469 -5.402344 C 10.605469 -3.875 9.589844 -3.003906 7.992188 -3.003906 C 6.394531 -3.003906 5.402344 -3.875 5.402344 -5.402344 L 5.402344 -15.234375 C 5.402344 -15.789062 5.132812 -15.933594 4.699219 -15.933594 L 2.300781 -15.933594 C 1.863281 -15.933594 1.597656 -15.789062 1.597656 -15.234375 L 1.597656 -4.867188 C 1.597656 -1.066406 5.109375 0.363281 7.992188 0.363281 C 10.875 0.363281 14.410156 -1.066406 14.410156 -4.867188 L 14.410156 -15.234375 C 14.410156 -15.789062 14.144531 -15.933594 13.707031 -15.933594 Z M 13.707031 -15.933594 "/></g></g></g><g fill="rgb(0%, 0%, 0%)" fill-opacity="1"><g transform="translate(206.845929, 187.924344)"><g/></g></g><g fill="rgb(0%, 0%, 0%)" fill-opacity="1"><g transform="translate(216.604122, 187.924344)"><g><path d="M 7.941406 -15.933594 L 2.496094 -15.933594 C 1.9375 -15.933594 1.792969 -15.667969 1.792969 -15.234375 L 1.792969 -0.703125 C 1.792969 -0.144531 2.058594 0 2.496094 0 L 4.890625 0 C 5.328125 0 5.59375 -0.144531 5.59375 -0.703125 L 5.59375 -4.722656 L 7.917969 -4.722656 C 12.058594 -4.722656 14.289062 -6.949219 14.289062 -10.316406 C 14.289062 -13.660156 12.109375 -15.933594 7.941406 -15.933594 Z M 7.917969 -7.992188 L 5.59375 -7.992188 L 5.59375 -12.519531 L 7.917969 -12.519531 C 9.808594 -12.519531 10.632812 -11.503906 10.632812 -10.242188 C 10.632812 -9.03125 9.808594 -7.992188 7.917969 -7.992188 Z M 7.917969 -7.992188 "/></g></g></g><g fill="rgb(0%, 0%, 0%)" fill-opacity="1"><g transform="translate(235.005591, 187.924344)"><g><path d="M 14.3125 -5.109375 L 14.3125 -10.824219 C 14.3125 -14.652344 10.679688 -16.296875 7.796875 -16.296875 C 4.917969 -16.296875 1.332031 -14.652344 1.332031 -10.824219 L 1.332031 -5.109375 C 1.332031 -1.285156 4.917969 0.363281 7.796875 0.363281 C 10.679688 0.363281 14.3125 -1.285156 14.3125 -5.109375 Z M 10.511719 -10.484375 L 10.511719 -5.449219 C 10.511719 -3.898438 9.394531 -3.003906 7.796875 -3.003906 C 6.222656 -3.003906 5.109375 -3.898438 5.109375 -5.449219 L 5.109375 -10.484375 C 5.109375 -12.035156 6.222656 -12.933594 7.796875 -12.933594 C 9.394531 -12.933594 10.511719 -12.035156 10.511719 -10.484375 Z M 10.511719 -10.484375 "/></g></g></g><g fill="rgb(0%, 0%, 0%)" fill-opacity="1"><g transform="translate(253.818646, 187.924344)"><g><path d="M 14.84375 -0.773438 L 11.429688 -5.738281 C 12.933594 -6.25 14.796875 -8.015625 14.796875 -10.558594 C 14.796875 -12.109375 14.289062 -13.488281 13.390625 -14.359375 C 12.375 -15.378906 11.210938 -15.910156 8.574219 -15.910156 L 2.46875 -15.910156 C 1.914062 -15.910156 1.792969 -15.644531 1.792969 -15.207031 L 1.792969 -0.703125 C 1.792969 -0.144531 2.035156 0 2.46875 0 L 4.867188 0 C 5.304688 0 5.570312 -0.144531 5.570312 -0.703125 L 5.570312 -12.519531 L 8.789062 -12.519531 C 10.050781 -12.519531 11.019531 -11.722656 11.019531 -10.460938 C 11.019531 -9.324219 9.90625 -8.5 8.71875 -8.5 L 8.234375 -8.5 C 7.675781 -8.5 7.53125 -8.234375 7.53125 -7.796875 L 7.53125 -5.859375 C 7.53125 -5.183594 7.578125 -4.917969 7.796875 -4.625 L 10.414062 -0.726562 C 10.753906 -0.21875 11.042969 0 11.625 0 L 14.480469 0 C 14.941406 0 15.0625 -0.4375 14.84375 -0.773438 Z M 14.84375 -0.773438 "/></g></g></g><g fill="rgb(0%, 0%, 0%)" fill-opacity="1"><g transform="translate(76.346225, 221.674341)"><g><path d="M 14.070312 -4.722656 C 14.070312 -5.304688 13.875 -5.546875 13.34375 -5.546875 L 10.96875 -5.546875 C 10.4375 -5.546875 10.390625 -5.160156 10.316406 -4.675781 C 10.121094 -3.511719 9.082031 -3.027344 7.773438 -3.027344 C 6.175781 -3.027344 5.085938 -3.898438 5.085938 -5.449219 L 5.085938 -10.484375 C 5.085938 -12.011719 6.175781 -12.90625 7.773438 -12.90625 C 9.082031 -12.90625 9.757812 -12.542969 10.269531 -11.746094 C 10.460938 -11.453125 10.484375 -10.996094 10.996094 -10.996094 L 13.320312 -10.996094 C 13.875 -10.996094 14.070312 -11.117188 14.070312 -11.695312 C 13.753906 -14.773438 10.777344 -16.296875 7.773438 -16.296875 C 4.890625 -16.296875 1.285156 -14.628906 1.285156 -10.824219 L 1.285156 -5.109375 C 1.285156 -1.308594 4.890625 0.363281 7.773438 0.363281 C 10.777344 0.363281 14.070312 -1.597656 14.070312 -4.722656 Z M 14.070312 -4.722656 "/></g></g></g><g fill="rgb(0%, 0%, 0%)" fill-opacity="1"><g transform="translate(94.844536, 221.674341)"><g><path d="M 15.5 -0.679688 L 10.148438 -15.183594 C 9.929688 -15.691406 9.6875 -15.933594 9.152344 -15.933594 L 6.828125 -15.933594 C 6.296875 -15.933594 6.03125 -15.691406 5.835938 -15.183594 L 0.460938 -0.679688 C 0.339844 -0.386719 0.339844 0 0.871094 0 L 3.414062 0 C 3.949219 0 4.140625 -0.144531 4.335938 -0.726562 L 5.011719 -2.640625 L 10.945312 -2.640625 L 11.625 -0.726562 C 11.816406 -0.144531 12.011719 0 12.542969 0 L 15.085938 0 C 15.621094 0 15.621094 -0.386719 15.5 -0.679688 Z M 7.992188 -11.382812 L 9.808594 -6.03125 L 6.175781 -6.03125 Z M 7.992188 -11.382812 "/></g></g></g><g fill="rgb(0%, 0%, 0%)" fill-opacity="1"><g transform="translate(113.899706, 221.674341)"><g><path d="M 13.707031 -15.933594 L 11.308594 -15.933594 C 10.875 -15.933594 10.605469 -15.789062 10.605469 -15.234375 L 10.605469 -5.402344 C 10.605469 -3.875 9.589844 -3.003906 7.992188 -3.003906 C 6.394531 -3.003906 5.402344 -3.875 5.402344 -5.402344 L 5.402344 -15.234375 C 5.402344 -15.789062 5.132812 -15.933594 4.699219 -15.933594 L 2.300781 -15.933594 C 1.863281 -15.933594 1.597656 -15.789062 1.597656 -15.234375 L 1.597656 -4.867188 C 1.597656 -1.066406 5.109375 0.363281 7.992188 0.363281 C 10.875 0.363281 14.410156 -1.066406 14.410156 -4.867188 L 14.410156 -15.234375 C 14.410156 -15.789062 14.144531 -15.933594 13.707031 -15.933594 Z M 13.707031 -15.933594 "/></g></g></g><g fill="rgb(0%, 0%, 0%)" fill-opacity="1"><g transform="translate(133.100138, 221.674341)"><g><path d="M 9.300781 -9.25 C 8.332031 -9.636719 4.769531 -10.171875 4.769531 -11.648438 C 4.769531 -12.738281 6.101562 -13.054688 6.902344 -13.054688 C 7.628906 -13.054688 8.5 -12.835938 8.960938 -12.398438 C 9.25 -12.109375 9.371094 -11.914062 9.46875 -11.671875 C 9.589844 -11.359375 9.664062 -11.019531 10.121094 -11.019531 L 12.496094 -11.019531 C 13.054688 -11.019531 13.199219 -11.117188 13.199219 -11.695312 C 13.199219 -14.894531 9.832031 -16.296875 6.757812 -16.296875 C 3.730469 -16.175781 0.871094 -14.628906 0.871094 -11.480469 C 0.871094 -8.402344 3.125 -7.433594 5.570312 -6.660156 C 7.628906 -6.007812 9.785156 -5.980469 9.785156 -4.625 C 9.785156 -3.269531 8.71875 -2.980469 7.410156 -2.980469 C 6.515625 -2.980469 5.523438 -3.195312 5.039062 -3.777344 C 4.722656 -4.140625 4.601562 -4.457031 4.578125 -4.769531 C 4.527344 -5.375 4.261719 -5.449219 3.707031 -5.449219 L 1.355469 -5.449219 C 0.800781 -5.449219 0.652344 -5.328125 0.652344 -4.769531 C 0.652344 -1.378906 4.140625 0.363281 7.167969 0.363281 C 10.898438 0.363281 13.609375 -1.285156 13.609375 -4.722656 C 13.609375 -8.015625 11.042969 -8.71875 9.300781 -9.25 Z M 9.300781 -9.25 "/></g></g></g><g fill="rgb(0%, 0%, 0%)" fill-opacity="1"><g transform="translate(150.94476, 221.674341)"><g><path d="M 15.5 -0.679688 L 10.148438 -15.183594 C 9.929688 -15.691406 9.6875 -15.933594 9.152344 -15.933594 L 6.828125 -15.933594 C 6.296875 -15.933594 6.03125 -15.691406 5.835938 -15.183594 L 0.460938 -0.679688 C 0.339844 -0.386719 0.339844 0 0.871094 0 L 3.414062 0 C 3.949219 0 4.140625 -0.144531 4.335938 -0.726562 L 5.011719 -2.640625 L 10.945312 -2.640625 L 11.625 -0.726562 C 11.816406 -0.144531 12.011719 0 12.542969 0 L 15.085938 0 C 15.621094 0 15.621094 -0.386719 15.5 -0.679688 Z M 7.992188 -11.382812 L 9.808594 -6.03125 L 6.175781 -6.03125 Z M 7.992188 -11.382812 "/></g></g></g><g fill="rgb(0%, 0%, 0%)" fill-opacity="1"><g transform="translate(179.75812, 221.674341)"><g><path d="M 7.917969 -15.933594 L 2.496094 -15.933594 C 1.9375 -15.933594 1.792969 -15.667969 1.792969 -15.234375 L 1.792969 -0.703125 C 1.792969 -0.265625 1.9375 0 2.496094 0 L 7.917969 0 C 10.800781 0 14.433594 -1.648438 14.433594 -5.449219 L 14.433594 -10.484375 C 14.433594 -14.265625 10.800781 -15.933594 7.917969 -15.933594 Z M 10.632812 -10.148438 L 10.632812 -5.789062 C 10.632812 -4.238281 9.515625 -3.367188 7.917969 -3.367188 L 5.59375 -3.367188 L 5.59375 -12.570312 L 7.917969 -12.570312 C 9.515625 -12.570312 10.632812 -11.671875 10.632812 -10.148438 Z M 10.632812 -10.148438 "/></g></g></g><g fill="rgb(0%, 0%, 0%)" fill-opacity="1"><g transform="translate(198.69223, 221.674341)"><g><path d="M 13.34375 -3.390625 L 5.617188 -3.390625 L 5.617188 -6.585938 L 12.109375 -6.585938 C 12.664062 -6.585938 12.8125 -6.855469 12.8125 -7.289062 L 12.8125 -9.179688 C 12.8125 -9.613281 12.664062 -9.878906 12.109375 -9.878906 L 5.617188 -9.878906 L 5.617188 -12.519531 L 12.933594 -12.519531 C 13.488281 -12.519531 13.632812 -12.785156 13.632812 -13.222656 L 13.632812 -15.234375 C 13.632812 -15.667969 13.488281 -15.933594 12.933594 -15.933594 L 2.496094 -15.933594 C 1.9375 -15.933594 1.792969 -15.667969 1.792969 -15.234375 L 1.792969 -0.703125 C 1.792969 -0.265625 1.9375 0 2.496094 0 L 13.34375 0 C 13.902344 0 14.046875 -0.265625 14.046875 -0.703125 L 14.046875 -2.6875 C 14.046875 -3.125 13.902344 -3.390625 13.34375 -3.390625 Z M 13.34375 -3.390625 "/></g></g></g><g fill="rgb(0%, 0%, 0%)" fill-opacity="1"><g transform="translate(217.069483, 221.674341)"><g/></g></g><g fill="rgb(0%, 0%, 0%)" fill-opacity="1"><g transform="translate(226.827677, 221.674341)"><g><path d="M 13.707031 -15.933594 L 11.308594 -15.933594 C 10.875 -15.933594 10.605469 -15.789062 10.605469 -15.234375 L 10.605469 -5.402344 C 10.605469 -3.875 9.589844 -3.003906 7.992188 -3.003906 C 6.394531 -3.003906 5.402344 -3.875 5.402344 -5.402344 L 5.402344 -15.234375 C 5.402344 -15.789062 5.132812 -15.933594 4.699219 -15.933594 L 2.300781 -15.933594 C 1.863281 -15.933594 1.597656 -15.789062 1.597656 -15.234375 L 1.597656 -4.867188 C 1.597656 -1.066406 5.109375 0.363281 7.992188 0.363281 C 10.875 0.363281 14.410156 -1.066406 14.410156 -4.867188 L 14.410156 -15.234375 C 14.410156 -15.789062 14.144531 -15.933594 13.707031 -15.933594 Z M 13.707031 -15.933594 "/></g></g></g><g fill="rgb(0%, 0%, 0%)" fill-opacity="1"><g transform="translate(246.028103, 221.674341)"><g><path d="M 16.082031 -15.960938 L 13.753906 -15.960938 C 12.957031 -15.960938 12.835938 -15.425781 12.664062 -15.136719 L 9.324219 -9.179688 L 6.007812 -15.136719 C 5.8125 -15.425781 5.714844 -15.960938 4.890625 -15.960938 L 2.496094 -15.960938 C 1.9375 -15.960938 1.792969 -15.691406 1.792969 -15.257812 L 1.792969 -0.703125 C 1.792969 -0.144531 2.058594 0 2.496094 0 L 4.890625 0 C 5.328125 0 5.59375 -0.144531 5.59375 -0.703125 L 5.59375 -8.910156 L 8.039062 -4.675781 C 8.160156 -4.480469 8.355469 -4.164062 8.71875 -4.164062 L 9.929688 -4.164062 C 10.292969 -4.164062 10.511719 -4.480469 10.632812 -4.675781 L 13.054688 -8.910156 L 13.054688 -0.703125 C 13.054688 -0.144531 13.320312 0 13.753906 0 L 16.082031 0 C 16.515625 0 16.78125 -0.144531 16.78125 -0.703125 L 16.78125 -15.257812 C 16.78125 -15.691406 16.636719 -15.960938 16.082031 -15.960938 Z M 16.082031 -15.960938 "/></g></g></g><g fill="rgb(0%, 0%, 0%)" fill-opacity="1"><g transform="translate(267.794878, 221.674341)"><g><path d="M 15.5 -0.679688 L 10.148438 -15.183594 C 9.929688 -15.691406 9.6875 -15.933594 9.152344 -15.933594 L 6.828125 -15.933594 C 6.296875 -15.933594 6.03125 -15.691406 5.835938 -15.183594 L 0.460938 -0.679688 C 0.339844 -0.386719 0.339844 0 0.871094 0 L 3.414062 0 C 3.949219 0 4.140625 -0.144531 4.335938 -0.726562 L 5.011719 -2.640625 L 10.945312 -2.640625 L 11.625 -0.726562 C 11.816406 -0.144531 12.011719 0 12.542969 0 L 15.085938 0 C 15.621094 0 15.621094 -0.386719 15.5 -0.679688 Z M 7.992188 -11.382812 L 9.808594 -6.03125 L 6.175781 -6.03125 Z M 7.992188 -11.382812 "/></g></g></g><g fill="rgb(0%, 0%, 0%)" fill-opacity="1"><g transform="translate(103.510285, 255.424338)"><g><path d="M 13.148438 -8.257812 C 13.367188 -8.355469 14.917969 -9.128906 14.917969 -11.574219 C 14.917969 -13.851562 13.222656 -15.960938 9.273438 -15.960938 L 2.496094 -15.960938 C 1.9375 -15.960938 1.792969 -15.691406 1.792969 -15.257812 L 1.792969 -0.703125 C 1.792969 -0.265625 1.9375 0 2.496094 0 L 9.613281 0 C 12.980469 0 15.378906 -1.574219 15.378906 -4.648438 C 15.378906 -7.265625 13.34375 -8.183594 13.148438 -8.257812 Z M 9.664062 -3.4375 L 5.59375 -3.4375 L 5.59375 -12.542969 L 9.273438 -12.542969 C 10.535156 -12.542969 11.285156 -12.277344 11.285156 -11.1875 C 11.285156 -10.242188 10.679688 -9.734375 9.273438 -9.734375 L 8.960938 -9.734375 C 8.402344 -9.734375 8.257812 -9.46875 8.257812 -9.03125 L 8.257812 -7.191406 C 8.257812 -6.757812 8.402344 -6.492188 8.960938 -6.492188 L 9.515625 -6.492188 C 10.679688 -6.492188 11.527344 -6.152344 11.527344 -5.011719 C 11.527344 -3.921875 10.847656 -3.4375 9.664062 -3.4375 Z M 9.664062 -3.4375 "/></g></g></g><g fill="rgb(0%, 0%, 0%)" fill-opacity="1"><g transform="translate(123.340197, 255.424338)"><g><path d="M 15.5 -0.679688 L 10.148438 -15.183594 C 9.929688 -15.691406 9.6875 -15.933594 9.152344 -15.933594 L 6.828125 -15.933594 C 6.296875 -15.933594 6.03125 -15.691406 5.835938 -15.183594 L 0.460938 -0.679688 C 0.339844 -0.386719 0.339844 0 0.871094 0 L 3.414062 0 C 3.949219 0 4.140625 -0.144531 4.335938 -0.726562 L 5.011719 -2.640625 L 10.945312 -2.640625 L 11.625 -0.726562 C 11.816406 -0.144531 12.011719 0 12.542969 0 L 15.085938 0 C 15.621094 0 15.621094 -0.386719 15.5 -0.679688 Z M 7.992188 -11.382812 L 9.808594 -6.03125 L 6.175781 -6.03125 Z M 7.992188 -11.382812 "/></g></g></g><g fill="rgb(0%, 0%, 0%)" fill-opacity="1"><g transform="translate(142.395366, 255.424338)"><g><path d="M 14.070312 -4.722656 C 14.070312 -5.304688 13.875 -5.546875 13.34375 -5.546875 L 10.96875 -5.546875 C 10.4375 -5.546875 10.390625 -5.160156 10.316406 -4.675781 C 10.121094 -3.511719 9.082031 -3.027344 7.773438 -3.027344 C 6.175781 -3.027344 5.085938 -3.898438 5.085938 -5.449219 L 5.085938 -10.484375 C 5.085938 -12.011719 6.175781 -12.90625 7.773438 -12.90625 C 9.082031 -12.90625 9.757812 -12.542969 10.269531 -11.746094 C 10.460938 -11.453125 10.484375 -10.996094 10.996094 -10.996094 L 13.320312 -10.996094 C 13.875 -10.996094 14.070312 -11.117188 14.070312 -11.695312 C 13.753906 -14.773438 10.777344 -16.296875 7.773438 -16.296875 C 4.890625 -16.296875 1.285156 -14.628906 1.285156 -10.824219 L 1.285156 -5.109375 C 1.285156 -1.308594 4.890625 0.363281 7.773438 0.363281 C 10.777344 0.363281 14.070312 -1.597656 14.070312 -4.722656 Z M 14.070312 -4.722656 "/></g></g></g><g fill="rgb(0%, 0%, 0%)" fill-opacity="1"><g transform="translate(160.893681, 255.424338)"><g><path d="M 12.570312 -15.933594 L 1.332031 -15.933594 C 0.773438 -15.933594 0.628906 -15.667969 0.628906 -15.234375 L 0.628906 -13.222656 C 0.628906 -12.785156 0.773438 -12.519531 1.332031 -12.519531 L 5.0625 -12.519531 L 5.0625 -0.703125 C 5.0625 -0.144531 5.328125 0 5.765625 0 L 8.160156 0 C 8.597656 0 8.863281 -0.144531 8.863281 -0.703125 L 8.863281 -12.519531 L 12.570312 -12.519531 C 13.125 -12.519531 13.269531 -12.785156 13.269531 -13.222656 L 13.269531 -15.234375 C 13.269531 -15.667969 13.125 -15.933594 12.570312 -15.933594 Z M 12.570312 -15.933594 "/></g></g></g><g fill="rgb(0%, 0%, 0%)" fill-opacity="1"><g transform="translate(177.987765, 255.424338)"><g><path d="M 6.152344 -17.339844 L 8.523438 -17.339844 C 9.128906 -17.339844 9.324219 -17.679688 9.664062 -18.019531 L 12.085938 -20.632812 C 12.300781 -20.851562 12.230469 -21.3125 11.625 -21.3125 L 8.546875 -21.3125 C 8.015625 -21.3125 7.820312 -21.238281 7.460938 -20.632812 L 5.835938 -18.019531 C 5.691406 -17.800781 5.691406 -17.339844 6.152344 -17.339844 Z M 13.34375 -3.390625 L 5.617188 -3.390625 L 5.617188 -6.585938 L 12.109375 -6.585938 C 12.664062 -6.585938 12.8125 -6.855469 12.8125 -7.289062 L 12.8125 -9.179688 C 12.8125 -9.613281 12.664062 -9.878906 12.109375 -9.878906 L 5.617188 -9.878906 L 5.617188 -12.519531 L 12.933594 -12.519531 C 13.488281 -12.519531 13.632812 -12.785156 13.632812 -13.222656 L 13.632812 -15.234375 C 13.632812 -15.667969 13.488281 -15.933594 12.933594 -15.933594 L 2.496094 -15.933594 C 1.9375 -15.933594 1.792969 -15.667969 1.792969 -15.234375 L 1.792969 -0.703125 C 1.792969 -0.265625 1.9375 0 2.496094 0 L 13.34375 0 C 13.902344 0 14.046875 -0.265625 14.046875 -0.703125 L 14.046875 -2.6875 C 14.046875 -3.125 13.902344 -3.390625 13.34375 -3.390625 Z M 13.34375 -3.390625 "/></g></g></g><g fill="rgb(0%, 0%, 0%)" fill-opacity="1"><g transform="translate(196.365018, 255.424338)"><g><path d="M 14.84375 -0.773438 L 11.429688 -5.738281 C 12.933594 -6.25 14.796875 -8.015625 14.796875 -10.558594 C 14.796875 -12.109375 14.289062 -13.488281 13.390625 -14.359375 C 12.375 -15.378906 11.210938 -15.910156 8.574219 -15.910156 L 2.46875 -15.910156 C 1.914062 -15.910156 1.792969 -15.644531 1.792969 -15.207031 L 1.792969 -0.703125 C 1.792969 -0.144531 2.035156 0 2.46875 0 L 4.867188 0 C 5.304688 0 5.570312 -0.144531 5.570312 -0.703125 L 5.570312 -12.519531 L 8.789062 -12.519531 C 10.050781 -12.519531 11.019531 -11.722656 11.019531 -10.460938 C 11.019531 -9.324219 9.90625 -8.5 8.71875 -8.5 L 8.234375 -8.5 C 7.675781 -8.5 7.53125 -8.234375 7.53125 -7.796875 L 7.53125 -5.859375 C 7.53125 -5.183594 7.578125 -4.917969 7.796875 -4.625 L 10.414062 -0.726562 C 10.753906 -0.21875 11.042969 0 11.625 0 L 14.480469 0 C 14.941406 0 15.0625 -0.4375 14.84375 -0.773438 Z M 14.84375 -0.773438 "/></g></g></g><g fill="rgb(0%, 0%, 0%)" fill-opacity="1"><g transform="translate(215.6865, 255.424338)"><g><path d="M 8.71875 -3.316406 L 7.191406 -3.316406 L 7.191406 -12.570312 L 8.644531 -12.570312 C 9.203125 -12.570312 9.347656 -12.835938 9.347656 -13.269531 L 9.347656 -15.234375 C 9.347656 -15.667969 9.203125 -15.933594 8.644531 -15.933594 L 1.914062 -15.933594 C 1.355469 -15.933594 1.210938 -15.667969 1.210938 -15.234375 L 1.210938 -13.269531 C 1.210938 -12.835938 1.355469 -12.570312 1.914062 -12.570312 L 3.390625 -12.570312 L 3.390625 -3.316406 L 1.863281 -3.316406 C 1.308594 -3.316406 1.164062 -3.050781 1.164062 -2.617188 L 1.164062 -0.703125 C 1.164062 -0.265625 1.308594 0 1.863281 0 L 8.71875 0 C 9.273438 0 9.421875 -0.265625 9.421875 -0.703125 L 9.421875 -2.617188 C 9.421875 -3.050781 9.273438 -3.316406 8.71875 -3.316406 Z M 8.71875 -3.316406 "/></g></g></g><g fill="rgb(0%, 0%, 0%)" fill-opacity="1"><g transform="translate(229.633173, 255.424338)"><g><path d="M 15.5 -0.679688 L 10.148438 -15.183594 C 9.929688 -15.691406 9.6875 -15.933594 9.152344 -15.933594 L 6.828125 -15.933594 C 6.296875 -15.933594 6.03125 -15.691406 5.835938 -15.183594 L 0.460938 -0.679688 C 0.339844 -0.386719 0.339844 0 0.871094 0 L 3.414062 0 C 3.949219 0 4.140625 -0.144531 4.335938 -0.726562 L 5.011719 -2.640625 L 10.945312 -2.640625 L 11.625 -0.726562 C 11.816406 -0.144531 12.011719 0 12.542969 0 L 15.085938 0 C 15.621094 0 15.621094 -0.386719 15.5 -0.679688 Z M 7.992188 -11.382812 L 9.808594 -6.03125 L 6.175781 -6.03125 Z M 7.992188 -11.382812 "/></g></g></g><g fill="rgb(0%, 0%, 0%)" fill-opacity="1"><g transform="translate(248.68834, 255.424338)"><g><path d="M 3.414062 -5.011719 L 4.601562 -5.011719 C 5.160156 -5.011719 5.207031 -5.085938 5.28125 -5.714844 C 6.320312 -15.28125 6.34375 -15.355469 6.34375 -15.425781 C 6.34375 -15.863281 6.128906 -15.933594 5.617188 -15.933594 L 2.375 -15.933594 C 1.890625 -15.933594 1.671875 -15.839844 1.671875 -15.425781 C 1.671875 -15.355469 1.695312 -15.28125 2.710938 -5.714844 C 2.785156 -5.109375 2.832031 -5.011719 3.414062 -5.011719 Z M 5.351562 -4.09375 L 2.664062 -4.09375 C 2.226562 -4.09375 1.960938 -3.949219 1.960938 -3.390625 L 1.960938 -0.703125 C 1.960938 -0.144531 2.226562 0 2.664062 0 L 5.351562 0 C 5.789062 0 6.054688 -0.144531 6.054688 -0.703125 L 6.054688 -3.390625 C 6.054688 -3.949219 5.789062 -4.09375 5.351562 -4.09375 Z M 5.351562 -4.09375 "/></g></g></g></svg>
