<svg xmlns="http://www.w3.org/2000/svg" xmlns:xlink="http://www.w3.org/1999/xlink" width="800" zoomAndPan="magnify" viewBox="0 0 600 599.999999" height="800" preserveAspectRatio="xMidYMid meet" version="1.0"><defs><g/></defs><path fill="rgb(50.588989%, 83.139038%, 98.039246%)" d="M 299.847656 117.527344 C 216.53125 117.527344 148.992188 184.230469 148.992188 266.515625 C 148.992188 348.800781 216.53125 415.507812 299.847656 415.507812 C 383.164062 415.507812 450.707031 348.800781 450.707031 266.515625 C 450.707031 184.230469 383.164062 117.527344 299.847656 117.527344 " fill-opacity="1" fill-rule="nonzero"/><g fill="rgb(0%, 0%, 0%)" fill-opacity="1"><g transform="translate(200.836038, 234.511345)"><g><path d="M 11.46875 -0.5 L 7.507812 -11.234375 C 7.347656 -11.613281 7.167969 -11.792969 6.773438 -11.792969 L 5.054688 -11.792969 C 4.660156 -11.792969 4.460938 -11.613281 4.320312 -11.234375 L 0.339844 -0.5 C 0.25 -0.285156 0.25 0 0.644531 0 L 2.527344 0 C 2.921875 0 3.0625 -0.109375 3.207031 -0.539062 L 3.710938 -1.953125 L 8.101562 -1.953125 L 8.601562 -0.539062 C 8.746094 -0.109375 8.886719 0 9.28125 0 L 11.164062 0 C 11.558594 0 11.558594 -0.285156 11.46875 -0.5 Z M 5.914062 -8.421875 L 7.257812 -4.460938 L 4.570312 -4.460938 Z M 5.914062 -8.421875 "/></g></g></g><g fill="rgb(0%, 0%, 0%)" fill-opacity="1"><g transform="translate(214.935716, 234.511345)"><g/></g></g><g fill="rgb(0%, 0%, 0%)" fill-opacity="1"><g transform="translate(222.156366, 234.511345)"><g><path d="M 11.898438 -11.808594 L 10.179688 -11.808594 C 9.585938 -11.808594 9.496094 -11.414062 9.371094 -11.199219 L 6.898438 -6.792969 L 4.445312 -11.199219 C 4.300781 -11.414062 4.230469 -11.808594 3.621094 -11.808594 L 1.847656 -11.808594 C 1.433594 -11.808594 1.324219 -11.613281 1.324219 -11.289062 L 1.324219 -0.519531 C 1.324219 -0.109375 1.523438 0 1.847656 0 L 3.621094 0 C 3.941406 0 4.140625 -0.109375 4.140625 -0.519531 L 4.140625 -6.59375 L 5.949219 -3.457031 C 6.039062 -3.316406 6.183594 -3.082031 6.453125 -3.082031 L 7.347656 -3.082031 C 7.617188 -3.082031 7.777344 -3.316406 7.867188 -3.457031 L 9.660156 -6.59375 L 9.660156 -0.519531 C 9.660156 -0.109375 9.855469 0 10.179688 0 L 11.898438 0 C 12.222656 0 12.417969 -0.109375 12.417969 -0.519531 L 12.417969 -11.289062 C 12.417969 -11.613281 12.3125 -11.808594 11.898438 -11.808594 Z M 11.898438 -11.808594 "/></g></g></g><g fill="rgb(0%, 0%, 0%)" fill-opacity="1"><g transform="translate(238.262418, 234.511345)"><g><path d="M 11.46875 -0.5 L 7.507812 -11.234375 C 7.347656 -11.613281 7.167969 -11.792969 6.773438 -11.792969 L 5.054688 -11.792969 C 4.660156 -11.792969 4.460938 -11.613281 4.320312 -11.234375 L 0.339844 -0.5 C 0.25 -0.285156 0.25 0 0.644531 0 L 2.527344 0 C 2.921875 0 3.0625 -0.109375 3.207031 -0.539062 L 3.710938 -1.953125 L 8.101562 -1.953125 L 8.601562 -0.539062 C 8.746094 -0.109375 8.886719 0 9.28125 0 L 11.164062 0 C 11.558594 0 11.558594 -0.285156 11.46875 -0.5 Z M 5.914062 -8.421875 L 7.257812 -4.460938 L 4.570312 -4.460938 Z M 5.914062 -8.421875 "/></g></g></g><g fill="rgb(0%, 0%, 0%)" fill-opacity="1"><g transform="translate(252.362098, 234.511345)"><g><path d="M 6.453125 -2.457031 L 5.324219 -2.457031 L 5.324219 -9.300781 L 6.398438 -9.300781 C 6.808594 -9.300781 6.917969 -9.496094 6.917969 -9.820312 L 6.917969 -11.273438 C 6.917969 -11.59375 6.808594 -11.792969 6.398438 -11.792969 L 1.414062 -11.792969 C 1.003906 -11.792969 0.894531 -11.59375 0.894531 -11.273438 L 0.894531 -9.820312 C 0.894531 -9.496094 1.003906 -9.300781 1.414062 -9.300781 L 2.507812 -9.300781 L 2.507812 -2.457031 L 1.378906 -2.457031 C 0.96875 -2.457031 0.859375 -2.257812 0.859375 -1.933594 L 0.859375 -0.519531 C 0.859375 -0.195312 0.96875 0 1.378906 0 L 6.453125 0 C 6.863281 0 6.972656 -0.195312 6.972656 -0.519531 L 6.972656 -1.933594 C 6.972656 -2.257812 6.863281 -2.457031 6.453125 -2.457031 Z M 6.453125 -2.457031 "/></g></g></g><g fill="rgb(0%, 0%, 0%)" fill-opacity="1"><g transform="translate(262.681887, 234.511345)"><g><path d="M 10.589844 -3.78125 L 10.589844 -8.011719 C 10.589844 -10.84375 7.902344 -12.0625 5.769531 -12.0625 C 3.636719 -12.0625 0.984375 -10.84375 0.984375 -8.011719 L 0.984375 -3.78125 C 0.984375 -0.949219 3.636719 0.269531 5.769531 0.269531 C 7.902344 0.269531 10.589844 -0.949219 10.589844 -3.78125 Z M 7.777344 -7.757812 L 7.777344 -4.03125 C 7.777344 -2.886719 6.953125 -2.222656 5.769531 -2.222656 C 4.605469 -2.222656 3.78125 -2.886719 3.78125 -4.03125 L 3.78125 -7.757812 C 3.78125 -8.90625 4.605469 -9.570312 5.769531 -9.570312 C 6.953125 -9.570312 7.777344 -8.90625 7.777344 -7.757812 Z M 7.777344 -7.757812 "/></g></g></g><g fill="rgb(0%, 0%, 0%)" fill-opacity="1"><g transform="translate(276.602421, 234.511345)"><g><path d="M 10.984375 -0.574219 L 8.457031 -4.246094 C 9.570312 -4.625 10.949219 -5.933594 10.949219 -7.8125 C 10.949219 -8.960938 10.574219 -9.980469 9.910156 -10.625 C 9.15625 -11.378906 8.296875 -11.773438 6.34375 -11.773438 L 1.828125 -11.773438 C 1.414062 -11.773438 1.324219 -11.578125 1.324219 -11.253906 L 1.324219 -0.519531 C 1.324219 -0.109375 1.503906 0 1.828125 0 L 3.601562 0 C 3.925781 0 4.121094 -0.109375 4.121094 -0.519531 L 4.121094 -9.265625 L 6.503906 -9.265625 C 7.4375 -9.265625 8.152344 -8.671875 8.152344 -7.742188 C 8.152344 -6.898438 7.328125 -6.289062 6.453125 -6.289062 L 6.09375 -6.289062 C 5.679688 -6.289062 5.574219 -6.09375 5.574219 -5.769531 L 5.574219 -4.335938 C 5.574219 -3.835938 5.609375 -3.636719 5.769531 -3.421875 L 7.707031 -0.539062 C 7.957031 -0.160156 8.171875 0 8.601562 0 L 10.714844 0 C 11.058594 0 11.148438 -0.324219 10.984375 -0.574219 Z M 10.984375 -0.574219 "/></g></g></g><g fill="rgb(0%, 0%, 0%)" fill-opacity="1"><g transform="translate(290.899147, 234.511345)"><g/></g></g><g fill="rgb(0%, 0%, 0%)" fill-opacity="1"><g transform="translate(298.119799, 234.511345)"><g><path d="M 5.878906 -11.792969 L 1.847656 -11.792969 C 1.433594 -11.792969 1.324219 -11.59375 1.324219 -11.273438 L 1.324219 -0.519531 C 1.324219 -0.109375 1.523438 0 1.847656 0 L 3.621094 0 C 3.941406 0 4.140625 -0.109375 4.140625 -0.519531 L 4.140625 -3.496094 L 5.859375 -3.496094 C 8.925781 -3.496094 10.574219 -5.144531 10.574219 -7.632812 C 10.574219 -10.105469 8.960938 -11.792969 5.878906 -11.792969 Z M 5.859375 -5.914062 L 4.140625 -5.914062 L 4.140625 -9.265625 L 5.859375 -9.265625 C 7.257812 -9.265625 7.867188 -8.511719 7.867188 -7.582031 C 7.867188 -6.683594 7.257812 -5.914062 5.859375 -5.914062 Z M 5.859375 -5.914062 "/></g></g></g><g fill="rgb(0%, 0%, 0%)" fill-opacity="1"><g transform="translate(311.735779, 234.511345)"><g><path d="M 11.46875 -0.5 L 7.507812 -11.234375 C 7.347656 -11.613281 7.167969 -11.792969 6.773438 -11.792969 L 5.054688 -11.792969 C 4.660156 -11.792969 4.460938 -11.613281 4.320312 -11.234375 L 0.339844 -0.5 C 0.25 -0.285156 0.25 0 0.644531 0 L 2.527344 0 C 2.921875 0 3.0625 -0.109375 3.207031 -0.539062 L 3.710938 -1.953125 L 8.101562 -1.953125 L 8.601562 -0.539062 C 8.746094 -0.109375 8.886719 0 9.28125 0 L 11.164062 0 C 11.558594 0 11.558594 -0.285156 11.46875 -0.5 Z M 5.914062 -8.421875 L 7.257812 -4.460938 L 4.570312 -4.460938 Z M 5.914062 -8.421875 "/></g></g></g><g fill="rgb(0%, 0%, 0%)" fill-opacity="1"><g transform="translate(325.835459, 234.511345)"><g><path d="M 10.984375 -0.574219 L 8.457031 -4.246094 C 9.570312 -4.625 10.949219 -5.933594 10.949219 -7.8125 C 10.949219 -8.960938 10.574219 -9.980469 9.910156 -10.625 C 9.15625 -11.378906 8.296875 -11.773438 6.34375 -11.773438 L 1.828125 -11.773438 C 1.414062 -11.773438 1.324219 -11.578125 1.324219 -11.253906 L 1.324219 -0.519531 C 1.324219 -0.109375 1.503906 0 1.828125 0 L 3.601562 0 C 3.925781 0 4.121094 -0.109375 4.121094 -0.519531 L 4.121094 -9.265625 L 6.503906 -9.265625 C 7.4375 -9.265625 8.152344 -8.671875 8.152344 -7.742188 C 8.152344 -6.898438 7.328125 -6.289062 6.453125 -6.289062 L 6.09375 -6.289062 C 5.679688 -6.289062 5.574219 -6.09375 5.574219 -5.769531 L 5.574219 -4.335938 C 5.574219 -3.835938 5.609375 -3.636719 5.769531 -3.421875 L 7.707031 -0.539062 C 7.957031 -0.160156 8.171875 0 8.601562 0 L 10.714844 0 C 11.058594 0 11.148438 -0.324219 10.984375 -0.574219 Z M 10.984375 -0.574219 "/></g></g></g><g fill="rgb(0%, 0%, 0%)" fill-opacity="1"><g transform="translate(340.132185, 234.511345)"><g><path d="M 9.300781 -11.792969 L 0.984375 -11.792969 C 0.574219 -11.792969 0.464844 -11.59375 0.464844 -11.273438 L 0.464844 -9.785156 C 0.464844 -9.460938 0.574219 -9.265625 0.984375 -9.265625 L 3.746094 -9.265625 L 3.746094 -0.519531 C 3.746094 -0.109375 3.941406 0 4.265625 0 L 6.039062 0 C 6.363281 0 6.558594 -0.109375 6.558594 -0.519531 L 6.558594 -9.265625 L 9.300781 -9.265625 C 9.714844 -9.265625 9.820312 -9.460938 9.820312 -9.785156 L 9.820312 -11.273438 C 9.820312 -11.59375 9.714844 -11.792969 9.300781 -11.792969 Z M 9.300781 -11.792969 "/></g></g></g><g fill="rgb(0%, 0%, 0%)" fill-opacity="1"><g transform="translate(352.780812, 234.511345)"><g><path d="M 9.875 -2.507812 L 4.15625 -2.507812 L 4.15625 -4.875 L 8.960938 -4.875 C 9.371094 -4.875 9.480469 -5.070312 9.480469 -5.394531 L 9.480469 -6.792969 C 9.480469 -7.113281 9.371094 -7.3125 8.960938 -7.3125 L 4.15625 -7.3125 L 4.15625 -9.265625 L 9.570312 -9.265625 C 9.980469 -9.265625 10.089844 -9.460938 10.089844 -9.785156 L 10.089844 -11.273438 C 10.089844 -11.59375 9.980469 -11.792969 9.570312 -11.792969 L 1.847656 -11.792969 C 1.433594 -11.792969 1.324219 -11.59375 1.324219 -11.273438 L 1.324219 -0.519531 C 1.324219 -0.195312 1.433594 0 1.847656 0 L 9.875 0 C 10.285156 0 10.394531 -0.195312 10.394531 -0.519531 L 10.394531 -1.988281 C 10.394531 -2.3125 10.285156 -2.507812 9.875 -2.507812 Z M 9.875 -2.507812 "/></g></g></g><g fill="rgb(0%, 0%, 0%)" fill-opacity="1"><g transform="translate(366.378885, 234.511345)"><g/></g></g><g fill="rgb(0%, 0%, 0%)" fill-opacity="1"><g transform="translate(373.599536, 234.511345)"><g><path d="M 5.859375 -11.792969 L 1.847656 -11.792969 C 1.433594 -11.792969 1.324219 -11.59375 1.324219 -11.273438 L 1.324219 -0.519531 C 1.324219 -0.195312 1.433594 0 1.847656 0 L 5.859375 0 C 7.992188 0 10.679688 -1.21875 10.679688 -4.03125 L 10.679688 -7.757812 C 10.679688 -10.554688 7.992188 -11.792969 5.859375 -11.792969 Z M 7.867188 -7.507812 L 7.867188 -4.28125 C 7.867188 -3.136719 7.042969 -2.492188 5.859375 -2.492188 L 4.140625 -2.492188 L 4.140625 -9.300781 L 5.859375 -9.300781 C 7.042969 -9.300781 7.867188 -8.636719 7.867188 -7.507812 Z M 7.867188 -7.507812 "/></g></g></g><g fill="rgb(0%, 0%, 0%)" fill-opacity="1"><g transform="translate(387.609643, 234.511345)"><g><path d="M 10.589844 -3.78125 L 10.589844 -8.011719 C 10.589844 -10.84375 7.902344 -12.0625 5.769531 -12.0625 C 3.636719 -12.0625 0.984375 -10.84375 0.984375 -8.011719 L 0.984375 -3.78125 C 0.984375 -0.949219 3.636719 0.269531 5.769531 0.269531 C 7.902344 0.269531 10.589844 -0.949219 10.589844 -3.78125 Z M 7.777344 -7.757812 L 7.777344 -4.03125 C 7.777344 -2.886719 6.953125 -2.222656 5.769531 -2.222656 C 4.605469 -2.222656 3.78125 -2.886719 3.78125 -4.03125 L 3.78125 -7.757812 C 3.78125 -8.90625 4.605469 -9.570312 5.769531 -9.570312 C 6.953125 -9.570312 7.777344 -8.90625 7.777344 -7.757812 Z M 7.777344 -7.757812 "/></g></g></g><g fill="rgb(0%, 0%, 0%)" fill-opacity="1"><g transform="translate(189.269861, 259.472768)"><g><path d="M 5.878906 -11.792969 L 1.847656 -11.792969 C 1.433594 -11.792969 1.324219 -11.59375 1.324219 -11.273438 L 1.324219 -0.519531 C 1.324219 -0.109375 1.523438 0 1.847656 0 L 3.621094 0 C 3.941406 0 4.140625 -0.109375 4.140625 -0.519531 L 4.140625 -3.496094 L 5.859375 -3.496094 C 8.925781 -3.496094 10.574219 -5.144531 10.574219 -7.632812 C 10.574219 -10.105469 8.960938 -11.792969 5.878906 -11.792969 Z M 5.859375 -5.914062 L 4.140625 -5.914062 L 4.140625 -9.265625 L 5.859375 -9.265625 C 7.257812 -9.265625 7.867188 -8.511719 7.867188 -7.582031 C 7.867188 -6.683594 7.257812 -5.914062 5.859375 -5.914062 Z M 5.859375 -5.914062 "/></g></g></g><g fill="rgb(0%, 0%, 0%)" fill-opacity="1"><g transform="translate(202.885847, 259.472768)"><g><path d="M 10.589844 -3.78125 L 10.589844 -8.011719 C 10.589844 -10.84375 7.902344 -12.0625 5.769531 -12.0625 C 3.636719 -12.0625 0.984375 -10.84375 0.984375 -8.011719 L 0.984375 -3.78125 C 0.984375 -0.949219 3.636719 0.269531 5.769531 0.269531 C 7.902344 0.269531 10.589844 -0.949219 10.589844 -3.78125 Z M 7.777344 -7.757812 L 7.777344 -4.03125 C 7.777344 -2.886719 6.953125 -2.222656 5.769531 -2.222656 C 4.605469 -2.222656 3.78125 -2.886719 3.78125 -4.03125 L 3.78125 -7.757812 C 3.78125 -8.90625 4.605469 -9.570312 5.769531 -9.570312 C 6.953125 -9.570312 7.777344 -8.90625 7.777344 -7.757812 Z M 7.777344 -7.757812 "/></g></g></g><g fill="rgb(0%, 0%, 0%)" fill-opacity="1"><g transform="translate(216.806379, 259.472768)"><g><path d="M 10.734375 -11.792969 L 8.835938 -11.792969 C 8.351562 -11.792969 8.226562 -11.648438 8.082031 -11.21875 L 5.664062 -3.800781 L 3.226562 -11.21875 C 3.082031 -11.648438 2.957031 -11.792969 2.492188 -11.792969 L 0.5 -11.792969 C 0.160156 -11.792969 0.0898438 -11.503906 0.179688 -11.273438 L 4.03125 -0.539062 C 4.246094 -0.0703125 4.371094 0 4.765625 0 L 6.488281 0 C 6.882812 0 7.007812 -0.0703125 7.222656 -0.539062 L 11.058594 -11.273438 C 11.148438 -11.503906 11.074219 -11.792969 10.734375 -11.792969 Z M 10.734375 -11.792969 "/></g></g></g><g fill="rgb(0%, 0%, 0%)" fill-opacity="1"><g transform="translate(230.565679, 259.472768)"><g><path d="M 10.589844 -3.78125 L 10.589844 -8.011719 C 10.589844 -10.84375 7.902344 -12.0625 5.769531 -12.0625 C 3.636719 -12.0625 0.984375 -10.84375 0.984375 -8.011719 L 0.984375 -3.78125 C 0.984375 -0.949219 3.636719 0.269531 5.769531 0.269531 C 7.902344 0.269531 10.589844 -0.949219 10.589844 -3.78125 Z M 7.777344 -7.757812 L 7.777344 -4.03125 C 7.777344 -2.886719 6.953125 -2.222656 5.769531 -2.222656 C 4.605469 -2.222656 3.78125 -2.886719 3.78125 -4.03125 L 3.78125 -7.757812 C 3.78125 -8.90625 4.605469 -9.570312 5.769531 -9.570312 C 6.953125 -9.570312 7.777344 -8.90625 7.777344 -7.757812 Z M 7.777344 -7.757812 "/></g></g></g><g fill="rgb(0%, 0%, 0%)" fill-opacity="1"><g transform="translate(244.486213, 259.472768)"><g/></g></g><g fill="rgb(0%, 0%, 0%)" fill-opacity="1"><g transform="translate(251.706864, 259.472768)"><g><path d="M 11.46875 -0.5 L 7.507812 -11.234375 C 7.347656 -11.613281 7.167969 -11.792969 6.773438 -11.792969 L 5.054688 -11.792969 C 4.660156 -11.792969 4.460938 -11.613281 4.320312 -11.234375 L 0.339844 -0.5 C 0.25 -0.285156 0.25 0 0.644531 0 L 2.527344 0 C 2.921875 0 3.0625 -0.109375 3.207031 -0.539062 L 3.710938 -1.953125 L 8.101562 -1.953125 L 8.601562 -0.539062 C 8.746094 -0.109375 8.886719 0 9.28125 0 L 11.164062 0 C 11.558594 0 11.558594 -0.285156 11.46875 -0.5 Z M 5.914062 -8.421875 L 7.257812 -4.460938 L 4.570312 -4.460938 Z M 5.914062 -8.421875 "/></g></g></g><g fill="rgb(0%, 0%, 0%)" fill-opacity="1"><g transform="translate(265.806544, 259.472768)"><g><path d="M 6.882812 -6.84375 C 6.164062 -7.132812 3.53125 -7.527344 3.53125 -8.621094 C 3.53125 -9.425781 4.515625 -9.660156 5.105469 -9.660156 C 5.644531 -9.660156 6.289062 -9.496094 6.628906 -9.175781 C 6.84375 -8.960938 6.933594 -8.816406 7.007812 -8.636719 C 7.097656 -8.40625 7.148438 -8.152344 7.492188 -8.152344 L 9.246094 -8.152344 C 9.660156 -8.152344 9.765625 -8.226562 9.765625 -8.65625 C 9.765625 -11.019531 7.277344 -12.0625 5 -12.0625 C 2.761719 -11.972656 0.644531 -10.824219 0.644531 -8.496094 C 0.644531 -6.21875 2.3125 -5.5 4.121094 -4.929688 C 5.644531 -4.445312 7.238281 -4.425781 7.238281 -3.421875 C 7.238281 -2.417969 6.453125 -2.203125 5.484375 -2.203125 C 4.820312 -2.203125 4.085938 -2.367188 3.726562 -2.796875 C 3.496094 -3.0625 3.40625 -3.296875 3.386719 -3.53125 C 3.351562 -3.976562 3.152344 -4.03125 2.742188 -4.03125 L 1.003906 -4.03125 C 0.589844 -4.03125 0.484375 -3.941406 0.484375 -3.53125 C 0.484375 -1.019531 3.0625 0.269531 5.304688 0.269531 C 8.0625 0.269531 10.070312 -0.949219 10.070312 -3.496094 C 10.070312 -5.933594 8.171875 -6.453125 6.882812 -6.84375 Z M 6.882812 -6.84375 "/></g></g></g><g fill="rgb(0%, 0%, 0%)" fill-opacity="1"><g transform="translate(279.010509, 259.472768)"><g><path d="M 9.300781 -11.792969 L 0.984375 -11.792969 C 0.574219 -11.792969 0.464844 -11.59375 0.464844 -11.273438 L 0.464844 -9.785156 C 0.464844 -9.460938 0.574219 -9.265625 0.984375 -9.265625 L 3.746094 -9.265625 L 3.746094 -0.519531 C 3.746094 -0.109375 3.941406 0 4.265625 0 L 6.039062 0 C 6.363281 0 6.558594 -0.109375 6.558594 -0.519531 L 6.558594 -9.265625 L 9.300781 -9.265625 C 9.714844 -9.265625 9.820312 -9.460938 9.820312 -9.785156 L 9.820312 -11.273438 C 9.820312 -11.59375 9.714844 -11.792969 9.300781 -11.792969 Z M 9.300781 -11.792969 "/></g></g></g><g fill="rgb(0%, 0%, 0%)" fill-opacity="1"><g transform="translate(291.659137, 259.472768)"><g><path d="M 10.410156 -3.496094 C 10.410156 -3.925781 10.269531 -4.105469 9.875 -4.105469 L 8.117188 -4.105469 C 7.722656 -4.105469 7.6875 -3.816406 7.632812 -3.457031 C 7.492188 -2.597656 6.71875 -2.238281 5.753906 -2.238281 C 4.570312 -2.238281 3.761719 -2.886719 3.761719 -4.03125 L 3.761719 -7.757812 C 3.761719 -8.886719 4.570312 -9.550781 5.753906 -9.550781 C 6.71875 -9.550781 7.222656 -9.28125 7.597656 -8.691406 C 7.742188 -8.476562 7.757812 -8.136719 8.136719 -8.136719 L 9.855469 -8.136719 C 10.269531 -8.136719 10.410156 -8.226562 10.410156 -8.65625 C 10.179688 -10.929688 7.976562 -12.0625 5.753906 -12.0625 C 3.621094 -12.0625 0.949219 -10.824219 0.949219 -8.011719 L 0.949219 -3.78125 C 0.949219 -0.96875 3.621094 0.269531 5.753906 0.269531 C 7.976562 0.269531 10.410156 -1.183594 10.410156 -3.496094 Z M 10.410156 -3.496094 "/></g></g></g><g fill="rgb(0%, 0%, 0%)" fill-opacity="1"><g transform="translate(305.346775, 259.472768)"><g><path d="M 11.46875 -0.5 L 7.507812 -11.234375 C 7.347656 -11.613281 7.167969 -11.792969 6.773438 -11.792969 L 5.054688 -11.792969 C 4.660156 -11.792969 4.460938 -11.613281 4.320312 -11.234375 L 0.339844 -0.5 C 0.25 -0.285156 0.25 0 0.644531 0 L 2.527344 0 C 2.921875 0 3.0625 -0.109375 3.207031 -0.539062 L 3.710938 -1.953125 L 8.101562 -1.953125 L 8.601562 -0.539062 C 8.746094 -0.109375 8.886719 0 9.28125 0 L 11.164062 0 C 11.558594 0 11.558594 -0.285156 11.46875 -0.5 Z M 5.914062 -8.421875 L 7.257812 -4.460938 L 4.570312 -4.460938 Z M 5.914062 -8.421875 "/></g></g></g><g fill="rgb(0%, 0%, 0%)" fill-opacity="1"><g transform="translate(319.446454, 259.472768)"><g/></g></g><g fill="rgb(0%, 0%, 0%)" fill-opacity="1"><g transform="translate(326.667106, 259.472768)"><g><path d="M 11.898438 -11.808594 L 10.179688 -11.808594 C 9.585938 -11.808594 9.496094 -11.414062 9.371094 -11.199219 L 6.898438 -6.792969 L 4.445312 -11.199219 C 4.300781 -11.414062 4.230469 -11.808594 3.621094 -11.808594 L 1.847656 -11.808594 C 1.433594 -11.808594 1.324219 -11.613281 1.324219 -11.289062 L 1.324219 -0.519531 C 1.324219 -0.109375 1.523438 0 1.847656 0 L 3.621094 0 C 3.941406 0 4.140625 -0.109375 4.140625 -0.519531 L 4.140625 -6.59375 L 5.949219 -3.457031 C 6.039062 -3.316406 6.183594 -3.082031 6.453125 -3.082031 L 7.347656 -3.082031 C 7.617188 -3.082031 7.777344 -3.316406 7.867188 -3.457031 L 9.660156 -6.59375 L 9.660156 -0.519531 C 9.660156 -0.109375 9.855469 0 10.179688 0 L 11.898438 0 C 12.222656 0 12.417969 -0.109375 12.417969 -0.519531 L 12.417969 -11.289062 C 12.417969 -11.613281 12.3125 -11.808594 11.898438 -11.808594 Z M 11.898438 -11.808594 "/></g></g></g><g fill="rgb(0%, 0%, 0%)" fill-opacity="1"><g transform="translate(342.773162, 259.472768)"><g><path d="M 10.589844 -3.78125 L 10.589844 -8.011719 C 10.589844 -10.84375 7.902344 -12.0625 5.769531 -12.0625 C 3.636719 -12.0625 0.984375 -10.84375 0.984375 -8.011719 L 0.984375 -3.78125 C 0.984375 -0.949219 3.636719 0.269531 5.769531 0.269531 C 7.902344 0.269531 10.589844 -0.949219 10.589844 -3.78125 Z M 7.777344 -7.757812 L 7.777344 -4.03125 C 7.777344 -2.886719 6.953125 -2.222656 5.769531 -2.222656 C 4.605469 -2.222656 3.78125 -2.886719 3.78125 -4.03125 L 3.78125 -7.757812 C 3.78125 -8.90625 4.605469 -9.570312 5.769531 -9.570312 C 6.953125 -9.570312 7.777344 -8.90625 7.777344 -7.757812 Z M 7.777344 -7.757812 "/></g></g></g><g fill="rgb(0%, 0%, 0%)" fill-opacity="1"><g transform="translate(356.693696, 259.472768)"><g><path d="M 10.984375 -0.574219 L 8.457031 -4.246094 C 9.570312 -4.625 10.949219 -5.933594 10.949219 -7.8125 C 10.949219 -8.960938 10.574219 -9.980469 9.910156 -10.625 C 9.15625 -11.378906 8.296875 -11.773438 6.34375 -11.773438 L 1.828125 -11.773438 C 1.414062 -11.773438 1.324219 -11.578125 1.324219 -11.253906 L 1.324219 -0.519531 C 1.324219 -0.109375 1.503906 0 1.828125 0 L 3.601562 0 C 3.925781 0 4.121094 -0.109375 4.121094 -0.519531 L 4.121094 -9.265625 L 6.503906 -9.265625 C 7.4375 -9.265625 8.152344 -8.671875 8.152344 -7.742188 C 8.152344 -6.898438 7.328125 -6.289062 6.453125 -6.289062 L 6.09375 -6.289062 C 5.679688 -6.289062 5.574219 -6.09375 5.574219 -5.769531 L 5.574219 -4.335938 C 5.574219 -3.835938 5.609375 -3.636719 5.769531 -3.421875 L 7.707031 -0.539062 C 7.957031 -0.160156 8.171875 0 8.601562 0 L 10.714844 0 C 11.058594 0 11.148438 -0.324219 10.984375 -0.574219 Z M 10.984375 -0.574219 "/></g></g></g><g fill="rgb(0%, 0%, 0%)" fill-opacity="1"><g transform="translate(370.990422, 259.472768)"><g><path d="M 10.984375 -0.574219 L 8.457031 -4.246094 C 9.570312 -4.625 10.949219 -5.933594 10.949219 -7.8125 C 10.949219 -8.960938 10.574219 -9.980469 9.910156 -10.625 C 9.15625 -11.378906 8.296875 -11.773438 6.34375 -11.773438 L 1.828125 -11.773438 C 1.414062 -11.773438 1.324219 -11.578125 1.324219 -11.253906 L 1.324219 -0.519531 C 1.324219 -0.109375 1.503906 0 1.828125 0 L 3.601562 0 C 3.925781 0 4.121094 -0.109375 4.121094 -0.519531 L 4.121094 -9.265625 L 6.503906 -9.265625 C 7.4375 -9.265625 8.152344 -8.671875 8.152344 -7.742188 C 8.152344 -6.898438 7.328125 -6.289062 6.453125 -6.289062 L 6.09375 -6.289062 C 5.679688 -6.289062 5.574219 -6.09375 5.574219 -5.769531 L 5.574219 -4.335938 C 5.574219 -3.835938 5.609375 -3.636719 5.769531 -3.421875 L 7.707031 -0.539062 C 7.957031 -0.160156 8.171875 0 8.601562 0 L 10.714844 0 C 11.058594 0 11.148438 -0.324219 10.984375 -0.574219 Z M 10.984375 -0.574219 "/></g></g></g><g fill="rgb(0%, 0%, 0%)" fill-opacity="1"><g transform="translate(385.287149, 259.472768)"><g><path d="M 9.875 -2.507812 L 4.15625 -2.507812 L 4.15625 -4.875 L 8.960938 -4.875 C 9.371094 -4.875 9.480469 -5.070312 9.480469 -5.394531 L 9.480469 -6.792969 C 9.480469 -7.113281 9.371094 -7.3125 8.960938 -7.3125 L 4.15625 -7.3125 L 4.15625 -9.265625 L 9.570312 -9.265625 C 9.980469 -9.265625 10.089844 -9.460938 10.089844 -9.785156 L 10.089844 -11.273438 C 10.089844 -11.59375 9.980469 -11.792969 9.570312 -11.792969 L 1.847656 -11.792969 C 1.433594 -11.792969 1.324219 -11.59375 1.324219 -11.273438 L 1.324219 -0.519531 C 1.324219 -0.195312 1.433594 0 1.847656 0 L 9.875 0 C 10.285156 0 10.394531 -0.195312 10.394531 -0.519531 L 10.394531 -1.988281 C 10.394531 -2.3125 10.285156 -2.507812 9.875 -2.507812 Z M 9.875 -2.507812 "/></g></g></g><g fill="rgb(0%, 0%, 0%)" fill-opacity="1"><g transform="translate(398.885221, 259.472768)"><g><path d="M 10.144531 -11.792969 L 8.367188 -11.792969 C 8.046875 -11.792969 7.847656 -11.683594 7.847656 -11.273438 L 7.847656 -3.996094 C 7.847656 -2.867188 7.097656 -2.222656 5.914062 -2.222656 C 4.730469 -2.222656 3.996094 -2.867188 3.996094 -3.996094 L 3.996094 -11.273438 C 3.996094 -11.683594 3.800781 -11.792969 3.476562 -11.792969 L 1.703125 -11.792969 C 1.378906 -11.792969 1.183594 -11.683594 1.183594 -11.273438 L 1.183594 -3.601562 C 1.183594 -0.789062 3.78125 0.269531 5.914062 0.269531 C 8.046875 0.269531 10.664062 -0.789062 10.664062 -3.601562 L 10.664062 -11.273438 C 10.664062 -11.683594 10.464844 -11.792969 10.144531 -11.792969 Z M 10.144531 -11.792969 "/></g></g></g><g fill="rgb(0%, 0%, 0%)" fill-opacity="1"><g transform="translate(198.778335, 284.434191)"><g><path d="M 5.878906 -11.792969 L 1.847656 -11.792969 C 1.433594 -11.792969 1.324219 -11.59375 1.324219 -11.273438 L 1.324219 -0.519531 C 1.324219 -0.109375 1.523438 0 1.847656 0 L 3.621094 0 C 3.941406 0 4.140625 -0.109375 4.140625 -0.519531 L 4.140625 -3.496094 L 5.859375 -3.496094 C 8.925781 -3.496094 10.574219 -5.144531 10.574219 -7.632812 C 10.574219 -10.105469 8.960938 -11.792969 5.878906 -11.792969 Z M 5.859375 -5.914062 L 4.140625 -5.914062 L 4.140625 -9.265625 L 5.859375 -9.265625 C 7.257812 -9.265625 7.867188 -8.511719 7.867188 -7.582031 C 7.867188 -6.683594 7.257812 -5.914062 5.859375 -5.914062 Z M 5.859375 -5.914062 "/></g></g></g><g fill="rgb(0%, 0%, 0%)" fill-opacity="1"><g transform="translate(212.39432, 284.434191)"><g><path d="M 10.589844 -3.78125 L 10.589844 -8.011719 C 10.589844 -10.84375 7.902344 -12.0625 5.769531 -12.0625 C 3.636719 -12.0625 0.984375 -10.84375 0.984375 -8.011719 L 0.984375 -3.78125 C 0.984375 -0.949219 3.636719 0.269531 5.769531 0.269531 C 7.902344 0.269531 10.589844 -0.949219 10.589844 -3.78125 Z M 7.777344 -7.757812 L 7.777344 -4.03125 C 7.777344 -2.886719 6.953125 -2.222656 5.769531 -2.222656 C 4.605469 -2.222656 3.78125 -2.886719 3.78125 -4.03125 L 3.78125 -7.757812 C 3.78125 -8.90625 4.605469 -9.570312 5.769531 -9.570312 C 6.953125 -9.570312 7.777344 -8.90625 7.777344 -7.757812 Z M 7.777344 -7.757812 "/></g></g></g><g fill="rgb(0%, 0%, 0%)" fill-opacity="1"><g transform="translate(226.314852, 284.434191)"><g><path d="M 10.984375 -0.574219 L 8.457031 -4.246094 C 9.570312 -4.625 10.949219 -5.933594 10.949219 -7.8125 C 10.949219 -8.960938 10.574219 -9.980469 9.910156 -10.625 C 9.15625 -11.378906 8.296875 -11.773438 6.34375 -11.773438 L 1.828125 -11.773438 C 1.414062 -11.773438 1.324219 -11.578125 1.324219 -11.253906 L 1.324219 -0.519531 C 1.324219 -0.109375 1.503906 0 1.828125 0 L 3.601562 0 C 3.925781 0 4.121094 -0.109375 4.121094 -0.519531 L 4.121094 -9.265625 L 6.503906 -9.265625 C 7.4375 -9.265625 8.152344 -8.671875 8.152344 -7.742188 C 8.152344 -6.898438 7.328125 -6.289062 6.453125 -6.289062 L 6.09375 -6.289062 C 5.679688 -6.289062 5.574219 -6.09375 5.574219 -5.769531 L 5.574219 -4.335938 C 5.574219 -3.835938 5.609375 -3.636719 5.769531 -3.421875 L 7.707031 -0.539062 C 7.957031 -0.160156 8.171875 0 8.601562 0 L 10.714844 0 C 11.058594 0 11.148438 -0.324219 10.984375 -0.574219 Z M 10.984375 -0.574219 "/></g></g></g><g fill="rgb(0%, 0%, 0%)" fill-opacity="1"><g transform="translate(240.611575, 284.434191)"><g/></g></g><g fill="rgb(0%, 0%, 0%)" fill-opacity="1"><g transform="translate(247.832227, 284.434191)"><g><path d="M 10.410156 -3.496094 C 10.410156 -3.925781 10.269531 -4.105469 9.875 -4.105469 L 8.117188 -4.105469 C 7.722656 -4.105469 7.6875 -3.816406 7.632812 -3.457031 C 7.492188 -2.597656 6.71875 -2.238281 5.753906 -2.238281 C 4.570312 -2.238281 3.761719 -2.886719 3.761719 -4.03125 L 3.761719 -7.757812 C 3.761719 -8.886719 4.570312 -9.550781 5.753906 -9.550781 C 6.71875 -9.550781 7.222656 -9.28125 7.597656 -8.691406 C 7.742188 -8.476562 7.757812 -8.136719 8.136719 -8.136719 L 9.855469 -8.136719 C 10.269531 -8.136719 10.410156 -8.226562 10.410156 -8.65625 C 10.179688 -10.929688 7.976562 -12.0625 5.753906 -12.0625 C 3.621094 -12.0625 0.949219 -10.824219 0.949219 -8.011719 L 0.949219 -3.78125 C 0.949219 -0.96875 3.621094 0.269531 5.753906 0.269531 C 7.976562 0.269531 10.410156 -1.183594 10.410156 -3.496094 Z M 10.410156 -3.496094 "/></g></g></g><g fill="rgb(0%, 0%, 0%)" fill-opacity="1"><g transform="translate(261.519871, 284.434191)"><g><path d="M 11.46875 -0.5 L 7.507812 -11.234375 C 7.347656 -11.613281 7.167969 -11.792969 6.773438 -11.792969 L 5.054688 -11.792969 C 4.660156 -11.792969 4.460938 -11.613281 4.320312 -11.234375 L 0.339844 -0.5 C 0.25 -0.285156 0.25 0 0.644531 0 L 2.527344 0 C 2.921875 0 3.0625 -0.109375 3.207031 -0.539062 L 3.710938 -1.953125 L 8.101562 -1.953125 L 8.601562 -0.539062 C 8.746094 -0.109375 8.886719 0 9.28125 0 L 11.164062 0 C 11.558594 0 11.558594 -0.285156 11.46875 -0.5 Z M 5.914062 -8.421875 L 7.257812 -4.460938 L 4.570312 -4.460938 Z M 5.914062 -8.421875 "/></g></g></g><g fill="rgb(0%, 0%, 0%)" fill-opacity="1"><g transform="translate(275.619551, 284.434191)"><g><path d="M 10.144531 -11.792969 L 8.367188 -11.792969 C 8.046875 -11.792969 7.847656 -11.683594 7.847656 -11.273438 L 7.847656 -3.996094 C 7.847656 -2.867188 7.097656 -2.222656 5.914062 -2.222656 C 4.730469 -2.222656 3.996094 -2.867188 3.996094 -3.996094 L 3.996094 -11.273438 C 3.996094 -11.683594 3.800781 -11.792969 3.476562 -11.792969 L 1.703125 -11.792969 C 1.378906 -11.792969 1.183594 -11.683594 1.183594 -11.273438 L 1.183594 -3.601562 C 1.183594 -0.789062 3.78125 0.269531 5.914062 0.269531 C 8.046875 0.269531 10.664062 -0.789062 10.664062 -3.601562 L 10.664062 -11.273438 C 10.664062 -11.683594 10.464844 -11.792969 10.144531 -11.792969 Z M 10.144531 -11.792969 "/></g></g></g><g fill="rgb(0%, 0%, 0%)" fill-opacity="1"><g transform="translate(289.826704, 284.434191)"><g><path d="M 6.882812 -6.84375 C 6.164062 -7.132812 3.53125 -7.527344 3.53125 -8.621094 C 3.53125 -9.425781 4.515625 -9.660156 5.105469 -9.660156 C 5.644531 -9.660156 6.289062 -9.496094 6.628906 -9.175781 C 6.84375 -8.960938 6.933594 -8.816406 7.007812 -8.636719 C 7.097656 -8.40625 7.148438 -8.152344 7.492188 -8.152344 L 9.246094 -8.152344 C 9.660156 -8.152344 9.765625 -8.226562 9.765625 -8.65625 C 9.765625 -11.019531 7.277344 -12.0625 5 -12.0625 C 2.761719 -11.972656 0.644531 -10.824219 0.644531 -8.496094 C 0.644531 -6.21875 2.3125 -5.5 4.121094 -4.929688 C 5.644531 -4.445312 7.238281 -4.425781 7.238281 -3.421875 C 7.238281 -2.417969 6.453125 -2.203125 5.484375 -2.203125 C 4.820312 -2.203125 4.085938 -2.367188 3.726562 -2.796875 C 3.496094 -3.0625 3.40625 -3.296875 3.386719 -3.53125 C 3.351562 -3.976562 3.152344 -4.03125 2.742188 -4.03125 L 1.003906 -4.03125 C 0.589844 -4.03125 0.484375 -3.941406 0.484375 -3.53125 C 0.484375 -1.019531 3.0625 0.269531 5.304688 0.269531 C 8.0625 0.269531 10.070312 -0.949219 10.070312 -3.496094 C 10.070312 -5.933594 8.171875 -6.453125 6.882812 -6.84375 Z M 6.882812 -6.84375 "/></g></g></g><g fill="rgb(0%, 0%, 0%)" fill-opacity="1"><g transform="translate(303.03067, 284.434191)"><g><path d="M 11.46875 -0.5 L 7.507812 -11.234375 C 7.347656 -11.613281 7.167969 -11.792969 6.773438 -11.792969 L 5.054688 -11.792969 C 4.660156 -11.792969 4.460938 -11.613281 4.320312 -11.234375 L 0.339844 -0.5 C 0.25 -0.285156 0.25 0 0.644531 0 L 2.527344 0 C 2.921875 0 3.0625 -0.109375 3.207031 -0.539062 L 3.710938 -1.953125 L 8.101562 -1.953125 L 8.601562 -0.539062 C 8.746094 -0.109375 8.886719 0 9.28125 0 L 11.164062 0 C 11.558594 0 11.558594 -0.285156 11.46875 -0.5 Z M 5.914062 -8.421875 L 7.257812 -4.460938 L 4.570312 -4.460938 Z M 5.914062 -8.421875 "/></g></g></g><g fill="rgb(0%, 0%, 0%)" fill-opacity="1"><g transform="translate(317.130342, 284.434191)"><g><path d="M 5.859375 -11.792969 L 1.847656 -11.792969 C 1.433594 -11.792969 1.324219 -11.59375 1.324219 -11.273438 L 1.324219 -0.519531 C 1.324219 -0.195312 1.433594 0 1.847656 0 L 5.859375 0 C 7.992188 0 10.679688 -1.21875 10.679688 -4.03125 L 10.679688 -7.757812 C 10.679688 -10.554688 7.992188 -11.792969 5.859375 -11.792969 Z M 7.867188 -7.507812 L 7.867188 -4.28125 C 7.867188 -3.136719 7.042969 -2.492188 5.859375 -2.492188 L 4.140625 -2.492188 L 4.140625 -9.300781 L 5.859375 -9.300781 C 7.042969 -9.300781 7.867188 -8.636719 7.867188 -7.507812 Z M 7.867188 -7.507812 "/></g></g></g><g fill="rgb(0%, 0%, 0%)" fill-opacity="1"><g transform="translate(331.140449, 284.434191)"><g/></g></g><g fill="rgb(0%, 0%, 0%)" fill-opacity="1"><g transform="translate(338.361101, 284.434191)"><g><path d="M 9.875 -2.507812 L 4.15625 -2.507812 L 4.15625 -4.875 L 8.960938 -4.875 C 9.371094 -4.875 9.480469 -5.070312 9.480469 -5.394531 L 9.480469 -6.792969 C 9.480469 -7.113281 9.371094 -7.3125 8.960938 -7.3125 L 4.15625 -7.3125 L 4.15625 -9.265625 L 9.570312 -9.265625 C 9.980469 -9.265625 10.089844 -9.460938 10.089844 -9.785156 L 10.089844 -11.273438 C 10.089844 -11.59375 9.980469 -11.792969 9.570312 -11.792969 L 1.847656 -11.792969 C 1.433594 -11.792969 1.324219 -11.59375 1.324219 -11.273438 L 1.324219 -0.519531 C 1.324219 -0.195312 1.433594 0 1.847656 0 L 9.875 0 C 10.285156 0 10.394531 -0.195312 10.394531 -0.519531 L 10.394531 -1.988281 C 10.394531 -2.3125 10.285156 -2.507812 9.875 -2.507812 Z M 9.875 -2.507812 "/></g></g></g><g fill="rgb(0%, 0%, 0%)" fill-opacity="1"><g transform="translate(351.959173, 284.434191)"><g/></g></g><g fill="rgb(0%, 0%, 0%)" fill-opacity="1"><g transform="translate(359.179825, 284.434191)"><g><path d="M 10.144531 -11.792969 L 8.367188 -11.792969 C 8.046875 -11.792969 7.847656 -11.683594 7.847656 -11.273438 L 7.847656 -3.996094 C 7.847656 -2.867188 7.097656 -2.222656 5.914062 -2.222656 C 4.730469 -2.222656 3.996094 -2.867188 3.996094 -3.996094 L 3.996094 -11.273438 C 3.996094 -11.683594 3.800781 -11.792969 3.476562 -11.792969 L 1.703125 -11.792969 C 1.378906 -11.792969 1.183594 -11.683594 1.183594 -11.273438 L 1.183594 -3.601562 C 1.183594 -0.789062 3.78125 0.269531 5.914062 0.269531 C 8.046875 0.269531 10.664062 -0.789062 10.664062 -3.601562 L 10.664062 -11.273438 C 10.664062 -11.683594 10.464844 -11.792969 10.144531 -11.792969 Z M 10.144531 -11.792969 "/></g></g></g><g fill="rgb(0%, 0%, 0%)" fill-opacity="1"><g transform="translate(373.386978, 284.434191)"><g><path d="M 11.898438 -11.808594 L 10.179688 -11.808594 C 9.585938 -11.808594 9.496094 -11.414062 9.371094 -11.199219 L 6.898438 -6.792969 L 4.445312 -11.199219 C 4.300781 -11.414062 4.230469 -11.808594 3.621094 -11.808594 L 1.847656 -11.808594 C 1.433594 -11.808594 1.324219 -11.613281 1.324219 -11.289062 L 1.324219 -0.519531 C 1.324219 -0.109375 1.523438 0 1.847656 0 L 3.621094 0 C 3.941406 0 4.140625 -0.109375 4.140625 -0.519531 L 4.140625 -6.59375 L 5.949219 -3.457031 C 6.039062 -3.316406 6.183594 -3.082031 6.453125 -3.082031 L 7.347656 -3.082031 C 7.617188 -3.082031 7.777344 -3.316406 7.867188 -3.457031 L 9.660156 -6.59375 L 9.660156 -0.519531 C 9.660156 -0.109375 9.855469 0 10.179688 0 L 11.898438 0 C 12.222656 0 12.417969 -0.109375 12.417969 -0.519531 L 12.417969 -11.289062 C 12.417969 -11.613281 12.3125 -11.808594 11.898438 -11.808594 Z M 11.898438 -11.808594 "/></g></g></g><g fill="rgb(0%, 0%, 0%)" fill-opacity="1"><g transform="translate(389.493034, 284.434191)"><g><path d="M 11.46875 -0.5 L 7.507812 -11.234375 C 7.347656 -11.613281 7.167969 -11.792969 6.773438 -11.792969 L 5.054688 -11.792969 C 4.660156 -11.792969 4.460938 -11.613281 4.320312 -11.234375 L 0.339844 -0.5 C 0.25 -0.285156 0.25 0 0.644531 0 L 2.527344 0 C 2.921875 0 3.0625 -0.109375 3.207031 -0.539062 L 3.710938 -1.953125 L 8.101562 -1.953125 L 8.601562 -0.539062 C 8.746094 -0.109375 8.886719 0 9.28125 0 L 11.164062 0 C 11.558594 0 11.558594 -0.285156 11.46875 -0.5 Z M 5.914062 -8.421875 L 7.257812 -4.460938 L 4.570312 -4.460938 Z M 5.914062 -8.421875 "/></g></g></g><g fill="rgb(0%, 0%, 0%)" fill-opacity="1"><g transform="translate(243.402258, 309.395614)"><g><path d="M 9.730469 -6.109375 C 9.890625 -6.183594 11.039062 -6.757812 11.039062 -8.566406 C 11.039062 -10.25 9.785156 -11.808594 6.863281 -11.808594 L 1.847656 -11.808594 C 1.433594 -11.808594 1.324219 -11.613281 1.324219 -11.289062 L 1.324219 -0.519531 C 1.324219 -0.195312 1.433594 0 1.847656 0 L 7.113281 0 C 9.605469 0 11.378906 -1.164062 11.378906 -3.441406 C 11.378906 -5.375 9.875 -6.058594 9.730469 -6.109375 Z M 7.148438 -2.542969 L 4.140625 -2.542969 L 4.140625 -9.28125 L 6.863281 -9.28125 C 7.796875 -9.28125 8.351562 -9.085938 8.351562 -8.28125 C 8.351562 -7.582031 7.902344 -7.203125 6.863281 -7.203125 L 6.628906 -7.203125 C 6.21875 -7.203125 6.109375 -7.007812 6.109375 -6.683594 L 6.109375 -5.324219 C 6.109375 -5 6.21875 -4.800781 6.628906 -4.800781 L 7.042969 -4.800781 C 7.902344 -4.800781 8.53125 -4.550781 8.53125 -3.710938 C 8.53125 -2.902344 8.027344 -2.542969 7.148438 -2.542969 Z M 7.148438 -2.542969 "/></g></g></g><g fill="rgb(0%, 0%, 0%)" fill-opacity="1"><g transform="translate(258.075188, 309.395614)"><g><path d="M 11.46875 -0.5 L 7.507812 -11.234375 C 7.347656 -11.613281 7.167969 -11.792969 6.773438 -11.792969 L 5.054688 -11.792969 C 4.660156 -11.792969 4.460938 -11.613281 4.320312 -11.234375 L 0.339844 -0.5 C 0.25 -0.285156 0.25 0 0.644531 0 L 2.527344 0 C 2.921875 0 3.0625 -0.109375 3.207031 -0.539062 L 3.710938 -1.953125 L 8.101562 -1.953125 L 8.601562 -0.539062 C 8.746094 -0.109375 8.886719 0 9.28125 0 L 11.164062 0 C 11.558594 0 11.558594 -0.285156 11.46875 -0.5 Z M 5.914062 -8.421875 L 7.257812 -4.460938 L 4.570312 -4.460938 Z M 5.914062 -8.421875 "/></g></g></g><g fill="rgb(0%, 0%, 0%)" fill-opacity="1"><g transform="translate(272.174866, 309.395614)"><g><path d="M 10.410156 -3.496094 C 10.410156 -3.925781 10.269531 -4.105469 9.875 -4.105469 L 8.117188 -4.105469 C 7.722656 -4.105469 7.6875 -3.816406 7.632812 -3.457031 C 7.492188 -2.597656 6.71875 -2.238281 5.753906 -2.238281 C 4.570312 -2.238281 3.761719 -2.886719 3.761719 -4.03125 L 3.761719 -7.757812 C 3.761719 -8.886719 4.570312 -9.550781 5.753906 -9.550781 C 6.71875 -9.550781 7.222656 -9.28125 7.597656 -8.691406 C 7.742188 -8.476562 7.757812 -8.136719 8.136719 -8.136719 L 9.855469 -8.136719 C 10.269531 -8.136719 10.410156 -8.226562 10.410156 -8.65625 C 10.179688 -10.929688 7.976562 -12.0625 5.753906 -12.0625 C 3.621094 -12.0625 0.949219 -10.824219 0.949219 -8.011719 L 0.949219 -3.78125 C 0.949219 -0.96875 3.621094 0.269531 5.753906 0.269531 C 7.976562 0.269531 10.410156 -1.183594 10.410156 -3.496094 Z M 10.410156 -3.496094 "/></g></g></g><g fill="rgb(0%, 0%, 0%)" fill-opacity="1"><g transform="translate(285.862507, 309.395614)"><g><path d="M 9.300781 -11.792969 L 0.984375 -11.792969 C 0.574219 -11.792969 0.464844 -11.59375 0.464844 -11.273438 L 0.464844 -9.785156 C 0.464844 -9.460938 0.574219 -9.265625 0.984375 -9.265625 L 3.746094 -9.265625 L 3.746094 -0.519531 C 3.746094 -0.109375 3.941406 0 4.265625 0 L 6.039062 0 C 6.363281 0 6.558594 -0.109375 6.558594 -0.519531 L 6.558594 -9.265625 L 9.300781 -9.265625 C 9.714844 -9.265625 9.820312 -9.460938 9.820312 -9.785156 L 9.820312 -11.273438 C 9.820312 -11.59375 9.714844 -11.792969 9.300781 -11.792969 Z M 9.300781 -11.792969 "/></g></g></g><g fill="rgb(0%, 0%, 0%)" fill-opacity="1"><g transform="translate(298.511135, 309.395614)"><g><path d="M 4.550781 -12.832031 L 6.308594 -12.832031 C 6.757812 -12.832031 6.898438 -13.082031 7.148438 -13.332031 L 8.941406 -15.269531 C 9.105469 -15.429688 9.050781 -15.769531 8.601562 -15.769531 L 6.324219 -15.769531 C 5.933594 -15.769531 5.789062 -15.714844 5.519531 -15.269531 L 4.320312 -13.332031 C 4.210938 -13.171875 4.210938 -12.832031 4.550781 -12.832031 Z M 9.875 -2.507812 L 4.15625 -2.507812 L 4.15625 -4.875 L 8.960938 -4.875 C 9.371094 -4.875 9.480469 -5.070312 9.480469 -5.394531 L 9.480469 -6.792969 C 9.480469 -7.113281 9.371094 -7.3125 8.960938 -7.3125 L 4.15625 -7.3125 L 4.15625 -9.265625 L 9.570312 -9.265625 C 9.980469 -9.265625 10.089844 -9.460938 10.089844 -9.785156 L 10.089844 -11.273438 C 10.089844 -11.59375 9.980469 -11.792969 9.570312 -11.792969 L 1.847656 -11.792969 C 1.433594 -11.792969 1.324219 -11.59375 1.324219 -11.273438 L 1.324219 -0.519531 C 1.324219 -0.195312 1.433594 0 1.847656 0 L 9.875 0 C 10.285156 0 10.394531 -0.195312 10.394531 -0.519531 L 10.394531 -1.988281 C 10.394531 -2.3125 10.285156 -2.507812 9.875 -2.507812 Z M 9.875 -2.507812 "/></g></g></g><g fill="rgb(0%, 0%, 0%)" fill-opacity="1"><g transform="translate(312.109207, 309.395614)"><g><path d="M 10.984375 -0.574219 L 8.457031 -4.246094 C 9.570312 -4.625 10.949219 -5.933594 10.949219 -7.8125 C 10.949219 -8.960938 10.574219 -9.980469 9.910156 -10.625 C 9.15625 -11.378906 8.296875 -11.773438 6.34375 -11.773438 L 1.828125 -11.773438 C 1.414062 -11.773438 1.324219 -11.578125 1.324219 -11.253906 L 1.324219 -0.519531 C 1.324219 -0.109375 1.503906 0 1.828125 0 L 3.601562 0 C 3.925781 0 4.121094 -0.109375 4.121094 -0.519531 L 4.121094 -9.265625 L 6.503906 -9.265625 C 7.4375 -9.265625 8.152344 -8.671875 8.152344 -7.742188 C 8.152344 -6.898438 7.328125 -6.289062 6.453125 -6.289062 L 6.09375 -6.289062 C 5.679688 -6.289062 5.574219 -6.09375 5.574219 -5.769531 L 5.574219 -4.335938 C 5.574219 -3.835938 5.609375 -3.636719 5.769531 -3.421875 L 7.707031 -0.539062 C 7.957031 -0.160156 8.171875 0 8.601562 0 L 10.714844 0 C 11.058594 0 11.148438 -0.324219 10.984375 -0.574219 Z M 10.984375 -0.574219 "/></g></g></g><g fill="rgb(0%, 0%, 0%)" fill-opacity="1"><g transform="translate(326.405933, 309.395614)"><g><path d="M 6.453125 -2.457031 L 5.324219 -2.457031 L 5.324219 -9.300781 L 6.398438 -9.300781 C 6.808594 -9.300781 6.917969 -9.496094 6.917969 -9.820312 L 6.917969 -11.273438 C 6.917969 -11.59375 6.808594 -11.792969 6.398438 -11.792969 L 1.414062 -11.792969 C 1.003906 -11.792969 0.894531 -11.59375 0.894531 -11.273438 L 0.894531 -9.820312 C 0.894531 -9.496094 1.003906 -9.300781 1.414062 -9.300781 L 2.507812 -9.300781 L 2.507812 -2.457031 L 1.378906 -2.457031 C 0.96875 -2.457031 0.859375 -2.257812 0.859375 -1.933594 L 0.859375 -0.519531 C 0.859375 -0.195312 0.96875 0 1.378906 0 L 6.453125 0 C 6.863281 0 6.972656 -0.195312 6.972656 -0.519531 L 6.972656 -1.933594 C 6.972656 -2.257812 6.863281 -2.457031 6.453125 -2.457031 Z M 6.453125 -2.457031 "/></g></g></g><g fill="rgb(0%, 0%, 0%)" fill-opacity="1"><g transform="translate(336.725723, 309.395614)"><g><path d="M 11.46875 -0.5 L 7.507812 -11.234375 C 7.347656 -11.613281 7.167969 -11.792969 6.773438 -11.792969 L 5.054688 -11.792969 C 4.660156 -11.792969 4.460938 -11.613281 4.320312 -11.234375 L 0.339844 -0.5 C 0.25 -0.285156 0.25 0 0.644531 0 L 2.527344 0 C 2.921875 0 3.0625 -0.109375 3.207031 -0.539062 L 3.710938 -1.953125 L 8.101562 -1.953125 L 8.601562 -0.539062 C 8.746094 -0.109375 8.886719 0 9.28125 0 L 11.164062 0 C 11.558594 0 11.558594 -0.285156 11.46875 -0.5 Z M 5.914062 -8.421875 L 7.257812 -4.460938 L 4.570312 -4.460938 Z M 5.914062 -8.421875 "/></g></g></g><g fill="rgb(0%, 0%, 0%)" fill-opacity="1"><g transform="translate(350.825402, 309.395614)"><g><path d="M 2.527344 -3.710938 L 3.40625 -3.710938 C 3.816406 -3.710938 3.851562 -3.761719 3.90625 -4.230469 C 4.675781 -11.308594 4.695312 -11.363281 4.695312 -11.414062 C 4.695312 -11.738281 4.535156 -11.792969 4.15625 -11.792969 L 1.757812 -11.792969 C 1.398438 -11.792969 1.238281 -11.71875 1.238281 -11.414062 C 1.238281 -11.363281 1.253906 -11.308594 2.007812 -4.230469 C 2.0625 -3.78125 2.097656 -3.710938 2.527344 -3.710938 Z M 3.960938 -3.027344 L 1.972656 -3.027344 C 1.648438 -3.027344 1.453125 -2.921875 1.453125 -2.507812 L 1.453125 -0.519531 C 1.453125 -0.109375 1.648438 0 1.972656 0 L 3.960938 0 C 4.28125 0 4.480469 -0.109375 4.480469 -0.519531 L 4.480469 -2.507812 C 4.480469 -2.921875 4.28125 -3.027344 3.960938 -3.027344 Z M 3.960938 -3.027344 "/></g></g></g></svg>