<svg xmlns="http://www.w3.org/2000/svg" xmlns:xlink="http://www.w3.org/1999/xlink" width="480" zoomAndPan="magnify" viewBox="0 0 360 359.999987" height="480" preserveAspectRatio="xMidYMid meet" version="1.0"><defs><g/></defs><path fill="rgb(81.568909%, 100%, 87.838745%)" d="M 179.835938 0 C 80.515625 0 0 80.355469 0 179.476562 C 0 278.597656 80.515625 358.949219 179.835938 358.949219 C 279.152344 358.949219 359.667969 278.597656 359.667969 179.476562 C 359.667969 80.355469 279.152344 0 179.835938 0 " fill-opacity="1" fill-rule="nonzero"/><g fill="rgb(0%, 0%, 0%)" fill-opacity="1"><g transform="translate(31.224615, 129.094996)"><g><path d="M 9.371094 -5.886719 C 9.527344 -5.953125 10.632812 -6.507812 10.632812 -8.25 C 10.632812 -9.871094 9.421875 -11.375 6.609375 -11.375 L 1.777344 -11.375 C 1.378906 -11.375 1.277344 -11.183594 1.277344 -10.871094 L 1.277344 -0.5 C 1.277344 -0.191406 1.378906 0 1.777344 0 L 6.851562 0 C 9.25 0 10.957031 -1.121094 10.957031 -3.3125 C 10.957031 -5.175781 9.507812 -5.832031 9.371094 -5.886719 Z M 6.886719 -2.449219 L 3.988281 -2.449219 L 3.988281 -8.941406 L 6.609375 -8.941406 C 7.507812 -8.941406 8.042969 -8.75 8.042969 -7.972656 C 8.042969 -7.300781 7.609375 -6.9375 6.609375 -6.9375 L 6.386719 -6.9375 C 5.988281 -6.9375 5.886719 -6.746094 5.886719 -6.4375 L 5.886719 -5.125 C 5.886719 -4.816406 5.988281 -4.625 6.386719 -4.625 L 6.78125 -4.625 C 7.609375 -4.625 8.214844 -4.382812 8.214844 -3.574219 C 8.214844 -2.796875 7.730469 -2.449219 6.886719 -2.449219 Z M 6.886719 -2.449219 "/></g></g></g><g fill="rgb(0%, 0%, 0%)" fill-opacity="1"><g transform="translate(45.352443, 129.094996)"><g><path d="M 11.046875 -0.484375 L 7.230469 -10.820312 C 7.074219 -11.183594 6.902344 -11.355469 6.523438 -11.355469 L 4.867188 -11.355469 C 4.488281 -11.355469 4.296875 -11.183594 4.160156 -10.820312 L 0.328125 -0.484375 C 0.242188 -0.277344 0.242188 0 0.621094 0 L 2.433594 0 C 2.8125 0 2.949219 -0.105469 3.089844 -0.519531 L 3.574219 -1.882812 L 7.800781 -1.882812 L 8.285156 -0.519531 C 8.421875 -0.105469 8.558594 0 8.941406 0 L 10.75 0 C 11.132812 0 11.132812 -0.277344 11.046875 -0.484375 Z M 5.695312 -8.113281 L 6.988281 -4.296875 L 4.402344 -4.296875 Z M 5.695312 -8.113281 "/></g></g></g><g fill="rgb(0%, 0%, 0%)" fill-opacity="1"><g transform="translate(58.928348, 129.094996)"><g><path d="M 10.027344 -3.367188 C 10.027344 -3.78125 9.890625 -3.953125 9.507812 -3.953125 L 7.816406 -3.953125 C 7.4375 -3.953125 7.402344 -3.675781 7.351562 -3.332031 C 7.214844 -2.503906 6.472656 -2.15625 5.539062 -2.15625 C 4.402344 -2.15625 3.625 -2.777344 3.625 -3.882812 L 3.625 -7.472656 C 3.625 -8.558594 4.402344 -9.199219 5.539062 -9.199219 C 6.472656 -9.199219 6.953125 -8.941406 7.316406 -8.371094 C 7.457031 -8.164062 7.472656 -7.835938 7.835938 -7.835938 L 9.492188 -7.835938 C 9.890625 -7.835938 10.027344 -7.921875 10.027344 -8.335938 C 9.800781 -10.527344 7.679688 -11.613281 5.539062 -11.613281 C 3.484375 -11.613281 0.914062 -10.425781 0.914062 -7.714844 L 0.914062 -3.640625 C 0.914062 -0.933594 3.484375 0.257812 5.539062 0.257812 C 7.679688 0.257812 10.027344 -1.140625 10.027344 -3.367188 Z M 10.027344 -3.367188 "/></g></g></g><g fill="rgb(0%, 0%, 0%)" fill-opacity="1"><g transform="translate(72.107568, 129.094996)"><g><path d="M 8.957031 -11.355469 L 0.949219 -11.355469 C 0.550781 -11.355469 0.449219 -11.167969 0.449219 -10.855469 L 0.449219 -9.421875 C 0.449219 -9.113281 0.550781 -8.921875 0.949219 -8.921875 L 3.605469 -8.921875 L 3.605469 -0.5 C 3.605469 -0.105469 3.796875 0 4.109375 0 L 5.816406 0 C 6.125 0 6.316406 -0.105469 6.316406 -0.5 L 6.316406 -8.921875 L 8.957031 -8.921875 C 9.355469 -8.921875 9.457031 -9.113281 9.457031 -9.421875 L 9.457031 -10.855469 C 9.457031 -11.167969 9.355469 -11.355469 8.957031 -11.355469 Z M 8.957031 -11.355469 "/></g></g></g><g fill="rgb(0%, 0%, 0%)" fill-opacity="1"><g transform="translate(84.286439, 129.094996)"><g><path d="M 4.382812 -12.355469 L 6.074219 -12.355469 C 6.507812 -12.355469 6.644531 -12.597656 6.886719 -12.839844 L 8.613281 -14.703125 C 8.765625 -14.859375 8.714844 -15.1875 8.285156 -15.1875 L 6.09375 -15.1875 C 5.710938 -15.1875 5.574219 -15.136719 5.316406 -14.703125 L 4.160156 -12.839844 C 4.054688 -12.683594 4.054688 -12.355469 4.382812 -12.355469 Z M 9.507812 -2.417969 L 4.003906 -2.417969 L 4.003906 -4.695312 L 8.628906 -4.695312 C 9.027344 -4.695312 9.128906 -4.882812 9.128906 -5.195312 L 9.128906 -6.539062 C 9.128906 -6.851562 9.027344 -7.042969 8.628906 -7.042969 L 4.003906 -7.042969 L 4.003906 -8.921875 L 9.214844 -8.921875 C 9.613281 -8.921875 9.714844 -9.113281 9.714844 -9.421875 L 9.714844 -10.855469 C 9.714844 -11.167969 9.613281 -11.355469 9.214844 -11.355469 L 1.777344 -11.355469 C 1.378906 -11.355469 1.277344 -11.167969 1.277344 -10.855469 L 1.277344 -0.5 C 1.277344 -0.191406 1.378906 0 1.777344 0 L 9.507812 0 C 9.90625 0 10.011719 -0.191406 10.011719 -0.5 L 10.011719 -1.914062 C 10.011719 -2.226562 9.90625 -2.417969 9.507812 -2.417969 Z M 9.507812 -2.417969 "/></g></g></g><g fill="rgb(0%, 0%, 0%)" fill-opacity="1"><g transform="translate(97.379415, 129.094996)"><g><path d="M 10.578125 -0.550781 L 8.144531 -4.089844 C 9.214844 -4.453125 10.542969 -5.710938 10.542969 -7.523438 C 10.542969 -8.628906 10.183594 -9.613281 9.542969 -10.234375 C 8.820312 -10.957031 7.992188 -11.339844 6.109375 -11.339844 L 1.761719 -11.339844 C 1.363281 -11.339844 1.277344 -11.148438 1.277344 -10.839844 L 1.277344 -0.5 C 1.277344 -0.105469 1.449219 0 1.761719 0 L 3.46875 0 C 3.78125 0 3.96875 -0.105469 3.96875 -0.5 L 3.96875 -8.921875 L 6.265625 -8.921875 C 7.164062 -8.921875 7.851562 -8.351562 7.851562 -7.457031 C 7.851562 -6.644531 7.058594 -6.058594 6.214844 -6.058594 L 5.867188 -6.058594 C 5.472656 -6.058594 5.367188 -5.867188 5.367188 -5.558594 L 5.367188 -4.175781 C 5.367188 -3.691406 5.402344 -3.503906 5.558594 -3.296875 L 7.421875 -0.519531 C 7.664062 -0.15625 7.871094 0 8.285156 0 L 10.320312 0 C 10.648438 0 10.734375 -0.3125 10.578125 -0.550781 Z M 10.578125 -0.550781 "/></g></g></g><g fill="rgb(0%, 0%, 0%)" fill-opacity="1"><g transform="translate(111.145037, 129.094996)"><g><path d="M 6.214844 -2.363281 L 5.125 -2.363281 L 5.125 -8.957031 L 6.160156 -8.957031 C 6.558594 -8.957031 6.660156 -9.148438 6.660156 -9.457031 L 6.660156 -10.855469 C 6.660156 -11.167969 6.558594 -11.355469 6.160156 -11.355469 L 1.363281 -11.355469 C 0.964844 -11.355469 0.863281 -11.167969 0.863281 -10.855469 L 0.863281 -9.457031 C 0.863281 -9.148438 0.964844 -8.957031 1.363281 -8.957031 L 2.417969 -8.957031 L 2.417969 -2.363281 L 1.328125 -2.363281 C 0.933594 -2.363281 0.828125 -2.175781 0.828125 -1.863281 L 0.828125 -0.5 C 0.828125 -0.191406 0.933594 0 1.328125 0 L 6.214844 0 C 6.609375 0 6.714844 -0.191406 6.714844 -0.5 L 6.714844 -1.863281 C 6.714844 -2.175781 6.609375 -2.363281 6.214844 -2.363281 Z M 6.214844 -2.363281 "/></g></g></g><g fill="rgb(0%, 0%, 0%)" fill-opacity="1"><g transform="translate(121.081738, 129.094996)"><g><path d="M 11.046875 -0.484375 L 7.230469 -10.820312 C 7.074219 -11.183594 6.902344 -11.355469 6.523438 -11.355469 L 4.867188 -11.355469 C 4.488281 -11.355469 4.296875 -11.183594 4.160156 -10.820312 L 0.328125 -0.484375 C 0.242188 -0.277344 0.242188 0 0.621094 0 L 2.433594 0 C 2.8125 0 2.949219 -0.105469 3.089844 -0.519531 L 3.574219 -1.882812 L 7.800781 -1.882812 L 8.285156 -0.519531 C 8.421875 -0.105469 8.558594 0 8.941406 0 L 10.75 0 C 11.132812 0 11.132812 -0.277344 11.046875 -0.484375 Z M 5.695312 -8.113281 L 6.988281 -4.296875 L 4.402344 -4.296875 Z M 5.695312 -8.113281 "/></g></g></g><g fill="rgb(0%, 0%, 0%)" fill-opacity="1"><g transform="translate(134.657643, 129.094996)"><g><path d="M 6.628906 -6.59375 C 5.9375 -6.867188 3.398438 -7.25 3.398438 -8.300781 C 3.398438 -9.078125 4.347656 -9.300781 4.917969 -9.300781 C 5.4375 -9.300781 6.058594 -9.148438 6.386719 -8.835938 C 6.59375 -8.628906 6.679688 -8.492188 6.746094 -8.320312 C 6.835938 -8.09375 6.886719 -7.851562 7.214844 -7.851562 L 8.90625 -7.851562 C 9.300781 -7.851562 9.40625 -7.921875 9.40625 -8.335938 C 9.40625 -10.613281 7.007812 -11.613281 4.816406 -11.613281 C 2.65625 -11.527344 0.621094 -10.425781 0.621094 -8.179688 C 0.621094 -5.988281 2.226562 -5.296875 3.96875 -4.746094 C 5.4375 -4.28125 6.972656 -4.261719 6.972656 -3.296875 C 6.972656 -2.328125 6.214844 -2.121094 5.28125 -2.121094 C 4.640625 -2.121094 3.933594 -2.277344 3.589844 -2.691406 C 3.367188 -2.949219 3.277344 -3.175781 3.261719 -3.398438 C 3.226562 -3.832031 3.039062 -3.882812 2.640625 -3.882812 L 0.964844 -3.882812 C 0.570312 -3.882812 0.464844 -3.796875 0.464844 -3.398438 C 0.464844 -0.984375 2.949219 0.257812 5.109375 0.257812 C 7.765625 0.257812 9.699219 -0.914062 9.699219 -3.367188 C 9.699219 -5.710938 7.871094 -6.214844 6.628906 -6.59375 Z M 6.628906 -6.59375 "/></g></g></g><g fill="rgb(0%, 0%, 0%)" fill-opacity="1"><g transform="translate(147.37118, 129.094996)"><g><path d="M 3.554688 -2.917969 L 1.640625 -2.917969 C 1.328125 -2.917969 1.140625 -2.8125 1.140625 -2.417969 L 1.140625 -0.5 C 1.140625 -0.105469 1.328125 0 1.640625 0 L 2.15625 0 L 1.207031 1.777344 C 1.085938 2.003906 1.15625 2.261719 1.378906 2.261719 L 2.484375 2.261719 C 2.710938 2.261719 2.832031 2.15625 2.949219 1.949219 L 3.933594 -0.0507812 C 4.039062 -0.328125 4.054688 -0.484375 4.054688 -0.863281 L 4.054688 -2.417969 C 4.054688 -2.8125 3.867188 -2.917969 3.554688 -2.917969 Z M 3.554688 -2.917969 "/></g></g></g><g fill="rgb(0%, 0%, 0%)" fill-opacity="1"><g transform="translate(154.841499, 129.094996)"><g/></g></g><g fill="rgb(0%, 0%, 0%)" fill-opacity="1"><g transform="translate(161.794397, 129.094996)"><g><path d="M 10.335938 -11.355469 L 8.507812 -11.355469 C 8.042969 -11.355469 7.921875 -11.21875 7.785156 -10.804688 L 5.453125 -3.660156 L 3.105469 -10.804688 C 2.96875 -11.21875 2.847656 -11.355469 2.398438 -11.355469 L 0.484375 -11.355469 C 0.15625 -11.355469 0.0859375 -11.078125 0.171875 -10.855469 L 3.882812 -0.519531 C 4.089844 -0.0703125 4.210938 0 4.589844 0 L 6.246094 0 C 6.628906 0 6.746094 -0.0703125 6.953125 -0.519531 L 10.648438 -10.855469 C 10.734375 -11.078125 10.664062 -11.355469 10.335938 -11.355469 Z M 10.335938 -11.355469 "/></g></g></g><g fill="rgb(0%, 0%, 0%)" fill-opacity="1"><g transform="translate(175.042604, 129.094996)"><g><path d="M 3.070312 -12.355469 L 4.761719 -12.355469 C 5.195312 -12.355469 5.332031 -12.597656 5.574219 -12.839844 L 7.300781 -14.703125 C 7.457031 -14.859375 7.402344 -15.1875 6.972656 -15.1875 L 4.78125 -15.1875 C 4.402344 -15.1875 4.261719 -15.136719 4.003906 -14.703125 L 2.847656 -12.839844 C 2.742188 -12.683594 2.742188 -12.355469 3.070312 -12.355469 Z M 6.835938 -2.417969 L 5.503906 -2.417969 L 5.503906 -8.941406 L 6.539062 -8.941406 C 6.9375 -8.941406 7.042969 -9.128906 7.042969 -9.441406 L 7.042969 -10.855469 C 7.042969 -11.167969 6.9375 -11.355469 6.539062 -11.355469 L 1.742188 -11.355469 C 1.347656 -11.355469 1.242188 -11.167969 1.242188 -10.855469 L 1.242188 -9.441406 C 1.242188 -9.128906 1.347656 -8.941406 1.742188 -8.941406 L 2.796875 -8.941406 L 2.796875 -2.417969 L 1.46875 -2.417969 C 1.070312 -2.417969 0.964844 -2.226562 0.964844 -1.914062 L 0.964844 -0.5 C 0.964844 -0.191406 1.070312 0 1.46875 0 L 6.835938 0 C 7.230469 0 7.335938 -0.191406 7.335938 -0.5 L 7.335938 -1.914062 C 7.335938 -2.226562 7.230469 -2.417969 6.835938 -2.417969 Z M 6.835938 -2.417969 "/></g></g></g><g fill="rgb(0%, 0%, 0%)" fill-opacity="1"><g transform="translate(185.669209, 129.094996)"><g><path d="M 10.578125 -0.550781 L 8.144531 -4.089844 C 9.214844 -4.453125 10.542969 -5.710938 10.542969 -7.523438 C 10.542969 -8.628906 10.183594 -9.613281 9.542969 -10.234375 C 8.820312 -10.957031 7.992188 -11.339844 6.109375 -11.339844 L 1.761719 -11.339844 C 1.363281 -11.339844 1.277344 -11.148438 1.277344 -10.839844 L 1.277344 -0.5 C 1.277344 -0.105469 1.449219 0 1.761719 0 L 3.46875 0 C 3.78125 0 3.96875 -0.105469 3.96875 -0.5 L 3.96875 -8.921875 L 6.265625 -8.921875 C 7.164062 -8.921875 7.851562 -8.351562 7.851562 -7.457031 C 7.851562 -6.644531 7.058594 -6.058594 6.214844 -6.058594 L 5.867188 -6.058594 C 5.472656 -6.058594 5.367188 -5.867188 5.367188 -5.558594 L 5.367188 -4.175781 C 5.367188 -3.691406 5.402344 -3.503906 5.558594 -3.296875 L 7.421875 -0.519531 C 7.664062 -0.15625 7.871094 0 8.285156 0 L 10.320312 0 C 10.648438 0 10.734375 -0.3125 10.578125 -0.550781 Z M 10.578125 -0.550781 "/></g></g></g><g fill="rgb(0%, 0%, 0%)" fill-opacity="1"><g transform="translate(199.434837, 129.094996)"><g><path d="M 9.769531 -11.355469 L 8.058594 -11.355469 C 7.75 -11.355469 7.558594 -11.253906 7.558594 -10.855469 L 7.558594 -3.847656 C 7.558594 -2.761719 6.835938 -2.140625 5.695312 -2.140625 C 4.554688 -2.140625 3.847656 -2.761719 3.847656 -3.847656 L 3.847656 -10.855469 C 3.847656 -11.253906 3.660156 -11.355469 3.347656 -11.355469 L 1.640625 -11.355469 C 1.328125 -11.355469 1.140625 -11.253906 1.140625 -10.855469 L 1.140625 -3.46875 C 1.140625 -0.757812 3.640625 0.257812 5.695312 0.257812 C 7.75 0.257812 10.269531 -0.757812 10.269531 -3.46875 L 10.269531 -10.855469 C 10.269531 -11.253906 10.078125 -11.355469 9.769531 -11.355469 Z M 9.769531 -11.355469 "/></g></g></g><g fill="rgb(0%, 0%, 0%)" fill-opacity="1"><g transform="translate(213.11422, 129.094996)"><g><path d="M 6.628906 -6.59375 C 5.9375 -6.867188 3.398438 -7.25 3.398438 -8.300781 C 3.398438 -9.078125 4.347656 -9.300781 4.917969 -9.300781 C 5.4375 -9.300781 6.058594 -9.148438 6.386719 -8.835938 C 6.59375 -8.628906 6.679688 -8.492188 6.746094 -8.320312 C 6.835938 -8.09375 6.886719 -7.851562 7.214844 -7.851562 L 8.90625 -7.851562 C 9.300781 -7.851562 9.40625 -7.921875 9.40625 -8.335938 C 9.40625 -10.613281 7.007812 -11.613281 4.816406 -11.613281 C 2.65625 -11.527344 0.621094 -10.425781 0.621094 -8.179688 C 0.621094 -5.988281 2.226562 -5.296875 3.96875 -4.746094 C 5.4375 -4.28125 6.972656 -4.261719 6.972656 -3.296875 C 6.972656 -2.328125 6.214844 -2.121094 5.28125 -2.121094 C 4.640625 -2.121094 3.933594 -2.277344 3.589844 -2.691406 C 3.367188 -2.949219 3.277344 -3.175781 3.261719 -3.398438 C 3.226562 -3.832031 3.039062 -3.882812 2.640625 -3.882812 L 0.964844 -3.882812 C 0.570312 -3.882812 0.464844 -3.796875 0.464844 -3.398438 C 0.464844 -0.984375 2.949219 0.257812 5.109375 0.257812 C 7.765625 0.257812 9.699219 -0.914062 9.699219 -3.367188 C 9.699219 -5.710938 7.871094 -6.214844 6.628906 -6.59375 Z M 6.628906 -6.59375 "/></g></g></g><g fill="rgb(0%, 0%, 0%)" fill-opacity="1"><g transform="translate(225.827745, 129.094996)"><g/></g></g><g fill="rgb(0%, 0%, 0%)" fill-opacity="1"><g transform="translate(232.780644, 129.094996)"><g><path d="M 9.507812 -2.417969 L 4.003906 -2.417969 L 4.003906 -4.695312 L 8.628906 -4.695312 C 9.027344 -4.695312 9.128906 -4.882812 9.128906 -5.195312 L 9.128906 -6.539062 C 9.128906 -6.851562 9.027344 -7.042969 8.628906 -7.042969 L 4.003906 -7.042969 L 4.003906 -8.921875 L 9.214844 -8.921875 C 9.613281 -8.921875 9.714844 -9.113281 9.714844 -9.421875 L 9.714844 -10.855469 C 9.714844 -11.167969 9.613281 -11.355469 9.214844 -11.355469 L 1.777344 -11.355469 C 1.378906 -11.355469 1.277344 -11.167969 1.277344 -10.855469 L 1.277344 -0.5 C 1.277344 -0.191406 1.378906 0 1.777344 0 L 9.507812 0 C 9.90625 0 10.011719 -0.191406 10.011719 -0.5 L 10.011719 -1.914062 C 10.011719 -2.226562 9.90625 -2.417969 9.507812 -2.417969 Z M 9.507812 -2.417969 "/></g></g></g><g fill="rgb(0%, 0%, 0%)" fill-opacity="1"><g transform="translate(245.873625, 129.094996)"><g/></g></g><g fill="rgb(0%, 0%, 0%)" fill-opacity="1"><g transform="translate(252.826524, 129.094996)"><g><path d="M 10.199219 -3.640625 L 10.199219 -7.714844 C 10.199219 -10.441406 7.609375 -11.613281 5.558594 -11.613281 C 3.503906 -11.613281 0.949219 -10.441406 0.949219 -7.714844 L 0.949219 -3.640625 C 0.949219 -0.914062 3.503906 0.257812 5.558594 0.257812 C 7.609375 0.257812 10.199219 -0.914062 10.199219 -3.640625 Z M 7.488281 -7.472656 L 7.488281 -3.882812 C 7.488281 -2.777344 6.695312 -2.140625 5.558594 -2.140625 C 4.433594 -2.140625 3.640625 -2.777344 3.640625 -3.882812 L 3.640625 -7.472656 C 3.640625 -8.578125 4.433594 -9.214844 5.558594 -9.214844 C 6.695312 -9.214844 7.488281 -8.578125 7.488281 -7.472656 Z M 7.488281 -7.472656 "/></g></g></g><g fill="rgb(0%, 0%, 0%)" fill-opacity="1"><g transform="translate(266.229958, 129.094996)"><g><path d="M 9.769531 -11.355469 L 8.058594 -11.355469 C 7.75 -11.355469 7.558594 -11.253906 7.558594 -10.855469 L 7.558594 -3.847656 C 7.558594 -2.761719 6.835938 -2.140625 5.695312 -2.140625 C 4.554688 -2.140625 3.847656 -2.761719 3.847656 -3.847656 L 3.847656 -10.855469 C 3.847656 -11.253906 3.660156 -11.355469 3.347656 -11.355469 L 1.640625 -11.355469 C 1.328125 -11.355469 1.140625 -11.253906 1.140625 -10.855469 L 1.140625 -3.46875 C 1.140625 -0.757812 3.640625 0.257812 5.695312 0.257812 C 7.75 0.257812 10.269531 -0.757812 10.269531 -3.46875 L 10.269531 -10.855469 C 10.269531 -11.253906 10.078125 -11.355469 9.769531 -11.355469 Z M 9.769531 -11.355469 "/></g></g></g><g fill="rgb(0%, 0%, 0%)" fill-opacity="1"><g transform="translate(279.909342, 129.094996)"><g><path d="M 8.957031 -11.355469 L 0.949219 -11.355469 C 0.550781 -11.355469 0.449219 -11.167969 0.449219 -10.855469 L 0.449219 -9.421875 C 0.449219 -9.113281 0.550781 -8.921875 0.949219 -8.921875 L 3.605469 -8.921875 L 3.605469 -0.5 C 3.605469 -0.105469 3.796875 0 4.109375 0 L 5.816406 0 C 6.125 0 6.316406 -0.105469 6.316406 -0.5 L 6.316406 -8.921875 L 8.957031 -8.921875 C 9.355469 -8.921875 9.457031 -9.113281 9.457031 -9.421875 L 9.457031 -10.855469 C 9.457031 -11.167969 9.355469 -11.355469 8.957031 -11.355469 Z M 8.957031 -11.355469 "/></g></g></g><g fill="rgb(0%, 0%, 0%)" fill-opacity="1"><g transform="translate(292.088207, 129.094996)"><g><path d="M 10.578125 -0.550781 L 8.144531 -4.089844 C 9.214844 -4.453125 10.542969 -5.710938 10.542969 -7.523438 C 10.542969 -8.628906 10.183594 -9.613281 9.542969 -10.234375 C 8.820312 -10.957031 7.992188 -11.339844 6.109375 -11.339844 L 1.761719 -11.339844 C 1.363281 -11.339844 1.277344 -11.148438 1.277344 -10.839844 L 1.277344 -0.5 C 1.277344 -0.105469 1.449219 0 1.761719 0 L 3.46875 0 C 3.78125 0 3.96875 -0.105469 3.96875 -0.5 L 3.96875 -8.921875 L 6.265625 -8.921875 C 7.164062 -8.921875 7.851562 -8.351562 7.851562 -7.457031 C 7.851562 -6.644531 7.058594 -6.058594 6.214844 -6.058594 L 5.867188 -6.058594 C 5.472656 -6.058594 5.367188 -5.867188 5.367188 -5.558594 L 5.367188 -4.175781 C 5.367188 -3.691406 5.402344 -3.503906 5.558594 -3.296875 L 7.421875 -0.519531 C 7.664062 -0.15625 7.871094 0 8.285156 0 L 10.320312 0 C 10.648438 0 10.734375 -0.3125 10.578125 -0.550781 Z M 10.578125 -0.550781 "/></g></g></g><g fill="rgb(0%, 0%, 0%)" fill-opacity="1"><g transform="translate(305.853835, 129.094996)"><g><path d="M 10.199219 -3.640625 L 10.199219 -7.714844 C 10.199219 -10.441406 7.609375 -11.613281 5.558594 -11.613281 C 3.503906 -11.613281 0.949219 -10.441406 0.949219 -7.714844 L 0.949219 -3.640625 C 0.949219 -0.914062 3.503906 0.257812 5.558594 0.257812 C 7.609375 0.257812 10.199219 -0.914062 10.199219 -3.640625 Z M 7.488281 -7.472656 L 7.488281 -3.882812 C 7.488281 -2.777344 6.695312 -2.140625 5.558594 -2.140625 C 4.433594 -2.140625 3.640625 -2.777344 3.640625 -3.882812 L 3.640625 -7.472656 C 3.640625 -8.578125 4.433594 -9.214844 5.558594 -9.214844 C 6.695312 -9.214844 7.488281 -8.578125 7.488281 -7.472656 Z M 7.488281 -7.472656 "/></g></g></g><g fill="rgb(0%, 0%, 0%)" fill-opacity="1"><g transform="translate(319.257269, 129.094996)"><g><path d="M 6.628906 -6.59375 C 5.9375 -6.867188 3.398438 -7.25 3.398438 -8.300781 C 3.398438 -9.078125 4.347656 -9.300781 4.917969 -9.300781 C 5.4375 -9.300781 6.058594 -9.148438 6.386719 -8.835938 C 6.59375 -8.628906 6.679688 -8.492188 6.746094 -8.320312 C 6.835938 -8.09375 6.886719 -7.851562 7.214844 -7.851562 L 8.90625 -7.851562 C 9.300781 -7.851562 9.40625 -7.921875 9.40625 -8.335938 C 9.40625 -10.613281 7.007812 -11.613281 4.816406 -11.613281 C 2.65625 -11.527344 0.621094 -10.425781 0.621094 -8.179688 C 0.621094 -5.988281 2.226562 -5.296875 3.96875 -4.746094 C 5.4375 -4.28125 6.972656 -4.261719 6.972656 -3.296875 C 6.972656 -2.328125 6.214844 -2.121094 5.28125 -2.121094 C 4.640625 -2.121094 3.933594 -2.277344 3.589844 -2.691406 C 3.367188 -2.949219 3.277344 -3.175781 3.261719 -3.398438 C 3.226562 -3.832031 3.039062 -3.882812 2.640625 -3.882812 L 0.964844 -3.882812 C 0.570312 -3.882812 0.464844 -3.796875 0.464844 -3.398438 C 0.464844 -0.984375 2.949219 0.257812 5.109375 0.257812 C 7.765625 0.257812 9.699219 -0.914062 9.699219 -3.367188 C 9.699219 -5.710938 7.871094 -6.214844 6.628906 -6.59375 Z M 6.628906 -6.59375 "/></g></g></g><g fill="rgb(0%, 0%, 0%)" fill-opacity="1"><g transform="translate(72.762859, 152.934336)"><g><path d="M 11.460938 -11.375 L 9.800781 -11.375 C 9.234375 -11.375 9.148438 -10.992188 9.027344 -10.785156 L 6.644531 -6.539062 L 4.28125 -10.785156 C 4.140625 -10.992188 4.074219 -11.375 3.484375 -11.375 L 1.777344 -11.375 C 1.378906 -11.375 1.277344 -11.183594 1.277344 -10.871094 L 1.277344 -0.5 C 1.277344 -0.105469 1.46875 0 1.777344 0 L 3.484375 0 C 3.796875 0 3.988281 -0.105469 3.988281 -0.5 L 3.988281 -6.351562 L 5.730469 -3.332031 C 5.816406 -3.191406 5.953125 -2.96875 6.214844 -2.96875 L 7.074219 -2.96875 C 7.335938 -2.96875 7.488281 -3.191406 7.578125 -3.332031 L 9.300781 -6.351562 L 9.300781 -0.5 C 9.300781 -0.105469 9.492188 0 9.800781 0 L 11.460938 0 C 11.769531 0 11.960938 -0.105469 11.960938 -0.5 L 11.960938 -10.871094 C 11.960938 -11.183594 11.855469 -11.375 11.460938 -11.375 Z M 11.460938 -11.375 "/></g></g></g><g fill="rgb(0%, 0%, 0%)" fill-opacity="1"><g transform="translate(88.27047, 152.934336)"><g><path d="M 6.214844 -2.363281 L 5.125 -2.363281 L 5.125 -8.957031 L 6.160156 -8.957031 C 6.558594 -8.957031 6.660156 -9.148438 6.660156 -9.457031 L 6.660156 -10.855469 C 6.660156 -11.167969 6.558594 -11.355469 6.160156 -11.355469 L 1.363281 -11.355469 C 0.964844 -11.355469 0.863281 -11.167969 0.863281 -10.855469 L 0.863281 -9.457031 C 0.863281 -9.148438 0.964844 -8.957031 1.363281 -8.957031 L 2.417969 -8.957031 L 2.417969 -2.363281 L 1.328125 -2.363281 C 0.933594 -2.363281 0.828125 -2.175781 0.828125 -1.863281 L 0.828125 -0.5 C 0.828125 -0.191406 0.933594 0 1.328125 0 L 6.214844 0 C 6.609375 0 6.714844 -0.191406 6.714844 -0.5 L 6.714844 -1.863281 C 6.714844 -2.175781 6.609375 -2.363281 6.214844 -2.363281 Z M 6.214844 -2.363281 "/></g></g></g><g fill="rgb(0%, 0%, 0%)" fill-opacity="1"><g transform="translate(98.207171, 152.934336)"><g><path d="M 10.027344 -3.367188 C 10.027344 -3.78125 9.890625 -3.953125 9.507812 -3.953125 L 7.816406 -3.953125 C 7.4375 -3.953125 7.402344 -3.675781 7.351562 -3.332031 C 7.214844 -2.503906 6.472656 -2.15625 5.539062 -2.15625 C 4.402344 -2.15625 3.625 -2.777344 3.625 -3.882812 L 3.625 -7.472656 C 3.625 -8.558594 4.402344 -9.199219 5.539062 -9.199219 C 6.472656 -9.199219 6.953125 -8.941406 7.316406 -8.371094 C 7.457031 -8.164062 7.472656 -7.835938 7.835938 -7.835938 L 9.492188 -7.835938 C 9.890625 -7.835938 10.027344 -7.921875 10.027344 -8.335938 C 9.800781 -10.527344 7.679688 -11.613281 5.539062 -11.613281 C 3.484375 -11.613281 0.914062 -10.425781 0.914062 -7.714844 L 0.914062 -3.640625 C 0.914062 -0.933594 3.484375 0.257812 5.539062 0.257812 C 7.679688 0.257812 10.027344 -1.140625 10.027344 -3.367188 Z M 10.027344 -3.367188 "/></g></g></g><g fill="rgb(0%, 0%, 0%)" fill-opacity="1"><g transform="translate(111.386391, 152.934336)"><g><path d="M 10.578125 -0.550781 L 8.144531 -4.089844 C 9.214844 -4.453125 10.542969 -5.710938 10.542969 -7.523438 C 10.542969 -8.628906 10.183594 -9.613281 9.542969 -10.234375 C 8.820312 -10.957031 7.992188 -11.339844 6.109375 -11.339844 L 1.761719 -11.339844 C 1.363281 -11.339844 1.277344 -11.148438 1.277344 -10.839844 L 1.277344 -0.5 C 1.277344 -0.105469 1.449219 0 1.761719 0 L 3.46875 0 C 3.78125 0 3.96875 -0.105469 3.96875 -0.5 L 3.96875 -8.921875 L 6.265625 -8.921875 C 7.164062 -8.921875 7.851562 -8.351562 7.851562 -7.457031 C 7.851562 -6.644531 7.058594 -6.058594 6.214844 -6.058594 L 5.867188 -6.058594 C 5.472656 -6.058594 5.367188 -5.867188 5.367188 -5.558594 L 5.367188 -4.175781 C 5.367188 -3.691406 5.402344 -3.503906 5.558594 -3.296875 L 7.421875 -0.519531 C 7.664062 -0.15625 7.871094 0 8.285156 0 L 10.320312 0 C 10.648438 0 10.734375 -0.3125 10.578125 -0.550781 Z M 10.578125 -0.550781 "/></g></g></g><g fill="rgb(0%, 0%, 0%)" fill-opacity="1"><g transform="translate(125.152014, 152.934336)"><g><path d="M 10.199219 -3.640625 L 10.199219 -7.714844 C 10.199219 -10.441406 7.609375 -11.613281 5.558594 -11.613281 C 3.503906 -11.613281 0.949219 -10.441406 0.949219 -7.714844 L 0.949219 -3.640625 C 0.949219 -0.914062 3.503906 0.257812 5.558594 0.257812 C 7.609375 0.257812 10.199219 -0.914062 10.199219 -3.640625 Z M 7.488281 -7.472656 L 7.488281 -3.882812 C 7.488281 -2.777344 6.695312 -2.140625 5.558594 -2.140625 C 4.433594 -2.140625 3.640625 -2.777344 3.640625 -3.882812 L 3.640625 -7.472656 C 3.640625 -8.578125 4.433594 -9.214844 5.558594 -9.214844 C 6.695312 -9.214844 7.488281 -8.578125 7.488281 -7.472656 Z M 7.488281 -7.472656 "/></g></g></g><g fill="rgb(0%, 0%, 0%)" fill-opacity="1"><g transform="translate(138.555442, 152.934336)"><g><path d="M 10.578125 -0.550781 L 8.144531 -4.089844 C 9.214844 -4.453125 10.542969 -5.710938 10.542969 -7.523438 C 10.542969 -8.628906 10.183594 -9.613281 9.542969 -10.234375 C 8.820312 -10.957031 7.992188 -11.339844 6.109375 -11.339844 L 1.761719 -11.339844 C 1.363281 -11.339844 1.277344 -11.148438 1.277344 -10.839844 L 1.277344 -0.5 C 1.277344 -0.105469 1.449219 0 1.761719 0 L 3.46875 0 C 3.78125 0 3.96875 -0.105469 3.96875 -0.5 L 3.96875 -8.921875 L 6.265625 -8.921875 C 7.164062 -8.921875 7.851562 -8.351562 7.851562 -7.457031 C 7.851562 -6.644531 7.058594 -6.058594 6.214844 -6.058594 L 5.867188 -6.058594 C 5.472656 -6.058594 5.367188 -5.867188 5.367188 -5.558594 L 5.367188 -4.175781 C 5.367188 -3.691406 5.402344 -3.503906 5.558594 -3.296875 L 7.421875 -0.519531 C 7.664062 -0.15625 7.871094 0 8.285156 0 L 10.320312 0 C 10.648438 0 10.734375 -0.3125 10.578125 -0.550781 Z M 10.578125 -0.550781 "/></g></g></g><g fill="rgb(0%, 0%, 0%)" fill-opacity="1"><g transform="translate(152.321064, 152.934336)"><g><path d="M 9.714844 -6.332031 L 5.9375 -6.332031 C 5.539062 -6.332031 5.4375 -6.144531 5.4375 -5.832031 L 5.4375 -4.488281 C 5.4375 -4.175781 5.539062 -3.988281 5.9375 -3.988281 L 7.488281 -3.988281 C 7.488281 -2.65625 6.695312 -2.140625 5.574219 -2.140625 C 4.433594 -2.140625 3.675781 -2.777344 3.675781 -3.882812 L 3.675781 -7.351562 C 3.675781 -8.457031 4.433594 -9.214844 5.574219 -9.214844 C 6.730469 -9.214844 7.351562 -8.699219 7.542969 -8.164062 C 7.628906 -7.921875 7.558594 -7.578125 8.042969 -7.578125 L 9.714844 -7.578125 C 10.113281 -7.578125 10.21875 -7.644531 10.21875 -8.058594 C 10.21875 -10.371094 7.730469 -11.613281 5.574219 -11.613281 C 3.539062 -11.613281 0.933594 -10.457031 0.933594 -7.730469 L 0.933594 -3.484375 C 0.933594 -0.777344 3.539062 0.257812 5.574219 0.257812 C 7.542969 0.257812 10.0625 -0.84375 10.21875 -3.332031 L 10.21875 -5.832031 C 10.21875 -6.144531 10.113281 -6.332031 9.714844 -6.332031 Z M 9.714844 -6.332031 "/></g></g></g><g fill="rgb(0%, 0%, 0%)" fill-opacity="1"><g transform="translate(165.741738, 152.934336)"><g><path d="M 11.046875 -0.484375 L 7.230469 -10.820312 C 7.074219 -11.183594 6.902344 -11.355469 6.523438 -11.355469 L 4.867188 -11.355469 C 4.488281 -11.355469 4.296875 -11.183594 4.160156 -10.820312 L 0.328125 -0.484375 C 0.242188 -0.277344 0.242188 0 0.621094 0 L 2.433594 0 C 2.8125 0 2.949219 -0.105469 3.089844 -0.519531 L 3.574219 -1.882812 L 7.800781 -1.882812 L 8.285156 -0.519531 C 8.421875 -0.105469 8.558594 0 8.941406 0 L 10.75 0 C 11.132812 0 11.132812 -0.277344 11.046875 -0.484375 Z M 5.695312 -8.113281 L 6.988281 -4.296875 L 4.402344 -4.296875 Z M 5.695312 -8.113281 "/></g></g></g><g fill="rgb(0%, 0%, 0%)" fill-opacity="1"><g transform="translate(179.317638, 152.934336)"><g><path d="M 9.992188 -11.355469 L 8.335938 -11.355469 C 8.023438 -11.355469 7.835938 -11.253906 7.835938 -10.855469 L 7.835938 -4.867188 L 4.175781 -10.769531 C 3.953125 -11.113281 3.832031 -11.355469 3.398438 -11.355469 L 1.777344 -11.355469 C 1.378906 -11.355469 1.277344 -11.167969 1.277344 -10.855469 L 1.277344 -0.5 C 1.277344 -0.105469 1.46875 0 1.777344 0 L 3.484375 0 C 3.796875 0 3.988281 -0.105469 3.988281 -0.5 L 3.988281 -6.507812 L 7.644531 -0.585938 C 7.871094 -0.242188 7.992188 0 8.421875 0 L 9.992188 0 C 10.390625 0 10.492188 -0.191406 10.492188 -0.5 L 10.492188 -10.855469 C 10.492188 -11.253906 10.304688 -11.355469 9.992188 -11.355469 Z M 9.992188 -11.355469 "/></g></g></g><g fill="rgb(0%, 0%, 0%)" fill-opacity="1"><g transform="translate(193.359216, 152.934336)"><g><path d="M 6.214844 -2.363281 L 5.125 -2.363281 L 5.125 -8.957031 L 6.160156 -8.957031 C 6.558594 -8.957031 6.660156 -9.148438 6.660156 -9.457031 L 6.660156 -10.855469 C 6.660156 -11.167969 6.558594 -11.355469 6.160156 -11.355469 L 1.363281 -11.355469 C 0.964844 -11.355469 0.863281 -11.167969 0.863281 -10.855469 L 0.863281 -9.457031 C 0.863281 -9.148438 0.964844 -8.957031 1.363281 -8.957031 L 2.417969 -8.957031 L 2.417969 -2.363281 L 1.328125 -2.363281 C 0.933594 -2.363281 0.828125 -2.175781 0.828125 -1.863281 L 0.828125 -0.5 C 0.828125 -0.191406 0.933594 0 1.328125 0 L 6.214844 0 C 6.609375 0 6.714844 -0.191406 6.714844 -0.5 L 6.714844 -1.863281 C 6.714844 -2.175781 6.609375 -2.363281 6.214844 -2.363281 Z M 6.214844 -2.363281 "/></g></g></g><g fill="rgb(0%, 0%, 0%)" fill-opacity="1"><g transform="translate(203.295912, 152.934336)"><g><path d="M 6.628906 -6.59375 C 5.9375 -6.867188 3.398438 -7.25 3.398438 -8.300781 C 3.398438 -9.078125 4.347656 -9.300781 4.917969 -9.300781 C 5.4375 -9.300781 6.058594 -9.148438 6.386719 -8.835938 C 6.59375 -8.628906 6.679688 -8.492188 6.746094 -8.320312 C 6.835938 -8.09375 6.886719 -7.851562 7.214844 -7.851562 L 8.90625 -7.851562 C 9.300781 -7.851562 9.40625 -7.921875 9.40625 -8.335938 C 9.40625 -10.613281 7.007812 -11.613281 4.816406 -11.613281 C 2.65625 -11.527344 0.621094 -10.425781 0.621094 -8.179688 C 0.621094 -5.988281 2.226562 -5.296875 3.96875 -4.746094 C 5.4375 -4.28125 6.972656 -4.261719 6.972656 -3.296875 C 6.972656 -2.328125 6.214844 -2.121094 5.28125 -2.121094 C 4.640625 -2.121094 3.933594 -2.277344 3.589844 -2.691406 C 3.367188 -2.949219 3.277344 -3.175781 3.261719 -3.398438 C 3.226562 -3.832031 3.039062 -3.882812 2.640625 -3.882812 L 0.964844 -3.882812 C 0.570312 -3.882812 0.464844 -3.796875 0.464844 -3.398438 C 0.464844 -0.984375 2.949219 0.257812 5.109375 0.257812 C 7.765625 0.257812 9.699219 -0.914062 9.699219 -3.367188 C 9.699219 -5.710938 7.871094 -6.214844 6.628906 -6.59375 Z M 6.628906 -6.59375 "/></g></g></g><g fill="rgb(0%, 0%, 0%)" fill-opacity="1"><g transform="translate(216.009437, 152.934336)"><g><path d="M 11.460938 -11.375 L 9.800781 -11.375 C 9.234375 -11.375 9.148438 -10.992188 9.027344 -10.785156 L 6.644531 -6.539062 L 4.28125 -10.785156 C 4.140625 -10.992188 4.074219 -11.375 3.484375 -11.375 L 1.777344 -11.375 C 1.378906 -11.375 1.277344 -11.183594 1.277344 -10.871094 L 1.277344 -0.5 C 1.277344 -0.105469 1.46875 0 1.777344 0 L 3.484375 0 C 3.796875 0 3.988281 -0.105469 3.988281 -0.5 L 3.988281 -6.351562 L 5.730469 -3.332031 C 5.816406 -3.191406 5.953125 -2.96875 6.214844 -2.96875 L 7.074219 -2.96875 C 7.335938 -2.96875 7.488281 -3.191406 7.578125 -3.332031 L 9.300781 -6.351562 L 9.300781 -0.5 C 9.300781 -0.105469 9.492188 0 9.800781 0 L 11.460938 0 C 11.769531 0 11.960938 -0.105469 11.960938 -0.5 L 11.960938 -10.871094 C 11.960938 -11.183594 11.855469 -11.375 11.460938 -11.375 Z M 11.460938 -11.375 "/></g></g></g><g fill="rgb(0%, 0%, 0%)" fill-opacity="1"><g transform="translate(231.517054, 152.934336)"><g><path d="M 10.199219 -3.640625 L 10.199219 -7.714844 C 10.199219 -10.441406 7.609375 -11.613281 5.558594 -11.613281 C 3.503906 -11.613281 0.949219 -10.441406 0.949219 -7.714844 L 0.949219 -3.640625 C 0.949219 -0.914062 3.503906 0.257812 5.558594 0.257812 C 7.609375 0.257812 10.199219 -0.914062 10.199219 -3.640625 Z M 7.488281 -7.472656 L 7.488281 -3.882812 C 7.488281 -2.777344 6.695312 -2.140625 5.558594 -2.140625 C 4.433594 -2.140625 3.640625 -2.777344 3.640625 -3.882812 L 3.640625 -7.472656 C 3.640625 -8.578125 4.433594 -9.214844 5.558594 -9.214844 C 6.695312 -9.214844 7.488281 -8.578125 7.488281 -7.472656 Z M 7.488281 -7.472656 "/></g></g></g><g fill="rgb(0%, 0%, 0%)" fill-opacity="1"><g transform="translate(244.920488, 152.934336)"><g><path d="M 6.628906 -6.59375 C 5.9375 -6.867188 3.398438 -7.25 3.398438 -8.300781 C 3.398438 -9.078125 4.347656 -9.300781 4.917969 -9.300781 C 5.4375 -9.300781 6.058594 -9.148438 6.386719 -8.835938 C 6.59375 -8.628906 6.679688 -8.492188 6.746094 -8.320312 C 6.835938 -8.09375 6.886719 -7.851562 7.214844 -7.851562 L 8.90625 -7.851562 C 9.300781 -7.851562 9.40625 -7.921875 9.40625 -8.335938 C 9.40625 -10.613281 7.007812 -11.613281 4.816406 -11.613281 C 2.65625 -11.527344 0.621094 -10.425781 0.621094 -8.179688 C 0.621094 -5.988281 2.226562 -5.296875 3.96875 -4.746094 C 5.4375 -4.28125 6.972656 -4.261719 6.972656 -3.296875 C 6.972656 -2.328125 6.214844 -2.121094 5.28125 -2.121094 C 4.640625 -2.121094 3.933594 -2.277344 3.589844 -2.691406 C 3.367188 -2.949219 3.277344 -3.175781 3.261719 -3.398438 C 3.226562 -3.832031 3.039062 -3.882812 2.640625 -3.882812 L 0.964844 -3.882812 C 0.570312 -3.882812 0.464844 -3.796875 0.464844 -3.398438 C 0.464844 -0.984375 2.949219 0.257812 5.109375 0.257812 C 7.765625 0.257812 9.699219 -0.914062 9.699219 -3.367188 C 9.699219 -5.710938 7.871094 -6.214844 6.628906 -6.59375 Z M 6.628906 -6.59375 "/></g></g></g><g fill="rgb(0%, 0%, 0%)" fill-opacity="1"><g transform="translate(257.634013, 152.934336)"><g/></g></g><g fill="rgb(0%, 0%, 0%)" fill-opacity="1"><g transform="translate(264.586911, 152.934336)"><g><path d="M 8.351562 -11.632812 L 3.125 -11.632812 C 2.710938 -11.632812 2.625 -11.441406 2.625 -11.132812 L 2.625 -9.699219 C 2.625 -9.386719 2.710938 -9.199219 3.125 -9.199219 L 6.144531 -9.199219 L 6.144531 -4.089844 C 6.144531 -3.019531 5.710938 -2.398438 4.574219 -2.398438 C 3.796875 -2.398438 3.246094 -2.8125 3.191406 -3.832031 C 3.191406 -3.917969 3.160156 -4.195312 2.761719 -4.195312 L 0.933594 -4.195312 C 0.535156 -4.195312 0.519531 -3.8125 0.519531 -3.726562 C 0.519531 -1.292969 2.277344 0 4.574219 0 C 6.628906 0 8.851562 -1.019531 8.851562 -3.710938 L 8.851562 -11.132812 C 8.851562 -11.441406 8.75 -11.632812 8.351562 -11.632812 Z M 8.351562 -11.632812 "/></g></g></g><g fill="rgb(0%, 0%, 0%)" fill-opacity="1"><g transform="translate(276.86926, 152.934336)"><g><path d="M 4.902344 -12.355469 L 6.59375 -12.355469 C 7.023438 -12.355469 7.164062 -12.597656 7.402344 -12.839844 L 9.128906 -14.703125 C 9.285156 -14.859375 9.234375 -15.1875 8.800781 -15.1875 L 6.609375 -15.1875 C 6.230469 -15.1875 6.09375 -15.136719 5.832031 -14.703125 L 4.675781 -12.839844 C 4.574219 -12.683594 4.574219 -12.355469 4.902344 -12.355469 Z M 11.046875 -0.484375 L 7.230469 -10.820312 C 7.074219 -11.183594 6.902344 -11.355469 6.523438 -11.355469 L 4.867188 -11.355469 C 4.488281 -11.355469 4.296875 -11.183594 4.160156 -10.820312 L 0.328125 -0.484375 C 0.242188 -0.277344 0.242188 0 0.621094 0 L 2.433594 0 C 2.8125 0 2.949219 -0.105469 3.089844 -0.519531 L 3.574219 -1.882812 L 7.800781 -1.882812 L 8.285156 -0.519531 C 8.421875 -0.105469 8.558594 0 8.941406 0 L 10.75 0 C 11.132812 0 11.132812 -0.277344 11.046875 -0.484375 Z M 5.695312 -8.113281 L 6.988281 -4.296875 L 4.402344 -4.296875 Z M 5.695312 -8.113281 "/></g></g></g><g fill="rgb(0%, 0%, 0%)" fill-opacity="1"><g transform="translate(47.8512, 176.773676)"><g><path d="M 10.027344 -3.367188 C 10.027344 -3.78125 9.890625 -3.953125 9.507812 -3.953125 L 7.816406 -3.953125 C 7.4375 -3.953125 7.402344 -3.675781 7.351562 -3.332031 C 7.214844 -2.503906 6.472656 -2.15625 5.539062 -2.15625 C 4.402344 -2.15625 3.625 -2.777344 3.625 -3.882812 L 3.625 -7.472656 C 3.625 -8.558594 4.402344 -9.199219 5.539062 -9.199219 C 6.472656 -9.199219 6.953125 -8.941406 7.316406 -8.371094 C 7.457031 -8.164062 7.472656 -7.835938 7.835938 -7.835938 L 9.492188 -7.835938 C 9.890625 -7.835938 10.027344 -7.921875 10.027344 -8.335938 C 9.800781 -10.527344 7.679688 -11.613281 5.539062 -11.613281 C 3.484375 -11.613281 0.914062 -10.425781 0.914062 -7.714844 L 0.914062 -3.640625 C 0.914062 -0.933594 3.484375 0.257812 5.539062 0.257812 C 7.679688 0.257812 10.027344 -1.140625 10.027344 -3.367188 Z M 10.027344 -3.367188 "/></g></g></g><g fill="rgb(0%, 0%, 0%)" fill-opacity="1"><g transform="translate(61.03042, 176.773676)"><g><path d="M 11.046875 -0.484375 L 7.230469 -10.820312 C 7.074219 -11.183594 6.902344 -11.355469 6.523438 -11.355469 L 4.867188 -11.355469 C 4.488281 -11.355469 4.296875 -11.183594 4.160156 -10.820312 L 0.328125 -0.484375 C 0.242188 -0.277344 0.242188 0 0.621094 0 L 2.433594 0 C 2.8125 0 2.949219 -0.105469 3.089844 -0.519531 L 3.574219 -1.882812 L 7.800781 -1.882812 L 8.285156 -0.519531 C 8.421875 -0.105469 8.558594 0 8.941406 0 L 10.75 0 C 11.132812 0 11.132812 -0.277344 11.046875 -0.484375 Z M 5.695312 -8.113281 L 6.988281 -4.296875 L 4.402344 -4.296875 Z M 5.695312 -8.113281 "/></g></g></g><g fill="rgb(0%, 0%, 0%)" fill-opacity="1"><g transform="translate(74.606325, 176.773676)"><g><path d="M 9.769531 -11.355469 L 8.058594 -11.355469 C 7.75 -11.355469 7.558594 -11.253906 7.558594 -10.855469 L 7.558594 -3.847656 C 7.558594 -2.761719 6.835938 -2.140625 5.695312 -2.140625 C 4.554688 -2.140625 3.847656 -2.761719 3.847656 -3.847656 L 3.847656 -10.855469 C 3.847656 -11.253906 3.660156 -11.355469 3.347656 -11.355469 L 1.640625 -11.355469 C 1.328125 -11.355469 1.140625 -11.253906 1.140625 -10.855469 L 1.140625 -3.46875 C 1.140625 -0.757812 3.640625 0.257812 5.695312 0.257812 C 7.75 0.257812 10.269531 -0.757812 10.269531 -3.46875 L 10.269531 -10.855469 C 10.269531 -11.253906 10.078125 -11.355469 9.769531 -11.355469 Z M 9.769531 -11.355469 "/></g></g></g><g fill="rgb(0%, 0%, 0%)" fill-opacity="1"><g transform="translate(88.285715, 176.773676)"><g><path d="M 6.628906 -6.59375 C 5.9375 -6.867188 3.398438 -7.25 3.398438 -8.300781 C 3.398438 -9.078125 4.347656 -9.300781 4.917969 -9.300781 C 5.4375 -9.300781 6.058594 -9.148438 6.386719 -8.835938 C 6.59375 -8.628906 6.679688 -8.492188 6.746094 -8.320312 C 6.835938 -8.09375 6.886719 -7.851562 7.214844 -7.851562 L 8.90625 -7.851562 C 9.300781 -7.851562 9.40625 -7.921875 9.40625 -8.335938 C 9.40625 -10.613281 7.007812 -11.613281 4.816406 -11.613281 C 2.65625 -11.527344 0.621094 -10.425781 0.621094 -8.179688 C 0.621094 -5.988281 2.226562 -5.296875 3.96875 -4.746094 C 5.4375 -4.28125 6.972656 -4.261719 6.972656 -3.296875 C 6.972656 -2.328125 6.214844 -2.121094 5.28125 -2.121094 C 4.640625 -2.121094 3.933594 -2.277344 3.589844 -2.691406 C 3.367188 -2.949219 3.277344 -3.175781 3.261719 -3.398438 C 3.226562 -3.832031 3.039062 -3.882812 2.640625 -3.882812 L 0.964844 -3.882812 C 0.570312 -3.882812 0.464844 -3.796875 0.464844 -3.398438 C 0.464844 -0.984375 2.949219 0.257812 5.109375 0.257812 C 7.765625 0.257812 9.699219 -0.914062 9.699219 -3.367188 C 9.699219 -5.710938 7.871094 -6.214844 6.628906 -6.59375 Z M 6.628906 -6.59375 "/></g></g></g><g fill="rgb(0%, 0%, 0%)" fill-opacity="1"><g transform="translate(100.999246, 176.773676)"><g><path d="M 11.046875 -0.484375 L 7.230469 -10.820312 C 7.074219 -11.183594 6.902344 -11.355469 6.523438 -11.355469 L 4.867188 -11.355469 C 4.488281 -11.355469 4.296875 -11.183594 4.160156 -10.820312 L 0.328125 -0.484375 C 0.242188 -0.277344 0.242188 0 0.621094 0 L 2.433594 0 C 2.8125 0 2.949219 -0.105469 3.089844 -0.519531 L 3.574219 -1.882812 L 7.800781 -1.882812 L 8.285156 -0.519531 C 8.421875 -0.105469 8.558594 0 8.941406 0 L 10.75 0 C 11.132812 0 11.132812 -0.277344 11.046875 -0.484375 Z M 5.695312 -8.113281 L 6.988281 -4.296875 L 4.402344 -4.296875 Z M 5.695312 -8.113281 "/></g></g></g><g fill="rgb(0%, 0%, 0%)" fill-opacity="1"><g transform="translate(114.575151, 176.773676)"><g><path d="M 10.578125 -0.550781 L 8.144531 -4.089844 C 9.214844 -4.453125 10.542969 -5.710938 10.542969 -7.523438 C 10.542969 -8.628906 10.183594 -9.613281 9.542969 -10.234375 C 8.820312 -10.957031 7.992188 -11.339844 6.109375 -11.339844 L 1.761719 -11.339844 C 1.363281 -11.339844 1.277344 -11.148438 1.277344 -10.839844 L 1.277344 -0.5 C 1.277344 -0.105469 1.449219 0 1.761719 0 L 3.46875 0 C 3.78125 0 3.96875 -0.105469 3.96875 -0.5 L 3.96875 -8.921875 L 6.265625 -8.921875 C 7.164062 -8.921875 7.851562 -8.351562 7.851562 -7.457031 C 7.851562 -6.644531 7.058594 -6.058594 6.214844 -6.058594 L 5.867188 -6.058594 C 5.472656 -6.058594 5.367188 -5.867188 5.367188 -5.558594 L 5.367188 -4.175781 C 5.367188 -3.691406 5.402344 -3.503906 5.558594 -3.296875 L 7.421875 -0.519531 C 7.664062 -0.15625 7.871094 0 8.285156 0 L 10.320312 0 C 10.648438 0 10.734375 -0.3125 10.578125 -0.550781 Z M 10.578125 -0.550781 "/></g></g></g><g fill="rgb(0%, 0%, 0%)" fill-opacity="1"><g transform="translate(128.340773, 176.773676)"><g><path d="M 11.046875 -0.484375 L 7.230469 -10.820312 C 7.074219 -11.183594 6.902344 -11.355469 6.523438 -11.355469 L 4.867188 -11.355469 C 4.488281 -11.355469 4.296875 -11.183594 4.160156 -10.820312 L 0.328125 -0.484375 C 0.242188 -0.277344 0.242188 0 0.621094 0 L 2.433594 0 C 2.8125 0 2.949219 -0.105469 3.089844 -0.519531 L 3.574219 -1.882812 L 7.800781 -1.882812 L 8.285156 -0.519531 C 8.421875 -0.105469 8.558594 0 8.941406 0 L 10.75 0 C 11.132812 0 11.132812 -0.277344 11.046875 -0.484375 Z M 5.695312 -8.113281 L 6.988281 -4.296875 L 4.402344 -4.296875 Z M 5.695312 -8.113281 "/></g></g></g><g fill="rgb(0%, 0%, 0%)" fill-opacity="1"><g transform="translate(141.916684, 176.773676)"><g><path d="M 11.460938 -11.375 L 9.800781 -11.375 C 9.234375 -11.375 9.148438 -10.992188 9.027344 -10.785156 L 6.644531 -6.539062 L 4.28125 -10.785156 C 4.140625 -10.992188 4.074219 -11.375 3.484375 -11.375 L 1.777344 -11.375 C 1.378906 -11.375 1.277344 -11.183594 1.277344 -10.871094 L 1.277344 -0.5 C 1.277344 -0.105469 1.46875 0 1.777344 0 L 3.484375 0 C 3.796875 0 3.988281 -0.105469 3.988281 -0.5 L 3.988281 -6.351562 L 5.730469 -3.332031 C 5.816406 -3.191406 5.953125 -2.96875 6.214844 -2.96875 L 7.074219 -2.96875 C 7.335938 -2.96875 7.488281 -3.191406 7.578125 -3.332031 L 9.300781 -6.351562 L 9.300781 -0.5 C 9.300781 -0.105469 9.492188 0 9.800781 0 L 11.460938 0 C 11.769531 0 11.960938 -0.105469 11.960938 -0.5 L 11.960938 -10.871094 C 11.960938 -11.183594 11.855469 -11.375 11.460938 -11.375 Z M 11.460938 -11.375 "/></g></g></g><g fill="rgb(0%, 0%, 0%)" fill-opacity="1"><g transform="translate(157.424301, 176.773676)"><g/></g></g><g fill="rgb(0%, 0%, 0%)" fill-opacity="1"><g transform="translate(164.377199, 176.773676)"><g><path d="M 9.507812 -2.417969 L 4.003906 -2.417969 L 4.003906 -4.695312 L 8.628906 -4.695312 C 9.027344 -4.695312 9.128906 -4.882812 9.128906 -5.195312 L 9.128906 -6.539062 C 9.128906 -6.851562 9.027344 -7.042969 8.628906 -7.042969 L 4.003906 -7.042969 L 4.003906 -8.921875 L 9.214844 -8.921875 C 9.613281 -8.921875 9.714844 -9.113281 9.714844 -9.421875 L 9.714844 -10.855469 C 9.714844 -11.167969 9.613281 -11.355469 9.214844 -11.355469 L 1.777344 -11.355469 C 1.378906 -11.355469 1.277344 -11.167969 1.277344 -10.855469 L 1.277344 -0.5 C 1.277344 -0.191406 1.378906 0 1.777344 0 L 9.507812 0 C 9.90625 0 10.011719 -0.191406 10.011719 -0.5 L 10.011719 -1.914062 C 10.011719 -2.226562 9.90625 -2.417969 9.507812 -2.417969 Z M 9.507812 -2.417969 "/></g></g></g><g fill="rgb(0%, 0%, 0%)" fill-opacity="1"><g transform="translate(177.470181, 176.773676)"><g><path d="M 6.628906 -6.59375 C 5.9375 -6.867188 3.398438 -7.25 3.398438 -8.300781 C 3.398438 -9.078125 4.347656 -9.300781 4.917969 -9.300781 C 5.4375 -9.300781 6.058594 -9.148438 6.386719 -8.835938 C 6.59375 -8.628906 6.679688 -8.492188 6.746094 -8.320312 C 6.835938 -8.09375 6.886719 -7.851562 7.214844 -7.851562 L 8.90625 -7.851562 C 9.300781 -7.851562 9.40625 -7.921875 9.40625 -8.335938 C 9.40625 -10.613281 7.007812 -11.613281 4.816406 -11.613281 C 2.65625 -11.527344 0.621094 -10.425781 0.621094 -8.179688 C 0.621094 -5.988281 2.226562 -5.296875 3.96875 -4.746094 C 5.4375 -4.28125 6.972656 -4.261719 6.972656 -3.296875 C 6.972656 -2.328125 6.214844 -2.121094 5.28125 -2.121094 C 4.640625 -2.121094 3.933594 -2.277344 3.589844 -2.691406 C 3.367188 -2.949219 3.277344 -3.175781 3.261719 -3.398438 C 3.226562 -3.832031 3.039062 -3.882812 2.640625 -3.882812 L 0.964844 -3.882812 C 0.570312 -3.882812 0.464844 -3.796875 0.464844 -3.398438 C 0.464844 -0.984375 2.949219 0.257812 5.109375 0.257812 C 7.765625 0.257812 9.699219 -0.914062 9.699219 -3.367188 C 9.699219 -5.710938 7.871094 -6.214844 6.628906 -6.59375 Z M 6.628906 -6.59375 "/></g></g></g><g fill="rgb(0%, 0%, 0%)" fill-opacity="1"><g transform="translate(190.183706, 176.773676)"><g><path d="M 8.957031 -11.355469 L 0.949219 -11.355469 C 0.550781 -11.355469 0.449219 -11.167969 0.449219 -10.855469 L 0.449219 -9.421875 C 0.449219 -9.113281 0.550781 -8.921875 0.949219 -8.921875 L 3.605469 -8.921875 L 3.605469 -0.5 C 3.605469 -0.105469 3.796875 0 4.109375 0 L 5.816406 0 C 6.125 0 6.316406 -0.105469 6.316406 -0.5 L 6.316406 -8.921875 L 8.957031 -8.921875 C 9.355469 -8.921875 9.457031 -9.113281 9.457031 -9.421875 L 9.457031 -10.855469 C 9.457031 -11.167969 9.355469 -11.355469 8.957031 -11.355469 Z M 8.957031 -11.355469 "/></g></g></g><g fill="rgb(0%, 0%, 0%)" fill-opacity="1"><g transform="translate(202.362571, 176.773676)"><g><path d="M 10.578125 -0.550781 L 8.144531 -4.089844 C 9.214844 -4.453125 10.542969 -5.710938 10.542969 -7.523438 C 10.542969 -8.628906 10.183594 -9.613281 9.542969 -10.234375 C 8.820312 -10.957031 7.992188 -11.339844 6.109375 -11.339844 L 1.761719 -11.339844 C 1.363281 -11.339844 1.277344 -11.148438 1.277344 -10.839844 L 1.277344 -0.5 C 1.277344 -0.105469 1.449219 0 1.761719 0 L 3.46875 0 C 3.78125 0 3.96875 -0.105469 3.96875 -0.5 L 3.96875 -8.921875 L 6.265625 -8.921875 C 7.164062 -8.921875 7.851562 -8.351562 7.851562 -7.457031 C 7.851562 -6.644531 7.058594 -6.058594 6.214844 -6.058594 L 5.867188 -6.058594 C 5.472656 -6.058594 5.367188 -5.867188 5.367188 -5.558594 L 5.367188 -4.175781 C 5.367188 -3.691406 5.402344 -3.503906 5.558594 -3.296875 L 7.421875 -0.519531 C 7.664062 -0.15625 7.871094 0 8.285156 0 L 10.320312 0 C 10.648438 0 10.734375 -0.3125 10.578125 -0.550781 Z M 10.578125 -0.550781 "/></g></g></g><g fill="rgb(0%, 0%, 0%)" fill-opacity="1"><g transform="translate(216.128199, 176.773676)"><g><path d="M 11.046875 -0.484375 L 7.230469 -10.820312 C 7.074219 -11.183594 6.902344 -11.355469 6.523438 -11.355469 L 4.867188 -11.355469 C 4.488281 -11.355469 4.296875 -11.183594 4.160156 -10.820312 L 0.328125 -0.484375 C 0.242188 -0.277344 0.242188 0 0.621094 0 L 2.433594 0 C 2.8125 0 2.949219 -0.105469 3.089844 -0.519531 L 3.574219 -1.882812 L 7.800781 -1.882812 L 8.285156 -0.519531 C 8.421875 -0.105469 8.558594 0 8.941406 0 L 10.75 0 C 11.132812 0 11.132812 -0.277344 11.046875 -0.484375 Z M 5.695312 -8.113281 L 6.988281 -4.296875 L 4.402344 -4.296875 Z M 5.695312 -8.113281 "/></g></g></g><g fill="rgb(0%, 0%, 0%)" fill-opacity="1"><g transform="translate(229.704099, 176.773676)"><g><path d="M 9.714844 -6.332031 L 5.9375 -6.332031 C 5.539062 -6.332031 5.4375 -6.144531 5.4375 -5.832031 L 5.4375 -4.488281 C 5.4375 -4.175781 5.539062 -3.988281 5.9375 -3.988281 L 7.488281 -3.988281 C 7.488281 -2.65625 6.695312 -2.140625 5.574219 -2.140625 C 4.433594 -2.140625 3.675781 -2.777344 3.675781 -3.882812 L 3.675781 -7.351562 C 3.675781 -8.457031 4.433594 -9.214844 5.574219 -9.214844 C 6.730469 -9.214844 7.351562 -8.699219 7.542969 -8.164062 C 7.628906 -7.921875 7.558594 -7.578125 8.042969 -7.578125 L 9.714844 -7.578125 C 10.113281 -7.578125 10.21875 -7.644531 10.21875 -8.058594 C 10.21875 -10.371094 7.730469 -11.613281 5.574219 -11.613281 C 3.539062 -11.613281 0.933594 -10.457031 0.933594 -7.730469 L 0.933594 -3.484375 C 0.933594 -0.777344 3.539062 0.257812 5.574219 0.257812 C 7.542969 0.257812 10.0625 -0.84375 10.21875 -3.332031 L 10.21875 -5.832031 C 10.21875 -6.144531 10.113281 -6.332031 9.714844 -6.332031 Z M 9.714844 -6.332031 "/></g></g></g><g fill="rgb(0%, 0%, 0%)" fill-opacity="1"><g transform="translate(243.124773, 176.773676)"><g><path d="M 10.199219 -3.640625 L 10.199219 -7.714844 C 10.199219 -10.441406 7.609375 -11.613281 5.558594 -11.613281 C 3.503906 -11.613281 0.949219 -10.441406 0.949219 -7.714844 L 0.949219 -3.640625 C 0.949219 -0.914062 3.503906 0.257812 5.558594 0.257812 C 7.609375 0.257812 10.199219 -0.914062 10.199219 -3.640625 Z M 7.488281 -7.472656 L 7.488281 -3.882812 C 7.488281 -2.777344 6.695312 -2.140625 5.558594 -2.140625 C 4.433594 -2.140625 3.640625 -2.777344 3.640625 -3.882812 L 3.640625 -7.472656 C 3.640625 -8.578125 4.433594 -9.214844 5.558594 -9.214844 C 6.695312 -9.214844 7.488281 -8.578125 7.488281 -7.472656 Z M 7.488281 -7.472656 "/></g></g></g><g fill="rgb(0%, 0%, 0%)" fill-opacity="1"><g transform="translate(256.528207, 176.773676)"><g><path d="M 6.628906 -6.59375 C 5.9375 -6.867188 3.398438 -7.25 3.398438 -8.300781 C 3.398438 -9.078125 4.347656 -9.300781 4.917969 -9.300781 C 5.4375 -9.300781 6.058594 -9.148438 6.386719 -8.835938 C 6.59375 -8.628906 6.679688 -8.492188 6.746094 -8.320312 C 6.835938 -8.09375 6.886719 -7.851562 7.214844 -7.851562 L 8.90625 -7.851562 C 9.300781 -7.851562 9.40625 -7.921875 9.40625 -8.335938 C 9.40625 -10.613281 7.007812 -11.613281 4.816406 -11.613281 C 2.65625 -11.527344 0.621094 -10.425781 0.621094 -8.179688 C 0.621094 -5.988281 2.226562 -5.296875 3.96875 -4.746094 C 5.4375 -4.28125 6.972656 -4.261719 6.972656 -3.296875 C 6.972656 -2.328125 6.214844 -2.121094 5.28125 -2.121094 C 4.640625 -2.121094 3.933594 -2.277344 3.589844 -2.691406 C 3.367188 -2.949219 3.277344 -3.175781 3.261719 -3.398438 C 3.226562 -3.832031 3.039062 -3.882812 2.640625 -3.882812 L 0.964844 -3.882812 C 0.570312 -3.882812 0.464844 -3.796875 0.464844 -3.398438 C 0.464844 -0.984375 2.949219 0.257812 5.109375 0.257812 C 7.765625 0.257812 9.699219 -0.914062 9.699219 -3.367188 C 9.699219 -5.710938 7.871094 -6.214844 6.628906 -6.59375 Z M 6.628906 -6.59375 "/></g></g></g><g fill="rgb(0%, 0%, 0%)" fill-opacity="1"><g transform="translate(269.241732, 176.773676)"><g/></g></g><g fill="rgb(0%, 0%, 0%)" fill-opacity="1"><g transform="translate(276.19463, 176.773676)"><g><path d="M 8.957031 -11.355469 L 0.949219 -11.355469 C 0.550781 -11.355469 0.449219 -11.167969 0.449219 -10.855469 L 0.449219 -9.421875 C 0.449219 -9.113281 0.550781 -8.921875 0.949219 -8.921875 L 3.605469 -8.921875 L 3.605469 -0.5 C 3.605469 -0.105469 3.796875 0 4.109375 0 L 5.816406 0 C 6.125 0 6.316406 -0.105469 6.316406 -0.5 L 6.316406 -8.921875 L 8.957031 -8.921875 C 9.355469 -8.921875 9.457031 -9.113281 9.457031 -9.421875 L 9.457031 -10.855469 C 9.457031 -11.167969 9.355469 -11.355469 8.957031 -11.355469 Z M 8.957031 -11.355469 "/></g></g></g><g fill="rgb(0%, 0%, 0%)" fill-opacity="1"><g transform="translate(288.373495, 176.773676)"><g><path d="M 8.835938 -14.617188 L 8.042969 -14.617188 C 7.730469 -14.617188 7.664062 -14.480469 7.609375 -14.308594 C 7.507812 -13.960938 7.230469 -13.875 7.007812 -13.910156 C 6.800781 -13.945312 5.78125 -14.308594 5.78125 -14.308594 C 5.402344 -14.445312 4.832031 -14.617188 4.382812 -14.617188 C 3.261719 -14.617188 2.519531 -13.738281 2.519531 -12.71875 L 2.519531 -12.703125 C 2.519531 -12.597656 2.519531 -12.355469 2.726562 -12.355469 L 3.519531 -12.355469 C 3.832031 -12.355469 3.898438 -12.496094 3.953125 -12.667969 C 4.054688 -13.011719 4.332031 -13.097656 4.554688 -13.066406 C 4.761719 -13.03125 5.78125 -12.667969 5.78125 -12.667969 C 6.160156 -12.53125 6.730469 -12.355469 7.179688 -12.355469 C 8.300781 -12.355469 9.042969 -13.238281 9.042969 -14.253906 L 9.042969 -14.273438 C 9.042969 -14.375 9.042969 -14.617188 8.835938 -14.617188 Z M 11.046875 -0.484375 L 7.230469 -10.820312 C 7.074219 -11.183594 6.902344 -11.355469 6.523438 -11.355469 L 4.867188 -11.355469 C 4.488281 -11.355469 4.296875 -11.183594 4.160156 -10.820312 L 0.328125 -0.484375 C 0.242188 -0.277344 0.242188 0 0.621094 0 L 2.433594 0 C 2.8125 0 2.949219 -0.105469 3.089844 -0.519531 L 3.574219 -1.882812 L 7.800781 -1.882812 L 8.285156 -0.519531 C 8.421875 -0.105469 8.558594 0 8.941406 0 L 10.75 0 C 11.132812 0 11.132812 -0.277344 11.046875 -0.484375 Z M 5.695312 -8.113281 L 6.988281 -4.296875 L 4.402344 -4.296875 Z M 5.695312 -8.113281 "/></g></g></g><g fill="rgb(0%, 0%, 0%)" fill-opacity="1"><g transform="translate(301.949395, 176.773676)"><g><path d="M 10.199219 -3.640625 L 10.199219 -7.714844 C 10.199219 -10.441406 7.609375 -11.613281 5.558594 -11.613281 C 3.503906 -11.613281 0.949219 -10.441406 0.949219 -7.714844 L 0.949219 -3.640625 C 0.949219 -0.914062 3.503906 0.257812 5.558594 0.257812 C 7.609375 0.257812 10.199219 -0.914062 10.199219 -3.640625 Z M 7.488281 -7.472656 L 7.488281 -3.882812 C 7.488281 -2.777344 6.695312 -2.140625 5.558594 -2.140625 C 4.433594 -2.140625 3.640625 -2.777344 3.640625 -3.882812 L 3.640625 -7.472656 C 3.640625 -8.578125 4.433594 -9.214844 5.558594 -9.214844 C 6.695312 -9.214844 7.488281 -8.578125 7.488281 -7.472656 Z M 7.488281 -7.472656 "/></g></g></g><g fill="rgb(0%, 0%, 0%)" fill-opacity="1"><g transform="translate(53.573996, 200.613016)"><g><path d="M 9.714844 -6.332031 L 5.9375 -6.332031 C 5.539062 -6.332031 5.4375 -6.144531 5.4375 -5.832031 L 5.4375 -4.488281 C 5.4375 -4.175781 5.539062 -3.988281 5.9375 -3.988281 L 7.488281 -3.988281 C 7.488281 -2.65625 6.695312 -2.140625 5.574219 -2.140625 C 4.433594 -2.140625 3.675781 -2.777344 3.675781 -3.882812 L 3.675781 -7.351562 C 3.675781 -8.457031 4.433594 -9.214844 5.574219 -9.214844 C 6.730469 -9.214844 7.351562 -8.699219 7.542969 -8.164062 C 7.628906 -7.921875 7.558594 -7.578125 8.042969 -7.578125 L 9.714844 -7.578125 C 10.113281 -7.578125 10.21875 -7.644531 10.21875 -8.058594 C 10.21875 -10.371094 7.730469 -11.613281 5.574219 -11.613281 C 3.539062 -11.613281 0.933594 -10.457031 0.933594 -7.730469 L 0.933594 -3.484375 C 0.933594 -0.777344 3.539062 0.257812 5.574219 0.257812 C 7.542969 0.257812 10.0625 -0.84375 10.21875 -3.332031 L 10.21875 -5.832031 C 10.21875 -6.144531 10.113281 -6.332031 9.714844 -6.332031 Z M 9.714844 -6.332031 "/></g></g></g><g fill="rgb(0%, 0%, 0%)" fill-opacity="1"><g transform="translate(66.994675, 200.613016)"><g><path d="M 10.578125 -0.550781 L 8.144531 -4.089844 C 9.214844 -4.453125 10.542969 -5.710938 10.542969 -7.523438 C 10.542969 -8.628906 10.183594 -9.613281 9.542969 -10.234375 C 8.820312 -10.957031 7.992188 -11.339844 6.109375 -11.339844 L 1.761719 -11.339844 C 1.363281 -11.339844 1.277344 -11.148438 1.277344 -10.839844 L 1.277344 -0.5 C 1.277344 -0.105469 1.449219 0 1.761719 0 L 3.46875 0 C 3.78125 0 3.96875 -0.105469 3.96875 -0.5 L 3.96875 -8.921875 L 6.265625 -8.921875 C 7.164062 -8.921875 7.851562 -8.351562 7.851562 -7.457031 C 7.851562 -6.644531 7.058594 -6.058594 6.214844 -6.058594 L 5.867188 -6.058594 C 5.472656 -6.058594 5.367188 -5.867188 5.367188 -5.558594 L 5.367188 -4.175781 C 5.367188 -3.691406 5.402344 -3.503906 5.558594 -3.296875 L 7.421875 -0.519531 C 7.664062 -0.15625 7.871094 0 8.285156 0 L 10.320312 0 C 10.648438 0 10.734375 -0.3125 10.578125 -0.550781 Z M 10.578125 -0.550781 "/></g></g></g><g fill="rgb(0%, 0%, 0%)" fill-opacity="1"><g transform="translate(80.760298, 200.613016)"><g><path d="M 11.046875 -0.484375 L 7.230469 -10.820312 C 7.074219 -11.183594 6.902344 -11.355469 6.523438 -11.355469 L 4.867188 -11.355469 C 4.488281 -11.355469 4.296875 -11.183594 4.160156 -10.820312 L 0.328125 -0.484375 C 0.242188 -0.277344 0.242188 0 0.621094 0 L 2.433594 0 C 2.8125 0 2.949219 -0.105469 3.089844 -0.519531 L 3.574219 -1.882812 L 7.800781 -1.882812 L 8.285156 -0.519531 C 8.421875 -0.105469 8.558594 0 8.941406 0 L 10.75 0 C 11.132812 0 11.132812 -0.277344 11.046875 -0.484375 Z M 5.695312 -8.113281 L 6.988281 -4.296875 L 4.402344 -4.296875 Z M 5.695312 -8.113281 "/></g></g></g><g fill="rgb(0%, 0%, 0%)" fill-opacity="1"><g transform="translate(94.336203, 200.613016)"><g><path d="M 9.992188 -11.355469 L 8.335938 -11.355469 C 8.023438 -11.355469 7.835938 -11.253906 7.835938 -10.855469 L 7.835938 -4.867188 L 4.175781 -10.769531 C 3.953125 -11.113281 3.832031 -11.355469 3.398438 -11.355469 L 1.777344 -11.355469 C 1.378906 -11.355469 1.277344 -11.167969 1.277344 -10.855469 L 1.277344 -0.5 C 1.277344 -0.105469 1.46875 0 1.777344 0 L 3.484375 0 C 3.796875 0 3.988281 -0.105469 3.988281 -0.5 L 3.988281 -6.507812 L 7.644531 -0.585938 C 7.871094 -0.242188 7.992188 0 8.421875 0 L 9.992188 0 C 10.390625 0 10.492188 -0.191406 10.492188 -0.5 L 10.492188 -10.855469 C 10.492188 -11.253906 10.304688 -11.355469 9.992188 -11.355469 Z M 9.992188 -11.355469 "/></g></g></g><g fill="rgb(0%, 0%, 0%)" fill-opacity="1"><g transform="translate(108.377786, 200.613016)"><g><path d="M 5.644531 -11.355469 L 1.777344 -11.355469 C 1.378906 -11.355469 1.277344 -11.167969 1.277344 -10.855469 L 1.277344 -0.5 C 1.277344 -0.191406 1.378906 0 1.777344 0 L 5.644531 0 C 7.695312 0 10.285156 -1.171875 10.285156 -3.882812 L 10.285156 -7.472656 C 10.285156 -10.164062 7.695312 -11.355469 5.644531 -11.355469 Z M 7.578125 -7.230469 L 7.578125 -4.125 C 7.578125 -3.019531 6.78125 -2.398438 5.644531 -2.398438 L 3.988281 -2.398438 L 3.988281 -8.957031 L 5.644531 -8.957031 C 6.78125 -8.957031 7.578125 -8.320312 7.578125 -7.230469 Z M 7.578125 -7.230469 "/></g></g></g><g fill="rgb(0%, 0%, 0%)" fill-opacity="1"><g transform="translate(121.867459, 200.613016)"><g><path d="M 9.507812 -2.417969 L 4.003906 -2.417969 L 4.003906 -4.695312 L 8.628906 -4.695312 C 9.027344 -4.695312 9.128906 -4.882812 9.128906 -5.195312 L 9.128906 -6.539062 C 9.128906 -6.851562 9.027344 -7.042969 8.628906 -7.042969 L 4.003906 -7.042969 L 4.003906 -8.921875 L 9.214844 -8.921875 C 9.613281 -8.921875 9.714844 -9.113281 9.714844 -9.421875 L 9.714844 -10.855469 C 9.714844 -11.167969 9.613281 -11.355469 9.214844 -11.355469 L 1.777344 -11.355469 C 1.378906 -11.355469 1.277344 -11.167969 1.277344 -10.855469 L 1.277344 -0.5 C 1.277344 -0.191406 1.378906 0 1.777344 0 L 9.507812 0 C 9.90625 0 10.011719 -0.191406 10.011719 -0.5 L 10.011719 -1.914062 C 10.011719 -2.226562 9.90625 -2.417969 9.507812 -2.417969 Z M 9.507812 -2.417969 "/></g></g></g><g fill="rgb(0%, 0%, 0%)" fill-opacity="1"><g transform="translate(134.960435, 200.613016)"><g><path d="M 6.628906 -6.59375 C 5.9375 -6.867188 3.398438 -7.25 3.398438 -8.300781 C 3.398438 -9.078125 4.347656 -9.300781 4.917969 -9.300781 C 5.4375 -9.300781 6.058594 -9.148438 6.386719 -8.835938 C 6.59375 -8.628906 6.679688 -8.492188 6.746094 -8.320312 C 6.835938 -8.09375 6.886719 -7.851562 7.214844 -7.851562 L 8.90625 -7.851562 C 9.300781 -7.851562 9.40625 -7.921875 9.40625 -8.335938 C 9.40625 -10.613281 7.007812 -11.613281 4.816406 -11.613281 C 2.65625 -11.527344 0.621094 -10.425781 0.621094 -8.179688 C 0.621094 -5.988281 2.226562 -5.296875 3.96875 -4.746094 C 5.4375 -4.28125 6.972656 -4.261719 6.972656 -3.296875 C 6.972656 -2.328125 6.214844 -2.121094 5.28125 -2.121094 C 4.640625 -2.121094 3.933594 -2.277344 3.589844 -2.691406 C 3.367188 -2.949219 3.277344 -3.175781 3.261719 -3.398438 C 3.226562 -3.832031 3.039062 -3.882812 2.640625 -3.882812 L 0.964844 -3.882812 C 0.570312 -3.882812 0.464844 -3.796875 0.464844 -3.398438 C 0.464844 -0.984375 2.949219 0.257812 5.109375 0.257812 C 7.765625 0.257812 9.699219 -0.914062 9.699219 -3.367188 C 9.699219 -5.710938 7.871094 -6.214844 6.628906 -6.59375 Z M 6.628906 -6.59375 "/></g></g></g><g fill="rgb(0%, 0%, 0%)" fill-opacity="1"><g transform="translate(147.67396, 200.613016)"><g/></g></g><g fill="rgb(0%, 0%, 0%)" fill-opacity="1"><g transform="translate(154.626858, 200.613016)"><g><path d="M 4.746094 -12.355469 L 6.4375 -12.355469 C 6.765625 -12.355469 6.765625 -12.683594 6.660156 -12.839844 L 5.503906 -14.703125 C 5.246094 -15.136719 5.109375 -15.1875 4.730469 -15.1875 L 2.535156 -15.1875 C 2.105469 -15.1875 2.054688 -14.859375 2.210938 -14.703125 L 3.933594 -12.839844 C 4.175781 -12.597656 4.316406 -12.355469 4.746094 -12.355469 Z M 11.046875 -0.484375 L 7.230469 -10.820312 C 7.074219 -11.183594 6.902344 -11.355469 6.523438 -11.355469 L 4.867188 -11.355469 C 4.488281 -11.355469 4.296875 -11.183594 4.160156 -10.820312 L 0.328125 -0.484375 C 0.242188 -0.277344 0.242188 0 0.621094 0 L 2.433594 0 C 2.8125 0 2.949219 -0.105469 3.089844 -0.519531 L 3.574219 -1.882812 L 7.800781 -1.882812 L 8.285156 -0.519531 C 8.421875 -0.105469 8.558594 0 8.941406 0 L 10.75 0 C 11.132812 0 11.132812 -0.277344 11.046875 -0.484375 Z M 5.695312 -8.113281 L 6.988281 -4.296875 L 4.402344 -4.296875 Z M 5.695312 -8.113281 "/></g></g></g><g fill="rgb(0%, 0%, 0%)" fill-opacity="1"><g transform="translate(168.202758, 200.613016)"><g/></g></g><g fill="rgb(0%, 0%, 0%)" fill-opacity="1"><g transform="translate(175.155657, 200.613016)"><g><path d="M 10.042969 -11.355469 L 8.335938 -11.355469 C 8.023438 -11.355469 7.835938 -11.253906 7.835938 -10.855469 L 7.835938 -6.953125 L 3.988281 -6.953125 L 3.988281 -10.855469 C 3.988281 -11.253906 3.8125 -11.355469 3.484375 -11.355469 L 1.777344 -11.355469 C 1.46875 -11.355469 1.277344 -11.253906 1.277344 -10.855469 L 1.277344 -0.5 C 1.277344 -0.105469 1.46875 0 1.777344 0 L 3.484375 0 C 3.8125 0 3.988281 -0.105469 3.988281 -0.5 L 3.988281 -4.402344 L 7.835938 -4.402344 L 7.835938 -0.5 C 7.835938 -0.105469 8.023438 0 8.335938 0 L 10.042969 0 C 10.355469 0 10.542969 -0.105469 10.542969 -0.5 L 10.542969 -10.855469 C 10.542969 -11.253906 10.355469 -11.355469 10.042969 -11.355469 Z M 10.042969 -11.355469 "/></g></g></g><g fill="rgb(0%, 0%, 0%)" fill-opacity="1"><g transform="translate(189.248977, 200.613016)"><g><path d="M 9.769531 -11.355469 L 8.058594 -11.355469 C 7.75 -11.355469 7.558594 -11.253906 7.558594 -10.855469 L 7.558594 -3.847656 C 7.558594 -2.761719 6.835938 -2.140625 5.695312 -2.140625 C 4.554688 -2.140625 3.847656 -2.761719 3.847656 -3.847656 L 3.847656 -10.855469 C 3.847656 -11.253906 3.660156 -11.355469 3.347656 -11.355469 L 1.640625 -11.355469 C 1.328125 -11.355469 1.140625 -11.253906 1.140625 -10.855469 L 1.140625 -3.46875 C 1.140625 -0.757812 3.640625 0.257812 5.695312 0.257812 C 7.75 0.257812 10.269531 -0.757812 10.269531 -3.46875 L 10.269531 -10.855469 C 10.269531 -11.253906 10.078125 -11.355469 9.769531 -11.355469 Z M 9.769531 -11.355469 "/></g></g></g><g fill="rgb(0%, 0%, 0%)" fill-opacity="1"><g transform="translate(202.92836, 200.613016)"><g><path d="M 11.460938 -11.375 L 9.800781 -11.375 C 9.234375 -11.375 9.148438 -10.992188 9.027344 -10.785156 L 6.644531 -6.539062 L 4.28125 -10.785156 C 4.140625 -10.992188 4.074219 -11.375 3.484375 -11.375 L 1.777344 -11.375 C 1.378906 -11.375 1.277344 -11.183594 1.277344 -10.871094 L 1.277344 -0.5 C 1.277344 -0.105469 1.46875 0 1.777344 0 L 3.484375 0 C 3.796875 0 3.988281 -0.105469 3.988281 -0.5 L 3.988281 -6.351562 L 5.730469 -3.332031 C 5.816406 -3.191406 5.953125 -2.96875 6.214844 -2.96875 L 7.074219 -2.96875 C 7.335938 -2.96875 7.488281 -3.191406 7.578125 -3.332031 L 9.300781 -6.351562 L 9.300781 -0.5 C 9.300781 -0.105469 9.492188 0 9.800781 0 L 11.460938 0 C 11.769531 0 11.960938 -0.105469 11.960938 -0.5 L 11.960938 -10.871094 C 11.960938 -11.183594 11.855469 -11.375 11.460938 -11.375 Z M 11.460938 -11.375 "/></g></g></g><g fill="rgb(0%, 0%, 0%)" fill-opacity="1"><g transform="translate(218.435977, 200.613016)"><g><path d="M 11.046875 -0.484375 L 7.230469 -10.820312 C 7.074219 -11.183594 6.902344 -11.355469 6.523438 -11.355469 L 4.867188 -11.355469 C 4.488281 -11.355469 4.296875 -11.183594 4.160156 -10.820312 L 0.328125 -0.484375 C 0.242188 -0.277344 0.242188 0 0.621094 0 L 2.433594 0 C 2.8125 0 2.949219 -0.105469 3.089844 -0.519531 L 3.574219 -1.882812 L 7.800781 -1.882812 L 8.285156 -0.519531 C 8.421875 -0.105469 8.558594 0 8.941406 0 L 10.75 0 C 11.132812 0 11.132812 -0.277344 11.046875 -0.484375 Z M 5.695312 -8.113281 L 6.988281 -4.296875 L 4.402344 -4.296875 Z M 5.695312 -8.113281 "/></g></g></g><g fill="rgb(0%, 0%, 0%)" fill-opacity="1"><g transform="translate(232.011878, 200.613016)"><g><path d="M 9.992188 -11.355469 L 8.335938 -11.355469 C 8.023438 -11.355469 7.835938 -11.253906 7.835938 -10.855469 L 7.835938 -4.867188 L 4.175781 -10.769531 C 3.953125 -11.113281 3.832031 -11.355469 3.398438 -11.355469 L 1.777344 -11.355469 C 1.378906 -11.355469 1.277344 -11.167969 1.277344 -10.855469 L 1.277344 -0.5 C 1.277344 -0.105469 1.46875 0 1.777344 0 L 3.484375 0 C 3.796875 0 3.988281 -0.105469 3.988281 -0.5 L 3.988281 -6.507812 L 7.644531 -0.585938 C 7.871094 -0.242188 7.992188 0 8.421875 0 L 9.992188 0 C 10.390625 0 10.492188 -0.191406 10.492188 -0.5 L 10.492188 -10.855469 C 10.492188 -11.253906 10.304688 -11.355469 9.992188 -11.355469 Z M 9.992188 -11.355469 "/></g></g></g><g fill="rgb(0%, 0%, 0%)" fill-opacity="1"><g transform="translate(246.053455, 200.613016)"><g><path d="M 6.214844 -2.363281 L 5.125 -2.363281 L 5.125 -8.957031 L 6.160156 -8.957031 C 6.558594 -8.957031 6.660156 -9.148438 6.660156 -9.457031 L 6.660156 -10.855469 C 6.660156 -11.167969 6.558594 -11.355469 6.160156 -11.355469 L 1.363281 -11.355469 C 0.964844 -11.355469 0.863281 -11.167969 0.863281 -10.855469 L 0.863281 -9.457031 C 0.863281 -9.148438 0.964844 -8.957031 1.363281 -8.957031 L 2.417969 -8.957031 L 2.417969 -2.363281 L 1.328125 -2.363281 C 0.933594 -2.363281 0.828125 -2.175781 0.828125 -1.863281 L 0.828125 -0.5 C 0.828125 -0.191406 0.933594 0 1.328125 0 L 6.214844 0 C 6.609375 0 6.714844 -0.191406 6.714844 -0.5 L 6.714844 -1.863281 C 6.714844 -2.175781 6.609375 -2.363281 6.214844 -2.363281 Z M 6.214844 -2.363281 "/></g></g></g><g fill="rgb(0%, 0%, 0%)" fill-opacity="1"><g transform="translate(255.990151, 200.613016)"><g><path d="M 5.644531 -11.355469 L 1.777344 -11.355469 C 1.378906 -11.355469 1.277344 -11.167969 1.277344 -10.855469 L 1.277344 -0.5 C 1.277344 -0.191406 1.378906 0 1.777344 0 L 5.644531 0 C 7.695312 0 10.285156 -1.171875 10.285156 -3.882812 L 10.285156 -7.472656 C 10.285156 -10.164062 7.695312 -11.355469 5.644531 -11.355469 Z M 7.578125 -7.230469 L 7.578125 -4.125 C 7.578125 -3.019531 6.78125 -2.398438 5.644531 -2.398438 L 3.988281 -2.398438 L 3.988281 -8.957031 L 5.644531 -8.957031 C 6.78125 -8.957031 7.578125 -8.320312 7.578125 -7.230469 Z M 7.578125 -7.230469 "/></g></g></g><g fill="rgb(0%, 0%, 0%)" fill-opacity="1"><g transform="translate(269.479829, 200.613016)"><g><path d="M 11.046875 -0.484375 L 7.230469 -10.820312 C 7.074219 -11.183594 6.902344 -11.355469 6.523438 -11.355469 L 4.867188 -11.355469 C 4.488281 -11.355469 4.296875 -11.183594 4.160156 -10.820312 L 0.328125 -0.484375 C 0.242188 -0.277344 0.242188 0 0.621094 0 L 2.433594 0 C 2.8125 0 2.949219 -0.105469 3.089844 -0.519531 L 3.574219 -1.882812 L 7.800781 -1.882812 L 8.285156 -0.519531 C 8.421875 -0.105469 8.558594 0 8.941406 0 L 10.75 0 C 11.132812 0 11.132812 -0.277344 11.046875 -0.484375 Z M 5.695312 -8.113281 L 6.988281 -4.296875 L 4.402344 -4.296875 Z M 5.695312 -8.113281 "/></g></g></g><g fill="rgb(0%, 0%, 0%)" fill-opacity="1"><g transform="translate(283.055729, 200.613016)"><g><path d="M 5.644531 -11.355469 L 1.777344 -11.355469 C 1.378906 -11.355469 1.277344 -11.167969 1.277344 -10.855469 L 1.277344 -0.5 C 1.277344 -0.191406 1.378906 0 1.777344 0 L 5.644531 0 C 7.695312 0 10.285156 -1.171875 10.285156 -3.882812 L 10.285156 -7.472656 C 10.285156 -10.164062 7.695312 -11.355469 5.644531 -11.355469 Z M 7.578125 -7.230469 L 7.578125 -4.125 C 7.578125 -3.019531 6.78125 -2.398438 5.644531 -2.398438 L 3.988281 -2.398438 L 3.988281 -8.957031 L 5.644531 -8.957031 C 6.78125 -8.957031 7.578125 -8.320312 7.578125 -7.230469 Z M 7.578125 -7.230469 "/></g></g></g><g fill="rgb(0%, 0%, 0%)" fill-opacity="1"><g transform="translate(296.545406, 200.613016)"><g><path d="M 9.507812 -2.417969 L 4.003906 -2.417969 L 4.003906 -4.695312 L 8.628906 -4.695312 C 9.027344 -4.695312 9.128906 -4.882812 9.128906 -5.195312 L 9.128906 -6.539062 C 9.128906 -6.851562 9.027344 -7.042969 8.628906 -7.042969 L 4.003906 -7.042969 L 4.003906 -8.921875 L 9.214844 -8.921875 C 9.613281 -8.921875 9.714844 -9.113281 9.714844 -9.421875 L 9.714844 -10.855469 C 9.714844 -11.167969 9.613281 -11.355469 9.214844 -11.355469 L 1.777344 -11.355469 C 1.378906 -11.355469 1.277344 -11.167969 1.277344 -10.855469 L 1.277344 -0.5 C 1.277344 -0.191406 1.378906 0 1.777344 0 L 9.507812 0 C 9.90625 0 10.011719 -0.191406 10.011719 -0.5 L 10.011719 -1.914062 C 10.011719 -2.226562 9.90625 -2.417969 9.507812 -2.417969 Z M 9.507812 -2.417969 "/></g></g></g><g fill="rgb(0%, 0%, 0%)" fill-opacity="1"><g transform="translate(35.807367, 224.452356)"><g><path d="M 10.234375 -0.8125 L 9.578125 -1.554688 C 10.027344 -2.121094 10.183594 -2.742188 10.183594 -3.625 L 10.183594 -7.695312 C 10.183594 -10.425781 7.59375 -11.597656 5.539062 -11.597656 C 3.484375 -11.597656 0.933594 -10.425781 0.933594 -7.695312 L 0.933594 -3.625 C 0.933594 -0.898438 3.484375 0.277344 5.539062 0.277344 C 6.28125 0.277344 7.007812 0.207031 7.730469 -0.105469 L 8.558594 0.742188 C 8.785156 0.964844 9.0625 0.933594 9.335938 0.65625 L 10.164062 -0.015625 C 10.457031 -0.3125 10.457031 -0.605469 10.234375 -0.8125 Z M 7.488281 -7.472656 L 7.488281 -3.882812 C 7.488281 -2.777344 6.695312 -2.140625 5.558594 -2.140625 C 4.433594 -2.140625 3.640625 -2.777344 3.640625 -3.882812 L 3.640625 -7.472656 C 3.640625 -8.578125 4.433594 -9.214844 5.558594 -9.214844 C 6.695312 -9.214844 7.488281 -8.578125 7.488281 -7.472656 Z M 7.488281 -7.472656 "/></g></g></g><g fill="rgb(0%, 0%, 0%)" fill-opacity="1"><g transform="translate(49.228046, 224.452356)"><g><path d="M 9.769531 -11.355469 L 8.058594 -11.355469 C 7.75 -11.355469 7.558594 -11.253906 7.558594 -10.855469 L 7.558594 -3.847656 C 7.558594 -2.761719 6.835938 -2.140625 5.695312 -2.140625 C 4.554688 -2.140625 3.847656 -2.761719 3.847656 -3.847656 L 3.847656 -10.855469 C 3.847656 -11.253906 3.660156 -11.355469 3.347656 -11.355469 L 1.640625 -11.355469 C 1.328125 -11.355469 1.140625 -11.253906 1.140625 -10.855469 L 1.140625 -3.46875 C 1.140625 -0.757812 3.640625 0.257812 5.695312 0.257812 C 7.75 0.257812 10.269531 -0.757812 10.269531 -3.46875 L 10.269531 -10.855469 C 10.269531 -11.253906 10.078125 -11.355469 9.769531 -11.355469 Z M 9.769531 -11.355469 "/></g></g></g><g fill="rgb(0%, 0%, 0%)" fill-opacity="1"><g transform="translate(62.907436, 224.452356)"><g><path d="M 11.046875 -0.484375 L 7.230469 -10.820312 C 7.074219 -11.183594 6.902344 -11.355469 6.523438 -11.355469 L 4.867188 -11.355469 C 4.488281 -11.355469 4.296875 -11.183594 4.160156 -10.820312 L 0.328125 -0.484375 C 0.242188 -0.277344 0.242188 0 0.621094 0 L 2.433594 0 C 2.8125 0 2.949219 -0.105469 3.089844 -0.519531 L 3.574219 -1.882812 L 7.800781 -1.882812 L 8.285156 -0.519531 C 8.421875 -0.105469 8.558594 0 8.941406 0 L 10.75 0 C 11.132812 0 11.132812 -0.277344 11.046875 -0.484375 Z M 5.695312 -8.113281 L 6.988281 -4.296875 L 4.402344 -4.296875 Z M 5.695312 -8.113281 "/></g></g></g><g fill="rgb(0%, 0%, 0%)" fill-opacity="1"><g transform="translate(76.483341, 224.452356)"><g><path d="M 9.992188 -11.355469 L 8.335938 -11.355469 C 8.023438 -11.355469 7.835938 -11.253906 7.835938 -10.855469 L 7.835938 -4.867188 L 4.175781 -10.769531 C 3.953125 -11.113281 3.832031 -11.355469 3.398438 -11.355469 L 1.777344 -11.355469 C 1.378906 -11.355469 1.277344 -11.167969 1.277344 -10.855469 L 1.277344 -0.5 C 1.277344 -0.105469 1.46875 0 1.777344 0 L 3.484375 0 C 3.796875 0 3.988281 -0.105469 3.988281 -0.5 L 3.988281 -6.507812 L 7.644531 -0.585938 C 7.871094 -0.242188 7.992188 0 8.421875 0 L 9.992188 0 C 10.390625 0 10.492188 -0.191406 10.492188 -0.5 L 10.492188 -10.855469 C 10.492188 -11.253906 10.304688 -11.355469 9.992188 -11.355469 Z M 9.992188 -11.355469 "/></g></g></g><g fill="rgb(0%, 0%, 0%)" fill-opacity="1"><g transform="translate(90.524925, 224.452356)"><g><path d="M 8.957031 -11.355469 L 0.949219 -11.355469 C 0.550781 -11.355469 0.449219 -11.167969 0.449219 -10.855469 L 0.449219 -9.421875 C 0.449219 -9.113281 0.550781 -8.921875 0.949219 -8.921875 L 3.605469 -8.921875 L 3.605469 -0.5 C 3.605469 -0.105469 3.796875 0 4.109375 0 L 5.816406 0 C 6.125 0 6.316406 -0.105469 6.316406 -0.5 L 6.316406 -8.921875 L 8.957031 -8.921875 C 9.355469 -8.921875 9.457031 -9.113281 9.457031 -9.421875 L 9.457031 -10.855469 C 9.457031 -11.167969 9.355469 -11.355469 8.957031 -11.355469 Z M 8.957031 -11.355469 "/></g></g></g><g fill="rgb(0%, 0%, 0%)" fill-opacity="1"><g transform="translate(102.703795, 224.452356)"><g><path d="M 10.199219 -3.640625 L 10.199219 -7.714844 C 10.199219 -10.441406 7.609375 -11.613281 5.558594 -11.613281 C 3.503906 -11.613281 0.949219 -10.441406 0.949219 -7.714844 L 0.949219 -3.640625 C 0.949219 -0.914062 3.503906 0.257812 5.558594 0.257812 C 7.609375 0.257812 10.199219 -0.914062 10.199219 -3.640625 Z M 7.488281 -7.472656 L 7.488281 -3.882812 C 7.488281 -2.777344 6.695312 -2.140625 5.558594 -2.140625 C 4.433594 -2.140625 3.640625 -2.777344 3.640625 -3.882812 L 3.640625 -7.472656 C 3.640625 -8.578125 4.433594 -9.214844 5.558594 -9.214844 C 6.695312 -9.214844 7.488281 -8.578125 7.488281 -7.472656 Z M 7.488281 -7.472656 "/></g></g></g><g fill="rgb(0%, 0%, 0%)" fill-opacity="1"><g transform="translate(116.107224, 224.452356)"><g/></g></g><g fill="rgb(0%, 0%, 0%)" fill-opacity="1"><g transform="translate(123.060127, 224.452356)"><g><path d="M 11.046875 -0.484375 L 7.230469 -10.820312 C 7.074219 -11.183594 6.902344 -11.355469 6.523438 -11.355469 L 4.867188 -11.355469 C 4.488281 -11.355469 4.296875 -11.183594 4.160156 -10.820312 L 0.328125 -0.484375 C 0.242188 -0.277344 0.242188 0 0.621094 0 L 2.433594 0 C 2.8125 0 2.949219 -0.105469 3.089844 -0.519531 L 3.574219 -1.882812 L 7.800781 -1.882812 L 8.285156 -0.519531 C 8.421875 -0.105469 8.558594 0 8.941406 0 L 10.75 0 C 11.132812 0 11.132812 -0.277344 11.046875 -0.484375 Z M 5.695312 -8.113281 L 6.988281 -4.296875 L 4.402344 -4.296875 Z M 5.695312 -8.113281 "/></g></g></g><g fill="rgb(0%, 0%, 0%)" fill-opacity="1"><g transform="translate(136.636033, 224.452356)"><g><path d="M 6.628906 -6.59375 C 5.9375 -6.867188 3.398438 -7.25 3.398438 -8.300781 C 3.398438 -9.078125 4.347656 -9.300781 4.917969 -9.300781 C 5.4375 -9.300781 6.058594 -9.148438 6.386719 -8.835938 C 6.59375 -8.628906 6.679688 -8.492188 6.746094 -8.320312 C 6.835938 -8.09375 6.886719 -7.851562 7.214844 -7.851562 L 8.90625 -7.851562 C 9.300781 -7.851562 9.40625 -7.921875 9.40625 -8.335938 C 9.40625 -10.613281 7.007812 -11.613281 4.816406 -11.613281 C 2.65625 -11.527344 0.621094 -10.425781 0.621094 -8.179688 C 0.621094 -5.988281 2.226562 -5.296875 3.96875 -4.746094 C 5.4375 -4.28125 6.972656 -4.261719 6.972656 -3.296875 C 6.972656 -2.328125 6.214844 -2.121094 5.28125 -2.121094 C 4.640625 -2.121094 3.933594 -2.277344 3.589844 -2.691406 C 3.367188 -2.949219 3.277344 -3.175781 3.261719 -3.398438 C 3.226562 -3.832031 3.039062 -3.882812 2.640625 -3.882812 L 0.964844 -3.882812 C 0.570312 -3.882812 0.464844 -3.796875 0.464844 -3.398438 C 0.464844 -0.984375 2.949219 0.257812 5.109375 0.257812 C 7.765625 0.257812 9.699219 -0.914062 9.699219 -3.367188 C 9.699219 -5.710938 7.871094 -6.214844 6.628906 -6.59375 Z M 6.628906 -6.59375 "/></g></g></g><g fill="rgb(0%, 0%, 0%)" fill-opacity="1"><g transform="translate(149.349569, 224.452356)"><g/></g></g><g fill="rgb(0%, 0%, 0%)" fill-opacity="1"><g transform="translate(156.302467, 224.452356)"><g><path d="M 11.460938 -11.375 L 9.800781 -11.375 C 9.234375 -11.375 9.148438 -10.992188 9.027344 -10.785156 L 6.644531 -6.539062 L 4.28125 -10.785156 C 4.140625 -10.992188 4.074219 -11.375 3.484375 -11.375 L 1.777344 -11.375 C 1.378906 -11.375 1.277344 -11.183594 1.277344 -10.871094 L 1.277344 -0.5 C 1.277344 -0.105469 1.46875 0 1.777344 0 L 3.484375 0 C 3.796875 0 3.988281 -0.105469 3.988281 -0.5 L 3.988281 -6.351562 L 5.730469 -3.332031 C 5.816406 -3.191406 5.953125 -2.96875 6.214844 -2.96875 L 7.074219 -2.96875 C 7.335938 -2.96875 7.488281 -3.191406 7.578125 -3.332031 L 9.300781 -6.351562 L 9.300781 -0.5 C 9.300781 -0.105469 9.492188 0 9.800781 0 L 11.460938 0 C 11.769531 0 11.960938 -0.105469 11.960938 -0.5 L 11.960938 -10.871094 C 11.960938 -11.183594 11.855469 -11.375 11.460938 -11.375 Z M 11.460938 -11.375 "/></g></g></g><g fill="rgb(0%, 0%, 0%)" fill-opacity="1"><g transform="translate(171.810084, 224.452356)"><g><path d="M 11.046875 -0.484375 L 7.230469 -10.820312 C 7.074219 -11.183594 6.902344 -11.355469 6.523438 -11.355469 L 4.867188 -11.355469 C 4.488281 -11.355469 4.296875 -11.183594 4.160156 -10.820312 L 0.328125 -0.484375 C 0.242188 -0.277344 0.242188 0 0.621094 0 L 2.433594 0 C 2.8125 0 2.949219 -0.105469 3.089844 -0.519531 L 3.574219 -1.882812 L 7.800781 -1.882812 L 8.285156 -0.519531 C 8.421875 -0.105469 8.558594 0 8.941406 0 L 10.75 0 C 11.132812 0 11.132812 -0.277344 11.046875 -0.484375 Z M 5.695312 -8.113281 L 6.988281 -4.296875 L 4.402344 -4.296875 Z M 5.695312 -8.113281 "/></g></g></g><g fill="rgb(0%, 0%, 0%)" fill-opacity="1"><g transform="translate(185.385985, 224.452356)"><g><path d="M 6.214844 -2.363281 L 5.125 -2.363281 L 5.125 -8.957031 L 6.160156 -8.957031 C 6.558594 -8.957031 6.660156 -9.148438 6.660156 -9.457031 L 6.660156 -10.855469 C 6.660156 -11.167969 6.558594 -11.355469 6.160156 -11.355469 L 1.363281 -11.355469 C 0.964844 -11.355469 0.863281 -11.167969 0.863281 -10.855469 L 0.863281 -9.457031 C 0.863281 -9.148438 0.964844 -8.957031 1.363281 -8.957031 L 2.417969 -8.957031 L 2.417969 -2.363281 L 1.328125 -2.363281 C 0.933594 -2.363281 0.828125 -2.175781 0.828125 -1.863281 L 0.828125 -0.5 C 0.828125 -0.191406 0.933594 0 1.328125 0 L 6.214844 0 C 6.609375 0 6.714844 -0.191406 6.714844 -0.5 L 6.714844 -1.863281 C 6.714844 -2.175781 6.609375 -2.363281 6.214844 -2.363281 Z M 6.214844 -2.363281 "/></g></g></g><g fill="rgb(0%, 0%, 0%)" fill-opacity="1"><g transform="translate(195.32268, 224.452356)"><g><path d="M 6.628906 -6.59375 C 5.9375 -6.867188 3.398438 -7.25 3.398438 -8.300781 C 3.398438 -9.078125 4.347656 -9.300781 4.917969 -9.300781 C 5.4375 -9.300781 6.058594 -9.148438 6.386719 -8.835938 C 6.59375 -8.628906 6.679688 -8.492188 6.746094 -8.320312 C 6.835938 -8.09375 6.886719 -7.851562 7.214844 -7.851562 L 8.90625 -7.851562 C 9.300781 -7.851562 9.40625 -7.921875 9.40625 -8.335938 C 9.40625 -10.613281 7.007812 -11.613281 4.816406 -11.613281 C 2.65625 -11.527344 0.621094 -10.425781 0.621094 -8.179688 C 0.621094 -5.988281 2.226562 -5.296875 3.96875 -4.746094 C 5.4375 -4.28125 6.972656 -4.261719 6.972656 -3.296875 C 6.972656 -2.328125 6.214844 -2.121094 5.28125 -2.121094 C 4.640625 -2.121094 3.933594 -2.277344 3.589844 -2.691406 C 3.367188 -2.949219 3.277344 -3.175781 3.261719 -3.398438 C 3.226562 -3.832031 3.039062 -3.882812 2.640625 -3.882812 L 0.964844 -3.882812 C 0.570312 -3.882812 0.464844 -3.796875 0.464844 -3.398438 C 0.464844 -0.984375 2.949219 0.257812 5.109375 0.257812 C 7.765625 0.257812 9.699219 -0.914062 9.699219 -3.367188 C 9.699219 -5.710938 7.871094 -6.214844 6.628906 -6.59375 Z M 6.628906 -6.59375 "/></g></g></g><g fill="rgb(0%, 0%, 0%)" fill-opacity="1"><g transform="translate(208.036206, 224.452356)"><g/></g></g><g fill="rgb(0%, 0%, 0%)" fill-opacity="1"><g transform="translate(214.989104, 224.452356)"><g><path d="M 8.957031 -11.355469 L 0.949219 -11.355469 C 0.550781 -11.355469 0.449219 -11.167969 0.449219 -10.855469 L 0.449219 -9.421875 C 0.449219 -9.113281 0.550781 -8.921875 0.949219 -8.921875 L 3.605469 -8.921875 L 3.605469 -0.5 C 3.605469 -0.105469 3.796875 0 4.109375 0 L 5.816406 0 C 6.125 0 6.316406 -0.105469 6.316406 -0.5 L 6.316406 -8.921875 L 8.957031 -8.921875 C 9.355469 -8.921875 9.457031 -9.113281 9.457031 -9.421875 L 9.457031 -10.855469 C 9.457031 -11.167969 9.355469 -11.355469 8.957031 -11.355469 Z M 8.957031 -11.355469 "/></g></g></g><g fill="rgb(0%, 0%, 0%)" fill-opacity="1"><g transform="translate(227.167969, 224.452356)"><g><path d="M 9.507812 -2.417969 L 4.003906 -2.417969 L 4.003906 -4.695312 L 8.628906 -4.695312 C 9.027344 -4.695312 9.128906 -4.882812 9.128906 -5.195312 L 9.128906 -6.539062 C 9.128906 -6.851562 9.027344 -7.042969 8.628906 -7.042969 L 4.003906 -7.042969 L 4.003906 -8.921875 L 9.214844 -8.921875 C 9.613281 -8.921875 9.714844 -9.113281 9.714844 -9.421875 L 9.714844 -10.855469 C 9.714844 -11.167969 9.613281 -11.355469 9.214844 -11.355469 L 1.777344 -11.355469 C 1.378906 -11.355469 1.277344 -11.167969 1.277344 -10.855469 L 1.277344 -0.5 C 1.277344 -0.191406 1.378906 0 1.777344 0 L 9.507812 0 C 9.90625 0 10.011719 -0.191406 10.011719 -0.5 L 10.011719 -1.914062 C 10.011719 -2.226562 9.90625 -2.417969 9.507812 -2.417969 Z M 9.507812 -2.417969 "/></g></g></g><g fill="rgb(0%, 0%, 0%)" fill-opacity="1"><g transform="translate(240.26095, 224.452356)"><g><path d="M 10.578125 -0.550781 L 8.144531 -4.089844 C 9.214844 -4.453125 10.542969 -5.710938 10.542969 -7.523438 C 10.542969 -8.628906 10.183594 -9.613281 9.542969 -10.234375 C 8.820312 -10.957031 7.992188 -11.339844 6.109375 -11.339844 L 1.761719 -11.339844 C 1.363281 -11.339844 1.277344 -11.148438 1.277344 -10.839844 L 1.277344 -0.5 C 1.277344 -0.105469 1.449219 0 1.761719 0 L 3.46875 0 C 3.78125 0 3.96875 -0.105469 3.96875 -0.5 L 3.96875 -8.921875 L 6.265625 -8.921875 C 7.164062 -8.921875 7.851562 -8.351562 7.851562 -7.457031 C 7.851562 -6.644531 7.058594 -6.058594 6.214844 -6.058594 L 5.867188 -6.058594 C 5.472656 -6.058594 5.367188 -5.867188 5.367188 -5.558594 L 5.367188 -4.175781 C 5.367188 -3.691406 5.402344 -3.503906 5.558594 -3.296875 L 7.421875 -0.519531 C 7.664062 -0.15625 7.871094 0 8.285156 0 L 10.320312 0 C 10.648438 0 10.734375 -0.3125 10.578125 -0.550781 Z M 10.578125 -0.550781 "/></g></g></g><g fill="rgb(0%, 0%, 0%)" fill-opacity="1"><g transform="translate(254.026578, 224.452356)"><g><path d="M 10.578125 -0.550781 L 8.144531 -4.089844 C 9.214844 -4.453125 10.542969 -5.710938 10.542969 -7.523438 C 10.542969 -8.628906 10.183594 -9.613281 9.542969 -10.234375 C 8.820312 -10.957031 7.992188 -11.339844 6.109375 -11.339844 L 1.761719 -11.339844 C 1.363281 -11.339844 1.277344 -11.148438 1.277344 -10.839844 L 1.277344 -0.5 C 1.277344 -0.105469 1.449219 0 1.761719 0 L 3.46875 0 C 3.78125 0 3.96875 -0.105469 3.96875 -0.5 L 3.96875 -8.921875 L 6.265625 -8.921875 C 7.164062 -8.921875 7.851562 -8.351562 7.851562 -7.457031 C 7.851562 -6.644531 7.058594 -6.058594 6.214844 -6.058594 L 5.867188 -6.058594 C 5.472656 -6.058594 5.367188 -5.867188 5.367188 -5.558594 L 5.367188 -4.175781 C 5.367188 -3.691406 5.402344 -3.503906 5.558594 -3.296875 L 7.421875 -0.519531 C 7.664062 -0.15625 7.871094 0 8.285156 0 L 10.320312 0 C 10.648438 0 10.734375 -0.3125 10.578125 -0.550781 Z M 10.578125 -0.550781 "/></g></g></g><g fill="rgb(0%, 0%, 0%)" fill-opacity="1"><g transform="translate(267.792206, 224.452356)"><g><path d="M 3.070312 -12.355469 L 4.761719 -12.355469 C 5.195312 -12.355469 5.332031 -12.597656 5.574219 -12.839844 L 7.300781 -14.703125 C 7.457031 -14.859375 7.402344 -15.1875 6.972656 -15.1875 L 4.78125 -15.1875 C 4.402344 -15.1875 4.261719 -15.136719 4.003906 -14.703125 L 2.847656 -12.839844 C 2.742188 -12.683594 2.742188 -12.355469 3.070312 -12.355469 Z M 6.835938 -2.417969 L 5.503906 -2.417969 L 5.503906 -8.941406 L 6.539062 -8.941406 C 6.9375 -8.941406 7.042969 -9.128906 7.042969 -9.441406 L 7.042969 -10.855469 C 7.042969 -11.167969 6.9375 -11.355469 6.539062 -11.355469 L 1.742188 -11.355469 C 1.347656 -11.355469 1.242188 -11.167969 1.242188 -10.855469 L 1.242188 -9.441406 C 1.242188 -9.128906 1.347656 -8.941406 1.742188 -8.941406 L 2.796875 -8.941406 L 2.796875 -2.417969 L 1.46875 -2.417969 C 1.070312 -2.417969 0.964844 -2.226562 0.964844 -1.914062 L 0.964844 -0.5 C 0.964844 -0.191406 1.070312 0 1.46875 0 L 6.835938 0 C 7.230469 0 7.335938 -0.191406 7.335938 -0.5 L 7.335938 -1.914062 C 7.335938 -2.226562 7.230469 -2.417969 6.835938 -2.417969 Z M 6.835938 -2.417969 "/></g></g></g><g fill="rgb(0%, 0%, 0%)" fill-opacity="1"><g transform="translate(278.418811, 224.452356)"><g><path d="M 10.335938 -11.355469 L 8.507812 -11.355469 C 8.042969 -11.355469 7.921875 -11.21875 7.785156 -10.804688 L 5.453125 -3.660156 L 3.105469 -10.804688 C 2.96875 -11.21875 2.847656 -11.355469 2.398438 -11.355469 L 0.484375 -11.355469 C 0.15625 -11.355469 0.0859375 -11.078125 0.171875 -10.855469 L 3.882812 -0.519531 C 4.089844 -0.0703125 4.210938 0 4.589844 0 L 6.246094 0 C 6.628906 0 6.746094 -0.0703125 6.953125 -0.519531 L 10.648438 -10.855469 C 10.734375 -11.078125 10.664062 -11.355469 10.335938 -11.355469 Z M 10.335938 -11.355469 "/></g></g></g><g fill="rgb(0%, 0%, 0%)" fill-opacity="1"><g transform="translate(291.667018, 224.452356)"><g><path d="M 9.507812 -2.417969 L 4.003906 -2.417969 L 4.003906 -4.695312 L 8.628906 -4.695312 C 9.027344 -4.695312 9.128906 -4.882812 9.128906 -5.195312 L 9.128906 -6.539062 C 9.128906 -6.851562 9.027344 -7.042969 8.628906 -7.042969 L 4.003906 -7.042969 L 4.003906 -8.921875 L 9.214844 -8.921875 C 9.613281 -8.921875 9.714844 -9.113281 9.714844 -9.421875 L 9.714844 -10.855469 C 9.714844 -11.167969 9.613281 -11.355469 9.214844 -11.355469 L 1.777344 -11.355469 C 1.378906 -11.355469 1.277344 -11.167969 1.277344 -10.855469 L 1.277344 -0.5 C 1.277344 -0.191406 1.378906 0 1.777344 0 L 9.507812 0 C 9.90625 0 10.011719 -0.191406 10.011719 -0.5 L 10.011719 -1.914062 C 10.011719 -2.226562 9.90625 -2.417969 9.507812 -2.417969 Z M 9.507812 -2.417969 "/></g></g></g><g fill="rgb(0%, 0%, 0%)" fill-opacity="1"><g transform="translate(304.76, 224.452356)"><g><path d="M 6.214844 -2.363281 L 5.125 -2.363281 L 5.125 -8.957031 L 6.160156 -8.957031 C 6.558594 -8.957031 6.660156 -9.148438 6.660156 -9.457031 L 6.660156 -10.855469 C 6.660156 -11.167969 6.558594 -11.355469 6.160156 -11.355469 L 1.363281 -11.355469 C 0.964844 -11.355469 0.863281 -11.167969 0.863281 -10.855469 L 0.863281 -9.457031 C 0.863281 -9.148438 0.964844 -8.957031 1.363281 -8.957031 L 2.417969 -8.957031 L 2.417969 -2.363281 L 1.328125 -2.363281 C 0.933594 -2.363281 0.828125 -2.175781 0.828125 -1.863281 L 0.828125 -0.5 C 0.828125 -0.191406 0.933594 0 1.328125 0 L 6.214844 0 C 6.609375 0 6.714844 -0.191406 6.714844 -0.5 L 6.714844 -1.863281 C 6.714844 -2.175781 6.609375 -2.363281 6.214844 -2.363281 Z M 6.214844 -2.363281 "/></g></g></g><g fill="rgb(0%, 0%, 0%)" fill-opacity="1"><g transform="translate(314.696696, 224.452356)"><g><path d="M 6.628906 -6.59375 C 5.9375 -6.867188 3.398438 -7.25 3.398438 -8.300781 C 3.398438 -9.078125 4.347656 -9.300781 4.917969 -9.300781 C 5.4375 -9.300781 6.058594 -9.148438 6.386719 -8.835938 C 6.59375 -8.628906 6.679688 -8.492188 6.746094 -8.320312 C 6.835938 -8.09375 6.886719 -7.851562 7.214844 -7.851562 L 8.90625 -7.851562 C 9.300781 -7.851562 9.40625 -7.921875 9.40625 -8.335938 C 9.40625 -10.613281 7.007812 -11.613281 4.816406 -11.613281 C 2.65625 -11.527344 0.621094 -10.425781 0.621094 -8.179688 C 0.621094 -5.988281 2.226562 -5.296875 3.96875 -4.746094 C 5.4375 -4.28125 6.972656 -4.261719 6.972656 -3.296875 C 6.972656 -2.328125 6.214844 -2.121094 5.28125 -2.121094 C 4.640625 -2.121094 3.933594 -2.277344 3.589844 -2.691406 C 3.367188 -2.949219 3.277344 -3.175781 3.261719 -3.398438 C 3.226562 -3.832031 3.039062 -3.882812 2.640625 -3.882812 L 0.964844 -3.882812 C 0.570312 -3.882812 0.464844 -3.796875 0.464844 -3.398438 C 0.464844 -0.984375 2.949219 0.257812 5.109375 0.257812 C 7.765625 0.257812 9.699219 -0.914062 9.699219 -3.367188 C 9.699219 -5.710938 7.871094 -6.214844 6.628906 -6.59375 Z M 6.628906 -6.59375 "/></g></g></g><g fill="rgb(0%, 0%, 0%)" fill-opacity="1"><g transform="translate(130.679361, 248.291696)"><g><path d="M 9.714844 -6.332031 L 5.9375 -6.332031 C 5.539062 -6.332031 5.4375 -6.144531 5.4375 -5.832031 L 5.4375 -4.488281 C 5.4375 -4.175781 5.539062 -3.988281 5.9375 -3.988281 L 7.488281 -3.988281 C 7.488281 -2.65625 6.695312 -2.140625 5.574219 -2.140625 C 4.433594 -2.140625 3.675781 -2.777344 3.675781 -3.882812 L 3.675781 -7.351562 C 3.675781 -8.457031 4.433594 -9.214844 5.574219 -9.214844 C 6.730469 -9.214844 7.351562 -8.699219 7.542969 -8.164062 C 7.628906 -7.921875 7.558594 -7.578125 8.042969 -7.578125 L 9.714844 -7.578125 C 10.113281 -7.578125 10.21875 -7.644531 10.21875 -8.058594 C 10.21875 -10.371094 7.730469 -11.613281 5.574219 -11.613281 C 3.539062 -11.613281 0.933594 -10.457031 0.933594 -7.730469 L 0.933594 -3.484375 C 0.933594 -0.777344 3.539062 0.257812 5.574219 0.257812 C 7.542969 0.257812 10.0625 -0.84375 10.21875 -3.332031 L 10.21875 -5.832031 C 10.21875 -6.144531 10.113281 -6.332031 9.714844 -6.332031 Z M 9.714844 -6.332031 "/></g></g></g><g fill="rgb(0%, 0%, 0%)" fill-opacity="1"><g transform="translate(144.10004, 248.291696)"><g><path d="M 9.769531 -11.355469 L 8.058594 -11.355469 C 7.75 -11.355469 7.558594 -11.253906 7.558594 -10.855469 L 7.558594 -3.847656 C 7.558594 -2.761719 6.835938 -2.140625 5.695312 -2.140625 C 4.554688 -2.140625 3.847656 -2.761719 3.847656 -3.847656 L 3.847656 -10.855469 C 3.847656 -11.253906 3.660156 -11.355469 3.347656 -11.355469 L 1.640625 -11.355469 C 1.328125 -11.355469 1.140625 -11.253906 1.140625 -10.855469 L 1.140625 -3.46875 C 1.140625 -0.757812 3.640625 0.257812 5.695312 0.257812 C 7.75 0.257812 10.269531 -0.757812 10.269531 -3.46875 L 10.269531 -10.855469 C 10.269531 -11.253906 10.078125 -11.355469 9.769531 -11.355469 Z M 9.769531 -11.355469 "/></g></g></g><g fill="rgb(0%, 0%, 0%)" fill-opacity="1"><g transform="translate(157.77943, 248.291696)"><g><path d="M 9.507812 -2.417969 L 4.003906 -2.417969 L 4.003906 -4.695312 L 8.628906 -4.695312 C 9.027344 -4.695312 9.128906 -4.882812 9.128906 -5.195312 L 9.128906 -6.539062 C 9.128906 -6.851562 9.027344 -7.042969 8.628906 -7.042969 L 4.003906 -7.042969 L 4.003906 -8.921875 L 9.214844 -8.921875 C 9.613281 -8.921875 9.714844 -9.113281 9.714844 -9.421875 L 9.714844 -10.855469 C 9.714844 -11.167969 9.613281 -11.355469 9.214844 -11.355469 L 1.777344 -11.355469 C 1.378906 -11.355469 1.277344 -11.167969 1.277344 -10.855469 L 1.277344 -0.5 C 1.277344 -0.191406 1.378906 0 1.777344 0 L 9.507812 0 C 9.90625 0 10.011719 -0.191406 10.011719 -0.5 L 10.011719 -1.914062 C 10.011719 -2.226562 9.90625 -2.417969 9.507812 -2.417969 Z M 9.507812 -2.417969 "/></g></g></g><g fill="rgb(0%, 0%, 0%)" fill-opacity="1"><g transform="translate(170.872406, 248.291696)"><g><path d="M 10.578125 -0.550781 L 8.144531 -4.089844 C 9.214844 -4.453125 10.542969 -5.710938 10.542969 -7.523438 C 10.542969 -8.628906 10.183594 -9.613281 9.542969 -10.234375 C 8.820312 -10.957031 7.992188 -11.339844 6.109375 -11.339844 L 1.761719 -11.339844 C 1.363281 -11.339844 1.277344 -11.148438 1.277344 -10.839844 L 1.277344 -0.5 C 1.277344 -0.105469 1.449219 0 1.761719 0 L 3.46875 0 C 3.78125 0 3.96875 -0.105469 3.96875 -0.5 L 3.96875 -8.921875 L 6.265625 -8.921875 C 7.164062 -8.921875 7.851562 -8.351562 7.851562 -7.457031 C 7.851562 -6.644531 7.058594 -6.058594 6.214844 -6.058594 L 5.867188 -6.058594 C 5.472656 -6.058594 5.367188 -5.867188 5.367188 -5.558594 L 5.367188 -4.175781 C 5.367188 -3.691406 5.402344 -3.503906 5.558594 -3.296875 L 7.421875 -0.519531 C 7.664062 -0.15625 7.871094 0 8.285156 0 L 10.320312 0 C 10.648438 0 10.734375 -0.3125 10.578125 -0.550781 Z M 10.578125 -0.550781 "/></g></g></g><g fill="rgb(0%, 0%, 0%)" fill-opacity="1"><g transform="translate(184.638028, 248.291696)"><g><path d="M 10.578125 -0.550781 L 8.144531 -4.089844 C 9.214844 -4.453125 10.542969 -5.710938 10.542969 -7.523438 C 10.542969 -8.628906 10.183594 -9.613281 9.542969 -10.234375 C 8.820312 -10.957031 7.992188 -11.339844 6.109375 -11.339844 L 1.761719 -11.339844 C 1.363281 -11.339844 1.277344 -11.148438 1.277344 -10.839844 L 1.277344 -0.5 C 1.277344 -0.105469 1.449219 0 1.761719 0 L 3.46875 0 C 3.78125 0 3.96875 -0.105469 3.96875 -0.5 L 3.96875 -8.921875 L 6.265625 -8.921875 C 7.164062 -8.921875 7.851562 -8.351562 7.851562 -7.457031 C 7.851562 -6.644531 7.058594 -6.058594 6.214844 -6.058594 L 5.867188 -6.058594 C 5.472656 -6.058594 5.367188 -5.867188 5.367188 -5.558594 L 5.367188 -4.175781 C 5.367188 -3.691406 5.402344 -3.503906 5.558594 -3.296875 L 7.421875 -0.519531 C 7.664062 -0.15625 7.871094 0 8.285156 0 L 10.320312 0 C 10.648438 0 10.734375 -0.3125 10.578125 -0.550781 Z M 10.578125 -0.550781 "/></g></g></g><g fill="rgb(0%, 0%, 0%)" fill-opacity="1"><g transform="translate(198.40365, 248.291696)"><g><path d="M 11.046875 -0.484375 L 7.230469 -10.820312 C 7.074219 -11.183594 6.902344 -11.355469 6.523438 -11.355469 L 4.867188 -11.355469 C 4.488281 -11.355469 4.296875 -11.183594 4.160156 -10.820312 L 0.328125 -0.484375 C 0.242188 -0.277344 0.242188 0 0.621094 0 L 2.433594 0 C 2.8125 0 2.949219 -0.105469 3.089844 -0.519531 L 3.574219 -1.882812 L 7.800781 -1.882812 L 8.285156 -0.519531 C 8.421875 -0.105469 8.558594 0 8.941406 0 L 10.75 0 C 11.132812 0 11.132812 -0.277344 11.046875 -0.484375 Z M 5.695312 -8.113281 L 6.988281 -4.296875 L 4.402344 -4.296875 Z M 5.695312 -8.113281 "/></g></g></g><g fill="rgb(0%, 0%, 0%)" fill-opacity="1"><g transform="translate(211.979556, 248.291696)"><g><path d="M 6.628906 -6.59375 C 5.9375 -6.867188 3.398438 -7.25 3.398438 -8.300781 C 3.398438 -9.078125 4.347656 -9.300781 4.917969 -9.300781 C 5.4375 -9.300781 6.058594 -9.148438 6.386719 -8.835938 C 6.59375 -8.628906 6.679688 -8.492188 6.746094 -8.320312 C 6.835938 -8.09375 6.886719 -7.851562 7.214844 -7.851562 L 8.90625 -7.851562 C 9.300781 -7.851562 9.40625 -7.921875 9.40625 -8.335938 C 9.40625 -10.613281 7.007812 -11.613281 4.816406 -11.613281 C 2.65625 -11.527344 0.621094 -10.425781 0.621094 -8.179688 C 0.621094 -5.988281 2.226562 -5.296875 3.96875 -4.746094 C 5.4375 -4.28125 6.972656 -4.261719 6.972656 -3.296875 C 6.972656 -2.328125 6.214844 -2.121094 5.28125 -2.121094 C 4.640625 -2.121094 3.933594 -2.277344 3.589844 -2.691406 C 3.367188 -2.949219 3.277344 -3.175781 3.261719 -3.398438 C 3.226562 -3.832031 3.039062 -3.882812 2.640625 -3.882812 L 0.964844 -3.882812 C 0.570312 -3.882812 0.464844 -3.796875 0.464844 -3.398438 C 0.464844 -0.984375 2.949219 0.257812 5.109375 0.257812 C 7.765625 0.257812 9.699219 -0.914062 9.699219 -3.367188 C 9.699219 -5.710938 7.871094 -6.214844 6.628906 -6.59375 Z M 6.628906 -6.59375 "/></g></g></g><g fill="rgb(0%, 0%, 0%)" fill-opacity="1"><g transform="translate(224.693081, 248.291696)"><g><path d="M 2.433594 -3.574219 L 3.277344 -3.574219 C 3.675781 -3.574219 3.710938 -3.625 3.761719 -4.074219 C 4.503906 -10.890625 4.523438 -10.941406 4.523438 -10.992188 C 4.523438 -11.304688 4.367188 -11.355469 4.003906 -11.355469 L 1.691406 -11.355469 C 1.347656 -11.355469 1.191406 -11.285156 1.191406 -10.992188 C 1.191406 -10.941406 1.207031 -10.890625 1.933594 -4.074219 C 1.984375 -3.640625 2.019531 -3.574219 2.433594 -3.574219 Z M 3.8125 -2.917969 L 1.898438 -2.917969 C 1.585938 -2.917969 1.398438 -2.8125 1.398438 -2.417969 L 1.398438 -0.5 C 1.398438 -0.105469 1.585938 0 1.898438 0 L 3.8125 0 C 4.125 0 4.316406 -0.105469 4.316406 -0.5 L 4.316406 -2.417969 C 4.316406 -2.8125 4.125 -2.917969 3.8125 -2.917969 Z M 3.8125 -2.917969 "/></g></g></g></svg>