<svg xmlns="http://www.w3.org/2000/svg" xmlns:xlink="http://www.w3.org/1999/xlink" width="800" zoomAndPan="magnify" viewBox="0 0 600 599.999999" height="800" preserveAspectRatio="xMidYMid meet" version="1.0"><defs><g/></defs><path fill="rgb(81.568909%, 100%, 87.838745%)" d="M 299.828125 113.757812 C 196.714844 113.757812 113.125 197.179688 113.125 300.089844 C 113.125 402.996094 196.714844 486.417969 299.828125 486.417969 C 402.941406 486.417969 486.53125 402.996094 486.53125 300.089844 C 486.53125 197.179688 402.941406 113.757812 299.828125 113.757812 " fill-opacity="1" fill-rule="nonzero"/><g fill="rgb(0%, 0%, 0%)" fill-opacity="1"><g transform="translate(145.541419, 247.784745)"><g><path d="M 9.730469 -6.109375 C 9.890625 -6.179688 11.039062 -6.753906 11.039062 -8.566406 C 11.039062 -10.25 9.78125 -11.808594 6.863281 -11.808594 L 1.84375 -11.808594 C 1.433594 -11.808594 1.324219 -11.609375 1.324219 -11.289062 L 1.324219 -0.519531 C 1.324219 -0.195312 1.433594 0 1.84375 0 L 7.113281 0 C 9.605469 0 11.378906 -1.164062 11.378906 -3.441406 C 11.378906 -5.375 9.871094 -6.054688 9.730469 -6.109375 Z M 7.148438 -2.542969 L 4.140625 -2.542969 L 4.140625 -9.28125 L 6.863281 -9.28125 C 7.792969 -9.28125 8.347656 -9.085938 8.347656 -8.277344 C 8.347656 -7.578125 7.902344 -7.203125 6.863281 -7.203125 L 6.628906 -7.203125 C 6.21875 -7.203125 6.109375 -7.003906 6.109375 -6.683594 L 6.109375 -5.320312 C 6.109375 -5 6.21875 -4.800781 6.628906 -4.800781 L 7.042969 -4.800781 C 7.902344 -4.800781 8.527344 -4.550781 8.527344 -3.707031 C 8.527344 -2.902344 8.027344 -2.542969 7.148438 -2.542969 Z M 7.148438 -2.542969 "/></g></g></g><g fill="rgb(0%, 0%, 0%)" fill-opacity="1"><g transform="translate(160.208927, 247.784745)"><g><path d="M 11.46875 -0.5 L 7.507812 -11.234375 C 7.347656 -11.609375 7.167969 -11.789062 6.773438 -11.789062 L 5.054688 -11.789062 C 4.660156 -11.789062 4.460938 -11.609375 4.316406 -11.234375 L 0.339844 -0.5 C 0.25 -0.285156 0.25 0 0.644531 0 L 2.527344 0 C 2.921875 0 3.0625 -0.109375 3.207031 -0.539062 L 3.707031 -1.953125 L 8.097656 -1.953125 L 8.601562 -0.539062 C 8.742188 -0.109375 8.886719 0 9.28125 0 L 11.164062 0 C 11.558594 0 11.558594 -0.285156 11.46875 -0.5 Z M 5.914062 -8.421875 L 7.257812 -4.460938 L 4.570312 -4.460938 Z M 5.914062 -8.421875 "/></g></g></g><g fill="rgb(0%, 0%, 0%)" fill-opacity="1"><g transform="translate(174.30343, 247.784745)"><g><path d="M 10.410156 -3.492188 C 10.410156 -3.925781 10.265625 -4.101562 9.871094 -4.101562 L 8.117188 -4.101562 C 7.722656 -4.101562 7.6875 -3.816406 7.632812 -3.457031 C 7.488281 -2.597656 6.71875 -2.238281 5.75 -2.238281 C 4.570312 -2.238281 3.761719 -2.882812 3.761719 -4.03125 L 3.761719 -7.757812 C 3.761719 -8.886719 4.570312 -9.550781 5.75 -9.550781 C 6.71875 -9.550781 7.222656 -9.28125 7.597656 -8.691406 C 7.742188 -8.476562 7.757812 -8.132812 8.132812 -8.132812 L 9.855469 -8.132812 C 10.265625 -8.132812 10.410156 -8.222656 10.410156 -8.652344 C 10.175781 -10.929688 7.972656 -12.058594 5.75 -12.058594 C 3.621094 -12.058594 0.949219 -10.820312 0.949219 -8.007812 L 0.949219 -3.78125 C 0.949219 -0.96875 3.621094 0.269531 5.75 0.269531 C 7.972656 0.269531 10.410156 -1.183594 10.410156 -3.492188 Z M 10.410156 -3.492188 "/></g></g></g><g fill="rgb(0%, 0%, 0%)" fill-opacity="1"><g transform="translate(187.986094, 247.784745)"><g><path d="M 9.300781 -11.789062 L 0.984375 -11.789062 C 0.574219 -11.789062 0.464844 -11.59375 0.464844 -11.269531 L 0.464844 -9.78125 C 0.464844 -9.460938 0.574219 -9.261719 0.984375 -9.261719 L 3.746094 -9.261719 L 3.746094 -0.519531 C 3.746094 -0.109375 3.941406 0 4.265625 0 L 6.039062 0 C 6.359375 0 6.558594 -0.109375 6.558594 -0.519531 L 6.558594 -9.261719 L 9.300781 -9.261719 C 9.710938 -9.261719 9.820312 -9.460938 9.820312 -9.78125 L 9.820312 -11.269531 C 9.820312 -11.59375 9.710938 -11.789062 9.300781 -11.789062 Z M 9.300781 -11.789062 "/></g></g></g><g fill="rgb(0%, 0%, 0%)" fill-opacity="1"><g transform="translate(200.630196, 247.784745)"><g><path d="M 4.550781 -12.828125 L 6.308594 -12.828125 C 6.753906 -12.828125 6.898438 -13.078125 7.148438 -13.332031 L 8.941406 -15.265625 C 9.101562 -15.425781 9.046875 -15.765625 8.601562 -15.765625 L 6.324219 -15.765625 C 5.929688 -15.765625 5.789062 -15.714844 5.519531 -15.265625 L 4.316406 -13.332031 C 4.210938 -13.167969 4.210938 -12.828125 4.550781 -12.828125 Z M 9.871094 -2.507812 L 4.15625 -2.507812 L 4.15625 -4.875 L 8.957031 -4.875 C 9.371094 -4.875 9.476562 -5.070312 9.476562 -5.394531 L 9.476562 -6.789062 C 9.476562 -7.113281 9.371094 -7.308594 8.957031 -7.308594 L 4.15625 -7.308594 L 4.15625 -9.261719 L 9.566406 -9.261719 C 9.980469 -9.261719 10.085938 -9.460938 10.085938 -9.78125 L 10.085938 -11.269531 C 10.085938 -11.59375 9.980469 -11.789062 9.566406 -11.789062 L 1.84375 -11.789062 C 1.433594 -11.789062 1.324219 -11.59375 1.324219 -11.269531 L 1.324219 -0.519531 C 1.324219 -0.195312 1.433594 0 1.84375 0 L 9.871094 0 C 10.285156 0 10.390625 -0.195312 10.390625 -0.519531 L 10.390625 -1.988281 C 10.390625 -2.3125 10.285156 -2.507812 9.871094 -2.507812 Z M 9.871094 -2.507812 "/></g></g></g><g fill="rgb(0%, 0%, 0%)" fill-opacity="1"><g transform="translate(214.223321, 247.784745)"><g><path d="M 10.984375 -0.574219 L 8.457031 -4.246094 C 9.566406 -4.621094 10.949219 -5.929688 10.949219 -7.8125 C 10.949219 -8.957031 10.570312 -9.980469 9.910156 -10.625 C 9.15625 -11.378906 8.296875 -11.773438 6.34375 -11.773438 L 1.828125 -11.773438 C 1.414062 -11.773438 1.324219 -11.574219 1.324219 -11.253906 L 1.324219 -0.519531 C 1.324219 -0.109375 1.503906 0 1.828125 0 L 3.601562 0 C 3.925781 0 4.121094 -0.109375 4.121094 -0.519531 L 4.121094 -9.261719 L 6.503906 -9.261719 C 7.4375 -9.261719 8.152344 -8.671875 8.152344 -7.742188 C 8.152344 -6.898438 7.328125 -6.289062 6.449219 -6.289062 L 6.09375 -6.289062 C 5.679688 -6.289062 5.574219 -6.09375 5.574219 -5.769531 L 5.574219 -4.335938 C 5.574219 -3.835938 5.609375 -3.636719 5.769531 -3.421875 L 7.703125 -0.539062 C 7.957031 -0.160156 8.171875 0 8.601562 0 L 10.714844 0 C 11.054688 0 11.144531 -0.324219 10.984375 -0.574219 Z M 10.984375 -0.574219 "/></g></g></g><g fill="rgb(0%, 0%, 0%)" fill-opacity="1"><g transform="translate(228.514788, 247.784745)"><g><path d="M 6.449219 -2.453125 L 5.320312 -2.453125 L 5.320312 -9.300781 L 6.398438 -9.300781 C 6.808594 -9.300781 6.917969 -9.496094 6.917969 -9.820312 L 6.917969 -11.269531 C 6.917969 -11.59375 6.808594 -11.789062 6.398438 -11.789062 L 1.414062 -11.789062 C 1.003906 -11.789062 0.894531 -11.59375 0.894531 -11.269531 L 0.894531 -9.820312 C 0.894531 -9.496094 1.003906 -9.300781 1.414062 -9.300781 L 2.507812 -9.300781 L 2.507812 -2.453125 L 1.378906 -2.453125 C 0.96875 -2.453125 0.859375 -2.257812 0.859375 -1.933594 L 0.859375 -0.519531 C 0.859375 -0.195312 0.96875 0 1.378906 0 L 6.449219 0 C 6.863281 0 6.96875 -0.195312 6.96875 -0.519531 L 6.96875 -1.933594 C 6.96875 -2.257812 6.863281 -2.453125 6.449219 -2.453125 Z M 6.449219 -2.453125 "/></g></g></g><g fill="rgb(0%, 0%, 0%)" fill-opacity="1"><g transform="translate(238.83107, 247.784745)"><g><path d="M 11.46875 -0.5 L 7.507812 -11.234375 C 7.347656 -11.609375 7.167969 -11.789062 6.773438 -11.789062 L 5.054688 -11.789062 C 4.660156 -11.789062 4.460938 -11.609375 4.316406 -11.234375 L 0.339844 -0.5 C 0.25 -0.285156 0.25 0 0.644531 0 L 2.527344 0 C 2.921875 0 3.0625 -0.109375 3.207031 -0.539062 L 3.707031 -1.953125 L 8.097656 -1.953125 L 8.601562 -0.539062 C 8.742188 -0.109375 8.886719 0 9.28125 0 L 11.164062 0 C 11.558594 0 11.558594 -0.285156 11.46875 -0.5 Z M 5.914062 -8.421875 L 7.257812 -4.460938 L 4.570312 -4.460938 Z M 5.914062 -8.421875 "/></g></g></g><g fill="rgb(0%, 0%, 0%)" fill-opacity="1"><g transform="translate(252.925573, 247.784745)"><g><path d="M 6.878906 -6.84375 C 6.164062 -7.132812 3.53125 -7.523438 3.53125 -8.617188 C 3.53125 -9.425781 4.515625 -9.65625 5.105469 -9.65625 C 5.644531 -9.65625 6.289062 -9.496094 6.628906 -9.171875 C 6.84375 -8.957031 6.933594 -8.816406 7.003906 -8.636719 C 7.09375 -8.402344 7.148438 -8.152344 7.488281 -8.152344 L 9.246094 -8.152344 C 9.65625 -8.152344 9.765625 -8.222656 9.765625 -8.652344 C 9.765625 -11.019531 7.273438 -12.058594 5 -12.058594 C 2.757812 -11.96875 0.644531 -10.820312 0.644531 -8.492188 C 0.644531 -6.21875 2.3125 -5.5 4.121094 -4.925781 C 5.644531 -4.445312 7.238281 -4.425781 7.238281 -3.421875 C 7.238281 -2.417969 6.449219 -2.203125 5.484375 -2.203125 C 4.820312 -2.203125 4.085938 -2.363281 3.726562 -2.796875 C 3.492188 -3.0625 3.40625 -3.296875 3.386719 -3.53125 C 3.351562 -3.976562 3.152344 -4.03125 2.742188 -4.03125 L 1.003906 -4.03125 C 0.589844 -4.03125 0.484375 -3.941406 0.484375 -3.53125 C 0.484375 -1.019531 3.0625 0.269531 5.304688 0.269531 C 8.0625 0.269531 10.070312 -0.949219 10.070312 -3.492188 C 10.070312 -5.929688 8.171875 -6.449219 6.878906 -6.84375 Z M 6.878906 -6.84375 "/></g></g></g><g fill="rgb(0%, 0%, 0%)" fill-opacity="1"><g transform="translate(266.124764, 247.784745)"><g><path d="M 3.691406 -3.027344 L 1.703125 -3.027344 C 1.378906 -3.027344 1.183594 -2.921875 1.183594 -2.507812 L 1.183594 -0.519531 C 1.183594 -0.109375 1.378906 0 1.703125 0 L 2.238281 0 L 1.253906 1.84375 C 1.128906 2.078125 1.199219 2.347656 1.433594 2.347656 L 2.582031 2.347656 C 2.8125 2.347656 2.9375 2.238281 3.0625 2.023438 L 4.085938 -0.0546875 C 4.191406 -0.339844 4.210938 -0.5 4.210938 -0.894531 L 4.210938 -2.507812 C 4.210938 -2.921875 4.011719 -3.027344 3.691406 -3.027344 Z M 3.691406 -3.027344 "/></g></g></g><g fill="rgb(0%, 0%, 0%)" fill-opacity="1"><g transform="translate(273.880448, 247.784745)"><g/></g></g><g fill="rgb(0%, 0%, 0%)" fill-opacity="1"><g transform="translate(281.098946, 247.784745)"><g><path d="M 10.734375 -11.789062 L 8.832031 -11.789062 C 8.347656 -11.789062 8.222656 -11.644531 8.082031 -11.214844 L 5.660156 -3.796875 L 3.226562 -11.214844 C 3.082031 -11.644531 2.957031 -11.789062 2.492188 -11.789062 L 0.5 -11.789062 C 0.160156 -11.789062 0.0898438 -11.503906 0.179688 -11.269531 L 4.03125 -0.539062 C 4.246094 -0.0703125 4.371094 0 4.765625 0 L 6.484375 0 C 6.878906 0 7.003906 -0.0703125 7.222656 -0.539062 L 11.054688 -11.269531 C 11.144531 -11.503906 11.074219 -11.789062 10.734375 -11.789062 Z M 10.734375 -11.789062 "/></g></g></g><g fill="rgb(0%, 0%, 0%)" fill-opacity="1"><g transform="translate(294.853233, 247.784745)"><g><path d="M 3.1875 -12.828125 L 4.945312 -12.828125 C 5.394531 -12.828125 5.535156 -13.078125 5.789062 -13.332031 L 7.578125 -15.265625 C 7.742188 -15.425781 7.6875 -15.765625 7.238281 -15.765625 L 4.964844 -15.765625 C 4.570312 -15.765625 4.425781 -15.714844 4.15625 -15.265625 L 2.957031 -13.332031 C 2.847656 -13.167969 2.847656 -12.828125 3.1875 -12.828125 Z M 7.09375 -2.507812 L 5.714844 -2.507812 L 5.714844 -9.28125 L 6.789062 -9.28125 C 7.203125 -9.28125 7.308594 -9.476562 7.308594 -9.800781 L 7.308594 -11.269531 C 7.308594 -11.59375 7.203125 -11.789062 6.789062 -11.789062 L 1.808594 -11.789062 C 1.398438 -11.789062 1.289062 -11.59375 1.289062 -11.269531 L 1.289062 -9.800781 C 1.289062 -9.476562 1.398438 -9.28125 1.808594 -9.28125 L 2.902344 -9.28125 L 2.902344 -2.507812 L 1.523438 -2.507812 C 1.109375 -2.507812 1.003906 -2.3125 1.003906 -1.988281 L 1.003906 -0.519531 C 1.003906 -0.195312 1.109375 0 1.523438 0 L 7.09375 0 C 7.507812 0 7.613281 -0.195312 7.613281 -0.519531 L 7.613281 -1.988281 C 7.613281 -2.3125 7.507812 -2.507812 7.09375 -2.507812 Z M 7.09375 -2.507812 "/></g></g></g><g fill="rgb(0%, 0%, 0%)" fill-opacity="1"><g transform="translate(305.885772, 247.784745)"><g><path d="M 10.984375 -0.574219 L 8.457031 -4.246094 C 9.566406 -4.621094 10.949219 -5.929688 10.949219 -7.8125 C 10.949219 -8.957031 10.570312 -9.980469 9.910156 -10.625 C 9.15625 -11.378906 8.296875 -11.773438 6.34375 -11.773438 L 1.828125 -11.773438 C 1.414062 -11.773438 1.324219 -11.574219 1.324219 -11.253906 L 1.324219 -0.519531 C 1.324219 -0.109375 1.503906 0 1.828125 0 L 3.601562 0 C 3.925781 0 4.121094 -0.109375 4.121094 -0.519531 L 4.121094 -9.261719 L 6.503906 -9.261719 C 7.4375 -9.261719 8.152344 -8.671875 8.152344 -7.742188 C 8.152344 -6.898438 7.328125 -6.289062 6.449219 -6.289062 L 6.09375 -6.289062 C 5.679688 -6.289062 5.574219 -6.09375 5.574219 -5.769531 L 5.574219 -4.335938 C 5.574219 -3.835938 5.609375 -3.636719 5.769531 -3.421875 L 7.703125 -0.539062 C 7.957031 -0.160156 8.171875 0 8.601562 0 L 10.714844 0 C 11.054688 0 11.144531 -0.324219 10.984375 -0.574219 Z M 10.984375 -0.574219 "/></g></g></g><g fill="rgb(0%, 0%, 0%)" fill-opacity="1"><g transform="translate(320.177245, 247.784745)"><g><path d="M 10.140625 -11.789062 L 8.367188 -11.789062 C 8.046875 -11.789062 7.847656 -11.683594 7.847656 -11.269531 L 7.847656 -3.996094 C 7.847656 -2.867188 7.09375 -2.222656 5.914062 -2.222656 C 4.730469 -2.222656 3.996094 -2.867188 3.996094 -3.996094 L 3.996094 -11.269531 C 3.996094 -11.683594 3.796875 -11.789062 3.476562 -11.789062 L 1.703125 -11.789062 C 1.378906 -11.789062 1.183594 -11.683594 1.183594 -11.269531 L 1.183594 -3.601562 C 1.183594 -0.789062 3.78125 0.269531 5.914062 0.269531 C 8.046875 0.269531 10.660156 -0.789062 10.660156 -3.601562 L 10.660156 -11.269531 C 10.660156 -11.683594 10.464844 -11.789062 10.140625 -11.789062 Z M 10.140625 -11.789062 "/></g></g></g><g fill="rgb(0%, 0%, 0%)" fill-opacity="1"><g transform="translate(334.379179, 247.784745)"><g><path d="M 6.878906 -6.84375 C 6.164062 -7.132812 3.53125 -7.523438 3.53125 -8.617188 C 3.53125 -9.425781 4.515625 -9.65625 5.105469 -9.65625 C 5.644531 -9.65625 6.289062 -9.496094 6.628906 -9.171875 C 6.84375 -8.957031 6.933594 -8.816406 7.003906 -8.636719 C 7.09375 -8.402344 7.148438 -8.152344 7.488281 -8.152344 L 9.246094 -8.152344 C 9.65625 -8.152344 9.765625 -8.222656 9.765625 -8.652344 C 9.765625 -11.019531 7.273438 -12.058594 5 -12.058594 C 2.757812 -11.96875 0.644531 -10.820312 0.644531 -8.492188 C 0.644531 -6.21875 2.3125 -5.5 4.121094 -4.925781 C 5.644531 -4.445312 7.238281 -4.425781 7.238281 -3.421875 C 7.238281 -2.417969 6.449219 -2.203125 5.484375 -2.203125 C 4.820312 -2.203125 4.085938 -2.363281 3.726562 -2.796875 C 3.492188 -3.0625 3.40625 -3.296875 3.386719 -3.53125 C 3.351562 -3.976562 3.152344 -4.03125 2.742188 -4.03125 L 1.003906 -4.03125 C 0.589844 -4.03125 0.484375 -3.941406 0.484375 -3.53125 C 0.484375 -1.019531 3.0625 0.269531 5.304688 0.269531 C 8.0625 0.269531 10.070312 -0.949219 10.070312 -3.492188 C 10.070312 -5.929688 8.171875 -6.449219 6.878906 -6.84375 Z M 6.878906 -6.84375 "/></g></g></g><g fill="rgb(0%, 0%, 0%)" fill-opacity="1"><g transform="translate(347.578358, 247.784745)"><g/></g></g><g fill="rgb(0%, 0%, 0%)" fill-opacity="1"><g transform="translate(354.796856, 247.784745)"><g><path d="M 9.871094 -2.507812 L 4.15625 -2.507812 L 4.15625 -4.875 L 8.957031 -4.875 C 9.371094 -4.875 9.476562 -5.070312 9.476562 -5.394531 L 9.476562 -6.789062 C 9.476562 -7.113281 9.371094 -7.308594 8.957031 -7.308594 L 4.15625 -7.308594 L 4.15625 -9.261719 L 9.566406 -9.261719 C 9.980469 -9.261719 10.085938 -9.460938 10.085938 -9.78125 L 10.085938 -11.269531 C 10.085938 -11.59375 9.980469 -11.789062 9.566406 -11.789062 L 1.84375 -11.789062 C 1.433594 -11.789062 1.324219 -11.59375 1.324219 -11.269531 L 1.324219 -0.519531 C 1.324219 -0.195312 1.433594 0 1.84375 0 L 9.871094 0 C 10.285156 0 10.390625 -0.195312 10.390625 -0.519531 L 10.390625 -1.988281 C 10.390625 -2.3125 10.285156 -2.507812 9.871094 -2.507812 Z M 9.871094 -2.507812 "/></g></g></g><g fill="rgb(0%, 0%, 0%)" fill-opacity="1"><g transform="translate(368.389988, 247.784745)"><g/></g></g><g fill="rgb(0%, 0%, 0%)" fill-opacity="1"><g transform="translate(375.608486, 247.784745)"><g><path d="M 10.589844 -3.78125 L 10.589844 -8.007812 C 10.589844 -10.839844 7.902344 -12.058594 5.769531 -12.058594 C 3.636719 -12.058594 0.984375 -10.839844 0.984375 -8.007812 L 0.984375 -3.78125 C 0.984375 -0.949219 3.636719 0.269531 5.769531 0.269531 C 7.902344 0.269531 10.589844 -0.949219 10.589844 -3.78125 Z M 7.777344 -7.757812 L 7.777344 -4.03125 C 7.777344 -2.882812 6.953125 -2.222656 5.769531 -2.222656 C 4.605469 -2.222656 3.78125 -2.882812 3.78125 -4.03125 L 3.78125 -7.757812 C 3.78125 -8.90625 4.605469 -9.566406 5.769531 -9.566406 C 6.953125 -9.566406 7.777344 -8.90625 7.777344 -7.757812 Z M 7.777344 -7.757812 "/></g></g></g><g fill="rgb(0%, 0%, 0%)" fill-opacity="1"><g transform="translate(389.523929, 247.784745)"><g><path d="M 10.140625 -11.789062 L 8.367188 -11.789062 C 8.046875 -11.789062 7.847656 -11.683594 7.847656 -11.269531 L 7.847656 -3.996094 C 7.847656 -2.867188 7.09375 -2.222656 5.914062 -2.222656 C 4.730469 -2.222656 3.996094 -2.867188 3.996094 -3.996094 L 3.996094 -11.269531 C 3.996094 -11.683594 3.796875 -11.789062 3.476562 -11.789062 L 1.703125 -11.789062 C 1.378906 -11.789062 1.183594 -11.683594 1.183594 -11.269531 L 1.183594 -3.601562 C 1.183594 -0.789062 3.78125 0.269531 5.914062 0.269531 C 8.046875 0.269531 10.660156 -0.789062 10.660156 -3.601562 L 10.660156 -11.269531 C 10.660156 -11.683594 10.464844 -11.789062 10.140625 -11.789062 Z M 10.140625 -11.789062 "/></g></g></g><g fill="rgb(0%, 0%, 0%)" fill-opacity="1"><g transform="translate(403.725863, 247.784745)"><g><path d="M 9.300781 -11.789062 L 0.984375 -11.789062 C 0.574219 -11.789062 0.464844 -11.59375 0.464844 -11.269531 L 0.464844 -9.78125 C 0.464844 -9.460938 0.574219 -9.261719 0.984375 -9.261719 L 3.746094 -9.261719 L 3.746094 -0.519531 C 3.746094 -0.109375 3.941406 0 4.265625 0 L 6.039062 0 C 6.359375 0 6.558594 -0.109375 6.558594 -0.519531 L 6.558594 -9.261719 L 9.300781 -9.261719 C 9.710938 -9.261719 9.820312 -9.460938 9.820312 -9.78125 L 9.820312 -11.269531 C 9.820312 -11.59375 9.710938 -11.789062 9.300781 -11.789062 Z M 9.300781 -11.789062 "/></g></g></g><g fill="rgb(0%, 0%, 0%)" fill-opacity="1"><g transform="translate(416.369959, 247.784745)"><g><path d="M 10.984375 -0.574219 L 8.457031 -4.246094 C 9.566406 -4.621094 10.949219 -5.929688 10.949219 -7.8125 C 10.949219 -8.957031 10.570312 -9.980469 9.910156 -10.625 C 9.15625 -11.378906 8.296875 -11.773438 6.34375 -11.773438 L 1.828125 -11.773438 C 1.414062 -11.773438 1.324219 -11.574219 1.324219 -11.253906 L 1.324219 -0.519531 C 1.324219 -0.109375 1.503906 0 1.828125 0 L 3.601562 0 C 3.925781 0 4.121094 -0.109375 4.121094 -0.519531 L 4.121094 -9.261719 L 6.503906 -9.261719 C 7.4375 -9.261719 8.152344 -8.671875 8.152344 -7.742188 C 8.152344 -6.898438 7.328125 -6.289062 6.449219 -6.289062 L 6.09375 -6.289062 C 5.679688 -6.289062 5.574219 -6.09375 5.574219 -5.769531 L 5.574219 -4.335938 C 5.574219 -3.835938 5.609375 -3.636719 5.769531 -3.421875 L 7.703125 -0.539062 C 7.957031 -0.160156 8.171875 0 8.601562 0 L 10.714844 0 C 11.054688 0 11.144531 -0.324219 10.984375 -0.574219 Z M 10.984375 -0.574219 "/></g></g></g><g fill="rgb(0%, 0%, 0%)" fill-opacity="1"><g transform="translate(430.661432, 247.784745)"><g><path d="M 10.589844 -3.78125 L 10.589844 -8.007812 C 10.589844 -10.839844 7.902344 -12.058594 5.769531 -12.058594 C 3.636719 -12.058594 0.984375 -10.839844 0.984375 -8.007812 L 0.984375 -3.78125 C 0.984375 -0.949219 3.636719 0.269531 5.769531 0.269531 C 7.902344 0.269531 10.589844 -0.949219 10.589844 -3.78125 Z M 7.777344 -7.757812 L 7.777344 -4.03125 C 7.777344 -2.882812 6.953125 -2.222656 5.769531 -2.222656 C 4.605469 -2.222656 3.78125 -2.882812 3.78125 -4.03125 L 3.78125 -7.757812 C 3.78125 -8.90625 4.605469 -9.566406 5.769531 -9.566406 C 6.953125 -9.566406 7.777344 -8.90625 7.777344 -7.757812 Z M 7.777344 -7.757812 "/></g></g></g><g fill="rgb(0%, 0%, 0%)" fill-opacity="1"><g transform="translate(444.576875, 247.784745)"><g><path d="M 6.878906 -6.84375 C 6.164062 -7.132812 3.53125 -7.523438 3.53125 -8.617188 C 3.53125 -9.425781 4.515625 -9.65625 5.105469 -9.65625 C 5.644531 -9.65625 6.289062 -9.496094 6.628906 -9.171875 C 6.84375 -8.957031 6.933594 -8.816406 7.003906 -8.636719 C 7.09375 -8.402344 7.148438 -8.152344 7.488281 -8.152344 L 9.246094 -8.152344 C 9.65625 -8.152344 9.765625 -8.222656 9.765625 -8.652344 C 9.765625 -11.019531 7.273438 -12.058594 5 -12.058594 C 2.757812 -11.96875 0.644531 -10.820312 0.644531 -8.492188 C 0.644531 -6.21875 2.3125 -5.5 4.121094 -4.925781 C 5.644531 -4.445312 7.238281 -4.425781 7.238281 -3.421875 C 7.238281 -2.417969 6.449219 -2.203125 5.484375 -2.203125 C 4.820312 -2.203125 4.085938 -2.363281 3.726562 -2.796875 C 3.492188 -3.0625 3.40625 -3.296875 3.386719 -3.53125 C 3.351562 -3.976562 3.152344 -4.03125 2.742188 -4.03125 L 1.003906 -4.03125 C 0.589844 -4.03125 0.484375 -3.941406 0.484375 -3.53125 C 0.484375 -1.019531 3.0625 0.269531 5.304688 0.269531 C 8.0625 0.269531 10.070312 -0.949219 10.070312 -3.492188 C 10.070312 -5.929688 8.171875 -6.449219 6.878906 -6.84375 Z M 6.878906 -6.84375 "/></g></g></g><g fill="rgb(0%, 0%, 0%)" fill-opacity="1"><g transform="translate(188.666417, 272.534744)"><g><path d="M 11.898438 -11.808594 L 10.175781 -11.808594 C 9.585938 -11.808594 9.496094 -11.414062 9.371094 -11.199219 L 6.898438 -6.789062 L 4.445312 -11.199219 C 4.300781 -11.414062 4.230469 -11.808594 3.621094 -11.808594 L 1.84375 -11.808594 C 1.433594 -11.808594 1.324219 -11.609375 1.324219 -11.289062 L 1.324219 -0.519531 C 1.324219 -0.109375 1.523438 0 1.84375 0 L 3.621094 0 C 3.941406 0 4.140625 -0.109375 4.140625 -0.519531 L 4.140625 -6.59375 L 5.949219 -3.457031 C 6.039062 -3.316406 6.179688 -3.082031 6.449219 -3.082031 L 7.347656 -3.082031 C 7.613281 -3.082031 7.777344 -3.316406 7.867188 -3.457031 L 9.65625 -6.59375 L 9.65625 -0.519531 C 9.65625 -0.109375 9.855469 0 10.175781 0 L 11.898438 0 C 12.21875 0 12.417969 -0.109375 12.417969 -0.519531 L 12.417969 -11.289062 C 12.417969 -11.609375 12.308594 -11.808594 11.898438 -11.808594 Z M 11.898438 -11.808594 "/></g></g></g><g fill="rgb(0%, 0%, 0%)" fill-opacity="1"><g transform="translate(204.766416, 272.534744)"><g><path d="M 6.449219 -2.453125 L 5.320312 -2.453125 L 5.320312 -9.300781 L 6.398438 -9.300781 C 6.808594 -9.300781 6.917969 -9.496094 6.917969 -9.820312 L 6.917969 -11.269531 C 6.917969 -11.59375 6.808594 -11.789062 6.398438 -11.789062 L 1.414062 -11.789062 C 1.003906 -11.789062 0.894531 -11.59375 0.894531 -11.269531 L 0.894531 -9.820312 C 0.894531 -9.496094 1.003906 -9.300781 1.414062 -9.300781 L 2.507812 -9.300781 L 2.507812 -2.453125 L 1.378906 -2.453125 C 0.96875 -2.453125 0.859375 -2.257812 0.859375 -1.933594 L 0.859375 -0.519531 C 0.859375 -0.195312 0.96875 0 1.378906 0 L 6.449219 0 C 6.863281 0 6.96875 -0.195312 6.96875 -0.519531 L 6.96875 -1.933594 C 6.96875 -2.257812 6.863281 -2.453125 6.449219 -2.453125 Z M 6.449219 -2.453125 "/></g></g></g><g fill="rgb(0%, 0%, 0%)" fill-opacity="1"><g transform="translate(215.082698, 272.534744)"><g><path d="M 10.410156 -3.492188 C 10.410156 -3.925781 10.265625 -4.101562 9.871094 -4.101562 L 8.117188 -4.101562 C 7.722656 -4.101562 7.6875 -3.816406 7.632812 -3.457031 C 7.488281 -2.597656 6.71875 -2.238281 5.75 -2.238281 C 4.570312 -2.238281 3.761719 -2.882812 3.761719 -4.03125 L 3.761719 -7.757812 C 3.761719 -8.886719 4.570312 -9.550781 5.75 -9.550781 C 6.71875 -9.550781 7.222656 -9.28125 7.597656 -8.691406 C 7.742188 -8.476562 7.757812 -8.132812 8.132812 -8.132812 L 9.855469 -8.132812 C 10.265625 -8.132812 10.410156 -8.222656 10.410156 -8.652344 C 10.175781 -10.929688 7.972656 -12.058594 5.75 -12.058594 C 3.621094 -12.058594 0.949219 -10.820312 0.949219 -8.007812 L 0.949219 -3.78125 C 0.949219 -0.96875 3.621094 0.269531 5.75 0.269531 C 7.972656 0.269531 10.410156 -1.183594 10.410156 -3.492188 Z M 10.410156 -3.492188 "/></g></g></g><g fill="rgb(0%, 0%, 0%)" fill-opacity="1"><g transform="translate(228.765362, 272.534744)"><g><path d="M 10.984375 -0.574219 L 8.457031 -4.246094 C 9.566406 -4.621094 10.949219 -5.929688 10.949219 -7.8125 C 10.949219 -8.957031 10.570312 -9.980469 9.910156 -10.625 C 9.15625 -11.378906 8.296875 -11.773438 6.34375 -11.773438 L 1.828125 -11.773438 C 1.414062 -11.773438 1.324219 -11.574219 1.324219 -11.253906 L 1.324219 -0.519531 C 1.324219 -0.109375 1.503906 0 1.828125 0 L 3.601562 0 C 3.925781 0 4.121094 -0.109375 4.121094 -0.519531 L 4.121094 -9.261719 L 6.503906 -9.261719 C 7.4375 -9.261719 8.152344 -8.671875 8.152344 -7.742188 C 8.152344 -6.898438 7.328125 -6.289062 6.449219 -6.289062 L 6.09375 -6.289062 C 5.679688 -6.289062 5.574219 -6.09375 5.574219 -5.769531 L 5.574219 -4.335938 C 5.574219 -3.835938 5.609375 -3.636719 5.769531 -3.421875 L 7.703125 -0.539062 C 7.957031 -0.160156 8.171875 0 8.601562 0 L 10.714844 0 C 11.054688 0 11.144531 -0.324219 10.984375 -0.574219 Z M 10.984375 -0.574219 "/></g></g></g><g fill="rgb(0%, 0%, 0%)" fill-opacity="1"><g transform="translate(243.056829, 272.534744)"><g><path d="M 10.589844 -3.78125 L 10.589844 -8.007812 C 10.589844 -10.839844 7.902344 -12.058594 5.769531 -12.058594 C 3.636719 -12.058594 0.984375 -10.839844 0.984375 -8.007812 L 0.984375 -3.78125 C 0.984375 -0.949219 3.636719 0.269531 5.769531 0.269531 C 7.902344 0.269531 10.589844 -0.949219 10.589844 -3.78125 Z M 7.777344 -7.757812 L 7.777344 -4.03125 C 7.777344 -2.882812 6.953125 -2.222656 5.769531 -2.222656 C 4.605469 -2.222656 3.78125 -2.882812 3.78125 -4.03125 L 3.78125 -7.757812 C 3.78125 -8.90625 4.605469 -9.566406 5.769531 -9.566406 C 6.953125 -9.566406 7.777344 -8.90625 7.777344 -7.757812 Z M 7.777344 -7.757812 "/></g></g></g><g fill="rgb(0%, 0%, 0%)" fill-opacity="1"><g transform="translate(256.972266, 272.534744)"><g><path d="M 10.984375 -0.574219 L 8.457031 -4.246094 C 9.566406 -4.621094 10.949219 -5.929688 10.949219 -7.8125 C 10.949219 -8.957031 10.570312 -9.980469 9.910156 -10.625 C 9.15625 -11.378906 8.296875 -11.773438 6.34375 -11.773438 L 1.828125 -11.773438 C 1.414062 -11.773438 1.324219 -11.574219 1.324219 -11.253906 L 1.324219 -0.519531 C 1.324219 -0.109375 1.503906 0 1.828125 0 L 3.601562 0 C 3.925781 0 4.121094 -0.109375 4.121094 -0.519531 L 4.121094 -9.261719 L 6.503906 -9.261719 C 7.4375 -9.261719 8.152344 -8.671875 8.152344 -7.742188 C 8.152344 -6.898438 7.328125 -6.289062 6.449219 -6.289062 L 6.09375 -6.289062 C 5.679688 -6.289062 5.574219 -6.09375 5.574219 -5.769531 L 5.574219 -4.335938 C 5.574219 -3.835938 5.609375 -3.636719 5.769531 -3.421875 L 7.703125 -0.539062 C 7.957031 -0.160156 8.171875 0 8.601562 0 L 10.714844 0 C 11.054688 0 11.144531 -0.324219 10.984375 -0.574219 Z M 10.984375 -0.574219 "/></g></g></g><g fill="rgb(0%, 0%, 0%)" fill-opacity="1"><g transform="translate(271.263733, 272.534744)"><g><path d="M 10.085938 -6.574219 L 6.164062 -6.574219 C 5.75 -6.574219 5.644531 -6.378906 5.644531 -6.054688 L 5.644531 -4.660156 C 5.644531 -4.335938 5.75 -4.140625 6.164062 -4.140625 L 7.777344 -4.140625 C 7.777344 -2.757812 6.953125 -2.222656 5.789062 -2.222656 C 4.605469 -2.222656 3.816406 -2.882812 3.816406 -4.03125 L 3.816406 -7.632812 C 3.816406 -8.78125 4.605469 -9.566406 5.789062 -9.566406 C 6.988281 -9.566406 7.632812 -9.03125 7.828125 -8.476562 C 7.917969 -8.222656 7.847656 -7.867188 8.347656 -7.867188 L 10.085938 -7.867188 C 10.5 -7.867188 10.605469 -7.9375 10.605469 -8.367188 C 10.605469 -10.769531 8.027344 -12.058594 5.789062 -12.058594 C 3.671875 -12.058594 0.96875 -10.859375 0.96875 -8.027344 L 0.96875 -3.621094 C 0.96875 -0.804688 3.671875 0.269531 5.789062 0.269531 C 7.828125 0.269531 10.445312 -0.878906 10.605469 -3.457031 L 10.605469 -6.054688 C 10.605469 -6.378906 10.5 -6.574219 10.085938 -6.574219 Z M 10.085938 -6.574219 "/></g></g></g><g fill="rgb(0%, 0%, 0%)" fill-opacity="1"><g transform="translate(285.197074, 272.534744)"><g><path d="M 11.46875 -0.5 L 7.507812 -11.234375 C 7.347656 -11.609375 7.167969 -11.789062 6.773438 -11.789062 L 5.054688 -11.789062 C 4.660156 -11.789062 4.460938 -11.609375 4.316406 -11.234375 L 0.339844 -0.5 C 0.25 -0.285156 0.25 0 0.644531 0 L 2.527344 0 C 2.921875 0 3.0625 -0.109375 3.207031 -0.539062 L 3.707031 -1.953125 L 8.097656 -1.953125 L 8.601562 -0.539062 C 8.742188 -0.109375 8.886719 0 9.28125 0 L 11.164062 0 C 11.558594 0 11.558594 -0.285156 11.46875 -0.5 Z M 5.914062 -8.421875 L 7.257812 -4.460938 L 4.570312 -4.460938 Z M 5.914062 -8.421875 "/></g></g></g><g fill="rgb(0%, 0%, 0%)" fill-opacity="1"><g transform="translate(299.291572, 272.534744)"><g><path d="M 10.375 -11.789062 L 8.652344 -11.789062 C 8.332031 -11.789062 8.132812 -11.683594 8.132812 -11.269531 L 8.132812 -5.054688 L 4.335938 -11.179688 C 4.101562 -11.539062 3.976562 -11.789062 3.53125 -11.789062 L 1.84375 -11.789062 C 1.433594 -11.789062 1.324219 -11.59375 1.324219 -11.269531 L 1.324219 -0.519531 C 1.324219 -0.109375 1.523438 0 1.84375 0 L 3.621094 0 C 3.941406 0 4.140625 -0.109375 4.140625 -0.519531 L 4.140625 -6.753906 L 7.9375 -0.609375 C 8.171875 -0.25 8.296875 0 8.742188 0 L 10.375 0 C 10.785156 0 10.894531 -0.195312 10.894531 -0.519531 L 10.894531 -11.269531 C 10.894531 -11.683594 10.695312 -11.789062 10.375 -11.789062 Z M 10.375 -11.789062 "/></g></g></g><g fill="rgb(0%, 0%, 0%)" fill-opacity="1"><g transform="translate(313.869536, 272.534744)"><g><path d="M 6.449219 -2.453125 L 5.320312 -2.453125 L 5.320312 -9.300781 L 6.398438 -9.300781 C 6.808594 -9.300781 6.917969 -9.496094 6.917969 -9.820312 L 6.917969 -11.269531 C 6.917969 -11.59375 6.808594 -11.789062 6.398438 -11.789062 L 1.414062 -11.789062 C 1.003906 -11.789062 0.894531 -11.59375 0.894531 -11.269531 L 0.894531 -9.820312 C 0.894531 -9.496094 1.003906 -9.300781 1.414062 -9.300781 L 2.507812 -9.300781 L 2.507812 -2.453125 L 1.378906 -2.453125 C 0.96875 -2.453125 0.859375 -2.257812 0.859375 -1.933594 L 0.859375 -0.519531 C 0.859375 -0.195312 0.96875 0 1.378906 0 L 6.449219 0 C 6.863281 0 6.96875 -0.195312 6.96875 -0.519531 L 6.96875 -1.933594 C 6.96875 -2.257812 6.863281 -2.453125 6.449219 -2.453125 Z M 6.449219 -2.453125 "/></g></g></g><g fill="rgb(0%, 0%, 0%)" fill-opacity="1"><g transform="translate(324.185812, 272.534744)"><g><path d="M 6.878906 -6.84375 C 6.164062 -7.132812 3.53125 -7.523438 3.53125 -8.617188 C 3.53125 -9.425781 4.515625 -9.65625 5.105469 -9.65625 C 5.644531 -9.65625 6.289062 -9.496094 6.628906 -9.171875 C 6.84375 -8.957031 6.933594 -8.816406 7.003906 -8.636719 C 7.09375 -8.402344 7.148438 -8.152344 7.488281 -8.152344 L 9.246094 -8.152344 C 9.65625 -8.152344 9.765625 -8.222656 9.765625 -8.652344 C 9.765625 -11.019531 7.273438 -12.058594 5 -12.058594 C 2.757812 -11.96875 0.644531 -10.820312 0.644531 -8.492188 C 0.644531 -6.21875 2.3125 -5.5 4.121094 -4.925781 C 5.644531 -4.445312 7.238281 -4.425781 7.238281 -3.421875 C 7.238281 -2.417969 6.449219 -2.203125 5.484375 -2.203125 C 4.820312 -2.203125 4.085938 -2.363281 3.726562 -2.796875 C 3.492188 -3.0625 3.40625 -3.296875 3.386719 -3.53125 C 3.351562 -3.976562 3.152344 -4.03125 2.742188 -4.03125 L 1.003906 -4.03125 C 0.589844 -4.03125 0.484375 -3.941406 0.484375 -3.53125 C 0.484375 -1.019531 3.0625 0.269531 5.304688 0.269531 C 8.0625 0.269531 10.070312 -0.949219 10.070312 -3.492188 C 10.070312 -5.929688 8.171875 -6.449219 6.878906 -6.84375 Z M 6.878906 -6.84375 "/></g></g></g><g fill="rgb(0%, 0%, 0%)" fill-opacity="1"><g transform="translate(337.384992, 272.534744)"><g><path d="M 11.898438 -11.808594 L 10.175781 -11.808594 C 9.585938 -11.808594 9.496094 -11.414062 9.371094 -11.199219 L 6.898438 -6.789062 L 4.445312 -11.199219 C 4.300781 -11.414062 4.230469 -11.808594 3.621094 -11.808594 L 1.84375 -11.808594 C 1.433594 -11.808594 1.324219 -11.609375 1.324219 -11.289062 L 1.324219 -0.519531 C 1.324219 -0.109375 1.523438 0 1.84375 0 L 3.621094 0 C 3.941406 0 4.140625 -0.109375 4.140625 -0.519531 L 4.140625 -6.59375 L 5.949219 -3.457031 C 6.039062 -3.316406 6.179688 -3.082031 6.449219 -3.082031 L 7.347656 -3.082031 C 7.613281 -3.082031 7.777344 -3.316406 7.867188 -3.457031 L 9.65625 -6.59375 L 9.65625 -0.519531 C 9.65625 -0.109375 9.855469 0 10.175781 0 L 11.898438 0 C 12.21875 0 12.417969 -0.109375 12.417969 -0.519531 L 12.417969 -11.289062 C 12.417969 -11.609375 12.308594 -11.808594 11.898438 -11.808594 Z M 11.898438 -11.808594 "/></g></g></g><g fill="rgb(0%, 0%, 0%)" fill-opacity="1"><g transform="translate(353.484997, 272.534744)"><g><path d="M 10.589844 -3.78125 L 10.589844 -8.007812 C 10.589844 -10.839844 7.902344 -12.058594 5.769531 -12.058594 C 3.636719 -12.058594 0.984375 -10.839844 0.984375 -8.007812 L 0.984375 -3.78125 C 0.984375 -0.949219 3.636719 0.269531 5.769531 0.269531 C 7.902344 0.269531 10.589844 -0.949219 10.589844 -3.78125 Z M 7.777344 -7.757812 L 7.777344 -4.03125 C 7.777344 -2.882812 6.953125 -2.222656 5.769531 -2.222656 C 4.605469 -2.222656 3.78125 -2.882812 3.78125 -4.03125 L 3.78125 -7.757812 C 3.78125 -8.90625 4.605469 -9.566406 5.769531 -9.566406 C 6.953125 -9.566406 7.777344 -8.90625 7.777344 -7.757812 Z M 7.777344 -7.757812 "/></g></g></g><g fill="rgb(0%, 0%, 0%)" fill-opacity="1"><g transform="translate(367.40044, 272.534744)"><g><path d="M 6.878906 -6.84375 C 6.164062 -7.132812 3.53125 -7.523438 3.53125 -8.617188 C 3.53125 -9.425781 4.515625 -9.65625 5.105469 -9.65625 C 5.644531 -9.65625 6.289062 -9.496094 6.628906 -9.171875 C 6.84375 -8.957031 6.933594 -8.816406 7.003906 -8.636719 C 7.09375 -8.402344 7.148438 -8.152344 7.488281 -8.152344 L 9.246094 -8.152344 C 9.65625 -8.152344 9.765625 -8.222656 9.765625 -8.652344 C 9.765625 -11.019531 7.273438 -12.058594 5 -12.058594 C 2.757812 -11.96875 0.644531 -10.820312 0.644531 -8.492188 C 0.644531 -6.21875 2.3125 -5.5 4.121094 -4.925781 C 5.644531 -4.445312 7.238281 -4.425781 7.238281 -3.421875 C 7.238281 -2.417969 6.449219 -2.203125 5.484375 -2.203125 C 4.820312 -2.203125 4.085938 -2.363281 3.726562 -2.796875 C 3.492188 -3.0625 3.40625 -3.296875 3.386719 -3.53125 C 3.351562 -3.976562 3.152344 -4.03125 2.742188 -4.03125 L 1.003906 -4.03125 C 0.589844 -4.03125 0.484375 -3.941406 0.484375 -3.53125 C 0.484375 -1.019531 3.0625 0.269531 5.304688 0.269531 C 8.0625 0.269531 10.070312 -0.949219 10.070312 -3.492188 C 10.070312 -5.929688 8.171875 -6.449219 6.878906 -6.84375 Z M 6.878906 -6.84375 "/></g></g></g><g fill="rgb(0%, 0%, 0%)" fill-opacity="1"><g transform="translate(380.59962, 272.534744)"><g/></g></g><g fill="rgb(0%, 0%, 0%)" fill-opacity="1"><g transform="translate(387.818118, 272.534744)"><g><path d="M 8.671875 -12.078125 L 3.242188 -12.078125 C 2.8125 -12.078125 2.722656 -11.878906 2.722656 -11.558594 L 2.722656 -10.070312 C 2.722656 -9.746094 2.8125 -9.550781 3.242188 -9.550781 L 6.378906 -9.550781 L 6.378906 -4.246094 C 6.378906 -3.136719 5.929688 -2.492188 4.75 -2.492188 C 3.941406 -2.492188 3.367188 -2.921875 3.316406 -3.976562 C 3.316406 -4.066406 3.277344 -4.355469 2.867188 -4.355469 L 0.96875 -4.355469 C 0.554688 -4.355469 0.539062 -3.960938 0.539062 -3.871094 C 0.539062 -1.34375 2.363281 0 4.75 0 C 6.878906 0 9.191406 -1.058594 9.191406 -3.851562 L 9.191406 -11.558594 C 9.191406 -11.878906 9.085938 -12.078125 8.671875 -12.078125 Z M 8.671875 -12.078125 "/></g></g></g><g fill="rgb(0%, 0%, 0%)" fill-opacity="1"><g transform="translate(400.569651, 272.534744)"><g><path d="M 5.089844 -12.828125 L 6.84375 -12.828125 C 7.292969 -12.828125 7.4375 -13.078125 7.6875 -13.332031 L 9.476562 -15.265625 C 9.640625 -15.425781 9.585938 -15.765625 9.136719 -15.765625 L 6.863281 -15.765625 C 6.46875 -15.765625 6.324219 -15.714844 6.054688 -15.265625 L 4.855469 -13.332031 C 4.75 -13.167969 4.75 -12.828125 5.089844 -12.828125 Z M 11.46875 -0.5 L 7.507812 -11.234375 C 7.347656 -11.609375 7.167969 -11.789062 6.773438 -11.789062 L 5.054688 -11.789062 C 4.660156 -11.789062 4.460938 -11.609375 4.316406 -11.234375 L 0.339844 -0.5 C 0.25 -0.285156 0.25 0 0.644531 0 L 2.527344 0 C 2.921875 0 3.0625 -0.109375 3.207031 -0.539062 L 3.707031 -1.953125 L 8.097656 -1.953125 L 8.601562 -0.539062 C 8.742188 -0.109375 8.886719 0 9.28125 0 L 11.164062 0 C 11.558594 0 11.558594 -0.285156 11.46875 -0.5 Z M 5.914062 -8.421875 L 7.257812 -4.460938 L 4.570312 -4.460938 Z M 5.914062 -8.421875 "/></g></g></g><g fill="rgb(0%, 0%, 0%)" fill-opacity="1"><g transform="translate(162.803137, 297.284743)"><g><path d="M 10.410156 -3.492188 C 10.410156 -3.925781 10.265625 -4.101562 9.871094 -4.101562 L 8.117188 -4.101562 C 7.722656 -4.101562 7.6875 -3.816406 7.632812 -3.457031 C 7.488281 -2.597656 6.71875 -2.238281 5.75 -2.238281 C 4.570312 -2.238281 3.761719 -2.882812 3.761719 -4.03125 L 3.761719 -7.757812 C 3.761719 -8.886719 4.570312 -9.550781 5.75 -9.550781 C 6.71875 -9.550781 7.222656 -9.28125 7.597656 -8.691406 C 7.742188 -8.476562 7.757812 -8.132812 8.132812 -8.132812 L 9.855469 -8.132812 C 10.265625 -8.132812 10.410156 -8.222656 10.410156 -8.652344 C 10.175781 -10.929688 7.972656 -12.058594 5.75 -12.058594 C 3.621094 -12.058594 0.949219 -10.820312 0.949219 -8.007812 L 0.949219 -3.78125 C 0.949219 -0.96875 3.621094 0.269531 5.75 0.269531 C 7.972656 0.269531 10.410156 -1.183594 10.410156 -3.492188 Z M 10.410156 -3.492188 "/></g></g></g><g fill="rgb(0%, 0%, 0%)" fill-opacity="1"><g transform="translate(176.485801, 297.284743)"><g><path d="M 11.46875 -0.5 L 7.507812 -11.234375 C 7.347656 -11.609375 7.167969 -11.789062 6.773438 -11.789062 L 5.054688 -11.789062 C 4.660156 -11.789062 4.460938 -11.609375 4.316406 -11.234375 L 0.339844 -0.5 C 0.25 -0.285156 0.25 0 0.644531 0 L 2.527344 0 C 2.921875 0 3.0625 -0.109375 3.207031 -0.539062 L 3.707031 -1.953125 L 8.097656 -1.953125 L 8.601562 -0.539062 C 8.742188 -0.109375 8.886719 0 9.28125 0 L 11.164062 0 C 11.558594 0 11.558594 -0.285156 11.46875 -0.5 Z M 5.914062 -8.421875 L 7.257812 -4.460938 L 4.570312 -4.460938 Z M 5.914062 -8.421875 "/></g></g></g><g fill="rgb(0%, 0%, 0%)" fill-opacity="1"><g transform="translate(190.580304, 297.284743)"><g><path d="M 10.140625 -11.789062 L 8.367188 -11.789062 C 8.046875 -11.789062 7.847656 -11.683594 7.847656 -11.269531 L 7.847656 -3.996094 C 7.847656 -2.867188 7.09375 -2.222656 5.914062 -2.222656 C 4.730469 -2.222656 3.996094 -2.867188 3.996094 -3.996094 L 3.996094 -11.269531 C 3.996094 -11.683594 3.796875 -11.789062 3.476562 -11.789062 L 1.703125 -11.789062 C 1.378906 -11.789062 1.183594 -11.683594 1.183594 -11.269531 L 1.183594 -3.601562 C 1.183594 -0.789062 3.78125 0.269531 5.914062 0.269531 C 8.046875 0.269531 10.660156 -0.789062 10.660156 -3.601562 L 10.660156 -11.269531 C 10.660156 -11.683594 10.464844 -11.789062 10.140625 -11.789062 Z M 10.140625 -11.789062 "/></g></g></g><g fill="rgb(0%, 0%, 0%)" fill-opacity="1"><g transform="translate(204.782244, 297.284743)"><g><path d="M 6.878906 -6.84375 C 6.164062 -7.132812 3.53125 -7.523438 3.53125 -8.617188 C 3.53125 -9.425781 4.515625 -9.65625 5.105469 -9.65625 C 5.644531 -9.65625 6.289062 -9.496094 6.628906 -9.171875 C 6.84375 -8.957031 6.933594 -8.816406 7.003906 -8.636719 C 7.09375 -8.402344 7.148438 -8.152344 7.488281 -8.152344 L 9.246094 -8.152344 C 9.65625 -8.152344 9.765625 -8.222656 9.765625 -8.652344 C 9.765625 -11.019531 7.273438 -12.058594 5 -12.058594 C 2.757812 -11.96875 0.644531 -10.820312 0.644531 -8.492188 C 0.644531 -6.21875 2.3125 -5.5 4.121094 -4.925781 C 5.644531 -4.445312 7.238281 -4.425781 7.238281 -3.421875 C 7.238281 -2.417969 6.449219 -2.203125 5.484375 -2.203125 C 4.820312 -2.203125 4.085938 -2.363281 3.726562 -2.796875 C 3.492188 -3.0625 3.40625 -3.296875 3.386719 -3.53125 C 3.351562 -3.976562 3.152344 -4.03125 2.742188 -4.03125 L 1.003906 -4.03125 C 0.589844 -4.03125 0.484375 -3.941406 0.484375 -3.53125 C 0.484375 -1.019531 3.0625 0.269531 5.304688 0.269531 C 8.0625 0.269531 10.070312 -0.949219 10.070312 -3.492188 C 10.070312 -5.929688 8.171875 -6.449219 6.878906 -6.84375 Z M 6.878906 -6.84375 "/></g></g></g><g fill="rgb(0%, 0%, 0%)" fill-opacity="1"><g transform="translate(217.981429, 297.284743)"><g><path d="M 11.46875 -0.5 L 7.507812 -11.234375 C 7.347656 -11.609375 7.167969 -11.789062 6.773438 -11.789062 L 5.054688 -11.789062 C 4.660156 -11.789062 4.460938 -11.609375 4.316406 -11.234375 L 0.339844 -0.5 C 0.25 -0.285156 0.25 0 0.644531 0 L 2.527344 0 C 2.921875 0 3.0625 -0.109375 3.207031 -0.539062 L 3.707031 -1.953125 L 8.097656 -1.953125 L 8.601562 -0.539062 C 8.742188 -0.109375 8.886719 0 9.28125 0 L 11.164062 0 C 11.558594 0 11.558594 -0.285156 11.46875 -0.5 Z M 5.914062 -8.421875 L 7.257812 -4.460938 L 4.570312 -4.460938 Z M 5.914062 -8.421875 "/></g></g></g><g fill="rgb(0%, 0%, 0%)" fill-opacity="1"><g transform="translate(232.075932, 297.284743)"><g><path d="M 10.984375 -0.574219 L 8.457031 -4.246094 C 9.566406 -4.621094 10.949219 -5.929688 10.949219 -7.8125 C 10.949219 -8.957031 10.570312 -9.980469 9.910156 -10.625 C 9.15625 -11.378906 8.296875 -11.773438 6.34375 -11.773438 L 1.828125 -11.773438 C 1.414062 -11.773438 1.324219 -11.574219 1.324219 -11.253906 L 1.324219 -0.519531 C 1.324219 -0.109375 1.503906 0 1.828125 0 L 3.601562 0 C 3.925781 0 4.121094 -0.109375 4.121094 -0.519531 L 4.121094 -9.261719 L 6.503906 -9.261719 C 7.4375 -9.261719 8.152344 -8.671875 8.152344 -7.742188 C 8.152344 -6.898438 7.328125 -6.289062 6.449219 -6.289062 L 6.09375 -6.289062 C 5.679688 -6.289062 5.574219 -6.09375 5.574219 -5.769531 L 5.574219 -4.335938 C 5.574219 -3.835938 5.609375 -3.636719 5.769531 -3.421875 L 7.703125 -0.539062 C 7.957031 -0.160156 8.171875 0 8.601562 0 L 10.714844 0 C 11.054688 0 11.144531 -0.324219 10.984375 -0.574219 Z M 10.984375 -0.574219 "/></g></g></g><g fill="rgb(0%, 0%, 0%)" fill-opacity="1"><g transform="translate(246.367399, 297.284743)"><g><path d="M 11.46875 -0.5 L 7.507812 -11.234375 C 7.347656 -11.609375 7.167969 -11.789062 6.773438 -11.789062 L 5.054688 -11.789062 C 4.660156 -11.789062 4.460938 -11.609375 4.316406 -11.234375 L 0.339844 -0.5 C 0.25 -0.285156 0.25 0 0.644531 0 L 2.527344 0 C 2.921875 0 3.0625 -0.109375 3.207031 -0.539062 L 3.707031 -1.953125 L 8.097656 -1.953125 L 8.601562 -0.539062 C 8.742188 -0.109375 8.886719 0 9.28125 0 L 11.164062 0 C 11.558594 0 11.558594 -0.285156 11.46875 -0.5 Z M 5.914062 -8.421875 L 7.257812 -4.460938 L 4.570312 -4.460938 Z M 5.914062 -8.421875 "/></g></g></g><g fill="rgb(0%, 0%, 0%)" fill-opacity="1"><g transform="translate(260.461908, 297.284743)"><g><path d="M 11.898438 -11.808594 L 10.175781 -11.808594 C 9.585938 -11.808594 9.496094 -11.414062 9.371094 -11.199219 L 6.898438 -6.789062 L 4.445312 -11.199219 C 4.300781 -11.414062 4.230469 -11.808594 3.621094 -11.808594 L 1.84375 -11.808594 C 1.433594 -11.808594 1.324219 -11.609375 1.324219 -11.289062 L 1.324219 -0.519531 C 1.324219 -0.109375 1.523438 0 1.84375 0 L 3.621094 0 C 3.941406 0 4.140625 -0.109375 4.140625 -0.519531 L 4.140625 -6.59375 L 5.949219 -3.457031 C 6.039062 -3.316406 6.179688 -3.082031 6.449219 -3.082031 L 7.347656 -3.082031 C 7.613281 -3.082031 7.777344 -3.316406 7.867188 -3.457031 L 9.65625 -6.59375 L 9.65625 -0.519531 C 9.65625 -0.109375 9.855469 0 10.175781 0 L 11.898438 0 C 12.21875 0 12.417969 -0.109375 12.417969 -0.519531 L 12.417969 -11.289062 C 12.417969 -11.609375 12.308594 -11.808594 11.898438 -11.808594 Z M 11.898438 -11.808594 "/></g></g></g><g fill="rgb(0%, 0%, 0%)" fill-opacity="1"><g transform="translate(276.561913, 297.284743)"><g/></g></g><g fill="rgb(0%, 0%, 0%)" fill-opacity="1"><g transform="translate(283.780411, 297.284743)"><g><path d="M 9.871094 -2.507812 L 4.15625 -2.507812 L 4.15625 -4.875 L 8.957031 -4.875 C 9.371094 -4.875 9.476562 -5.070312 9.476562 -5.394531 L 9.476562 -6.789062 C 9.476562 -7.113281 9.371094 -7.308594 8.957031 -7.308594 L 4.15625 -7.308594 L 4.15625 -9.261719 L 9.566406 -9.261719 C 9.980469 -9.261719 10.085938 -9.460938 10.085938 -9.78125 L 10.085938 -11.269531 C 10.085938 -11.59375 9.980469 -11.789062 9.566406 -11.789062 L 1.84375 -11.789062 C 1.433594 -11.789062 1.324219 -11.59375 1.324219 -11.269531 L 1.324219 -0.519531 C 1.324219 -0.195312 1.433594 0 1.84375 0 L 9.871094 0 C 10.285156 0 10.390625 -0.195312 10.390625 -0.519531 L 10.390625 -1.988281 C 10.390625 -2.3125 10.285156 -2.507812 9.871094 -2.507812 Z M 9.871094 -2.507812 "/></g></g></g><g fill="rgb(0%, 0%, 0%)" fill-opacity="1"><g transform="translate(297.373542, 297.284743)"><g><path d="M 6.878906 -6.84375 C 6.164062 -7.132812 3.53125 -7.523438 3.53125 -8.617188 C 3.53125 -9.425781 4.515625 -9.65625 5.105469 -9.65625 C 5.644531 -9.65625 6.289062 -9.496094 6.628906 -9.171875 C 6.84375 -8.957031 6.933594 -8.816406 7.003906 -8.636719 C 7.09375 -8.402344 7.148438 -8.152344 7.488281 -8.152344 L 9.246094 -8.152344 C 9.65625 -8.152344 9.765625 -8.222656 9.765625 -8.652344 C 9.765625 -11.019531 7.273438 -12.058594 5 -12.058594 C 2.757812 -11.96875 0.644531 -10.820312 0.644531 -8.492188 C 0.644531 -6.21875 2.3125 -5.5 4.121094 -4.925781 C 5.644531 -4.445312 7.238281 -4.425781 7.238281 -3.421875 C 7.238281 -2.417969 6.449219 -2.203125 5.484375 -2.203125 C 4.820312 -2.203125 4.085938 -2.363281 3.726562 -2.796875 C 3.492188 -3.0625 3.40625 -3.296875 3.386719 -3.53125 C 3.351562 -3.976562 3.152344 -4.03125 2.742188 -4.03125 L 1.003906 -4.03125 C 0.589844 -4.03125 0.484375 -3.941406 0.484375 -3.53125 C 0.484375 -1.019531 3.0625 0.269531 5.304688 0.269531 C 8.0625 0.269531 10.070312 -0.949219 10.070312 -3.492188 C 10.070312 -5.929688 8.171875 -6.449219 6.878906 -6.84375 Z M 6.878906 -6.84375 "/></g></g></g><g fill="rgb(0%, 0%, 0%)" fill-opacity="1"><g transform="translate(310.572722, 297.284743)"><g><path d="M 9.300781 -11.789062 L 0.984375 -11.789062 C 0.574219 -11.789062 0.464844 -11.59375 0.464844 -11.269531 L 0.464844 -9.78125 C 0.464844 -9.460938 0.574219 -9.261719 0.984375 -9.261719 L 3.746094 -9.261719 L 3.746094 -0.519531 C 3.746094 -0.109375 3.941406 0 4.265625 0 L 6.039062 0 C 6.359375 0 6.558594 -0.109375 6.558594 -0.519531 L 6.558594 -9.261719 L 9.300781 -9.261719 C 9.710938 -9.261719 9.820312 -9.460938 9.820312 -9.78125 L 9.820312 -11.269531 C 9.820312 -11.59375 9.710938 -11.789062 9.300781 -11.789062 Z M 9.300781 -11.789062 "/></g></g></g><g fill="rgb(0%, 0%, 0%)" fill-opacity="1"><g transform="translate(323.216818, 297.284743)"><g><path d="M 10.984375 -0.574219 L 8.457031 -4.246094 C 9.566406 -4.621094 10.949219 -5.929688 10.949219 -7.8125 C 10.949219 -8.957031 10.570312 -9.980469 9.910156 -10.625 C 9.15625 -11.378906 8.296875 -11.773438 6.34375 -11.773438 L 1.828125 -11.773438 C 1.414062 -11.773438 1.324219 -11.574219 1.324219 -11.253906 L 1.324219 -0.519531 C 1.324219 -0.109375 1.503906 0 1.828125 0 L 3.601562 0 C 3.925781 0 4.121094 -0.109375 4.121094 -0.519531 L 4.121094 -9.261719 L 6.503906 -9.261719 C 7.4375 -9.261719 8.152344 -8.671875 8.152344 -7.742188 C 8.152344 -6.898438 7.328125 -6.289062 6.449219 -6.289062 L 6.09375 -6.289062 C 5.679688 -6.289062 5.574219 -6.09375 5.574219 -5.769531 L 5.574219 -4.335938 C 5.574219 -3.835938 5.609375 -3.636719 5.769531 -3.421875 L 7.703125 -0.539062 C 7.957031 -0.160156 8.171875 0 8.601562 0 L 10.714844 0 C 11.054688 0 11.144531 -0.324219 10.984375 -0.574219 Z M 10.984375 -0.574219 "/></g></g></g><g fill="rgb(0%, 0%, 0%)" fill-opacity="1"><g transform="translate(337.508291, 297.284743)"><g><path d="M 11.46875 -0.5 L 7.507812 -11.234375 C 7.347656 -11.609375 7.167969 -11.789062 6.773438 -11.789062 L 5.054688 -11.789062 C 4.660156 -11.789062 4.460938 -11.609375 4.316406 -11.234375 L 0.339844 -0.5 C 0.25 -0.285156 0.25 0 0.644531 0 L 2.527344 0 C 2.921875 0 3.0625 -0.109375 3.207031 -0.539062 L 3.707031 -1.953125 L 8.097656 -1.953125 L 8.601562 -0.539062 C 8.742188 -0.109375 8.886719 0 9.28125 0 L 11.164062 0 C 11.558594 0 11.558594 -0.285156 11.46875 -0.5 Z M 5.914062 -8.421875 L 7.257812 -4.460938 L 4.570312 -4.460938 Z M 5.914062 -8.421875 "/></g></g></g><g fill="rgb(0%, 0%, 0%)" fill-opacity="1"><g transform="translate(351.602788, 297.284743)"><g><path d="M 10.085938 -6.574219 L 6.164062 -6.574219 C 5.75 -6.574219 5.644531 -6.378906 5.644531 -6.054688 L 5.644531 -4.660156 C 5.644531 -4.335938 5.75 -4.140625 6.164062 -4.140625 L 7.777344 -4.140625 C 7.777344 -2.757812 6.953125 -2.222656 5.789062 -2.222656 C 4.605469 -2.222656 3.816406 -2.882812 3.816406 -4.03125 L 3.816406 -7.632812 C 3.816406 -8.78125 4.605469 -9.566406 5.789062 -9.566406 C 6.988281 -9.566406 7.632812 -9.03125 7.828125 -8.476562 C 7.917969 -8.222656 7.847656 -7.867188 8.347656 -7.867188 L 10.085938 -7.867188 C 10.5 -7.867188 10.605469 -7.9375 10.605469 -8.367188 C 10.605469 -10.769531 8.027344 -12.058594 5.789062 -12.058594 C 3.671875 -12.058594 0.96875 -10.859375 0.96875 -8.027344 L 0.96875 -3.621094 C 0.96875 -0.804688 3.671875 0.269531 5.789062 0.269531 C 7.828125 0.269531 10.445312 -0.878906 10.605469 -3.457031 L 10.605469 -6.054688 C 10.605469 -6.378906 10.5 -6.574219 10.085938 -6.574219 Z M 10.085938 -6.574219 "/></g></g></g><g fill="rgb(0%, 0%, 0%)" fill-opacity="1"><g transform="translate(365.536129, 297.284743)"><g><path d="M 10.589844 -3.78125 L 10.589844 -8.007812 C 10.589844 -10.839844 7.902344 -12.058594 5.769531 -12.058594 C 3.636719 -12.058594 0.984375 -10.839844 0.984375 -8.007812 L 0.984375 -3.78125 C 0.984375 -0.949219 3.636719 0.269531 5.769531 0.269531 C 7.902344 0.269531 10.589844 -0.949219 10.589844 -3.78125 Z M 7.777344 -7.757812 L 7.777344 -4.03125 C 7.777344 -2.882812 6.953125 -2.222656 5.769531 -2.222656 C 4.605469 -2.222656 3.78125 -2.882812 3.78125 -4.03125 L 3.78125 -7.757812 C 3.78125 -8.90625 4.605469 -9.566406 5.769531 -9.566406 C 6.953125 -9.566406 7.777344 -8.90625 7.777344 -7.757812 Z M 7.777344 -7.757812 "/></g></g></g><g fill="rgb(0%, 0%, 0%)" fill-opacity="1"><g transform="translate(379.451572, 297.284743)"><g><path d="M 6.878906 -6.84375 C 6.164062 -7.132812 3.53125 -7.523438 3.53125 -8.617188 C 3.53125 -9.425781 4.515625 -9.65625 5.105469 -9.65625 C 5.644531 -9.65625 6.289062 -9.496094 6.628906 -9.171875 C 6.84375 -8.957031 6.933594 -8.816406 7.003906 -8.636719 C 7.09375 -8.402344 7.148438 -8.152344 7.488281 -8.152344 L 9.246094 -8.152344 C 9.65625 -8.152344 9.765625 -8.222656 9.765625 -8.652344 C 9.765625 -11.019531 7.273438 -12.058594 5 -12.058594 C 2.757812 -11.96875 0.644531 -10.820312 0.644531 -8.492188 C 0.644531 -6.21875 2.3125 -5.5 4.121094 -4.925781 C 5.644531 -4.445312 7.238281 -4.425781 7.238281 -3.421875 C 7.238281 -2.417969 6.449219 -2.203125 5.484375 -2.203125 C 4.820312 -2.203125 4.085938 -2.363281 3.726562 -2.796875 C 3.492188 -3.0625 3.40625 -3.296875 3.386719 -3.53125 C 3.351562 -3.976562 3.152344 -4.03125 2.742188 -4.03125 L 1.003906 -4.03125 C 0.589844 -4.03125 0.484375 -3.941406 0.484375 -3.53125 C 0.484375 -1.019531 3.0625 0.269531 5.304688 0.269531 C 8.0625 0.269531 10.070312 -0.949219 10.070312 -3.492188 C 10.070312 -5.929688 8.171875 -6.449219 6.878906 -6.84375 Z M 6.878906 -6.84375 "/></g></g></g><g fill="rgb(0%, 0%, 0%)" fill-opacity="1"><g transform="translate(392.650752, 297.284743)"><g/></g></g><g fill="rgb(0%, 0%, 0%)" fill-opacity="1"><g transform="translate(399.86925, 297.284743)"><g><path d="M 9.300781 -11.789062 L 0.984375 -11.789062 C 0.574219 -11.789062 0.464844 -11.59375 0.464844 -11.269531 L 0.464844 -9.78125 C 0.464844 -9.460938 0.574219 -9.261719 0.984375 -9.261719 L 3.746094 -9.261719 L 3.746094 -0.519531 C 3.746094 -0.109375 3.941406 0 4.265625 0 L 6.039062 0 C 6.359375 0 6.558594 -0.109375 6.558594 -0.519531 L 6.558594 -9.261719 L 9.300781 -9.261719 C 9.710938 -9.261719 9.820312 -9.460938 9.820312 -9.78125 L 9.820312 -11.269531 C 9.820312 -11.59375 9.710938 -11.789062 9.300781 -11.789062 Z M 9.300781 -11.789062 "/></g></g></g><g fill="rgb(0%, 0%, 0%)" fill-opacity="1"><g transform="translate(412.513346, 297.284743)"><g><path d="M 9.171875 -15.175781 L 8.347656 -15.175781 C 8.027344 -15.175781 7.957031 -15.03125 7.902344 -14.855469 C 7.792969 -14.496094 7.507812 -14.40625 7.273438 -14.441406 C 7.058594 -14.476562 6.003906 -14.855469 6.003906 -14.855469 C 5.609375 -14.996094 5.015625 -15.175781 4.550781 -15.175781 C 3.386719 -15.175781 2.617188 -14.261719 2.617188 -13.207031 L 2.617188 -13.1875 C 2.617188 -13.078125 2.617188 -12.828125 2.832031 -12.828125 L 3.65625 -12.828125 C 3.976562 -12.828125 4.050781 -12.972656 4.101562 -13.152344 C 4.210938 -13.511719 4.496094 -13.597656 4.730469 -13.5625 C 4.945312 -13.527344 6.003906 -13.152344 6.003906 -13.152344 C 6.398438 -13.007812 6.988281 -12.828125 7.453125 -12.828125 C 8.617188 -12.828125 9.390625 -13.742188 9.390625 -14.800781 L 9.390625 -14.816406 C 9.390625 -14.925781 9.390625 -15.175781 9.171875 -15.175781 Z M 11.46875 -0.5 L 7.507812 -11.234375 C 7.347656 -11.609375 7.167969 -11.789062 6.773438 -11.789062 L 5.054688 -11.789062 C 4.660156 -11.789062 4.460938 -11.609375 4.316406 -11.234375 L 0.339844 -0.5 C 0.25 -0.285156 0.25 0 0.644531 0 L 2.527344 0 C 2.921875 0 3.0625 -0.109375 3.207031 -0.539062 L 3.707031 -1.953125 L 8.097656 -1.953125 L 8.601562 -0.539062 C 8.742188 -0.109375 8.886719 0 9.28125 0 L 11.164062 0 C 11.558594 0 11.558594 -0.285156 11.46875 -0.5 Z M 5.914062 -8.421875 L 7.257812 -4.460938 L 4.570312 -4.460938 Z M 5.914062 -8.421875 "/></g></g></g><g fill="rgb(0%, 0%, 0%)" fill-opacity="1"><g transform="translate(426.607843, 297.284743)"><g><path d="M 10.589844 -3.78125 L 10.589844 -8.007812 C 10.589844 -10.839844 7.902344 -12.058594 5.769531 -12.058594 C 3.636719 -12.058594 0.984375 -10.839844 0.984375 -8.007812 L 0.984375 -3.78125 C 0.984375 -0.949219 3.636719 0.269531 5.769531 0.269531 C 7.902344 0.269531 10.589844 -0.949219 10.589844 -3.78125 Z M 7.777344 -7.757812 L 7.777344 -4.03125 C 7.777344 -2.882812 6.953125 -2.222656 5.769531 -2.222656 C 4.605469 -2.222656 3.78125 -2.882812 3.78125 -4.03125 L 3.78125 -7.757812 C 3.78125 -8.90625 4.605469 -9.566406 5.769531 -9.566406 C 6.953125 -9.566406 7.777344 -8.90625 7.777344 -7.757812 Z M 7.777344 -7.757812 "/></g></g></g><g fill="rgb(0%, 0%, 0%)" fill-opacity="1"><g transform="translate(168.744543, 322.034742)"><g><path d="M 10.085938 -6.574219 L 6.164062 -6.574219 C 5.75 -6.574219 5.644531 -6.378906 5.644531 -6.054688 L 5.644531 -4.660156 C 5.644531 -4.335938 5.75 -4.140625 6.164062 -4.140625 L 7.777344 -4.140625 C 7.777344 -2.757812 6.953125 -2.222656 5.789062 -2.222656 C 4.605469 -2.222656 3.816406 -2.882812 3.816406 -4.03125 L 3.816406 -7.632812 C 3.816406 -8.78125 4.605469 -9.566406 5.789062 -9.566406 C 6.988281 -9.566406 7.632812 -9.03125 7.828125 -8.476562 C 7.917969 -8.222656 7.847656 -7.867188 8.347656 -7.867188 L 10.085938 -7.867188 C 10.5 -7.867188 10.605469 -7.9375 10.605469 -8.367188 C 10.605469 -10.769531 8.027344 -12.058594 5.789062 -12.058594 C 3.671875 -12.058594 0.96875 -10.859375 0.96875 -8.027344 L 0.96875 -3.621094 C 0.96875 -0.804688 3.671875 0.269531 5.789062 0.269531 C 7.828125 0.269531 10.445312 -0.878906 10.605469 -3.457031 L 10.605469 -6.054688 C 10.605469 -6.378906 10.5 -6.574219 10.085938 -6.574219 Z M 10.085938 -6.574219 "/></g></g></g><g fill="rgb(0%, 0%, 0%)" fill-opacity="1"><g transform="translate(182.67789, 322.034742)"><g><path d="M 10.984375 -0.574219 L 8.457031 -4.246094 C 9.566406 -4.621094 10.949219 -5.929688 10.949219 -7.8125 C 10.949219 -8.957031 10.570312 -9.980469 9.910156 -10.625 C 9.15625 -11.378906 8.296875 -11.773438 6.34375 -11.773438 L 1.828125 -11.773438 C 1.414062 -11.773438 1.324219 -11.574219 1.324219 -11.253906 L 1.324219 -0.519531 C 1.324219 -0.109375 1.503906 0 1.828125 0 L 3.601562 0 C 3.925781 0 4.121094 -0.109375 4.121094 -0.519531 L 4.121094 -9.261719 L 6.503906 -9.261719 C 7.4375 -9.261719 8.152344 -8.671875 8.152344 -7.742188 C 8.152344 -6.898438 7.328125 -6.289062 6.449219 -6.289062 L 6.09375 -6.289062 C 5.679688 -6.289062 5.574219 -6.09375 5.574219 -5.769531 L 5.574219 -4.335938 C 5.574219 -3.835938 5.609375 -3.636719 5.769531 -3.421875 L 7.703125 -0.539062 C 7.957031 -0.160156 8.171875 0 8.601562 0 L 10.714844 0 C 11.054688 0 11.144531 -0.324219 10.984375 -0.574219 Z M 10.984375 -0.574219 "/></g></g></g><g fill="rgb(0%, 0%, 0%)" fill-opacity="1"><g transform="translate(196.969357, 322.034742)"><g><path d="M 11.46875 -0.5 L 7.507812 -11.234375 C 7.347656 -11.609375 7.167969 -11.789062 6.773438 -11.789062 L 5.054688 -11.789062 C 4.660156 -11.789062 4.460938 -11.609375 4.316406 -11.234375 L 0.339844 -0.5 C 0.25 -0.285156 0.25 0 0.644531 0 L 2.527344 0 C 2.921875 0 3.0625 -0.109375 3.207031 -0.539062 L 3.707031 -1.953125 L 8.097656 -1.953125 L 8.601562 -0.539062 C 8.742188 -0.109375 8.886719 0 9.28125 0 L 11.164062 0 C 11.558594 0 11.558594 -0.285156 11.46875 -0.5 Z M 5.914062 -8.421875 L 7.257812 -4.460938 L 4.570312 -4.460938 Z M 5.914062 -8.421875 "/></g></g></g><g fill="rgb(0%, 0%, 0%)" fill-opacity="1"><g transform="translate(211.063859, 322.034742)"><g><path d="M 10.375 -11.789062 L 8.652344 -11.789062 C 8.332031 -11.789062 8.132812 -11.683594 8.132812 -11.269531 L 8.132812 -5.054688 L 4.335938 -11.179688 C 4.101562 -11.539062 3.976562 -11.789062 3.53125 -11.789062 L 1.84375 -11.789062 C 1.433594 -11.789062 1.324219 -11.59375 1.324219 -11.269531 L 1.324219 -0.519531 C 1.324219 -0.109375 1.523438 0 1.84375 0 L 3.621094 0 C 3.941406 0 4.140625 -0.109375 4.140625 -0.519531 L 4.140625 -6.753906 L 7.9375 -0.609375 C 8.171875 -0.25 8.296875 0 8.742188 0 L 10.375 0 C 10.785156 0 10.894531 -0.195312 10.894531 -0.519531 L 10.894531 -11.269531 C 10.894531 -11.683594 10.695312 -11.789062 10.375 -11.789062 Z M 10.375 -11.789062 "/></g></g></g><g fill="rgb(0%, 0%, 0%)" fill-opacity="1"><g transform="translate(225.641829, 322.034742)"><g><path d="M 5.859375 -11.789062 L 1.84375 -11.789062 C 1.433594 -11.789062 1.324219 -11.59375 1.324219 -11.269531 L 1.324219 -0.519531 C 1.324219 -0.195312 1.433594 0 1.84375 0 L 5.859375 0 C 7.992188 0 10.679688 -1.21875 10.679688 -4.03125 L 10.679688 -7.757812 C 10.679688 -10.554688 7.992188 -11.789062 5.859375 -11.789062 Z M 7.867188 -7.507812 L 7.867188 -4.28125 C 7.867188 -3.136719 7.042969 -2.492188 5.859375 -2.492188 L 4.140625 -2.492188 L 4.140625 -9.300781 L 5.859375 -9.300781 C 7.042969 -9.300781 7.867188 -8.636719 7.867188 -7.507812 Z M 7.867188 -7.507812 "/></g></g></g><g fill="rgb(0%, 0%, 0%)" fill-opacity="1"><g transform="translate(239.646805, 322.034742)"><g><path d="M 9.871094 -2.507812 L 4.15625 -2.507812 L 4.15625 -4.875 L 8.957031 -4.875 C 9.371094 -4.875 9.476562 -5.070312 9.476562 -5.394531 L 9.476562 -6.789062 C 9.476562 -7.113281 9.371094 -7.308594 8.957031 -7.308594 L 4.15625 -7.308594 L 4.15625 -9.261719 L 9.566406 -9.261719 C 9.980469 -9.261719 10.085938 -9.460938 10.085938 -9.78125 L 10.085938 -11.269531 C 10.085938 -11.59375 9.980469 -11.789062 9.566406 -11.789062 L 1.84375 -11.789062 C 1.433594 -11.789062 1.324219 -11.59375 1.324219 -11.269531 L 1.324219 -0.519531 C 1.324219 -0.195312 1.433594 0 1.84375 0 L 9.871094 0 C 10.285156 0 10.390625 -0.195312 10.390625 -0.519531 L 10.390625 -1.988281 C 10.390625 -2.3125 10.285156 -2.507812 9.871094 -2.507812 Z M 9.871094 -2.507812 "/></g></g></g><g fill="rgb(0%, 0%, 0%)" fill-opacity="1"><g transform="translate(253.239931, 322.034742)"><g><path d="M 6.878906 -6.84375 C 6.164062 -7.132812 3.53125 -7.523438 3.53125 -8.617188 C 3.53125 -9.425781 4.515625 -9.65625 5.105469 -9.65625 C 5.644531 -9.65625 6.289062 -9.496094 6.628906 -9.171875 C 6.84375 -8.957031 6.933594 -8.816406 7.003906 -8.636719 C 7.09375 -8.402344 7.148438 -8.152344 7.488281 -8.152344 L 9.246094 -8.152344 C 9.65625 -8.152344 9.765625 -8.222656 9.765625 -8.652344 C 9.765625 -11.019531 7.273438 -12.058594 5 -12.058594 C 2.757812 -11.96875 0.644531 -10.820312 0.644531 -8.492188 C 0.644531 -6.21875 2.3125 -5.5 4.121094 -4.925781 C 5.644531 -4.445312 7.238281 -4.425781 7.238281 -3.421875 C 7.238281 -2.417969 6.449219 -2.203125 5.484375 -2.203125 C 4.820312 -2.203125 4.085938 -2.363281 3.726562 -2.796875 C 3.492188 -3.0625 3.40625 -3.296875 3.386719 -3.53125 C 3.351562 -3.976562 3.152344 -4.03125 2.742188 -4.03125 L 1.003906 -4.03125 C 0.589844 -4.03125 0.484375 -3.941406 0.484375 -3.53125 C 0.484375 -1.019531 3.0625 0.269531 5.304688 0.269531 C 8.0625 0.269531 10.070312 -0.949219 10.070312 -3.492188 C 10.070312 -5.929688 8.171875 -6.449219 6.878906 -6.84375 Z M 6.878906 -6.84375 "/></g></g></g><g fill="rgb(0%, 0%, 0%)" fill-opacity="1"><g transform="translate(266.43911, 322.034742)"><g/></g></g><g fill="rgb(0%, 0%, 0%)" fill-opacity="1"><g transform="translate(273.657608, 322.034742)"><g><path d="M 4.925781 -12.828125 L 6.683594 -12.828125 C 7.023438 -12.828125 7.023438 -13.167969 6.917969 -13.332031 L 5.714844 -15.265625 C 5.445312 -15.714844 5.304688 -15.765625 4.910156 -15.765625 L 2.632812 -15.765625 C 2.1875 -15.765625 2.132812 -15.425781 2.292969 -15.265625 L 4.085938 -13.332031 C 4.335938 -13.078125 4.480469 -12.828125 4.925781 -12.828125 Z M 11.46875 -0.5 L 7.507812 -11.234375 C 7.347656 -11.609375 7.167969 -11.789062 6.773438 -11.789062 L 5.054688 -11.789062 C 4.660156 -11.789062 4.460938 -11.609375 4.316406 -11.234375 L 0.339844 -0.5 C 0.25 -0.285156 0.25 0 0.644531 0 L 2.527344 0 C 2.921875 0 3.0625 -0.109375 3.207031 -0.539062 L 3.707031 -1.953125 L 8.097656 -1.953125 L 8.601562 -0.539062 C 8.742188 -0.109375 8.886719 0 9.28125 0 L 11.164062 0 C 11.558594 0 11.558594 -0.285156 11.46875 -0.5 Z M 5.914062 -8.421875 L 7.257812 -4.460938 L 4.570312 -4.460938 Z M 5.914062 -8.421875 "/></g></g></g><g fill="rgb(0%, 0%, 0%)" fill-opacity="1"><g transform="translate(287.752106, 322.034742)"><g/></g></g><g fill="rgb(0%, 0%, 0%)" fill-opacity="1"><g transform="translate(294.970604, 322.034742)"><g><path d="M 10.429688 -11.789062 L 8.652344 -11.789062 C 8.332031 -11.789062 8.132812 -11.683594 8.132812 -11.269531 L 8.132812 -7.222656 L 4.140625 -7.222656 L 4.140625 -11.269531 C 4.140625 -11.683594 3.960938 -11.789062 3.621094 -11.789062 L 1.84375 -11.789062 C 1.523438 -11.789062 1.324219 -11.683594 1.324219 -11.269531 L 1.324219 -0.519531 C 1.324219 -0.109375 1.523438 0 1.84375 0 L 3.621094 0 C 3.960938 0 4.140625 -0.109375 4.140625 -0.519531 L 4.140625 -4.570312 L 8.132812 -4.570312 L 8.132812 -0.519531 C 8.132812 -0.109375 8.332031 0 8.652344 0 L 10.429688 0 C 10.75 0 10.949219 -0.109375 10.949219 -0.519531 L 10.949219 -11.269531 C 10.949219 -11.683594 10.75 -11.789062 10.429688 -11.789062 Z M 10.429688 -11.789062 "/></g></g></g><g fill="rgb(0%, 0%, 0%)" fill-opacity="1"><g transform="translate(309.602286, 322.034742)"><g><path d="M 10.140625 -11.789062 L 8.367188 -11.789062 C 8.046875 -11.789062 7.847656 -11.683594 7.847656 -11.269531 L 7.847656 -3.996094 C 7.847656 -2.867188 7.09375 -2.222656 5.914062 -2.222656 C 4.730469 -2.222656 3.996094 -2.867188 3.996094 -3.996094 L 3.996094 -11.269531 C 3.996094 -11.683594 3.796875 -11.789062 3.476562 -11.789062 L 1.703125 -11.789062 C 1.378906 -11.789062 1.183594 -11.683594 1.183594 -11.269531 L 1.183594 -3.601562 C 1.183594 -0.789062 3.78125 0.269531 5.914062 0.269531 C 8.046875 0.269531 10.660156 -0.789062 10.660156 -3.601562 L 10.660156 -11.269531 C 10.660156 -11.683594 10.464844 -11.789062 10.140625 -11.789062 Z M 10.140625 -11.789062 "/></g></g></g><g fill="rgb(0%, 0%, 0%)" fill-opacity="1"><g transform="translate(323.80422, 322.034742)"><g><path d="M 11.898438 -11.808594 L 10.175781 -11.808594 C 9.585938 -11.808594 9.496094 -11.414062 9.371094 -11.199219 L 6.898438 -6.789062 L 4.445312 -11.199219 C 4.300781 -11.414062 4.230469 -11.808594 3.621094 -11.808594 L 1.84375 -11.808594 C 1.433594 -11.808594 1.324219 -11.609375 1.324219 -11.289062 L 1.324219 -0.519531 C 1.324219 -0.109375 1.523438 0 1.84375 0 L 3.621094 0 C 3.941406 0 4.140625 -0.109375 4.140625 -0.519531 L 4.140625 -6.59375 L 5.949219 -3.457031 C 6.039062 -3.316406 6.179688 -3.082031 6.449219 -3.082031 L 7.347656 -3.082031 C 7.613281 -3.082031 7.777344 -3.316406 7.867188 -3.457031 L 9.65625 -6.59375 L 9.65625 -0.519531 C 9.65625 -0.109375 9.855469 0 10.175781 0 L 11.898438 0 C 12.21875 0 12.417969 -0.109375 12.417969 -0.519531 L 12.417969 -11.289062 C 12.417969 -11.609375 12.308594 -11.808594 11.898438 -11.808594 Z M 11.898438 -11.808594 "/></g></g></g><g fill="rgb(0%, 0%, 0%)" fill-opacity="1"><g transform="translate(339.904226, 322.034742)"><g><path d="M 11.46875 -0.5 L 7.507812 -11.234375 C 7.347656 -11.609375 7.167969 -11.789062 6.773438 -11.789062 L 5.054688 -11.789062 C 4.660156 -11.789062 4.460938 -11.609375 4.316406 -11.234375 L 0.339844 -0.5 C 0.25 -0.285156 0.25 0 0.644531 0 L 2.527344 0 C 2.921875 0 3.0625 -0.109375 3.207031 -0.539062 L 3.707031 -1.953125 L 8.097656 -1.953125 L 8.601562 -0.539062 C 8.742188 -0.109375 8.886719 0 9.28125 0 L 11.164062 0 C 11.558594 0 11.558594 -0.285156 11.46875 -0.5 Z M 5.914062 -8.421875 L 7.257812 -4.460938 L 4.570312 -4.460938 Z M 5.914062 -8.421875 "/></g></g></g><g fill="rgb(0%, 0%, 0%)" fill-opacity="1"><g transform="translate(353.998723, 322.034742)"><g><path d="M 10.375 -11.789062 L 8.652344 -11.789062 C 8.332031 -11.789062 8.132812 -11.683594 8.132812 -11.269531 L 8.132812 -5.054688 L 4.335938 -11.179688 C 4.101562 -11.539062 3.976562 -11.789062 3.53125 -11.789062 L 1.84375 -11.789062 C 1.433594 -11.789062 1.324219 -11.59375 1.324219 -11.269531 L 1.324219 -0.519531 C 1.324219 -0.109375 1.523438 0 1.84375 0 L 3.621094 0 C 3.941406 0 4.140625 -0.109375 4.140625 -0.519531 L 4.140625 -6.753906 L 7.9375 -0.609375 C 8.171875 -0.25 8.296875 0 8.742188 0 L 10.375 0 C 10.785156 0 10.894531 -0.195312 10.894531 -0.519531 L 10.894531 -11.269531 C 10.894531 -11.683594 10.695312 -11.789062 10.375 -11.789062 Z M 10.375 -11.789062 "/></g></g></g><g fill="rgb(0%, 0%, 0%)" fill-opacity="1"><g transform="translate(368.576687, 322.034742)"><g><path d="M 6.449219 -2.453125 L 5.320312 -2.453125 L 5.320312 -9.300781 L 6.398438 -9.300781 C 6.808594 -9.300781 6.917969 -9.496094 6.917969 -9.820312 L 6.917969 -11.269531 C 6.917969 -11.59375 6.808594 -11.789062 6.398438 -11.789062 L 1.414062 -11.789062 C 1.003906 -11.789062 0.894531 -11.59375 0.894531 -11.269531 L 0.894531 -9.820312 C 0.894531 -9.496094 1.003906 -9.300781 1.414062 -9.300781 L 2.507812 -9.300781 L 2.507812 -2.453125 L 1.378906 -2.453125 C 0.96875 -2.453125 0.859375 -2.257812 0.859375 -1.933594 L 0.859375 -0.519531 C 0.859375 -0.195312 0.96875 0 1.378906 0 L 6.449219 0 C 6.863281 0 6.96875 -0.195312 6.96875 -0.519531 L 6.96875 -1.933594 C 6.96875 -2.257812 6.863281 -2.453125 6.449219 -2.453125 Z M 6.449219 -2.453125 "/></g></g></g><g fill="rgb(0%, 0%, 0%)" fill-opacity="1"><g transform="translate(378.892963, 322.034742)"><g><path d="M 5.859375 -11.789062 L 1.84375 -11.789062 C 1.433594 -11.789062 1.324219 -11.59375 1.324219 -11.269531 L 1.324219 -0.519531 C 1.324219 -0.195312 1.433594 0 1.84375 0 L 5.859375 0 C 7.992188 0 10.679688 -1.21875 10.679688 -4.03125 L 10.679688 -7.757812 C 10.679688 -10.554688 7.992188 -11.789062 5.859375 -11.789062 Z M 7.867188 -7.507812 L 7.867188 -4.28125 C 7.867188 -3.136719 7.042969 -2.492188 5.859375 -2.492188 L 4.140625 -2.492188 L 4.140625 -9.300781 L 5.859375 -9.300781 C 7.042969 -9.300781 7.867188 -8.636719 7.867188 -7.507812 Z M 7.867188 -7.507812 "/></g></g></g><g fill="rgb(0%, 0%, 0%)" fill-opacity="1"><g transform="translate(392.897944, 322.034742)"><g><path d="M 11.46875 -0.5 L 7.507812 -11.234375 C 7.347656 -11.609375 7.167969 -11.789062 6.773438 -11.789062 L 5.054688 -11.789062 C 4.660156 -11.789062 4.460938 -11.609375 4.316406 -11.234375 L 0.339844 -0.5 C 0.25 -0.285156 0.25 0 0.644531 0 L 2.527344 0 C 2.921875 0 3.0625 -0.109375 3.207031 -0.539062 L 3.707031 -1.953125 L 8.097656 -1.953125 L 8.601562 -0.539062 C 8.742188 -0.109375 8.886719 0 9.28125 0 L 11.164062 0 C 11.558594 0 11.558594 -0.285156 11.46875 -0.5 Z M 5.914062 -8.421875 L 7.257812 -4.460938 L 4.570312 -4.460938 Z M 5.914062 -8.421875 "/></g></g></g><g fill="rgb(0%, 0%, 0%)" fill-opacity="1"><g transform="translate(406.992442, 322.034742)"><g><path d="M 5.859375 -11.789062 L 1.84375 -11.789062 C 1.433594 -11.789062 1.324219 -11.59375 1.324219 -11.269531 L 1.324219 -0.519531 C 1.324219 -0.195312 1.433594 0 1.84375 0 L 5.859375 0 C 7.992188 0 10.679688 -1.21875 10.679688 -4.03125 L 10.679688 -7.757812 C 10.679688 -10.554688 7.992188 -11.789062 5.859375 -11.789062 Z M 7.867188 -7.507812 L 7.867188 -4.28125 C 7.867188 -3.136719 7.042969 -2.492188 5.859375 -2.492188 L 4.140625 -2.492188 L 4.140625 -9.300781 L 5.859375 -9.300781 C 7.042969 -9.300781 7.867188 -8.636719 7.867188 -7.507812 Z M 7.867188 -7.507812 "/></g></g></g><g fill="rgb(0%, 0%, 0%)" fill-opacity="1"><g transform="translate(420.997423, 322.034742)"><g><path d="M 9.871094 -2.507812 L 4.15625 -2.507812 L 4.15625 -4.875 L 8.957031 -4.875 C 9.371094 -4.875 9.476562 -5.070312 9.476562 -5.394531 L 9.476562 -6.789062 C 9.476562 -7.113281 9.371094 -7.308594 8.957031 -7.308594 L 4.15625 -7.308594 L 4.15625 -9.261719 L 9.566406 -9.261719 C 9.980469 -9.261719 10.085938 -9.460938 10.085938 -9.78125 L 10.085938 -11.269531 C 10.085938 -11.59375 9.980469 -11.789062 9.566406 -11.789062 L 1.84375 -11.789062 C 1.433594 -11.789062 1.324219 -11.59375 1.324219 -11.269531 L 1.324219 -0.519531 C 1.324219 -0.195312 1.433594 0 1.84375 0 L 9.871094 0 C 10.285156 0 10.390625 -0.195312 10.390625 -0.519531 L 10.390625 -1.988281 C 10.390625 -2.3125 10.285156 -2.507812 9.871094 -2.507812 Z M 9.871094 -2.507812 "/></g></g></g><g fill="rgb(0%, 0%, 0%)" fill-opacity="1"><g transform="translate(150.299231, 346.784741)"><g><path d="M 10.625 -0.84375 L 9.945312 -1.613281 C 10.410156 -2.203125 10.570312 -2.847656 10.570312 -3.761719 L 10.570312 -7.992188 C 10.570312 -10.820312 7.882812 -12.039062 5.75 -12.039062 C 3.621094 -12.039062 0.96875 -10.820312 0.96875 -7.992188 L 0.96875 -3.761719 C 0.96875 -0.933594 3.621094 0.285156 5.75 0.285156 C 6.523438 0.285156 7.273438 0.214844 8.027344 -0.109375 L 8.886719 0.769531 C 9.121094 1.003906 9.40625 0.96875 9.695312 0.679688 L 10.554688 -0.0195312 C 10.859375 -0.324219 10.859375 -0.628906 10.625 -0.84375 Z M 7.777344 -7.757812 L 7.777344 -4.03125 C 7.777344 -2.882812 6.953125 -2.222656 5.769531 -2.222656 C 4.605469 -2.222656 3.78125 -2.882812 3.78125 -4.03125 L 3.78125 -7.757812 C 3.78125 -8.90625 4.605469 -9.566406 5.769531 -9.566406 C 6.953125 -9.566406 7.777344 -8.90625 7.777344 -7.757812 Z M 7.777344 -7.757812 "/></g></g></g><g fill="rgb(0%, 0%, 0%)" fill-opacity="1"><g transform="translate(164.232578, 346.784741)"><g><path d="M 10.140625 -11.789062 L 8.367188 -11.789062 C 8.046875 -11.789062 7.847656 -11.683594 7.847656 -11.269531 L 7.847656 -3.996094 C 7.847656 -2.867188 7.09375 -2.222656 5.914062 -2.222656 C 4.730469 -2.222656 3.996094 -2.867188 3.996094 -3.996094 L 3.996094 -11.269531 C 3.996094 -11.683594 3.796875 -11.789062 3.476562 -11.789062 L 1.703125 -11.789062 C 1.378906 -11.789062 1.183594 -11.683594 1.183594 -11.269531 L 1.183594 -3.601562 C 1.183594 -0.789062 3.78125 0.269531 5.914062 0.269531 C 8.046875 0.269531 10.660156 -0.789062 10.660156 -3.601562 L 10.660156 -11.269531 C 10.660156 -11.683594 10.464844 -11.789062 10.140625 -11.789062 Z M 10.140625 -11.789062 "/></g></g></g><g fill="rgb(0%, 0%, 0%)" fill-opacity="1"><g transform="translate(178.434518, 346.784741)"><g><path d="M 11.46875 -0.5 L 7.507812 -11.234375 C 7.347656 -11.609375 7.167969 -11.789062 6.773438 -11.789062 L 5.054688 -11.789062 C 4.660156 -11.789062 4.460938 -11.609375 4.316406 -11.234375 L 0.339844 -0.5 C 0.25 -0.285156 0.25 0 0.644531 0 L 2.527344 0 C 2.921875 0 3.0625 -0.109375 3.207031 -0.539062 L 3.707031 -1.953125 L 8.097656 -1.953125 L 8.601562 -0.539062 C 8.742188 -0.109375 8.886719 0 9.28125 0 L 11.164062 0 C 11.558594 0 11.558594 -0.285156 11.46875 -0.5 Z M 5.914062 -8.421875 L 7.257812 -4.460938 L 4.570312 -4.460938 Z M 5.914062 -8.421875 "/></g></g></g><g fill="rgb(0%, 0%, 0%)" fill-opacity="1"><g transform="translate(192.529021, 346.784741)"><g><path d="M 10.375 -11.789062 L 8.652344 -11.789062 C 8.332031 -11.789062 8.132812 -11.683594 8.132812 -11.269531 L 8.132812 -5.054688 L 4.335938 -11.179688 C 4.101562 -11.539062 3.976562 -11.789062 3.53125 -11.789062 L 1.84375 -11.789062 C 1.433594 -11.789062 1.324219 -11.59375 1.324219 -11.269531 L 1.324219 -0.519531 C 1.324219 -0.109375 1.523438 0 1.84375 0 L 3.621094 0 C 3.941406 0 4.140625 -0.109375 4.140625 -0.519531 L 4.140625 -6.753906 L 7.9375 -0.609375 C 8.171875 -0.25 8.296875 0 8.742188 0 L 10.375 0 C 10.785156 0 10.894531 -0.195312 10.894531 -0.519531 L 10.894531 -11.269531 C 10.894531 -11.683594 10.695312 -11.789062 10.375 -11.789062 Z M 10.375 -11.789062 "/></g></g></g><g fill="rgb(0%, 0%, 0%)" fill-opacity="1"><g transform="translate(207.106991, 346.784741)"><g><path d="M 9.300781 -11.789062 L 0.984375 -11.789062 C 0.574219 -11.789062 0.464844 -11.59375 0.464844 -11.269531 L 0.464844 -9.78125 C 0.464844 -9.460938 0.574219 -9.261719 0.984375 -9.261719 L 3.746094 -9.261719 L 3.746094 -0.519531 C 3.746094 -0.109375 3.941406 0 4.265625 0 L 6.039062 0 C 6.359375 0 6.558594 -0.109375 6.558594 -0.519531 L 6.558594 -9.261719 L 9.300781 -9.261719 C 9.710938 -9.261719 9.820312 -9.460938 9.820312 -9.78125 L 9.820312 -11.269531 C 9.820312 -11.59375 9.710938 -11.789062 9.300781 -11.789062 Z M 9.300781 -11.789062 "/></g></g></g><g fill="rgb(0%, 0%, 0%)" fill-opacity="1"><g transform="translate(219.751093, 346.784741)"><g><path d="M 10.589844 -3.78125 L 10.589844 -8.007812 C 10.589844 -10.839844 7.902344 -12.058594 5.769531 -12.058594 C 3.636719 -12.058594 0.984375 -10.839844 0.984375 -8.007812 L 0.984375 -3.78125 C 0.984375 -0.949219 3.636719 0.269531 5.769531 0.269531 C 7.902344 0.269531 10.589844 -0.949219 10.589844 -3.78125 Z M 7.777344 -7.757812 L 7.777344 -4.03125 C 7.777344 -2.882812 6.953125 -2.222656 5.769531 -2.222656 C 4.605469 -2.222656 3.78125 -2.882812 3.78125 -4.03125 L 3.78125 -7.757812 C 3.78125 -8.90625 4.605469 -9.566406 5.769531 -9.566406 C 6.953125 -9.566406 7.777344 -8.90625 7.777344 -7.757812 Z M 7.777344 -7.757812 "/></g></g></g><g fill="rgb(0%, 0%, 0%)" fill-opacity="1"><g transform="translate(233.66653, 346.784741)"><g/></g></g><g fill="rgb(0%, 0%, 0%)" fill-opacity="1"><g transform="translate(240.885033, 346.784741)"><g><path d="M 11.46875 -0.5 L 7.507812 -11.234375 C 7.347656 -11.609375 7.167969 -11.789062 6.773438 -11.789062 L 5.054688 -11.789062 C 4.660156 -11.789062 4.460938 -11.609375 4.316406 -11.234375 L 0.339844 -0.5 C 0.25 -0.285156 0.25 0 0.644531 0 L 2.527344 0 C 2.921875 0 3.0625 -0.109375 3.207031 -0.539062 L 3.707031 -1.953125 L 8.097656 -1.953125 L 8.601562 -0.539062 C 8.742188 -0.109375 8.886719 0 9.28125 0 L 11.164062 0 C 11.558594 0 11.558594 -0.285156 11.46875 -0.5 Z M 5.914062 -8.421875 L 7.257812 -4.460938 L 4.570312 -4.460938 Z M 5.914062 -8.421875 "/></g></g></g><g fill="rgb(0%, 0%, 0%)" fill-opacity="1"><g transform="translate(254.979536, 346.784741)"><g><path d="M 6.878906 -6.84375 C 6.164062 -7.132812 3.53125 -7.523438 3.53125 -8.617188 C 3.53125 -9.425781 4.515625 -9.65625 5.105469 -9.65625 C 5.644531 -9.65625 6.289062 -9.496094 6.628906 -9.171875 C 6.84375 -8.957031 6.933594 -8.816406 7.003906 -8.636719 C 7.09375 -8.402344 7.148438 -8.152344 7.488281 -8.152344 L 9.246094 -8.152344 C 9.65625 -8.152344 9.765625 -8.222656 9.765625 -8.652344 C 9.765625 -11.019531 7.273438 -12.058594 5 -12.058594 C 2.757812 -11.96875 0.644531 -10.820312 0.644531 -8.492188 C 0.644531 -6.21875 2.3125 -5.5 4.121094 -4.925781 C 5.644531 -4.445312 7.238281 -4.425781 7.238281 -3.421875 C 7.238281 -2.417969 6.449219 -2.203125 5.484375 -2.203125 C 4.820312 -2.203125 4.085938 -2.363281 3.726562 -2.796875 C 3.492188 -3.0625 3.40625 -3.296875 3.386719 -3.53125 C 3.351562 -3.976562 3.152344 -4.03125 2.742188 -4.03125 L 1.003906 -4.03125 C 0.589844 -4.03125 0.484375 -3.941406 0.484375 -3.53125 C 0.484375 -1.019531 3.0625 0.269531 5.304688 0.269531 C 8.0625 0.269531 10.070312 -0.949219 10.070312 -3.492188 C 10.070312 -5.929688 8.171875 -6.449219 6.878906 -6.84375 Z M 6.878906 -6.84375 "/></g></g></g><g fill="rgb(0%, 0%, 0%)" fill-opacity="1"><g transform="translate(268.178728, 346.784741)"><g/></g></g><g fill="rgb(0%, 0%, 0%)" fill-opacity="1"><g transform="translate(275.397226, 346.784741)"><g><path d="M 11.898438 -11.808594 L 10.175781 -11.808594 C 9.585938 -11.808594 9.496094 -11.414062 9.371094 -11.199219 L 6.898438 -6.789062 L 4.445312 -11.199219 C 4.300781 -11.414062 4.230469 -11.808594 3.621094 -11.808594 L 1.84375 -11.808594 C 1.433594 -11.808594 1.324219 -11.609375 1.324219 -11.289062 L 1.324219 -0.519531 C 1.324219 -0.109375 1.523438 0 1.84375 0 L 3.621094 0 C 3.941406 0 4.140625 -0.109375 4.140625 -0.519531 L 4.140625 -6.59375 L 5.949219 -3.457031 C 6.039062 -3.316406 6.179688 -3.082031 6.449219 -3.082031 L 7.347656 -3.082031 C 7.613281 -3.082031 7.777344 -3.316406 7.867188 -3.457031 L 9.65625 -6.59375 L 9.65625 -0.519531 C 9.65625 -0.109375 9.855469 0 10.175781 0 L 11.898438 0 C 12.21875 0 12.417969 -0.109375 12.417969 -0.519531 L 12.417969 -11.289062 C 12.417969 -11.609375 12.308594 -11.808594 11.898438 -11.808594 Z M 11.898438 -11.808594 "/></g></g></g><g fill="rgb(0%, 0%, 0%)" fill-opacity="1"><g transform="translate(291.497231, 346.784741)"><g><path d="M 11.46875 -0.5 L 7.507812 -11.234375 C 7.347656 -11.609375 7.167969 -11.789062 6.773438 -11.789062 L 5.054688 -11.789062 C 4.660156 -11.789062 4.460938 -11.609375 4.316406 -11.234375 L 0.339844 -0.5 C 0.25 -0.285156 0.25 0 0.644531 0 L 2.527344 0 C 2.921875 0 3.0625 -0.109375 3.207031 -0.539062 L 3.707031 -1.953125 L 8.097656 -1.953125 L 8.601562 -0.539062 C 8.742188 -0.109375 8.886719 0 9.28125 0 L 11.164062 0 C 11.558594 0 11.558594 -0.285156 11.46875 -0.5 Z M 5.914062 -8.421875 L 7.257812 -4.460938 L 4.570312 -4.460938 Z M 5.914062 -8.421875 "/></g></g></g><g fill="rgb(0%, 0%, 0%)" fill-opacity="1"><g transform="translate(305.591729, 346.784741)"><g><path d="M 6.449219 -2.453125 L 5.320312 -2.453125 L 5.320312 -9.300781 L 6.398438 -9.300781 C 6.808594 -9.300781 6.917969 -9.496094 6.917969 -9.820312 L 6.917969 -11.269531 C 6.917969 -11.59375 6.808594 -11.789062 6.398438 -11.789062 L 1.414062 -11.789062 C 1.003906 -11.789062 0.894531 -11.59375 0.894531 -11.269531 L 0.894531 -9.820312 C 0.894531 -9.496094 1.003906 -9.300781 1.414062 -9.300781 L 2.507812 -9.300781 L 2.507812 -2.453125 L 1.378906 -2.453125 C 0.96875 -2.453125 0.859375 -2.257812 0.859375 -1.933594 L 0.859375 -0.519531 C 0.859375 -0.195312 0.96875 0 1.378906 0 L 6.449219 0 C 6.863281 0 6.96875 -0.195312 6.96875 -0.519531 L 6.96875 -1.933594 C 6.96875 -2.257812 6.863281 -2.453125 6.449219 -2.453125 Z M 6.449219 -2.453125 "/></g></g></g><g fill="rgb(0%, 0%, 0%)" fill-opacity="1"><g transform="translate(315.908005, 346.784741)"><g><path d="M 6.878906 -6.84375 C 6.164062 -7.132812 3.53125 -7.523438 3.53125 -8.617188 C 3.53125 -9.425781 4.515625 -9.65625 5.105469 -9.65625 C 5.644531 -9.65625 6.289062 -9.496094 6.628906 -9.171875 C 6.84375 -8.957031 6.933594 -8.816406 7.003906 -8.636719 C 7.09375 -8.402344 7.148438 -8.152344 7.488281 -8.152344 L 9.246094 -8.152344 C 9.65625 -8.152344 9.765625 -8.222656 9.765625 -8.652344 C 9.765625 -11.019531 7.273438 -12.058594 5 -12.058594 C 2.757812 -11.96875 0.644531 -10.820312 0.644531 -8.492188 C 0.644531 -6.21875 2.3125 -5.5 4.121094 -4.925781 C 5.644531 -4.445312 7.238281 -4.425781 7.238281 -3.421875 C 7.238281 -2.417969 6.449219 -2.203125 5.484375 -2.203125 C 4.820312 -2.203125 4.085938 -2.363281 3.726562 -2.796875 C 3.492188 -3.0625 3.40625 -3.296875 3.386719 -3.53125 C 3.351562 -3.976562 3.152344 -4.03125 2.742188 -4.03125 L 1.003906 -4.03125 C 0.589844 -4.03125 0.484375 -3.941406 0.484375 -3.53125 C 0.484375 -1.019531 3.0625 0.269531 5.304688 0.269531 C 8.0625 0.269531 10.070312 -0.949219 10.070312 -3.492188 C 10.070312 -5.929688 8.171875 -6.449219 6.878906 -6.84375 Z M 6.878906 -6.84375 "/></g></g></g><g fill="rgb(0%, 0%, 0%)" fill-opacity="1"><g transform="translate(329.107184, 346.784741)"><g/></g></g><g fill="rgb(0%, 0%, 0%)" fill-opacity="1"><g transform="translate(336.325682, 346.784741)"><g><path d="M 9.300781 -11.789062 L 0.984375 -11.789062 C 0.574219 -11.789062 0.464844 -11.59375 0.464844 -11.269531 L 0.464844 -9.78125 C 0.464844 -9.460938 0.574219 -9.261719 0.984375 -9.261719 L 3.746094 -9.261719 L 3.746094 -0.519531 C 3.746094 -0.109375 3.941406 0 4.265625 0 L 6.039062 0 C 6.359375 0 6.558594 -0.109375 6.558594 -0.519531 L 6.558594 -9.261719 L 9.300781 -9.261719 C 9.710938 -9.261719 9.820312 -9.460938 9.820312 -9.78125 L 9.820312 -11.269531 C 9.820312 -11.59375 9.710938 -11.789062 9.300781 -11.789062 Z M 9.300781 -11.789062 "/></g></g></g><g fill="rgb(0%, 0%, 0%)" fill-opacity="1"><g transform="translate(348.969778, 346.784741)"><g><path d="M 9.871094 -2.507812 L 4.15625 -2.507812 L 4.15625 -4.875 L 8.957031 -4.875 C 9.371094 -4.875 9.476562 -5.070312 9.476562 -5.394531 L 9.476562 -6.789062 C 9.476562 -7.113281 9.371094 -7.308594 8.957031 -7.308594 L 4.15625 -7.308594 L 4.15625 -9.261719 L 9.566406 -9.261719 C 9.980469 -9.261719 10.085938 -9.460938 10.085938 -9.78125 L 10.085938 -11.269531 C 10.085938 -11.59375 9.980469 -11.789062 9.566406 -11.789062 L 1.84375 -11.789062 C 1.433594 -11.789062 1.324219 -11.59375 1.324219 -11.269531 L 1.324219 -0.519531 C 1.324219 -0.195312 1.433594 0 1.84375 0 L 9.871094 0 C 10.285156 0 10.390625 -0.195312 10.390625 -0.519531 L 10.390625 -1.988281 C 10.390625 -2.3125 10.285156 -2.507812 9.871094 -2.507812 Z M 9.871094 -2.507812 "/></g></g></g><g fill="rgb(0%, 0%, 0%)" fill-opacity="1"><g transform="translate(362.562909, 346.784741)"><g><path d="M 10.984375 -0.574219 L 8.457031 -4.246094 C 9.566406 -4.621094 10.949219 -5.929688 10.949219 -7.8125 C 10.949219 -8.957031 10.570312 -9.980469 9.910156 -10.625 C 9.15625 -11.378906 8.296875 -11.773438 6.34375 -11.773438 L 1.828125 -11.773438 C 1.414062 -11.773438 1.324219 -11.574219 1.324219 -11.253906 L 1.324219 -0.519531 C 1.324219 -0.109375 1.503906 0 1.828125 0 L 3.601562 0 C 3.925781 0 4.121094 -0.109375 4.121094 -0.519531 L 4.121094 -9.261719 L 6.503906 -9.261719 C 7.4375 -9.261719 8.152344 -8.671875 8.152344 -7.742188 C 8.152344 -6.898438 7.328125 -6.289062 6.449219 -6.289062 L 6.09375 -6.289062 C 5.679688 -6.289062 5.574219 -6.09375 5.574219 -5.769531 L 5.574219 -4.335938 C 5.574219 -3.835938 5.609375 -3.636719 5.769531 -3.421875 L 7.703125 -0.539062 C 7.957031 -0.160156 8.171875 0 8.601562 0 L 10.714844 0 C 11.054688 0 11.144531 -0.324219 10.984375 -0.574219 Z M 10.984375 -0.574219 "/></g></g></g><g fill="rgb(0%, 0%, 0%)" fill-opacity="1"><g transform="translate(376.854382, 346.784741)"><g><path d="M 10.984375 -0.574219 L 8.457031 -4.246094 C 9.566406 -4.621094 10.949219 -5.929688 10.949219 -7.8125 C 10.949219 -8.957031 10.570312 -9.980469 9.910156 -10.625 C 9.15625 -11.378906 8.296875 -11.773438 6.34375 -11.773438 L 1.828125 -11.773438 C 1.414062 -11.773438 1.324219 -11.574219 1.324219 -11.253906 L 1.324219 -0.519531 C 1.324219 -0.109375 1.503906 0 1.828125 0 L 3.601562 0 C 3.925781 0 4.121094 -0.109375 4.121094 -0.519531 L 4.121094 -9.261719 L 6.503906 -9.261719 C 7.4375 -9.261719 8.152344 -8.671875 8.152344 -7.742188 C 8.152344 -6.898438 7.328125 -6.289062 6.449219 -6.289062 L 6.09375 -6.289062 C 5.679688 -6.289062 5.574219 -6.09375 5.574219 -5.769531 L 5.574219 -4.335938 C 5.574219 -3.835938 5.609375 -3.636719 5.769531 -3.421875 L 7.703125 -0.539062 C 7.957031 -0.160156 8.171875 0 8.601562 0 L 10.714844 0 C 11.054688 0 11.144531 -0.324219 10.984375 -0.574219 Z M 10.984375 -0.574219 "/></g></g></g><g fill="rgb(0%, 0%, 0%)" fill-opacity="1"><g transform="translate(391.145855, 346.784741)"><g><path d="M 3.1875 -12.828125 L 4.945312 -12.828125 C 5.394531 -12.828125 5.535156 -13.078125 5.789062 -13.332031 L 7.578125 -15.265625 C 7.742188 -15.425781 7.6875 -15.765625 7.238281 -15.765625 L 4.964844 -15.765625 C 4.570312 -15.765625 4.425781 -15.714844 4.15625 -15.265625 L 2.957031 -13.332031 C 2.847656 -13.167969 2.847656 -12.828125 3.1875 -12.828125 Z M 7.09375 -2.507812 L 5.714844 -2.507812 L 5.714844 -9.28125 L 6.789062 -9.28125 C 7.203125 -9.28125 7.308594 -9.476562 7.308594 -9.800781 L 7.308594 -11.269531 C 7.308594 -11.59375 7.203125 -11.789062 6.789062 -11.789062 L 1.808594 -11.789062 C 1.398438 -11.789062 1.289062 -11.59375 1.289062 -11.269531 L 1.289062 -9.800781 C 1.289062 -9.476562 1.398438 -9.28125 1.808594 -9.28125 L 2.902344 -9.28125 L 2.902344 -2.507812 L 1.523438 -2.507812 C 1.109375 -2.507812 1.003906 -2.3125 1.003906 -1.988281 L 1.003906 -0.519531 C 1.003906 -0.195312 1.109375 0 1.523438 0 L 7.09375 0 C 7.507812 0 7.613281 -0.195312 7.613281 -0.519531 L 7.613281 -1.988281 C 7.613281 -2.3125 7.507812 -2.507812 7.09375 -2.507812 Z M 7.09375 -2.507812 "/></g></g></g><g fill="rgb(0%, 0%, 0%)" fill-opacity="1"><g transform="translate(402.178394, 346.784741)"><g><path d="M 10.734375 -11.789062 L 8.832031 -11.789062 C 8.347656 -11.789062 8.222656 -11.644531 8.082031 -11.214844 L 5.660156 -3.796875 L 3.226562 -11.214844 C 3.082031 -11.644531 2.957031 -11.789062 2.492188 -11.789062 L 0.5 -11.789062 C 0.160156 -11.789062 0.0898438 -11.503906 0.179688 -11.269531 L 4.03125 -0.539062 C 4.246094 -0.0703125 4.371094 0 4.765625 0 L 6.484375 0 C 6.878906 0 7.003906 -0.0703125 7.222656 -0.539062 L 11.054688 -11.269531 C 11.144531 -11.503906 11.074219 -11.789062 10.734375 -11.789062 Z M 10.734375 -11.789062 "/></g></g></g><g fill="rgb(0%, 0%, 0%)" fill-opacity="1"><g transform="translate(415.932681, 346.784741)"><g><path d="M 9.871094 -2.507812 L 4.15625 -2.507812 L 4.15625 -4.875 L 8.957031 -4.875 C 9.371094 -4.875 9.476562 -5.070312 9.476562 -5.394531 L 9.476562 -6.789062 C 9.476562 -7.113281 9.371094 -7.308594 8.957031 -7.308594 L 4.15625 -7.308594 L 4.15625 -9.261719 L 9.566406 -9.261719 C 9.980469 -9.261719 10.085938 -9.460938 10.085938 -9.78125 L 10.085938 -11.269531 C 10.085938 -11.59375 9.980469 -11.789062 9.566406 -11.789062 L 1.84375 -11.789062 C 1.433594 -11.789062 1.324219 -11.59375 1.324219 -11.269531 L 1.324219 -0.519531 C 1.324219 -0.195312 1.433594 0 1.84375 0 L 9.871094 0 C 10.285156 0 10.390625 -0.195312 10.390625 -0.519531 L 10.390625 -1.988281 C 10.390625 -2.3125 10.285156 -2.507812 9.871094 -2.507812 Z M 9.871094 -2.507812 "/></g></g></g><g fill="rgb(0%, 0%, 0%)" fill-opacity="1"><g transform="translate(429.525812, 346.784741)"><g><path d="M 6.449219 -2.453125 L 5.320312 -2.453125 L 5.320312 -9.300781 L 6.398438 -9.300781 C 6.808594 -9.300781 6.917969 -9.496094 6.917969 -9.820312 L 6.917969 -11.269531 C 6.917969 -11.59375 6.808594 -11.789062 6.398438 -11.789062 L 1.414062 -11.789062 C 1.003906 -11.789062 0.894531 -11.59375 0.894531 -11.269531 L 0.894531 -9.820312 C 0.894531 -9.496094 1.003906 -9.300781 1.414062 -9.300781 L 2.507812 -9.300781 L 2.507812 -2.453125 L 1.378906 -2.453125 C 0.96875 -2.453125 0.859375 -2.257812 0.859375 -1.933594 L 0.859375 -0.519531 C 0.859375 -0.195312 0.96875 0 1.378906 0 L 6.449219 0 C 6.863281 0 6.96875 -0.195312 6.96875 -0.519531 L 6.96875 -1.933594 C 6.96875 -2.257812 6.863281 -2.453125 6.449219 -2.453125 Z M 6.449219 -2.453125 "/></g></g></g><g fill="rgb(0%, 0%, 0%)" fill-opacity="1"><g transform="translate(439.842088, 346.784741)"><g><path d="M 6.878906 -6.84375 C 6.164062 -7.132812 3.53125 -7.523438 3.53125 -8.617188 C 3.53125 -9.425781 4.515625 -9.65625 5.105469 -9.65625 C 5.644531 -9.65625 6.289062 -9.496094 6.628906 -9.171875 C 6.84375 -8.957031 6.933594 -8.816406 7.003906 -8.636719 C 7.09375 -8.402344 7.148438 -8.152344 7.488281 -8.152344 L 9.246094 -8.152344 C 9.65625 -8.152344 9.765625 -8.222656 9.765625 -8.652344 C 9.765625 -11.019531 7.273438 -12.058594 5 -12.058594 C 2.757812 -11.96875 0.644531 -10.820312 0.644531 -8.492188 C 0.644531 -6.21875 2.3125 -5.5 4.121094 -4.925781 C 5.644531 -4.445312 7.238281 -4.425781 7.238281 -3.421875 C 7.238281 -2.417969 6.449219 -2.203125 5.484375 -2.203125 C 4.820312 -2.203125 4.085938 -2.363281 3.726562 -2.796875 C 3.492188 -3.0625 3.40625 -3.296875 3.386719 -3.53125 C 3.351562 -3.976562 3.152344 -4.03125 2.742188 -4.03125 L 1.003906 -4.03125 C 0.589844 -4.03125 0.484375 -3.941406 0.484375 -3.53125 C 0.484375 -1.019531 3.0625 0.269531 5.304688 0.269531 C 8.0625 0.269531 10.070312 -0.949219 10.070312 -3.492188 C 10.070312 -5.929688 8.171875 -6.449219 6.878906 -6.84375 Z M 6.878906 -6.84375 "/></g></g></g><g fill="rgb(0%, 0%, 0%)" fill-opacity="1"><g transform="translate(248.795321, 371.53474)"><g><path d="M 10.085938 -6.574219 L 6.164062 -6.574219 C 5.75 -6.574219 5.644531 -6.378906 5.644531 -6.054688 L 5.644531 -4.660156 C 5.644531 -4.335938 5.75 -4.140625 6.164062 -4.140625 L 7.777344 -4.140625 C 7.777344 -2.757812 6.953125 -2.222656 5.789062 -2.222656 C 4.605469 -2.222656 3.816406 -2.882812 3.816406 -4.03125 L 3.816406 -7.632812 C 3.816406 -8.78125 4.605469 -9.566406 5.789062 -9.566406 C 6.988281 -9.566406 7.632812 -9.03125 7.828125 -8.476562 C 7.917969 -8.222656 7.847656 -7.867188 8.347656 -7.867188 L 10.085938 -7.867188 C 10.5 -7.867188 10.605469 -7.9375 10.605469 -8.367188 C 10.605469 -10.769531 8.027344 -12.058594 5.789062 -12.058594 C 3.671875 -12.058594 0.96875 -10.859375 0.96875 -8.027344 L 0.96875 -3.621094 C 0.96875 -0.804688 3.671875 0.269531 5.789062 0.269531 C 7.828125 0.269531 10.445312 -0.878906 10.605469 -3.457031 L 10.605469 -6.054688 C 10.605469 -6.378906 10.5 -6.574219 10.085938 -6.574219 Z M 10.085938 -6.574219 "/></g></g></g><g fill="rgb(0%, 0%, 0%)" fill-opacity="1"><g transform="translate(262.728668, 371.53474)"><g><path d="M 10.140625 -11.789062 L 8.367188 -11.789062 C 8.046875 -11.789062 7.847656 -11.683594 7.847656 -11.269531 L 7.847656 -3.996094 C 7.847656 -2.867188 7.09375 -2.222656 5.914062 -2.222656 C 4.730469 -2.222656 3.996094 -2.867188 3.996094 -3.996094 L 3.996094 -11.269531 C 3.996094 -11.683594 3.796875 -11.789062 3.476562 -11.789062 L 1.703125 -11.789062 C 1.378906 -11.789062 1.183594 -11.683594 1.183594 -11.269531 L 1.183594 -3.601562 C 1.183594 -0.789062 3.78125 0.269531 5.914062 0.269531 C 8.046875 0.269531 10.660156 -0.789062 10.660156 -3.601562 L 10.660156 -11.269531 C 10.660156 -11.683594 10.464844 -11.789062 10.140625 -11.789062 Z M 10.140625 -11.789062 "/></g></g></g><g fill="rgb(0%, 0%, 0%)" fill-opacity="1"><g transform="translate(276.930608, 371.53474)"><g><path d="M 9.871094 -2.507812 L 4.15625 -2.507812 L 4.15625 -4.875 L 8.957031 -4.875 C 9.371094 -4.875 9.476562 -5.070312 9.476562 -5.394531 L 9.476562 -6.789062 C 9.476562 -7.113281 9.371094 -7.308594 8.957031 -7.308594 L 4.15625 -7.308594 L 4.15625 -9.261719 L 9.566406 -9.261719 C 9.980469 -9.261719 10.085938 -9.460938 10.085938 -9.78125 L 10.085938 -11.269531 C 10.085938 -11.59375 9.980469 -11.789062 9.566406 -11.789062 L 1.84375 -11.789062 C 1.433594 -11.789062 1.324219 -11.59375 1.324219 -11.269531 L 1.324219 -0.519531 C 1.324219 -0.195312 1.433594 0 1.84375 0 L 9.871094 0 C 10.285156 0 10.390625 -0.195312 10.390625 -0.519531 L 10.390625 -1.988281 C 10.390625 -2.3125 10.285156 -2.507812 9.871094 -2.507812 Z M 9.871094 -2.507812 "/></g></g></g><g fill="rgb(0%, 0%, 0%)" fill-opacity="1"><g transform="translate(290.523733, 371.53474)"><g><path d="M 10.984375 -0.574219 L 8.457031 -4.246094 C 9.566406 -4.621094 10.949219 -5.929688 10.949219 -7.8125 C 10.949219 -8.957031 10.570312 -9.980469 9.910156 -10.625 C 9.15625 -11.378906 8.296875 -11.773438 6.34375 -11.773438 L 1.828125 -11.773438 C 1.414062 -11.773438 1.324219 -11.574219 1.324219 -11.253906 L 1.324219 -0.519531 C 1.324219 -0.109375 1.503906 0 1.828125 0 L 3.601562 0 C 3.925781 0 4.121094 -0.109375 4.121094 -0.519531 L 4.121094 -9.261719 L 6.503906 -9.261719 C 7.4375 -9.261719 8.152344 -8.671875 8.152344 -7.742188 C 8.152344 -6.898438 7.328125 -6.289062 6.449219 -6.289062 L 6.09375 -6.289062 C 5.679688 -6.289062 5.574219 -6.09375 5.574219 -5.769531 L 5.574219 -4.335938 C 5.574219 -3.835938 5.609375 -3.636719 5.769531 -3.421875 L 7.703125 -0.539062 C 7.957031 -0.160156 8.171875 0 8.601562 0 L 10.714844 0 C 11.054688 0 11.144531 -0.324219 10.984375 -0.574219 Z M 10.984375 -0.574219 "/></g></g></g><g fill="rgb(0%, 0%, 0%)" fill-opacity="1"><g transform="translate(304.8152, 371.53474)"><g><path d="M 10.984375 -0.574219 L 8.457031 -4.246094 C 9.566406 -4.621094 10.949219 -5.929688 10.949219 -7.8125 C 10.949219 -8.957031 10.570312 -9.980469 9.910156 -10.625 C 9.15625 -11.378906 8.296875 -11.773438 6.34375 -11.773438 L 1.828125 -11.773438 C 1.414062 -11.773438 1.324219 -11.574219 1.324219 -11.253906 L 1.324219 -0.519531 C 1.324219 -0.109375 1.503906 0 1.828125 0 L 3.601562 0 C 3.925781 0 4.121094 -0.109375 4.121094 -0.519531 L 4.121094 -9.261719 L 6.503906 -9.261719 C 7.4375 -9.261719 8.152344 -8.671875 8.152344 -7.742188 C 8.152344 -6.898438 7.328125 -6.289062 6.449219 -6.289062 L 6.09375 -6.289062 C 5.679688 -6.289062 5.574219 -6.09375 5.574219 -5.769531 L 5.574219 -4.335938 C 5.574219 -3.835938 5.609375 -3.636719 5.769531 -3.421875 L 7.703125 -0.539062 C 7.957031 -0.160156 8.171875 0 8.601562 0 L 10.714844 0 C 11.054688 0 11.144531 -0.324219 10.984375 -0.574219 Z M 10.984375 -0.574219 "/></g></g></g><g fill="rgb(0%, 0%, 0%)" fill-opacity="1"><g transform="translate(319.106667, 371.53474)"><g><path d="M 11.46875 -0.5 L 7.507812 -11.234375 C 7.347656 -11.609375 7.167969 -11.789062 6.773438 -11.789062 L 5.054688 -11.789062 C 4.660156 -11.789062 4.460938 -11.609375 4.316406 -11.234375 L 0.339844 -0.5 C 0.25 -0.285156 0.25 0 0.644531 0 L 2.527344 0 C 2.921875 0 3.0625 -0.109375 3.207031 -0.539062 L 3.707031 -1.953125 L 8.097656 -1.953125 L 8.601562 -0.539062 C 8.742188 -0.109375 8.886719 0 9.28125 0 L 11.164062 0 C 11.558594 0 11.558594 -0.285156 11.46875 -0.5 Z M 5.914062 -8.421875 L 7.257812 -4.460938 L 4.570312 -4.460938 Z M 5.914062 -8.421875 "/></g></g></g><g fill="rgb(0%, 0%, 0%)" fill-opacity="1"><g transform="translate(333.20117, 371.53474)"><g><path d="M 6.878906 -6.84375 C 6.164062 -7.132812 3.53125 -7.523438 3.53125 -8.617188 C 3.53125 -9.425781 4.515625 -9.65625 5.105469 -9.65625 C 5.644531 -9.65625 6.289062 -9.496094 6.628906 -9.171875 C 6.84375 -8.957031 6.933594 -8.816406 7.003906 -8.636719 C 7.09375 -8.402344 7.148438 -8.152344 7.488281 -8.152344 L 9.246094 -8.152344 C 9.65625 -8.152344 9.765625 -8.222656 9.765625 -8.652344 C 9.765625 -11.019531 7.273438 -12.058594 5 -12.058594 C 2.757812 -11.96875 0.644531 -10.820312 0.644531 -8.492188 C 0.644531 -6.21875 2.3125 -5.5 4.121094 -4.925781 C 5.644531 -4.445312 7.238281 -4.425781 7.238281 -3.421875 C 7.238281 -2.417969 6.449219 -2.203125 5.484375 -2.203125 C 4.820312 -2.203125 4.085938 -2.363281 3.726562 -2.796875 C 3.492188 -3.0625 3.40625 -3.296875 3.386719 -3.53125 C 3.351562 -3.976562 3.152344 -4.03125 2.742188 -4.03125 L 1.003906 -4.03125 C 0.589844 -4.03125 0.484375 -3.941406 0.484375 -3.53125 C 0.484375 -1.019531 3.0625 0.269531 5.304688 0.269531 C 8.0625 0.269531 10.070312 -0.949219 10.070312 -3.492188 C 10.070312 -5.929688 8.171875 -6.449219 6.878906 -6.84375 Z M 6.878906 -6.84375 "/></g></g></g><g fill="rgb(0%, 0%, 0%)" fill-opacity="1"><g transform="translate(346.400349, 371.53474)"><g><path d="M 2.527344 -3.707031 L 3.40625 -3.707031 C 3.816406 -3.707031 3.851562 -3.761719 3.90625 -4.230469 C 4.675781 -11.304688 4.695312 -11.359375 4.695312 -11.414062 C 4.695312 -11.734375 4.53125 -11.789062 4.15625 -11.789062 L 1.757812 -11.789062 C 1.398438 -11.789062 1.234375 -11.71875 1.234375 -11.414062 C 1.234375 -11.359375 1.253906 -11.304688 2.007812 -4.230469 C 2.058594 -3.78125 2.097656 -3.707031 2.527344 -3.707031 Z M 3.960938 -3.027344 L 1.972656 -3.027344 C 1.648438 -3.027344 1.453125 -2.921875 1.453125 -2.507812 L 1.453125 -0.519531 C 1.453125 -0.109375 1.648438 0 1.972656 0 L 3.960938 0 C 4.28125 0 4.480469 -0.109375 4.480469 -0.519531 L 4.480469 -2.507812 C 4.480469 -2.921875 4.28125 -3.027344 3.960938 -3.027344 Z M 3.960938 -3.027344 "/></g></g></g></svg>