<svg xmlns="http://www.w3.org/2000/svg" xmlns:xlink="http://www.w3.org/1999/xlink" width="800" zoomAndPan="magnify" viewBox="0 0 600 599.999999" height="800" preserveAspectRatio="xMidYMid meet" version="1.0"><defs><g/></defs><path fill="rgb(49.798584%, 100%, 66.668701%)" d="M 299.847656 163.554688 C 224.578125 163.554688 163.554688 224.578125 163.554688 299.847656 C 163.554688 375.121094 224.578125 436.144531 299.847656 436.144531 C 375.121094 436.144531 436.144531 375.121094 436.144531 299.847656 C 436.144531 224.578125 375.121094 163.554688 299.847656 163.554688 " fill-opacity="1" fill-rule="nonzero"/><g fill="rgb(0%, 0%, 0%)" fill-opacity="1"><g transform="translate(259.794775, 251.177761)"><g><path d="M 11.464844 -0.5 L 7.507812 -11.234375 C 7.347656 -11.609375 7.167969 -11.789062 6.773438 -11.789062 L 5.050781 -11.789062 C 4.660156 -11.789062 4.460938 -11.609375 4.316406 -11.234375 L 0.339844 -0.5 C 0.25 -0.285156 0.25 0 0.644531 0 L 2.527344 0 C 2.921875 0 3.0625 -0.109375 3.207031 -0.539062 L 3.707031 -1.953125 L 8.097656 -1.953125 L 8.601562 -0.539062 C 8.742188 -0.109375 8.886719 0 9.28125 0 L 11.160156 0 C 11.554688 0 11.554688 -0.285156 11.464844 -0.5 Z M 5.914062 -8.421875 L 7.257812 -4.460938 L 4.570312 -4.460938 Z M 5.914062 -8.421875 "/></g></g></g><g fill="rgb(0%, 0%, 0%)" fill-opacity="1"><g transform="translate(273.882897, 251.177761)"><g><path d="M 9.296875 -2.507812 L 4.140625 -2.507812 L 4.140625 -11.269531 C 4.140625 -11.679688 3.941406 -11.789062 3.617188 -11.789062 L 1.84375 -11.789062 C 1.523438 -11.789062 1.324219 -11.679688 1.324219 -11.269531 L 1.324219 -0.519531 C 1.324219 -0.195312 1.433594 0 1.84375 0 L 9.296875 0 C 9.710938 0 9.816406 -0.195312 9.816406 -0.519531 L 9.816406 -1.988281 C 9.816406 -2.3125 9.710938 -2.507812 9.296875 -2.507812 Z M 9.296875 -2.507812 "/></g></g></g><g fill="rgb(0%, 0%, 0%)" fill-opacity="1"><g transform="translate(286.664572, 251.177761)"><g><path d="M 10.085938 -6.574219 L 6.164062 -6.574219 C 5.75 -6.574219 5.644531 -6.378906 5.644531 -6.054688 L 5.644531 -4.660156 C 5.644531 -4.335938 5.75 -4.140625 6.164062 -4.140625 L 7.777344 -4.140625 C 7.777344 -2.757812 6.953125 -2.222656 5.785156 -2.222656 C 4.605469 -2.222656 3.816406 -2.882812 3.816406 -4.03125 L 3.816406 -7.632812 C 3.816406 -8.777344 4.605469 -9.566406 5.785156 -9.566406 C 6.988281 -9.566406 7.632812 -9.03125 7.828125 -8.472656 C 7.917969 -8.222656 7.847656 -7.867188 8.347656 -7.867188 L 10.085938 -7.867188 C 10.5 -7.867188 10.605469 -7.9375 10.605469 -8.367188 C 10.605469 -10.769531 8.027344 -12.058594 5.785156 -12.058594 C 3.671875 -12.058594 0.96875 -10.855469 0.96875 -8.027344 L 0.96875 -3.617188 C 0.96875 -0.804688 3.671875 0.269531 5.785156 0.269531 C 7.828125 0.269531 10.445312 -0.878906 10.605469 -3.457031 L 10.605469 -6.054688 C 10.605469 -6.378906 10.5 -6.574219 10.085938 -6.574219 Z M 10.085938 -6.574219 "/></g></g></g><g fill="rgb(0%, 0%, 0%)" fill-opacity="1"><g transform="translate(300.591624, 251.177761)"><g><path d="M 10.140625 -11.789062 L 8.367188 -11.789062 C 8.042969 -11.789062 7.847656 -11.679688 7.847656 -11.269531 L 7.847656 -3.996094 C 7.847656 -2.867188 7.09375 -2.222656 5.914062 -2.222656 C 4.730469 -2.222656 3.996094 -2.867188 3.996094 -3.996094 L 3.996094 -11.269531 C 3.996094 -11.679688 3.796875 -11.789062 3.476562 -11.789062 L 1.703125 -11.789062 C 1.378906 -11.789062 1.183594 -11.679688 1.183594 -11.269531 L 1.183594 -3.601562 C 1.183594 -0.789062 3.78125 0.269531 5.914062 0.269531 C 8.042969 0.269531 10.660156 -0.789062 10.660156 -3.601562 L 10.660156 -11.269531 C 10.660156 -11.679688 10.464844 -11.789062 10.140625 -11.789062 Z M 10.140625 -11.789062 "/></g></g></g><g fill="rgb(0%, 0%, 0%)" fill-opacity="1"><g transform="translate(314.78712, 251.177761)"><g><path d="M 10.375 -11.789062 L 8.652344 -11.789062 C 8.332031 -11.789062 8.132812 -11.679688 8.132812 -11.269531 L 8.132812 -5.050781 L 4.335938 -11.179688 C 4.101562 -11.539062 3.976562 -11.789062 3.53125 -11.789062 L 1.84375 -11.789062 C 1.433594 -11.789062 1.324219 -11.59375 1.324219 -11.269531 L 1.324219 -0.519531 C 1.324219 -0.109375 1.523438 0 1.84375 0 L 3.617188 0 C 3.941406 0 4.140625 -0.109375 4.140625 -0.519531 L 4.140625 -6.753906 L 7.9375 -0.609375 C 8.171875 -0.25 8.296875 0 8.742188 0 L 10.375 0 C 10.785156 0 10.894531 -0.195312 10.894531 -0.519531 L 10.894531 -11.269531 C 10.894531 -11.679688 10.695312 -11.789062 10.375 -11.789062 Z M 10.375 -11.789062 "/></g></g></g><g fill="rgb(0%, 0%, 0%)" fill-opacity="1"><g transform="translate(329.358452, 251.177761)"><g><path d="M 6.878906 -6.84375 C 6.164062 -7.128906 3.53125 -7.523438 3.53125 -8.617188 C 3.53125 -9.425781 4.515625 -9.65625 5.105469 -9.65625 C 5.644531 -9.65625 6.289062 -9.496094 6.628906 -9.171875 C 6.84375 -8.957031 6.933594 -8.816406 7.003906 -8.636719 C 7.09375 -8.402344 7.148438 -8.152344 7.488281 -8.152344 L 9.246094 -8.152344 C 9.65625 -8.152344 9.765625 -8.222656 9.765625 -8.652344 C 9.765625 -11.019531 7.273438 -12.058594 5 -12.058594 C 2.757812 -11.96875 0.644531 -10.820312 0.644531 -8.492188 C 0.644531 -6.21875 2.3125 -5.5 4.121094 -4.925781 C 5.644531 -4.441406 7.238281 -4.425781 7.238281 -3.421875 C 7.238281 -2.417969 6.449219 -2.203125 5.484375 -2.203125 C 4.820312 -2.203125 4.085938 -2.363281 3.726562 -2.796875 C 3.492188 -3.0625 3.402344 -3.296875 3.386719 -3.53125 C 3.351562 -3.976562 3.152344 -4.03125 2.742188 -4.03125 L 1.003906 -4.03125 C 0.589844 -4.03125 0.484375 -3.941406 0.484375 -3.53125 C 0.484375 -1.019531 3.0625 0.269531 5.304688 0.269531 C 8.0625 0.269531 10.070312 -0.949219 10.070312 -3.492188 C 10.070312 -5.929688 8.171875 -6.449219 6.878906 -6.84375 Z M 6.878906 -6.84375 "/></g></g></g><g fill="rgb(0%, 0%, 0%)" fill-opacity="1"><g transform="translate(199.87512, 275.262703)"><g><path d="M 11.464844 -0.5 L 7.507812 -11.234375 C 7.347656 -11.609375 7.167969 -11.789062 6.773438 -11.789062 L 5.050781 -11.789062 C 4.660156 -11.789062 4.460938 -11.609375 4.316406 -11.234375 L 0.339844 -0.5 C 0.25 -0.285156 0.25 0 0.644531 0 L 2.527344 0 C 2.921875 0 3.0625 -0.109375 3.207031 -0.539062 L 3.707031 -1.953125 L 8.097656 -1.953125 L 8.601562 -0.539062 C 8.742188 -0.109375 8.886719 0 9.28125 0 L 11.160156 0 C 11.554688 0 11.554688 -0.285156 11.464844 -0.5 Z M 5.914062 -8.421875 L 7.257812 -4.460938 L 4.570312 -4.460938 Z M 5.914062 -8.421875 "/></g></g></g><g fill="rgb(0%, 0%, 0%)" fill-opacity="1"><g transform="translate(213.963242, 275.262703)"><g><path d="M 10.375 -11.789062 L 8.652344 -11.789062 C 8.332031 -11.789062 8.132812 -11.679688 8.132812 -11.269531 L 8.132812 -5.050781 L 4.335938 -11.179688 C 4.101562 -11.539062 3.976562 -11.789062 3.53125 -11.789062 L 1.84375 -11.789062 C 1.433594 -11.789062 1.324219 -11.59375 1.324219 -11.269531 L 1.324219 -0.519531 C 1.324219 -0.109375 1.523438 0 1.84375 0 L 3.617188 0 C 3.941406 0 4.140625 -0.109375 4.140625 -0.519531 L 4.140625 -6.753906 L 7.9375 -0.609375 C 8.171875 -0.25 8.296875 0 8.742188 0 L 10.375 0 C 10.785156 0 10.894531 -0.195312 10.894531 -0.519531 L 10.894531 -11.269531 C 10.894531 -11.679688 10.695312 -11.789062 10.375 -11.789062 Z M 10.375 -11.789062 "/></g></g></g><g fill="rgb(0%, 0%, 0%)" fill-opacity="1"><g transform="translate(228.534574, 275.262703)"><g><path d="M 9.296875 -11.789062 L 0.984375 -11.789062 C 0.574219 -11.789062 0.464844 -11.59375 0.464844 -11.269531 L 0.464844 -9.78125 C 0.464844 -9.460938 0.574219 -9.261719 0.984375 -9.261719 L 3.746094 -9.261719 L 3.746094 -0.519531 C 3.746094 -0.109375 3.941406 0 4.265625 0 L 6.039062 0 C 6.359375 0 6.558594 -0.109375 6.558594 -0.519531 L 6.558594 -9.261719 L 9.296875 -9.261719 C 9.710938 -9.261719 9.816406 -9.460938 9.816406 -9.78125 L 9.816406 -11.269531 C 9.816406 -11.59375 9.710938 -11.789062 9.296875 -11.789062 Z M 9.296875 -11.789062 "/></g></g></g><g fill="rgb(0%, 0%, 0%)" fill-opacity="1"><g transform="translate(241.173085, 275.262703)"><g><path d="M 6.449219 -2.453125 L 5.320312 -2.453125 L 5.320312 -9.296875 L 6.394531 -9.296875 C 6.808594 -9.296875 6.914062 -9.496094 6.914062 -9.816406 L 6.914062 -11.269531 C 6.914062 -11.59375 6.808594 -11.789062 6.394531 -11.789062 L 1.414062 -11.789062 C 1.003906 -11.789062 0.894531 -11.59375 0.894531 -11.269531 L 0.894531 -9.816406 C 0.894531 -9.496094 1.003906 -9.296875 1.414062 -9.296875 L 2.507812 -9.296875 L 2.507812 -2.453125 L 1.378906 -2.453125 C 0.96875 -2.453125 0.859375 -2.257812 0.859375 -1.933594 L 0.859375 -0.519531 C 0.859375 -0.195312 0.96875 0 1.378906 0 L 6.449219 0 C 6.863281 0 6.96875 -0.195312 6.96875 -0.519531 L 6.96875 -1.933594 C 6.96875 -2.257812 6.863281 -2.453125 6.449219 -2.453125 Z M 6.449219 -2.453125 "/></g></g></g><g fill="rgb(0%, 0%, 0%)" fill-opacity="1"><g transform="translate(251.485052, 275.262703)"><g><path d="M 9.730469 -6.109375 C 9.890625 -6.179688 11.035156 -6.753906 11.035156 -8.5625 C 11.035156 -10.25 9.78125 -11.808594 6.863281 -11.808594 L 1.84375 -11.808594 C 1.433594 -11.808594 1.324219 -11.609375 1.324219 -11.289062 L 1.324219 -0.519531 C 1.324219 -0.195312 1.433594 0 1.84375 0 L 7.113281 0 C 9.601562 0 11.378906 -1.164062 11.378906 -3.441406 C 11.378906 -5.375 9.871094 -6.054688 9.730469 -6.109375 Z M 7.148438 -2.542969 L 4.140625 -2.542969 L 4.140625 -9.28125 L 6.863281 -9.28125 C 7.792969 -9.28125 8.347656 -9.082031 8.347656 -8.277344 C 8.347656 -7.578125 7.902344 -7.203125 6.863281 -7.203125 L 6.628906 -7.203125 C 6.21875 -7.203125 6.109375 -7.003906 6.109375 -6.683594 L 6.109375 -5.320312 C 6.109375 -5 6.21875 -4.800781 6.628906 -4.800781 L 7.042969 -4.800781 C 7.902344 -4.800781 8.527344 -4.550781 8.527344 -3.707031 C 8.527344 -2.902344 8.027344 -2.542969 7.148438 -2.542969 Z M 7.148438 -2.542969 "/></g></g></g><g fill="rgb(0%, 0%, 0%)" fill-opacity="1"><g transform="translate(266.145873, 275.262703)"><g><path d="M 6.449219 -2.453125 L 5.320312 -2.453125 L 5.320312 -9.296875 L 6.394531 -9.296875 C 6.808594 -9.296875 6.914062 -9.496094 6.914062 -9.816406 L 6.914062 -11.269531 C 6.914062 -11.59375 6.808594 -11.789062 6.394531 -11.789062 L 1.414062 -11.789062 C 1.003906 -11.789062 0.894531 -11.59375 0.894531 -11.269531 L 0.894531 -9.816406 C 0.894531 -9.496094 1.003906 -9.296875 1.414062 -9.296875 L 2.507812 -9.296875 L 2.507812 -2.453125 L 1.378906 -2.453125 C 0.96875 -2.453125 0.859375 -2.257812 0.859375 -1.933594 L 0.859375 -0.519531 C 0.859375 -0.195312 0.96875 0 1.378906 0 L 6.449219 0 C 6.863281 0 6.96875 -0.195312 6.96875 -0.519531 L 6.96875 -1.933594 C 6.96875 -2.257812 6.863281 -2.453125 6.449219 -2.453125 Z M 6.449219 -2.453125 "/></g></g></g><g fill="rgb(0%, 0%, 0%)" fill-opacity="1"><g transform="translate(276.45784, 275.262703)"><g><path d="M 4.085938 -12.828125 L 5.839844 -12.828125 C 6.289062 -12.828125 6.433594 -13.078125 6.683594 -13.328125 L 8.472656 -15.265625 C 8.636719 -15.425781 8.582031 -15.765625 8.132812 -15.765625 L 5.859375 -15.765625 C 5.464844 -15.765625 5.320312 -15.710938 5.050781 -15.265625 L 3.851562 -13.328125 C 3.746094 -13.167969 3.746094 -12.828125 4.085938 -12.828125 Z M 10.589844 -3.78125 L 10.589844 -8.007812 C 10.589844 -10.839844 7.902344 -12.058594 5.769531 -12.058594 C 3.636719 -12.058594 0.984375 -10.839844 0.984375 -8.007812 L 0.984375 -3.78125 C 0.984375 -0.949219 3.636719 0.269531 5.769531 0.269531 C 7.902344 0.269531 10.589844 -0.949219 10.589844 -3.78125 Z M 7.777344 -7.757812 L 7.777344 -4.03125 C 7.777344 -2.882812 6.953125 -2.222656 5.769531 -2.222656 C 4.605469 -2.222656 3.78125 -2.882812 3.78125 -4.03125 L 3.78125 -7.757812 C 3.78125 -8.90625 4.605469 -9.566406 5.769531 -9.566406 C 6.953125 -9.566406 7.777344 -8.90625 7.777344 -7.757812 Z M 7.777344 -7.757812 "/></g></g></g><g fill="rgb(0%, 0%, 0%)" fill-opacity="1"><g transform="translate(290.367012, 275.262703)"><g><path d="M 9.296875 -11.789062 L 0.984375 -11.789062 C 0.574219 -11.789062 0.464844 -11.59375 0.464844 -11.269531 L 0.464844 -9.78125 C 0.464844 -9.460938 0.574219 -9.261719 0.984375 -9.261719 L 3.746094 -9.261719 L 3.746094 -0.519531 C 3.746094 -0.109375 3.941406 0 4.265625 0 L 6.039062 0 C 6.359375 0 6.558594 -0.109375 6.558594 -0.519531 L 6.558594 -9.261719 L 9.296875 -9.261719 C 9.710938 -9.261719 9.816406 -9.460938 9.816406 -9.78125 L 9.816406 -11.269531 C 9.816406 -11.59375 9.710938 -11.789062 9.296875 -11.789062 Z M 9.296875 -11.789062 "/></g></g></g><g fill="rgb(0%, 0%, 0%)" fill-opacity="1"><g transform="translate(303.005518, 275.262703)"><g><path d="M 6.449219 -2.453125 L 5.320312 -2.453125 L 5.320312 -9.296875 L 6.394531 -9.296875 C 6.808594 -9.296875 6.914062 -9.496094 6.914062 -9.816406 L 6.914062 -11.269531 C 6.914062 -11.59375 6.808594 -11.789062 6.394531 -11.789062 L 1.414062 -11.789062 C 1.003906 -11.789062 0.894531 -11.59375 0.894531 -11.269531 L 0.894531 -9.816406 C 0.894531 -9.496094 1.003906 -9.296875 1.414062 -9.296875 L 2.507812 -9.296875 L 2.507812 -2.453125 L 1.378906 -2.453125 C 0.96875 -2.453125 0.859375 -2.257812 0.859375 -1.933594 L 0.859375 -0.519531 C 0.859375 -0.195312 0.96875 0 1.378906 0 L 6.449219 0 C 6.863281 0 6.96875 -0.195312 6.96875 -0.519531 L 6.96875 -1.933594 C 6.96875 -2.257812 6.863281 -2.453125 6.449219 -2.453125 Z M 6.449219 -2.453125 "/></g></g></g><g fill="rgb(0%, 0%, 0%)" fill-opacity="1"><g transform="translate(313.31748, 275.262703)"><g><path d="M 10.410156 -3.492188 C 10.410156 -3.921875 10.265625 -4.101562 9.871094 -4.101562 L 8.117188 -4.101562 C 7.722656 -4.101562 7.6875 -3.816406 7.632812 -3.457031 C 7.488281 -2.597656 6.71875 -2.238281 5.75 -2.238281 C 4.570312 -2.238281 3.761719 -2.882812 3.761719 -4.03125 L 3.761719 -7.757812 C 3.761719 -8.886719 4.570312 -9.550781 5.75 -9.550781 C 6.71875 -9.550781 7.21875 -9.28125 7.597656 -8.691406 C 7.738281 -8.472656 7.757812 -8.132812 8.132812 -8.132812 L 9.855469 -8.132812 C 10.265625 -8.132812 10.410156 -8.222656 10.410156 -8.652344 C 10.175781 -10.929688 7.972656 -12.058594 5.75 -12.058594 C 3.617188 -12.058594 0.949219 -10.820312 0.949219 -8.007812 L 0.949219 -3.78125 C 0.949219 -0.96875 3.617188 0.269531 5.75 0.269531 C 7.972656 0.269531 10.410156 -1.183594 10.410156 -3.492188 Z M 10.410156 -3.492188 "/></g></g></g><g fill="rgb(0%, 0%, 0%)" fill-opacity="1"><g transform="translate(326.993989, 275.262703)"><g><path d="M 10.589844 -3.78125 L 10.589844 -8.007812 C 10.589844 -10.839844 7.902344 -12.058594 5.769531 -12.058594 C 3.636719 -12.058594 0.984375 -10.839844 0.984375 -8.007812 L 0.984375 -3.78125 C 0.984375 -0.949219 3.636719 0.269531 5.769531 0.269531 C 7.902344 0.269531 10.589844 -0.949219 10.589844 -3.78125 Z M 7.777344 -7.757812 L 7.777344 -4.03125 C 7.777344 -2.882812 6.953125 -2.222656 5.769531 -2.222656 C 4.605469 -2.222656 3.78125 -2.882812 3.78125 -4.03125 L 3.78125 -7.757812 C 3.78125 -8.90625 4.605469 -9.566406 5.769531 -9.566406 C 6.953125 -9.566406 7.777344 -8.90625 7.777344 -7.757812 Z M 7.777344 -7.757812 "/></g></g></g><g fill="rgb(0%, 0%, 0%)" fill-opacity="1"><g transform="translate(340.90315, 275.262703)"><g><path d="M 6.878906 -6.84375 C 6.164062 -7.128906 3.53125 -7.523438 3.53125 -8.617188 C 3.53125 -9.425781 4.515625 -9.65625 5.105469 -9.65625 C 5.644531 -9.65625 6.289062 -9.496094 6.628906 -9.171875 C 6.84375 -8.957031 6.933594 -8.816406 7.003906 -8.636719 C 7.09375 -8.402344 7.148438 -8.152344 7.488281 -8.152344 L 9.246094 -8.152344 C 9.65625 -8.152344 9.765625 -8.222656 9.765625 -8.652344 C 9.765625 -11.019531 7.273438 -12.058594 5 -12.058594 C 2.757812 -11.96875 0.644531 -10.820312 0.644531 -8.492188 C 0.644531 -6.21875 2.3125 -5.5 4.121094 -4.925781 C 5.644531 -4.441406 7.238281 -4.425781 7.238281 -3.421875 C 7.238281 -2.417969 6.449219 -2.203125 5.484375 -2.203125 C 4.820312 -2.203125 4.085938 -2.363281 3.726562 -2.796875 C 3.492188 -3.0625 3.402344 -3.296875 3.386719 -3.53125 C 3.351562 -3.976562 3.152344 -4.03125 2.742188 -4.03125 L 1.003906 -4.03125 C 0.589844 -4.03125 0.484375 -3.941406 0.484375 -3.53125 C 0.484375 -1.019531 3.0625 0.269531 5.304688 0.269531 C 8.0625 0.269531 10.070312 -0.949219 10.070312 -3.492188 C 10.070312 -5.929688 8.171875 -6.449219 6.878906 -6.84375 Z M 6.878906 -6.84375 "/></g></g></g><g fill="rgb(0%, 0%, 0%)" fill-opacity="1"><g transform="translate(354.096449, 275.262703)"><g/></g></g><g fill="rgb(0%, 0%, 0%)" fill-opacity="1"><g transform="translate(361.312307, 275.262703)"><g><path d="M 6.878906 -6.84375 C 6.164062 -7.128906 3.53125 -7.523438 3.53125 -8.617188 C 3.53125 -9.425781 4.515625 -9.65625 5.105469 -9.65625 C 5.644531 -9.65625 6.289062 -9.496094 6.628906 -9.171875 C 6.84375 -8.957031 6.933594 -8.816406 7.003906 -8.636719 C 7.09375 -8.402344 7.148438 -8.152344 7.488281 -8.152344 L 9.246094 -8.152344 C 9.65625 -8.152344 9.765625 -8.222656 9.765625 -8.652344 C 9.765625 -11.019531 7.273438 -12.058594 5 -12.058594 C 2.757812 -11.96875 0.644531 -10.820312 0.644531 -8.492188 C 0.644531 -6.21875 2.3125 -5.5 4.121094 -4.925781 C 5.644531 -4.441406 7.238281 -4.425781 7.238281 -3.421875 C 7.238281 -2.417969 6.449219 -2.203125 5.484375 -2.203125 C 4.820312 -2.203125 4.085938 -2.363281 3.726562 -2.796875 C 3.492188 -3.0625 3.402344 -3.296875 3.386719 -3.53125 C 3.351562 -3.976562 3.152344 -4.03125 2.742188 -4.03125 L 1.003906 -4.03125 C 0.589844 -4.03125 0.484375 -3.941406 0.484375 -3.53125 C 0.484375 -1.019531 3.0625 0.269531 5.304688 0.269531 C 8.0625 0.269531 10.070312 -0.949219 10.070312 -3.492188 C 10.070312 -5.929688 8.171875 -6.449219 6.878906 -6.84375 Z M 6.878906 -6.84375 "/></g></g></g><g fill="rgb(0%, 0%, 0%)" fill-opacity="1"><g transform="translate(374.505606, 275.262703)"><g><path d="M 9.171875 -15.175781 L 8.347656 -15.175781 C 8.027344 -15.175781 7.953125 -15.03125 7.902344 -14.851562 C 7.792969 -14.496094 7.507812 -14.40625 7.273438 -14.441406 C 7.058594 -14.476562 6.003906 -14.851562 6.003906 -14.851562 C 5.609375 -14.996094 5.015625 -15.175781 4.550781 -15.175781 C 3.386719 -15.175781 2.617188 -14.261719 2.617188 -13.203125 L 2.617188 -13.1875 C 2.617188 -13.078125 2.617188 -12.828125 2.832031 -12.828125 L 3.65625 -12.828125 C 3.976562 -12.828125 4.050781 -12.972656 4.101562 -13.152344 C 4.210938 -13.507812 4.496094 -13.597656 4.730469 -13.5625 C 4.945312 -13.527344 6.003906 -13.152344 6.003906 -13.152344 C 6.394531 -13.007812 6.988281 -12.828125 7.453125 -12.828125 C 8.617188 -12.828125 9.386719 -13.742188 9.386719 -14.800781 L 9.386719 -14.816406 C 9.386719 -14.925781 9.386719 -15.175781 9.171875 -15.175781 Z M 11.464844 -0.5 L 7.507812 -11.234375 C 7.347656 -11.609375 7.167969 -11.789062 6.773438 -11.789062 L 5.050781 -11.789062 C 4.660156 -11.789062 4.460938 -11.609375 4.316406 -11.234375 L 0.339844 -0.5 C 0.25 -0.285156 0.25 0 0.644531 0 L 2.527344 0 C 2.921875 0 3.0625 -0.109375 3.207031 -0.539062 L 3.707031 -1.953125 L 8.097656 -1.953125 L 8.601562 -0.539062 C 8.742188 -0.109375 8.886719 0 9.28125 0 L 11.160156 0 C 11.554688 0 11.554688 -0.285156 11.464844 -0.5 Z M 5.914062 -8.421875 L 7.257812 -4.460938 L 4.570312 -4.460938 Z M 5.914062 -8.421875 "/></g></g></g><g fill="rgb(0%, 0%, 0%)" fill-opacity="1"><g transform="translate(388.593723, 275.262703)"><g><path d="M 10.589844 -3.78125 L 10.589844 -8.007812 C 10.589844 -10.839844 7.902344 -12.058594 5.769531 -12.058594 C 3.636719 -12.058594 0.984375 -10.839844 0.984375 -8.007812 L 0.984375 -3.78125 C 0.984375 -0.949219 3.636719 0.269531 5.769531 0.269531 C 7.902344 0.269531 10.589844 -0.949219 10.589844 -3.78125 Z M 7.777344 -7.757812 L 7.777344 -4.03125 C 7.777344 -2.882812 6.953125 -2.222656 5.769531 -2.222656 C 4.605469 -2.222656 3.78125 -2.882812 3.78125 -4.03125 L 3.78125 -7.757812 C 3.78125 -8.90625 4.605469 -9.566406 5.769531 -9.566406 C 6.953125 -9.566406 7.777344 -8.90625 7.777344 -7.757812 Z M 7.777344 -7.757812 "/></g></g></g><g fill="rgb(0%, 0%, 0%)" fill-opacity="1"><g transform="translate(203.262064, 299.347644)"><g><path d="M 5.859375 -11.789062 L 1.84375 -11.789062 C 1.433594 -11.789062 1.324219 -11.59375 1.324219 -11.269531 L 1.324219 -0.519531 C 1.324219 -0.195312 1.433594 0 1.84375 0 L 5.859375 0 C 7.992188 0 10.679688 -1.21875 10.679688 -4.03125 L 10.679688 -7.757812 C 10.679688 -10.554688 7.992188 -11.789062 5.859375 -11.789062 Z M 7.867188 -7.507812 L 7.867188 -4.28125 C 7.867188 -3.136719 7.042969 -2.492188 5.859375 -2.492188 L 4.140625 -2.492188 L 4.140625 -9.296875 L 5.859375 -9.296875 C 7.042969 -9.296875 7.867188 -8.636719 7.867188 -7.507812 Z M 7.867188 -7.507812 "/></g></g></g><g fill="rgb(0%, 0%, 0%)" fill-opacity="1"><g transform="translate(217.260699, 299.347644)"><g><path d="M 9.871094 -2.507812 L 4.15625 -2.507812 L 4.15625 -4.875 L 8.957031 -4.875 C 9.371094 -4.875 9.476562 -5.070312 9.476562 -5.394531 L 9.476562 -6.789062 C 9.476562 -7.113281 9.371094 -7.308594 8.957031 -7.308594 L 4.15625 -7.308594 L 4.15625 -9.261719 L 9.566406 -9.261719 C 9.980469 -9.261719 10.085938 -9.460938 10.085938 -9.78125 L 10.085938 -11.269531 C 10.085938 -11.59375 9.980469 -11.789062 9.566406 -11.789062 L 1.84375 -11.789062 C 1.433594 -11.789062 1.324219 -11.59375 1.324219 -11.269531 L 1.324219 -0.519531 C 1.324219 -0.195312 1.433594 0 1.84375 0 L 9.871094 0 C 10.285156 0 10.390625 -0.195312 10.390625 -0.519531 L 10.390625 -1.988281 C 10.390625 -2.3125 10.285156 -2.507812 9.871094 -2.507812 Z M 9.871094 -2.507812 "/></g></g></g><g fill="rgb(0%, 0%, 0%)" fill-opacity="1"><g transform="translate(230.847725, 299.347644)"><g><path d="M 6.878906 -6.84375 C 6.164062 -7.128906 3.53125 -7.523438 3.53125 -8.617188 C 3.53125 -9.425781 4.515625 -9.65625 5.105469 -9.65625 C 5.644531 -9.65625 6.289062 -9.496094 6.628906 -9.171875 C 6.84375 -8.957031 6.933594 -8.816406 7.003906 -8.636719 C 7.09375 -8.402344 7.148438 -8.152344 7.488281 -8.152344 L 9.246094 -8.152344 C 9.65625 -8.152344 9.765625 -8.222656 9.765625 -8.652344 C 9.765625 -11.019531 7.273438 -12.058594 5 -12.058594 C 2.757812 -11.96875 0.644531 -10.820312 0.644531 -8.492188 C 0.644531 -6.21875 2.3125 -5.5 4.121094 -4.925781 C 5.644531 -4.441406 7.238281 -4.425781 7.238281 -3.421875 C 7.238281 -2.417969 6.449219 -2.203125 5.484375 -2.203125 C 4.820312 -2.203125 4.085938 -2.363281 3.726562 -2.796875 C 3.492188 -3.0625 3.402344 -3.296875 3.386719 -3.53125 C 3.351562 -3.976562 3.152344 -4.03125 2.742188 -4.03125 L 1.003906 -4.03125 C 0.589844 -4.03125 0.484375 -3.941406 0.484375 -3.53125 C 0.484375 -1.019531 3.0625 0.269531 5.304688 0.269531 C 8.0625 0.269531 10.070312 -0.949219 10.070312 -3.492188 C 10.070312 -5.929688 8.171875 -6.449219 6.878906 -6.84375 Z M 6.878906 -6.84375 "/></g></g></g><g fill="rgb(0%, 0%, 0%)" fill-opacity="1"><g transform="translate(244.041029, 299.347644)"><g><path d="M 9.871094 -2.507812 L 4.15625 -2.507812 L 4.15625 -4.875 L 8.957031 -4.875 C 9.371094 -4.875 9.476562 -5.070312 9.476562 -5.394531 L 9.476562 -6.789062 C 9.476562 -7.113281 9.371094 -7.308594 8.957031 -7.308594 L 4.15625 -7.308594 L 4.15625 -9.261719 L 9.566406 -9.261719 C 9.980469 -9.261719 10.085938 -9.460938 10.085938 -9.78125 L 10.085938 -11.269531 C 10.085938 -11.59375 9.980469 -11.789062 9.566406 -11.789062 L 1.84375 -11.789062 C 1.433594 -11.789062 1.324219 -11.59375 1.324219 -11.269531 L 1.324219 -0.519531 C 1.324219 -0.195312 1.433594 0 1.84375 0 L 9.871094 0 C 10.285156 0 10.390625 -0.195312 10.390625 -0.519531 L 10.390625 -1.988281 C 10.390625 -2.3125 10.285156 -2.507812 9.871094 -2.507812 Z M 9.871094 -2.507812 "/></g></g></g><g fill="rgb(0%, 0%, 0%)" fill-opacity="1"><g transform="translate(257.628055, 299.347644)"><g><path d="M 10.375 -11.789062 L 8.652344 -11.789062 C 8.332031 -11.789062 8.132812 -11.679688 8.132812 -11.269531 L 8.132812 -5.050781 L 4.335938 -11.179688 C 4.101562 -11.539062 3.976562 -11.789062 3.53125 -11.789062 L 1.84375 -11.789062 C 1.433594 -11.789062 1.324219 -11.59375 1.324219 -11.269531 L 1.324219 -0.519531 C 1.324219 -0.109375 1.523438 0 1.84375 0 L 3.617188 0 C 3.941406 0 4.140625 -0.109375 4.140625 -0.519531 L 4.140625 -6.753906 L 7.9375 -0.609375 C 8.171875 -0.25 8.296875 0 8.742188 0 L 10.375 0 C 10.785156 0 10.894531 -0.195312 10.894531 -0.519531 L 10.894531 -11.269531 C 10.894531 -11.679688 10.695312 -11.789062 10.375 -11.789062 Z M 10.375 -11.789062 "/></g></g></g><g fill="rgb(0%, 0%, 0%)" fill-opacity="1"><g transform="translate(272.199388, 299.347644)"><g><path d="M 10.730469 -11.789062 L 8.832031 -11.789062 C 8.347656 -11.789062 8.222656 -11.644531 8.082031 -11.214844 L 5.660156 -3.796875 L 3.226562 -11.214844 C 3.082031 -11.644531 2.957031 -11.789062 2.492188 -11.789062 L 0.5 -11.789062 C 0.160156 -11.789062 0.0898438 -11.503906 0.179688 -11.269531 L 4.03125 -0.539062 C 4.246094 -0.0703125 4.371094 0 4.765625 0 L 6.484375 0 C 6.878906 0 7.003906 -0.0703125 7.21875 -0.539062 L 11.054688 -11.269531 C 11.144531 -11.503906 11.074219 -11.789062 10.730469 -11.789062 Z M 10.730469 -11.789062 "/></g></g></g><g fill="rgb(0%, 0%, 0%)" fill-opacity="1"><g transform="translate(285.947484, 299.347644)"><g><path d="M 10.589844 -3.78125 L 10.589844 -8.007812 C 10.589844 -10.839844 7.902344 -12.058594 5.769531 -12.058594 C 3.636719 -12.058594 0.984375 -10.839844 0.984375 -8.007812 L 0.984375 -3.78125 C 0.984375 -0.949219 3.636719 0.269531 5.769531 0.269531 C 7.902344 0.269531 10.589844 -0.949219 10.589844 -3.78125 Z M 7.777344 -7.757812 L 7.777344 -4.03125 C 7.777344 -2.882812 6.953125 -2.222656 5.769531 -2.222656 C 4.605469 -2.222656 3.78125 -2.882812 3.78125 -4.03125 L 3.78125 -7.757812 C 3.78125 -8.90625 4.605469 -9.566406 5.769531 -9.566406 C 6.953125 -9.566406 7.777344 -8.90625 7.777344 -7.757812 Z M 7.777344 -7.757812 "/></g></g></g><g fill="rgb(0%, 0%, 0%)" fill-opacity="1"><g transform="translate(299.856656, 299.347644)"><g><path d="M 9.296875 -2.507812 L 4.140625 -2.507812 L 4.140625 -11.269531 C 4.140625 -11.679688 3.941406 -11.789062 3.617188 -11.789062 L 1.84375 -11.789062 C 1.523438 -11.789062 1.324219 -11.679688 1.324219 -11.269531 L 1.324219 -0.519531 C 1.324219 -0.195312 1.433594 0 1.84375 0 L 9.296875 0 C 9.710938 0 9.816406 -0.195312 9.816406 -0.519531 L 9.816406 -1.988281 C 9.816406 -2.3125 9.710938 -2.507812 9.296875 -2.507812 Z M 9.296875 -2.507812 "/></g></g></g><g fill="rgb(0%, 0%, 0%)" fill-opacity="1"><g transform="translate(312.638326, 299.347644)"><g><path d="M 10.730469 -11.789062 L 8.832031 -11.789062 C 8.347656 -11.789062 8.222656 -11.644531 8.082031 -11.214844 L 5.660156 -3.796875 L 3.226562 -11.214844 C 3.082031 -11.644531 2.957031 -11.789062 2.492188 -11.789062 L 0.5 -11.789062 C 0.160156 -11.789062 0.0898438 -11.503906 0.179688 -11.269531 L 4.03125 -0.539062 C 4.246094 -0.0703125 4.371094 0 4.765625 0 L 6.484375 0 C 6.878906 0 7.003906 -0.0703125 7.21875 -0.539062 L 11.054688 -11.269531 C 11.144531 -11.503906 11.074219 -11.789062 10.730469 -11.789062 Z M 10.730469 -11.789062 "/></g></g></g><g fill="rgb(0%, 0%, 0%)" fill-opacity="1"><g transform="translate(326.386418, 299.347644)"><g><path d="M 6.449219 -2.453125 L 5.320312 -2.453125 L 5.320312 -9.296875 L 6.394531 -9.296875 C 6.808594 -9.296875 6.914062 -9.496094 6.914062 -9.816406 L 6.914062 -11.269531 C 6.914062 -11.59375 6.808594 -11.789062 6.394531 -11.789062 L 1.414062 -11.789062 C 1.003906 -11.789062 0.894531 -11.59375 0.894531 -11.269531 L 0.894531 -9.816406 C 0.894531 -9.496094 1.003906 -9.296875 1.414062 -9.296875 L 2.507812 -9.296875 L 2.507812 -2.453125 L 1.378906 -2.453125 C 0.96875 -2.453125 0.859375 -2.257812 0.859375 -1.933594 L 0.859375 -0.519531 C 0.859375 -0.195312 0.96875 0 1.378906 0 L 6.449219 0 C 6.863281 0 6.96875 -0.195312 6.96875 -0.519531 L 6.96875 -1.933594 C 6.96875 -2.257812 6.863281 -2.453125 6.449219 -2.453125 Z M 6.449219 -2.453125 "/></g></g></g><g fill="rgb(0%, 0%, 0%)" fill-opacity="1"><g transform="translate(336.69838, 299.347644)"><g><path d="M 5.859375 -11.789062 L 1.84375 -11.789062 C 1.433594 -11.789062 1.324219 -11.59375 1.324219 -11.269531 L 1.324219 -0.519531 C 1.324219 -0.195312 1.433594 0 1.84375 0 L 5.859375 0 C 7.992188 0 10.679688 -1.21875 10.679688 -4.03125 L 10.679688 -7.757812 C 10.679688 -10.554688 7.992188 -11.789062 5.859375 -11.789062 Z M 7.867188 -7.507812 L 7.867188 -4.28125 C 7.867188 -3.136719 7.042969 -2.492188 5.859375 -2.492188 L 4.140625 -2.492188 L 4.140625 -9.296875 L 5.859375 -9.296875 C 7.042969 -9.296875 7.867188 -8.636719 7.867188 -7.507812 Z M 7.867188 -7.507812 "/></g></g></g><g fill="rgb(0%, 0%, 0%)" fill-opacity="1"><g transform="translate(350.697009, 299.347644)"><g><path d="M 10.589844 -3.78125 L 10.589844 -8.007812 C 10.589844 -10.839844 7.902344 -12.058594 5.769531 -12.058594 C 3.636719 -12.058594 0.984375 -10.839844 0.984375 -8.007812 L 0.984375 -3.78125 C 0.984375 -0.949219 3.636719 0.269531 5.769531 0.269531 C 7.902344 0.269531 10.589844 -0.949219 10.589844 -3.78125 Z M 7.777344 -7.757812 L 7.777344 -4.03125 C 7.777344 -2.882812 6.953125 -2.222656 5.769531 -2.222656 C 4.605469 -2.222656 3.78125 -2.882812 3.78125 -4.03125 L 3.78125 -7.757812 C 3.78125 -8.90625 4.605469 -9.566406 5.769531 -9.566406 C 6.953125 -9.566406 7.777344 -8.90625 7.777344 -7.757812 Z M 7.777344 -7.757812 "/></g></g></g><g fill="rgb(0%, 0%, 0%)" fill-opacity="1"><g transform="translate(364.606171, 299.347644)"><g><path d="M 6.878906 -6.84375 C 6.164062 -7.128906 3.53125 -7.523438 3.53125 -8.617188 C 3.53125 -9.425781 4.515625 -9.65625 5.105469 -9.65625 C 5.644531 -9.65625 6.289062 -9.496094 6.628906 -9.171875 C 6.84375 -8.957031 6.933594 -8.816406 7.003906 -8.636719 C 7.09375 -8.402344 7.148438 -8.152344 7.488281 -8.152344 L 9.246094 -8.152344 C 9.65625 -8.152344 9.765625 -8.222656 9.765625 -8.652344 C 9.765625 -11.019531 7.273438 -12.058594 5 -12.058594 C 2.757812 -11.96875 0.644531 -10.820312 0.644531 -8.492188 C 0.644531 -6.21875 2.3125 -5.5 4.121094 -4.925781 C 5.644531 -4.441406 7.238281 -4.425781 7.238281 -3.421875 C 7.238281 -2.417969 6.449219 -2.203125 5.484375 -2.203125 C 4.820312 -2.203125 4.085938 -2.363281 3.726562 -2.796875 C 3.492188 -3.0625 3.402344 -3.296875 3.386719 -3.53125 C 3.351562 -3.976562 3.152344 -4.03125 2.742188 -4.03125 L 1.003906 -4.03125 C 0.589844 -4.03125 0.484375 -3.941406 0.484375 -3.53125 C 0.484375 -1.019531 3.0625 0.269531 5.304688 0.269531 C 8.0625 0.269531 10.070312 -0.949219 10.070312 -3.492188 C 10.070312 -5.929688 8.171875 -6.449219 6.878906 -6.84375 Z M 6.878906 -6.84375 "/></g></g></g><g fill="rgb(0%, 0%, 0%)" fill-opacity="1"><g transform="translate(377.799469, 299.347644)"><g/></g></g><g fill="rgb(0%, 0%, 0%)" fill-opacity="1"><g transform="translate(385.015327, 299.347644)"><g><path d="M 11.464844 -0.5 L 7.507812 -11.234375 C 7.347656 -11.609375 7.167969 -11.789062 6.773438 -11.789062 L 5.050781 -11.789062 C 4.660156 -11.789062 4.460938 -11.609375 4.316406 -11.234375 L 0.339844 -0.5 C 0.25 -0.285156 0.25 0 0.644531 0 L 2.527344 0 C 2.921875 0 3.0625 -0.109375 3.207031 -0.539062 L 3.707031 -1.953125 L 8.097656 -1.953125 L 8.601562 -0.539062 C 8.742188 -0.109375 8.886719 0 9.28125 0 L 11.160156 0 C 11.554688 0 11.554688 -0.285156 11.464844 -0.5 Z M 5.914062 -8.421875 L 7.257812 -4.460938 L 4.570312 -4.460938 Z M 5.914062 -8.421875 "/></g></g></g><g fill="rgb(0%, 0%, 0%)" fill-opacity="1"><g transform="translate(244.177195, 323.432586)"><g><path d="M 5.875 -11.789062 L 1.84375 -11.789062 C 1.433594 -11.789062 1.324219 -11.59375 1.324219 -11.269531 L 1.324219 -0.519531 C 1.324219 -0.109375 1.523438 0 1.84375 0 L 3.617188 0 C 3.941406 0 4.140625 -0.109375 4.140625 -0.519531 L 4.140625 -3.492188 L 5.859375 -3.492188 C 8.921875 -3.492188 10.570312 -5.140625 10.570312 -7.632812 C 10.570312 -10.105469 8.957031 -11.789062 5.875 -11.789062 Z M 5.859375 -5.914062 L 4.140625 -5.914062 L 4.140625 -9.261719 L 5.859375 -9.261719 C 7.257812 -9.261719 7.867188 -8.511719 7.867188 -7.578125 C 7.867188 -6.683594 7.257812 -5.914062 5.859375 -5.914062 Z M 5.859375 -5.914062 "/></g></g></g><g fill="rgb(0%, 0%, 0%)" fill-opacity="1"><g transform="translate(257.782107, 323.432586)"><g><path d="M 11.464844 -0.5 L 7.507812 -11.234375 C 7.347656 -11.609375 7.167969 -11.789062 6.773438 -11.789062 L 5.050781 -11.789062 C 4.660156 -11.789062 4.460938 -11.609375 4.316406 -11.234375 L 0.339844 -0.5 C 0.25 -0.285156 0.25 0 0.644531 0 L 2.527344 0 C 2.921875 0 3.0625 -0.109375 3.207031 -0.539062 L 3.707031 -1.953125 L 8.097656 -1.953125 L 8.601562 -0.539062 C 8.742188 -0.109375 8.886719 0 9.28125 0 L 11.160156 0 C 11.554688 0 11.554688 -0.285156 11.464844 -0.5 Z M 5.914062 -8.421875 L 7.257812 -4.460938 L 4.570312 -4.460938 Z M 5.914062 -8.421875 "/></g></g></g><g fill="rgb(0%, 0%, 0%)" fill-opacity="1"><g transform="translate(271.870229, 323.432586)"><g><path d="M 10.984375 -0.574219 L 8.457031 -4.246094 C 9.566406 -4.621094 10.945312 -5.929688 10.945312 -7.8125 C 10.945312 -8.957031 10.570312 -9.980469 9.90625 -10.625 C 9.15625 -11.378906 8.296875 -11.769531 6.34375 -11.769531 L 1.828125 -11.769531 C 1.414062 -11.769531 1.324219 -11.574219 1.324219 -11.25 L 1.324219 -0.519531 C 1.324219 -0.109375 1.503906 0 1.828125 0 L 3.601562 0 C 3.921875 0 4.121094 -0.109375 4.121094 -0.519531 L 4.121094 -9.261719 L 6.503906 -9.261719 C 7.433594 -9.261719 8.152344 -8.671875 8.152344 -7.738281 C 8.152344 -6.898438 7.328125 -6.289062 6.449219 -6.289062 L 6.089844 -6.289062 C 5.679688 -6.289062 5.570312 -6.089844 5.570312 -5.769531 L 5.570312 -4.335938 C 5.570312 -3.835938 5.609375 -3.636719 5.769531 -3.421875 L 7.703125 -0.539062 C 7.953125 -0.160156 8.171875 0 8.601562 0 L 10.714844 0 C 11.054688 0 11.144531 -0.324219 10.984375 -0.574219 Z M 10.984375 -0.574219 "/></g></g></g><g fill="rgb(0%, 0%, 0%)" fill-opacity="1"><g transform="translate(286.155213, 323.432586)"><g><path d="M 9.296875 -11.789062 L 0.984375 -11.789062 C 0.574219 -11.789062 0.464844 -11.59375 0.464844 -11.269531 L 0.464844 -9.78125 C 0.464844 -9.460938 0.574219 -9.261719 0.984375 -9.261719 L 3.746094 -9.261719 L 3.746094 -0.519531 C 3.746094 -0.109375 3.941406 0 4.265625 0 L 6.039062 0 C 6.359375 0 6.558594 -0.109375 6.558594 -0.519531 L 6.558594 -9.261719 L 9.296875 -9.261719 C 9.710938 -9.261719 9.816406 -9.460938 9.816406 -9.78125 L 9.816406 -11.269531 C 9.816406 -11.59375 9.710938 -11.789062 9.296875 -11.789062 Z M 9.296875 -11.789062 "/></g></g></g><g fill="rgb(0%, 0%, 0%)" fill-opacity="1"><g transform="translate(298.793724, 323.432586)"><g><path d="M 6.449219 -2.453125 L 5.320312 -2.453125 L 5.320312 -9.296875 L 6.394531 -9.296875 C 6.808594 -9.296875 6.914062 -9.496094 6.914062 -9.816406 L 6.914062 -11.269531 C 6.914062 -11.59375 6.808594 -11.789062 6.394531 -11.789062 L 1.414062 -11.789062 C 1.003906 -11.789062 0.894531 -11.59375 0.894531 -11.269531 L 0.894531 -9.816406 C 0.894531 -9.496094 1.003906 -9.296875 1.414062 -9.296875 L 2.507812 -9.296875 L 2.507812 -2.453125 L 1.378906 -2.453125 C 0.96875 -2.453125 0.859375 -2.257812 0.859375 -1.933594 L 0.859375 -0.519531 C 0.859375 -0.195312 0.96875 0 1.378906 0 L 6.449219 0 C 6.863281 0 6.96875 -0.195312 6.96875 -0.519531 L 6.96875 -1.933594 C 6.96875 -2.257812 6.863281 -2.453125 6.449219 -2.453125 Z M 6.449219 -2.453125 "/></g></g></g><g fill="rgb(0%, 0%, 0%)" fill-opacity="1"><g transform="translate(309.105691, 323.432586)"><g><path d="M 10.984375 -0.574219 L 8.457031 -4.246094 C 9.566406 -4.621094 10.945312 -5.929688 10.945312 -7.8125 C 10.945312 -8.957031 10.570312 -9.980469 9.90625 -10.625 C 9.15625 -11.378906 8.296875 -11.769531 6.34375 -11.769531 L 1.828125 -11.769531 C 1.414062 -11.769531 1.324219 -11.574219 1.324219 -11.25 L 1.324219 -0.519531 C 1.324219 -0.109375 1.503906 0 1.828125 0 L 3.601562 0 C 3.921875 0 4.121094 -0.109375 4.121094 -0.519531 L 4.121094 -9.261719 L 6.503906 -9.261719 C 7.433594 -9.261719 8.152344 -8.671875 8.152344 -7.738281 C 8.152344 -6.898438 7.328125 -6.289062 6.449219 -6.289062 L 6.089844 -6.289062 C 5.679688 -6.289062 5.570312 -6.089844 5.570312 -5.769531 L 5.570312 -4.335938 C 5.570312 -3.835938 5.609375 -3.636719 5.769531 -3.421875 L 7.703125 -0.539062 C 7.953125 -0.160156 8.171875 0 8.601562 0 L 10.714844 0 C 11.054688 0 11.144531 -0.324219 10.984375 -0.574219 Z M 10.984375 -0.574219 "/></g></g></g><g fill="rgb(0%, 0%, 0%)" fill-opacity="1"><g transform="translate(323.390674, 323.432586)"><g/></g></g><g fill="rgb(0%, 0%, 0%)" fill-opacity="1"><g transform="translate(330.606542, 323.432586)"><g><path d="M 5.859375 -11.789062 L 1.84375 -11.789062 C 1.433594 -11.789062 1.324219 -11.59375 1.324219 -11.269531 L 1.324219 -0.519531 C 1.324219 -0.195312 1.433594 0 1.84375 0 L 5.859375 0 C 7.992188 0 10.679688 -1.21875 10.679688 -4.03125 L 10.679688 -7.757812 C 10.679688 -10.554688 7.992188 -11.789062 5.859375 -11.789062 Z M 7.867188 -7.507812 L 7.867188 -4.28125 C 7.867188 -3.136719 7.042969 -2.492188 5.859375 -2.492188 L 4.140625 -2.492188 L 4.140625 -9.296875 L 5.859375 -9.296875 C 7.042969 -9.296875 7.867188 -8.636719 7.867188 -7.507812 Z M 7.867188 -7.507812 "/></g></g></g><g fill="rgb(0%, 0%, 0%)" fill-opacity="1"><g transform="translate(344.605171, 323.432586)"><g><path d="M 9.871094 -2.507812 L 4.15625 -2.507812 L 4.15625 -4.875 L 8.957031 -4.875 C 9.371094 -4.875 9.476562 -5.070312 9.476562 -5.394531 L 9.476562 -6.789062 C 9.476562 -7.113281 9.371094 -7.308594 8.957031 -7.308594 L 4.15625 -7.308594 L 4.15625 -9.261719 L 9.566406 -9.261719 C 9.980469 -9.261719 10.085938 -9.460938 10.085938 -9.78125 L 10.085938 -11.269531 C 10.085938 -11.59375 9.980469 -11.789062 9.566406 -11.789062 L 1.84375 -11.789062 C 1.433594 -11.789062 1.324219 -11.59375 1.324219 -11.269531 L 1.324219 -0.519531 C 1.324219 -0.195312 1.433594 0 1.84375 0 L 9.871094 0 C 10.285156 0 10.390625 -0.195312 10.390625 -0.519531 L 10.390625 -1.988281 C 10.390625 -2.3125 10.285156 -2.507812 9.871094 -2.507812 Z M 9.871094 -2.507812 "/></g></g></g><g fill="rgb(0%, 0%, 0%)" fill-opacity="1"><g transform="translate(201.192265, 347.517528)"><g><path d="M 11.898438 -11.808594 L 10.175781 -11.808594 C 9.585938 -11.808594 9.496094 -11.414062 9.371094 -11.199219 L 6.898438 -6.789062 L 4.441406 -11.199219 C 4.300781 -11.414062 4.226562 -11.808594 3.617188 -11.808594 L 1.84375 -11.808594 C 1.433594 -11.808594 1.324219 -11.609375 1.324219 -11.289062 L 1.324219 -0.519531 C 1.324219 -0.109375 1.523438 0 1.84375 0 L 3.617188 0 C 3.941406 0 4.140625 -0.109375 4.140625 -0.519531 L 4.140625 -6.59375 L 5.949219 -3.457031 C 6.039062 -3.316406 6.179688 -3.082031 6.449219 -3.082031 L 7.347656 -3.082031 C 7.613281 -3.082031 7.777344 -3.316406 7.867188 -3.457031 L 9.65625 -6.59375 L 9.65625 -0.519531 C 9.65625 -0.109375 9.855469 0 10.175781 0 L 11.898438 0 C 12.21875 0 12.417969 -0.109375 12.417969 -0.519531 L 12.417969 -11.289062 C 12.417969 -11.609375 12.308594 -11.808594 11.898438 -11.808594 Z M 11.898438 -11.808594 "/></g></g></g><g fill="rgb(0%, 0%, 0%)" fill-opacity="1"><g transform="translate(217.284791, 347.517528)"><g><path d="M 6.449219 -2.453125 L 5.320312 -2.453125 L 5.320312 -9.296875 L 6.394531 -9.296875 C 6.808594 -9.296875 6.914062 -9.496094 6.914062 -9.816406 L 6.914062 -11.269531 C 6.914062 -11.59375 6.808594 -11.789062 6.394531 -11.789062 L 1.414062 -11.789062 C 1.003906 -11.789062 0.894531 -11.59375 0.894531 -11.269531 L 0.894531 -9.816406 C 0.894531 -9.496094 1.003906 -9.296875 1.414062 -9.296875 L 2.507812 -9.296875 L 2.507812 -2.453125 L 1.378906 -2.453125 C 0.96875 -2.453125 0.859375 -2.257812 0.859375 -1.933594 L 0.859375 -0.519531 C 0.859375 -0.195312 0.96875 0 1.378906 0 L 6.449219 0 C 6.863281 0 6.96875 -0.195312 6.96875 -0.519531 L 6.96875 -1.933594 C 6.96875 -2.257812 6.863281 -2.453125 6.449219 -2.453125 Z M 6.449219 -2.453125 "/></g></g></g><g fill="rgb(0%, 0%, 0%)" fill-opacity="1"><g transform="translate(227.596758, 347.517528)"><g><path d="M 10.410156 -3.492188 C 10.410156 -3.921875 10.265625 -4.101562 9.871094 -4.101562 L 8.117188 -4.101562 C 7.722656 -4.101562 7.6875 -3.816406 7.632812 -3.457031 C 7.488281 -2.597656 6.71875 -2.238281 5.75 -2.238281 C 4.570312 -2.238281 3.761719 -2.882812 3.761719 -4.03125 L 3.761719 -7.757812 C 3.761719 -8.886719 4.570312 -9.550781 5.75 -9.550781 C 6.71875 -9.550781 7.21875 -9.28125 7.597656 -8.691406 C 7.738281 -8.472656 7.757812 -8.132812 8.132812 -8.132812 L 9.855469 -8.132812 C 10.265625 -8.132812 10.410156 -8.222656 10.410156 -8.652344 C 10.175781 -10.929688 7.972656 -12.058594 5.75 -12.058594 C 3.617188 -12.058594 0.949219 -10.820312 0.949219 -8.007812 L 0.949219 -3.78125 C 0.949219 -0.96875 3.617188 0.269531 5.75 0.269531 C 7.972656 0.269531 10.410156 -1.183594 10.410156 -3.492188 Z M 10.410156 -3.492188 "/></g></g></g><g fill="rgb(0%, 0%, 0%)" fill-opacity="1"><g transform="translate(241.273272, 347.517528)"><g><path d="M 10.984375 -0.574219 L 8.457031 -4.246094 C 9.566406 -4.621094 10.945312 -5.929688 10.945312 -7.8125 C 10.945312 -8.957031 10.570312 -9.980469 9.90625 -10.625 C 9.15625 -11.378906 8.296875 -11.769531 6.34375 -11.769531 L 1.828125 -11.769531 C 1.414062 -11.769531 1.324219 -11.574219 1.324219 -11.25 L 1.324219 -0.519531 C 1.324219 -0.109375 1.503906 0 1.828125 0 L 3.601562 0 C 3.921875 0 4.121094 -0.109375 4.121094 -0.519531 L 4.121094 -9.261719 L 6.503906 -9.261719 C 7.433594 -9.261719 8.152344 -8.671875 8.152344 -7.738281 C 8.152344 -6.898438 7.328125 -6.289062 6.449219 -6.289062 L 6.089844 -6.289062 C 5.679688 -6.289062 5.570312 -6.089844 5.570312 -5.769531 L 5.570312 -4.335938 C 5.570312 -3.835938 5.609375 -3.636719 5.769531 -3.421875 L 7.703125 -0.539062 C 7.953125 -0.160156 8.171875 0 8.601562 0 L 10.714844 0 C 11.054688 0 11.144531 -0.324219 10.984375 -0.574219 Z M 10.984375 -0.574219 "/></g></g></g><g fill="rgb(0%, 0%, 0%)" fill-opacity="1"><g transform="translate(255.558256, 347.517528)"><g><path d="M 10.589844 -3.78125 L 10.589844 -8.007812 C 10.589844 -10.839844 7.902344 -12.058594 5.769531 -12.058594 C 3.636719 -12.058594 0.984375 -10.839844 0.984375 -8.007812 L 0.984375 -3.78125 C 0.984375 -0.949219 3.636719 0.269531 5.769531 0.269531 C 7.902344 0.269531 10.589844 -0.949219 10.589844 -3.78125 Z M 7.777344 -7.757812 L 7.777344 -4.03125 C 7.777344 -2.882812 6.953125 -2.222656 5.769531 -2.222656 C 4.605469 -2.222656 3.78125 -2.882812 3.78125 -4.03125 L 3.78125 -7.757812 C 3.78125 -8.90625 4.605469 -9.566406 5.769531 -9.566406 C 6.953125 -9.566406 7.777344 -8.90625 7.777344 -7.757812 Z M 7.777344 -7.757812 "/></g></g></g><g fill="rgb(0%, 0%, 0%)" fill-opacity="1"><g transform="translate(269.467422, 347.517528)"><g><path d="M 10.984375 -0.574219 L 8.457031 -4.246094 C 9.566406 -4.621094 10.945312 -5.929688 10.945312 -7.8125 C 10.945312 -8.957031 10.570312 -9.980469 9.90625 -10.625 C 9.15625 -11.378906 8.296875 -11.769531 6.34375 -11.769531 L 1.828125 -11.769531 C 1.414062 -11.769531 1.324219 -11.574219 1.324219 -11.25 L 1.324219 -0.519531 C 1.324219 -0.109375 1.503906 0 1.828125 0 L 3.601562 0 C 3.921875 0 4.121094 -0.109375 4.121094 -0.519531 L 4.121094 -9.261719 L 6.503906 -9.261719 C 7.433594 -9.261719 8.152344 -8.671875 8.152344 -7.738281 C 8.152344 -6.898438 7.328125 -6.289062 6.449219 -6.289062 L 6.089844 -6.289062 C 5.679688 -6.289062 5.570312 -6.089844 5.570312 -5.769531 L 5.570312 -4.335938 C 5.570312 -3.835938 5.609375 -3.636719 5.769531 -3.421875 L 7.703125 -0.539062 C 7.953125 -0.160156 8.171875 0 8.601562 0 L 10.714844 0 C 11.054688 0 11.144531 -0.324219 10.984375 -0.574219 Z M 10.984375 -0.574219 "/></g></g></g><g fill="rgb(0%, 0%, 0%)" fill-opacity="1"><g transform="translate(283.752406, 347.517528)"><g><path d="M 10.085938 -6.574219 L 6.164062 -6.574219 C 5.75 -6.574219 5.644531 -6.378906 5.644531 -6.054688 L 5.644531 -4.660156 C 5.644531 -4.335938 5.75 -4.140625 6.164062 -4.140625 L 7.777344 -4.140625 C 7.777344 -2.757812 6.953125 -2.222656 5.785156 -2.222656 C 4.605469 -2.222656 3.816406 -2.882812 3.816406 -4.03125 L 3.816406 -7.632812 C 3.816406 -8.777344 4.605469 -9.566406 5.785156 -9.566406 C 6.988281 -9.566406 7.632812 -9.03125 7.828125 -8.472656 C 7.917969 -8.222656 7.847656 -7.867188 8.347656 -7.867188 L 10.085938 -7.867188 C 10.5 -7.867188 10.605469 -7.9375 10.605469 -8.367188 C 10.605469 -10.769531 8.027344 -12.058594 5.785156 -12.058594 C 3.671875 -12.058594 0.96875 -10.855469 0.96875 -8.027344 L 0.96875 -3.617188 C 0.96875 -0.804688 3.671875 0.269531 5.785156 0.269531 C 7.828125 0.269531 10.445312 -0.878906 10.605469 -3.457031 L 10.605469 -6.054688 C 10.605469 -6.378906 10.5 -6.574219 10.085938 -6.574219 Z M 10.085938 -6.574219 "/></g></g></g><g fill="rgb(0%, 0%, 0%)" fill-opacity="1"><g transform="translate(297.679463, 347.517528)"><g><path d="M 11.464844 -0.5 L 7.507812 -11.234375 C 7.347656 -11.609375 7.167969 -11.789062 6.773438 -11.789062 L 5.050781 -11.789062 C 4.660156 -11.789062 4.460938 -11.609375 4.316406 -11.234375 L 0.339844 -0.5 C 0.25 -0.285156 0.25 0 0.644531 0 L 2.527344 0 C 2.921875 0 3.0625 -0.109375 3.207031 -0.539062 L 3.707031 -1.953125 L 8.097656 -1.953125 L 8.601562 -0.539062 C 8.742188 -0.109375 8.886719 0 9.28125 0 L 11.160156 0 C 11.554688 0 11.554688 -0.285156 11.464844 -0.5 Z M 5.914062 -8.421875 L 7.257812 -4.460938 L 4.570312 -4.460938 Z M 5.914062 -8.421875 "/></g></g></g><g fill="rgb(0%, 0%, 0%)" fill-opacity="1"><g transform="translate(311.76758, 347.517528)"><g><path d="M 10.375 -11.789062 L 8.652344 -11.789062 C 8.332031 -11.789062 8.132812 -11.679688 8.132812 -11.269531 L 8.132812 -5.050781 L 4.335938 -11.179688 C 4.101562 -11.539062 3.976562 -11.789062 3.53125 -11.789062 L 1.84375 -11.789062 C 1.433594 -11.789062 1.324219 -11.59375 1.324219 -11.269531 L 1.324219 -0.519531 C 1.324219 -0.109375 1.523438 0 1.84375 0 L 3.617188 0 C 3.941406 0 4.140625 -0.109375 4.140625 -0.519531 L 4.140625 -6.753906 L 7.9375 -0.609375 C 8.171875 -0.25 8.296875 0 8.742188 0 L 10.375 0 C 10.785156 0 10.894531 -0.195312 10.894531 -0.519531 L 10.894531 -11.269531 C 10.894531 -11.679688 10.695312 -11.789062 10.375 -11.789062 Z M 10.375 -11.789062 "/></g></g></g><g fill="rgb(0%, 0%, 0%)" fill-opacity="1"><g transform="translate(326.338908, 347.517528)"><g><path d="M 6.449219 -2.453125 L 5.320312 -2.453125 L 5.320312 -9.296875 L 6.394531 -9.296875 C 6.808594 -9.296875 6.914062 -9.496094 6.914062 -9.816406 L 6.914062 -11.269531 C 6.914062 -11.59375 6.808594 -11.789062 6.394531 -11.789062 L 1.414062 -11.789062 C 1.003906 -11.789062 0.894531 -11.59375 0.894531 -11.269531 L 0.894531 -9.816406 C 0.894531 -9.496094 1.003906 -9.296875 1.414062 -9.296875 L 2.507812 -9.296875 L 2.507812 -2.453125 L 1.378906 -2.453125 C 0.96875 -2.453125 0.859375 -2.257812 0.859375 -1.933594 L 0.859375 -0.519531 C 0.859375 -0.195312 0.96875 0 1.378906 0 L 6.449219 0 C 6.863281 0 6.96875 -0.195312 6.96875 -0.519531 L 6.96875 -1.933594 C 6.96875 -2.257812 6.863281 -2.453125 6.449219 -2.453125 Z M 6.449219 -2.453125 "/></g></g></g><g fill="rgb(0%, 0%, 0%)" fill-opacity="1"><g transform="translate(336.650869, 347.517528)"><g><path d="M 6.878906 -6.84375 C 6.164062 -7.128906 3.53125 -7.523438 3.53125 -8.617188 C 3.53125 -9.425781 4.515625 -9.65625 5.105469 -9.65625 C 5.644531 -9.65625 6.289062 -9.496094 6.628906 -9.171875 C 6.84375 -8.957031 6.933594 -8.816406 7.003906 -8.636719 C 7.09375 -8.402344 7.148438 -8.152344 7.488281 -8.152344 L 9.246094 -8.152344 C 9.65625 -8.152344 9.765625 -8.222656 9.765625 -8.652344 C 9.765625 -11.019531 7.273438 -12.058594 5 -12.058594 C 2.757812 -11.96875 0.644531 -10.820312 0.644531 -8.492188 C 0.644531 -6.21875 2.3125 -5.5 4.121094 -4.925781 C 5.644531 -4.441406 7.238281 -4.425781 7.238281 -3.421875 C 7.238281 -2.417969 6.449219 -2.203125 5.484375 -2.203125 C 4.820312 -2.203125 4.085938 -2.363281 3.726562 -2.796875 C 3.492188 -3.0625 3.402344 -3.296875 3.386719 -3.53125 C 3.351562 -3.976562 3.152344 -4.03125 2.742188 -4.03125 L 1.003906 -4.03125 C 0.589844 -4.03125 0.484375 -3.941406 0.484375 -3.53125 C 0.484375 -1.019531 3.0625 0.269531 5.304688 0.269531 C 8.0625 0.269531 10.070312 -0.949219 10.070312 -3.492188 C 10.070312 -5.929688 8.171875 -6.449219 6.878906 -6.84375 Z M 6.878906 -6.84375 "/></g></g></g><g fill="rgb(0%, 0%, 0%)" fill-opacity="1"><g transform="translate(349.844168, 347.517528)"><g><path d="M 11.898438 -11.808594 L 10.175781 -11.808594 C 9.585938 -11.808594 9.496094 -11.414062 9.371094 -11.199219 L 6.898438 -6.789062 L 4.441406 -11.199219 C 4.300781 -11.414062 4.226562 -11.808594 3.617188 -11.808594 L 1.84375 -11.808594 C 1.433594 -11.808594 1.324219 -11.609375 1.324219 -11.289062 L 1.324219 -0.519531 C 1.324219 -0.109375 1.523438 0 1.84375 0 L 3.617188 0 C 3.941406 0 4.140625 -0.109375 4.140625 -0.519531 L 4.140625 -6.59375 L 5.949219 -3.457031 C 6.039062 -3.316406 6.179688 -3.082031 6.449219 -3.082031 L 7.347656 -3.082031 C 7.613281 -3.082031 7.777344 -3.316406 7.867188 -3.457031 L 9.65625 -6.59375 L 9.65625 -0.519531 C 9.65625 -0.109375 9.855469 0 10.175781 0 L 11.898438 0 C 12.21875 0 12.417969 -0.109375 12.417969 -0.519531 L 12.417969 -11.289062 C 12.417969 -11.609375 12.308594 -11.808594 11.898438 -11.808594 Z M 11.898438 -11.808594 "/></g></g></g><g fill="rgb(0%, 0%, 0%)" fill-opacity="1"><g transform="translate(365.936689, 347.517528)"><g><path d="M 10.589844 -3.78125 L 10.589844 -8.007812 C 10.589844 -10.839844 7.902344 -12.058594 5.769531 -12.058594 C 3.636719 -12.058594 0.984375 -10.839844 0.984375 -8.007812 L 0.984375 -3.78125 C 0.984375 -0.949219 3.636719 0.269531 5.769531 0.269531 C 7.902344 0.269531 10.589844 -0.949219 10.589844 -3.78125 Z M 7.777344 -7.757812 L 7.777344 -4.03125 C 7.777344 -2.882812 6.953125 -2.222656 5.769531 -2.222656 C 4.605469 -2.222656 3.78125 -2.882812 3.78125 -4.03125 L 3.78125 -7.757812 C 3.78125 -8.90625 4.605469 -9.566406 5.769531 -9.566406 C 6.953125 -9.566406 7.777344 -8.90625 7.777344 -7.757812 Z M 7.777344 -7.757812 "/></g></g></g><g fill="rgb(0%, 0%, 0%)" fill-opacity="1"><g transform="translate(379.845851, 347.517528)"><g><path d="M 6.878906 -6.84375 C 6.164062 -7.128906 3.53125 -7.523438 3.53125 -8.617188 C 3.53125 -9.425781 4.515625 -9.65625 5.105469 -9.65625 C 5.644531 -9.65625 6.289062 -9.496094 6.628906 -9.171875 C 6.84375 -8.957031 6.933594 -8.816406 7.003906 -8.636719 C 7.09375 -8.402344 7.148438 -8.152344 7.488281 -8.152344 L 9.246094 -8.152344 C 9.65625 -8.152344 9.765625 -8.222656 9.765625 -8.652344 C 9.765625 -11.019531 7.273438 -12.058594 5 -12.058594 C 2.757812 -11.96875 0.644531 -10.820312 0.644531 -8.492188 C 0.644531 -6.21875 2.3125 -5.5 4.121094 -4.925781 C 5.644531 -4.441406 7.238281 -4.425781 7.238281 -3.421875 C 7.238281 -2.417969 6.449219 -2.203125 5.484375 -2.203125 C 4.820312 -2.203125 4.085938 -2.363281 3.726562 -2.796875 C 3.492188 -3.0625 3.402344 -3.296875 3.386719 -3.53125 C 3.351562 -3.976562 3.152344 -4.03125 2.742188 -4.03125 L 1.003906 -4.03125 C 0.589844 -4.03125 0.484375 -3.941406 0.484375 -3.53125 C 0.484375 -1.019531 3.0625 0.269531 5.304688 0.269531 C 8.0625 0.269531 10.070312 -0.949219 10.070312 -3.492188 C 10.070312 -5.929688 8.171875 -6.449219 6.878906 -6.84375 Z M 6.878906 -6.84375 "/></g></g></g><g fill="rgb(0%, 0%, 0%)" fill-opacity="1"><g transform="translate(393.039149, 347.517528)"><g><path d="M 2.527344 -3.707031 L 3.402344 -3.707031 C 3.816406 -3.707031 3.851562 -3.761719 3.90625 -4.226562 C 4.675781 -11.304688 4.695312 -11.359375 4.695312 -11.414062 C 4.695312 -11.734375 4.53125 -11.789062 4.15625 -11.789062 L 1.753906 -11.789062 C 1.398438 -11.789062 1.234375 -11.71875 1.234375 -11.414062 C 1.234375 -11.359375 1.253906 -11.304688 2.007812 -4.226562 C 2.058594 -3.78125 2.097656 -3.707031 2.527344 -3.707031 Z M 3.960938 -3.027344 L 1.972656 -3.027344 C 1.648438 -3.027344 1.453125 -2.921875 1.453125 -2.507812 L 1.453125 -0.519531 C 1.453125 -0.109375 1.648438 0 1.972656 0 L 3.960938 0 C 4.28125 0 4.480469 -0.109375 4.480469 -0.519531 L 4.480469 -2.507812 C 4.480469 -2.921875 4.28125 -3.027344 3.960938 -3.027344 Z M 3.960938 -3.027344 "/></g></g></g></svg>