<svg xmlns="http://www.w3.org/2000/svg" xmlns:xlink="http://www.w3.org/1999/xlink" width="480" zoomAndPan="magnify" viewBox="0 0 360 359.999987" height="480" preserveAspectRatio="xMidYMid meet" version="1.0"><defs><g/></defs><path fill="rgb(49.798584%, 100%, 66.668701%)" d="M 179.800781 0 C 80.5 0 0 80.5 0 179.800781 C 0 279.101562 80.5 359.601562 179.800781 359.601562 C 279.101562 359.601562 359.601562 279.101562 359.601562 179.800781 C 359.601562 80.5 279.101562 0 179.800781 0 " fill-opacity="1" fill-rule="nonzero"/><g fill="rgb(0%, 0%, 0%)" fill-opacity="1"><g transform="translate(126.960525, 115.59277)"><g><path d="M 15.125 -0.660156 L 9.902344 -14.820312 C 9.691406 -15.316406 9.453125 -15.550781 8.933594 -15.550781 L 6.664062 -15.550781 C 6.144531 -15.550781 5.886719 -15.316406 5.695312 -14.820312 L 0.449219 -0.660156 C 0.332031 -0.378906 0.332031 0 0.851562 0 L 3.332031 0 C 3.851562 0 4.042969 -0.140625 4.230469 -0.710938 L 4.894531 -2.578125 L 10.683594 -2.578125 L 11.34375 -0.710938 C 11.535156 -0.140625 11.722656 0 12.242188 0 L 14.726562 0 C 15.246094 0 15.246094 -0.378906 15.125 -0.660156 Z M 7.800781 -11.109375 L 9.574219 -5.886719 L 6.027344 -5.886719 Z M 7.800781 -11.109375 "/></g></g></g><g fill="rgb(0%, 0%, 0%)" fill-opacity="1"><g transform="translate(145.545833, 115.59277)"><g><path d="M 12.265625 -3.308594 L 5.460938 -3.308594 L 5.460938 -14.867188 C 5.460938 -15.410156 5.199219 -15.550781 4.773438 -15.550781 L 2.433594 -15.550781 C 2.007812 -15.550781 1.75 -15.410156 1.75 -14.867188 L 1.75 -0.683594 C 1.75 -0.261719 1.890625 0 2.433594 0 L 12.265625 0 C 12.8125 0 12.953125 -0.261719 12.953125 -0.683594 L 12.953125 -2.625 C 12.953125 -3.050781 12.8125 -3.308594 12.265625 -3.308594 Z M 12.265625 -3.308594 "/></g></g></g><g fill="rgb(0%, 0%, 0%)" fill-opacity="1"><g transform="translate(162.407652, 115.59277)"><g><path d="M 13.308594 -8.675781 L 8.128906 -8.675781 C 7.585938 -8.675781 7.445312 -8.414062 7.445312 -7.988281 L 7.445312 -6.144531 C 7.445312 -5.71875 7.585938 -5.460938 8.128906 -5.460938 L 10.257812 -5.460938 C 10.257812 -3.640625 9.171875 -2.929688 7.632812 -2.929688 C 6.074219 -2.929688 5.035156 -3.804688 5.035156 -5.316406 L 5.035156 -10.070312 C 5.035156 -11.582031 6.074219 -12.621094 7.632812 -12.621094 C 9.21875 -12.621094 10.070312 -11.914062 10.328125 -11.179688 C 10.445312 -10.847656 10.351562 -10.375 11.015625 -10.375 L 13.308594 -10.375 C 13.851562 -10.375 13.992188 -10.46875 13.992188 -11.039062 C 13.992188 -14.207031 10.589844 -15.90625 7.632812 -15.90625 C 4.84375 -15.90625 1.277344 -14.324219 1.277344 -10.589844 L 1.277344 -4.773438 C 1.277344 -1.0625 4.84375 0.355469 7.632812 0.355469 C 10.328125 0.355469 13.78125 -1.15625 13.992188 -4.5625 L 13.992188 -7.988281 C 13.992188 -8.414062 13.851562 -8.675781 13.308594 -8.675781 Z M 13.308594 -8.675781 "/></g></g></g><g fill="rgb(0%, 0%, 0%)" fill-opacity="1"><g transform="translate(180.780474, 115.59277)"><g><path d="M 13.378906 -15.550781 L 11.039062 -15.550781 C 10.613281 -15.550781 10.351562 -15.410156 10.351562 -14.867188 L 10.351562 -5.269531 C 10.351562 -3.78125 9.359375 -2.929688 7.800781 -2.929688 C 6.238281 -2.929688 5.269531 -3.78125 5.269531 -5.269531 L 5.269531 -14.867188 C 5.269531 -15.410156 5.011719 -15.550781 4.585938 -15.550781 L 2.246094 -15.550781 C 1.820312 -15.550781 1.558594 -15.410156 1.558594 -14.867188 L 1.558594 -4.75 C 1.558594 -1.039062 4.988281 0.355469 7.800781 0.355469 C 10.613281 0.355469 14.0625 -1.039062 14.0625 -4.75 L 14.0625 -14.867188 C 14.0625 -15.410156 13.804688 -15.550781 13.378906 -15.550781 Z M 13.378906 -15.550781 "/></g></g></g><g fill="rgb(0%, 0%, 0%)" fill-opacity="1"><g transform="translate(199.507431, 115.59277)"><g><path d="M 13.683594 -15.550781 L 11.417969 -15.550781 C 10.992188 -15.550781 10.730469 -15.410156 10.730469 -14.867188 L 10.730469 -6.664062 L 5.71875 -14.75 C 5.414062 -15.222656 5.246094 -15.550781 4.65625 -15.550781 L 2.433594 -15.550781 C 1.890625 -15.550781 1.75 -15.292969 1.75 -14.867188 L 1.75 -0.683594 C 1.75 -0.140625 2.007812 0 2.433594 0 L 4.773438 0 C 5.199219 0 5.460938 -0.140625 5.460938 -0.683594 L 5.460938 -8.910156 L 10.46875 -0.804688 C 10.777344 -0.332031 10.945312 0 11.535156 0 L 13.683594 0 C 14.230469 0 14.371094 -0.261719 14.371094 -0.683594 L 14.371094 -14.867188 C 14.371094 -15.410156 14.109375 -15.550781 13.683594 -15.550781 Z M 13.683594 -15.550781 "/></g></g></g><g fill="rgb(0%, 0%, 0%)" fill-opacity="1"><g transform="translate(218.730199, 115.59277)"><g><path d="M 9.074219 -9.027344 C 8.128906 -9.40625 4.65625 -9.925781 4.65625 -11.367188 C 4.65625 -12.433594 5.957031 -12.738281 6.734375 -12.738281 C 7.445312 -12.738281 8.296875 -12.527344 8.746094 -12.101562 C 9.027344 -11.816406 9.148438 -11.628906 9.242188 -11.390625 C 9.359375 -11.085938 9.429688 -10.753906 9.878906 -10.753906 L 12.195312 -10.753906 C 12.738281 -10.753906 12.882812 -10.847656 12.882812 -11.417969 C 12.882812 -14.535156 9.597656 -15.90625 6.59375 -15.90625 C 3.640625 -15.789062 0.851562 -14.277344 0.851562 -11.203125 C 0.851562 -8.203125 3.050781 -7.257812 5.4375 -6.5 C 7.445312 -5.863281 9.550781 -5.839844 9.550781 -4.515625 C 9.550781 -3.191406 8.507812 -2.90625 7.234375 -2.90625 C 6.359375 -2.90625 5.390625 -3.121094 4.917969 -3.6875 C 4.609375 -4.042969 4.492188 -4.347656 4.46875 -4.65625 C 4.417969 -5.246094 4.160156 -5.316406 3.617188 -5.316406 L 1.324219 -5.316406 C 0.78125 -5.316406 0.636719 -5.199219 0.636719 -4.65625 C 0.636719 -1.347656 4.042969 0.355469 6.996094 0.355469 C 10.636719 0.355469 13.285156 -1.253906 13.285156 -4.609375 C 13.285156 -7.824219 10.777344 -8.507812 9.074219 -9.027344 Z M 9.074219 -9.027344 "/></g></g></g><g fill="rgb(0%, 0%, 0%)" fill-opacity="1"><g transform="translate(47.913422, 147.366064)"><g><path d="M 15.125 -0.660156 L 9.902344 -14.820312 C 9.691406 -15.316406 9.453125 -15.550781 8.933594 -15.550781 L 6.664062 -15.550781 C 6.144531 -15.550781 5.886719 -15.316406 5.695312 -14.820312 L 0.449219 -0.660156 C 0.332031 -0.378906 0.332031 0 0.851562 0 L 3.332031 0 C 3.851562 0 4.042969 -0.140625 4.230469 -0.710938 L 4.894531 -2.578125 L 10.683594 -2.578125 L 11.34375 -0.710938 C 11.535156 -0.140625 11.722656 0 12.242188 0 L 14.726562 0 C 15.246094 0 15.246094 -0.378906 15.125 -0.660156 Z M 7.800781 -11.109375 L 9.574219 -5.886719 L 6.027344 -5.886719 Z M 7.800781 -11.109375 "/></g></g></g><g fill="rgb(0%, 0%, 0%)" fill-opacity="1"><g transform="translate(66.49873, 147.366064)"><g><path d="M 13.683594 -15.550781 L 11.417969 -15.550781 C 10.992188 -15.550781 10.730469 -15.410156 10.730469 -14.867188 L 10.730469 -6.664062 L 5.71875 -14.75 C 5.414062 -15.222656 5.246094 -15.550781 4.65625 -15.550781 L 2.433594 -15.550781 C 1.890625 -15.550781 1.75 -15.292969 1.75 -14.867188 L 1.75 -0.683594 C 1.75 -0.140625 2.007812 0 2.433594 0 L 4.773438 0 C 5.199219 0 5.460938 -0.140625 5.460938 -0.683594 L 5.460938 -8.910156 L 10.46875 -0.804688 C 10.777344 -0.332031 10.945312 0 11.535156 0 L 13.683594 0 C 14.230469 0 14.371094 -0.261719 14.371094 -0.683594 L 14.371094 -14.867188 C 14.371094 -15.410156 14.109375 -15.550781 13.683594 -15.550781 Z M 13.683594 -15.550781 "/></g></g></g><g fill="rgb(0%, 0%, 0%)" fill-opacity="1"><g transform="translate(85.721498, 147.366064)"><g><path d="M 12.265625 -15.550781 L 1.300781 -15.550781 C 0.757812 -15.550781 0.613281 -15.292969 0.613281 -14.867188 L 0.613281 -12.90625 C 0.613281 -12.480469 0.757812 -12.21875 1.300781 -12.21875 L 4.941406 -12.21875 L 4.941406 -0.683594 C 4.941406 -0.140625 5.199219 0 5.625 0 L 7.964844 0 C 8.390625 0 8.652344 -0.140625 8.652344 -0.683594 L 8.652344 -12.21875 L 12.265625 -12.21875 C 12.8125 -12.21875 12.953125 -12.480469 12.953125 -12.90625 L 12.953125 -14.867188 C 12.953125 -15.292969 12.8125 -15.550781 12.265625 -15.550781 Z M 12.265625 -15.550781 "/></g></g></g><g fill="rgb(0%, 0%, 0%)" fill-opacity="1"><g transform="translate(102.394452, 147.366064)"><g><path d="M 8.507812 -3.238281 L 7.019531 -3.238281 L 7.019531 -12.265625 L 8.4375 -12.265625 C 8.980469 -12.265625 9.125 -12.527344 9.125 -12.953125 L 9.125 -14.867188 C 9.125 -15.292969 8.980469 -15.550781 8.4375 -15.550781 L 1.867188 -15.550781 C 1.324219 -15.550781 1.183594 -15.292969 1.183594 -14.867188 L 1.183594 -12.953125 C 1.183594 -12.527344 1.324219 -12.265625 1.867188 -12.265625 L 3.308594 -12.265625 L 3.308594 -3.238281 L 1.820312 -3.238281 C 1.277344 -3.238281 1.132812 -2.976562 1.132812 -2.550781 L 1.132812 -0.683594 C 1.132812 -0.261719 1.277344 0 1.820312 0 L 8.507812 0 C 9.050781 0 9.195312 -0.261719 9.195312 -0.683594 L 9.195312 -2.550781 C 9.195312 -2.976562 9.050781 -3.238281 8.507812 -3.238281 Z M 8.507812 -3.238281 "/></g></g></g><g fill="rgb(0%, 0%, 0%)" fill-opacity="1"><g transform="translate(115.998187, 147.366064)"><g><path d="M 12.835938 -8.058594 C 13.046875 -8.15625 14.558594 -8.910156 14.558594 -11.296875 C 14.558594 -13.519531 12.90625 -15.574219 9.050781 -15.574219 L 2.433594 -15.574219 C 1.890625 -15.574219 1.75 -15.316406 1.75 -14.890625 L 1.75 -0.683594 C 1.75 -0.261719 1.890625 0 2.433594 0 L 9.382812 0 C 12.667969 0 15.007812 -1.535156 15.007812 -4.539062 C 15.007812 -7.089844 13.023438 -7.988281 12.835938 -8.058594 Z M 9.429688 -3.355469 L 5.460938 -3.355469 L 5.460938 -12.242188 L 9.050781 -12.242188 C 10.28125 -12.242188 11.015625 -11.984375 11.015625 -10.917969 C 11.015625 -9.996094 10.421875 -9.5 9.050781 -9.5 L 8.746094 -9.5 C 8.203125 -9.5 8.058594 -9.242188 8.058594 -8.816406 L 8.058594 -7.019531 C 8.058594 -6.59375 8.203125 -6.335938 8.746094 -6.335938 L 9.289062 -6.335938 C 10.421875 -6.335938 11.25 -6.003906 11.25 -4.894531 C 11.25 -3.828125 10.589844 -3.355469 9.429688 -3.355469 Z M 9.429688 -3.355469 "/></g></g></g><g fill="rgb(0%, 0%, 0%)" fill-opacity="1"><g transform="translate(135.33901, 147.366064)"><g><path d="M 8.507812 -3.238281 L 7.019531 -3.238281 L 7.019531 -12.265625 L 8.4375 -12.265625 C 8.980469 -12.265625 9.125 -12.527344 9.125 -12.953125 L 9.125 -14.867188 C 9.125 -15.292969 8.980469 -15.550781 8.4375 -15.550781 L 1.867188 -15.550781 C 1.324219 -15.550781 1.183594 -15.292969 1.183594 -14.867188 L 1.183594 -12.953125 C 1.183594 -12.527344 1.324219 -12.265625 1.867188 -12.265625 L 3.308594 -12.265625 L 3.308594 -3.238281 L 1.820312 -3.238281 C 1.277344 -3.238281 1.132812 -2.976562 1.132812 -2.550781 L 1.132812 -0.683594 C 1.132812 -0.261719 1.277344 0 1.820312 0 L 8.507812 0 C 9.050781 0 9.195312 -0.261719 9.195312 -0.683594 L 9.195312 -2.550781 C 9.195312 -2.976562 9.050781 -3.238281 8.507812 -3.238281 Z M 8.507812 -3.238281 "/></g></g></g><g fill="rgb(0%, 0%, 0%)" fill-opacity="1"><g transform="translate(148.942745, 147.366064)"><g><path d="M 5.390625 -16.921875 L 7.707031 -16.921875 C 8.296875 -16.921875 8.484375 -17.253906 8.816406 -17.585938 L 11.179688 -20.136719 C 11.390625 -20.351562 11.320312 -20.800781 10.730469 -20.800781 L 7.730469 -20.800781 C 7.207031 -20.800781 7.019531 -20.730469 6.664062 -20.136719 L 5.082031 -17.585938 C 4.941406 -17.371094 4.941406 -16.921875 5.390625 -16.921875 Z M 13.96875 -4.988281 L 13.96875 -10.566406 C 13.96875 -14.300781 10.421875 -15.90625 7.609375 -15.90625 C 4.796875 -15.90625 1.300781 -14.300781 1.300781 -10.566406 L 1.300781 -4.988281 C 1.300781 -1.253906 4.796875 0.355469 7.609375 0.355469 C 10.421875 0.355469 13.96875 -1.253906 13.96875 -4.988281 Z M 10.257812 -10.234375 L 10.257812 -5.316406 C 10.257812 -3.804688 9.171875 -2.929688 7.609375 -2.929688 C 6.074219 -2.929688 4.988281 -3.804688 4.988281 -5.316406 L 4.988281 -10.234375 C 4.988281 -11.746094 6.074219 -12.621094 7.609375 -12.621094 C 9.171875 -12.621094 10.257812 -11.746094 10.257812 -10.234375 Z M 10.257812 -10.234375 "/></g></g></g><g fill="rgb(0%, 0%, 0%)" fill-opacity="1"><g transform="translate(167.291978, 147.366064)"><g><path d="M 12.265625 -15.550781 L 1.300781 -15.550781 C 0.757812 -15.550781 0.613281 -15.292969 0.613281 -14.867188 L 0.613281 -12.90625 C 0.613281 -12.480469 0.757812 -12.21875 1.300781 -12.21875 L 4.941406 -12.21875 L 4.941406 -0.683594 C 4.941406 -0.140625 5.199219 0 5.625 0 L 7.964844 0 C 8.390625 0 8.652344 -0.140625 8.652344 -0.683594 L 8.652344 -12.21875 L 12.265625 -12.21875 C 12.8125 -12.21875 12.953125 -12.480469 12.953125 -12.90625 L 12.953125 -14.867188 C 12.953125 -15.292969 12.8125 -15.550781 12.265625 -15.550781 Z M 12.265625 -15.550781 "/></g></g></g><g fill="rgb(0%, 0%, 0%)" fill-opacity="1"><g transform="translate(183.964926, 147.366064)"><g><path d="M 8.507812 -3.238281 L 7.019531 -3.238281 L 7.019531 -12.265625 L 8.4375 -12.265625 C 8.980469 -12.265625 9.125 -12.527344 9.125 -12.953125 L 9.125 -14.867188 C 9.125 -15.292969 8.980469 -15.550781 8.4375 -15.550781 L 1.867188 -15.550781 C 1.324219 -15.550781 1.183594 -15.292969 1.183594 -14.867188 L 1.183594 -12.953125 C 1.183594 -12.527344 1.324219 -12.265625 1.867188 -12.265625 L 3.308594 -12.265625 L 3.308594 -3.238281 L 1.820312 -3.238281 C 1.277344 -3.238281 1.132812 -2.976562 1.132812 -2.550781 L 1.132812 -0.683594 C 1.132812 -0.261719 1.277344 0 1.820312 0 L 8.507812 0 C 9.050781 0 9.195312 -0.261719 9.195312 -0.683594 L 9.195312 -2.550781 C 9.195312 -2.976562 9.050781 -3.238281 8.507812 -3.238281 Z M 8.507812 -3.238281 "/></g></g></g><g fill="rgb(0%, 0%, 0%)" fill-opacity="1"><g transform="translate(197.568654, 147.366064)"><g><path d="M 13.730469 -4.609375 C 13.730469 -5.175781 13.542969 -5.414062 13.023438 -5.414062 L 10.707031 -5.414062 C 10.1875 -5.414062 10.140625 -5.035156 10.070312 -4.5625 C 9.878906 -3.425781 8.863281 -2.953125 7.585938 -2.953125 C 6.027344 -2.953125 4.964844 -3.804688 4.964844 -5.316406 L 4.964844 -10.234375 C 4.964844 -11.722656 6.027344 -12.597656 7.585938 -12.597656 C 8.863281 -12.597656 9.523438 -12.242188 10.023438 -11.464844 C 10.210938 -11.179688 10.234375 -10.730469 10.730469 -10.730469 L 13 -10.730469 C 13.542969 -10.730469 13.730469 -10.847656 13.730469 -11.417969 C 13.425781 -14.417969 10.519531 -15.90625 7.585938 -15.90625 C 4.773438 -15.90625 1.253906 -14.277344 1.253906 -10.566406 L 1.253906 -4.988281 C 1.253906 -1.277344 4.773438 0.355469 7.585938 0.355469 C 10.519531 0.355469 13.730469 -1.558594 13.730469 -4.609375 Z M 13.730469 -4.609375 "/></g></g></g><g fill="rgb(0%, 0%, 0%)" fill-opacity="1"><g transform="translate(215.610955, 147.366064)"><g><path d="M 13.96875 -4.988281 L 13.96875 -10.566406 C 13.96875 -14.300781 10.421875 -15.90625 7.609375 -15.90625 C 4.796875 -15.90625 1.300781 -14.300781 1.300781 -10.566406 L 1.300781 -4.988281 C 1.300781 -1.253906 4.796875 0.355469 7.609375 0.355469 C 10.421875 0.355469 13.96875 -1.253906 13.96875 -4.988281 Z M 10.257812 -10.234375 L 10.257812 -5.316406 C 10.257812 -3.804688 9.171875 -2.929688 7.609375 -2.929688 C 6.074219 -2.929688 4.988281 -3.804688 4.988281 -5.316406 L 4.988281 -10.234375 C 4.988281 -11.746094 6.074219 -12.621094 7.609375 -12.621094 C 9.171875 -12.621094 10.257812 -11.746094 10.257812 -10.234375 Z M 10.257812 -10.234375 "/></g></g></g><g fill="rgb(0%, 0%, 0%)" fill-opacity="1"><g transform="translate(233.960175, 147.366064)"><g><path d="M 9.074219 -9.027344 C 8.128906 -9.40625 4.65625 -9.925781 4.65625 -11.367188 C 4.65625 -12.433594 5.957031 -12.738281 6.734375 -12.738281 C 7.445312 -12.738281 8.296875 -12.527344 8.746094 -12.101562 C 9.027344 -11.816406 9.148438 -11.628906 9.242188 -11.390625 C 9.359375 -11.085938 9.429688 -10.753906 9.878906 -10.753906 L 12.195312 -10.753906 C 12.738281 -10.753906 12.882812 -10.847656 12.882812 -11.417969 C 12.882812 -14.535156 9.597656 -15.90625 6.59375 -15.90625 C 3.640625 -15.789062 0.851562 -14.277344 0.851562 -11.203125 C 0.851562 -8.203125 3.050781 -7.257812 5.4375 -6.5 C 7.445312 -5.863281 9.550781 -5.839844 9.550781 -4.515625 C 9.550781 -3.191406 8.507812 -2.90625 7.234375 -2.90625 C 6.359375 -2.90625 5.390625 -3.121094 4.917969 -3.6875 C 4.609375 -4.042969 4.492188 -4.347656 4.46875 -4.65625 C 4.417969 -5.246094 4.160156 -5.316406 3.617188 -5.316406 L 1.324219 -5.316406 C 0.78125 -5.316406 0.636719 -5.199219 0.636719 -4.65625 C 0.636719 -1.347656 4.042969 0.355469 6.996094 0.355469 C 10.636719 0.355469 13.285156 -1.253906 13.285156 -4.609375 C 13.285156 -7.824219 10.777344 -8.507812 9.074219 -9.027344 Z M 9.074219 -9.027344 "/></g></g></g><g fill="rgb(0%, 0%, 0%)" fill-opacity="1"><g transform="translate(251.365015, 147.366064)"><g/></g></g><g fill="rgb(0%, 0%, 0%)" fill-opacity="1"><g transform="translate(260.884307, 147.366064)"><g><path d="M 9.074219 -9.027344 C 8.128906 -9.40625 4.65625 -9.925781 4.65625 -11.367188 C 4.65625 -12.433594 5.957031 -12.738281 6.734375 -12.738281 C 7.445312 -12.738281 8.296875 -12.527344 8.746094 -12.101562 C 9.027344 -11.816406 9.148438 -11.628906 9.242188 -11.390625 C 9.359375 -11.085938 9.429688 -10.753906 9.878906 -10.753906 L 12.195312 -10.753906 C 12.738281 -10.753906 12.882812 -10.847656 12.882812 -11.417969 C 12.882812 -14.535156 9.597656 -15.90625 6.59375 -15.90625 C 3.640625 -15.789062 0.851562 -14.277344 0.851562 -11.203125 C 0.851562 -8.203125 3.050781 -7.257812 5.4375 -6.5 C 7.445312 -5.863281 9.550781 -5.839844 9.550781 -4.515625 C 9.550781 -3.191406 8.507812 -2.90625 7.234375 -2.90625 C 6.359375 -2.90625 5.390625 -3.121094 4.917969 -3.6875 C 4.609375 -4.042969 4.492188 -4.347656 4.46875 -4.65625 C 4.417969 -5.246094 4.160156 -5.316406 3.617188 -5.316406 L 1.324219 -5.316406 C 0.78125 -5.316406 0.636719 -5.199219 0.636719 -4.65625 C 0.636719 -1.347656 4.042969 0.355469 6.996094 0.355469 C 10.636719 0.355469 13.285156 -1.253906 13.285156 -4.609375 C 13.285156 -7.824219 10.777344 -8.507812 9.074219 -9.027344 Z M 9.074219 -9.027344 "/></g></g></g><g fill="rgb(0%, 0%, 0%)" fill-opacity="1"><g transform="translate(278.289147, 147.366064)"><g><path d="M 12.101562 -20.019531 L 11.015625 -20.019531 C 10.589844 -20.019531 10.496094 -19.832031 10.421875 -19.59375 C 10.28125 -19.121094 9.902344 -19.003906 9.597656 -19.050781 C 9.3125 -19.097656 7.917969 -19.59375 7.917969 -19.59375 C 7.398438 -19.78125 6.617188 -20.019531 6.003906 -20.019531 C 4.46875 -20.019531 3.449219 -18.8125 3.449219 -17.417969 L 3.449219 -17.394531 C 3.449219 -17.253906 3.449219 -16.921875 3.734375 -16.921875 L 4.820312 -16.921875 C 5.246094 -16.921875 5.339844 -17.113281 5.414062 -17.347656 C 5.554688 -17.820312 5.933594 -17.941406 6.238281 -17.890625 C 6.523438 -17.84375 7.917969 -17.347656 7.917969 -17.347656 C 8.4375 -17.160156 9.21875 -16.921875 9.832031 -16.921875 C 11.367188 -16.921875 12.386719 -18.128906 12.386719 -19.523438 L 12.386719 -19.546875 C 12.386719 -19.6875 12.386719 -20.019531 12.101562 -20.019531 Z M 15.125 -0.660156 L 9.902344 -14.820312 C 9.691406 -15.316406 9.453125 -15.550781 8.933594 -15.550781 L 6.664062 -15.550781 C 6.144531 -15.550781 5.886719 -15.316406 5.695312 -14.820312 L 0.449219 -0.660156 C 0.332031 -0.378906 0.332031 0 0.851562 0 L 3.332031 0 C 3.851562 0 4.042969 -0.140625 4.230469 -0.710938 L 4.894531 -2.578125 L 10.683594 -2.578125 L 11.34375 -0.710938 C 11.535156 -0.140625 11.722656 0 12.242188 0 L 14.726562 0 C 15.246094 0 15.246094 -0.378906 15.125 -0.660156 Z M 7.800781 -11.109375 L 9.574219 -5.886719 L 6.027344 -5.886719 Z M 7.800781 -11.109375 "/></g></g></g><g fill="rgb(0%, 0%, 0%)" fill-opacity="1"><g transform="translate(296.874449, 147.366064)"><g><path d="M 13.96875 -4.988281 L 13.96875 -10.566406 C 13.96875 -14.300781 10.421875 -15.90625 7.609375 -15.90625 C 4.796875 -15.90625 1.300781 -14.300781 1.300781 -10.566406 L 1.300781 -4.988281 C 1.300781 -1.253906 4.796875 0.355469 7.609375 0.355469 C 10.421875 0.355469 13.96875 -1.253906 13.96875 -4.988281 Z M 10.257812 -10.234375 L 10.257812 -5.316406 C 10.257812 -3.804688 9.171875 -2.929688 7.609375 -2.929688 C 6.074219 -2.929688 4.988281 -3.804688 4.988281 -5.316406 L 4.988281 -10.234375 C 4.988281 -11.746094 6.074219 -12.621094 7.609375 -12.621094 C 9.171875 -12.621094 10.257812 -11.746094 10.257812 -10.234375 Z M 10.257812 -10.234375 "/></g></g></g><g fill="rgb(0%, 0%, 0%)" fill-opacity="1"><g transform="translate(52.381541, 179.139359)"><g><path d="M 7.730469 -15.550781 L 2.433594 -15.550781 C 1.890625 -15.550781 1.75 -15.292969 1.75 -14.867188 L 1.75 -0.683594 C 1.75 -0.261719 1.890625 0 2.433594 0 L 7.730469 0 C 10.542969 0 14.085938 -1.605469 14.085938 -5.316406 L 14.085938 -10.234375 C 14.085938 -13.921875 10.542969 -15.550781 7.730469 -15.550781 Z M 10.375 -9.902344 L 10.375 -5.648438 C 10.375 -4.136719 9.289062 -3.285156 7.730469 -3.285156 L 5.460938 -3.285156 L 5.460938 -12.265625 L 7.730469 -12.265625 C 9.289062 -12.265625 10.375 -11.390625 10.375 -9.902344 Z M 10.375 -9.902344 "/></g></g></g><g fill="rgb(0%, 0%, 0%)" fill-opacity="1"><g transform="translate(70.848795, 179.139359)"><g><path d="M 13.023438 -3.308594 L 5.484375 -3.308594 L 5.484375 -6.429688 L 11.816406 -6.429688 C 12.363281 -6.429688 12.503906 -6.6875 12.503906 -7.113281 L 12.503906 -8.957031 C 12.503906 -9.382812 12.363281 -9.644531 11.816406 -9.644531 L 5.484375 -9.644531 L 5.484375 -12.21875 L 12.621094 -12.21875 C 13.164062 -12.21875 13.308594 -12.480469 13.308594 -12.90625 L 13.308594 -14.867188 C 13.308594 -15.292969 13.164062 -15.550781 12.621094 -15.550781 L 2.433594 -15.550781 C 1.890625 -15.550781 1.75 -15.292969 1.75 -14.867188 L 1.75 -0.683594 C 1.75 -0.261719 1.890625 0 2.433594 0 L 13.023438 0 C 13.566406 0 13.707031 -0.261719 13.707031 -0.683594 L 13.707031 -2.625 C 13.707031 -3.050781 13.566406 -3.308594 13.023438 -3.308594 Z M 13.023438 -3.308594 "/></g></g></g><g fill="rgb(0%, 0%, 0%)" fill-opacity="1"><g transform="translate(88.773048, 179.139359)"><g><path d="M 9.074219 -9.027344 C 8.128906 -9.40625 4.65625 -9.925781 4.65625 -11.367188 C 4.65625 -12.433594 5.957031 -12.738281 6.734375 -12.738281 C 7.445312 -12.738281 8.296875 -12.527344 8.746094 -12.101562 C 9.027344 -11.816406 9.148438 -11.628906 9.242188 -11.390625 C 9.359375 -11.085938 9.429688 -10.753906 9.878906 -10.753906 L 12.195312 -10.753906 C 12.738281 -10.753906 12.882812 -10.847656 12.882812 -11.417969 C 12.882812 -14.535156 9.597656 -15.90625 6.59375 -15.90625 C 3.640625 -15.789062 0.851562 -14.277344 0.851562 -11.203125 C 0.851562 -8.203125 3.050781 -7.257812 5.4375 -6.5 C 7.445312 -5.863281 9.550781 -5.839844 9.550781 -4.515625 C 9.550781 -3.191406 8.507812 -2.90625 7.234375 -2.90625 C 6.359375 -2.90625 5.390625 -3.121094 4.917969 -3.6875 C 4.609375 -4.042969 4.492188 -4.347656 4.46875 -4.65625 C 4.417969 -5.246094 4.160156 -5.316406 3.617188 -5.316406 L 1.324219 -5.316406 C 0.78125 -5.316406 0.636719 -5.199219 0.636719 -4.65625 C 0.636719 -1.347656 4.042969 0.355469 6.996094 0.355469 C 10.636719 0.355469 13.285156 -1.253906 13.285156 -4.609375 C 13.285156 -7.824219 10.777344 -8.507812 9.074219 -9.027344 Z M 9.074219 -9.027344 "/></g></g></g><g fill="rgb(0%, 0%, 0%)" fill-opacity="1"><g transform="translate(106.177896, 179.139359)"><g><path d="M 13.023438 -3.308594 L 5.484375 -3.308594 L 5.484375 -6.429688 L 11.816406 -6.429688 C 12.363281 -6.429688 12.503906 -6.6875 12.503906 -7.113281 L 12.503906 -8.957031 C 12.503906 -9.382812 12.363281 -9.644531 11.816406 -9.644531 L 5.484375 -9.644531 L 5.484375 -12.21875 L 12.621094 -12.21875 C 13.164062 -12.21875 13.308594 -12.480469 13.308594 -12.90625 L 13.308594 -14.867188 C 13.308594 -15.292969 13.164062 -15.550781 12.621094 -15.550781 L 2.433594 -15.550781 C 1.890625 -15.550781 1.75 -15.292969 1.75 -14.867188 L 1.75 -0.683594 C 1.75 -0.261719 1.890625 0 2.433594 0 L 13.023438 0 C 13.566406 0 13.707031 -0.261719 13.707031 -0.683594 L 13.707031 -2.625 C 13.707031 -3.050781 13.566406 -3.308594 13.023438 -3.308594 Z M 13.023438 -3.308594 "/></g></g></g><g fill="rgb(0%, 0%, 0%)" fill-opacity="1"><g transform="translate(124.102149, 179.139359)"><g><path d="M 13.683594 -15.550781 L 11.417969 -15.550781 C 10.992188 -15.550781 10.730469 -15.410156 10.730469 -14.867188 L 10.730469 -6.664062 L 5.71875 -14.75 C 5.414062 -15.222656 5.246094 -15.550781 4.65625 -15.550781 L 2.433594 -15.550781 C 1.890625 -15.550781 1.75 -15.292969 1.75 -14.867188 L 1.75 -0.683594 C 1.75 -0.140625 2.007812 0 2.433594 0 L 4.773438 0 C 5.199219 0 5.460938 -0.140625 5.460938 -0.683594 L 5.460938 -8.910156 L 10.46875 -0.804688 C 10.777344 -0.332031 10.945312 0 11.535156 0 L 13.683594 0 C 14.230469 0 14.371094 -0.261719 14.371094 -0.683594 L 14.371094 -14.867188 C 14.371094 -15.410156 14.109375 -15.550781 13.683594 -15.550781 Z M 13.683594 -15.550781 "/></g></g></g><g fill="rgb(0%, 0%, 0%)" fill-opacity="1"><g transform="translate(143.324917, 179.139359)"><g><path d="M 14.15625 -15.550781 L 11.652344 -15.550781 C 11.015625 -15.550781 10.847656 -15.363281 10.660156 -14.796875 L 7.46875 -5.011719 L 4.253906 -14.796875 C 4.066406 -15.363281 3.898438 -15.550781 3.285156 -15.550781 L 0.660156 -15.550781 C 0.210938 -15.550781 0.117188 -15.175781 0.238281 -14.867188 L 5.316406 -0.710938 C 5.601562 -0.09375 5.765625 0 6.289062 0 L 8.554688 0 C 9.074219 0 9.242188 -0.09375 9.523438 -0.710938 L 14.582031 -14.867188 C 14.703125 -15.175781 14.605469 -15.550781 14.15625 -15.550781 Z M 14.15625 -15.550781 "/></g></g></g><g fill="rgb(0%, 0%, 0%)" fill-opacity="1"><g transform="translate(161.461657, 179.139359)"><g><path d="M 13.96875 -4.988281 L 13.96875 -10.566406 C 13.96875 -14.300781 10.421875 -15.90625 7.609375 -15.90625 C 4.796875 -15.90625 1.300781 -14.300781 1.300781 -10.566406 L 1.300781 -4.988281 C 1.300781 -1.253906 4.796875 0.355469 7.609375 0.355469 C 10.421875 0.355469 13.96875 -1.253906 13.96875 -4.988281 Z M 10.257812 -10.234375 L 10.257812 -5.316406 C 10.257812 -3.804688 9.171875 -2.929688 7.609375 -2.929688 C 6.074219 -2.929688 4.988281 -3.804688 4.988281 -5.316406 L 4.988281 -10.234375 C 4.988281 -11.746094 6.074219 -12.621094 7.609375 -12.621094 C 9.171875 -12.621094 10.257812 -11.746094 10.257812 -10.234375 Z M 10.257812 -10.234375 "/></g></g></g><g fill="rgb(0%, 0%, 0%)" fill-opacity="1"><g transform="translate(179.81089, 179.139359)"><g><path d="M 12.265625 -3.308594 L 5.460938 -3.308594 L 5.460938 -14.867188 C 5.460938 -15.410156 5.199219 -15.550781 4.773438 -15.550781 L 2.433594 -15.550781 C 2.007812 -15.550781 1.75 -15.410156 1.75 -14.867188 L 1.75 -0.683594 C 1.75 -0.261719 1.890625 0 2.433594 0 L 12.265625 0 C 12.8125 0 12.953125 -0.261719 12.953125 -0.683594 L 12.953125 -2.625 C 12.953125 -3.050781 12.8125 -3.308594 12.265625 -3.308594 Z M 12.265625 -3.308594 "/></g></g></g><g fill="rgb(0%, 0%, 0%)" fill-opacity="1"><g transform="translate(196.672703, 179.139359)"><g><path d="M 14.15625 -15.550781 L 11.652344 -15.550781 C 11.015625 -15.550781 10.847656 -15.363281 10.660156 -14.796875 L 7.46875 -5.011719 L 4.253906 -14.796875 C 4.066406 -15.363281 3.898438 -15.550781 3.285156 -15.550781 L 0.660156 -15.550781 C 0.210938 -15.550781 0.117188 -15.175781 0.238281 -14.867188 L 5.316406 -0.710938 C 5.601562 -0.09375 5.765625 0 6.289062 0 L 8.554688 0 C 9.074219 0 9.242188 -0.09375 9.523438 -0.710938 L 14.582031 -14.867188 C 14.703125 -15.175781 14.605469 -15.550781 14.15625 -15.550781 Z M 14.15625 -15.550781 "/></g></g></g><g fill="rgb(0%, 0%, 0%)" fill-opacity="1"><g transform="translate(214.809436, 179.139359)"><g><path d="M 8.507812 -3.238281 L 7.019531 -3.238281 L 7.019531 -12.265625 L 8.4375 -12.265625 C 8.980469 -12.265625 9.125 -12.527344 9.125 -12.953125 L 9.125 -14.867188 C 9.125 -15.292969 8.980469 -15.550781 8.4375 -15.550781 L 1.867188 -15.550781 C 1.324219 -15.550781 1.183594 -15.292969 1.183594 -14.867188 L 1.183594 -12.953125 C 1.183594 -12.527344 1.324219 -12.265625 1.867188 -12.265625 L 3.308594 -12.265625 L 3.308594 -3.238281 L 1.820312 -3.238281 C 1.277344 -3.238281 1.132812 -2.976562 1.132812 -2.550781 L 1.132812 -0.683594 C 1.132812 -0.261719 1.277344 0 1.820312 0 L 8.507812 0 C 9.050781 0 9.195312 -0.261719 9.195312 -0.683594 L 9.195312 -2.550781 C 9.195312 -2.976562 9.050781 -3.238281 8.507812 -3.238281 Z M 8.507812 -3.238281 "/></g></g></g><g fill="rgb(0%, 0%, 0%)" fill-opacity="1"><g transform="translate(228.413165, 179.139359)"><g><path d="M 7.730469 -15.550781 L 2.433594 -15.550781 C 1.890625 -15.550781 1.75 -15.292969 1.75 -14.867188 L 1.75 -0.683594 C 1.75 -0.261719 1.890625 0 2.433594 0 L 7.730469 0 C 10.542969 0 14.085938 -1.605469 14.085938 -5.316406 L 14.085938 -10.234375 C 14.085938 -13.921875 10.542969 -15.550781 7.730469 -15.550781 Z M 10.375 -9.902344 L 10.375 -5.648438 C 10.375 -4.136719 9.289062 -3.285156 7.730469 -3.285156 L 5.460938 -3.285156 L 5.460938 -12.265625 L 7.730469 -12.265625 C 9.289062 -12.265625 10.375 -11.390625 10.375 -9.902344 Z M 10.375 -9.902344 "/></g></g></g><g fill="rgb(0%, 0%, 0%)" fill-opacity="1"><g transform="translate(246.880412, 179.139359)"><g><path d="M 13.96875 -4.988281 L 13.96875 -10.566406 C 13.96875 -14.300781 10.421875 -15.90625 7.609375 -15.90625 C 4.796875 -15.90625 1.300781 -14.300781 1.300781 -10.566406 L 1.300781 -4.988281 C 1.300781 -1.253906 4.796875 0.355469 7.609375 0.355469 C 10.421875 0.355469 13.96875 -1.253906 13.96875 -4.988281 Z M 10.257812 -10.234375 L 10.257812 -5.316406 C 10.257812 -3.804688 9.171875 -2.929688 7.609375 -2.929688 C 6.074219 -2.929688 4.988281 -3.804688 4.988281 -5.316406 L 4.988281 -10.234375 C 4.988281 -11.746094 6.074219 -12.621094 7.609375 -12.621094 C 9.171875 -12.621094 10.257812 -11.746094 10.257812 -10.234375 Z M 10.257812 -10.234375 "/></g></g></g><g fill="rgb(0%, 0%, 0%)" fill-opacity="1"><g transform="translate(265.229632, 179.139359)"><g><path d="M 9.074219 -9.027344 C 8.128906 -9.40625 4.65625 -9.925781 4.65625 -11.367188 C 4.65625 -12.433594 5.957031 -12.738281 6.734375 -12.738281 C 7.445312 -12.738281 8.296875 -12.527344 8.746094 -12.101562 C 9.027344 -11.816406 9.148438 -11.628906 9.242188 -11.390625 C 9.359375 -11.085938 9.429688 -10.753906 9.878906 -10.753906 L 12.195312 -10.753906 C 12.738281 -10.753906 12.882812 -10.847656 12.882812 -11.417969 C 12.882812 -14.535156 9.597656 -15.90625 6.59375 -15.90625 C 3.640625 -15.789062 0.851562 -14.277344 0.851562 -11.203125 C 0.851562 -8.203125 3.050781 -7.257812 5.4375 -6.5 C 7.445312 -5.863281 9.550781 -5.839844 9.550781 -4.515625 C 9.550781 -3.191406 8.507812 -2.90625 7.234375 -2.90625 C 6.359375 -2.90625 5.390625 -3.121094 4.917969 -3.6875 C 4.609375 -4.042969 4.492188 -4.347656 4.46875 -4.65625 C 4.417969 -5.246094 4.160156 -5.316406 3.617188 -5.316406 L 1.324219 -5.316406 C 0.78125 -5.316406 0.636719 -5.199219 0.636719 -4.65625 C 0.636719 -1.347656 4.042969 0.355469 6.996094 0.355469 C 10.636719 0.355469 13.285156 -1.253906 13.285156 -4.609375 C 13.285156 -7.824219 10.777344 -8.507812 9.074219 -9.027344 Z M 9.074219 -9.027344 "/></g></g></g><g fill="rgb(0%, 0%, 0%)" fill-opacity="1"><g transform="translate(282.634472, 179.139359)"><g/></g></g><g fill="rgb(0%, 0%, 0%)" fill-opacity="1"><g transform="translate(292.153764, 179.139359)"><g><path d="M 15.125 -0.660156 L 9.902344 -14.820312 C 9.691406 -15.316406 9.453125 -15.550781 8.933594 -15.550781 L 6.664062 -15.550781 C 6.144531 -15.550781 5.886719 -15.316406 5.695312 -14.820312 L 0.449219 -0.660156 C 0.332031 -0.378906 0.332031 0 0.851562 0 L 3.332031 0 C 3.851562 0 4.042969 -0.140625 4.230469 -0.710938 L 4.894531 -2.578125 L 10.683594 -2.578125 L 11.34375 -0.710938 C 11.535156 -0.140625 11.722656 0 12.242188 0 L 14.726562 0 C 15.246094 0 15.246094 -0.378906 15.125 -0.660156 Z M 7.800781 -11.109375 L 9.574219 -5.886719 L 6.027344 -5.886719 Z M 7.800781 -11.109375 "/></g></g></g><g fill="rgb(0%, 0%, 0%)" fill-opacity="1"><g transform="translate(106.357529, 210.912654)"><g><path d="M 7.753906 -15.550781 L 2.433594 -15.550781 C 1.890625 -15.550781 1.75 -15.292969 1.75 -14.867188 L 1.75 -0.683594 C 1.75 -0.140625 2.007812 0 2.433594 0 L 4.773438 0 C 5.199219 0 5.460938 -0.140625 5.460938 -0.683594 L 5.460938 -4.609375 L 7.730469 -4.609375 C 11.769531 -4.609375 13.945312 -6.785156 13.945312 -10.070312 C 13.945312 -13.332031 11.816406 -15.550781 7.753906 -15.550781 Z M 7.730469 -7.800781 L 5.460938 -7.800781 L 5.460938 -12.21875 L 7.730469 -12.21875 C 9.574219 -12.21875 10.375 -11.226562 10.375 -9.996094 C 10.375 -8.816406 9.574219 -7.800781 7.730469 -7.800781 Z M 7.730469 -7.800781 "/></g></g></g><g fill="rgb(0%, 0%, 0%)" fill-opacity="1"><g transform="translate(124.305377, 210.912654)"><g><path d="M 15.125 -0.660156 L 9.902344 -14.820312 C 9.691406 -15.316406 9.453125 -15.550781 8.933594 -15.550781 L 6.664062 -15.550781 C 6.144531 -15.550781 5.886719 -15.316406 5.695312 -14.820312 L 0.449219 -0.660156 C 0.332031 -0.378906 0.332031 0 0.851562 0 L 3.332031 0 C 3.851562 0 4.042969 -0.140625 4.230469 -0.710938 L 4.894531 -2.578125 L 10.683594 -2.578125 L 11.34375 -0.710938 C 11.535156 -0.140625 11.722656 0 12.242188 0 L 14.726562 0 C 15.246094 0 15.246094 -0.378906 15.125 -0.660156 Z M 7.800781 -11.109375 L 9.574219 -5.886719 L 6.027344 -5.886719 Z M 7.800781 -11.109375 "/></g></g></g><g fill="rgb(0%, 0%, 0%)" fill-opacity="1"><g transform="translate(142.890685, 210.912654)"><g><path d="M 14.488281 -0.757812 L 11.15625 -5.601562 C 12.621094 -6.097656 14.441406 -7.824219 14.441406 -10.304688 C 14.441406 -11.816406 13.945312 -13.164062 13.070312 -14.015625 C 12.078125 -15.007812 10.945312 -15.527344 8.367188 -15.527344 L 2.410156 -15.527344 C 1.867188 -15.527344 1.75 -15.269531 1.75 -14.84375 L 1.75 -0.683594 C 1.75 -0.140625 1.984375 0 2.410156 0 L 4.75 0 C 5.175781 0 5.4375 -0.140625 5.4375 -0.683594 L 5.4375 -12.21875 L 8.578125 -12.21875 C 9.808594 -12.21875 10.753906 -11.441406 10.753906 -10.210938 C 10.753906 -9.101562 9.667969 -8.296875 8.507812 -8.296875 L 8.035156 -8.296875 C 7.492188 -8.296875 7.351562 -8.035156 7.351562 -7.609375 L 7.351562 -5.71875 C 7.351562 -5.058594 7.398438 -4.796875 7.609375 -4.515625 L 10.164062 -0.710938 C 10.496094 -0.210938 10.777344 0 11.34375 0 L 14.132812 0 C 14.582031 0 14.703125 -0.425781 14.488281 -0.757812 Z M 14.488281 -0.757812 "/></g></g></g><g fill="rgb(0%, 0%, 0%)" fill-opacity="1"><g transform="translate(161.735696, 210.912654)"><g><path d="M 12.265625 -15.550781 L 1.300781 -15.550781 C 0.757812 -15.550781 0.613281 -15.292969 0.613281 -14.867188 L 0.613281 -12.90625 C 0.613281 -12.480469 0.757812 -12.21875 1.300781 -12.21875 L 4.941406 -12.21875 L 4.941406 -0.683594 C 4.941406 -0.140625 5.199219 0 5.625 0 L 7.964844 0 C 8.390625 0 8.652344 -0.140625 8.652344 -0.683594 L 8.652344 -12.21875 L 12.265625 -12.21875 C 12.8125 -12.21875 12.953125 -12.480469 12.953125 -12.90625 L 12.953125 -14.867188 C 12.953125 -15.292969 12.8125 -15.550781 12.265625 -15.550781 Z M 12.265625 -15.550781 "/></g></g></g><g fill="rgb(0%, 0%, 0%)" fill-opacity="1"><g transform="translate(178.40865, 210.912654)"><g><path d="M 8.507812 -3.238281 L 7.019531 -3.238281 L 7.019531 -12.265625 L 8.4375 -12.265625 C 8.980469 -12.265625 9.125 -12.527344 9.125 -12.953125 L 9.125 -14.867188 C 9.125 -15.292969 8.980469 -15.550781 8.4375 -15.550781 L 1.867188 -15.550781 C 1.324219 -15.550781 1.183594 -15.292969 1.183594 -14.867188 L 1.183594 -12.953125 C 1.183594 -12.527344 1.324219 -12.265625 1.867188 -12.265625 L 3.308594 -12.265625 L 3.308594 -3.238281 L 1.820312 -3.238281 C 1.277344 -3.238281 1.132812 -2.976562 1.132812 -2.550781 L 1.132812 -0.683594 C 1.132812 -0.261719 1.277344 0 1.820312 0 L 8.507812 0 C 9.050781 0 9.195312 -0.261719 9.195312 -0.683594 L 9.195312 -2.550781 C 9.195312 -2.976562 9.050781 -3.238281 8.507812 -3.238281 Z M 8.507812 -3.238281 "/></g></g></g><g fill="rgb(0%, 0%, 0%)" fill-opacity="1"><g transform="translate(192.012385, 210.912654)"><g><path d="M 14.488281 -0.757812 L 11.15625 -5.601562 C 12.621094 -6.097656 14.441406 -7.824219 14.441406 -10.304688 C 14.441406 -11.816406 13.945312 -13.164062 13.070312 -14.015625 C 12.078125 -15.007812 10.945312 -15.527344 8.367188 -15.527344 L 2.410156 -15.527344 C 1.867188 -15.527344 1.75 -15.269531 1.75 -14.84375 L 1.75 -0.683594 C 1.75 -0.140625 1.984375 0 2.410156 0 L 4.75 0 C 5.175781 0 5.4375 -0.140625 5.4375 -0.683594 L 5.4375 -12.21875 L 8.578125 -12.21875 C 9.808594 -12.21875 10.753906 -11.441406 10.753906 -10.210938 C 10.753906 -9.101562 9.667969 -8.296875 8.507812 -8.296875 L 8.035156 -8.296875 C 7.492188 -8.296875 7.351562 -8.035156 7.351562 -7.609375 L 7.351562 -5.71875 C 7.351562 -5.058594 7.398438 -4.796875 7.609375 -4.515625 L 10.164062 -0.710938 C 10.496094 -0.210938 10.777344 0 11.34375 0 L 14.132812 0 C 14.582031 0 14.703125 -0.425781 14.488281 -0.757812 Z M 14.488281 -0.757812 "/></g></g></g><g fill="rgb(0%, 0%, 0%)" fill-opacity="1"><g transform="translate(210.857396, 210.912654)"><g/></g></g><g fill="rgb(0%, 0%, 0%)" fill-opacity="1"><g transform="translate(220.376701, 210.912654)"><g><path d="M 7.730469 -15.550781 L 2.433594 -15.550781 C 1.890625 -15.550781 1.75 -15.292969 1.75 -14.867188 L 1.75 -0.683594 C 1.75 -0.261719 1.890625 0 2.433594 0 L 7.730469 0 C 10.542969 0 14.085938 -1.605469 14.085938 -5.316406 L 14.085938 -10.234375 C 14.085938 -13.921875 10.542969 -15.550781 7.730469 -15.550781 Z M 10.375 -9.902344 L 10.375 -5.648438 C 10.375 -4.136719 9.289062 -3.285156 7.730469 -3.285156 L 5.460938 -3.285156 L 5.460938 -12.265625 L 7.730469 -12.265625 C 9.289062 -12.265625 10.375 -11.390625 10.375 -9.902344 Z M 10.375 -9.902344 "/></g></g></g><g fill="rgb(0%, 0%, 0%)" fill-opacity="1"><g transform="translate(238.843948, 210.912654)"><g><path d="M 13.023438 -3.308594 L 5.484375 -3.308594 L 5.484375 -6.429688 L 11.816406 -6.429688 C 12.363281 -6.429688 12.503906 -6.6875 12.503906 -7.113281 L 12.503906 -8.957031 C 12.503906 -9.382812 12.363281 -9.644531 11.816406 -9.644531 L 5.484375 -9.644531 L 5.484375 -12.21875 L 12.621094 -12.21875 C 13.164062 -12.21875 13.308594 -12.480469 13.308594 -12.90625 L 13.308594 -14.867188 C 13.308594 -15.292969 13.164062 -15.550781 12.621094 -15.550781 L 2.433594 -15.550781 C 1.890625 -15.550781 1.75 -15.292969 1.75 -14.867188 L 1.75 -0.683594 C 1.75 -0.261719 1.890625 0 2.433594 0 L 13.023438 0 C 13.566406 0 13.707031 -0.261719 13.707031 -0.683594 L 13.707031 -2.625 C 13.707031 -3.050781 13.566406 -3.308594 13.023438 -3.308594 Z M 13.023438 -3.308594 "/></g></g></g><g fill="rgb(0%, 0%, 0%)" fill-opacity="1"><g transform="translate(49.651024, 242.685948)"><g><path d="M 15.695312 -15.574219 L 13.425781 -15.574219 C 12.644531 -15.574219 12.527344 -15.054688 12.363281 -14.773438 L 9.101562 -8.957031 L 5.863281 -14.773438 C 5.671875 -15.054688 5.578125 -15.574219 4.773438 -15.574219 L 2.433594 -15.574219 C 1.890625 -15.574219 1.75 -15.316406 1.75 -14.890625 L 1.75 -0.683594 C 1.75 -0.140625 2.007812 0 2.433594 0 L 4.773438 0 C 5.199219 0 5.460938 -0.140625 5.460938 -0.683594 L 5.460938 -8.699219 L 7.847656 -4.5625 C 7.964844 -4.371094 8.15625 -4.066406 8.507812 -4.066406 L 9.691406 -4.066406 C 10.046875 -4.066406 10.257812 -4.371094 10.375 -4.5625 L 12.738281 -8.699219 L 12.738281 -0.683594 C 12.738281 -0.140625 13 0 13.425781 0 L 15.695312 0 C 16.121094 0 16.378906 -0.140625 16.378906 -0.683594 L 16.378906 -14.890625 C 16.378906 -15.316406 16.238281 -15.574219 15.695312 -15.574219 Z M 15.695312 -15.574219 "/></g></g></g><g fill="rgb(0%, 0%, 0%)" fill-opacity="1"><g transform="translate(70.880578, 242.685948)"><g><path d="M 8.507812 -3.238281 L 7.019531 -3.238281 L 7.019531 -12.265625 L 8.4375 -12.265625 C 8.980469 -12.265625 9.125 -12.527344 9.125 -12.953125 L 9.125 -14.867188 C 9.125 -15.292969 8.980469 -15.550781 8.4375 -15.550781 L 1.867188 -15.550781 C 1.324219 -15.550781 1.183594 -15.292969 1.183594 -14.867188 L 1.183594 -12.953125 C 1.183594 -12.527344 1.324219 -12.265625 1.867188 -12.265625 L 3.308594 -12.265625 L 3.308594 -3.238281 L 1.820312 -3.238281 C 1.277344 -3.238281 1.132812 -2.976562 1.132812 -2.550781 L 1.132812 -0.683594 C 1.132812 -0.261719 1.277344 0 1.820312 0 L 8.507812 0 C 9.050781 0 9.195312 -0.261719 9.195312 -0.683594 L 9.195312 -2.550781 C 9.195312 -2.976562 9.050781 -3.238281 8.507812 -3.238281 Z M 8.507812 -3.238281 "/></g></g></g><g fill="rgb(0%, 0%, 0%)" fill-opacity="1"><g transform="translate(84.484313, 242.685948)"><g><path d="M 13.730469 -4.609375 C 13.730469 -5.175781 13.542969 -5.414062 13.023438 -5.414062 L 10.707031 -5.414062 C 10.1875 -5.414062 10.140625 -5.035156 10.070312 -4.5625 C 9.878906 -3.425781 8.863281 -2.953125 7.585938 -2.953125 C 6.027344 -2.953125 4.964844 -3.804688 4.964844 -5.316406 L 4.964844 -10.234375 C 4.964844 -11.722656 6.027344 -12.597656 7.585938 -12.597656 C 8.863281 -12.597656 9.523438 -12.242188 10.023438 -11.464844 C 10.210938 -11.179688 10.234375 -10.730469 10.730469 -10.730469 L 13 -10.730469 C 13.542969 -10.730469 13.730469 -10.847656 13.730469 -11.417969 C 13.425781 -14.417969 10.519531 -15.90625 7.585938 -15.90625 C 4.773438 -15.90625 1.253906 -14.277344 1.253906 -10.566406 L 1.253906 -4.988281 C 1.253906 -1.277344 4.773438 0.355469 7.585938 0.355469 C 10.519531 0.355469 13.730469 -1.558594 13.730469 -4.609375 Z M 13.730469 -4.609375 "/></g></g></g><g fill="rgb(0%, 0%, 0%)" fill-opacity="1"><g transform="translate(102.526621, 242.685948)"><g><path d="M 14.488281 -0.757812 L 11.15625 -5.601562 C 12.621094 -6.097656 14.441406 -7.824219 14.441406 -10.304688 C 14.441406 -11.816406 13.945312 -13.164062 13.070312 -14.015625 C 12.078125 -15.007812 10.945312 -15.527344 8.367188 -15.527344 L 2.410156 -15.527344 C 1.867188 -15.527344 1.75 -15.269531 1.75 -14.84375 L 1.75 -0.683594 C 1.75 -0.140625 1.984375 0 2.410156 0 L 4.75 0 C 5.175781 0 5.4375 -0.140625 5.4375 -0.683594 L 5.4375 -12.21875 L 8.578125 -12.21875 C 9.808594 -12.21875 10.753906 -11.441406 10.753906 -10.210938 C 10.753906 -9.101562 9.667969 -8.296875 8.507812 -8.296875 L 8.035156 -8.296875 C 7.492188 -8.296875 7.351562 -8.035156 7.351562 -7.609375 L 7.351562 -5.71875 C 7.351562 -5.058594 7.398438 -4.796875 7.609375 -4.515625 L 10.164062 -0.710938 C 10.496094 -0.210938 10.777344 0 11.34375 0 L 14.132812 0 C 14.582031 0 14.703125 -0.425781 14.488281 -0.757812 Z M 14.488281 -0.757812 "/></g></g></g><g fill="rgb(0%, 0%, 0%)" fill-opacity="1"><g transform="translate(121.371631, 242.685948)"><g><path d="M 13.96875 -4.988281 L 13.96875 -10.566406 C 13.96875 -14.300781 10.421875 -15.90625 7.609375 -15.90625 C 4.796875 -15.90625 1.300781 -14.300781 1.300781 -10.566406 L 1.300781 -4.988281 C 1.300781 -1.253906 4.796875 0.355469 7.609375 0.355469 C 10.421875 0.355469 13.96875 -1.253906 13.96875 -4.988281 Z M 10.257812 -10.234375 L 10.257812 -5.316406 C 10.257812 -3.804688 9.171875 -2.929688 7.609375 -2.929688 C 6.074219 -2.929688 4.988281 -3.804688 4.988281 -5.316406 L 4.988281 -10.234375 C 4.988281 -11.746094 6.074219 -12.621094 7.609375 -12.621094 C 9.171875 -12.621094 10.257812 -11.746094 10.257812 -10.234375 Z M 10.257812 -10.234375 "/></g></g></g><g fill="rgb(0%, 0%, 0%)" fill-opacity="1"><g transform="translate(139.720858, 242.685948)"><g><path d="M 14.488281 -0.757812 L 11.15625 -5.601562 C 12.621094 -6.097656 14.441406 -7.824219 14.441406 -10.304688 C 14.441406 -11.816406 13.945312 -13.164062 13.070312 -14.015625 C 12.078125 -15.007812 10.945312 -15.527344 8.367188 -15.527344 L 2.410156 -15.527344 C 1.867188 -15.527344 1.75 -15.269531 1.75 -14.84375 L 1.75 -0.683594 C 1.75 -0.140625 1.984375 0 2.410156 0 L 4.75 0 C 5.175781 0 5.4375 -0.140625 5.4375 -0.683594 L 5.4375 -12.21875 L 8.578125 -12.21875 C 9.808594 -12.21875 10.753906 -11.441406 10.753906 -10.210938 C 10.753906 -9.101562 9.667969 -8.296875 8.507812 -8.296875 L 8.035156 -8.296875 C 7.492188 -8.296875 7.351562 -8.035156 7.351562 -7.609375 L 7.351562 -5.71875 C 7.351562 -5.058594 7.398438 -4.796875 7.609375 -4.515625 L 10.164062 -0.710938 C 10.496094 -0.210938 10.777344 0 11.34375 0 L 14.132812 0 C 14.582031 0 14.703125 -0.425781 14.488281 -0.757812 Z M 14.488281 -0.757812 "/></g></g></g><g fill="rgb(0%, 0%, 0%)" fill-opacity="1"><g transform="translate(158.565869, 242.685948)"><g><path d="M 13.308594 -8.675781 L 8.128906 -8.675781 C 7.585938 -8.675781 7.445312 -8.414062 7.445312 -7.988281 L 7.445312 -6.144531 C 7.445312 -5.71875 7.585938 -5.460938 8.128906 -5.460938 L 10.257812 -5.460938 C 10.257812 -3.640625 9.171875 -2.929688 7.632812 -2.929688 C 6.074219 -2.929688 5.035156 -3.804688 5.035156 -5.316406 L 5.035156 -10.070312 C 5.035156 -11.582031 6.074219 -12.621094 7.632812 -12.621094 C 9.21875 -12.621094 10.070312 -11.914062 10.328125 -11.179688 C 10.445312 -10.847656 10.351562 -10.375 11.015625 -10.375 L 13.308594 -10.375 C 13.851562 -10.375 13.992188 -10.46875 13.992188 -11.039062 C 13.992188 -14.207031 10.589844 -15.90625 7.632812 -15.90625 C 4.84375 -15.90625 1.277344 -14.324219 1.277344 -10.589844 L 1.277344 -4.773438 C 1.277344 -1.0625 4.84375 0.355469 7.632812 0.355469 C 10.328125 0.355469 13.78125 -1.15625 13.992188 -4.5625 L 13.992188 -7.988281 C 13.992188 -8.414062 13.851562 -8.675781 13.308594 -8.675781 Z M 13.308594 -8.675781 "/></g></g></g><g fill="rgb(0%, 0%, 0%)" fill-opacity="1"><g transform="translate(176.938697, 242.685948)"><g><path d="M 15.125 -0.660156 L 9.902344 -14.820312 C 9.691406 -15.316406 9.453125 -15.550781 8.933594 -15.550781 L 6.664062 -15.550781 C 6.144531 -15.550781 5.886719 -15.316406 5.695312 -14.820312 L 0.449219 -0.660156 C 0.332031 -0.378906 0.332031 0 0.851562 0 L 3.332031 0 C 3.851562 0 4.042969 -0.140625 4.230469 -0.710938 L 4.894531 -2.578125 L 10.683594 -2.578125 L 11.34375 -0.710938 C 11.535156 -0.140625 11.722656 0 12.242188 0 L 14.726562 0 C 15.246094 0 15.246094 -0.378906 15.125 -0.660156 Z M 7.800781 -11.109375 L 9.574219 -5.886719 L 6.027344 -5.886719 Z M 7.800781 -11.109375 "/></g></g></g><g fill="rgb(0%, 0%, 0%)" fill-opacity="1"><g transform="translate(195.523998, 242.685948)"><g><path d="M 13.683594 -15.550781 L 11.417969 -15.550781 C 10.992188 -15.550781 10.730469 -15.410156 10.730469 -14.867188 L 10.730469 -6.664062 L 5.71875 -14.75 C 5.414062 -15.222656 5.246094 -15.550781 4.65625 -15.550781 L 2.433594 -15.550781 C 1.890625 -15.550781 1.75 -15.292969 1.75 -14.867188 L 1.75 -0.683594 C 1.75 -0.140625 2.007812 0 2.433594 0 L 4.773438 0 C 5.199219 0 5.460938 -0.140625 5.460938 -0.683594 L 5.460938 -8.910156 L 10.46875 -0.804688 C 10.777344 -0.332031 10.945312 0 11.535156 0 L 13.683594 0 C 14.230469 0 14.371094 -0.261719 14.371094 -0.683594 L 14.371094 -14.867188 C 14.371094 -15.410156 14.109375 -15.550781 13.683594 -15.550781 Z M 13.683594 -15.550781 "/></g></g></g><g fill="rgb(0%, 0%, 0%)" fill-opacity="1"><g transform="translate(214.74676, 242.685948)"><g><path d="M 8.507812 -3.238281 L 7.019531 -3.238281 L 7.019531 -12.265625 L 8.4375 -12.265625 C 8.980469 -12.265625 9.125 -12.527344 9.125 -12.953125 L 9.125 -14.867188 C 9.125 -15.292969 8.980469 -15.550781 8.4375 -15.550781 L 1.867188 -15.550781 C 1.324219 -15.550781 1.183594 -15.292969 1.183594 -14.867188 L 1.183594 -12.953125 C 1.183594 -12.527344 1.324219 -12.265625 1.867188 -12.265625 L 3.308594 -12.265625 L 3.308594 -3.238281 L 1.820312 -3.238281 C 1.277344 -3.238281 1.132812 -2.976562 1.132812 -2.550781 L 1.132812 -0.683594 C 1.132812 -0.261719 1.277344 0 1.820312 0 L 8.507812 0 C 9.050781 0 9.195312 -0.261719 9.195312 -0.683594 L 9.195312 -2.550781 C 9.195312 -2.976562 9.050781 -3.238281 8.507812 -3.238281 Z M 8.507812 -3.238281 "/></g></g></g><g fill="rgb(0%, 0%, 0%)" fill-opacity="1"><g transform="translate(228.350488, 242.685948)"><g><path d="M 9.074219 -9.027344 C 8.128906 -9.40625 4.65625 -9.925781 4.65625 -11.367188 C 4.65625 -12.433594 5.957031 -12.738281 6.734375 -12.738281 C 7.445312 -12.738281 8.296875 -12.527344 8.746094 -12.101562 C 9.027344 -11.816406 9.148438 -11.628906 9.242188 -11.390625 C 9.359375 -11.085938 9.429688 -10.753906 9.878906 -10.753906 L 12.195312 -10.753906 C 12.738281 -10.753906 12.882812 -10.847656 12.882812 -11.417969 C 12.882812 -14.535156 9.597656 -15.90625 6.59375 -15.90625 C 3.640625 -15.789062 0.851562 -14.277344 0.851562 -11.203125 C 0.851562 -8.203125 3.050781 -7.257812 5.4375 -6.5 C 7.445312 -5.863281 9.550781 -5.839844 9.550781 -4.515625 C 9.550781 -3.191406 8.507812 -2.90625 7.234375 -2.90625 C 6.359375 -2.90625 5.390625 -3.121094 4.917969 -3.6875 C 4.609375 -4.042969 4.492188 -4.347656 4.46875 -4.65625 C 4.417969 -5.246094 4.160156 -5.316406 3.617188 -5.316406 L 1.324219 -5.316406 C 0.78125 -5.316406 0.636719 -5.199219 0.636719 -4.65625 C 0.636719 -1.347656 4.042969 0.355469 6.996094 0.355469 C 10.636719 0.355469 13.285156 -1.253906 13.285156 -4.609375 C 13.285156 -7.824219 10.777344 -8.507812 9.074219 -9.027344 Z M 9.074219 -9.027344 "/></g></g></g><g fill="rgb(0%, 0%, 0%)" fill-opacity="1"><g transform="translate(245.755329, 242.685948)"><g><path d="M 15.695312 -15.574219 L 13.425781 -15.574219 C 12.644531 -15.574219 12.527344 -15.054688 12.363281 -14.773438 L 9.101562 -8.957031 L 5.863281 -14.773438 C 5.671875 -15.054688 5.578125 -15.574219 4.773438 -15.574219 L 2.433594 -15.574219 C 1.890625 -15.574219 1.75 -15.316406 1.75 -14.890625 L 1.75 -0.683594 C 1.75 -0.140625 2.007812 0 2.433594 0 L 4.773438 0 C 5.199219 0 5.460938 -0.140625 5.460938 -0.683594 L 5.460938 -8.699219 L 7.847656 -4.5625 C 7.964844 -4.371094 8.15625 -4.066406 8.507812 -4.066406 L 9.691406 -4.066406 C 10.046875 -4.066406 10.257812 -4.371094 10.375 -4.5625 L 12.738281 -8.699219 L 12.738281 -0.683594 C 12.738281 -0.140625 13 0 13.425781 0 L 15.695312 0 C 16.121094 0 16.378906 -0.140625 16.378906 -0.683594 L 16.378906 -14.890625 C 16.378906 -15.316406 16.238281 -15.574219 15.695312 -15.574219 Z M 15.695312 -15.574219 "/></g></g></g><g fill="rgb(0%, 0%, 0%)" fill-opacity="1"><g transform="translate(266.984876, 242.685948)"><g><path d="M 13.96875 -4.988281 L 13.96875 -10.566406 C 13.96875 -14.300781 10.421875 -15.90625 7.609375 -15.90625 C 4.796875 -15.90625 1.300781 -14.300781 1.300781 -10.566406 L 1.300781 -4.988281 C 1.300781 -1.253906 4.796875 0.355469 7.609375 0.355469 C 10.421875 0.355469 13.96875 -1.253906 13.96875 -4.988281 Z M 10.257812 -10.234375 L 10.257812 -5.316406 C 10.257812 -3.804688 9.171875 -2.929688 7.609375 -2.929688 C 6.074219 -2.929688 4.988281 -3.804688 4.988281 -5.316406 L 4.988281 -10.234375 C 4.988281 -11.746094 6.074219 -12.621094 7.609375 -12.621094 C 9.171875 -12.621094 10.257812 -11.746094 10.257812 -10.234375 Z M 10.257812 -10.234375 "/></g></g></g><g fill="rgb(0%, 0%, 0%)" fill-opacity="1"><g transform="translate(285.334096, 242.685948)"><g><path d="M 9.074219 -9.027344 C 8.128906 -9.40625 4.65625 -9.925781 4.65625 -11.367188 C 4.65625 -12.433594 5.957031 -12.738281 6.734375 -12.738281 C 7.445312 -12.738281 8.296875 -12.527344 8.746094 -12.101562 C 9.027344 -11.816406 9.148438 -11.628906 9.242188 -11.390625 C 9.359375 -11.085938 9.429688 -10.753906 9.878906 -10.753906 L 12.195312 -10.753906 C 12.738281 -10.753906 12.882812 -10.847656 12.882812 -11.417969 C 12.882812 -14.535156 9.597656 -15.90625 6.59375 -15.90625 C 3.640625 -15.789062 0.851562 -14.277344 0.851562 -11.203125 C 0.851562 -8.203125 3.050781 -7.257812 5.4375 -6.5 C 7.445312 -5.863281 9.550781 -5.839844 9.550781 -4.515625 C 9.550781 -3.191406 8.507812 -2.90625 7.234375 -2.90625 C 6.359375 -2.90625 5.390625 -3.121094 4.917969 -3.6875 C 4.609375 -4.042969 4.492188 -4.347656 4.46875 -4.65625 C 4.417969 -5.246094 4.160156 -5.316406 3.617188 -5.316406 L 1.324219 -5.316406 C 0.78125 -5.316406 0.636719 -5.199219 0.636719 -4.65625 C 0.636719 -1.347656 4.042969 0.355469 6.996094 0.355469 C 10.636719 0.355469 13.285156 -1.253906 13.285156 -4.609375 C 13.285156 -7.824219 10.777344 -8.507812 9.074219 -9.027344 Z M 9.074219 -9.027344 "/></g></g></g><g fill="rgb(0%, 0%, 0%)" fill-opacity="1"><g transform="translate(302.738937, 242.685948)"><g><path d="M 3.332031 -4.894531 L 4.492188 -4.894531 C 5.035156 -4.894531 5.082031 -4.964844 5.152344 -5.578125 C 6.167969 -14.914062 6.191406 -14.984375 6.191406 -15.054688 C 6.191406 -15.480469 5.980469 -15.550781 5.484375 -15.550781 L 2.316406 -15.550781 C 1.84375 -15.550781 1.632812 -15.457031 1.632812 -15.054688 C 1.632812 -14.984375 1.65625 -14.914062 2.648438 -5.578125 C 2.71875 -4.988281 2.765625 -4.894531 3.332031 -4.894531 Z M 5.222656 -3.996094 L 2.601562 -3.996094 C 2.175781 -3.996094 1.914062 -3.851562 1.914062 -3.308594 L 1.914062 -0.683594 C 1.914062 -0.140625 2.175781 0 2.601562 0 L 5.222656 0 C 5.648438 0 5.910156 -0.140625 5.910156 -0.683594 L 5.910156 -3.308594 C 5.910156 -3.851562 5.648438 -3.996094 5.222656 -3.996094 Z M 5.222656 -3.996094 "/></g></g></g></svg>