<svg xmlns="http://www.w3.org/2000/svg" xmlns:xlink="http://www.w3.org/1999/xlink" width="480" zoomAndPan="magnify" viewBox="0 0 360 359.999987" height="480" preserveAspectRatio="xMidYMid meet" version="1.0"><defs><g/></defs><path fill="rgb(35.688782%, 93.728638%, 82.348633%)" d="M 179.976562 0 C 80.578125 0 0 80.578125 0 179.976562 C 0 279.375 80.578125 359.957031 179.976562 359.957031 C 279.375 359.957031 359.957031 279.375 359.957031 179.976562 C 359.957031 80.578125 279.375 0 179.976562 0 " fill-opacity="1" fill-rule="nonzero"/><g fill="rgb(0%, 0%, 0%)" fill-opacity="1"><g transform="translate(74.485369, 95.66514)"><g><path d="M 12.628906 -14.351562 L 10.535156 -14.351562 C 10.140625 -14.351562 9.902344 -14.222656 9.902344 -13.71875 L 9.902344 -6.152344 L 5.277344 -13.609375 C 4.996094 -14.046875 4.84375 -14.351562 4.296875 -14.351562 L 2.246094 -14.351562 C 1.746094 -14.351562 1.613281 -14.113281 1.613281 -13.71875 L 1.613281 -0.632812 C 1.613281 -0.132812 1.855469 0 2.246094 0 L 4.40625 0 C 4.796875 0 5.039062 -0.132812 5.039062 -0.632812 L 5.039062 -8.222656 L 9.664062 -0.742188 C 9.945312 -0.304688 10.097656 0 10.644531 0 L 12.628906 0 C 13.128906 0 13.261719 -0.238281 13.261719 -0.632812 L 13.261719 -13.71875 C 13.261719 -14.222656 13.023438 -14.351562 12.628906 -14.351562 Z M 12.628906 -14.351562 "/></g></g></g><g fill="rgb(0%, 0%, 0%)" fill-opacity="1"><g transform="translate(92.235329, 95.66514)"><g><path d="M 12.019531 -3.054688 L 5.058594 -3.054688 L 5.058594 -5.933594 L 10.90625 -5.933594 C 11.40625 -5.933594 11.539062 -6.171875 11.539062 -6.566406 L 11.539062 -8.265625 C 11.539062 -8.660156 11.40625 -8.898438 10.90625 -8.898438 L 5.058594 -8.898438 L 5.058594 -11.277344 L 11.648438 -11.277344 C 12.148438 -11.277344 12.28125 -11.515625 12.28125 -11.910156 L 12.28125 -13.71875 C 12.28125 -14.113281 12.148438 -14.351562 11.648438 -14.351562 L 2.246094 -14.351562 C 1.746094 -14.351562 1.613281 -14.113281 1.613281 -13.71875 L 1.613281 -0.632812 C 1.613281 -0.238281 1.746094 0 2.246094 0 L 12.019531 0 C 12.519531 0 12.652344 -0.238281 12.652344 -0.632812 L 12.652344 -2.421875 C 12.652344 -2.8125 12.519531 -3.054688 12.019531 -3.054688 Z M 12.019531 -3.054688 "/></g></g></g><g fill="rgb(0%, 0%, 0%)" fill-opacity="1"><g transform="translate(108.786058, 95.66514)"><g><path d="M 8.375 -8.332031 C 7.503906 -8.679688 4.296875 -9.160156 4.296875 -10.492188 C 4.296875 -11.472656 5.496094 -11.757812 6.214844 -11.757812 C 6.871094 -11.757812 7.65625 -11.558594 8.070312 -11.167969 C 8.332031 -10.90625 8.441406 -10.730469 8.527344 -10.511719 C 8.636719 -10.230469 8.703125 -9.925781 9.117188 -9.925781 L 11.253906 -9.925781 C 11.757812 -9.925781 11.886719 -10.011719 11.886719 -10.535156 C 11.886719 -13.414062 8.855469 -14.679688 6.085938 -14.679688 C 3.359375 -14.570312 0.785156 -13.175781 0.785156 -10.339844 C 0.785156 -7.570312 2.8125 -6.695312 5.015625 -6 C 6.871094 -5.410156 8.8125 -5.386719 8.8125 -4.167969 C 8.8125 -2.945312 7.851562 -2.683594 6.675781 -2.683594 C 5.867188 -2.683594 4.972656 -2.878906 4.535156 -3.402344 C 4.253906 -3.730469 4.144531 -4.011719 4.121094 -4.296875 C 4.078125 -4.84375 3.839844 -4.90625 3.335938 -4.90625 L 1.222656 -4.90625 C 0.71875 -4.90625 0.589844 -4.796875 0.589844 -4.296875 C 0.589844 -1.242188 3.730469 0.328125 6.457031 0.328125 C 9.816406 0.328125 12.257812 -1.15625 12.257812 -4.253906 C 12.257812 -7.21875 9.945312 -7.851562 8.375 -8.332031 Z M 8.375 -8.332031 "/></g></g></g><g fill="rgb(0%, 0%, 0%)" fill-opacity="1"><g transform="translate(124.857102, 95.66514)"><g><path d="M 11.320312 -14.351562 L 1.199219 -14.351562 C 0.699219 -14.351562 0.566406 -14.113281 0.566406 -13.71875 L 0.566406 -11.910156 C 0.566406 -11.515625 0.699219 -11.277344 1.199219 -11.277344 L 4.558594 -11.277344 L 4.558594 -0.632812 C 4.558594 -0.132812 4.796875 0 5.191406 0 L 7.351562 0 C 7.742188 0 7.984375 -0.132812 7.984375 -0.632812 L 7.984375 -11.277344 L 11.320312 -11.277344 C 11.820312 -11.277344 11.953125 -11.515625 11.953125 -11.910156 L 11.953125 -13.71875 C 11.953125 -14.113281 11.820312 -14.351562 11.320312 -14.351562 Z M 11.320312 -14.351562 "/></g></g></g><g fill="rgb(0%, 0%, 0%)" fill-opacity="1"><g transform="translate(140.252228, 95.66514)"><g><path d="M 12.019531 -3.054688 L 5.058594 -3.054688 L 5.058594 -5.933594 L 10.90625 -5.933594 C 11.40625 -5.933594 11.539062 -6.171875 11.539062 -6.566406 L 11.539062 -8.265625 C 11.539062 -8.660156 11.40625 -8.898438 10.90625 -8.898438 L 5.058594 -8.898438 L 5.058594 -11.277344 L 11.648438 -11.277344 C 12.148438 -11.277344 12.28125 -11.515625 12.28125 -11.910156 L 12.28125 -13.71875 C 12.28125 -14.113281 12.148438 -14.351562 11.648438 -14.351562 L 2.246094 -14.351562 C 1.746094 -14.351562 1.613281 -14.113281 1.613281 -13.71875 L 1.613281 -0.632812 C 1.613281 -0.238281 1.746094 0 2.246094 0 L 12.019531 0 C 12.519531 0 12.652344 -0.238281 12.652344 -0.632812 L 12.652344 -2.421875 C 12.652344 -2.8125 12.519531 -3.054688 12.019531 -3.054688 Z M 12.019531 -3.054688 "/></g></g></g><g fill="rgb(0%, 0%, 0%)" fill-opacity="1"><g transform="translate(156.80296, 95.66514)"><g/></g></g><g fill="rgb(0%, 0%, 0%)" fill-opacity="1"><g transform="translate(165.59149, 95.66514)"><g><path d="M 14.484375 -14.375 L 12.390625 -14.375 C 11.667969 -14.375 11.558594 -13.894531 11.40625 -13.632812 L 8.398438 -8.265625 L 5.410156 -13.632812 C 5.234375 -13.894531 5.148438 -14.375 4.40625 -14.375 L 2.246094 -14.375 C 1.746094 -14.375 1.613281 -14.132812 1.613281 -13.742188 L 1.613281 -0.632812 C 1.613281 -0.132812 1.855469 0 2.246094 0 L 4.40625 0 C 4.796875 0 5.039062 -0.132812 5.039062 -0.632812 L 5.039062 -8.027344 L 7.242188 -4.210938 C 7.351562 -4.035156 7.523438 -3.75 7.851562 -3.75 L 8.941406 -3.75 C 9.269531 -3.75 9.464844 -4.035156 9.574219 -4.210938 L 11.757812 -8.027344 L 11.757812 -0.632812 C 11.757812 -0.132812 11.996094 0 12.390625 0 L 14.484375 0 C 14.875 0 15.117188 -0.132812 15.117188 -0.632812 L 15.117188 -13.742188 C 15.117188 -14.132812 14.984375 -14.375 14.484375 -14.375 Z M 14.484375 -14.375 "/></g></g></g><g fill="rgb(0%, 0%, 0%)" fill-opacity="1"><g transform="translate(185.194784, 95.66514)"><g><path d="M 12.890625 -4.601562 L 12.890625 -9.75 C 12.890625 -13.195312 9.617188 -14.679688 7.023438 -14.679688 C 4.429688 -14.679688 1.199219 -13.195312 1.199219 -9.75 L 1.199219 -4.601562 C 1.199219 -1.15625 4.429688 0.328125 7.023438 0.328125 C 9.617188 0.328125 12.890625 -1.15625 12.890625 -4.601562 Z M 9.464844 -9.445312 L 9.464844 -4.90625 C 9.464844 -3.511719 8.464844 -2.703125 7.023438 -2.703125 C 5.605469 -2.703125 4.601562 -3.511719 4.601562 -4.90625 L 4.601562 -9.445312 C 4.601562 -10.839844 5.605469 -11.648438 7.023438 -11.648438 C 8.464844 -11.648438 9.464844 -10.839844 9.464844 -9.445312 Z M 9.464844 -9.445312 "/></g></g></g><g fill="rgb(0%, 0%, 0%)" fill-opacity="1"><g transform="translate(202.137995, 95.66514)"><g><path d="M 14.484375 -14.375 L 12.390625 -14.375 C 11.667969 -14.375 11.558594 -13.894531 11.40625 -13.632812 L 8.398438 -8.265625 L 5.410156 -13.632812 C 5.234375 -13.894531 5.148438 -14.375 4.40625 -14.375 L 2.246094 -14.375 C 1.746094 -14.375 1.613281 -14.132812 1.613281 -13.742188 L 1.613281 -0.632812 C 1.613281 -0.132812 1.855469 0 2.246094 0 L 4.40625 0 C 4.796875 0 5.039062 -0.132812 5.039062 -0.632812 L 5.039062 -8.027344 L 7.242188 -4.210938 C 7.351562 -4.035156 7.523438 -3.75 7.851562 -3.75 L 8.941406 -3.75 C 9.269531 -3.75 9.464844 -4.035156 9.574219 -4.210938 L 11.757812 -8.027344 L 11.757812 -0.632812 C 11.757812 -0.132812 11.996094 0 12.390625 0 L 14.484375 0 C 14.875 0 15.117188 -0.132812 15.117188 -0.632812 L 15.117188 -13.742188 C 15.117188 -14.132812 14.984375 -14.375 14.484375 -14.375 Z M 14.484375 -14.375 "/></g></g></g><g fill="rgb(0%, 0%, 0%)" fill-opacity="1"><g transform="translate(221.741281, 95.66514)"><g><path d="M 12.019531 -3.054688 L 5.058594 -3.054688 L 5.058594 -5.933594 L 10.90625 -5.933594 C 11.40625 -5.933594 11.539062 -6.171875 11.539062 -6.566406 L 11.539062 -8.265625 C 11.539062 -8.660156 11.40625 -8.898438 10.90625 -8.898438 L 5.058594 -8.898438 L 5.058594 -11.277344 L 11.648438 -11.277344 C 12.148438 -11.277344 12.28125 -11.515625 12.28125 -11.910156 L 12.28125 -13.71875 C 12.28125 -14.113281 12.148438 -14.351562 11.648438 -14.351562 L 2.246094 -14.351562 C 1.746094 -14.351562 1.613281 -14.113281 1.613281 -13.71875 L 1.613281 -0.632812 C 1.613281 -0.238281 1.746094 0 2.246094 0 L 12.019531 0 C 12.519531 0 12.652344 -0.238281 12.652344 -0.632812 L 12.652344 -2.421875 C 12.652344 -2.8125 12.519531 -3.054688 12.019531 -3.054688 Z M 12.019531 -3.054688 "/></g></g></g><g fill="rgb(0%, 0%, 0%)" fill-opacity="1"><g transform="translate(238.292012, 95.66514)"><g><path d="M 12.628906 -14.351562 L 10.535156 -14.351562 C 10.140625 -14.351562 9.902344 -14.222656 9.902344 -13.71875 L 9.902344 -6.152344 L 5.277344 -13.609375 C 4.996094 -14.046875 4.84375 -14.351562 4.296875 -14.351562 L 2.246094 -14.351562 C 1.746094 -14.351562 1.613281 -14.113281 1.613281 -13.71875 L 1.613281 -0.632812 C 1.613281 -0.132812 1.855469 0 2.246094 0 L 4.40625 0 C 4.796875 0 5.039062 -0.132812 5.039062 -0.632812 L 5.039062 -8.222656 L 9.664062 -0.742188 C 9.945312 -0.304688 10.097656 0 10.644531 0 L 12.628906 0 C 13.128906 0 13.261719 -0.238281 13.261719 -0.632812 L 13.261719 -13.71875 C 13.261719 -14.222656 13.023438 -14.351562 12.628906 -14.351562 Z M 12.628906 -14.351562 "/></g></g></g><g fill="rgb(0%, 0%, 0%)" fill-opacity="1"><g transform="translate(256.041974, 95.66514)"><g><path d="M 11.320312 -14.351562 L 1.199219 -14.351562 C 0.699219 -14.351562 0.566406 -14.113281 0.566406 -13.71875 L 0.566406 -11.910156 C 0.566406 -11.515625 0.699219 -11.277344 1.199219 -11.277344 L 4.558594 -11.277344 L 4.558594 -0.632812 C 4.558594 -0.132812 4.796875 0 5.191406 0 L 7.351562 0 C 7.742188 0 7.984375 -0.132812 7.984375 -0.632812 L 7.984375 -11.277344 L 11.320312 -11.277344 C 11.820312 -11.277344 11.953125 -11.515625 11.953125 -11.910156 L 11.953125 -13.71875 C 11.953125 -14.113281 11.820312 -14.351562 11.320312 -14.351562 Z M 11.320312 -14.351562 "/></g></g></g><g fill="rgb(0%, 0%, 0%)" fill-opacity="1"><g transform="translate(271.4371, 95.66514)"><g><path d="M 12.890625 -4.601562 L 12.890625 -9.75 C 12.890625 -13.195312 9.617188 -14.679688 7.023438 -14.679688 C 4.429688 -14.679688 1.199219 -13.195312 1.199219 -9.75 L 1.199219 -4.601562 C 1.199219 -1.15625 4.429688 0.328125 7.023438 0.328125 C 9.617188 0.328125 12.890625 -1.15625 12.890625 -4.601562 Z M 9.464844 -9.445312 L 9.464844 -4.90625 C 9.464844 -3.511719 8.464844 -2.703125 7.023438 -2.703125 C 5.605469 -2.703125 4.601562 -3.511719 4.601562 -4.90625 L 4.601562 -9.445312 C 4.601562 -10.839844 5.605469 -11.648438 7.023438 -11.648438 C 8.464844 -11.648438 9.464844 -10.839844 9.464844 -9.445312 Z M 9.464844 -9.445312 "/></g></g></g><g fill="rgb(0%, 0%, 0%)" fill-opacity="1"><g transform="translate(54.482034, 126.046638)"><g><path d="M 12.019531 -3.054688 L 5.058594 -3.054688 L 5.058594 -5.933594 L 10.90625 -5.933594 C 11.40625 -5.933594 11.539062 -6.171875 11.539062 -6.566406 L 11.539062 -8.265625 C 11.539062 -8.660156 11.40625 -8.898438 10.90625 -8.898438 L 5.058594 -8.898438 L 5.058594 -11.277344 L 11.648438 -11.277344 C 12.148438 -11.277344 12.28125 -11.515625 12.28125 -11.910156 L 12.28125 -13.71875 C 12.28125 -14.113281 12.148438 -14.351562 11.648438 -14.351562 L 2.246094 -14.351562 C 1.746094 -14.351562 1.613281 -14.113281 1.613281 -13.71875 L 1.613281 -0.632812 C 1.613281 -0.238281 1.746094 0 2.246094 0 L 12.019531 0 C 12.519531 0 12.652344 -0.238281 12.652344 -0.632812 L 12.652344 -2.421875 C 12.652344 -2.8125 12.519531 -3.054688 12.019531 -3.054688 Z M 12.019531 -3.054688 "/></g></g></g><g fill="rgb(0%, 0%, 0%)" fill-opacity="1"><g transform="translate(71.032763, 126.046638)"><g><path d="M 12.28125 -0.675781 L 8.417969 -7.351562 L 12.34375 -13.742188 C 12.5 -13.980469 12.390625 -14.351562 12.019531 -14.351562 L 9.464844 -14.351562 C 9.03125 -14.351562 8.878906 -14.175781 8.570312 -13.71875 L 6.414062 -10.207031 L 4.230469 -13.71875 C 3.949219 -14.175781 3.773438 -14.351562 3.359375 -14.351562 L 0.785156 -14.351562 C 0.414062 -14.351562 0.328125 -13.980469 0.457031 -13.742188 L 4.40625 -7.351562 L 0.523438 -0.675781 C 0.347656 -0.414062 0.457031 0 0.785156 0 L 3.273438 0 C 3.75 0 3.949219 -0.0429688 4.230469 -0.609375 L 6.414062 -4.492188 L 8.570312 -0.609375 C 8.878906 -0.0429688 9.050781 0 9.53125 0 L 12.019531 0 C 12.34375 0 12.453125 -0.414062 12.28125 -0.675781 Z M 12.28125 -0.675781 "/></g></g></g><g fill="rgb(0%, 0%, 0%)" fill-opacity="1"><g transform="translate(86.68954, 126.046638)"><g><path d="M 7.851562 -2.988281 L 6.476562 -2.988281 L 6.476562 -11.320312 L 7.785156 -11.320312 C 8.289062 -11.320312 8.417969 -11.558594 8.417969 -11.953125 L 8.417969 -13.71875 C 8.417969 -14.113281 8.289062 -14.351562 7.785156 -14.351562 L 1.722656 -14.351562 C 1.222656 -14.351562 1.089844 -14.113281 1.089844 -13.71875 L 1.089844 -11.953125 C 1.089844 -11.558594 1.222656 -11.320312 1.722656 -11.320312 L 3.054688 -11.320312 L 3.054688 -2.988281 L 1.679688 -2.988281 C 1.179688 -2.988281 1.046875 -2.75 1.046875 -2.355469 L 1.046875 -0.632812 C 1.046875 -0.238281 1.179688 0 1.679688 0 L 7.851562 0 C 8.355469 0 8.484375 -0.238281 8.484375 -0.632812 L 8.484375 -2.355469 C 8.484375 -2.75 8.355469 -2.988281 7.851562 -2.988281 Z M 7.851562 -2.988281 "/></g></g></g><g fill="rgb(0%, 0%, 0%)" fill-opacity="1"><g transform="translate(99.250145, 126.046638)"><g><path d="M 8.375 -8.332031 C 7.503906 -8.679688 4.296875 -9.160156 4.296875 -10.492188 C 4.296875 -11.472656 5.496094 -11.757812 6.214844 -11.757812 C 6.871094 -11.757812 7.65625 -11.558594 8.070312 -11.167969 C 8.332031 -10.90625 8.441406 -10.730469 8.527344 -10.511719 C 8.636719 -10.230469 8.703125 -9.925781 9.117188 -9.925781 L 11.253906 -9.925781 C 11.757812 -9.925781 11.886719 -10.011719 11.886719 -10.535156 C 11.886719 -13.414062 8.855469 -14.679688 6.085938 -14.679688 C 3.359375 -14.570312 0.785156 -13.175781 0.785156 -10.339844 C 0.785156 -7.570312 2.8125 -6.695312 5.015625 -6 C 6.871094 -5.410156 8.8125 -5.386719 8.8125 -4.167969 C 8.8125 -2.945312 7.851562 -2.683594 6.675781 -2.683594 C 5.867188 -2.683594 4.972656 -2.878906 4.535156 -3.402344 C 4.253906 -3.730469 4.144531 -4.011719 4.121094 -4.296875 C 4.078125 -4.84375 3.839844 -4.90625 3.335938 -4.90625 L 1.222656 -4.90625 C 0.71875 -4.90625 0.589844 -4.796875 0.589844 -4.296875 C 0.589844 -1.242188 3.730469 0.328125 6.457031 0.328125 C 9.816406 0.328125 12.257812 -1.15625 12.257812 -4.253906 C 12.257812 -7.21875 9.945312 -7.851562 8.375 -8.332031 Z M 8.375 -8.332031 "/></g></g></g><g fill="rgb(0%, 0%, 0%)" fill-opacity="1"><g transform="translate(115.321193, 126.046638)"><g><path d="M 11.320312 -14.351562 L 1.199219 -14.351562 C 0.699219 -14.351562 0.566406 -14.113281 0.566406 -13.71875 L 0.566406 -11.910156 C 0.566406 -11.515625 0.699219 -11.277344 1.199219 -11.277344 L 4.558594 -11.277344 L 4.558594 -0.632812 C 4.558594 -0.132812 4.796875 0 5.191406 0 L 7.351562 0 C 7.742188 0 7.984375 -0.132812 7.984375 -0.632812 L 7.984375 -11.277344 L 11.320312 -11.277344 C 11.820312 -11.277344 11.953125 -11.515625 11.953125 -11.910156 L 11.953125 -13.71875 C 11.953125 -14.113281 11.820312 -14.351562 11.320312 -14.351562 Z M 11.320312 -14.351562 "/></g></g></g><g fill="rgb(0%, 0%, 0%)" fill-opacity="1"><g transform="translate(130.716319, 126.046638)"><g><path d="M 12.019531 -3.054688 L 5.058594 -3.054688 L 5.058594 -5.933594 L 10.90625 -5.933594 C 11.40625 -5.933594 11.539062 -6.171875 11.539062 -6.566406 L 11.539062 -8.265625 C 11.539062 -8.660156 11.40625 -8.898438 10.90625 -8.898438 L 5.058594 -8.898438 L 5.058594 -11.277344 L 11.648438 -11.277344 C 12.148438 -11.277344 12.28125 -11.515625 12.28125 -11.910156 L 12.28125 -13.71875 C 12.28125 -14.113281 12.148438 -14.351562 11.648438 -14.351562 L 2.246094 -14.351562 C 1.746094 -14.351562 1.613281 -14.113281 1.613281 -13.71875 L 1.613281 -0.632812 C 1.613281 -0.238281 1.746094 0 2.246094 0 L 12.019531 0 C 12.519531 0 12.652344 -0.238281 12.652344 -0.632812 L 12.652344 -2.421875 C 12.652344 -2.8125 12.519531 -3.054688 12.019531 -3.054688 Z M 12.019531 -3.054688 "/></g></g></g><g fill="rgb(0%, 0%, 0%)" fill-opacity="1"><g transform="translate(147.26705, 126.046638)"><g><path d="M 14.484375 -14.375 L 12.390625 -14.375 C 11.667969 -14.375 11.558594 -13.894531 11.40625 -13.632812 L 8.398438 -8.265625 L 5.410156 -13.632812 C 5.234375 -13.894531 5.148438 -14.375 4.40625 -14.375 L 2.246094 -14.375 C 1.746094 -14.375 1.613281 -14.132812 1.613281 -13.742188 L 1.613281 -0.632812 C 1.613281 -0.132812 1.855469 0 2.246094 0 L 4.40625 0 C 4.796875 0 5.039062 -0.132812 5.039062 -0.632812 L 5.039062 -8.027344 L 7.242188 -4.210938 C 7.351562 -4.035156 7.523438 -3.75 7.851562 -3.75 L 8.941406 -3.75 C 9.269531 -3.75 9.464844 -4.035156 9.574219 -4.210938 L 11.757812 -8.027344 L 11.757812 -0.632812 C 11.757812 -0.132812 11.996094 0 12.390625 0 L 14.484375 0 C 14.875 0 15.117188 -0.132812 15.117188 -0.632812 L 15.117188 -13.742188 C 15.117188 -14.132812 14.984375 -14.375 14.484375 -14.375 Z M 14.484375 -14.375 "/></g></g></g><g fill="rgb(0%, 0%, 0%)" fill-opacity="1"><g transform="translate(166.870344, 126.046638)"><g/></g></g><g fill="rgb(0%, 0%, 0%)" fill-opacity="1"><g transform="translate(175.658874, 126.046638)"><g><path d="M 14.484375 -14.375 L 12.390625 -14.375 C 11.667969 -14.375 11.558594 -13.894531 11.40625 -13.632812 L 8.398438 -8.265625 L 5.410156 -13.632812 C 5.234375 -13.894531 5.148438 -14.375 4.40625 -14.375 L 2.246094 -14.375 C 1.746094 -14.375 1.613281 -14.132812 1.613281 -13.742188 L 1.613281 -0.632812 C 1.613281 -0.132812 1.855469 0 2.246094 0 L 4.40625 0 C 4.796875 0 5.039062 -0.132812 5.039062 -0.632812 L 5.039062 -8.027344 L 7.242188 -4.210938 C 7.351562 -4.035156 7.523438 -3.75 7.851562 -3.75 L 8.941406 -3.75 C 9.269531 -3.75 9.464844 -4.035156 9.574219 -4.210938 L 11.757812 -8.027344 L 11.757812 -0.632812 C 11.757812 -0.132812 11.996094 0 12.390625 0 L 14.484375 0 C 14.875 0 15.117188 -0.132812 15.117188 -0.632812 L 15.117188 -13.742188 C 15.117188 -14.132812 14.984375 -14.375 14.484375 -14.375 Z M 14.484375 -14.375 "/></g></g></g><g fill="rgb(0%, 0%, 0%)" fill-opacity="1"><g transform="translate(195.26216, 126.046638)"><g><path d="M 7.851562 -2.988281 L 6.476562 -2.988281 L 6.476562 -11.320312 L 7.785156 -11.320312 C 8.289062 -11.320312 8.417969 -11.558594 8.417969 -11.953125 L 8.417969 -13.71875 C 8.417969 -14.113281 8.289062 -14.351562 7.785156 -14.351562 L 1.722656 -14.351562 C 1.222656 -14.351562 1.089844 -14.113281 1.089844 -13.71875 L 1.089844 -11.953125 C 1.089844 -11.558594 1.222656 -11.320312 1.722656 -11.320312 L 3.054688 -11.320312 L 3.054688 -2.988281 L 1.679688 -2.988281 C 1.179688 -2.988281 1.046875 -2.75 1.046875 -2.355469 L 1.046875 -0.632812 C 1.046875 -0.238281 1.179688 0 1.679688 0 L 7.851562 0 C 8.355469 0 8.484375 -0.238281 8.484375 -0.632812 L 8.484375 -2.355469 C 8.484375 -2.75 8.355469 -2.988281 7.851562 -2.988281 Z M 7.851562 -2.988281 "/></g></g></g><g fill="rgb(0%, 0%, 0%)" fill-opacity="1"><g transform="translate(207.822768, 126.046638)"><g><path d="M 11.320312 -3.054688 L 5.039062 -3.054688 L 5.039062 -13.71875 C 5.039062 -14.222656 4.796875 -14.351562 4.40625 -14.351562 L 2.246094 -14.351562 C 1.855469 -14.351562 1.613281 -14.222656 1.613281 -13.71875 L 1.613281 -0.632812 C 1.613281 -0.238281 1.746094 0 2.246094 0 L 11.320312 0 C 11.820312 0 11.953125 -0.238281 11.953125 -0.632812 L 11.953125 -2.421875 C 11.953125 -2.8125 11.820312 -3.054688 11.320312 -3.054688 Z M 11.320312 -3.054688 "/></g></g></g><g fill="rgb(0%, 0%, 0%)" fill-opacity="1"><g transform="translate(223.39233, 126.046638)"><g><path d="M 12.695312 -14.351562 L 10.535156 -14.351562 C 10.140625 -14.351562 9.902344 -14.222656 9.902344 -13.71875 L 9.902344 -8.789062 L 5.039062 -8.789062 L 5.039062 -13.71875 C 5.039062 -14.222656 4.820312 -14.351562 4.40625 -14.351562 L 2.246094 -14.351562 C 1.855469 -14.351562 1.613281 -14.222656 1.613281 -13.71875 L 1.613281 -0.632812 C 1.613281 -0.132812 1.855469 0 2.246094 0 L 4.40625 0 C 4.820312 0 5.039062 -0.132812 5.039062 -0.632812 L 5.039062 -5.5625 L 9.902344 -5.5625 L 9.902344 -0.632812 C 9.902344 -0.132812 10.140625 0 10.535156 0 L 12.695312 0 C 13.085938 0 13.328125 -0.132812 13.328125 -0.632812 L 13.328125 -13.71875 C 13.328125 -14.222656 13.085938 -14.351562 12.695312 -14.351562 Z M 12.695312 -14.351562 "/></g></g></g><g fill="rgb(0%, 0%, 0%)" fill-opacity="1"><g transform="translate(241.207705, 126.046638)"><g><path d="M 13.960938 -0.609375 L 9.140625 -13.675781 C 8.941406 -14.132812 8.726562 -14.351562 8.246094 -14.351562 L 6.152344 -14.351562 C 5.671875 -14.351562 5.429688 -14.132812 5.257812 -13.675781 L 0.414062 -0.609375 C 0.304688 -0.347656 0.304688 0 0.785156 0 L 3.074219 0 C 3.554688 0 3.730469 -0.132812 3.90625 -0.65625 L 4.515625 -2.378906 L 9.859375 -2.378906 L 10.46875 -0.65625 C 10.644531 -0.132812 10.820312 0 11.296875 0 L 13.589844 0 C 14.070312 0 14.070312 -0.347656 13.960938 -0.609375 Z M 7.199219 -10.25 L 8.832031 -5.429688 L 5.5625 -5.429688 Z M 7.199219 -10.25 "/></g></g></g><g fill="rgb(0%, 0%, 0%)" fill-opacity="1"><g transform="translate(258.368962, 126.046638)"><g><path d="M 13.371094 -0.699219 L 10.296875 -5.167969 C 11.648438 -5.628906 13.328125 -7.21875 13.328125 -9.511719 C 13.328125 -10.90625 12.867188 -12.148438 12.0625 -12.933594 C 11.144531 -13.851562 10.097656 -14.332031 7.722656 -14.332031 L 2.226562 -14.332031 C 1.722656 -14.332031 1.613281 -14.089844 1.613281 -13.699219 L 1.613281 -0.632812 C 1.613281 -0.132812 1.832031 0 2.226562 0 L 4.382812 0 C 4.777344 0 5.015625 -0.132812 5.015625 -0.632812 L 5.015625 -11.277344 L 7.917969 -11.277344 C 9.050781 -11.277344 9.925781 -10.558594 9.925781 -9.421875 C 9.925781 -8.398438 8.921875 -7.65625 7.851562 -7.65625 L 7.417969 -7.65625 C 6.914062 -7.65625 6.785156 -7.417969 6.785156 -7.023438 L 6.785156 -5.277344 C 6.785156 -4.667969 6.828125 -4.429688 7.023438 -4.167969 L 9.378906 -0.65625 C 9.683594 -0.195312 9.945312 0 10.46875 0 L 13.042969 0 C 13.457031 0 13.566406 -0.394531 13.371094 -0.699219 Z M 13.371094 -0.699219 "/></g></g></g><g fill="rgb(0%, 0%, 0%)" fill-opacity="1"><g transform="translate(275.770051, 126.046638)"><g><path d="M 12.019531 -3.054688 L 5.058594 -3.054688 L 5.058594 -5.933594 L 10.90625 -5.933594 C 11.40625 -5.933594 11.539062 -6.171875 11.539062 -6.566406 L 11.539062 -8.265625 C 11.539062 -8.660156 11.40625 -8.898438 10.90625 -8.898438 L 5.058594 -8.898438 L 5.058594 -11.277344 L 11.648438 -11.277344 C 12.148438 -11.277344 12.28125 -11.515625 12.28125 -11.910156 L 12.28125 -13.71875 C 12.28125 -14.113281 12.148438 -14.351562 11.648438 -14.351562 L 2.246094 -14.351562 C 1.746094 -14.351562 1.613281 -14.113281 1.613281 -13.71875 L 1.613281 -0.632812 C 1.613281 -0.238281 1.746094 0 2.246094 0 L 12.019531 0 C 12.519531 0 12.652344 -0.238281 12.652344 -0.632812 L 12.652344 -2.421875 C 12.652344 -2.8125 12.519531 -3.054688 12.019531 -3.054688 Z M 12.019531 -3.054688 "/></g></g></g><g fill="rgb(0%, 0%, 0%)" fill-opacity="1"><g transform="translate(292.320782, 126.046638)"><g><path d="M 8.375 -8.332031 C 7.503906 -8.679688 4.296875 -9.160156 4.296875 -10.492188 C 4.296875 -11.472656 5.496094 -11.757812 6.214844 -11.757812 C 6.871094 -11.757812 7.65625 -11.558594 8.070312 -11.167969 C 8.332031 -10.90625 8.441406 -10.730469 8.527344 -10.511719 C 8.636719 -10.230469 8.703125 -9.925781 9.117188 -9.925781 L 11.253906 -9.925781 C 11.757812 -9.925781 11.886719 -10.011719 11.886719 -10.535156 C 11.886719 -13.414062 8.855469 -14.679688 6.085938 -14.679688 C 3.359375 -14.570312 0.785156 -13.175781 0.785156 -10.339844 C 0.785156 -7.570312 2.8125 -6.695312 5.015625 -6 C 6.871094 -5.410156 8.8125 -5.386719 8.8125 -4.167969 C 8.8125 -2.945312 7.851562 -2.683594 6.675781 -2.683594 C 5.867188 -2.683594 4.972656 -2.878906 4.535156 -3.402344 C 4.253906 -3.730469 4.144531 -4.011719 4.121094 -4.296875 C 4.078125 -4.84375 3.839844 -4.90625 3.335938 -4.90625 L 1.222656 -4.90625 C 0.71875 -4.90625 0.589844 -4.796875 0.589844 -4.296875 C 0.589844 -1.242188 3.730469 0.328125 6.457031 0.328125 C 9.816406 0.328125 12.257812 -1.15625 12.257812 -4.253906 C 12.257812 -7.21875 9.945312 -7.851562 8.375 -8.332031 Z M 8.375 -8.332031 "/></g></g></g><g fill="rgb(0%, 0%, 0%)" fill-opacity="1"><g transform="translate(60.686014, 156.428136)"><g><path d="M 7.132812 -14.351562 L 2.246094 -14.351562 C 1.746094 -14.351562 1.613281 -14.113281 1.613281 -13.71875 L 1.613281 -0.632812 C 1.613281 -0.238281 1.746094 0 2.246094 0 L 7.132812 0 C 9.726562 0 13 -1.484375 13 -4.90625 L 13 -9.445312 C 13 -12.847656 9.726562 -14.351562 7.132812 -14.351562 Z M 9.574219 -9.140625 L 9.574219 -5.214844 C 9.574219 -3.816406 8.570312 -3.03125 7.132812 -3.03125 L 5.039062 -3.03125 L 5.039062 -11.320312 L 7.132812 -11.320312 C 8.570312 -11.320312 9.574219 -10.511719 9.574219 -9.140625 Z M 9.574219 -9.140625 "/></g></g></g><g fill="rgb(0%, 0%, 0%)" fill-opacity="1"><g transform="translate(77.738246, 156.428136)"><g><path d="M 12.019531 -3.054688 L 5.058594 -3.054688 L 5.058594 -5.933594 L 10.90625 -5.933594 C 11.40625 -5.933594 11.539062 -6.171875 11.539062 -6.566406 L 11.539062 -8.265625 C 11.539062 -8.660156 11.40625 -8.898438 10.90625 -8.898438 L 5.058594 -8.898438 L 5.058594 -11.277344 L 11.648438 -11.277344 C 12.148438 -11.277344 12.28125 -11.515625 12.28125 -11.910156 L 12.28125 -13.71875 C 12.28125 -14.113281 12.148438 -14.351562 11.648438 -14.351562 L 2.246094 -14.351562 C 1.746094 -14.351562 1.613281 -14.113281 1.613281 -13.71875 L 1.613281 -0.632812 C 1.613281 -0.238281 1.746094 0 2.246094 0 L 12.019531 0 C 12.519531 0 12.652344 -0.238281 12.652344 -0.632812 L 12.652344 -2.421875 C 12.652344 -2.8125 12.519531 -3.054688 12.019531 -3.054688 Z M 12.019531 -3.054688 "/></g></g></g><g fill="rgb(0%, 0%, 0%)" fill-opacity="1"><g transform="translate(94.288975, 156.428136)"><g/></g></g><g fill="rgb(0%, 0%, 0%)" fill-opacity="1"><g transform="translate(103.077501, 156.428136)"><g><path d="M 11.84375 -7.4375 C 12.039062 -7.523438 13.4375 -8.222656 13.4375 -10.425781 C 13.4375 -12.476562 11.910156 -14.375 8.355469 -14.375 L 2.246094 -14.375 C 1.746094 -14.375 1.613281 -14.132812 1.613281 -13.742188 L 1.613281 -0.632812 C 1.613281 -0.238281 1.746094 0 2.246094 0 L 8.660156 0 C 11.691406 0 13.851562 -1.417969 13.851562 -4.1875 C 13.851562 -6.542969 12.019531 -7.371094 11.84375 -7.4375 Z M 8.703125 -3.097656 L 5.039062 -3.097656 L 5.039062 -11.296875 L 8.355469 -11.296875 C 9.488281 -11.296875 10.164062 -11.058594 10.164062 -10.078125 C 10.164062 -9.226562 9.617188 -8.769531 8.355469 -8.769531 L 8.070312 -8.769531 C 7.570312 -8.769531 7.4375 -8.527344 7.4375 -8.136719 L 7.4375 -6.476562 C 7.4375 -6.085938 7.570312 -5.84375 8.070312 -5.84375 L 8.570312 -5.84375 C 9.617188 -5.84375 10.382812 -5.539062 10.382812 -4.515625 C 10.382812 -3.535156 9.773438 -3.097656 8.703125 -3.097656 Z M 8.703125 -3.097656 "/></g></g></g><g fill="rgb(0%, 0%, 0%)" fill-opacity="1"><g transform="translate(120.936485, 156.428136)"><g><path d="M 13.960938 -0.609375 L 9.140625 -13.675781 C 8.941406 -14.132812 8.726562 -14.351562 8.246094 -14.351562 L 6.152344 -14.351562 C 5.671875 -14.351562 5.429688 -14.132812 5.257812 -13.675781 L 0.414062 -0.609375 C 0.304688 -0.347656 0.304688 0 0.785156 0 L 3.074219 0 C 3.554688 0 3.730469 -0.132812 3.90625 -0.65625 L 4.515625 -2.378906 L 9.859375 -2.378906 L 10.46875 -0.65625 C 10.644531 -0.132812 10.820312 0 11.296875 0 L 13.589844 0 C 14.070312 0 14.070312 -0.347656 13.960938 -0.609375 Z M 7.199219 -10.25 L 8.832031 -5.429688 L 5.5625 -5.429688 Z M 7.199219 -10.25 "/></g></g></g><g fill="rgb(0%, 0%, 0%)" fill-opacity="1"><g transform="translate(138.097742, 156.428136)"><g><path d="M 12.671875 -4.253906 C 12.671875 -4.777344 12.5 -4.996094 12.019531 -4.996094 L 9.878906 -4.996094 C 9.402344 -4.996094 9.355469 -4.644531 9.292969 -4.210938 C 9.117188 -3.164062 8.179688 -2.726562 7 -2.726562 C 5.5625 -2.726562 4.582031 -3.511719 4.582031 -4.90625 L 4.582031 -9.445312 C 4.582031 -10.820312 5.5625 -11.625 7 -11.625 C 8.179688 -11.625 8.789062 -11.296875 9.25 -10.578125 C 9.421875 -10.316406 9.445312 -9.902344 9.902344 -9.902344 L 11.996094 -9.902344 C 12.5 -9.902344 12.671875 -10.011719 12.671875 -10.535156 C 12.390625 -13.304688 9.707031 -14.679688 7 -14.679688 C 4.40625 -14.679688 1.15625 -13.175781 1.15625 -9.75 L 1.15625 -4.601562 C 1.15625 -1.179688 4.40625 0.328125 7 0.328125 C 9.707031 0.328125 12.671875 -1.441406 12.671875 -4.253906 Z M 12.671875 -4.253906 "/></g></g></g><g fill="rgb(0%, 0%, 0%)" fill-opacity="1"><g transform="translate(154.757495, 156.428136)"><g><path d="M 11.320312 -14.351562 L 1.199219 -14.351562 C 0.699219 -14.351562 0.566406 -14.113281 0.566406 -13.71875 L 0.566406 -11.910156 C 0.566406 -11.515625 0.699219 -11.277344 1.199219 -11.277344 L 4.558594 -11.277344 L 4.558594 -0.632812 C 4.558594 -0.132812 4.796875 0 5.191406 0 L 7.351562 0 C 7.742188 0 7.984375 -0.132812 7.984375 -0.632812 L 7.984375 -11.277344 L 11.320312 -11.277344 C 11.820312 -11.277344 11.953125 -11.515625 11.953125 -11.910156 L 11.953125 -13.71875 C 11.953125 -14.113281 11.820312 -14.351562 11.320312 -14.351562 Z M 11.320312 -14.351562 "/></g></g></g><g fill="rgb(0%, 0%, 0%)" fill-opacity="1"><g transform="translate(170.152621, 156.428136)"><g><path d="M 5.539062 -15.617188 L 7.679688 -15.617188 C 8.222656 -15.617188 8.398438 -15.921875 8.703125 -16.226562 L 10.882812 -18.582031 C 11.082031 -18.78125 11.015625 -19.195312 10.46875 -19.195312 L 7.699219 -19.195312 C 7.21875 -19.195312 7.046875 -19.128906 6.71875 -18.582031 L 5.257812 -16.226562 C 5.125 -16.03125 5.125 -15.617188 5.539062 -15.617188 Z M 12.019531 -3.054688 L 5.058594 -3.054688 L 5.058594 -5.933594 L 10.90625 -5.933594 C 11.40625 -5.933594 11.539062 -6.171875 11.539062 -6.566406 L 11.539062 -8.265625 C 11.539062 -8.660156 11.40625 -8.898438 10.90625 -8.898438 L 5.058594 -8.898438 L 5.058594 -11.277344 L 11.648438 -11.277344 C 12.148438 -11.277344 12.28125 -11.515625 12.28125 -11.910156 L 12.28125 -13.71875 C 12.28125 -14.113281 12.148438 -14.351562 11.648438 -14.351562 L 2.246094 -14.351562 C 1.746094 -14.351562 1.613281 -14.113281 1.613281 -13.71875 L 1.613281 -0.632812 C 1.613281 -0.238281 1.746094 0 2.246094 0 L 12.019531 0 C 12.519531 0 12.652344 -0.238281 12.652344 -0.632812 L 12.652344 -2.421875 C 12.652344 -2.8125 12.519531 -3.054688 12.019531 -3.054688 Z M 12.019531 -3.054688 "/></g></g></g><g fill="rgb(0%, 0%, 0%)" fill-opacity="1"><g transform="translate(186.703352, 156.428136)"><g><path d="M 13.371094 -0.699219 L 10.296875 -5.167969 C 11.648438 -5.628906 13.328125 -7.21875 13.328125 -9.511719 C 13.328125 -10.90625 12.867188 -12.148438 12.0625 -12.933594 C 11.144531 -13.851562 10.097656 -14.332031 7.722656 -14.332031 L 2.226562 -14.332031 C 1.722656 -14.332031 1.613281 -14.089844 1.613281 -13.699219 L 1.613281 -0.632812 C 1.613281 -0.132812 1.832031 0 2.226562 0 L 4.382812 0 C 4.777344 0 5.015625 -0.132812 5.015625 -0.632812 L 5.015625 -11.277344 L 7.917969 -11.277344 C 9.050781 -11.277344 9.925781 -10.558594 9.925781 -9.421875 C 9.925781 -8.398438 8.921875 -7.65625 7.851562 -7.65625 L 7.417969 -7.65625 C 6.914062 -7.65625 6.785156 -7.417969 6.785156 -7.023438 L 6.785156 -5.277344 C 6.785156 -4.667969 6.828125 -4.429688 7.023438 -4.167969 L 9.378906 -0.65625 C 9.683594 -0.195312 9.945312 0 10.46875 0 L 13.042969 0 C 13.457031 0 13.566406 -0.394531 13.371094 -0.699219 Z M 13.371094 -0.699219 "/></g></g></g><g fill="rgb(0%, 0%, 0%)" fill-opacity="1"><g transform="translate(204.104434, 156.428136)"><g><path d="M 7.851562 -2.988281 L 6.476562 -2.988281 L 6.476562 -11.320312 L 7.785156 -11.320312 C 8.289062 -11.320312 8.417969 -11.558594 8.417969 -11.953125 L 8.417969 -13.71875 C 8.417969 -14.113281 8.289062 -14.351562 7.785156 -14.351562 L 1.722656 -14.351562 C 1.222656 -14.351562 1.089844 -14.113281 1.089844 -13.71875 L 1.089844 -11.953125 C 1.089844 -11.558594 1.222656 -11.320312 1.722656 -11.320312 L 3.054688 -11.320312 L 3.054688 -2.988281 L 1.679688 -2.988281 C 1.179688 -2.988281 1.046875 -2.75 1.046875 -2.355469 L 1.046875 -0.632812 C 1.046875 -0.238281 1.179688 0 1.679688 0 L 7.851562 0 C 8.355469 0 8.484375 -0.238281 8.484375 -0.632812 L 8.484375 -2.355469 C 8.484375 -2.75 8.355469 -2.988281 7.851562 -2.988281 Z M 7.851562 -2.988281 "/></g></g></g><g fill="rgb(0%, 0%, 0%)" fill-opacity="1"><g transform="translate(216.665042, 156.428136)"><g><path d="M 13.960938 -0.609375 L 9.140625 -13.675781 C 8.941406 -14.132812 8.726562 -14.351562 8.246094 -14.351562 L 6.152344 -14.351562 C 5.671875 -14.351562 5.429688 -14.132812 5.257812 -13.675781 L 0.414062 -0.609375 C 0.304688 -0.347656 0.304688 0 0.785156 0 L 3.074219 0 C 3.554688 0 3.730469 -0.132812 3.90625 -0.65625 L 4.515625 -2.378906 L 9.859375 -2.378906 L 10.46875 -0.65625 C 10.644531 -0.132812 10.820312 0 11.296875 0 L 13.589844 0 C 14.070312 0 14.070312 -0.347656 13.960938 -0.609375 Z M 7.199219 -10.25 L 8.832031 -5.429688 L 5.5625 -5.429688 Z M 7.199219 -10.25 "/></g></g></g><g fill="rgb(0%, 0%, 0%)" fill-opacity="1"><g transform="translate(233.826299, 156.428136)"><g><path d="M 8.375 -8.332031 C 7.503906 -8.679688 4.296875 -9.160156 4.296875 -10.492188 C 4.296875 -11.472656 5.496094 -11.757812 6.214844 -11.757812 C 6.871094 -11.757812 7.65625 -11.558594 8.070312 -11.167969 C 8.332031 -10.90625 8.441406 -10.730469 8.527344 -10.511719 C 8.636719 -10.230469 8.703125 -9.925781 9.117188 -9.925781 L 11.253906 -9.925781 C 11.757812 -9.925781 11.886719 -10.011719 11.886719 -10.535156 C 11.886719 -13.414062 8.855469 -14.679688 6.085938 -14.679688 C 3.359375 -14.570312 0.785156 -13.175781 0.785156 -10.339844 C 0.785156 -7.570312 2.8125 -6.695312 5.015625 -6 C 6.871094 -5.410156 8.8125 -5.386719 8.8125 -4.167969 C 8.8125 -2.945312 7.851562 -2.683594 6.675781 -2.683594 C 5.867188 -2.683594 4.972656 -2.878906 4.535156 -3.402344 C 4.253906 -3.730469 4.144531 -4.011719 4.121094 -4.296875 C 4.078125 -4.84375 3.839844 -4.90625 3.335938 -4.90625 L 1.222656 -4.90625 C 0.71875 -4.90625 0.589844 -4.796875 0.589844 -4.296875 C 0.589844 -1.242188 3.730469 0.328125 6.457031 0.328125 C 9.816406 0.328125 12.257812 -1.15625 12.257812 -4.253906 C 12.257812 -7.21875 9.945312 -7.851562 8.375 -8.332031 Z M 8.375 -8.332031 "/></g></g></g><g fill="rgb(0%, 0%, 0%)" fill-opacity="1"><g transform="translate(249.897348, 156.428136)"><g/></g></g><g fill="rgb(0%, 0%, 0%)" fill-opacity="1"><g transform="translate(258.685878, 156.428136)"><g/></g></g><g fill="rgb(0%, 0%, 0%)" fill-opacity="1"><g transform="translate(267.474408, 156.428136)"><g><path d="M 12.628906 -14.351562 L 10.535156 -14.351562 C 10.140625 -14.351562 9.902344 -14.222656 9.902344 -13.71875 L 9.902344 -6.152344 L 5.277344 -13.609375 C 4.996094 -14.046875 4.84375 -14.351562 4.296875 -14.351562 L 2.246094 -14.351562 C 1.746094 -14.351562 1.613281 -14.113281 1.613281 -13.71875 L 1.613281 -0.632812 C 1.613281 -0.132812 1.855469 0 2.246094 0 L 4.40625 0 C 4.796875 0 5.039062 -0.132812 5.039062 -0.632812 L 5.039062 -8.222656 L 9.664062 -0.742188 C 9.945312 -0.304688 10.097656 0 10.644531 0 L 12.628906 0 C 13.128906 0 13.261719 -0.238281 13.261719 -0.632812 L 13.261719 -13.71875 C 13.261719 -14.222656 13.023438 -14.351562 12.628906 -14.351562 Z M 12.628906 -14.351562 "/></g></g></g><g fill="rgb(0%, 0%, 0%)" fill-opacity="1"><g transform="translate(285.224369, 156.428136)"><g><path d="M 12.890625 -4.601562 L 12.890625 -9.75 C 12.890625 -13.195312 9.617188 -14.679688 7.023438 -14.679688 C 4.429688 -14.679688 1.199219 -13.195312 1.199219 -9.75 L 1.199219 -4.601562 C 1.199219 -1.15625 4.429688 0.328125 7.023438 0.328125 C 9.617188 0.328125 12.890625 -1.15625 12.890625 -4.601562 Z M 9.464844 -9.445312 L 9.464844 -4.90625 C 9.464844 -3.511719 8.464844 -2.703125 7.023438 -2.703125 C 5.605469 -2.703125 4.601562 -3.511719 4.601562 -4.90625 L 4.601562 -9.445312 C 4.601562 -10.839844 5.605469 -11.648438 7.023438 -11.648438 C 8.464844 -11.648438 9.464844 -10.839844 9.464844 -9.445312 Z M 9.464844 -9.445312 "/></g></g></g><g fill="rgb(0%, 0%, 0%)" fill-opacity="1"><g transform="translate(62.453903, 186.809634)"><g><path d="M 13.960938 -0.609375 L 9.140625 -13.675781 C 8.941406 -14.132812 8.726562 -14.351562 8.246094 -14.351562 L 6.152344 -14.351562 C 5.671875 -14.351562 5.429688 -14.132812 5.257812 -13.675781 L 0.414062 -0.609375 C 0.304688 -0.347656 0.304688 0 0.785156 0 L 3.074219 0 C 3.554688 0 3.730469 -0.132812 3.90625 -0.65625 L 4.515625 -2.378906 L 9.859375 -2.378906 L 10.46875 -0.65625 C 10.644531 -0.132812 10.820312 0 11.296875 0 L 13.589844 0 C 14.070312 0 14.070312 -0.347656 13.960938 -0.609375 Z M 7.199219 -10.25 L 8.832031 -5.429688 L 5.5625 -5.429688 Z M 7.199219 -10.25 "/></g></g></g><g fill="rgb(0%, 0%, 0%)" fill-opacity="1"><g transform="translate(79.615157, 186.809634)"><g><path d="M 14.484375 -14.375 L 12.390625 -14.375 C 11.667969 -14.375 11.558594 -13.894531 11.40625 -13.632812 L 8.398438 -8.265625 L 5.410156 -13.632812 C 5.234375 -13.894531 5.148438 -14.375 4.40625 -14.375 L 2.246094 -14.375 C 1.746094 -14.375 1.613281 -14.132812 1.613281 -13.742188 L 1.613281 -0.632812 C 1.613281 -0.132812 1.855469 0 2.246094 0 L 4.40625 0 C 4.796875 0 5.039062 -0.132812 5.039062 -0.632812 L 5.039062 -8.027344 L 7.242188 -4.210938 C 7.351562 -4.035156 7.523438 -3.75 7.851562 -3.75 L 8.941406 -3.75 C 9.269531 -3.75 9.464844 -4.035156 9.574219 -4.210938 L 11.757812 -8.027344 L 11.757812 -0.632812 C 11.757812 -0.132812 11.996094 0 12.390625 0 L 14.484375 0 C 14.875 0 15.117188 -0.132812 15.117188 -0.632812 L 15.117188 -13.742188 C 15.117188 -14.132812 14.984375 -14.375 14.484375 -14.375 Z M 14.484375 -14.375 "/></g></g></g><g fill="rgb(0%, 0%, 0%)" fill-opacity="1"><g transform="translate(99.218449, 186.809634)"><g><path d="M 11.84375 -7.4375 C 12.039062 -7.523438 13.4375 -8.222656 13.4375 -10.425781 C 13.4375 -12.476562 11.910156 -14.375 8.355469 -14.375 L 2.246094 -14.375 C 1.746094 -14.375 1.613281 -14.132812 1.613281 -13.742188 L 1.613281 -0.632812 C 1.613281 -0.238281 1.746094 0 2.246094 0 L 8.660156 0 C 11.691406 0 13.851562 -1.417969 13.851562 -4.1875 C 13.851562 -6.542969 12.019531 -7.371094 11.84375 -7.4375 Z M 8.703125 -3.097656 L 5.039062 -3.097656 L 5.039062 -11.296875 L 8.355469 -11.296875 C 9.488281 -11.296875 10.164062 -11.058594 10.164062 -10.078125 C 10.164062 -9.226562 9.617188 -8.769531 8.355469 -8.769531 L 8.070312 -8.769531 C 7.570312 -8.769531 7.4375 -8.527344 7.4375 -8.136719 L 7.4375 -6.476562 C 7.4375 -6.085938 7.570312 -5.84375 8.070312 -5.84375 L 8.570312 -5.84375 C 9.617188 -5.84375 10.382812 -5.539062 10.382812 -4.515625 C 10.382812 -3.535156 9.773438 -3.097656 8.703125 -3.097656 Z M 8.703125 -3.097656 "/></g></g></g><g fill="rgb(0%, 0%, 0%)" fill-opacity="1"><g transform="translate(117.077429, 186.809634)"><g><path d="M 7.851562 -2.988281 L 6.476562 -2.988281 L 6.476562 -11.320312 L 7.785156 -11.320312 C 8.289062 -11.320312 8.417969 -11.558594 8.417969 -11.953125 L 8.417969 -13.71875 C 8.417969 -14.113281 8.289062 -14.351562 7.785156 -14.351562 L 1.722656 -14.351562 C 1.222656 -14.351562 1.089844 -14.113281 1.089844 -13.71875 L 1.089844 -11.953125 C 1.089844 -11.558594 1.222656 -11.320312 1.722656 -11.320312 L 3.054688 -11.320312 L 3.054688 -2.988281 L 1.679688 -2.988281 C 1.179688 -2.988281 1.046875 -2.75 1.046875 -2.355469 L 1.046875 -0.632812 C 1.046875 -0.238281 1.179688 0 1.679688 0 L 7.851562 0 C 8.355469 0 8.484375 -0.238281 8.484375 -0.632812 L 8.484375 -2.355469 C 8.484375 -2.75 8.355469 -2.988281 7.851562 -2.988281 Z M 7.851562 -2.988281 "/></g></g></g><g fill="rgb(0%, 0%, 0%)" fill-opacity="1"><g transform="translate(129.638037, 186.809634)"><g><path d="M 12.019531 -3.054688 L 5.058594 -3.054688 L 5.058594 -5.933594 L 10.90625 -5.933594 C 11.40625 -5.933594 11.539062 -6.171875 11.539062 -6.566406 L 11.539062 -8.265625 C 11.539062 -8.660156 11.40625 -8.898438 10.90625 -8.898438 L 5.058594 -8.898438 L 5.058594 -11.277344 L 11.648438 -11.277344 C 12.148438 -11.277344 12.28125 -11.515625 12.28125 -11.910156 L 12.28125 -13.71875 C 12.28125 -14.113281 12.148438 -14.351562 11.648438 -14.351562 L 2.246094 -14.351562 C 1.746094 -14.351562 1.613281 -14.113281 1.613281 -13.71875 L 1.613281 -0.632812 C 1.613281 -0.238281 1.746094 0 2.246094 0 L 12.019531 0 C 12.519531 0 12.652344 -0.238281 12.652344 -0.632812 L 12.652344 -2.421875 C 12.652344 -2.8125 12.519531 -3.054688 12.019531 -3.054688 Z M 12.019531 -3.054688 "/></g></g></g><g fill="rgb(0%, 0%, 0%)" fill-opacity="1"><g transform="translate(146.188768, 186.809634)"><g><path d="M 12.628906 -14.351562 L 10.535156 -14.351562 C 10.140625 -14.351562 9.902344 -14.222656 9.902344 -13.71875 L 9.902344 -6.152344 L 5.277344 -13.609375 C 4.996094 -14.046875 4.84375 -14.351562 4.296875 -14.351562 L 2.246094 -14.351562 C 1.746094 -14.351562 1.613281 -14.113281 1.613281 -13.71875 L 1.613281 -0.632812 C 1.613281 -0.132812 1.855469 0 2.246094 0 L 4.40625 0 C 4.796875 0 5.039062 -0.132812 5.039062 -0.632812 L 5.039062 -8.222656 L 9.664062 -0.742188 C 9.945312 -0.304688 10.097656 0 10.644531 0 L 12.628906 0 C 13.128906 0 13.261719 -0.238281 13.261719 -0.632812 L 13.261719 -13.71875 C 13.261719 -14.222656 13.023438 -14.351562 12.628906 -14.351562 Z M 12.628906 -14.351562 "/></g></g></g><g fill="rgb(0%, 0%, 0%)" fill-opacity="1"><g transform="translate(163.93873, 186.809634)"><g><path d="M 11.320312 -14.351562 L 1.199219 -14.351562 C 0.699219 -14.351562 0.566406 -14.113281 0.566406 -13.71875 L 0.566406 -11.910156 C 0.566406 -11.515625 0.699219 -11.277344 1.199219 -11.277344 L 4.558594 -11.277344 L 4.558594 -0.632812 C 4.558594 -0.132812 4.796875 0 5.191406 0 L 7.351562 0 C 7.742188 0 7.984375 -0.132812 7.984375 -0.632812 L 7.984375 -11.277344 L 11.320312 -11.277344 C 11.820312 -11.277344 11.953125 -11.515625 11.953125 -11.910156 L 11.953125 -13.71875 C 11.953125 -14.113281 11.820312 -14.351562 11.320312 -14.351562 Z M 11.320312 -14.351562 "/></g></g></g><g fill="rgb(0%, 0%, 0%)" fill-opacity="1"><g transform="translate(179.333856, 186.809634)"><g><path d="M 12.019531 -3.054688 L 5.058594 -3.054688 L 5.058594 -5.933594 L 10.90625 -5.933594 C 11.40625 -5.933594 11.539062 -6.171875 11.539062 -6.566406 L 11.539062 -8.265625 C 11.539062 -8.660156 11.40625 -8.898438 10.90625 -8.898438 L 5.058594 -8.898438 L 5.058594 -11.277344 L 11.648438 -11.277344 C 12.148438 -11.277344 12.28125 -11.515625 12.28125 -11.910156 L 12.28125 -13.71875 C 12.28125 -14.113281 12.148438 -14.351562 11.648438 -14.351562 L 2.246094 -14.351562 C 1.746094 -14.351562 1.613281 -14.113281 1.613281 -13.71875 L 1.613281 -0.632812 C 1.613281 -0.238281 1.746094 0 2.246094 0 L 12.019531 0 C 12.519531 0 12.652344 -0.238281 12.652344 -0.632812 L 12.652344 -2.421875 C 12.652344 -2.8125 12.519531 -3.054688 12.019531 -3.054688 Z M 12.019531 -3.054688 "/></g></g></g><g fill="rgb(0%, 0%, 0%)" fill-opacity="1"><g transform="translate(195.884587, 186.809634)"><g/></g></g><g fill="rgb(0%, 0%, 0%)" fill-opacity="1"><g transform="translate(204.673109, 186.809634)"><g><path d="M 12.019531 -3.054688 L 5.058594 -3.054688 L 5.058594 -5.933594 L 10.90625 -5.933594 C 11.40625 -5.933594 11.539062 -6.171875 11.539062 -6.566406 L 11.539062 -8.265625 C 11.539062 -8.660156 11.40625 -8.898438 10.90625 -8.898438 L 5.058594 -8.898438 L 5.058594 -11.277344 L 11.648438 -11.277344 C 12.148438 -11.277344 12.28125 -11.515625 12.28125 -11.910156 L 12.28125 -13.71875 C 12.28125 -14.113281 12.148438 -14.351562 11.648438 -14.351562 L 2.246094 -14.351562 C 1.746094 -14.351562 1.613281 -14.113281 1.613281 -13.71875 L 1.613281 -0.632812 C 1.613281 -0.238281 1.746094 0 2.246094 0 L 12.019531 0 C 12.519531 0 12.652344 -0.238281 12.652344 -0.632812 L 12.652344 -2.421875 C 12.652344 -2.8125 12.519531 -3.054688 12.019531 -3.054688 Z M 12.019531 -3.054688 "/></g></g></g><g fill="rgb(0%, 0%, 0%)" fill-opacity="1"><g transform="translate(221.22384, 186.809634)"><g><path d="M 14.484375 -14.375 L 12.390625 -14.375 C 11.667969 -14.375 11.558594 -13.894531 11.40625 -13.632812 L 8.398438 -8.265625 L 5.410156 -13.632812 C 5.234375 -13.894531 5.148438 -14.375 4.40625 -14.375 L 2.246094 -14.375 C 1.746094 -14.375 1.613281 -14.132812 1.613281 -13.742188 L 1.613281 -0.632812 C 1.613281 -0.132812 1.855469 0 2.246094 0 L 4.40625 0 C 4.796875 0 5.039062 -0.132812 5.039062 -0.632812 L 5.039062 -8.027344 L 7.242188 -4.210938 C 7.351562 -4.035156 7.523438 -3.75 7.851562 -3.75 L 8.941406 -3.75 C 9.269531 -3.75 9.464844 -4.035156 9.574219 -4.210938 L 11.757812 -8.027344 L 11.757812 -0.632812 C 11.757812 -0.132812 11.996094 0 12.390625 0 L 14.484375 0 C 14.875 0 15.117188 -0.132812 15.117188 -0.632812 L 15.117188 -13.742188 C 15.117188 -14.132812 14.984375 -14.375 14.484375 -14.375 Z M 14.484375 -14.375 "/></g></g></g><g fill="rgb(0%, 0%, 0%)" fill-opacity="1"><g transform="translate(240.827134, 186.809634)"><g/></g></g><g fill="rgb(0%, 0%, 0%)" fill-opacity="1"><g transform="translate(249.615664, 186.809634)"><g><path d="M 12.933594 -1.023438 L 12.105469 -1.964844 C 12.671875 -2.683594 12.867188 -3.46875 12.867188 -4.582031 L 12.867188 -9.726562 C 12.867188 -13.175781 9.597656 -14.65625 7 -14.65625 C 4.40625 -14.65625 1.179688 -13.175781 1.179688 -9.726562 L 1.179688 -4.582031 C 1.179688 -1.132812 4.40625 0.347656 7 0.347656 C 7.941406 0.347656 8.855469 0.261719 9.773438 -0.132812 L 10.820312 0.9375 C 11.101562 1.222656 11.453125 1.179688 11.800781 0.828125 L 12.847656 -0.0234375 C 13.21875 -0.394531 13.21875 -0.761719 12.933594 -1.023438 Z M 9.464844 -9.445312 L 9.464844 -4.90625 C 9.464844 -3.511719 8.464844 -2.703125 7.023438 -2.703125 C 5.605469 -2.703125 4.601562 -3.511719 4.601562 -4.90625 L 4.601562 -9.445312 C 4.601562 -10.839844 5.605469 -11.648438 7.023438 -11.648438 C 8.464844 -11.648438 9.464844 -10.839844 9.464844 -9.445312 Z M 9.464844 -9.445312 "/></g></g></g><g fill="rgb(0%, 0%, 0%)" fill-opacity="1"><g transform="translate(266.580681, 186.809634)"><g><path d="M 12.34375 -14.351562 L 10.1875 -14.351562 C 9.792969 -14.351562 9.554688 -14.222656 9.554688 -13.71875 L 9.554688 -4.863281 C 9.554688 -3.488281 8.636719 -2.703125 7.199219 -2.703125 C 5.757812 -2.703125 4.863281 -3.488281 4.863281 -4.863281 L 4.863281 -13.71875 C 4.863281 -14.222656 4.625 -14.351562 4.230469 -14.351562 L 2.070312 -14.351562 C 1.679688 -14.351562 1.441406 -14.222656 1.441406 -13.71875 L 1.441406 -4.382812 C 1.441406 -0.960938 4.601562 0.328125 7.199219 0.328125 C 9.792969 0.328125 12.976562 -0.960938 12.976562 -4.382812 L 12.976562 -13.71875 C 12.976562 -14.222656 12.738281 -14.351562 12.34375 -14.351562 Z M 12.34375 -14.351562 "/></g></g></g><g fill="rgb(0%, 0%, 0%)" fill-opacity="1"><g transform="translate(283.872748, 186.809634)"><g><path d="M 12.019531 -3.054688 L 5.058594 -3.054688 L 5.058594 -5.933594 L 10.90625 -5.933594 C 11.40625 -5.933594 11.539062 -6.171875 11.539062 -6.566406 L 11.539062 -8.265625 C 11.539062 -8.660156 11.40625 -8.898438 10.90625 -8.898438 L 5.058594 -8.898438 L 5.058594 -11.277344 L 11.648438 -11.277344 C 12.148438 -11.277344 12.28125 -11.515625 12.28125 -11.910156 L 12.28125 -13.71875 C 12.28125 -14.113281 12.148438 -14.351562 11.648438 -14.351562 L 2.246094 -14.351562 C 1.746094 -14.351562 1.613281 -14.113281 1.613281 -13.71875 L 1.613281 -0.632812 C 1.613281 -0.238281 1.746094 0 2.246094 0 L 12.019531 0 C 12.519531 0 12.652344 -0.238281 12.652344 -0.632812 L 12.652344 -2.421875 C 12.652344 -2.8125 12.519531 -3.054688 12.019531 -3.054688 Z M 12.019531 -3.054688 "/></g></g></g><g fill="rgb(0%, 0%, 0%)" fill-opacity="1"><g transform="translate(50.356959, 217.191132)"><g><path d="M 13.066406 -14.351562 L 10.753906 -14.351562 C 10.164062 -14.351562 10.011719 -14.175781 9.835938 -13.652344 L 6.890625 -4.625 L 3.925781 -13.652344 C 3.75 -14.175781 3.597656 -14.351562 3.03125 -14.351562 L 0.609375 -14.351562 C 0.195312 -14.351562 0.109375 -14.003906 0.21875 -13.71875 L 4.90625 -0.65625 C 5.167969 -0.0859375 5.320312 0 5.800781 0 L 7.894531 0 C 8.375 0 8.527344 -0.0859375 8.789062 -0.65625 L 13.457031 -13.71875 C 13.566406 -14.003906 13.480469 -14.351562 13.066406 -14.351562 Z M 13.066406 -14.351562 "/></g></g></g><g fill="rgb(0%, 0%, 0%)" fill-opacity="1"><g transform="translate(67.103929, 217.191132)"><g><path d="M 12.890625 -4.601562 L 12.890625 -9.75 C 12.890625 -13.195312 9.617188 -14.679688 7.023438 -14.679688 C 4.429688 -14.679688 1.199219 -13.195312 1.199219 -9.75 L 1.199219 -4.601562 C 1.199219 -1.15625 4.429688 0.328125 7.023438 0.328125 C 9.617188 0.328125 12.890625 -1.15625 12.890625 -4.601562 Z M 9.464844 -9.445312 L 9.464844 -4.90625 C 9.464844 -3.511719 8.464844 -2.703125 7.023438 -2.703125 C 5.605469 -2.703125 4.601562 -3.511719 4.601562 -4.90625 L 4.601562 -9.445312 C 4.601562 -10.839844 5.605469 -11.648438 7.023438 -11.648438 C 8.464844 -11.648438 9.464844 -10.839844 9.464844 -9.445312 Z M 9.464844 -9.445312 "/></g></g></g><g fill="rgb(0%, 0%, 0%)" fill-opacity="1"><g transform="translate(84.047139, 217.191132)"><g><path d="M 12.671875 -4.253906 C 12.671875 -4.777344 12.5 -4.996094 12.019531 -4.996094 L 9.878906 -4.996094 C 9.402344 -4.996094 9.355469 -4.644531 9.292969 -4.210938 C 9.117188 -3.164062 8.179688 -2.726562 7 -2.726562 C 5.5625 -2.726562 4.582031 -3.511719 4.582031 -4.90625 L 4.582031 -9.445312 C 4.582031 -10.820312 5.5625 -11.625 7 -11.625 C 8.179688 -11.625 8.789062 -11.296875 9.25 -10.578125 C 9.421875 -10.316406 9.445312 -9.902344 9.902344 -9.902344 L 11.996094 -9.902344 C 12.5 -9.902344 12.671875 -10.011719 12.671875 -10.535156 C 12.390625 -13.304688 9.707031 -14.679688 7 -14.679688 C 4.40625 -14.679688 1.15625 -13.175781 1.15625 -9.75 L 1.15625 -4.601562 C 1.15625 -1.179688 4.40625 0.328125 7 0.328125 C 9.707031 0.328125 12.671875 -1.441406 12.671875 -4.253906 Z M 12.671875 -4.253906 "/></g></g></g><g fill="rgb(0%, 0%, 0%)" fill-opacity="1"><g transform="translate(100.706888, 217.191132)"><g><path d="M 8.988281 -15.617188 L 10.925781 -15.617188 C 11.253906 -15.617188 11.386719 -15.964844 11.167969 -16.183594 L 8.570312 -19.171875 C 8.417969 -19.347656 8.179688 -19.433594 7.984375 -19.433594 L 6.28125 -19.433594 C 6.0625 -19.433594 5.84375 -19.347656 5.691406 -19.171875 L 3.074219 -16.183594 C 2.855469 -15.964844 2.988281 -15.617188 3.335938 -15.617188 L 5.257812 -15.617188 C 5.605469 -15.617188 5.84375 -15.855469 6.019531 -16.074219 L 7.132812 -17.425781 L 8.246094 -16.074219 C 8.417969 -15.855469 8.636719 -15.617188 8.988281 -15.617188 Z M 12.019531 -3.054688 L 5.058594 -3.054688 L 5.058594 -5.933594 L 10.90625 -5.933594 C 11.40625 -5.933594 11.539062 -6.171875 11.539062 -6.566406 L 11.539062 -8.265625 C 11.539062 -8.660156 11.40625 -8.898438 10.90625 -8.898438 L 5.058594 -8.898438 L 5.058594 -11.277344 L 11.648438 -11.277344 C 12.148438 -11.277344 12.28125 -11.515625 12.28125 -11.910156 L 12.28125 -13.71875 C 12.28125 -14.113281 12.148438 -14.351562 11.648438 -14.351562 L 2.246094 -14.351562 C 1.746094 -14.351562 1.613281 -14.113281 1.613281 -13.71875 L 1.613281 -0.632812 C 1.613281 -0.238281 1.746094 0 2.246094 0 L 12.019531 0 C 12.519531 0 12.652344 -0.238281 12.652344 -0.632812 L 12.652344 -2.421875 C 12.652344 -2.8125 12.519531 -3.054688 12.019531 -3.054688 Z M 12.019531 -3.054688 "/></g></g></g><g fill="rgb(0%, 0%, 0%)" fill-opacity="1"><g transform="translate(117.257619, 217.191132)"><g/></g></g><g fill="rgb(0%, 0%, 0%)" fill-opacity="1"><g transform="translate(126.046149, 217.191132)"><g><path d="M 8.375 -8.332031 C 7.503906 -8.679688 4.296875 -9.160156 4.296875 -10.492188 C 4.296875 -11.472656 5.496094 -11.757812 6.214844 -11.757812 C 6.871094 -11.757812 7.65625 -11.558594 8.070312 -11.167969 C 8.332031 -10.90625 8.441406 -10.730469 8.527344 -10.511719 C 8.636719 -10.230469 8.703125 -9.925781 9.117188 -9.925781 L 11.253906 -9.925781 C 11.757812 -9.925781 11.886719 -10.011719 11.886719 -10.535156 C 11.886719 -13.414062 8.855469 -14.679688 6.085938 -14.679688 C 3.359375 -14.570312 0.785156 -13.175781 0.785156 -10.339844 C 0.785156 -7.570312 2.8125 -6.695312 5.015625 -6 C 6.871094 -5.410156 8.8125 -5.386719 8.8125 -4.167969 C 8.8125 -2.945312 7.851562 -2.683594 6.675781 -2.683594 C 5.867188 -2.683594 4.972656 -2.878906 4.535156 -3.402344 C 4.253906 -3.730469 4.144531 -4.011719 4.121094 -4.296875 C 4.078125 -4.84375 3.839844 -4.90625 3.335938 -4.90625 L 1.222656 -4.90625 C 0.71875 -4.90625 0.589844 -4.796875 0.589844 -4.296875 C 0.589844 -1.242188 3.730469 0.328125 6.457031 0.328125 C 9.816406 0.328125 12.257812 -1.15625 12.257812 -4.253906 C 12.257812 -7.21875 9.945312 -7.851562 8.375 -8.332031 Z M 8.375 -8.332031 "/></g></g></g><g fill="rgb(0%, 0%, 0%)" fill-opacity="1"><g transform="translate(142.117198, 217.191132)"><g><path d="M 12.019531 -3.054688 L 5.058594 -3.054688 L 5.058594 -5.933594 L 10.90625 -5.933594 C 11.40625 -5.933594 11.539062 -6.171875 11.539062 -6.566406 L 11.539062 -8.265625 C 11.539062 -8.660156 11.40625 -8.898438 10.90625 -8.898438 L 5.058594 -8.898438 L 5.058594 -11.277344 L 11.648438 -11.277344 C 12.148438 -11.277344 12.28125 -11.515625 12.28125 -11.910156 L 12.28125 -13.71875 C 12.28125 -14.113281 12.148438 -14.351562 11.648438 -14.351562 L 2.246094 -14.351562 C 1.746094 -14.351562 1.613281 -14.113281 1.613281 -13.71875 L 1.613281 -0.632812 C 1.613281 -0.238281 1.746094 0 2.246094 0 L 12.019531 0 C 12.519531 0 12.652344 -0.238281 12.652344 -0.632812 L 12.652344 -2.421875 C 12.652344 -2.8125 12.519531 -3.054688 12.019531 -3.054688 Z M 12.019531 -3.054688 "/></g></g></g><g fill="rgb(0%, 0%, 0%)" fill-opacity="1"><g transform="translate(158.667929, 217.191132)"><g/></g></g><g fill="rgb(0%, 0%, 0%)" fill-opacity="1"><g transform="translate(167.456459, 217.191132)"><g><path d="M 12.019531 -3.054688 L 5.058594 -3.054688 L 5.058594 -5.933594 L 10.90625 -5.933594 C 11.40625 -5.933594 11.539062 -6.171875 11.539062 -6.566406 L 11.539062 -8.265625 C 11.539062 -8.660156 11.40625 -8.898438 10.90625 -8.898438 L 5.058594 -8.898438 L 5.058594 -11.277344 L 11.648438 -11.277344 C 12.148438 -11.277344 12.28125 -11.515625 12.28125 -11.910156 L 12.28125 -13.71875 C 12.28125 -14.113281 12.148438 -14.351562 11.648438 -14.351562 L 2.246094 -14.351562 C 1.746094 -14.351562 1.613281 -14.113281 1.613281 -13.71875 L 1.613281 -0.632812 C 1.613281 -0.238281 1.746094 0 2.246094 0 L 12.019531 0 C 12.519531 0 12.652344 -0.238281 12.652344 -0.632812 L 12.652344 -2.421875 C 12.652344 -2.8125 12.519531 -3.054688 12.019531 -3.054688 Z M 12.019531 -3.054688 "/></g></g></g><g fill="rgb(0%, 0%, 0%)" fill-opacity="1"><g transform="translate(184.007191, 217.191132)"><g><path d="M 12.628906 -14.351562 L 10.535156 -14.351562 C 10.140625 -14.351562 9.902344 -14.222656 9.902344 -13.71875 L 9.902344 -6.152344 L 5.277344 -13.609375 C 4.996094 -14.046875 4.84375 -14.351562 4.296875 -14.351562 L 2.246094 -14.351562 C 1.746094 -14.351562 1.613281 -14.113281 1.613281 -13.71875 L 1.613281 -0.632812 C 1.613281 -0.132812 1.855469 0 2.246094 0 L 4.40625 0 C 4.796875 0 5.039062 -0.132812 5.039062 -0.632812 L 5.039062 -8.222656 L 9.664062 -0.742188 C 9.945312 -0.304688 10.097656 0 10.644531 0 L 12.628906 0 C 13.128906 0 13.261719 -0.238281 13.261719 -0.632812 L 13.261719 -13.71875 C 13.261719 -14.222656 13.023438 -14.351562 12.628906 -14.351562 Z M 12.628906 -14.351562 "/></g></g></g><g fill="rgb(0%, 0%, 0%)" fill-opacity="1"><g transform="translate(201.757144, 217.191132)"><g><path d="M 12.671875 -4.253906 C 12.671875 -4.777344 12.5 -4.996094 12.019531 -4.996094 L 9.878906 -4.996094 C 9.402344 -4.996094 9.355469 -4.644531 9.292969 -4.210938 C 9.117188 -3.164062 8.179688 -2.726562 7 -2.726562 C 5.5625 -2.726562 4.582031 -3.511719 4.582031 -4.90625 L 4.582031 -9.445312 C 4.582031 -10.820312 5.5625 -11.625 7 -11.625 C 8.179688 -11.625 8.789062 -11.296875 9.25 -10.578125 C 9.421875 -10.316406 9.445312 -9.902344 9.902344 -9.902344 L 11.996094 -9.902344 C 12.5 -9.902344 12.671875 -10.011719 12.671875 -10.535156 C 12.390625 -13.304688 9.707031 -14.679688 7 -14.679688 C 4.40625 -14.679688 1.15625 -13.175781 1.15625 -9.75 L 1.15625 -4.601562 C 1.15625 -1.179688 4.40625 0.328125 7 0.328125 C 9.707031 0.328125 12.671875 -1.441406 12.671875 -4.253906 Z M 12.671875 -4.253906 "/></g></g></g><g fill="rgb(0%, 0%, 0%)" fill-opacity="1"><g transform="translate(218.416897, 217.191132)"><g><path d="M 12.890625 -4.601562 L 12.890625 -9.75 C 12.890625 -13.195312 9.617188 -14.679688 7.023438 -14.679688 C 4.429688 -14.679688 1.199219 -13.195312 1.199219 -9.75 L 1.199219 -4.601562 C 1.199219 -1.15625 4.429688 0.328125 7.023438 0.328125 C 9.617188 0.328125 12.890625 -1.15625 12.890625 -4.601562 Z M 9.464844 -9.445312 L 9.464844 -4.90625 C 9.464844 -3.511719 8.464844 -2.703125 7.023438 -2.703125 C 5.605469 -2.703125 4.601562 -3.511719 4.601562 -4.90625 L 4.601562 -9.445312 C 4.601562 -10.839844 5.605469 -11.648438 7.023438 -11.648438 C 8.464844 -11.648438 9.464844 -10.839844 9.464844 -9.445312 Z M 9.464844 -9.445312 "/></g></g></g><g fill="rgb(0%, 0%, 0%)" fill-opacity="1"><g transform="translate(235.360109, 217.191132)"><g><path d="M 12.628906 -14.351562 L 10.535156 -14.351562 C 10.140625 -14.351562 9.902344 -14.222656 9.902344 -13.71875 L 9.902344 -6.152344 L 5.277344 -13.609375 C 4.996094 -14.046875 4.84375 -14.351562 4.296875 -14.351562 L 2.246094 -14.351562 C 1.746094 -14.351562 1.613281 -14.113281 1.613281 -13.71875 L 1.613281 -0.632812 C 1.613281 -0.132812 1.855469 0 2.246094 0 L 4.40625 0 C 4.796875 0 5.039062 -0.132812 5.039062 -0.632812 L 5.039062 -8.222656 L 9.664062 -0.742188 C 9.945312 -0.304688 10.097656 0 10.644531 0 L 12.628906 0 C 13.128906 0 13.261719 -0.238281 13.261719 -0.632812 L 13.261719 -13.71875 C 13.261719 -14.222656 13.023438 -14.351562 12.628906 -14.351562 Z M 12.628906 -14.351562 "/></g></g></g><g fill="rgb(0%, 0%, 0%)" fill-opacity="1"><g transform="translate(253.110071, 217.191132)"><g><path d="M 11.320312 -14.351562 L 1.199219 -14.351562 C 0.699219 -14.351562 0.566406 -14.113281 0.566406 -13.71875 L 0.566406 -11.910156 C 0.566406 -11.515625 0.699219 -11.277344 1.199219 -11.277344 L 4.558594 -11.277344 L 4.558594 -0.632812 C 4.558594 -0.132812 4.796875 0 5.191406 0 L 7.351562 0 C 7.742188 0 7.984375 -0.132812 7.984375 -0.632812 L 7.984375 -11.277344 L 11.320312 -11.277344 C 11.820312 -11.277344 11.953125 -11.515625 11.953125 -11.910156 L 11.953125 -13.71875 C 11.953125 -14.113281 11.820312 -14.351562 11.320312 -14.351562 Z M 11.320312 -14.351562 "/></g></g></g><g fill="rgb(0%, 0%, 0%)" fill-opacity="1"><g transform="translate(268.505197, 217.191132)"><g><path d="M 13.371094 -0.699219 L 10.296875 -5.167969 C 11.648438 -5.628906 13.328125 -7.21875 13.328125 -9.511719 C 13.328125 -10.90625 12.867188 -12.148438 12.0625 -12.933594 C 11.144531 -13.851562 10.097656 -14.332031 7.722656 -14.332031 L 2.226562 -14.332031 C 1.722656 -14.332031 1.613281 -14.089844 1.613281 -13.699219 L 1.613281 -0.632812 C 1.613281 -0.132812 1.832031 0 2.226562 0 L 4.382812 0 C 4.777344 0 5.015625 -0.132812 5.015625 -0.632812 L 5.015625 -11.277344 L 7.917969 -11.277344 C 9.050781 -11.277344 9.925781 -10.558594 9.925781 -9.421875 C 9.925781 -8.398438 8.921875 -7.65625 7.851562 -7.65625 L 7.417969 -7.65625 C 6.914062 -7.65625 6.785156 -7.417969 6.785156 -7.023438 L 6.785156 -5.277344 C 6.785156 -4.667969 6.828125 -4.429688 7.023438 -4.167969 L 9.378906 -0.65625 C 9.683594 -0.195312 9.945312 0 10.46875 0 L 13.042969 0 C 13.457031 0 13.566406 -0.394531 13.371094 -0.699219 Z M 13.371094 -0.699219 "/></g></g></g><g fill="rgb(0%, 0%, 0%)" fill-opacity="1"><g transform="translate(285.906286, 217.191132)"><g><path d="M 13.960938 -0.609375 L 9.140625 -13.675781 C 8.941406 -14.132812 8.726562 -14.351562 8.246094 -14.351562 L 6.152344 -14.351562 C 5.671875 -14.351562 5.429688 -14.132812 5.257812 -13.675781 L 0.414062 -0.609375 C 0.304688 -0.347656 0.304688 0 0.785156 0 L 3.074219 0 C 3.554688 0 3.730469 -0.132812 3.90625 -0.65625 L 4.515625 -2.378906 L 9.859375 -2.378906 L 10.46875 -0.65625 C 10.644531 -0.132812 10.820312 0 11.296875 0 L 13.589844 0 C 14.070312 0 14.070312 -0.347656 13.960938 -0.609375 Z M 7.199219 -10.25 L 8.832031 -5.429688 L 5.5625 -5.429688 Z M 7.199219 -10.25 "/></g></g></g><g fill="rgb(0%, 0%, 0%)" fill-opacity="1"><g transform="translate(303.067543, 217.191132)"><g><path d="M 4.492188 -3.6875 L 2.070312 -3.6875 C 1.679688 -3.6875 1.441406 -3.554688 1.441406 -3.054688 L 1.441406 -0.632812 C 1.441406 -0.132812 1.679688 0 2.070312 0 L 2.726562 0 L 1.527344 2.246094 C 1.375 2.53125 1.460938 2.855469 1.746094 2.855469 L 3.140625 2.855469 C 3.425781 2.855469 3.578125 2.726562 3.730469 2.464844 L 4.972656 -0.0664062 C 5.105469 -0.414062 5.125 -0.609375 5.125 -1.089844 L 5.125 -3.054688 C 5.125 -3.554688 4.886719 -3.6875 4.492188 -3.6875 Z M 4.492188 -3.6875 "/></g></g></g><g fill="rgb(0%, 0%, 0%)" fill-opacity="1"><g transform="translate(58.738062, 247.57263)"><g><path d="M 7.851562 -2.988281 L 6.476562 -2.988281 L 6.476562 -11.320312 L 7.785156 -11.320312 C 8.289062 -11.320312 8.417969 -11.558594 8.417969 -11.953125 L 8.417969 -13.71875 C 8.417969 -14.113281 8.289062 -14.351562 7.785156 -14.351562 L 1.722656 -14.351562 C 1.222656 -14.351562 1.089844 -14.113281 1.089844 -13.71875 L 1.089844 -11.953125 C 1.089844 -11.558594 1.222656 -11.320312 1.722656 -11.320312 L 3.054688 -11.320312 L 3.054688 -2.988281 L 1.679688 -2.988281 C 1.179688 -2.988281 1.046875 -2.75 1.046875 -2.355469 L 1.046875 -0.632812 C 1.046875 -0.238281 1.179688 0 1.679688 0 L 7.851562 0 C 8.355469 0 8.484375 -0.238281 8.484375 -0.632812 L 8.484375 -2.355469 C 8.484375 -2.75 8.355469 -2.988281 7.851562 -2.988281 Z M 7.851562 -2.988281 "/></g></g></g><g fill="rgb(0%, 0%, 0%)" fill-opacity="1"><g transform="translate(71.298669, 247.57263)"><g><path d="M 12.628906 -14.351562 L 10.535156 -14.351562 C 10.140625 -14.351562 9.902344 -14.222656 9.902344 -13.71875 L 9.902344 -6.152344 L 5.277344 -13.609375 C 4.996094 -14.046875 4.84375 -14.351562 4.296875 -14.351562 L 2.246094 -14.351562 C 1.746094 -14.351562 1.613281 -14.113281 1.613281 -13.71875 L 1.613281 -0.632812 C 1.613281 -0.132812 1.855469 0 2.246094 0 L 4.40625 0 C 4.796875 0 5.039062 -0.132812 5.039062 -0.632812 L 5.039062 -8.222656 L 9.664062 -0.742188 C 9.945312 -0.304688 10.097656 0 10.644531 0 L 12.628906 0 C 13.128906 0 13.261719 -0.238281 13.261719 -0.632812 L 13.261719 -13.71875 C 13.261719 -14.222656 13.023438 -14.351562 12.628906 -14.351562 Z M 12.628906 -14.351562 "/></g></g></g><g fill="rgb(0%, 0%, 0%)" fill-opacity="1"><g transform="translate(89.048628, 247.57263)"><g><path d="M 12.671875 -4.253906 C 12.671875 -4.777344 12.5 -4.996094 12.019531 -4.996094 L 9.878906 -4.996094 C 9.402344 -4.996094 9.355469 -4.644531 9.292969 -4.210938 C 9.117188 -3.164062 8.179688 -2.726562 7 -2.726562 C 5.5625 -2.726562 4.582031 -3.511719 4.582031 -4.90625 L 4.582031 -9.445312 C 4.582031 -10.820312 5.5625 -11.625 7 -11.625 C 8.179688 -11.625 8.789062 -11.296875 9.25 -10.578125 C 9.421875 -10.316406 9.445312 -9.902344 9.902344 -9.902344 L 11.996094 -9.902344 C 12.5 -9.902344 12.671875 -10.011719 12.671875 -10.535156 C 12.390625 -13.304688 9.707031 -14.679688 7 -14.679688 C 4.40625 -14.679688 1.15625 -13.175781 1.15625 -9.75 L 1.15625 -4.601562 C 1.15625 -1.179688 4.40625 0.328125 7 0.328125 C 9.707031 0.328125 12.671875 -1.441406 12.671875 -4.253906 Z M 12.671875 -4.253906 "/></g></g></g><g fill="rgb(0%, 0%, 0%)" fill-opacity="1"><g transform="translate(105.708378, 247.57263)"><g><path d="M 11.320312 -3.054688 L 5.039062 -3.054688 L 5.039062 -13.71875 C 5.039062 -14.222656 4.796875 -14.351562 4.40625 -14.351562 L 2.246094 -14.351562 C 1.855469 -14.351562 1.613281 -14.222656 1.613281 -13.71875 L 1.613281 -0.632812 C 1.613281 -0.238281 1.746094 0 2.246094 0 L 11.320312 0 C 11.820312 0 11.953125 -0.238281 11.953125 -0.632812 L 11.953125 -2.421875 C 11.953125 -2.8125 11.820312 -3.054688 11.320312 -3.054688 Z M 11.320312 -3.054688 "/></g></g></g><g fill="rgb(0%, 0%, 0%)" fill-opacity="1"><g transform="translate(121.277939, 247.57263)"><g><path d="M 12.34375 -14.351562 L 10.1875 -14.351562 C 9.792969 -14.351562 9.554688 -14.222656 9.554688 -13.71875 L 9.554688 -4.863281 C 9.554688 -3.488281 8.636719 -2.703125 7.199219 -2.703125 C 5.757812 -2.703125 4.863281 -3.488281 4.863281 -4.863281 L 4.863281 -13.71875 C 4.863281 -14.222656 4.625 -14.351562 4.230469 -14.351562 L 2.070312 -14.351562 C 1.679688 -14.351562 1.441406 -14.222656 1.441406 -13.71875 L 1.441406 -4.382812 C 1.441406 -0.960938 4.601562 0.328125 7.199219 0.328125 C 9.792969 0.328125 12.976562 -0.960938 12.976562 -4.382812 L 12.976562 -13.71875 C 12.976562 -14.222656 12.738281 -14.351562 12.34375 -14.351562 Z M 12.34375 -14.351562 "/></g></g></g><g fill="rgb(0%, 0%, 0%)" fill-opacity="1"><g transform="translate(138.570007, 247.57263)"><g><path d="M 8.375 -8.332031 C 7.503906 -8.679688 4.296875 -9.160156 4.296875 -10.492188 C 4.296875 -11.472656 5.496094 -11.757812 6.214844 -11.757812 C 6.871094 -11.757812 7.65625 -11.558594 8.070312 -11.167969 C 8.332031 -10.90625 8.441406 -10.730469 8.527344 -10.511719 C 8.636719 -10.230469 8.703125 -9.925781 9.117188 -9.925781 L 11.253906 -9.925781 C 11.757812 -9.925781 11.886719 -10.011719 11.886719 -10.535156 C 11.886719 -13.414062 8.855469 -14.679688 6.085938 -14.679688 C 3.359375 -14.570312 0.785156 -13.175781 0.785156 -10.339844 C 0.785156 -7.570312 2.8125 -6.695312 5.015625 -6 C 6.871094 -5.410156 8.8125 -5.386719 8.8125 -4.167969 C 8.8125 -2.945312 7.851562 -2.683594 6.675781 -2.683594 C 5.867188 -2.683594 4.972656 -2.878906 4.535156 -3.402344 C 4.253906 -3.730469 4.144531 -4.011719 4.121094 -4.296875 C 4.078125 -4.84375 3.839844 -4.90625 3.335938 -4.90625 L 1.222656 -4.90625 C 0.71875 -4.90625 0.589844 -4.796875 0.589844 -4.296875 C 0.589844 -1.242188 3.730469 0.328125 6.457031 0.328125 C 9.816406 0.328125 12.257812 -1.15625 12.257812 -4.253906 C 12.257812 -7.21875 9.945312 -7.851562 8.375 -8.332031 Z M 8.375 -8.332031 "/></g></g></g><g fill="rgb(0%, 0%, 0%)" fill-opacity="1"><g transform="translate(154.641055, 247.57263)"><g><path d="M 7.851562 -2.988281 L 6.476562 -2.988281 L 6.476562 -11.320312 L 7.785156 -11.320312 C 8.289062 -11.320312 8.417969 -11.558594 8.417969 -11.953125 L 8.417969 -13.71875 C 8.417969 -14.113281 8.289062 -14.351562 7.785156 -14.351562 L 1.722656 -14.351562 C 1.222656 -14.351562 1.089844 -14.113281 1.089844 -13.71875 L 1.089844 -11.953125 C 1.089844 -11.558594 1.222656 -11.320312 1.722656 -11.320312 L 3.054688 -11.320312 L 3.054688 -2.988281 L 1.679688 -2.988281 C 1.179688 -2.988281 1.046875 -2.75 1.046875 -2.355469 L 1.046875 -0.632812 C 1.046875 -0.238281 1.179688 0 1.679688 0 L 7.851562 0 C 8.355469 0 8.484375 -0.238281 8.484375 -0.632812 L 8.484375 -2.355469 C 8.484375 -2.75 8.355469 -2.988281 7.851562 -2.988281 Z M 7.851562 -2.988281 "/></g></g></g><g fill="rgb(0%, 0%, 0%)" fill-opacity="1"><g transform="translate(167.201664, 247.57263)"><g><path d="M 13.066406 -14.351562 L 10.753906 -14.351562 C 10.164062 -14.351562 10.011719 -14.175781 9.835938 -13.652344 L 6.890625 -4.625 L 3.925781 -13.652344 C 3.75 -14.175781 3.597656 -14.351562 3.03125 -14.351562 L 0.609375 -14.351562 C 0.195312 -14.351562 0.109375 -14.003906 0.21875 -13.71875 L 4.90625 -0.65625 C 5.167969 -0.0859375 5.320312 0 5.800781 0 L 7.894531 0 C 8.375 0 8.527344 -0.0859375 8.789062 -0.65625 L 13.457031 -13.71875 C 13.566406 -14.003906 13.480469 -14.351562 13.066406 -14.351562 Z M 13.066406 -14.351562 "/></g></g></g><g fill="rgb(0%, 0%, 0%)" fill-opacity="1"><g transform="translate(183.948635, 247.57263)"><g><path d="M 12.019531 -3.054688 L 5.058594 -3.054688 L 5.058594 -5.933594 L 10.90625 -5.933594 C 11.40625 -5.933594 11.539062 -6.171875 11.539062 -6.566406 L 11.539062 -8.265625 C 11.539062 -8.660156 11.40625 -8.898438 10.90625 -8.898438 L 5.058594 -8.898438 L 5.058594 -11.277344 L 11.648438 -11.277344 C 12.148438 -11.277344 12.28125 -11.515625 12.28125 -11.910156 L 12.28125 -13.71875 C 12.28125 -14.113281 12.148438 -14.351562 11.648438 -14.351562 L 2.246094 -14.351562 C 1.746094 -14.351562 1.613281 -14.113281 1.613281 -13.71875 L 1.613281 -0.632812 C 1.613281 -0.238281 1.746094 0 2.246094 0 L 12.019531 0 C 12.519531 0 12.652344 -0.238281 12.652344 -0.632812 L 12.652344 -2.421875 C 12.652344 -2.8125 12.519531 -3.054688 12.019531 -3.054688 Z M 12.019531 -3.054688 "/></g></g></g><g fill="rgb(0%, 0%, 0%)" fill-opacity="1"><g transform="translate(200.499358, 247.57263)"><g/></g></g><g fill="rgb(0%, 0%, 0%)" fill-opacity="1"><g transform="translate(209.287888, 247.57263)"><g><path d="M 12.019531 -3.054688 L 5.058594 -3.054688 L 5.058594 -5.933594 L 10.90625 -5.933594 C 11.40625 -5.933594 11.539062 -6.171875 11.539062 -6.566406 L 11.539062 -8.265625 C 11.539062 -8.660156 11.40625 -8.898438 10.90625 -8.898438 L 5.058594 -8.898438 L 5.058594 -11.277344 L 11.648438 -11.277344 C 12.148438 -11.277344 12.28125 -11.515625 12.28125 -11.910156 L 12.28125 -13.71875 C 12.28125 -14.113281 12.148438 -14.351562 11.648438 -14.351562 L 2.246094 -14.351562 C 1.746094 -14.351562 1.613281 -14.113281 1.613281 -13.71875 L 1.613281 -0.632812 C 1.613281 -0.238281 1.746094 0 2.246094 0 L 12.019531 0 C 12.519531 0 12.652344 -0.238281 12.652344 -0.632812 L 12.652344 -2.421875 C 12.652344 -2.8125 12.519531 -3.054688 12.019531 -3.054688 Z M 12.019531 -3.054688 "/></g></g></g><g fill="rgb(0%, 0%, 0%)" fill-opacity="1"><g transform="translate(225.83862, 247.57263)"><g><path d="M 14.484375 -14.375 L 12.390625 -14.375 C 11.667969 -14.375 11.558594 -13.894531 11.40625 -13.632812 L 8.398438 -8.265625 L 5.410156 -13.632812 C 5.234375 -13.894531 5.148438 -14.375 4.40625 -14.375 L 2.246094 -14.375 C 1.746094 -14.375 1.613281 -14.132812 1.613281 -13.742188 L 1.613281 -0.632812 C 1.613281 -0.132812 1.855469 0 2.246094 0 L 4.40625 0 C 4.796875 0 5.039062 -0.132812 5.039062 -0.632812 L 5.039062 -8.027344 L 7.242188 -4.210938 C 7.351562 -4.035156 7.523438 -3.75 7.851562 -3.75 L 8.941406 -3.75 C 9.269531 -3.75 9.464844 -4.035156 9.574219 -4.210938 L 11.757812 -8.027344 L 11.757812 -0.632812 C 11.757812 -0.132812 11.996094 0 12.390625 0 L 14.484375 0 C 14.875 0 15.117188 -0.132812 15.117188 -0.632812 L 15.117188 -13.742188 C 15.117188 -14.132812 14.984375 -14.375 14.484375 -14.375 Z M 14.484375 -14.375 "/></g></g></g><g fill="rgb(0%, 0%, 0%)" fill-opacity="1"><g transform="translate(245.441913, 247.57263)"><g/></g></g><g fill="rgb(0%, 0%, 0%)" fill-opacity="1"><g transform="translate(254.230444, 247.57263)"><g><path d="M 8.375 -8.332031 C 7.503906 -8.679688 4.296875 -9.160156 4.296875 -10.492188 C 4.296875 -11.472656 5.496094 -11.757812 6.214844 -11.757812 C 6.871094 -11.757812 7.65625 -11.558594 8.070312 -11.167969 C 8.332031 -10.90625 8.441406 -10.730469 8.527344 -10.511719 C 8.636719 -10.230469 8.703125 -9.925781 9.117188 -9.925781 L 11.253906 -9.925781 C 11.757812 -9.925781 11.886719 -10.011719 11.886719 -10.535156 C 11.886719 -13.414062 8.855469 -14.679688 6.085938 -14.679688 C 3.359375 -14.570312 0.785156 -13.175781 0.785156 -10.339844 C 0.785156 -7.570312 2.8125 -6.695312 5.015625 -6 C 6.871094 -5.410156 8.8125 -5.386719 8.8125 -4.167969 C 8.8125 -2.945312 7.851562 -2.683594 6.675781 -2.683594 C 5.867188 -2.683594 4.972656 -2.878906 4.535156 -3.402344 C 4.253906 -3.730469 4.144531 -4.011719 4.121094 -4.296875 C 4.078125 -4.84375 3.839844 -4.90625 3.335938 -4.90625 L 1.222656 -4.90625 C 0.71875 -4.90625 0.589844 -4.796875 0.589844 -4.296875 C 0.589844 -1.242188 3.730469 0.328125 6.457031 0.328125 C 9.816406 0.328125 12.257812 -1.15625 12.257812 -4.253906 C 12.257812 -7.21875 9.945312 -7.851562 8.375 -8.332031 Z M 8.375 -8.332031 "/></g></g></g><g fill="rgb(0%, 0%, 0%)" fill-opacity="1"><g transform="translate(270.301492, 247.57263)"><g><path d="M 12.019531 -3.054688 L 5.058594 -3.054688 L 5.058594 -5.933594 L 10.90625 -5.933594 C 11.40625 -5.933594 11.539062 -6.171875 11.539062 -6.566406 L 11.539062 -8.265625 C 11.539062 -8.660156 11.40625 -8.898438 10.90625 -8.898438 L 5.058594 -8.898438 L 5.058594 -11.277344 L 11.648438 -11.277344 C 12.148438 -11.277344 12.28125 -11.515625 12.28125 -11.910156 L 12.28125 -13.71875 C 12.28125 -14.113281 12.148438 -14.351562 11.648438 -14.351562 L 2.246094 -14.351562 C 1.746094 -14.351562 1.613281 -14.113281 1.613281 -13.71875 L 1.613281 -0.632812 C 1.613281 -0.238281 1.746094 0 2.246094 0 L 12.019531 0 C 12.519531 0 12.652344 -0.238281 12.652344 -0.632812 L 12.652344 -2.421875 C 12.652344 -2.8125 12.519531 -3.054688 12.019531 -3.054688 Z M 12.019531 -3.054688 "/></g></g></g><g fill="rgb(0%, 0%, 0%)" fill-opacity="1"><g transform="translate(286.852223, 247.57263)"><g><path d="M 12.34375 -14.351562 L 10.1875 -14.351562 C 9.792969 -14.351562 9.554688 -14.222656 9.554688 -13.71875 L 9.554688 -4.863281 C 9.554688 -3.488281 8.636719 -2.703125 7.199219 -2.703125 C 5.757812 -2.703125 4.863281 -3.488281 4.863281 -4.863281 L 4.863281 -13.71875 C 4.863281 -14.222656 4.625 -14.351562 4.230469 -14.351562 L 2.070312 -14.351562 C 1.679688 -14.351562 1.441406 -14.222656 1.441406 -13.71875 L 1.441406 -4.382812 C 1.441406 -0.960938 4.601562 0.328125 7.199219 0.328125 C 9.792969 0.328125 12.976562 -0.960938 12.976562 -4.382812 L 12.976562 -13.71875 C 12.976562 -14.222656 12.738281 -14.351562 12.34375 -14.351562 Z M 12.34375 -14.351562 "/></g></g></g><g fill="rgb(0%, 0%, 0%)" fill-opacity="1"><g transform="translate(134.217096, 277.954128)"><g><path d="M 12.671875 -4.253906 C 12.671875 -4.777344 12.5 -4.996094 12.019531 -4.996094 L 9.878906 -4.996094 C 9.402344 -4.996094 9.355469 -4.644531 9.292969 -4.210938 C 9.117188 -3.164062 8.179688 -2.726562 7 -2.726562 C 5.5625 -2.726562 4.582031 -3.511719 4.582031 -4.90625 L 4.582031 -9.445312 C 4.582031 -10.820312 5.5625 -11.625 7 -11.625 C 8.179688 -11.625 8.789062 -11.296875 9.25 -10.578125 C 9.421875 -10.316406 9.445312 -9.902344 9.902344 -9.902344 L 11.996094 -9.902344 C 12.5 -9.902344 12.671875 -10.011719 12.671875 -10.535156 C 12.390625 -13.304688 9.707031 -14.679688 7 -14.679688 C 4.40625 -14.679688 1.15625 -13.175781 1.15625 -9.75 L 1.15625 -4.601562 C 1.15625 -1.179688 4.40625 0.328125 7 0.328125 C 9.707031 0.328125 12.671875 -1.441406 12.671875 -4.253906 Z M 12.671875 -4.253906 "/></g></g></g><g fill="rgb(0%, 0%, 0%)" fill-opacity="1"><g transform="translate(150.876848, 277.954128)"><g><path d="M 12.890625 -4.601562 L 12.890625 -9.75 C 12.890625 -13.195312 9.617188 -14.679688 7.023438 -14.679688 C 4.429688 -14.679688 1.199219 -13.195312 1.199219 -9.75 L 1.199219 -4.601562 C 1.199219 -1.15625 4.429688 0.328125 7.023438 0.328125 C 9.617188 0.328125 12.890625 -1.15625 12.890625 -4.601562 Z M 9.464844 -9.445312 L 9.464844 -4.90625 C 9.464844 -3.511719 8.464844 -2.703125 7.023438 -2.703125 C 5.605469 -2.703125 4.601562 -3.511719 4.601562 -4.90625 L 4.601562 -9.445312 C 4.601562 -10.839844 5.605469 -11.648438 7.023438 -11.648438 C 8.464844 -11.648438 9.464844 -10.839844 9.464844 -9.445312 Z M 9.464844 -9.445312 "/></g></g></g><g fill="rgb(0%, 0%, 0%)" fill-opacity="1"><g transform="translate(167.820058, 277.954128)"><g><path d="M 13.371094 -0.699219 L 10.296875 -5.167969 C 11.648438 -5.628906 13.328125 -7.21875 13.328125 -9.511719 C 13.328125 -10.90625 12.867188 -12.148438 12.0625 -12.933594 C 11.144531 -13.851562 10.097656 -14.332031 7.722656 -14.332031 L 2.226562 -14.332031 C 1.722656 -14.332031 1.613281 -14.089844 1.613281 -13.699219 L 1.613281 -0.632812 C 1.613281 -0.132812 1.832031 0 2.226562 0 L 4.382812 0 C 4.777344 0 5.015625 -0.132812 5.015625 -0.632812 L 5.015625 -11.277344 L 7.917969 -11.277344 C 9.050781 -11.277344 9.925781 -10.558594 9.925781 -9.421875 C 9.925781 -8.398438 8.921875 -7.65625 7.851562 -7.65625 L 7.417969 -7.65625 C 6.914062 -7.65625 6.785156 -7.417969 6.785156 -7.023438 L 6.785156 -5.277344 C 6.785156 -4.667969 6.828125 -4.429688 7.023438 -4.167969 L 9.378906 -0.65625 C 9.683594 -0.195312 9.945312 0 10.46875 0 L 13.042969 0 C 13.457031 0 13.566406 -0.394531 13.371094 -0.699219 Z M 13.371094 -0.699219 "/></g></g></g><g fill="rgb(0%, 0%, 0%)" fill-opacity="1"><g transform="translate(185.221143, 277.954128)"><g><path d="M 7.152344 -14.351562 L 2.246094 -14.351562 C 1.746094 -14.351562 1.613281 -14.113281 1.613281 -13.71875 L 1.613281 -0.632812 C 1.613281 -0.132812 1.855469 0 2.246094 0 L 4.40625 0 C 4.796875 0 5.039062 -0.132812 5.039062 -0.632812 L 5.039062 -4.253906 L 7.132812 -4.253906 C 10.863281 -4.253906 12.867188 -6.261719 12.867188 -9.292969 C 12.867188 -12.300781 10.90625 -14.351562 7.152344 -14.351562 Z M 7.132812 -7.199219 L 5.039062 -7.199219 L 5.039062 -11.277344 L 7.132812 -11.277344 C 8.832031 -11.277344 9.574219 -10.359375 9.574219 -9.226562 C 9.574219 -8.136719 8.832031 -7.199219 7.132812 -7.199219 Z M 7.132812 -7.199219 "/></g></g></g><g fill="rgb(0%, 0%, 0%)" fill-opacity="1"><g transform="translate(201.793679, 277.954128)"><g><path d="M 12.890625 -4.601562 L 12.890625 -9.75 C 12.890625 -13.195312 9.617188 -14.679688 7.023438 -14.679688 C 4.429688 -14.679688 1.199219 -13.195312 1.199219 -9.75 L 1.199219 -4.601562 C 1.199219 -1.15625 4.429688 0.328125 7.023438 0.328125 C 9.617188 0.328125 12.890625 -1.15625 12.890625 -4.601562 Z M 9.464844 -9.445312 L 9.464844 -4.90625 C 9.464844 -3.511719 8.464844 -2.703125 7.023438 -2.703125 C 5.605469 -2.703125 4.601562 -3.511719 4.601562 -4.90625 L 4.601562 -9.445312 C 4.601562 -10.839844 5.605469 -11.648438 7.023438 -11.648438 C 8.464844 -11.648438 9.464844 -10.839844 9.464844 -9.445312 Z M 9.464844 -9.445312 "/></g></g></g><g fill="rgb(0%, 0%, 0%)" fill-opacity="1"><g transform="translate(218.736891, 277.954128)"><g><path d="M 3.074219 -4.515625 L 4.144531 -4.515625 C 4.644531 -4.515625 4.691406 -4.582031 4.753906 -5.148438 C 5.691406 -13.761719 5.714844 -13.828125 5.714844 -13.894531 C 5.714844 -14.285156 5.519531 -14.351562 5.058594 -14.351562 L 2.136719 -14.351562 C 1.703125 -14.351562 1.503906 -14.265625 1.503906 -13.894531 C 1.503906 -13.828125 1.527344 -13.761719 2.441406 -5.148438 C 2.507812 -4.601562 2.550781 -4.515625 3.074219 -4.515625 Z M 4.820312 -3.6875 L 2.398438 -3.6875 C 2.007812 -3.6875 1.765625 -3.554688 1.765625 -3.054688 L 1.765625 -0.632812 C 1.765625 -0.132812 2.007812 0 2.398438 0 L 4.820312 0 C 5.214844 0 5.453125 -0.132812 5.453125 -0.632812 L 5.453125 -3.054688 C 5.453125 -3.554688 5.214844 -3.6875 4.820312 -3.6875 Z M 4.820312 -3.6875 "/></g></g></g></svg>