<svg xmlns="http://www.w3.org/2000/svg" xmlns:xlink="http://www.w3.org/1999/xlink" width="800" zoomAndPan="magnify" viewBox="0 0 600 599.999999" height="800" preserveAspectRatio="xMidYMid meet" version="1.0"><defs><g/></defs><path fill="rgb(81.568909%, 100%, 87.838745%)" d="M 300.097656 129.824219 C 206.058594 129.824219 129.824219 206.058594 129.824219 300.097656 C 129.824219 394.136719 206.058594 470.371094 300.097656 470.371094 C 394.136719 470.371094 470.371094 394.136719 470.371094 300.097656 C 470.371094 206.058594 394.136719 129.824219 300.097656 129.824219 " fill-opacity="1" fill-rule="nonzero"/><g fill="rgb(0%, 0%, 0%)" fill-opacity="1"><g transform="translate(207.279307, 218.229827)"><g><path d="M 10.410156 -3.496094 C 10.410156 -3.925781 10.269531 -4.105469 9.875 -4.105469 L 8.117188 -4.105469 C 7.722656 -4.105469 7.6875 -3.816406 7.632812 -3.457031 C 7.492188 -2.597656 6.71875 -2.238281 5.753906 -2.238281 C 4.570312 -2.238281 3.761719 -2.886719 3.761719 -4.03125 L 3.761719 -7.757812 C 3.761719 -8.886719 4.570312 -9.550781 5.753906 -9.550781 C 6.71875 -9.550781 7.222656 -9.28125 7.597656 -8.691406 C 7.742188 -8.476562 7.757812 -8.136719 8.136719 -8.136719 L 9.855469 -8.136719 C 10.269531 -8.136719 10.410156 -8.226562 10.410156 -8.65625 C 10.179688 -10.929688 7.976562 -12.0625 5.753906 -12.0625 C 3.621094 -12.0625 0.949219 -10.824219 0.949219 -8.011719 L 0.949219 -3.78125 C 0.949219 -0.96875 3.621094 0.269531 5.753906 0.269531 C 7.976562 0.269531 10.410156 -1.183594 10.410156 -3.496094 Z M 10.410156 -3.496094 "/></g></g></g><g fill="rgb(0%, 0%, 0%)" fill-opacity="1"><g transform="translate(220.966951, 218.229827)"><g><path d="M 10.589844 -3.78125 L 10.589844 -8.011719 C 10.589844 -10.84375 7.902344 -12.0625 5.769531 -12.0625 C 3.636719 -12.0625 0.984375 -10.84375 0.984375 -8.011719 L 0.984375 -3.78125 C 0.984375 -0.949219 3.636719 0.269531 5.769531 0.269531 C 7.902344 0.269531 10.589844 -0.949219 10.589844 -3.78125 Z M 7.777344 -7.757812 L 7.777344 -4.03125 C 7.777344 -2.886719 6.953125 -2.222656 5.769531 -2.222656 C 4.605469 -2.222656 3.78125 -2.886719 3.78125 -4.03125 L 3.78125 -7.757812 C 3.78125 -8.90625 4.605469 -9.570312 5.769531 -9.570312 C 6.953125 -9.570312 7.777344 -8.90625 7.777344 -7.757812 Z M 7.777344 -7.757812 "/></g></g></g><g fill="rgb(0%, 0%, 0%)" fill-opacity="1"><g transform="translate(234.887483, 218.229827)"><g><path d="M 10.375 -11.792969 L 8.65625 -11.792969 C 8.332031 -11.792969 8.136719 -11.683594 8.136719 -11.273438 L 8.136719 -5.054688 L 4.335938 -11.183594 C 4.105469 -11.539062 3.976562 -11.792969 3.53125 -11.792969 L 1.847656 -11.792969 C 1.433594 -11.792969 1.324219 -11.59375 1.324219 -11.273438 L 1.324219 -0.519531 C 1.324219 -0.109375 1.523438 0 1.847656 0 L 3.621094 0 C 3.941406 0 4.140625 -0.109375 4.140625 -0.519531 L 4.140625 -6.757812 L 7.9375 -0.609375 C 8.171875 -0.25 8.296875 0 8.746094 0 L 10.375 0 C 10.789062 0 10.894531 -0.195312 10.894531 -0.519531 L 10.894531 -11.273438 C 10.894531 -11.683594 10.699219 -11.792969 10.375 -11.792969 Z M 10.375 -11.792969 "/></g></g></g><g fill="rgb(0%, 0%, 0%)" fill-opacity="1"><g transform="translate(249.470839, 218.229827)"><g><path d="M 10.734375 -11.792969 L 8.835938 -11.792969 C 8.351562 -11.792969 8.226562 -11.648438 8.082031 -11.21875 L 5.664062 -3.800781 L 3.226562 -11.21875 C 3.082031 -11.648438 2.957031 -11.792969 2.492188 -11.792969 L 0.5 -11.792969 C 0.160156 -11.792969 0.0898438 -11.503906 0.179688 -11.273438 L 4.03125 -0.539062 C 4.246094 -0.0703125 4.371094 0 4.765625 0 L 6.488281 0 C 6.882812 0 7.007812 -0.0703125 7.222656 -0.539062 L 11.058594 -11.273438 C 11.148438 -11.503906 11.074219 -11.792969 10.734375 -11.792969 Z M 10.734375 -11.792969 "/></g></g></g><g fill="rgb(0%, 0%, 0%)" fill-opacity="1"><g transform="translate(263.230142, 218.229827)"><g><path d="M 6.453125 -2.457031 L 5.324219 -2.457031 L 5.324219 -9.300781 L 6.398438 -9.300781 C 6.808594 -9.300781 6.917969 -9.496094 6.917969 -9.820312 L 6.917969 -11.273438 C 6.917969 -11.59375 6.808594 -11.792969 6.398438 -11.792969 L 1.414062 -11.792969 C 1.003906 -11.792969 0.894531 -11.59375 0.894531 -11.273438 L 0.894531 -9.820312 C 0.894531 -9.496094 1.003906 -9.300781 1.414062 -9.300781 L 2.507812 -9.300781 L 2.507812 -2.457031 L 1.378906 -2.457031 C 0.96875 -2.457031 0.859375 -2.257812 0.859375 -1.933594 L 0.859375 -0.519531 C 0.859375 -0.195312 0.96875 0 1.378906 0 L 6.453125 0 C 6.863281 0 6.972656 -0.195312 6.972656 -0.519531 L 6.972656 -1.933594 C 6.972656 -2.257812 6.863281 -2.457031 6.453125 -2.457031 Z M 6.453125 -2.457031 "/></g></g></g><g fill="rgb(0%, 0%, 0%)" fill-opacity="1"><g transform="translate(273.549931, 218.229827)"><g><path d="M 10.734375 -11.792969 L 8.835938 -11.792969 C 8.351562 -11.792969 8.226562 -11.648438 8.082031 -11.21875 L 5.664062 -3.800781 L 3.226562 -11.21875 C 3.082031 -11.648438 2.957031 -11.792969 2.492188 -11.792969 L 0.5 -11.792969 C 0.160156 -11.792969 0.0898438 -11.503906 0.179688 -11.273438 L 4.03125 -0.539062 C 4.246094 -0.0703125 4.371094 0 4.765625 0 L 6.488281 0 C 6.882812 0 7.007812 -0.0703125 7.222656 -0.539062 L 11.058594 -11.273438 C 11.148438 -11.503906 11.074219 -11.792969 10.734375 -11.792969 Z M 10.734375 -11.792969 "/></g></g></g><g fill="rgb(0%, 0%, 0%)" fill-opacity="1"><g transform="translate(287.309234, 218.229827)"><g><path d="M 9.875 -2.507812 L 4.15625 -2.507812 L 4.15625 -4.875 L 8.960938 -4.875 C 9.371094 -4.875 9.480469 -5.070312 9.480469 -5.394531 L 9.480469 -6.792969 C 9.480469 -7.113281 9.371094 -7.3125 8.960938 -7.3125 L 4.15625 -7.3125 L 4.15625 -9.265625 L 9.570312 -9.265625 C 9.980469 -9.265625 10.089844 -9.460938 10.089844 -9.785156 L 10.089844 -11.273438 C 10.089844 -11.59375 9.980469 -11.792969 9.570312 -11.792969 L 1.847656 -11.792969 C 1.433594 -11.792969 1.324219 -11.59375 1.324219 -11.273438 L 1.324219 -0.519531 C 1.324219 -0.195312 1.433594 0 1.847656 0 L 9.875 0 C 10.285156 0 10.394531 -0.195312 10.394531 -0.519531 L 10.394531 -1.988281 C 10.394531 -2.3125 10.285156 -2.507812 9.875 -2.507812 Z M 9.875 -2.507812 "/></g></g></g><g fill="rgb(0%, 0%, 0%)" fill-opacity="1"><g transform="translate(300.907306, 218.229827)"><g><path d="M 11.898438 -11.808594 L 10.179688 -11.808594 C 9.585938 -11.808594 9.496094 -11.414062 9.371094 -11.199219 L 6.898438 -6.792969 L 4.445312 -11.199219 C 4.300781 -11.414062 4.230469 -11.808594 3.621094 -11.808594 L 1.847656 -11.808594 C 1.433594 -11.808594 1.324219 -11.613281 1.324219 -11.289062 L 1.324219 -0.519531 C 1.324219 -0.109375 1.523438 0 1.847656 0 L 3.621094 0 C 3.941406 0 4.140625 -0.109375 4.140625 -0.519531 L 4.140625 -6.59375 L 5.949219 -3.457031 C 6.039062 -3.316406 6.183594 -3.082031 6.453125 -3.082031 L 7.347656 -3.082031 C 7.617188 -3.082031 7.777344 -3.316406 7.867188 -3.457031 L 9.660156 -6.59375 L 9.660156 -0.519531 C 9.660156 -0.109375 9.855469 0 10.179688 0 L 11.898438 0 C 12.222656 0 12.417969 -0.109375 12.417969 -0.519531 L 12.417969 -11.289062 C 12.417969 -11.613281 12.3125 -11.808594 11.898438 -11.808594 Z M 11.898438 -11.808594 "/></g></g></g><g fill="rgb(0%, 0%, 0%)" fill-opacity="1"><g transform="translate(317.013362, 218.229827)"><g><path d="M 10.589844 -3.78125 L 10.589844 -8.011719 C 10.589844 -10.84375 7.902344 -12.0625 5.769531 -12.0625 C 3.636719 -12.0625 0.984375 -10.84375 0.984375 -8.011719 L 0.984375 -3.78125 C 0.984375 -0.949219 3.636719 0.269531 5.769531 0.269531 C 7.902344 0.269531 10.589844 -0.949219 10.589844 -3.78125 Z M 7.777344 -7.757812 L 7.777344 -4.03125 C 7.777344 -2.886719 6.953125 -2.222656 5.769531 -2.222656 C 4.605469 -2.222656 3.78125 -2.886719 3.78125 -4.03125 L 3.78125 -7.757812 C 3.78125 -8.90625 4.605469 -9.570312 5.769531 -9.570312 C 6.953125 -9.570312 7.777344 -8.90625 7.777344 -7.757812 Z M 7.777344 -7.757812 "/></g></g></g><g fill="rgb(0%, 0%, 0%)" fill-opacity="1"><g transform="translate(330.93389, 218.229827)"><g><path d="M 6.882812 -6.84375 C 6.164062 -7.132812 3.53125 -7.527344 3.53125 -8.621094 C 3.53125 -9.425781 4.515625 -9.660156 5.105469 -9.660156 C 5.644531 -9.660156 6.289062 -9.496094 6.628906 -9.175781 C 6.84375 -8.960938 6.933594 -8.816406 7.007812 -8.636719 C 7.097656 -8.40625 7.148438 -8.152344 7.492188 -8.152344 L 9.246094 -8.152344 C 9.660156 -8.152344 9.765625 -8.226562 9.765625 -8.65625 C 9.765625 -11.019531 7.277344 -12.0625 5 -12.0625 C 2.761719 -11.972656 0.644531 -10.824219 0.644531 -8.496094 C 0.644531 -6.21875 2.3125 -5.5 4.121094 -4.929688 C 5.644531 -4.445312 7.238281 -4.425781 7.238281 -3.421875 C 7.238281 -2.417969 6.453125 -2.203125 5.484375 -2.203125 C 4.820312 -2.203125 4.085938 -2.367188 3.726562 -2.796875 C 3.496094 -3.0625 3.40625 -3.296875 3.386719 -3.53125 C 3.351562 -3.976562 3.152344 -4.03125 2.742188 -4.03125 L 1.003906 -4.03125 C 0.589844 -4.03125 0.484375 -3.941406 0.484375 -3.53125 C 0.484375 -1.019531 3.0625 0.269531 5.304688 0.269531 C 8.0625 0.269531 10.070312 -0.949219 10.070312 -3.496094 C 10.070312 -5.933594 8.171875 -6.453125 6.882812 -6.84375 Z M 6.882812 -6.84375 "/></g></g></g><g fill="rgb(0%, 0%, 0%)" fill-opacity="1"><g transform="translate(344.137855, 218.229827)"><g/></g></g><g fill="rgb(0%, 0%, 0%)" fill-opacity="1"><g transform="translate(351.358507, 218.229827)"><g><path d="M 10.410156 -3.496094 C 10.410156 -3.925781 10.269531 -4.105469 9.875 -4.105469 L 8.117188 -4.105469 C 7.722656 -4.105469 7.6875 -3.816406 7.632812 -3.457031 C 7.492188 -2.597656 6.71875 -2.238281 5.753906 -2.238281 C 4.570312 -2.238281 3.761719 -2.886719 3.761719 -4.03125 L 3.761719 -7.757812 C 3.761719 -8.886719 4.570312 -9.550781 5.753906 -9.550781 C 6.71875 -9.550781 7.222656 -9.28125 7.597656 -8.691406 C 7.742188 -8.476562 7.757812 -8.136719 8.136719 -8.136719 L 9.855469 -8.136719 C 10.269531 -8.136719 10.410156 -8.226562 10.410156 -8.65625 C 10.179688 -10.929688 7.976562 -12.0625 5.753906 -12.0625 C 3.621094 -12.0625 0.949219 -10.824219 0.949219 -8.011719 L 0.949219 -3.78125 C 0.949219 -0.96875 3.621094 0.269531 5.753906 0.269531 C 7.976562 0.269531 10.410156 -1.183594 10.410156 -3.496094 Z M 10.410156 -3.496094 "/></g></g></g><g fill="rgb(0%, 0%, 0%)" fill-opacity="1"><g transform="translate(365.046152, 218.229827)"><g><path d="M 10.589844 -3.78125 L 10.589844 -8.011719 C 10.589844 -10.84375 7.902344 -12.0625 5.769531 -12.0625 C 3.636719 -12.0625 0.984375 -10.84375 0.984375 -8.011719 L 0.984375 -3.78125 C 0.984375 -0.949219 3.636719 0.269531 5.769531 0.269531 C 7.902344 0.269531 10.589844 -0.949219 10.589844 -3.78125 Z M 7.777344 -7.757812 L 7.777344 -4.03125 C 7.777344 -2.886719 6.953125 -2.222656 5.769531 -2.222656 C 4.605469 -2.222656 3.78125 -2.886719 3.78125 -4.03125 L 3.78125 -7.757812 C 3.78125 -8.90625 4.605469 -9.570312 5.769531 -9.570312 C 6.953125 -9.570312 7.777344 -8.90625 7.777344 -7.757812 Z M 7.777344 -7.757812 "/></g></g></g><g fill="rgb(0%, 0%, 0%)" fill-opacity="1"><g transform="translate(378.966686, 218.229827)"><g><path d="M 11.898438 -11.808594 L 10.179688 -11.808594 C 9.585938 -11.808594 9.496094 -11.414062 9.371094 -11.199219 L 6.898438 -6.792969 L 4.445312 -11.199219 C 4.300781 -11.414062 4.230469 -11.808594 3.621094 -11.808594 L 1.847656 -11.808594 C 1.433594 -11.808594 1.324219 -11.613281 1.324219 -11.289062 L 1.324219 -0.519531 C 1.324219 -0.109375 1.523438 0 1.847656 0 L 3.621094 0 C 3.941406 0 4.140625 -0.109375 4.140625 -0.519531 L 4.140625 -6.59375 L 5.949219 -3.457031 C 6.039062 -3.316406 6.183594 -3.082031 6.453125 -3.082031 L 7.347656 -3.082031 C 7.617188 -3.082031 7.777344 -3.316406 7.867188 -3.457031 L 9.660156 -6.59375 L 9.660156 -0.519531 C 9.660156 -0.109375 9.855469 0 10.179688 0 L 11.898438 0 C 12.222656 0 12.417969 -0.109375 12.417969 -0.519531 L 12.417969 -11.289062 C 12.417969 -11.613281 12.3125 -11.808594 11.898438 -11.808594 Z M 11.898438 -11.808594 "/></g></g></g><g fill="rgb(0%, 0%, 0%)" fill-opacity="1"><g transform="translate(222.40948, 243.19125)"><g><path d="M 9.730469 -6.109375 C 9.890625 -6.183594 11.039062 -6.757812 11.039062 -8.566406 C 11.039062 -10.25 9.785156 -11.808594 6.863281 -11.808594 L 1.847656 -11.808594 C 1.433594 -11.808594 1.324219 -11.613281 1.324219 -11.289062 L 1.324219 -0.519531 C 1.324219 -0.195312 1.433594 0 1.847656 0 L 7.113281 0 C 9.605469 0 11.378906 -1.164062 11.378906 -3.441406 C 11.378906 -5.375 9.875 -6.058594 9.730469 -6.109375 Z M 7.148438 -2.542969 L 4.140625 -2.542969 L 4.140625 -9.28125 L 6.863281 -9.28125 C 7.796875 -9.28125 8.351562 -9.085938 8.351562 -8.28125 C 8.351562 -7.582031 7.902344 -7.203125 6.863281 -7.203125 L 6.628906 -7.203125 C 6.21875 -7.203125 6.109375 -7.007812 6.109375 -6.683594 L 6.109375 -5.324219 C 6.109375 -5 6.21875 -4.800781 6.628906 -4.800781 L 7.042969 -4.800781 C 7.902344 -4.800781 8.53125 -4.550781 8.53125 -3.710938 C 8.53125 -2.902344 8.027344 -2.542969 7.148438 -2.542969 Z M 7.148438 -2.542969 "/></g></g></g><g fill="rgb(0%, 0%, 0%)" fill-opacity="1"><g transform="translate(237.082411, 243.19125)"><g><path d="M 11.46875 -0.5 L 7.507812 -11.234375 C 7.347656 -11.613281 7.167969 -11.792969 6.773438 -11.792969 L 5.054688 -11.792969 C 4.660156 -11.792969 4.460938 -11.613281 4.320312 -11.234375 L 0.339844 -0.5 C 0.25 -0.285156 0.25 0 0.644531 0 L 2.527344 0 C 2.921875 0 3.0625 -0.109375 3.207031 -0.539062 L 3.710938 -1.953125 L 8.101562 -1.953125 L 8.601562 -0.539062 C 8.746094 -0.109375 8.886719 0 9.28125 0 L 11.164062 0 C 11.558594 0 11.558594 -0.285156 11.46875 -0.5 Z M 5.914062 -8.421875 L 7.257812 -4.460938 L 4.570312 -4.460938 Z M 5.914062 -8.421875 "/></g></g></g><g fill="rgb(0%, 0%, 0%)" fill-opacity="1"><g transform="translate(251.182088, 243.19125)"><g><path d="M 10.410156 -3.496094 C 10.410156 -3.925781 10.269531 -4.105469 9.875 -4.105469 L 8.117188 -4.105469 C 7.722656 -4.105469 7.6875 -3.816406 7.632812 -3.457031 C 7.492188 -2.597656 6.71875 -2.238281 5.753906 -2.238281 C 4.570312 -2.238281 3.761719 -2.886719 3.761719 -4.03125 L 3.761719 -7.757812 C 3.761719 -8.886719 4.570312 -9.550781 5.753906 -9.550781 C 6.71875 -9.550781 7.222656 -9.28125 7.597656 -8.691406 C 7.742188 -8.476562 7.757812 -8.136719 8.136719 -8.136719 L 9.855469 -8.136719 C 10.269531 -8.136719 10.410156 -8.226562 10.410156 -8.65625 C 10.179688 -10.929688 7.976562 -12.0625 5.753906 -12.0625 C 3.621094 -12.0625 0.949219 -10.824219 0.949219 -8.011719 L 0.949219 -3.78125 C 0.949219 -0.96875 3.621094 0.269531 5.753906 0.269531 C 7.976562 0.269531 10.410156 -1.183594 10.410156 -3.496094 Z M 10.410156 -3.496094 "/></g></g></g><g fill="rgb(0%, 0%, 0%)" fill-opacity="1"><g transform="translate(264.86973, 243.19125)"><g><path d="M 9.300781 -11.792969 L 0.984375 -11.792969 C 0.574219 -11.792969 0.464844 -11.59375 0.464844 -11.273438 L 0.464844 -9.785156 C 0.464844 -9.460938 0.574219 -9.265625 0.984375 -9.265625 L 3.746094 -9.265625 L 3.746094 -0.519531 C 3.746094 -0.109375 3.941406 0 4.265625 0 L 6.039062 0 C 6.363281 0 6.558594 -0.109375 6.558594 -0.519531 L 6.558594 -9.265625 L 9.300781 -9.265625 C 9.714844 -9.265625 9.820312 -9.460938 9.820312 -9.785156 L 9.820312 -11.273438 C 9.820312 -11.59375 9.714844 -11.792969 9.300781 -11.792969 Z M 9.300781 -11.792969 "/></g></g></g><g fill="rgb(0%, 0%, 0%)" fill-opacity="1"><g transform="translate(277.518357, 243.19125)"><g><path d="M 4.550781 -12.832031 L 6.308594 -12.832031 C 6.757812 -12.832031 6.898438 -13.082031 7.148438 -13.332031 L 8.941406 -15.269531 C 9.105469 -15.429688 9.050781 -15.769531 8.601562 -15.769531 L 6.324219 -15.769531 C 5.933594 -15.769531 5.789062 -15.714844 5.519531 -15.269531 L 4.320312 -13.332031 C 4.210938 -13.171875 4.210938 -12.832031 4.550781 -12.832031 Z M 9.875 -2.507812 L 4.15625 -2.507812 L 4.15625 -4.875 L 8.960938 -4.875 C 9.371094 -4.875 9.480469 -5.070312 9.480469 -5.394531 L 9.480469 -6.792969 C 9.480469 -7.113281 9.371094 -7.3125 8.960938 -7.3125 L 4.15625 -7.3125 L 4.15625 -9.265625 L 9.570312 -9.265625 C 9.980469 -9.265625 10.089844 -9.460938 10.089844 -9.785156 L 10.089844 -11.273438 C 10.089844 -11.59375 9.980469 -11.792969 9.570312 -11.792969 L 1.847656 -11.792969 C 1.433594 -11.792969 1.324219 -11.59375 1.324219 -11.273438 L 1.324219 -0.519531 C 1.324219 -0.195312 1.433594 0 1.847656 0 L 9.875 0 C 10.285156 0 10.394531 -0.195312 10.394531 -0.519531 L 10.394531 -1.988281 C 10.394531 -2.3125 10.285156 -2.507812 9.875 -2.507812 Z M 9.875 -2.507812 "/></g></g></g><g fill="rgb(0%, 0%, 0%)" fill-opacity="1"><g transform="translate(291.11643, 243.19125)"><g><path d="M 10.984375 -0.574219 L 8.457031 -4.246094 C 9.570312 -4.625 10.949219 -5.933594 10.949219 -7.8125 C 10.949219 -8.960938 10.574219 -9.980469 9.910156 -10.625 C 9.15625 -11.378906 8.296875 -11.773438 6.34375 -11.773438 L 1.828125 -11.773438 C 1.414062 -11.773438 1.324219 -11.578125 1.324219 -11.253906 L 1.324219 -0.519531 C 1.324219 -0.109375 1.503906 0 1.828125 0 L 3.601562 0 C 3.925781 0 4.121094 -0.109375 4.121094 -0.519531 L 4.121094 -9.265625 L 6.503906 -9.265625 C 7.4375 -9.265625 8.152344 -8.671875 8.152344 -7.742188 C 8.152344 -6.898438 7.328125 -6.289062 6.453125 -6.289062 L 6.09375 -6.289062 C 5.679688 -6.289062 5.574219 -6.09375 5.574219 -5.769531 L 5.574219 -4.335938 C 5.574219 -3.835938 5.609375 -3.636719 5.769531 -3.421875 L 7.707031 -0.539062 C 7.957031 -0.160156 8.171875 0 8.601562 0 L 10.714844 0 C 11.058594 0 11.148438 -0.324219 10.984375 -0.574219 Z M 10.984375 -0.574219 "/></g></g></g><g fill="rgb(0%, 0%, 0%)" fill-opacity="1"><g transform="translate(305.413156, 243.19125)"><g><path d="M 6.453125 -2.457031 L 5.324219 -2.457031 L 5.324219 -9.300781 L 6.398438 -9.300781 C 6.808594 -9.300781 6.917969 -9.496094 6.917969 -9.820312 L 6.917969 -11.273438 C 6.917969 -11.59375 6.808594 -11.792969 6.398438 -11.792969 L 1.414062 -11.792969 C 1.003906 -11.792969 0.894531 -11.59375 0.894531 -11.273438 L 0.894531 -9.820312 C 0.894531 -9.496094 1.003906 -9.300781 1.414062 -9.300781 L 2.507812 -9.300781 L 2.507812 -2.457031 L 1.378906 -2.457031 C 0.96875 -2.457031 0.859375 -2.257812 0.859375 -1.933594 L 0.859375 -0.519531 C 0.859375 -0.195312 0.96875 0 1.378906 0 L 6.453125 0 C 6.863281 0 6.972656 -0.195312 6.972656 -0.519531 L 6.972656 -1.933594 C 6.972656 -2.257812 6.863281 -2.457031 6.453125 -2.457031 Z M 6.453125 -2.457031 "/></g></g></g><g fill="rgb(0%, 0%, 0%)" fill-opacity="1"><g transform="translate(315.732945, 243.19125)"><g><path d="M 11.46875 -0.5 L 7.507812 -11.234375 C 7.347656 -11.613281 7.167969 -11.792969 6.773438 -11.792969 L 5.054688 -11.792969 C 4.660156 -11.792969 4.460938 -11.613281 4.320312 -11.234375 L 0.339844 -0.5 C 0.25 -0.285156 0.25 0 0.644531 0 L 2.527344 0 C 2.921875 0 3.0625 -0.109375 3.207031 -0.539062 L 3.710938 -1.953125 L 8.101562 -1.953125 L 8.601562 -0.539062 C 8.746094 -0.109375 8.886719 0 9.28125 0 L 11.164062 0 C 11.558594 0 11.558594 -0.285156 11.46875 -0.5 Z M 5.914062 -8.421875 L 7.257812 -4.460938 L 4.570312 -4.460938 Z M 5.914062 -8.421875 "/></g></g></g><g fill="rgb(0%, 0%, 0%)" fill-opacity="1"><g transform="translate(329.832625, 243.19125)"><g><path d="M 6.882812 -6.84375 C 6.164062 -7.132812 3.53125 -7.527344 3.53125 -8.621094 C 3.53125 -9.425781 4.515625 -9.660156 5.105469 -9.660156 C 5.644531 -9.660156 6.289062 -9.496094 6.628906 -9.175781 C 6.84375 -8.960938 6.933594 -8.816406 7.007812 -8.636719 C 7.097656 -8.40625 7.148438 -8.152344 7.492188 -8.152344 L 9.246094 -8.152344 C 9.660156 -8.152344 9.765625 -8.226562 9.765625 -8.65625 C 9.765625 -11.019531 7.277344 -12.0625 5 -12.0625 C 2.761719 -11.972656 0.644531 -10.824219 0.644531 -8.496094 C 0.644531 -6.21875 2.3125 -5.5 4.121094 -4.929688 C 5.644531 -4.445312 7.238281 -4.425781 7.238281 -3.421875 C 7.238281 -2.417969 6.453125 -2.203125 5.484375 -2.203125 C 4.820312 -2.203125 4.085938 -2.367188 3.726562 -2.796875 C 3.496094 -3.0625 3.40625 -3.296875 3.386719 -3.53125 C 3.351562 -3.976562 3.152344 -4.03125 2.742188 -4.03125 L 1.003906 -4.03125 C 0.589844 -4.03125 0.484375 -3.941406 0.484375 -3.53125 C 0.484375 -1.019531 3.0625 0.269531 5.304688 0.269531 C 8.0625 0.269531 10.070312 -0.949219 10.070312 -3.496094 C 10.070312 -5.933594 8.171875 -6.453125 6.882812 -6.84375 Z M 6.882812 -6.84375 "/></g></g></g><g fill="rgb(0%, 0%, 0%)" fill-opacity="1"><g transform="translate(343.036583, 243.19125)"><g/></g></g><g fill="rgb(0%, 0%, 0%)" fill-opacity="1"><g transform="translate(350.257235, 243.19125)"><g><path d="M 9.875 -2.507812 L 4.15625 -2.507812 L 4.15625 -4.875 L 8.960938 -4.875 C 9.371094 -4.875 9.480469 -5.070312 9.480469 -5.394531 L 9.480469 -6.792969 C 9.480469 -7.113281 9.371094 -7.3125 8.960938 -7.3125 L 4.15625 -7.3125 L 4.15625 -9.265625 L 9.570312 -9.265625 C 9.980469 -9.265625 10.089844 -9.460938 10.089844 -9.785156 L 10.089844 -11.273438 C 10.089844 -11.59375 9.980469 -11.792969 9.570312 -11.792969 L 1.847656 -11.792969 C 1.433594 -11.792969 1.324219 -11.59375 1.324219 -11.273438 L 1.324219 -0.519531 C 1.324219 -0.195312 1.433594 0 1.847656 0 L 9.875 0 C 10.285156 0 10.394531 -0.195312 10.394531 -0.519531 L 10.394531 -1.988281 C 10.394531 -2.3125 10.285156 -2.507812 9.875 -2.507812 Z M 9.875 -2.507812 "/></g></g></g><g fill="rgb(0%, 0%, 0%)" fill-opacity="1"><g transform="translate(363.855307, 243.19125)"><g><path d="M 11.898438 -11.808594 L 10.179688 -11.808594 C 9.585938 -11.808594 9.496094 -11.414062 9.371094 -11.199219 L 6.898438 -6.792969 L 4.445312 -11.199219 C 4.300781 -11.414062 4.230469 -11.808594 3.621094 -11.808594 L 1.847656 -11.808594 C 1.433594 -11.808594 1.324219 -11.613281 1.324219 -11.289062 L 1.324219 -0.519531 C 1.324219 -0.109375 1.523438 0 1.847656 0 L 3.621094 0 C 3.941406 0 4.140625 -0.109375 4.140625 -0.519531 L 4.140625 -6.59375 L 5.949219 -3.457031 C 6.039062 -3.316406 6.183594 -3.082031 6.453125 -3.082031 L 7.347656 -3.082031 C 7.617188 -3.082031 7.777344 -3.316406 7.867188 -3.457031 L 9.660156 -6.59375 L 9.660156 -0.519531 C 9.660156 -0.109375 9.855469 0 10.179688 0 L 11.898438 0 C 12.222656 0 12.417969 -0.109375 12.417969 -0.519531 L 12.417969 -11.289062 C 12.417969 -11.613281 12.3125 -11.808594 11.898438 -11.808594 Z M 11.898438 -11.808594 "/></g></g></g><g fill="rgb(0%, 0%, 0%)" fill-opacity="1"><g transform="translate(184.63112, 268.152673)"><g><path d="M 5.859375 -11.792969 L 1.847656 -11.792969 C 1.433594 -11.792969 1.324219 -11.59375 1.324219 -11.273438 L 1.324219 -0.519531 C 1.324219 -0.195312 1.433594 0 1.847656 0 L 5.859375 0 C 7.992188 0 10.679688 -1.21875 10.679688 -4.03125 L 10.679688 -7.757812 C 10.679688 -10.554688 7.992188 -11.792969 5.859375 -11.792969 Z M 7.867188 -7.507812 L 7.867188 -4.28125 C 7.867188 -3.136719 7.042969 -2.492188 5.859375 -2.492188 L 4.140625 -2.492188 L 4.140625 -9.300781 L 5.859375 -9.300781 C 7.042969 -9.300781 7.867188 -8.636719 7.867188 -7.507812 Z M 7.867188 -7.507812 "/></g></g></g><g fill="rgb(0%, 0%, 0%)" fill-opacity="1"><g transform="translate(198.641225, 268.152673)"><g><path d="M 6.453125 -2.457031 L 5.324219 -2.457031 L 5.324219 -9.300781 L 6.398438 -9.300781 C 6.808594 -9.300781 6.917969 -9.496094 6.917969 -9.820312 L 6.917969 -11.273438 C 6.917969 -11.59375 6.808594 -11.792969 6.398438 -11.792969 L 1.414062 -11.792969 C 1.003906 -11.792969 0.894531 -11.59375 0.894531 -11.273438 L 0.894531 -9.820312 C 0.894531 -9.496094 1.003906 -9.300781 1.414062 -9.300781 L 2.507812 -9.300781 L 2.507812 -2.457031 L 1.378906 -2.457031 C 0.96875 -2.457031 0.859375 -2.257812 0.859375 -1.933594 L 0.859375 -0.519531 C 0.859375 -0.195312 0.96875 0 1.378906 0 L 6.453125 0 C 6.863281 0 6.972656 -0.195312 6.972656 -0.519531 L 6.972656 -1.933594 C 6.972656 -2.257812 6.863281 -2.457031 6.453125 -2.457031 Z M 6.453125 -2.457031 "/></g></g></g><g fill="rgb(0%, 0%, 0%)" fill-opacity="1"><g transform="translate(208.961012, 268.152673)"><g><path d="M 9.550781 -11.792969 L 1.847656 -11.792969 C 1.433594 -11.792969 1.324219 -11.59375 1.324219 -11.273438 L 1.324219 -0.519531 C 1.324219 -0.195312 1.433594 0 1.847656 0 L 3.621094 0 C 4.03125 0 4.140625 -0.0703125 4.140625 -0.539062 L 4.140625 -4.730469 L 8.800781 -4.730469 C 9.210938 -4.730469 9.320312 -4.929688 9.320312 -5.25 L 9.320312 -6.667969 C 9.320312 -6.988281 9.210938 -7.1875 8.800781 -7.1875 L 4.140625 -7.1875 L 4.140625 -9.28125 L 9.550781 -9.28125 C 9.964844 -9.28125 10.070312 -9.480469 10.070312 -9.800781 L 10.070312 -11.273438 C 10.070312 -11.59375 9.964844 -11.792969 9.550781 -11.792969 Z M 9.550781 -11.792969 "/></g></g></g><g fill="rgb(0%, 0%, 0%)" fill-opacity="1"><g transform="translate(222.111231, 268.152673)"><g><path d="M 9.875 -2.507812 L 4.15625 -2.507812 L 4.15625 -4.875 L 8.960938 -4.875 C 9.371094 -4.875 9.480469 -5.070312 9.480469 -5.394531 L 9.480469 -6.792969 C 9.480469 -7.113281 9.371094 -7.3125 8.960938 -7.3125 L 4.15625 -7.3125 L 4.15625 -9.265625 L 9.570312 -9.265625 C 9.980469 -9.265625 10.089844 -9.460938 10.089844 -9.785156 L 10.089844 -11.273438 C 10.089844 -11.59375 9.980469 -11.792969 9.570312 -11.792969 L 1.847656 -11.792969 C 1.433594 -11.792969 1.324219 -11.59375 1.324219 -11.273438 L 1.324219 -0.519531 C 1.324219 -0.195312 1.433594 0 1.847656 0 L 9.875 0 C 10.285156 0 10.394531 -0.195312 10.394531 -0.519531 L 10.394531 -1.988281 C 10.394531 -2.3125 10.285156 -2.507812 9.875 -2.507812 Z M 9.875 -2.507812 "/></g></g></g><g fill="rgb(0%, 0%, 0%)" fill-opacity="1"><g transform="translate(235.709303, 268.152673)"><g><path d="M 10.984375 -0.574219 L 8.457031 -4.246094 C 9.570312 -4.625 10.949219 -5.933594 10.949219 -7.8125 C 10.949219 -8.960938 10.574219 -9.980469 9.910156 -10.625 C 9.15625 -11.378906 8.296875 -11.773438 6.34375 -11.773438 L 1.828125 -11.773438 C 1.414062 -11.773438 1.324219 -11.578125 1.324219 -11.253906 L 1.324219 -0.519531 C 1.324219 -0.109375 1.503906 0 1.828125 0 L 3.601562 0 C 3.925781 0 4.121094 -0.109375 4.121094 -0.519531 L 4.121094 -9.265625 L 6.503906 -9.265625 C 7.4375 -9.265625 8.152344 -8.671875 8.152344 -7.742188 C 8.152344 -6.898438 7.328125 -6.289062 6.453125 -6.289062 L 6.09375 -6.289062 C 5.679688 -6.289062 5.574219 -6.09375 5.574219 -5.769531 L 5.574219 -4.335938 C 5.574219 -3.835938 5.609375 -3.636719 5.769531 -3.421875 L 7.707031 -0.539062 C 7.957031 -0.160156 8.171875 0 8.601562 0 L 10.714844 0 C 11.058594 0 11.148438 -0.324219 10.984375 -0.574219 Z M 10.984375 -0.574219 "/></g></g></g><g fill="rgb(0%, 0%, 0%)" fill-opacity="1"><g transform="translate(250.006029, 268.152673)"><g><path d="M 9.875 -2.507812 L 4.15625 -2.507812 L 4.15625 -4.875 L 8.960938 -4.875 C 9.371094 -4.875 9.480469 -5.070312 9.480469 -5.394531 L 9.480469 -6.792969 C 9.480469 -7.113281 9.371094 -7.3125 8.960938 -7.3125 L 4.15625 -7.3125 L 4.15625 -9.265625 L 9.570312 -9.265625 C 9.980469 -9.265625 10.089844 -9.460938 10.089844 -9.785156 L 10.089844 -11.273438 C 10.089844 -11.59375 9.980469 -11.792969 9.570312 -11.792969 L 1.847656 -11.792969 C 1.433594 -11.792969 1.324219 -11.59375 1.324219 -11.273438 L 1.324219 -0.519531 C 1.324219 -0.195312 1.433594 0 1.847656 0 L 9.875 0 C 10.285156 0 10.394531 -0.195312 10.394531 -0.519531 L 10.394531 -1.988281 C 10.394531 -2.3125 10.285156 -2.507812 9.875 -2.507812 Z M 9.875 -2.507812 "/></g></g></g><g fill="rgb(0%, 0%, 0%)" fill-opacity="1"><g transform="translate(263.604101, 268.152673)"><g><path d="M 10.375 -11.792969 L 8.65625 -11.792969 C 8.332031 -11.792969 8.136719 -11.683594 8.136719 -11.273438 L 8.136719 -5.054688 L 4.335938 -11.183594 C 4.105469 -11.539062 3.976562 -11.792969 3.53125 -11.792969 L 1.847656 -11.792969 C 1.433594 -11.792969 1.324219 -11.59375 1.324219 -11.273438 L 1.324219 -0.519531 C 1.324219 -0.109375 1.523438 0 1.847656 0 L 3.621094 0 C 3.941406 0 4.140625 -0.109375 4.140625 -0.519531 L 4.140625 -6.757812 L 7.9375 -0.609375 C 8.171875 -0.25 8.296875 0 8.746094 0 L 10.375 0 C 10.789062 0 10.894531 -0.195312 10.894531 -0.519531 L 10.894531 -11.273438 C 10.894531 -11.683594 10.699219 -11.792969 10.375 -11.792969 Z M 10.375 -11.792969 "/></g></g></g><g fill="rgb(0%, 0%, 0%)" fill-opacity="1"><g transform="translate(278.187461, 268.152673)"><g><path d="M 9.300781 -11.792969 L 0.984375 -11.792969 C 0.574219 -11.792969 0.464844 -11.59375 0.464844 -11.273438 L 0.464844 -9.785156 C 0.464844 -9.460938 0.574219 -9.265625 0.984375 -9.265625 L 3.746094 -9.265625 L 3.746094 -0.519531 C 3.746094 -0.109375 3.941406 0 4.265625 0 L 6.039062 0 C 6.363281 0 6.558594 -0.109375 6.558594 -0.519531 L 6.558594 -9.265625 L 9.300781 -9.265625 C 9.714844 -9.265625 9.820312 -9.460938 9.820312 -9.785156 L 9.820312 -11.273438 C 9.820312 -11.59375 9.714844 -11.792969 9.300781 -11.792969 Z M 9.300781 -11.792969 "/></g></g></g><g fill="rgb(0%, 0%, 0%)" fill-opacity="1"><g transform="translate(290.836088, 268.152673)"><g><path d="M 9.875 -2.507812 L 4.15625 -2.507812 L 4.15625 -4.875 L 8.960938 -4.875 C 9.371094 -4.875 9.480469 -5.070312 9.480469 -5.394531 L 9.480469 -6.792969 C 9.480469 -7.113281 9.371094 -7.3125 8.960938 -7.3125 L 4.15625 -7.3125 L 4.15625 -9.265625 L 9.570312 -9.265625 C 9.980469 -9.265625 10.089844 -9.460938 10.089844 -9.785156 L 10.089844 -11.273438 C 10.089844 -11.59375 9.980469 -11.792969 9.570312 -11.792969 L 1.847656 -11.792969 C 1.433594 -11.792969 1.324219 -11.59375 1.324219 -11.273438 L 1.324219 -0.519531 C 1.324219 -0.195312 1.433594 0 1.847656 0 L 9.875 0 C 10.285156 0 10.394531 -0.195312 10.394531 -0.519531 L 10.394531 -1.988281 C 10.394531 -2.3125 10.285156 -2.507812 9.875 -2.507812 Z M 9.875 -2.507812 "/></g></g></g><g fill="rgb(0%, 0%, 0%)" fill-opacity="1"><g transform="translate(304.434154, 268.152673)"><g><path d="M 6.882812 -6.84375 C 6.164062 -7.132812 3.53125 -7.527344 3.53125 -8.621094 C 3.53125 -9.425781 4.515625 -9.660156 5.105469 -9.660156 C 5.644531 -9.660156 6.289062 -9.496094 6.628906 -9.175781 C 6.84375 -8.960938 6.933594 -8.816406 7.007812 -8.636719 C 7.097656 -8.40625 7.148438 -8.152344 7.492188 -8.152344 L 9.246094 -8.152344 C 9.660156 -8.152344 9.765625 -8.226562 9.765625 -8.65625 C 9.765625 -11.019531 7.277344 -12.0625 5 -12.0625 C 2.761719 -11.972656 0.644531 -10.824219 0.644531 -8.496094 C 0.644531 -6.21875 2.3125 -5.5 4.121094 -4.929688 C 5.644531 -4.445312 7.238281 -4.425781 7.238281 -3.421875 C 7.238281 -2.417969 6.453125 -2.203125 5.484375 -2.203125 C 4.820312 -2.203125 4.085938 -2.367188 3.726562 -2.796875 C 3.496094 -3.0625 3.40625 -3.296875 3.386719 -3.53125 C 3.351562 -3.976562 3.152344 -4.03125 2.742188 -4.03125 L 1.003906 -4.03125 C 0.589844 -4.03125 0.484375 -3.941406 0.484375 -3.53125 C 0.484375 -1.019531 3.0625 0.269531 5.304688 0.269531 C 8.0625 0.269531 10.070312 -0.949219 10.070312 -3.496094 C 10.070312 -5.933594 8.171875 -6.453125 6.882812 -6.84375 Z M 6.882812 -6.84375 "/></g></g></g><g fill="rgb(0%, 0%, 0%)" fill-opacity="1"><g transform="translate(317.638119, 268.152673)"><g/></g></g><g fill="rgb(0%, 0%, 0%)" fill-opacity="1"><g transform="translate(324.858771, 268.152673)"><g><path d="M 10.984375 -0.574219 L 8.457031 -4.246094 C 9.570312 -4.625 10.949219 -5.933594 10.949219 -7.8125 C 10.949219 -8.960938 10.574219 -9.980469 9.910156 -10.625 C 9.15625 -11.378906 8.296875 -11.773438 6.34375 -11.773438 L 1.828125 -11.773438 C 1.414062 -11.773438 1.324219 -11.578125 1.324219 -11.253906 L 1.324219 -0.519531 C 1.324219 -0.109375 1.503906 0 1.828125 0 L 3.601562 0 C 3.925781 0 4.121094 -0.109375 4.121094 -0.519531 L 4.121094 -9.265625 L 6.503906 -9.265625 C 7.4375 -9.265625 8.152344 -8.671875 8.152344 -7.742188 C 8.152344 -6.898438 7.328125 -6.289062 6.453125 -6.289062 L 6.09375 -6.289062 C 5.679688 -6.289062 5.574219 -6.09375 5.574219 -5.769531 L 5.574219 -4.335938 C 5.574219 -3.835938 5.609375 -3.636719 5.769531 -3.421875 L 7.707031 -0.539062 C 7.957031 -0.160156 8.171875 0 8.601562 0 L 10.714844 0 C 11.058594 0 11.148438 -0.324219 10.984375 -0.574219 Z M 10.984375 -0.574219 "/></g></g></g><g fill="rgb(0%, 0%, 0%)" fill-opacity="1"><g transform="translate(339.155497, 268.152673)"><g><path d="M 9.875 -2.507812 L 4.15625 -2.507812 L 4.15625 -4.875 L 8.960938 -4.875 C 9.371094 -4.875 9.480469 -5.070312 9.480469 -5.394531 L 9.480469 -6.792969 C 9.480469 -7.113281 9.371094 -7.3125 8.960938 -7.3125 L 4.15625 -7.3125 L 4.15625 -9.265625 L 9.570312 -9.265625 C 9.980469 -9.265625 10.089844 -9.460938 10.089844 -9.785156 L 10.089844 -11.273438 C 10.089844 -11.59375 9.980469 -11.792969 9.570312 -11.792969 L 1.847656 -11.792969 C 1.433594 -11.792969 1.324219 -11.59375 1.324219 -11.273438 L 1.324219 -0.519531 C 1.324219 -0.195312 1.433594 0 1.847656 0 L 9.875 0 C 10.285156 0 10.394531 -0.195312 10.394531 -0.519531 L 10.394531 -1.988281 C 10.394531 -2.3125 10.285156 -2.507812 9.875 -2.507812 Z M 9.875 -2.507812 "/></g></g></g><g fill="rgb(0%, 0%, 0%)" fill-opacity="1"><g transform="translate(352.753569, 268.152673)"><g><path d="M 10.089844 -6.578125 L 6.164062 -6.578125 C 5.753906 -6.578125 5.644531 -6.378906 5.644531 -6.058594 L 5.644531 -4.660156 C 5.644531 -4.335938 5.753906 -4.140625 6.164062 -4.140625 L 7.777344 -4.140625 C 7.777344 -2.761719 6.953125 -2.222656 5.789062 -2.222656 C 4.605469 -2.222656 3.816406 -2.886719 3.816406 -4.03125 L 3.816406 -7.632812 C 3.816406 -8.78125 4.605469 -9.570312 5.789062 -9.570312 C 6.988281 -9.570312 7.632812 -9.03125 7.832031 -8.476562 C 7.921875 -8.226562 7.847656 -7.867188 8.351562 -7.867188 L 10.089844 -7.867188 C 10.5 -7.867188 10.609375 -7.9375 10.609375 -8.367188 C 10.609375 -10.769531 8.027344 -12.0625 5.789062 -12.0625 C 3.671875 -12.0625 0.96875 -10.859375 0.96875 -8.027344 L 0.96875 -3.621094 C 0.96875 -0.804688 3.671875 0.269531 5.789062 0.269531 C 7.832031 0.269531 10.449219 -0.878906 10.609375 -3.457031 L 10.609375 -6.058594 C 10.609375 -6.378906 10.5 -6.578125 10.089844 -6.578125 Z M 10.089844 -6.578125 "/></g></g></g><g fill="rgb(0%, 0%, 0%)" fill-opacity="1"><g transform="translate(366.692018, 268.152673)"><g><path d="M 6.453125 -2.457031 L 5.324219 -2.457031 L 5.324219 -9.300781 L 6.398438 -9.300781 C 6.808594 -9.300781 6.917969 -9.496094 6.917969 -9.820312 L 6.917969 -11.273438 C 6.917969 -11.59375 6.808594 -11.792969 6.398438 -11.792969 L 1.414062 -11.792969 C 1.003906 -11.792969 0.894531 -11.59375 0.894531 -11.273438 L 0.894531 -9.820312 C 0.894531 -9.496094 1.003906 -9.300781 1.414062 -9.300781 L 2.507812 -9.300781 L 2.507812 -2.457031 L 1.378906 -2.457031 C 0.96875 -2.457031 0.859375 -2.257812 0.859375 -1.933594 L 0.859375 -0.519531 C 0.859375 -0.195312 0.96875 0 1.378906 0 L 6.453125 0 C 6.863281 0 6.972656 -0.195312 6.972656 -0.519531 L 6.972656 -1.933594 C 6.972656 -2.257812 6.863281 -2.457031 6.453125 -2.457031 Z M 6.453125 -2.457031 "/></g></g></g><g fill="rgb(0%, 0%, 0%)" fill-opacity="1"><g transform="translate(377.011807, 268.152673)"><g><path d="M 8.941406 -15.179688 L 8.117188 -15.179688 C 7.796875 -15.179688 7.722656 -15.035156 7.671875 -14.855469 C 7.5625 -14.496094 7.277344 -14.40625 7.042969 -14.445312 C 6.828125 -14.480469 5.769531 -14.855469 5.769531 -14.855469 C 5.375 -15 4.785156 -15.179688 4.320312 -15.179688 C 3.152344 -15.179688 2.382812 -14.265625 2.382812 -13.207031 L 2.382812 -13.191406 C 2.382812 -13.082031 2.382812 -12.832031 2.597656 -12.832031 L 3.421875 -12.832031 C 3.746094 -12.832031 3.816406 -12.972656 3.871094 -13.152344 C 3.976562 -13.511719 4.265625 -13.601562 4.5 -13.566406 C 4.714844 -13.53125 5.769531 -13.152344 5.769531 -13.152344 C 6.164062 -13.011719 6.757812 -12.832031 7.222656 -12.832031 C 8.386719 -12.832031 9.15625 -13.746094 9.15625 -14.800781 L 9.15625 -14.820312 C 9.15625 -14.929688 9.15625 -15.179688 8.941406 -15.179688 Z M 10.589844 -8.011719 L 10.589844 -3.78125 C 10.589844 -0.949219 7.902344 0.269531 5.769531 0.269531 C 3.636719 0.269531 0.984375 -0.949219 0.984375 -3.78125 L 0.984375 -8.011719 C 0.984375 -10.84375 3.636719 -12.0625 5.769531 -12.0625 C 7.902344 -12.0625 10.589844 -10.84375 10.589844 -8.011719 Z M 7.777344 -4.03125 L 7.777344 -7.757812 C 7.777344 -8.90625 6.953125 -9.570312 5.769531 -9.570312 C 4.605469 -9.570312 3.78125 -8.90625 3.78125 -7.757812 L 3.78125 -4.03125 C 3.78125 -2.886719 4.605469 -2.222656 5.769531 -2.222656 C 6.953125 -2.222656 7.777344 -2.886719 7.777344 -4.03125 Z M 7.777344 -4.03125 "/></g></g></g><g fill="rgb(0%, 0%, 0%)" fill-opacity="1"><g transform="translate(390.932341, 268.152673)"><g><path d="M 9.875 -2.507812 L 4.15625 -2.507812 L 4.15625 -4.875 L 8.960938 -4.875 C 9.371094 -4.875 9.480469 -5.070312 9.480469 -5.394531 L 9.480469 -6.792969 C 9.480469 -7.113281 9.371094 -7.3125 8.960938 -7.3125 L 4.15625 -7.3125 L 4.15625 -9.265625 L 9.570312 -9.265625 C 9.980469 -9.265625 10.089844 -9.460938 10.089844 -9.785156 L 10.089844 -11.273438 C 10.089844 -11.59375 9.980469 -11.792969 9.570312 -11.792969 L 1.847656 -11.792969 C 1.433594 -11.792969 1.324219 -11.59375 1.324219 -11.273438 L 1.324219 -0.519531 C 1.324219 -0.195312 1.433594 0 1.847656 0 L 9.875 0 C 10.285156 0 10.394531 -0.195312 10.394531 -0.519531 L 10.394531 -1.988281 C 10.394531 -2.3125 10.285156 -2.507812 9.875 -2.507812 Z M 9.875 -2.507812 "/></g></g></g><g fill="rgb(0%, 0%, 0%)" fill-opacity="1"><g transform="translate(404.530413, 268.152673)"><g><path d="M 6.882812 -6.84375 C 6.164062 -7.132812 3.53125 -7.527344 3.53125 -8.621094 C 3.53125 -9.425781 4.515625 -9.660156 5.105469 -9.660156 C 5.644531 -9.660156 6.289062 -9.496094 6.628906 -9.175781 C 6.84375 -8.960938 6.933594 -8.816406 7.007812 -8.636719 C 7.097656 -8.40625 7.148438 -8.152344 7.492188 -8.152344 L 9.246094 -8.152344 C 9.660156 -8.152344 9.765625 -8.226562 9.765625 -8.65625 C 9.765625 -11.019531 7.277344 -12.0625 5 -12.0625 C 2.761719 -11.972656 0.644531 -10.824219 0.644531 -8.496094 C 0.644531 -6.21875 2.3125 -5.5 4.121094 -4.929688 C 5.644531 -4.445312 7.238281 -4.425781 7.238281 -3.421875 C 7.238281 -2.417969 6.453125 -2.203125 5.484375 -2.203125 C 4.820312 -2.203125 4.085938 -2.367188 3.726562 -2.796875 C 3.496094 -3.0625 3.40625 -3.296875 3.386719 -3.53125 C 3.351562 -3.976562 3.152344 -4.03125 2.742188 -4.03125 L 1.003906 -4.03125 C 0.589844 -4.03125 0.484375 -3.941406 0.484375 -3.53125 C 0.484375 -1.019531 3.0625 0.269531 5.304688 0.269531 C 8.0625 0.269531 10.070312 -0.949219 10.070312 -3.496094 C 10.070312 -5.933594 8.171875 -6.453125 6.882812 -6.84375 Z M 6.882812 -6.84375 "/></g></g></g><g fill="rgb(0%, 0%, 0%)" fill-opacity="1"><g transform="translate(200.608582, 293.114096)"><g><path d="M 5.859375 -11.792969 L 1.847656 -11.792969 C 1.433594 -11.792969 1.324219 -11.59375 1.324219 -11.273438 L 1.324219 -0.519531 C 1.324219 -0.195312 1.433594 0 1.847656 0 L 5.859375 0 C 7.992188 0 10.679688 -1.21875 10.679688 -4.03125 L 10.679688 -7.757812 C 10.679688 -10.554688 7.992188 -11.792969 5.859375 -11.792969 Z M 7.867188 -7.507812 L 7.867188 -4.28125 C 7.867188 -3.136719 7.042969 -2.492188 5.859375 -2.492188 L 4.140625 -2.492188 L 4.140625 -9.300781 L 5.859375 -9.300781 C 7.042969 -9.300781 7.867188 -8.636719 7.867188 -7.507812 Z M 7.867188 -7.507812 "/></g></g></g><g fill="rgb(0%, 0%, 0%)" fill-opacity="1"><g transform="translate(214.618687, 293.114096)"><g><path d="M 9.875 -2.507812 L 4.15625 -2.507812 L 4.15625 -4.875 L 8.960938 -4.875 C 9.371094 -4.875 9.480469 -5.070312 9.480469 -5.394531 L 9.480469 -6.792969 C 9.480469 -7.113281 9.371094 -7.3125 8.960938 -7.3125 L 4.15625 -7.3125 L 4.15625 -9.265625 L 9.570312 -9.265625 C 9.980469 -9.265625 10.089844 -9.460938 10.089844 -9.785156 L 10.089844 -11.273438 C 10.089844 -11.59375 9.980469 -11.792969 9.570312 -11.792969 L 1.847656 -11.792969 C 1.433594 -11.792969 1.324219 -11.59375 1.324219 -11.273438 L 1.324219 -0.519531 C 1.324219 -0.195312 1.433594 0 1.847656 0 L 9.875 0 C 10.285156 0 10.394531 -0.195312 10.394531 -0.519531 L 10.394531 -1.988281 C 10.394531 -2.3125 10.285156 -2.507812 9.875 -2.507812 Z M 9.875 -2.507812 "/></g></g></g><g fill="rgb(0%, 0%, 0%)" fill-opacity="1"><g transform="translate(228.216758, 293.114096)"><g/></g></g><g fill="rgb(0%, 0%, 0%)" fill-opacity="1"><g transform="translate(235.437406, 293.114096)"><g><path d="M 10.375 -11.792969 L 8.65625 -11.792969 C 8.332031 -11.792969 8.136719 -11.683594 8.136719 -11.273438 L 8.136719 -5.054688 L 4.335938 -11.183594 C 4.105469 -11.539062 3.976562 -11.792969 3.53125 -11.792969 L 1.847656 -11.792969 C 1.433594 -11.792969 1.324219 -11.59375 1.324219 -11.273438 L 1.324219 -0.519531 C 1.324219 -0.109375 1.523438 0 1.847656 0 L 3.621094 0 C 3.941406 0 4.140625 -0.109375 4.140625 -0.519531 L 4.140625 -6.757812 L 7.9375 -0.609375 C 8.171875 -0.25 8.296875 0 8.746094 0 L 10.375 0 C 10.789062 0 10.894531 -0.195312 10.894531 -0.519531 L 10.894531 -11.273438 C 10.894531 -11.683594 10.699219 -11.792969 10.375 -11.792969 Z M 10.375 -11.792969 "/></g></g></g><g fill="rgb(0%, 0%, 0%)" fill-opacity="1"><g transform="translate(250.020766, 293.114096)"><g><path d="M 10.589844 -3.78125 L 10.589844 -8.011719 C 10.589844 -10.84375 7.902344 -12.0625 5.769531 -12.0625 C 3.636719 -12.0625 0.984375 -10.84375 0.984375 -8.011719 L 0.984375 -3.78125 C 0.984375 -0.949219 3.636719 0.269531 5.769531 0.269531 C 7.902344 0.269531 10.589844 -0.949219 10.589844 -3.78125 Z M 7.777344 -7.757812 L 7.777344 -4.03125 C 7.777344 -2.886719 6.953125 -2.222656 5.769531 -2.222656 C 4.605469 -2.222656 3.78125 -2.886719 3.78125 -4.03125 L 3.78125 -7.757812 C 3.78125 -8.90625 4.605469 -9.570312 5.769531 -9.570312 C 6.953125 -9.570312 7.777344 -8.90625 7.777344 -7.757812 Z M 7.777344 -7.757812 "/></g></g></g><g fill="rgb(0%, 0%, 0%)" fill-opacity="1"><g transform="translate(263.9413, 293.114096)"><g><path d="M 6.882812 -6.84375 C 6.164062 -7.132812 3.53125 -7.527344 3.53125 -8.621094 C 3.53125 -9.425781 4.515625 -9.660156 5.105469 -9.660156 C 5.644531 -9.660156 6.289062 -9.496094 6.628906 -9.175781 C 6.84375 -8.960938 6.933594 -8.816406 7.007812 -8.636719 C 7.097656 -8.40625 7.148438 -8.152344 7.492188 -8.152344 L 9.246094 -8.152344 C 9.660156 -8.152344 9.765625 -8.226562 9.765625 -8.65625 C 9.765625 -11.019531 7.277344 -12.0625 5 -12.0625 C 2.761719 -11.972656 0.644531 -10.824219 0.644531 -8.496094 C 0.644531 -6.21875 2.3125 -5.5 4.121094 -4.929688 C 5.644531 -4.445312 7.238281 -4.425781 7.238281 -3.421875 C 7.238281 -2.417969 6.453125 -2.203125 5.484375 -2.203125 C 4.820312 -2.203125 4.085938 -2.367188 3.726562 -2.796875 C 3.496094 -3.0625 3.40625 -3.296875 3.386719 -3.53125 C 3.351562 -3.976562 3.152344 -4.03125 2.742188 -4.03125 L 1.003906 -4.03125 C 0.589844 -4.03125 0.484375 -3.941406 0.484375 -3.53125 C 0.484375 -1.019531 3.0625 0.269531 5.304688 0.269531 C 8.0625 0.269531 10.070312 -0.949219 10.070312 -3.496094 C 10.070312 -5.933594 8.171875 -6.453125 6.882812 -6.84375 Z M 6.882812 -6.84375 "/></g></g></g><g fill="rgb(0%, 0%, 0%)" fill-opacity="1"><g transform="translate(277.145265, 293.114096)"><g><path d="M 6.882812 -6.84375 C 6.164062 -7.132812 3.53125 -7.527344 3.53125 -8.621094 C 3.53125 -9.425781 4.515625 -9.660156 5.105469 -9.660156 C 5.644531 -9.660156 6.289062 -9.496094 6.628906 -9.175781 C 6.84375 -8.960938 6.933594 -8.816406 7.007812 -8.636719 C 7.097656 -8.40625 7.148438 -8.152344 7.492188 -8.152344 L 9.246094 -8.152344 C 9.660156 -8.152344 9.765625 -8.226562 9.765625 -8.65625 C 9.765625 -11.019531 7.277344 -12.0625 5 -12.0625 C 2.761719 -11.972656 0.644531 -10.824219 0.644531 -8.496094 C 0.644531 -6.21875 2.3125 -5.5 4.121094 -4.929688 C 5.644531 -4.445312 7.238281 -4.425781 7.238281 -3.421875 C 7.238281 -2.417969 6.453125 -2.203125 5.484375 -2.203125 C 4.820312 -2.203125 4.085938 -2.367188 3.726562 -2.796875 C 3.496094 -3.0625 3.40625 -3.296875 3.386719 -3.53125 C 3.351562 -3.976562 3.152344 -4.03125 2.742188 -4.03125 L 1.003906 -4.03125 C 0.589844 -4.03125 0.484375 -3.941406 0.484375 -3.53125 C 0.484375 -1.019531 3.0625 0.269531 5.304688 0.269531 C 8.0625 0.269531 10.070312 -0.949219 10.070312 -3.496094 C 10.070312 -5.933594 8.171875 -6.453125 6.882812 -6.84375 Z M 6.882812 -6.84375 "/></g></g></g><g fill="rgb(0%, 0%, 0%)" fill-opacity="1"><g transform="translate(290.34923, 293.114096)"><g><path d="M 10.589844 -3.78125 L 10.589844 -8.011719 C 10.589844 -10.84375 7.902344 -12.0625 5.769531 -12.0625 C 3.636719 -12.0625 0.984375 -10.84375 0.984375 -8.011719 L 0.984375 -3.78125 C 0.984375 -0.949219 3.636719 0.269531 5.769531 0.269531 C 7.902344 0.269531 10.589844 -0.949219 10.589844 -3.78125 Z M 7.777344 -7.757812 L 7.777344 -4.03125 C 7.777344 -2.886719 6.953125 -2.222656 5.769531 -2.222656 C 4.605469 -2.222656 3.78125 -2.886719 3.78125 -4.03125 L 3.78125 -7.757812 C 3.78125 -8.90625 4.605469 -9.570312 5.769531 -9.570312 C 6.953125 -9.570312 7.777344 -8.90625 7.777344 -7.757812 Z M 7.777344 -7.757812 "/></g></g></g><g fill="rgb(0%, 0%, 0%)" fill-opacity="1"><g transform="translate(304.269764, 293.114096)"><g/></g></g><g fill="rgb(0%, 0%, 0%)" fill-opacity="1"><g transform="translate(311.490409, 293.114096)"><g><path d="M 10.410156 -3.496094 C 10.410156 -3.925781 10.269531 -4.105469 9.875 -4.105469 L 8.117188 -4.105469 C 7.722656 -4.105469 7.6875 -3.816406 7.632812 -3.457031 C 7.492188 -2.597656 6.71875 -2.238281 5.753906 -2.238281 C 4.570312 -2.238281 3.761719 -2.886719 3.761719 -4.03125 L 3.761719 -7.757812 C 3.761719 -8.886719 4.570312 -9.550781 5.753906 -9.550781 C 6.71875 -9.550781 7.222656 -9.28125 7.597656 -8.691406 C 7.742188 -8.476562 7.757812 -8.136719 8.136719 -8.136719 L 9.855469 -8.136719 C 10.269531 -8.136719 10.410156 -8.226562 10.410156 -8.65625 C 10.179688 -10.929688 7.976562 -12.0625 5.753906 -12.0625 C 3.621094 -12.0625 0.949219 -10.824219 0.949219 -8.011719 L 0.949219 -3.78125 C 0.949219 -0.96875 3.621094 0.269531 5.753906 0.269531 C 7.976562 0.269531 10.410156 -1.183594 10.410156 -3.496094 Z M 10.410156 -3.496094 "/></g></g></g><g fill="rgb(0%, 0%, 0%)" fill-opacity="1"><g transform="translate(325.178054, 293.114096)"><g><path d="M 10.589844 -3.78125 L 10.589844 -8.011719 C 10.589844 -10.84375 7.902344 -12.0625 5.769531 -12.0625 C 3.636719 -12.0625 0.984375 -10.84375 0.984375 -8.011719 L 0.984375 -3.78125 C 0.984375 -0.949219 3.636719 0.269531 5.769531 0.269531 C 7.902344 0.269531 10.589844 -0.949219 10.589844 -3.78125 Z M 7.777344 -7.757812 L 7.777344 -4.03125 C 7.777344 -2.886719 6.953125 -2.222656 5.769531 -2.222656 C 4.605469 -2.222656 3.78125 -2.886719 3.78125 -4.03125 L 3.78125 -7.757812 C 3.78125 -8.90625 4.605469 -9.570312 5.769531 -9.570312 C 6.953125 -9.570312 7.777344 -8.90625 7.777344 -7.757812 Z M 7.777344 -7.757812 "/></g></g></g><g fill="rgb(0%, 0%, 0%)" fill-opacity="1"><g transform="translate(339.098588, 293.114096)"><g><path d="M 10.984375 -0.574219 L 8.457031 -4.246094 C 9.570312 -4.625 10.949219 -5.933594 10.949219 -7.8125 C 10.949219 -8.960938 10.574219 -9.980469 9.910156 -10.625 C 9.15625 -11.378906 8.296875 -11.773438 6.34375 -11.773438 L 1.828125 -11.773438 C 1.414062 -11.773438 1.324219 -11.578125 1.324219 -11.253906 L 1.324219 -0.519531 C 1.324219 -0.109375 1.503906 0 1.828125 0 L 3.601562 0 C 3.925781 0 4.121094 -0.109375 4.121094 -0.519531 L 4.121094 -9.265625 L 6.503906 -9.265625 C 7.4375 -9.265625 8.152344 -8.671875 8.152344 -7.742188 C 8.152344 -6.898438 7.328125 -6.289062 6.453125 -6.289062 L 6.09375 -6.289062 C 5.679688 -6.289062 5.574219 -6.09375 5.574219 -5.769531 L 5.574219 -4.335938 C 5.574219 -3.835938 5.609375 -3.636719 5.769531 -3.421875 L 7.707031 -0.539062 C 7.957031 -0.160156 8.171875 0 8.601562 0 L 10.714844 0 C 11.058594 0 11.148438 -0.324219 10.984375 -0.574219 Z M 10.984375 -0.574219 "/></g></g></g><g fill="rgb(0%, 0%, 0%)" fill-opacity="1"><g transform="translate(353.395314, 293.114096)"><g><path d="M 5.878906 -11.792969 L 1.847656 -11.792969 C 1.433594 -11.792969 1.324219 -11.59375 1.324219 -11.273438 L 1.324219 -0.519531 C 1.324219 -0.109375 1.523438 0 1.847656 0 L 3.621094 0 C 3.941406 0 4.140625 -0.109375 4.140625 -0.519531 L 4.140625 -3.496094 L 5.859375 -3.496094 C 8.925781 -3.496094 10.574219 -5.144531 10.574219 -7.632812 C 10.574219 -10.105469 8.960938 -11.792969 5.878906 -11.792969 Z M 5.859375 -5.914062 L 4.140625 -5.914062 L 4.140625 -9.265625 L 5.859375 -9.265625 C 7.257812 -9.265625 7.867188 -8.511719 7.867188 -7.582031 C 7.867188 -6.683594 7.257812 -5.914062 5.859375 -5.914062 Z M 5.859375 -5.914062 "/></g></g></g><g fill="rgb(0%, 0%, 0%)" fill-opacity="1"><g transform="translate(367.011301, 293.114096)"><g><path d="M 10.589844 -3.78125 L 10.589844 -8.011719 C 10.589844 -10.84375 7.902344 -12.0625 5.769531 -12.0625 C 3.636719 -12.0625 0.984375 -10.84375 0.984375 -8.011719 L 0.984375 -3.78125 C 0.984375 -0.949219 3.636719 0.269531 5.769531 0.269531 C 7.902344 0.269531 10.589844 -0.949219 10.589844 -3.78125 Z M 7.777344 -7.757812 L 7.777344 -4.03125 C 7.777344 -2.886719 6.953125 -2.222656 5.769531 -2.222656 C 4.605469 -2.222656 3.78125 -2.886719 3.78125 -4.03125 L 3.78125 -7.757812 C 3.78125 -8.90625 4.605469 -9.570312 5.769531 -9.570312 C 6.953125 -9.570312 7.777344 -8.90625 7.777344 -7.757812 Z M 7.777344 -7.757812 "/></g></g></g><g fill="rgb(0%, 0%, 0%)" fill-opacity="1"><g transform="translate(380.931835, 293.114096)"><g/></g></g><g fill="rgb(0%, 0%, 0%)" fill-opacity="1"><g transform="translate(388.152487, 293.114096)"><g><path d="M 9.875 -2.507812 L 4.15625 -2.507812 L 4.15625 -4.875 L 8.960938 -4.875 C 9.371094 -4.875 9.480469 -5.070312 9.480469 -5.394531 L 9.480469 -6.792969 C 9.480469 -7.113281 9.371094 -7.3125 8.960938 -7.3125 L 4.15625 -7.3125 L 4.15625 -9.265625 L 9.570312 -9.265625 C 9.980469 -9.265625 10.089844 -9.460938 10.089844 -9.785156 L 10.089844 -11.273438 C 10.089844 -11.59375 9.980469 -11.792969 9.570312 -11.792969 L 1.847656 -11.792969 C 1.433594 -11.792969 1.324219 -11.59375 1.324219 -11.273438 L 1.324219 -0.519531 C 1.324219 -0.195312 1.433594 0 1.847656 0 L 9.875 0 C 10.285156 0 10.394531 -0.195312 10.394531 -0.519531 L 10.394531 -1.988281 C 10.394531 -2.3125 10.285156 -2.507812 9.875 -2.507812 Z M 9.875 -2.507812 "/></g></g></g><g fill="rgb(0%, 0%, 0%)" fill-opacity="1"><g transform="translate(222.019458, 318.075519)"><g><path d="M 10.625 -0.84375 L 9.945312 -1.613281 C 10.410156 -2.203125 10.574219 -2.847656 10.574219 -3.761719 L 10.574219 -7.992188 C 10.574219 -10.824219 7.886719 -12.042969 5.753906 -12.042969 C 3.621094 -12.042969 0.96875 -10.824219 0.96875 -7.992188 L 0.96875 -3.761719 C 0.96875 -0.933594 3.621094 0.285156 5.753906 0.285156 C 6.523438 0.285156 7.277344 0.214844 8.027344 -0.109375 L 8.886719 0.769531 C 9.121094 1.003906 9.410156 0.96875 9.695312 0.679688 L 10.554688 -0.0195312 C 10.859375 -0.324219 10.859375 -0.628906 10.625 -0.84375 Z M 7.777344 -7.757812 L 7.777344 -4.03125 C 7.777344 -2.886719 6.953125 -2.222656 5.769531 -2.222656 C 4.605469 -2.222656 3.78125 -2.886719 3.78125 -4.03125 L 3.78125 -7.757812 C 3.78125 -8.90625 4.605469 -9.570312 5.769531 -9.570312 C 6.953125 -9.570312 7.777344 -8.90625 7.777344 -7.757812 Z M 7.777344 -7.757812 "/></g></g></g><g fill="rgb(0%, 0%, 0%)" fill-opacity="1"><g transform="translate(235.957905, 318.075519)"><g><path d="M 10.144531 -11.792969 L 8.367188 -11.792969 C 8.046875 -11.792969 7.847656 -11.683594 7.847656 -11.273438 L 7.847656 -3.996094 C 7.847656 -2.867188 7.097656 -2.222656 5.914062 -2.222656 C 4.730469 -2.222656 3.996094 -2.867188 3.996094 -3.996094 L 3.996094 -11.273438 C 3.996094 -11.683594 3.800781 -11.792969 3.476562 -11.792969 L 1.703125 -11.792969 C 1.378906 -11.792969 1.183594 -11.683594 1.183594 -11.273438 L 1.183594 -3.601562 C 1.183594 -0.789062 3.78125 0.269531 5.914062 0.269531 C 8.046875 0.269531 10.664062 -0.789062 10.664062 -3.601562 L 10.664062 -11.273438 C 10.664062 -11.683594 10.464844 -11.792969 10.144531 -11.792969 Z M 10.144531 -11.792969 "/></g></g></g><g fill="rgb(0%, 0%, 0%)" fill-opacity="1"><g transform="translate(250.165057, 318.075519)"><g><path d="M 9.875 -2.507812 L 4.15625 -2.507812 L 4.15625 -4.875 L 8.960938 -4.875 C 9.371094 -4.875 9.480469 -5.070312 9.480469 -5.394531 L 9.480469 -6.792969 C 9.480469 -7.113281 9.371094 -7.3125 8.960938 -7.3125 L 4.15625 -7.3125 L 4.15625 -9.265625 L 9.570312 -9.265625 C 9.980469 -9.265625 10.089844 -9.460938 10.089844 -9.785156 L 10.089844 -11.273438 C 10.089844 -11.59375 9.980469 -11.792969 9.570312 -11.792969 L 1.847656 -11.792969 C 1.433594 -11.792969 1.324219 -11.59375 1.324219 -11.273438 L 1.324219 -0.519531 C 1.324219 -0.195312 1.433594 0 1.847656 0 L 9.875 0 C 10.285156 0 10.394531 -0.195312 10.394531 -0.519531 L 10.394531 -1.988281 C 10.394531 -2.3125 10.285156 -2.507812 9.875 -2.507812 Z M 9.875 -2.507812 "/></g></g></g><g fill="rgb(0%, 0%, 0%)" fill-opacity="1"><g transform="translate(263.763126, 318.075519)"><g/></g></g><g fill="rgb(0%, 0%, 0%)" fill-opacity="1"><g transform="translate(270.983777, 318.075519)"><g><path d="M 9.875 -2.507812 L 4.15625 -2.507812 L 4.15625 -4.875 L 8.960938 -4.875 C 9.371094 -4.875 9.480469 -5.070312 9.480469 -5.394531 L 9.480469 -6.792969 C 9.480469 -7.113281 9.371094 -7.3125 8.960938 -7.3125 L 4.15625 -7.3125 L 4.15625 -9.265625 L 9.570312 -9.265625 C 9.980469 -9.265625 10.089844 -9.460938 10.089844 -9.785156 L 10.089844 -11.273438 C 10.089844 -11.59375 9.980469 -11.792969 9.570312 -11.792969 L 1.847656 -11.792969 C 1.433594 -11.792969 1.324219 -11.59375 1.324219 -11.273438 L 1.324219 -0.519531 C 1.324219 -0.195312 1.433594 0 1.847656 0 L 9.875 0 C 10.285156 0 10.394531 -0.195312 10.394531 -0.519531 L 10.394531 -1.988281 C 10.394531 -2.3125 10.285156 -2.507812 9.875 -2.507812 Z M 9.875 -2.507812 "/></g></g></g><g fill="rgb(0%, 0%, 0%)" fill-opacity="1"><g transform="translate(284.58185, 318.075519)"><g><path d="M 9.300781 -2.507812 L 4.140625 -2.507812 L 4.140625 -11.273438 C 4.140625 -11.683594 3.941406 -11.792969 3.621094 -11.792969 L 1.847656 -11.792969 C 1.523438 -11.792969 1.324219 -11.683594 1.324219 -11.273438 L 1.324219 -0.519531 C 1.324219 -0.195312 1.433594 0 1.847656 0 L 9.300781 0 C 9.714844 0 9.820312 -0.195312 9.820312 -0.519531 L 9.820312 -1.988281 C 9.820312 -2.3125 9.714844 -2.507812 9.300781 -2.507812 Z M 9.300781 -2.507812 "/></g></g></g><g fill="rgb(0%, 0%, 0%)" fill-opacity="1"><g transform="translate(297.373793, 318.075519)"><g><path d="M 11.46875 -0.5 L 7.507812 -11.234375 C 7.347656 -11.613281 7.167969 -11.792969 6.773438 -11.792969 L 5.054688 -11.792969 C 4.660156 -11.792969 4.460938 -11.613281 4.320312 -11.234375 L 0.339844 -0.5 C 0.25 -0.285156 0.25 0 0.644531 0 L 2.527344 0 C 2.921875 0 3.0625 -0.109375 3.207031 -0.539062 L 3.710938 -1.953125 L 8.101562 -1.953125 L 8.601562 -0.539062 C 8.746094 -0.109375 8.886719 0 9.28125 0 L 11.164062 0 C 11.558594 0 11.558594 -0.285156 11.46875 -0.5 Z M 5.914062 -8.421875 L 7.257812 -4.460938 L 4.570312 -4.460938 Z M 5.914062 -8.421875 "/></g></g></g><g fill="rgb(0%, 0%, 0%)" fill-opacity="1"><g transform="translate(311.473473, 318.075519)"><g><path d="M 6.882812 -6.84375 C 6.164062 -7.132812 3.53125 -7.527344 3.53125 -8.621094 C 3.53125 -9.425781 4.515625 -9.660156 5.105469 -9.660156 C 5.644531 -9.660156 6.289062 -9.496094 6.628906 -9.175781 C 6.84375 -8.960938 6.933594 -8.816406 7.007812 -8.636719 C 7.097656 -8.40625 7.148438 -8.152344 7.492188 -8.152344 L 9.246094 -8.152344 C 9.660156 -8.152344 9.765625 -8.226562 9.765625 -8.65625 C 9.765625 -11.019531 7.277344 -12.0625 5 -12.0625 C 2.761719 -11.972656 0.644531 -10.824219 0.644531 -8.496094 C 0.644531 -6.21875 2.3125 -5.5 4.121094 -4.929688 C 5.644531 -4.445312 7.238281 -4.425781 7.238281 -3.421875 C 7.238281 -2.417969 6.453125 -2.203125 5.484375 -2.203125 C 4.820312 -2.203125 4.085938 -2.367188 3.726562 -2.796875 C 3.496094 -3.0625 3.40625 -3.296875 3.386719 -3.53125 C 3.351562 -3.976562 3.152344 -4.03125 2.742188 -4.03125 L 1.003906 -4.03125 C 0.589844 -4.03125 0.484375 -3.941406 0.484375 -3.53125 C 0.484375 -1.019531 3.0625 0.269531 5.304688 0.269531 C 8.0625 0.269531 10.070312 -0.949219 10.070312 -3.496094 C 10.070312 -5.933594 8.171875 -6.453125 6.882812 -6.84375 Z M 6.882812 -6.84375 "/></g></g></g><g fill="rgb(0%, 0%, 0%)" fill-opacity="1"><g transform="translate(324.677438, 318.075519)"><g/></g></g><g fill="rgb(0%, 0%, 0%)" fill-opacity="1"><g transform="translate(331.89809, 318.075519)"><g/></g></g><g fill="rgb(0%, 0%, 0%)" fill-opacity="1"><g transform="translate(339.118735, 318.075519)"><g><path d="M 6.882812 -6.84375 C 6.164062 -7.132812 3.53125 -7.527344 3.53125 -8.621094 C 3.53125 -9.425781 4.515625 -9.660156 5.105469 -9.660156 C 5.644531 -9.660156 6.289062 -9.496094 6.628906 -9.175781 C 6.84375 -8.960938 6.933594 -8.816406 7.007812 -8.636719 C 7.097656 -8.40625 7.148438 -8.152344 7.492188 -8.152344 L 9.246094 -8.152344 C 9.660156 -8.152344 9.765625 -8.226562 9.765625 -8.65625 C 9.765625 -11.019531 7.277344 -12.0625 5 -12.0625 C 2.761719 -11.972656 0.644531 -10.824219 0.644531 -8.496094 C 0.644531 -6.21875 2.3125 -5.5 4.121094 -4.929688 C 5.644531 -4.445312 7.238281 -4.425781 7.238281 -3.421875 C 7.238281 -2.417969 6.453125 -2.203125 5.484375 -2.203125 C 4.820312 -2.203125 4.085938 -2.367188 3.726562 -2.796875 C 3.496094 -3.0625 3.40625 -3.296875 3.386719 -3.53125 C 3.351562 -3.976562 3.152344 -4.03125 2.742188 -4.03125 L 1.003906 -4.03125 C 0.589844 -4.03125 0.484375 -3.941406 0.484375 -3.53125 C 0.484375 -1.019531 3.0625 0.269531 5.304688 0.269531 C 8.0625 0.269531 10.070312 -0.949219 10.070312 -3.496094 C 10.070312 -5.933594 8.171875 -6.453125 6.882812 -6.84375 Z M 6.882812 -6.84375 "/></g></g></g><g fill="rgb(0%, 0%, 0%)" fill-opacity="1"><g transform="translate(352.3227, 318.075519)"><g><path d="M 9.175781 -15.179688 L 8.351562 -15.179688 C 8.027344 -15.179688 7.957031 -15.035156 7.902344 -14.855469 C 7.796875 -14.496094 7.507812 -14.40625 7.277344 -14.445312 C 7.0625 -14.480469 6.003906 -14.855469 6.003906 -14.855469 C 5.609375 -15 5.019531 -15.179688 4.550781 -15.179688 C 3.386719 -15.179688 2.617188 -14.265625 2.617188 -13.207031 L 2.617188 -13.191406 C 2.617188 -13.082031 2.617188 -12.832031 2.832031 -12.832031 L 3.65625 -12.832031 C 3.976562 -12.832031 4.050781 -12.972656 4.105469 -13.152344 C 4.210938 -13.511719 4.5 -13.601562 4.730469 -13.566406 C 4.945312 -13.53125 6.003906 -13.152344 6.003906 -13.152344 C 6.398438 -13.011719 6.988281 -12.832031 7.453125 -12.832031 C 8.621094 -12.832031 9.390625 -13.746094 9.390625 -14.800781 L 9.390625 -14.820312 C 9.390625 -14.929688 9.390625 -15.179688 9.175781 -15.179688 Z M 11.46875 -0.5 L 7.507812 -11.234375 C 7.347656 -11.613281 7.167969 -11.792969 6.773438 -11.792969 L 5.054688 -11.792969 C 4.660156 -11.792969 4.460938 -11.613281 4.320312 -11.234375 L 0.339844 -0.5 C 0.25 -0.285156 0.25 0 0.644531 0 L 2.527344 0 C 2.921875 0 3.0625 -0.109375 3.207031 -0.539062 L 3.710938 -1.953125 L 8.101562 -1.953125 L 8.601562 -0.539062 C 8.746094 -0.109375 8.886719 0 9.28125 0 L 11.164062 0 C 11.558594 0 11.558594 -0.285156 11.46875 -0.5 Z M 5.914062 -8.421875 L 7.257812 -4.460938 L 4.570312 -4.460938 Z M 5.914062 -8.421875 "/></g></g></g><g fill="rgb(0%, 0%, 0%)" fill-opacity="1"><g transform="translate(366.42238, 318.075519)"><g><path d="M 10.589844 -3.78125 L 10.589844 -8.011719 C 10.589844 -10.84375 7.902344 -12.0625 5.769531 -12.0625 C 3.636719 -12.0625 0.984375 -10.84375 0.984375 -8.011719 L 0.984375 -3.78125 C 0.984375 -0.949219 3.636719 0.269531 5.769531 0.269531 C 7.902344 0.269531 10.589844 -0.949219 10.589844 -3.78125 Z M 7.777344 -7.757812 L 7.777344 -4.03125 C 7.777344 -2.886719 6.953125 -2.222656 5.769531 -2.222656 C 4.605469 -2.222656 3.78125 -2.886719 3.78125 -4.03125 L 3.78125 -7.757812 C 3.78125 -8.90625 4.605469 -9.570312 5.769531 -9.570312 C 6.953125 -9.570312 7.777344 -8.90625 7.777344 -7.757812 Z M 7.777344 -7.757812 "/></g></g></g><g fill="rgb(0%, 0%, 0%)" fill-opacity="1"><g transform="translate(184.994244, 343.036942)"><g><path d="M 10.375 -11.792969 L 8.65625 -11.792969 C 8.332031 -11.792969 8.136719 -11.683594 8.136719 -11.273438 L 8.136719 -5.054688 L 4.335938 -11.183594 C 4.105469 -11.539062 3.976562 -11.792969 3.53125 -11.792969 L 1.847656 -11.792969 C 1.433594 -11.792969 1.324219 -11.59375 1.324219 -11.273438 L 1.324219 -0.519531 C 1.324219 -0.109375 1.523438 0 1.847656 0 L 3.621094 0 C 3.941406 0 4.140625 -0.109375 4.140625 -0.519531 L 4.140625 -6.757812 L 7.9375 -0.609375 C 8.171875 -0.25 8.296875 0 8.746094 0 L 10.375 0 C 10.789062 0 10.894531 -0.195312 10.894531 -0.519531 L 10.894531 -11.273438 C 10.894531 -11.683594 10.699219 -11.792969 10.375 -11.792969 Z M 10.375 -11.792969 "/></g></g></g><g fill="rgb(0%, 0%, 0%)" fill-opacity="1"><g transform="translate(199.577602, 343.036942)"><g><path d="M 9.875 -2.507812 L 4.15625 -2.507812 L 4.15625 -4.875 L 8.960938 -4.875 C 9.371094 -4.875 9.480469 -5.070312 9.480469 -5.394531 L 9.480469 -6.792969 C 9.480469 -7.113281 9.371094 -7.3125 8.960938 -7.3125 L 4.15625 -7.3125 L 4.15625 -9.265625 L 9.570312 -9.265625 C 9.980469 -9.265625 10.089844 -9.460938 10.089844 -9.785156 L 10.089844 -11.273438 C 10.089844 -11.59375 9.980469 -11.792969 9.570312 -11.792969 L 1.847656 -11.792969 C 1.433594 -11.792969 1.324219 -11.59375 1.324219 -11.273438 L 1.324219 -0.519531 C 1.324219 -0.195312 1.433594 0 1.847656 0 L 9.875 0 C 10.285156 0 10.394531 -0.195312 10.394531 -0.519531 L 10.394531 -1.988281 C 10.394531 -2.3125 10.285156 -2.507812 9.875 -2.507812 Z M 9.875 -2.507812 "/></g></g></g><g fill="rgb(0%, 0%, 0%)" fill-opacity="1"><g transform="translate(213.175672, 343.036942)"><g><path d="M 10.410156 -3.496094 C 10.410156 -3.925781 10.269531 -4.105469 9.875 -4.105469 L 8.117188 -4.105469 C 7.722656 -4.105469 7.6875 -3.816406 7.632812 -3.457031 C 7.492188 -2.597656 6.71875 -2.238281 5.753906 -2.238281 C 4.570312 -2.238281 3.761719 -2.886719 3.761719 -4.03125 L 3.761719 -7.757812 C 3.761719 -8.886719 4.570312 -9.550781 5.753906 -9.550781 C 6.71875 -9.550781 7.222656 -9.28125 7.597656 -8.691406 C 7.742188 -8.476562 7.757812 -8.136719 8.136719 -8.136719 L 9.855469 -8.136719 C 10.269531 -8.136719 10.410156 -8.226562 10.410156 -8.65625 C 10.179688 -10.929688 7.976562 -12.0625 5.753906 -12.0625 C 3.621094 -12.0625 0.949219 -10.824219 0.949219 -8.011719 L 0.949219 -3.78125 C 0.949219 -0.96875 3.621094 0.269531 5.753906 0.269531 C 7.976562 0.269531 10.410156 -1.183594 10.410156 -3.496094 Z M 10.410156 -3.496094 "/></g></g></g><g fill="rgb(0%, 0%, 0%)" fill-opacity="1"><g transform="translate(226.863314, 343.036942)"><g><path d="M 9.875 -2.507812 L 4.15625 -2.507812 L 4.15625 -4.875 L 8.960938 -4.875 C 9.371094 -4.875 9.480469 -5.070312 9.480469 -5.394531 L 9.480469 -6.792969 C 9.480469 -7.113281 9.371094 -7.3125 8.960938 -7.3125 L 4.15625 -7.3125 L 4.15625 -9.265625 L 9.570312 -9.265625 C 9.980469 -9.265625 10.089844 -9.460938 10.089844 -9.785156 L 10.089844 -11.273438 C 10.089844 -11.59375 9.980469 -11.792969 9.570312 -11.792969 L 1.847656 -11.792969 C 1.433594 -11.792969 1.324219 -11.59375 1.324219 -11.273438 L 1.324219 -0.519531 C 1.324219 -0.195312 1.433594 0 1.847656 0 L 9.875 0 C 10.285156 0 10.394531 -0.195312 10.394531 -0.519531 L 10.394531 -1.988281 C 10.394531 -2.3125 10.285156 -2.507812 9.875 -2.507812 Z M 9.875 -2.507812 "/></g></g></g><g fill="rgb(0%, 0%, 0%)" fill-opacity="1"><g transform="translate(240.461386, 343.036942)"><g><path d="M 6.882812 -6.84375 C 6.164062 -7.132812 3.53125 -7.527344 3.53125 -8.621094 C 3.53125 -9.425781 4.515625 -9.660156 5.105469 -9.660156 C 5.644531 -9.660156 6.289062 -9.496094 6.628906 -9.175781 C 6.84375 -8.960938 6.933594 -8.816406 7.007812 -8.636719 C 7.097656 -8.40625 7.148438 -8.152344 7.492188 -8.152344 L 9.246094 -8.152344 C 9.660156 -8.152344 9.765625 -8.226562 9.765625 -8.65625 C 9.765625 -11.019531 7.277344 -12.0625 5 -12.0625 C 2.761719 -11.972656 0.644531 -10.824219 0.644531 -8.496094 C 0.644531 -6.21875 2.3125 -5.5 4.121094 -4.929688 C 5.644531 -4.445312 7.238281 -4.425781 7.238281 -3.421875 C 7.238281 -2.417969 6.453125 -2.203125 5.484375 -2.203125 C 4.820312 -2.203125 4.085938 -2.367188 3.726562 -2.796875 C 3.496094 -3.0625 3.40625 -3.296875 3.386719 -3.53125 C 3.351562 -3.976562 3.152344 -4.03125 2.742188 -4.03125 L 1.003906 -4.03125 C 0.589844 -4.03125 0.484375 -3.941406 0.484375 -3.53125 C 0.484375 -1.019531 3.0625 0.269531 5.304688 0.269531 C 8.0625 0.269531 10.070312 -0.949219 10.070312 -3.496094 C 10.070312 -5.933594 8.171875 -6.453125 6.882812 -6.84375 Z M 6.882812 -6.84375 "/></g></g></g><g fill="rgb(0%, 0%, 0%)" fill-opacity="1"><g transform="translate(253.665351, 343.036942)"><g><path d="M 6.882812 -6.84375 C 6.164062 -7.132812 3.53125 -7.527344 3.53125 -8.621094 C 3.53125 -9.425781 4.515625 -9.660156 5.105469 -9.660156 C 5.644531 -9.660156 6.289062 -9.496094 6.628906 -9.175781 C 6.84375 -8.960938 6.933594 -8.816406 7.007812 -8.636719 C 7.097656 -8.40625 7.148438 -8.152344 7.492188 -8.152344 L 9.246094 -8.152344 C 9.660156 -8.152344 9.765625 -8.226562 9.765625 -8.65625 C 9.765625 -11.019531 7.277344 -12.0625 5 -12.0625 C 2.761719 -11.972656 0.644531 -10.824219 0.644531 -8.496094 C 0.644531 -6.21875 2.3125 -5.5 4.121094 -4.929688 C 5.644531 -4.445312 7.238281 -4.425781 7.238281 -3.421875 C 7.238281 -2.417969 6.453125 -2.203125 5.484375 -2.203125 C 4.820312 -2.203125 4.085938 -2.367188 3.726562 -2.796875 C 3.496094 -3.0625 3.40625 -3.296875 3.386719 -3.53125 C 3.351562 -3.976562 3.152344 -4.03125 2.742188 -4.03125 L 1.003906 -4.03125 C 0.589844 -4.03125 0.484375 -3.941406 0.484375 -3.53125 C 0.484375 -1.019531 3.0625 0.269531 5.304688 0.269531 C 8.0625 0.269531 10.070312 -0.949219 10.070312 -3.496094 C 10.070312 -5.933594 8.171875 -6.453125 6.882812 -6.84375 Z M 6.882812 -6.84375 "/></g></g></g><g fill="rgb(0%, 0%, 0%)" fill-opacity="1"><g transform="translate(266.869316, 343.036942)"><g><path d="M 5.089844 -12.832031 L 6.84375 -12.832031 C 7.292969 -12.832031 7.4375 -13.082031 7.6875 -13.332031 L 9.480469 -15.269531 C 9.640625 -15.429688 9.585938 -15.769531 9.140625 -15.769531 L 6.863281 -15.769531 C 6.46875 -15.769531 6.324219 -15.714844 6.058594 -15.269531 L 4.855469 -13.332031 C 4.75 -13.171875 4.75 -12.832031 5.089844 -12.832031 Z M 11.46875 -0.5 L 7.507812 -11.234375 C 7.347656 -11.613281 7.167969 -11.792969 6.773438 -11.792969 L 5.054688 -11.792969 C 4.660156 -11.792969 4.460938 -11.613281 4.320312 -11.234375 L 0.339844 -0.5 C 0.25 -0.285156 0.25 0 0.644531 0 L 2.527344 0 C 2.921875 0 3.0625 -0.109375 3.207031 -0.539062 L 3.710938 -1.953125 L 8.101562 -1.953125 L 8.601562 -0.539062 C 8.746094 -0.109375 8.886719 0 9.28125 0 L 11.164062 0 C 11.558594 0 11.558594 -0.285156 11.46875 -0.5 Z M 5.914062 -8.421875 L 7.257812 -4.460938 L 4.570312 -4.460938 Z M 5.914062 -8.421875 "/></g></g></g><g fill="rgb(0%, 0%, 0%)" fill-opacity="1"><g transform="translate(280.968996, 343.036942)"><g><path d="M 10.984375 -0.574219 L 8.457031 -4.246094 C 9.570312 -4.625 10.949219 -5.933594 10.949219 -7.8125 C 10.949219 -8.960938 10.574219 -9.980469 9.910156 -10.625 C 9.15625 -11.378906 8.296875 -11.773438 6.34375 -11.773438 L 1.828125 -11.773438 C 1.414062 -11.773438 1.324219 -11.578125 1.324219 -11.253906 L 1.324219 -0.519531 C 1.324219 -0.109375 1.503906 0 1.828125 0 L 3.601562 0 C 3.925781 0 4.121094 -0.109375 4.121094 -0.519531 L 4.121094 -9.265625 L 6.503906 -9.265625 C 7.4375 -9.265625 8.152344 -8.671875 8.152344 -7.742188 C 8.152344 -6.898438 7.328125 -6.289062 6.453125 -6.289062 L 6.09375 -6.289062 C 5.679688 -6.289062 5.574219 -6.09375 5.574219 -5.769531 L 5.574219 -4.335938 C 5.574219 -3.835938 5.609375 -3.636719 5.769531 -3.421875 L 7.707031 -0.539062 C 7.957031 -0.160156 8.171875 0 8.601562 0 L 10.714844 0 C 11.058594 0 11.148438 -0.324219 10.984375 -0.574219 Z M 10.984375 -0.574219 "/></g></g></g><g fill="rgb(0%, 0%, 0%)" fill-opacity="1"><g transform="translate(295.265715, 343.036942)"><g><path d="M 6.453125 -2.457031 L 5.324219 -2.457031 L 5.324219 -9.300781 L 6.398438 -9.300781 C 6.808594 -9.300781 6.917969 -9.496094 6.917969 -9.820312 L 6.917969 -11.273438 C 6.917969 -11.59375 6.808594 -11.792969 6.398438 -11.792969 L 1.414062 -11.792969 C 1.003906 -11.792969 0.894531 -11.59375 0.894531 -11.273438 L 0.894531 -9.820312 C 0.894531 -9.496094 1.003906 -9.300781 1.414062 -9.300781 L 2.507812 -9.300781 L 2.507812 -2.457031 L 1.378906 -2.457031 C 0.96875 -2.457031 0.859375 -2.257812 0.859375 -1.933594 L 0.859375 -0.519531 C 0.859375 -0.195312 0.96875 0 1.378906 0 L 6.453125 0 C 6.863281 0 6.972656 -0.195312 6.972656 -0.519531 L 6.972656 -1.933594 C 6.972656 -2.257812 6.863281 -2.457031 6.453125 -2.457031 Z M 6.453125 -2.457031 "/></g></g></g><g fill="rgb(0%, 0%, 0%)" fill-opacity="1"><g transform="translate(305.585505, 343.036942)"><g><path d="M 11.46875 -0.5 L 7.507812 -11.234375 C 7.347656 -11.613281 7.167969 -11.792969 6.773438 -11.792969 L 5.054688 -11.792969 C 4.660156 -11.792969 4.460938 -11.613281 4.320312 -11.234375 L 0.339844 -0.5 C 0.25 -0.285156 0.25 0 0.644531 0 L 2.527344 0 C 2.921875 0 3.0625 -0.109375 3.207031 -0.539062 L 3.710938 -1.953125 L 8.101562 -1.953125 L 8.601562 -0.539062 C 8.746094 -0.109375 8.886719 0 9.28125 0 L 11.164062 0 C 11.558594 0 11.558594 -0.285156 11.46875 -0.5 Z M 5.914062 -8.421875 L 7.257812 -4.460938 L 4.570312 -4.460938 Z M 5.914062 -8.421875 "/></g></g></g><g fill="rgb(0%, 0%, 0%)" fill-opacity="1"><g transform="translate(319.685184, 343.036942)"><g><path d="M 6.882812 -6.84375 C 6.164062 -7.132812 3.53125 -7.527344 3.53125 -8.621094 C 3.53125 -9.425781 4.515625 -9.660156 5.105469 -9.660156 C 5.644531 -9.660156 6.289062 -9.496094 6.628906 -9.175781 C 6.84375 -8.960938 6.933594 -8.816406 7.007812 -8.636719 C 7.097656 -8.40625 7.148438 -8.152344 7.492188 -8.152344 L 9.246094 -8.152344 C 9.660156 -8.152344 9.765625 -8.226562 9.765625 -8.65625 C 9.765625 -11.019531 7.277344 -12.0625 5 -12.0625 C 2.761719 -11.972656 0.644531 -10.824219 0.644531 -8.496094 C 0.644531 -6.21875 2.3125 -5.5 4.121094 -4.929688 C 5.644531 -4.445312 7.238281 -4.425781 7.238281 -3.421875 C 7.238281 -2.417969 6.453125 -2.203125 5.484375 -2.203125 C 4.820312 -2.203125 4.085938 -2.367188 3.726562 -2.796875 C 3.496094 -3.0625 3.40625 -3.296875 3.386719 -3.53125 C 3.351562 -3.976562 3.152344 -4.03125 2.742188 -4.03125 L 1.003906 -4.03125 C 0.589844 -4.03125 0.484375 -3.941406 0.484375 -3.53125 C 0.484375 -1.019531 3.0625 0.269531 5.304688 0.269531 C 8.0625 0.269531 10.070312 -0.949219 10.070312 -3.496094 C 10.070312 -5.933594 8.171875 -6.453125 6.882812 -6.84375 Z M 6.882812 -6.84375 "/></g></g></g><g fill="rgb(0%, 0%, 0%)" fill-opacity="1"><g transform="translate(332.889149, 343.036942)"><g/></g></g><g fill="rgb(0%, 0%, 0%)" fill-opacity="1"><g transform="translate(340.109801, 343.036942)"><g><path d="M 5.878906 -11.792969 L 1.847656 -11.792969 C 1.433594 -11.792969 1.324219 -11.59375 1.324219 -11.273438 L 1.324219 -0.519531 C 1.324219 -0.109375 1.523438 0 1.847656 0 L 3.621094 0 C 3.941406 0 4.140625 -0.109375 4.140625 -0.519531 L 4.140625 -3.496094 L 5.859375 -3.496094 C 8.925781 -3.496094 10.574219 -5.144531 10.574219 -7.632812 C 10.574219 -10.105469 8.960938 -11.792969 5.878906 -11.792969 Z M 5.859375 -5.914062 L 4.140625 -5.914062 L 4.140625 -9.265625 L 5.859375 -9.265625 C 7.257812 -9.265625 7.867188 -8.511719 7.867188 -7.582031 C 7.867188 -6.683594 7.257812 -5.914062 5.859375 -5.914062 Z M 5.859375 -5.914062 "/></g></g></g><g fill="rgb(0%, 0%, 0%)" fill-opacity="1"><g transform="translate(353.725788, 343.036942)"><g><path d="M 11.46875 -0.5 L 7.507812 -11.234375 C 7.347656 -11.613281 7.167969 -11.792969 6.773438 -11.792969 L 5.054688 -11.792969 C 4.660156 -11.792969 4.460938 -11.613281 4.320312 -11.234375 L 0.339844 -0.5 C 0.25 -0.285156 0.25 0 0.644531 0 L 2.527344 0 C 2.921875 0 3.0625 -0.109375 3.207031 -0.539062 L 3.710938 -1.953125 L 8.101562 -1.953125 L 8.601562 -0.539062 C 8.746094 -0.109375 8.886719 0 9.28125 0 L 11.164062 0 C 11.558594 0 11.558594 -0.285156 11.46875 -0.5 Z M 5.914062 -8.421875 L 7.257812 -4.460938 L 4.570312 -4.460938 Z M 5.914062 -8.421875 "/></g></g></g><g fill="rgb(0%, 0%, 0%)" fill-opacity="1"><g transform="translate(367.825467, 343.036942)"><g><path d="M 10.984375 -0.574219 L 8.457031 -4.246094 C 9.570312 -4.625 10.949219 -5.933594 10.949219 -7.8125 C 10.949219 -8.960938 10.574219 -9.980469 9.910156 -10.625 C 9.15625 -11.378906 8.296875 -11.773438 6.34375 -11.773438 L 1.828125 -11.773438 C 1.414062 -11.773438 1.324219 -11.578125 1.324219 -11.253906 L 1.324219 -0.519531 C 1.324219 -0.109375 1.503906 0 1.828125 0 L 3.601562 0 C 3.925781 0 4.121094 -0.109375 4.121094 -0.519531 L 4.121094 -9.265625 L 6.503906 -9.265625 C 7.4375 -9.265625 8.152344 -8.671875 8.152344 -7.742188 C 8.152344 -6.898438 7.328125 -6.289062 6.453125 -6.289062 L 6.09375 -6.289062 C 5.679688 -6.289062 5.574219 -6.09375 5.574219 -5.769531 L 5.574219 -4.335938 C 5.574219 -3.835938 5.609375 -3.636719 5.769531 -3.421875 L 7.707031 -0.539062 C 7.957031 -0.160156 8.171875 0 8.601562 0 L 10.714844 0 C 11.058594 0 11.148438 -0.324219 10.984375 -0.574219 Z M 10.984375 -0.574219 "/></g></g></g><g fill="rgb(0%, 0%, 0%)" fill-opacity="1"><g transform="translate(382.122194, 343.036942)"><g><path d="M 11.46875 -0.5 L 7.507812 -11.234375 C 7.347656 -11.613281 7.167969 -11.792969 6.773438 -11.792969 L 5.054688 -11.792969 C 4.660156 -11.792969 4.460938 -11.613281 4.320312 -11.234375 L 0.339844 -0.5 C 0.25 -0.285156 0.25 0 0.644531 0 L 2.527344 0 C 2.921875 0 3.0625 -0.109375 3.207031 -0.539062 L 3.710938 -1.953125 L 8.101562 -1.953125 L 8.601562 -0.539062 C 8.746094 -0.109375 8.886719 0 9.28125 0 L 11.164062 0 C 11.558594 0 11.558594 -0.285156 11.46875 -0.5 Z M 5.914062 -8.421875 L 7.257812 -4.460938 L 4.570312 -4.460938 Z M 5.914062 -8.421875 "/></g></g></g><g fill="rgb(0%, 0%, 0%)" fill-opacity="1"><g transform="translate(396.221873, 343.036942)"><g/></g></g><g fill="rgb(0%, 0%, 0%)" fill-opacity="1"><g transform="translate(403.442525, 343.036942)"><g><path d="M 10.589844 -3.78125 L 10.589844 -8.011719 C 10.589844 -10.84375 7.902344 -12.0625 5.769531 -12.0625 C 3.636719 -12.0625 0.984375 -10.84375 0.984375 -8.011719 L 0.984375 -3.78125 C 0.984375 -0.949219 3.636719 0.269531 5.769531 0.269531 C 7.902344 0.269531 10.589844 -0.949219 10.589844 -3.78125 Z M 7.777344 -7.757812 L 7.777344 -4.03125 C 7.777344 -2.886719 6.953125 -2.222656 5.769531 -2.222656 C 4.605469 -2.222656 3.78125 -2.886719 3.78125 -4.03125 L 3.78125 -7.757812 C 3.78125 -8.90625 4.605469 -9.570312 5.769531 -9.570312 C 6.953125 -9.570312 7.777344 -8.90625 7.777344 -7.757812 Z M 7.777344 -7.757812 "/></g></g></g><g fill="rgb(0%, 0%, 0%)" fill-opacity="1"><g transform="translate(193.89751, 367.998365)"><g><path d="M 9.550781 -11.792969 L 1.847656 -11.792969 C 1.433594 -11.792969 1.324219 -11.59375 1.324219 -11.273438 L 1.324219 -0.519531 C 1.324219 -0.195312 1.433594 0 1.847656 0 L 3.621094 0 C 4.03125 0 4.140625 -0.0703125 4.140625 -0.539062 L 4.140625 -4.730469 L 8.800781 -4.730469 C 9.210938 -4.730469 9.320312 -4.929688 9.320312 -5.25 L 9.320312 -6.667969 C 9.320312 -6.988281 9.210938 -7.1875 8.800781 -7.1875 L 4.140625 -7.1875 L 4.140625 -9.28125 L 9.550781 -9.28125 C 9.964844 -9.28125 10.070312 -9.480469 10.070312 -9.800781 L 10.070312 -11.273438 C 10.070312 -11.59375 9.964844 -11.792969 9.550781 -11.792969 Z M 9.550781 -11.792969 "/></g></g></g><g fill="rgb(0%, 0%, 0%)" fill-opacity="1"><g transform="translate(207.04773, 367.998365)"><g><path d="M 10.144531 -11.792969 L 8.367188 -11.792969 C 8.046875 -11.792969 7.847656 -11.683594 7.847656 -11.273438 L 7.847656 -3.996094 C 7.847656 -2.867188 7.097656 -2.222656 5.914062 -2.222656 C 4.730469 -2.222656 3.996094 -2.867188 3.996094 -3.996094 L 3.996094 -11.273438 C 3.996094 -11.683594 3.800781 -11.792969 3.476562 -11.792969 L 1.703125 -11.792969 C 1.378906 -11.792969 1.183594 -11.683594 1.183594 -11.273438 L 1.183594 -3.601562 C 1.183594 -0.789062 3.78125 0.269531 5.914062 0.269531 C 8.046875 0.269531 10.664062 -0.789062 10.664062 -3.601562 L 10.664062 -11.273438 C 10.664062 -11.683594 10.464844 -11.792969 10.144531 -11.792969 Z M 10.144531 -11.792969 "/></g></g></g><g fill="rgb(0%, 0%, 0%)" fill-opacity="1"><g transform="translate(221.254882, 367.998365)"><g><path d="M 10.375 -11.792969 L 8.65625 -11.792969 C 8.332031 -11.792969 8.136719 -11.683594 8.136719 -11.273438 L 8.136719 -5.054688 L 4.335938 -11.183594 C 4.105469 -11.539062 3.976562 -11.792969 3.53125 -11.792969 L 1.847656 -11.792969 C 1.433594 -11.792969 1.324219 -11.59375 1.324219 -11.273438 L 1.324219 -0.519531 C 1.324219 -0.109375 1.523438 0 1.847656 0 L 3.621094 0 C 3.941406 0 4.140625 -0.109375 4.140625 -0.519531 L 4.140625 -6.757812 L 7.9375 -0.609375 C 8.171875 -0.25 8.296875 0 8.746094 0 L 10.375 0 C 10.789062 0 10.894531 -0.195312 10.894531 -0.519531 L 10.894531 -11.273438 C 10.894531 -11.683594 10.699219 -11.792969 10.375 -11.792969 Z M 10.375 -11.792969 "/></g></g></g><g fill="rgb(0%, 0%, 0%)" fill-opacity="1"><g transform="translate(235.838238, 367.998365)"><g><path d="M 10.410156 -3.496094 C 10.410156 -3.925781 10.269531 -4.105469 9.875 -4.105469 L 8.117188 -4.105469 C 7.722656 -4.105469 7.6875 -3.816406 7.632812 -3.457031 C 7.492188 -2.597656 6.71875 -2.238281 5.753906 -2.238281 C 4.570312 -2.238281 3.761719 -2.886719 3.761719 -4.03125 L 3.761719 -7.757812 C 3.761719 -8.886719 4.570312 -9.550781 5.753906 -9.550781 C 6.71875 -9.550781 7.222656 -9.28125 7.597656 -8.691406 C 7.742188 -8.476562 7.757812 -8.136719 8.136719 -8.136719 L 9.855469 -8.136719 C 10.269531 -8.136719 10.410156 -8.226562 10.410156 -8.65625 C 10.179688 -10.929688 7.976562 -12.0625 5.753906 -12.0625 C 3.621094 -12.0625 0.949219 -10.824219 0.949219 -8.011719 L 0.949219 -3.78125 C 0.949219 -0.96875 3.621094 0.269531 5.753906 0.269531 C 7.976562 0.269531 10.410156 -1.183594 10.410156 -3.496094 Z M 10.410156 -3.496094 "/></g></g></g><g fill="rgb(0%, 0%, 0%)" fill-opacity="1"><g transform="translate(249.525883, 367.998365)"><g><path d="M 6.453125 -2.457031 L 5.324219 -2.457031 L 5.324219 -9.300781 L 6.398438 -9.300781 C 6.808594 -9.300781 6.917969 -9.496094 6.917969 -9.820312 L 6.917969 -11.273438 C 6.917969 -11.59375 6.808594 -11.792969 6.398438 -11.792969 L 1.414062 -11.792969 C 1.003906 -11.792969 0.894531 -11.59375 0.894531 -11.273438 L 0.894531 -9.820312 C 0.894531 -9.496094 1.003906 -9.300781 1.414062 -9.300781 L 2.507812 -9.300781 L 2.507812 -2.457031 L 1.378906 -2.457031 C 0.96875 -2.457031 0.859375 -2.257812 0.859375 -1.933594 L 0.859375 -0.519531 C 0.859375 -0.195312 0.96875 0 1.378906 0 L 6.453125 0 C 6.863281 0 6.972656 -0.195312 6.972656 -0.519531 L 6.972656 -1.933594 C 6.972656 -2.257812 6.863281 -2.457031 6.453125 -2.457031 Z M 6.453125 -2.457031 "/></g></g></g><g fill="rgb(0%, 0%, 0%)" fill-opacity="1"><g transform="translate(259.845672, 367.998365)"><g><path d="M 10.589844 -3.78125 L 10.589844 -8.011719 C 10.589844 -10.84375 7.902344 -12.0625 5.769531 -12.0625 C 3.636719 -12.0625 0.984375 -10.84375 0.984375 -8.011719 L 0.984375 -3.78125 C 0.984375 -0.949219 3.636719 0.269531 5.769531 0.269531 C 7.902344 0.269531 10.589844 -0.949219 10.589844 -3.78125 Z M 7.777344 -7.757812 L 7.777344 -4.03125 C 7.777344 -2.886719 6.953125 -2.222656 5.769531 -2.222656 C 4.605469 -2.222656 3.78125 -2.886719 3.78125 -4.03125 L 3.78125 -7.757812 C 3.78125 -8.90625 4.605469 -9.570312 5.769531 -9.570312 C 6.953125 -9.570312 7.777344 -8.90625 7.777344 -7.757812 Z M 7.777344 -7.757812 "/></g></g></g><g fill="rgb(0%, 0%, 0%)" fill-opacity="1"><g transform="translate(273.766206, 367.998365)"><g><path d="M 10.375 -11.792969 L 8.65625 -11.792969 C 8.332031 -11.792969 8.136719 -11.683594 8.136719 -11.273438 L 8.136719 -5.054688 L 4.335938 -11.183594 C 4.105469 -11.539062 3.976562 -11.792969 3.53125 -11.792969 L 1.847656 -11.792969 C 1.433594 -11.792969 1.324219 -11.59375 1.324219 -11.273438 L 1.324219 -0.519531 C 1.324219 -0.109375 1.523438 0 1.847656 0 L 3.621094 0 C 3.941406 0 4.140625 -0.109375 4.140625 -0.519531 L 4.140625 -6.757812 L 7.9375 -0.609375 C 8.171875 -0.25 8.296875 0 8.746094 0 L 10.375 0 C 10.789062 0 10.894531 -0.195312 10.894531 -0.519531 L 10.894531 -11.273438 C 10.894531 -11.683594 10.699219 -11.792969 10.375 -11.792969 Z M 10.375 -11.792969 "/></g></g></g><g fill="rgb(0%, 0%, 0%)" fill-opacity="1"><g transform="translate(288.349565, 367.998365)"><g><path d="M 11.46875 -0.5 L 7.507812 -11.234375 C 7.347656 -11.613281 7.167969 -11.792969 6.773438 -11.792969 L 5.054688 -11.792969 C 4.660156 -11.792969 4.460938 -11.613281 4.320312 -11.234375 L 0.339844 -0.5 C 0.25 -0.285156 0.25 0 0.644531 0 L 2.527344 0 C 2.921875 0 3.0625 -0.109375 3.207031 -0.539062 L 3.710938 -1.953125 L 8.101562 -1.953125 L 8.601562 -0.539062 C 8.746094 -0.109375 8.886719 0 9.28125 0 L 11.164062 0 C 11.558594 0 11.558594 -0.285156 11.46875 -0.5 Z M 5.914062 -8.421875 L 7.257812 -4.460938 L 4.570312 -4.460938 Z M 5.914062 -8.421875 "/></g></g></g><g fill="rgb(0%, 0%, 0%)" fill-opacity="1"><g transform="translate(302.449245, 367.998365)"><g><path d="M 11.898438 -11.808594 L 10.179688 -11.808594 C 9.585938 -11.808594 9.496094 -11.414062 9.371094 -11.199219 L 6.898438 -6.792969 L 4.445312 -11.199219 C 4.300781 -11.414062 4.230469 -11.808594 3.621094 -11.808594 L 1.847656 -11.808594 C 1.433594 -11.808594 1.324219 -11.613281 1.324219 -11.289062 L 1.324219 -0.519531 C 1.324219 -0.109375 1.523438 0 1.847656 0 L 3.621094 0 C 3.941406 0 4.140625 -0.109375 4.140625 -0.519531 L 4.140625 -6.59375 L 5.949219 -3.457031 C 6.039062 -3.316406 6.183594 -3.082031 6.453125 -3.082031 L 7.347656 -3.082031 C 7.617188 -3.082031 7.777344 -3.316406 7.867188 -3.457031 L 9.660156 -6.59375 L 9.660156 -0.519531 C 9.660156 -0.109375 9.855469 0 10.179688 0 L 11.898438 0 C 12.222656 0 12.417969 -0.109375 12.417969 -0.519531 L 12.417969 -11.289062 C 12.417969 -11.613281 12.3125 -11.808594 11.898438 -11.808594 Z M 11.898438 -11.808594 "/></g></g></g><g fill="rgb(0%, 0%, 0%)" fill-opacity="1"><g transform="translate(318.555294, 367.998365)"><g><path d="M 9.875 -2.507812 L 4.15625 -2.507812 L 4.15625 -4.875 L 8.960938 -4.875 C 9.371094 -4.875 9.480469 -5.070312 9.480469 -5.394531 L 9.480469 -6.792969 C 9.480469 -7.113281 9.371094 -7.3125 8.960938 -7.3125 L 4.15625 -7.3125 L 4.15625 -9.265625 L 9.570312 -9.265625 C 9.980469 -9.265625 10.089844 -9.460938 10.089844 -9.785156 L 10.089844 -11.273438 C 10.089844 -11.59375 9.980469 -11.792969 9.570312 -11.792969 L 1.847656 -11.792969 C 1.433594 -11.792969 1.324219 -11.59375 1.324219 -11.273438 L 1.324219 -0.519531 C 1.324219 -0.195312 1.433594 0 1.847656 0 L 9.875 0 C 10.285156 0 10.394531 -0.195312 10.394531 -0.519531 L 10.394531 -1.988281 C 10.394531 -2.3125 10.285156 -2.507812 9.875 -2.507812 Z M 9.875 -2.507812 "/></g></g></g><g fill="rgb(0%, 0%, 0%)" fill-opacity="1"><g transform="translate(332.153366, 367.998365)"><g><path d="M 10.375 -11.792969 L 8.65625 -11.792969 C 8.332031 -11.792969 8.136719 -11.683594 8.136719 -11.273438 L 8.136719 -5.054688 L 4.335938 -11.183594 C 4.105469 -11.539062 3.976562 -11.792969 3.53125 -11.792969 L 1.847656 -11.792969 C 1.433594 -11.792969 1.324219 -11.59375 1.324219 -11.273438 L 1.324219 -0.519531 C 1.324219 -0.109375 1.523438 0 1.847656 0 L 3.621094 0 C 3.941406 0 4.140625 -0.109375 4.140625 -0.519531 L 4.140625 -6.757812 L 7.9375 -0.609375 C 8.171875 -0.25 8.296875 0 8.746094 0 L 10.375 0 C 10.789062 0 10.894531 -0.195312 10.894531 -0.519531 L 10.894531 -11.273438 C 10.894531 -11.683594 10.699219 -11.792969 10.375 -11.792969 Z M 10.375 -11.792969 "/></g></g></g><g fill="rgb(0%, 0%, 0%)" fill-opacity="1"><g transform="translate(346.736725, 367.998365)"><g><path d="M 9.300781 -11.792969 L 0.984375 -11.792969 C 0.574219 -11.792969 0.464844 -11.59375 0.464844 -11.273438 L 0.464844 -9.785156 C 0.464844 -9.460938 0.574219 -9.265625 0.984375 -9.265625 L 3.746094 -9.265625 L 3.746094 -0.519531 C 3.746094 -0.109375 3.941406 0 4.265625 0 L 6.039062 0 C 6.363281 0 6.558594 -0.109375 6.558594 -0.519531 L 6.558594 -9.265625 L 9.300781 -9.265625 C 9.714844 -9.265625 9.820312 -9.460938 9.820312 -9.785156 L 9.820312 -11.273438 C 9.820312 -11.59375 9.714844 -11.792969 9.300781 -11.792969 Z M 9.300781 -11.792969 "/></g></g></g><g fill="rgb(0%, 0%, 0%)" fill-opacity="1"><g transform="translate(359.385353, 367.998365)"><g><path d="M 10.589844 -3.78125 L 10.589844 -8.011719 C 10.589844 -10.84375 7.902344 -12.0625 5.769531 -12.0625 C 3.636719 -12.0625 0.984375 -10.84375 0.984375 -8.011719 L 0.984375 -3.78125 C 0.984375 -0.949219 3.636719 0.269531 5.769531 0.269531 C 7.902344 0.269531 10.589844 -0.949219 10.589844 -3.78125 Z M 7.777344 -7.757812 L 7.777344 -4.03125 C 7.777344 -2.886719 6.953125 -2.222656 5.769531 -2.222656 C 4.605469 -2.222656 3.78125 -2.886719 3.78125 -4.03125 L 3.78125 -7.757812 C 3.78125 -8.90625 4.605469 -9.570312 5.769531 -9.570312 C 6.953125 -9.570312 7.777344 -8.90625 7.777344 -7.757812 Z M 7.777344 -7.757812 "/></g></g></g><g fill="rgb(0%, 0%, 0%)" fill-opacity="1"><g transform="translate(380.526539, 367.998365)"><g><path d="M 5.859375 -11.792969 L 1.847656 -11.792969 C 1.433594 -11.792969 1.324219 -11.59375 1.324219 -11.273438 L 1.324219 -0.519531 C 1.324219 -0.195312 1.433594 0 1.847656 0 L 5.859375 0 C 7.992188 0 10.679688 -1.21875 10.679688 -4.03125 L 10.679688 -7.757812 C 10.679688 -10.554688 7.992188 -11.792969 5.859375 -11.792969 Z M 7.867188 -7.507812 L 7.867188 -4.28125 C 7.867188 -3.136719 7.042969 -2.492188 5.859375 -2.492188 L 4.140625 -2.492188 L 4.140625 -9.300781 L 5.859375 -9.300781 C 7.042969 -9.300781 7.867188 -8.636719 7.867188 -7.507812 Z M 7.867188 -7.507812 "/></g></g></g><g fill="rgb(0%, 0%, 0%)" fill-opacity="1"><g transform="translate(394.536645, 367.998365)"><g><path d="M 10.589844 -3.78125 L 10.589844 -8.011719 C 10.589844 -10.84375 7.902344 -12.0625 5.769531 -12.0625 C 3.636719 -12.0625 0.984375 -10.84375 0.984375 -8.011719 L 0.984375 -3.78125 C 0.984375 -0.949219 3.636719 0.269531 5.769531 0.269531 C 7.902344 0.269531 10.589844 -0.949219 10.589844 -3.78125 Z M 7.777344 -7.757812 L 7.777344 -4.03125 C 7.777344 -2.886719 6.953125 -2.222656 5.769531 -2.222656 C 4.605469 -2.222656 3.78125 -2.886719 3.78125 -4.03125 L 3.78125 -7.757812 C 3.78125 -8.90625 4.605469 -9.570312 5.769531 -9.570312 C 6.953125 -9.570312 7.777344 -8.90625 7.777344 -7.757812 Z M 7.777344 -7.757812 "/></g></g></g><g fill="rgb(0%, 0%, 0%)" fill-opacity="1"><g transform="translate(196.896647, 392.959788)"><g><path d="M 10.375 -11.792969 L 8.65625 -11.792969 C 8.332031 -11.792969 8.136719 -11.683594 8.136719 -11.273438 L 8.136719 -5.054688 L 4.335938 -11.183594 C 4.105469 -11.539062 3.976562 -11.792969 3.53125 -11.792969 L 1.847656 -11.792969 C 1.433594 -11.792969 1.324219 -11.59375 1.324219 -11.273438 L 1.324219 -0.519531 C 1.324219 -0.109375 1.523438 0 1.847656 0 L 3.621094 0 C 3.941406 0 4.140625 -0.109375 4.140625 -0.519531 L 4.140625 -6.757812 L 7.9375 -0.609375 C 8.171875 -0.25 8.296875 0 8.746094 0 L 10.375 0 C 10.789062 0 10.894531 -0.195312 10.894531 -0.519531 L 10.894531 -11.273438 C 10.894531 -11.683594 10.699219 -11.792969 10.375 -11.792969 Z M 10.375 -11.792969 "/></g></g></g><g fill="rgb(0%, 0%, 0%)" fill-opacity="1"><g transform="translate(211.480004, 392.959788)"><g><path d="M 10.589844 -3.78125 L 10.589844 -8.011719 C 10.589844 -10.84375 7.902344 -12.0625 5.769531 -12.0625 C 3.636719 -12.0625 0.984375 -10.84375 0.984375 -8.011719 L 0.984375 -3.78125 C 0.984375 -0.949219 3.636719 0.269531 5.769531 0.269531 C 7.902344 0.269531 10.589844 -0.949219 10.589844 -3.78125 Z M 7.777344 -7.757812 L 7.777344 -4.03125 C 7.777344 -2.886719 6.953125 -2.222656 5.769531 -2.222656 C 4.605469 -2.222656 3.78125 -2.886719 3.78125 -4.03125 L 3.78125 -7.757812 C 3.78125 -8.90625 4.605469 -9.570312 5.769531 -9.570312 C 6.953125 -9.570312 7.777344 -8.90625 7.777344 -7.757812 Z M 7.777344 -7.757812 "/></g></g></g><g fill="rgb(0%, 0%, 0%)" fill-opacity="1"><g transform="translate(225.400537, 392.959788)"><g><path d="M 6.882812 -6.84375 C 6.164062 -7.132812 3.53125 -7.527344 3.53125 -8.621094 C 3.53125 -9.425781 4.515625 -9.660156 5.105469 -9.660156 C 5.644531 -9.660156 6.289062 -9.496094 6.628906 -9.175781 C 6.84375 -8.960938 6.933594 -8.816406 7.007812 -8.636719 C 7.097656 -8.40625 7.148438 -8.152344 7.492188 -8.152344 L 9.246094 -8.152344 C 9.660156 -8.152344 9.765625 -8.226562 9.765625 -8.65625 C 9.765625 -11.019531 7.277344 -12.0625 5 -12.0625 C 2.761719 -11.972656 0.644531 -10.824219 0.644531 -8.496094 C 0.644531 -6.21875 2.3125 -5.5 4.121094 -4.929688 C 5.644531 -4.445312 7.238281 -4.425781 7.238281 -3.421875 C 7.238281 -2.417969 6.453125 -2.203125 5.484375 -2.203125 C 4.820312 -2.203125 4.085938 -2.367188 3.726562 -2.796875 C 3.496094 -3.0625 3.40625 -3.296875 3.386719 -3.53125 C 3.351562 -3.976562 3.152344 -4.03125 2.742188 -4.03125 L 1.003906 -4.03125 C 0.589844 -4.03125 0.484375 -3.941406 0.484375 -3.53125 C 0.484375 -1.019531 3.0625 0.269531 5.304688 0.269531 C 8.0625 0.269531 10.070312 -0.949219 10.070312 -3.496094 C 10.070312 -5.933594 8.171875 -6.453125 6.882812 -6.84375 Z M 6.882812 -6.84375 "/></g></g></g><g fill="rgb(0%, 0%, 0%)" fill-opacity="1"><g transform="translate(238.604499, 392.959788)"><g><path d="M 6.882812 -6.84375 C 6.164062 -7.132812 3.53125 -7.527344 3.53125 -8.621094 C 3.53125 -9.425781 4.515625 -9.660156 5.105469 -9.660156 C 5.644531 -9.660156 6.289062 -9.496094 6.628906 -9.175781 C 6.84375 -8.960938 6.933594 -8.816406 7.007812 -8.636719 C 7.097656 -8.40625 7.148438 -8.152344 7.492188 -8.152344 L 9.246094 -8.152344 C 9.660156 -8.152344 9.765625 -8.226562 9.765625 -8.65625 C 9.765625 -11.019531 7.277344 -12.0625 5 -12.0625 C 2.761719 -11.972656 0.644531 -10.824219 0.644531 -8.496094 C 0.644531 -6.21875 2.3125 -5.5 4.121094 -4.929688 C 5.644531 -4.445312 7.238281 -4.425781 7.238281 -3.421875 C 7.238281 -2.417969 6.453125 -2.203125 5.484375 -2.203125 C 4.820312 -2.203125 4.085938 -2.367188 3.726562 -2.796875 C 3.496094 -3.0625 3.40625 -3.296875 3.386719 -3.53125 C 3.351562 -3.976562 3.152344 -4.03125 2.742188 -4.03125 L 1.003906 -4.03125 C 0.589844 -4.03125 0.484375 -3.941406 0.484375 -3.53125 C 0.484375 -1.019531 3.0625 0.269531 5.304688 0.269531 C 8.0625 0.269531 10.070312 -0.949219 10.070312 -3.496094 C 10.070312 -5.933594 8.171875 -6.453125 6.882812 -6.84375 Z M 6.882812 -6.84375 "/></g></g></g><g fill="rgb(0%, 0%, 0%)" fill-opacity="1"><g transform="translate(251.808464, 392.959788)"><g><path d="M 10.589844 -3.78125 L 10.589844 -8.011719 C 10.589844 -10.84375 7.902344 -12.0625 5.769531 -12.0625 C 3.636719 -12.0625 0.984375 -10.84375 0.984375 -8.011719 L 0.984375 -3.78125 C 0.984375 -0.949219 3.636719 0.269531 5.769531 0.269531 C 7.902344 0.269531 10.589844 -0.949219 10.589844 -3.78125 Z M 7.777344 -7.757812 L 7.777344 -4.03125 C 7.777344 -2.886719 6.953125 -2.222656 5.769531 -2.222656 C 4.605469 -2.222656 3.78125 -2.886719 3.78125 -4.03125 L 3.78125 -7.757812 C 3.78125 -8.90625 4.605469 -9.570312 5.769531 -9.570312 C 6.953125 -9.570312 7.777344 -8.90625 7.777344 -7.757812 Z M 7.777344 -7.757812 "/></g></g></g><g fill="rgb(0%, 0%, 0%)" fill-opacity="1"><g transform="translate(265.728998, 392.959788)"><g/></g></g><g fill="rgb(0%, 0%, 0%)" fill-opacity="1"><g transform="translate(272.94965, 392.959788)"><g><path d="M 10.589844 -3.78125 L 10.589844 -8.011719 C 10.589844 -10.84375 7.902344 -12.0625 5.769531 -12.0625 C 3.636719 -12.0625 0.984375 -10.84375 0.984375 -8.011719 L 0.984375 -3.78125 C 0.984375 -0.949219 3.636719 0.269531 5.769531 0.269531 C 7.902344 0.269531 10.589844 -0.949219 10.589844 -3.78125 Z M 7.777344 -7.757812 L 7.777344 -4.03125 C 7.777344 -2.886719 6.953125 -2.222656 5.769531 -2.222656 C 4.605469 -2.222656 3.78125 -2.886719 3.78125 -4.03125 L 3.78125 -7.757812 C 3.78125 -8.90625 4.605469 -9.570312 5.769531 -9.570312 C 6.953125 -9.570312 7.777344 -8.90625 7.777344 -7.757812 Z M 7.777344 -7.757812 "/></g></g></g><g fill="rgb(0%, 0%, 0%)" fill-opacity="1"><g transform="translate(286.870184, 392.959788)"><g><path d="M 10.984375 -0.574219 L 8.457031 -4.246094 C 9.570312 -4.625 10.949219 -5.933594 10.949219 -7.8125 C 10.949219 -8.960938 10.574219 -9.980469 9.910156 -10.625 C 9.15625 -11.378906 8.296875 -11.773438 6.34375 -11.773438 L 1.828125 -11.773438 C 1.414062 -11.773438 1.324219 -11.578125 1.324219 -11.253906 L 1.324219 -0.519531 C 1.324219 -0.109375 1.503906 0 1.828125 0 L 3.601562 0 C 3.925781 0 4.121094 -0.109375 4.121094 -0.519531 L 4.121094 -9.265625 L 6.503906 -9.265625 C 7.4375 -9.265625 8.152344 -8.671875 8.152344 -7.742188 C 8.152344 -6.898438 7.328125 -6.289062 6.453125 -6.289062 L 6.09375 -6.289062 C 5.679688 -6.289062 5.574219 -6.09375 5.574219 -5.769531 L 5.574219 -4.335938 C 5.574219 -3.835938 5.609375 -3.636719 5.769531 -3.421875 L 7.707031 -0.539062 C 7.957031 -0.160156 8.171875 0 8.601562 0 L 10.714844 0 C 11.058594 0 11.148438 -0.324219 10.984375 -0.574219 Z M 10.984375 -0.574219 "/></g></g></g><g fill="rgb(0%, 0%, 0%)" fill-opacity="1"><g transform="translate(301.16691, 392.959788)"><g><path d="M 10.089844 -6.578125 L 6.164062 -6.578125 C 5.753906 -6.578125 5.644531 -6.378906 5.644531 -6.058594 L 5.644531 -4.660156 C 5.644531 -4.335938 5.753906 -4.140625 6.164062 -4.140625 L 7.777344 -4.140625 C 7.777344 -2.761719 6.953125 -2.222656 5.789062 -2.222656 C 4.605469 -2.222656 3.816406 -2.886719 3.816406 -4.03125 L 3.816406 -7.632812 C 3.816406 -8.78125 4.605469 -9.570312 5.789062 -9.570312 C 6.988281 -9.570312 7.632812 -9.03125 7.832031 -8.476562 C 7.921875 -8.226562 7.847656 -7.867188 8.351562 -7.867188 L 10.089844 -7.867188 C 10.5 -7.867188 10.609375 -7.9375 10.609375 -8.367188 C 10.609375 -10.769531 8.027344 -12.0625 5.789062 -12.0625 C 3.671875 -12.0625 0.96875 -10.859375 0.96875 -8.027344 L 0.96875 -3.621094 C 0.96875 -0.804688 3.671875 0.269531 5.789062 0.269531 C 7.832031 0.269531 10.449219 -0.878906 10.609375 -3.457031 L 10.609375 -6.058594 C 10.609375 -6.378906 10.5 -6.578125 10.089844 -6.578125 Z M 10.089844 -6.578125 "/></g></g></g><g fill="rgb(0%, 0%, 0%)" fill-opacity="1"><g transform="translate(315.105352, 392.959788)"><g><path d="M 11.46875 -0.5 L 7.507812 -11.234375 C 7.347656 -11.613281 7.167969 -11.792969 6.773438 -11.792969 L 5.054688 -11.792969 C 4.660156 -11.792969 4.460938 -11.613281 4.320312 -11.234375 L 0.339844 -0.5 C 0.25 -0.285156 0.25 0 0.644531 0 L 2.527344 0 C 2.921875 0 3.0625 -0.109375 3.207031 -0.539062 L 3.710938 -1.953125 L 8.101562 -1.953125 L 8.601562 -0.539062 C 8.746094 -0.109375 8.886719 0 9.28125 0 L 11.164062 0 C 11.558594 0 11.558594 -0.285156 11.46875 -0.5 Z M 5.914062 -8.421875 L 7.257812 -4.460938 L 4.570312 -4.460938 Z M 5.914062 -8.421875 "/></g></g></g><g fill="rgb(0%, 0%, 0%)" fill-opacity="1"><g transform="translate(329.205031, 392.959788)"><g><path d="M 10.375 -11.792969 L 8.65625 -11.792969 C 8.332031 -11.792969 8.136719 -11.683594 8.136719 -11.273438 L 8.136719 -5.054688 L 4.335938 -11.183594 C 4.105469 -11.539062 3.976562 -11.792969 3.53125 -11.792969 L 1.847656 -11.792969 C 1.433594 -11.792969 1.324219 -11.59375 1.324219 -11.273438 L 1.324219 -0.519531 C 1.324219 -0.109375 1.523438 0 1.847656 0 L 3.621094 0 C 3.941406 0 4.140625 -0.109375 4.140625 -0.519531 L 4.140625 -6.757812 L 7.9375 -0.609375 C 8.171875 -0.25 8.296875 0 8.746094 0 L 10.375 0 C 10.789062 0 10.894531 -0.195312 10.894531 -0.519531 L 10.894531 -11.273438 C 10.894531 -11.683594 10.699219 -11.792969 10.375 -11.792969 Z M 10.375 -11.792969 "/></g></g></g><g fill="rgb(0%, 0%, 0%)" fill-opacity="1"><g transform="translate(343.78839, 392.959788)"><g><path d="M 6.453125 -2.457031 L 5.324219 -2.457031 L 5.324219 -9.300781 L 6.398438 -9.300781 C 6.808594 -9.300781 6.917969 -9.496094 6.917969 -9.820312 L 6.917969 -11.273438 C 6.917969 -11.59375 6.808594 -11.792969 6.398438 -11.792969 L 1.414062 -11.792969 C 1.003906 -11.792969 0.894531 -11.59375 0.894531 -11.273438 L 0.894531 -9.820312 C 0.894531 -9.496094 1.003906 -9.300781 1.414062 -9.300781 L 2.507812 -9.300781 L 2.507812 -2.457031 L 1.378906 -2.457031 C 0.96875 -2.457031 0.859375 -2.257812 0.859375 -1.933594 L 0.859375 -0.519531 C 0.859375 -0.195312 0.96875 0 1.378906 0 L 6.453125 0 C 6.863281 0 6.972656 -0.195312 6.972656 -0.519531 L 6.972656 -1.933594 C 6.972656 -2.257812 6.863281 -2.457031 6.453125 -2.457031 Z M 6.453125 -2.457031 "/></g></g></g><g fill="rgb(0%, 0%, 0%)" fill-opacity="1"><g transform="translate(354.10818, 392.959788)"><g><path d="M 6.882812 -6.84375 C 6.164062 -7.132812 3.53125 -7.527344 3.53125 -8.621094 C 3.53125 -9.425781 4.515625 -9.660156 5.105469 -9.660156 C 5.644531 -9.660156 6.289062 -9.496094 6.628906 -9.175781 C 6.84375 -8.960938 6.933594 -8.816406 7.007812 -8.636719 C 7.097656 -8.40625 7.148438 -8.152344 7.492188 -8.152344 L 9.246094 -8.152344 C 9.660156 -8.152344 9.765625 -8.226562 9.765625 -8.65625 C 9.765625 -11.019531 7.277344 -12.0625 5 -12.0625 C 2.761719 -11.972656 0.644531 -10.824219 0.644531 -8.496094 C 0.644531 -6.21875 2.3125 -5.5 4.121094 -4.929688 C 5.644531 -4.445312 7.238281 -4.425781 7.238281 -3.421875 C 7.238281 -2.417969 6.453125 -2.203125 5.484375 -2.203125 C 4.820312 -2.203125 4.085938 -2.367188 3.726562 -2.796875 C 3.496094 -3.0625 3.40625 -3.296875 3.386719 -3.53125 C 3.351562 -3.976562 3.152344 -4.03125 2.742188 -4.03125 L 1.003906 -4.03125 C 0.589844 -4.03125 0.484375 -3.941406 0.484375 -3.53125 C 0.484375 -1.019531 3.0625 0.269531 5.304688 0.269531 C 8.0625 0.269531 10.070312 -0.949219 10.070312 -3.496094 C 10.070312 -5.933594 8.171875 -6.453125 6.882812 -6.84375 Z M 6.882812 -6.84375 "/></g></g></g><g fill="rgb(0%, 0%, 0%)" fill-opacity="1"><g transform="translate(367.312145, 392.959788)"><g><path d="M 11.898438 -11.808594 L 10.179688 -11.808594 C 9.585938 -11.808594 9.496094 -11.414062 9.371094 -11.199219 L 6.898438 -6.792969 L 4.445312 -11.199219 C 4.300781 -11.414062 4.230469 -11.808594 3.621094 -11.808594 L 1.847656 -11.808594 C 1.433594 -11.808594 1.324219 -11.613281 1.324219 -11.289062 L 1.324219 -0.519531 C 1.324219 -0.109375 1.523438 0 1.847656 0 L 3.621094 0 C 3.941406 0 4.140625 -0.109375 4.140625 -0.519531 L 4.140625 -6.59375 L 5.949219 -3.457031 C 6.039062 -3.316406 6.183594 -3.082031 6.453125 -3.082031 L 7.347656 -3.082031 C 7.617188 -3.082031 7.777344 -3.316406 7.867188 -3.457031 L 9.660156 -6.59375 L 9.660156 -0.519531 C 9.660156 -0.109375 9.855469 0 10.179688 0 L 11.898438 0 C 12.222656 0 12.417969 -0.109375 12.417969 -0.519531 L 12.417969 -11.289062 C 12.417969 -11.613281 12.3125 -11.808594 11.898438 -11.808594 Z M 11.898438 -11.808594 "/></g></g></g><g fill="rgb(0%, 0%, 0%)" fill-opacity="1"><g transform="translate(383.418201, 392.959788)"><g><path d="M 10.589844 -3.78125 L 10.589844 -8.011719 C 10.589844 -10.84375 7.902344 -12.0625 5.769531 -12.0625 C 3.636719 -12.0625 0.984375 -10.84375 0.984375 -8.011719 L 0.984375 -3.78125 C 0.984375 -0.949219 3.636719 0.269531 5.769531 0.269531 C 7.902344 0.269531 10.589844 -0.949219 10.589844 -3.78125 Z M 7.777344 -7.757812 L 7.777344 -4.03125 C 7.777344 -2.886719 6.953125 -2.222656 5.769531 -2.222656 C 4.605469 -2.222656 3.78125 -2.886719 3.78125 -4.03125 L 3.78125 -7.757812 C 3.78125 -8.90625 4.605469 -9.570312 5.769531 -9.570312 C 6.953125 -9.570312 7.777344 -8.90625 7.777344 -7.757812 Z M 7.777344 -7.757812 "/></g></g></g><g fill="rgb(0%, 0%, 0%)" fill-opacity="1"><g transform="translate(397.338735, 392.959788)"><g><path d="M 2.527344 -3.710938 L 3.40625 -3.710938 C 3.816406 -3.710938 3.851562 -3.761719 3.90625 -4.230469 C 4.675781 -11.308594 4.695312 -11.363281 4.695312 -11.414062 C 4.695312 -11.738281 4.535156 -11.792969 4.15625 -11.792969 L 1.757812 -11.792969 C 1.398438 -11.792969 1.238281 -11.71875 1.238281 -11.414062 C 1.238281 -11.363281 1.253906 -11.308594 2.007812 -4.230469 C 2.0625 -3.78125 2.097656 -3.710938 2.527344 -3.710938 Z M 3.960938 -3.027344 L 1.972656 -3.027344 C 1.648438 -3.027344 1.453125 -2.921875 1.453125 -2.507812 L 1.453125 -0.519531 C 1.453125 -0.109375 1.648438 0 1.972656 0 L 3.960938 0 C 4.28125 0 4.480469 -0.109375 4.480469 -0.519531 L 4.480469 -2.507812 C 4.480469 -2.921875 4.28125 -3.027344 3.960938 -3.027344 Z M 3.960938 -3.027344 "/></g></g></g></svg>