<svg xmlns="http://www.w3.org/2000/svg" xmlns:xlink="http://www.w3.org/1999/xlink" width="480" zoomAndPan="magnify" viewBox="0 0 360 359.999987" height="480" preserveAspectRatio="xMidYMid meet" version="1.0"><defs><g/></defs><path fill="rgb(50.588989%, 83.139038%, 98.039246%)" d="M 179.835938 0 C 80.515625 0 0 80.515625 0 179.835938 C 0 279.15625 80.515625 359.671875 179.835938 359.671875 C 279.15625 359.671875 359.671875 279.15625 359.671875 179.835938 C 359.671875 80.515625 279.15625 0 179.835938 0 " fill-opacity="1" fill-rule="nonzero"/><g fill="rgb(0%, 0%, 0%)" fill-opacity="1"><g transform="translate(80.206346, 121.162294)"><g><path d="M 10.746094 -12.210938 L 8.964844 -12.210938 C 8.628906 -12.210938 8.425781 -12.101562 8.425781 -11.675781 L 8.425781 -5.234375 L 4.492188 -11.582031 C 4.25 -11.953125 4.121094 -12.210938 3.65625 -12.210938 L 1.910156 -12.210938 C 1.484375 -12.210938 1.375 -12.007812 1.375 -11.675781 L 1.375 -0.539062 C 1.375 -0.113281 1.578125 0 1.910156 0 L 3.75 0 C 4.082031 0 4.289062 -0.113281 4.289062 -0.539062 L 4.289062 -6.996094 L 8.222656 -0.632812 C 8.464844 -0.261719 8.59375 0 9.058594 0 L 10.746094 0 C 11.171875 0 11.285156 -0.203125 11.285156 -0.539062 L 11.285156 -11.675781 C 11.285156 -12.101562 11.082031 -12.210938 10.746094 -12.210938 Z M 10.746094 -12.210938 "/></g></g></g><g fill="rgb(0%, 0%, 0%)" fill-opacity="1"><g transform="translate(95.310551, 121.162294)"><g><path d="M 10.96875 -3.917969 L 10.96875 -8.296875 C 10.96875 -11.230469 8.183594 -12.492188 5.976562 -12.492188 C 3.769531 -12.492188 1.019531 -11.230469 1.019531 -8.296875 L 1.019531 -3.917969 C 1.019531 -0.984375 3.769531 0.277344 5.976562 0.277344 C 8.183594 0.277344 10.96875 -0.984375 10.96875 -3.917969 Z M 8.054688 -8.035156 L 8.054688 -4.175781 C 8.054688 -2.988281 7.203125 -2.300781 5.976562 -2.300781 C 4.769531 -2.300781 3.917969 -2.988281 3.917969 -4.175781 L 3.917969 -8.035156 C 3.917969 -9.226562 4.769531 -9.910156 5.976562 -9.910156 C 7.203125 -9.910156 8.054688 -9.226562 8.054688 -8.035156 Z M 8.054688 -8.035156 "/></g></g></g><g fill="rgb(0%, 0%, 0%)" fill-opacity="1"><g transform="translate(109.728258, 121.162294)"><g><path d="M 7.128906 -7.089844 C 6.386719 -7.386719 3.65625 -7.796875 3.65625 -8.925781 C 3.65625 -9.761719 4.675781 -10.003906 5.289062 -10.003906 C 5.847656 -10.003906 6.515625 -9.835938 6.867188 -9.503906 C 7.089844 -9.28125 7.183594 -9.132812 7.257812 -8.945312 C 7.351562 -8.703125 7.40625 -8.445312 7.757812 -8.445312 L 9.578125 -8.445312 C 10.003906 -8.445312 10.117188 -8.519531 10.117188 -8.964844 C 10.117188 -11.414062 7.535156 -12.492188 5.179688 -12.492188 C 2.859375 -12.398438 0.667969 -11.210938 0.667969 -8.796875 C 0.667969 -6.441406 2.394531 -5.699219 4.269531 -5.105469 C 5.847656 -4.601562 7.5 -4.585938 7.5 -3.546875 C 7.5 -2.503906 6.683594 -2.28125 5.679688 -2.28125 C 4.992188 -2.28125 4.230469 -2.449219 3.859375 -2.894531 C 3.621094 -3.175781 3.527344 -3.414062 3.507812 -3.65625 C 3.472656 -4.121094 3.265625 -4.175781 2.839844 -4.175781 L 1.039062 -4.175781 C 0.613281 -4.175781 0.5 -4.082031 0.5 -3.65625 C 0.5 -1.058594 3.175781 0.277344 5.492188 0.277344 C 8.351562 0.277344 10.429688 -0.984375 10.429688 -3.621094 C 10.429688 -6.144531 8.464844 -6.683594 7.128906 -7.089844 Z M 7.128906 -7.089844 "/></g></g></g><g fill="rgb(0%, 0%, 0%)" fill-opacity="1"><g transform="translate(123.403803, 121.162294)"><g><path d="M 7.128906 -7.089844 C 6.386719 -7.386719 3.65625 -7.796875 3.65625 -8.925781 C 3.65625 -9.761719 4.675781 -10.003906 5.289062 -10.003906 C 5.847656 -10.003906 6.515625 -9.835938 6.867188 -9.503906 C 7.089844 -9.28125 7.183594 -9.132812 7.257812 -8.945312 C 7.351562 -8.703125 7.40625 -8.445312 7.757812 -8.445312 L 9.578125 -8.445312 C 10.003906 -8.445312 10.117188 -8.519531 10.117188 -8.964844 C 10.117188 -11.414062 7.535156 -12.492188 5.179688 -12.492188 C 2.859375 -12.398438 0.667969 -11.210938 0.667969 -8.796875 C 0.667969 -6.441406 2.394531 -5.699219 4.269531 -5.105469 C 5.847656 -4.601562 7.5 -4.585938 7.5 -3.546875 C 7.5 -2.503906 6.683594 -2.28125 5.679688 -2.28125 C 4.992188 -2.28125 4.230469 -2.449219 3.859375 -2.894531 C 3.621094 -3.175781 3.527344 -3.414062 3.507812 -3.65625 C 3.472656 -4.121094 3.265625 -4.175781 2.839844 -4.175781 L 1.039062 -4.175781 C 0.613281 -4.175781 0.5 -4.082031 0.5 -3.65625 C 0.5 -1.058594 3.175781 0.277344 5.492188 0.277344 C 8.351562 0.277344 10.429688 -0.984375 10.429688 -3.621094 C 10.429688 -6.144531 8.464844 -6.683594 7.128906 -7.089844 Z M 7.128906 -7.089844 "/></g></g></g><g fill="rgb(0%, 0%, 0%)" fill-opacity="1"><g transform="translate(137.079351, 121.162294)"><g><path d="M 10.96875 -3.917969 L 10.96875 -8.296875 C 10.96875 -11.230469 8.183594 -12.492188 5.976562 -12.492188 C 3.769531 -12.492188 1.019531 -11.230469 1.019531 -8.296875 L 1.019531 -3.917969 C 1.019531 -0.984375 3.769531 0.277344 5.976562 0.277344 C 8.183594 0.277344 10.96875 -0.984375 10.96875 -3.917969 Z M 8.054688 -8.035156 L 8.054688 -4.175781 C 8.054688 -2.988281 7.203125 -2.300781 5.976562 -2.300781 C 4.769531 -2.300781 3.917969 -2.988281 3.917969 -4.175781 L 3.917969 -8.035156 C 3.917969 -9.226562 4.769531 -9.910156 5.976562 -9.910156 C 7.203125 -9.910156 8.054688 -9.226562 8.054688 -8.035156 Z M 8.054688 -8.035156 "/></g></g></g><g fill="rgb(0%, 0%, 0%)" fill-opacity="1"><g transform="translate(151.497059, 121.162294)"><g/></g></g><g fill="rgb(0%, 0%, 0%)" fill-opacity="1"><g transform="translate(158.975598, 121.162294)"><g><path d="M 10.785156 -3.621094 C 10.785156 -4.066406 10.636719 -4.25 10.226562 -4.25 L 8.40625 -4.25 C 8 -4.25 7.960938 -3.953125 7.90625 -3.582031 C 7.757812 -2.691406 6.960938 -2.320312 5.957031 -2.320312 C 4.734375 -2.320312 3.898438 -2.988281 3.898438 -4.175781 L 3.898438 -8.035156 C 3.898438 -9.207031 4.734375 -9.894531 5.957031 -9.894531 C 6.960938 -9.894531 7.480469 -9.613281 7.871094 -9 C 8.019531 -8.777344 8.035156 -8.425781 8.425781 -8.425781 L 10.207031 -8.425781 C 10.636719 -8.425781 10.785156 -8.519531 10.785156 -8.964844 C 10.542969 -11.320312 8.257812 -12.492188 5.957031 -12.492188 C 3.75 -12.492188 0.984375 -11.210938 0.984375 -8.296875 L 0.984375 -3.917969 C 0.984375 -1.003906 3.75 0.277344 5.957031 0.277344 C 8.257812 0.277344 10.785156 -1.226562 10.785156 -3.621094 Z M 10.785156 -3.621094 "/></g></g></g><g fill="rgb(0%, 0%, 0%)" fill-opacity="1"><g transform="translate(173.1521, 121.162294)"><g><path d="M 10.96875 -3.917969 L 10.96875 -8.296875 C 10.96875 -11.230469 8.183594 -12.492188 5.976562 -12.492188 C 3.769531 -12.492188 1.019531 -11.230469 1.019531 -8.296875 L 1.019531 -3.917969 C 1.019531 -0.984375 3.769531 0.277344 5.976562 0.277344 C 8.183594 0.277344 10.96875 -0.984375 10.96875 -3.917969 Z M 8.054688 -8.035156 L 8.054688 -4.175781 C 8.054688 -2.988281 7.203125 -2.300781 5.976562 -2.300781 C 4.769531 -2.300781 3.917969 -2.988281 3.917969 -4.175781 L 3.917969 -8.035156 C 3.917969 -9.226562 4.769531 -9.910156 5.976562 -9.910156 C 7.203125 -9.910156 8.054688 -9.226562 8.054688 -8.035156 Z M 8.054688 -8.035156 "/></g></g></g><g fill="rgb(0%, 0%, 0%)" fill-opacity="1"><g transform="translate(187.569809, 121.162294)"><g><path d="M 11.378906 -0.59375 L 8.761719 -4.398438 C 9.910156 -4.789062 11.339844 -6.144531 11.339844 -8.09375 C 11.339844 -9.28125 10.949219 -10.339844 10.265625 -11.007812 C 9.484375 -11.785156 8.59375 -12.195312 6.570312 -12.195312 L 1.894531 -12.195312 C 1.464844 -12.195312 1.375 -11.988281 1.375 -11.65625 L 1.375 -0.539062 C 1.375 -0.113281 1.558594 0 1.894531 0 L 3.730469 0 C 4.066406 0 4.269531 -0.113281 4.269531 -0.539062 L 4.269531 -9.597656 L 6.738281 -9.597656 C 7.703125 -9.597656 8.445312 -8.984375 8.445312 -8.019531 C 8.445312 -7.144531 7.589844 -6.515625 6.683594 -6.515625 L 6.3125 -6.515625 C 5.882812 -6.515625 5.773438 -6.3125 5.773438 -5.976562 L 5.773438 -4.492188 C 5.773438 -3.972656 5.808594 -3.769531 5.976562 -3.546875 L 7.980469 -0.558594 C 8.242188 -0.167969 8.464844 0 8.910156 0 L 11.097656 0 C 11.453125 0 11.542969 -0.335938 11.378906 -0.59375 Z M 11.378906 -0.59375 "/></g></g></g><g fill="rgb(0%, 0%, 0%)" fill-opacity="1"><g transform="translate(202.377139, 121.162294)"><g><path d="M 6.085938 -12.210938 L 1.910156 -12.210938 C 1.484375 -12.210938 1.375 -12.007812 1.375 -11.675781 L 1.375 -0.539062 C 1.375 -0.113281 1.578125 0 1.910156 0 L 3.75 0 C 4.082031 0 4.289062 -0.113281 4.289062 -0.539062 L 4.289062 -3.621094 L 6.070312 -3.621094 C 9.242188 -3.621094 10.949219 -5.328125 10.949219 -7.90625 C 10.949219 -10.46875 9.28125 -12.210938 6.085938 -12.210938 Z M 6.070312 -6.125 L 4.289062 -6.125 L 4.289062 -9.597656 L 6.070312 -9.597656 C 7.515625 -9.597656 8.148438 -8.816406 8.148438 -7.851562 C 8.148438 -6.921875 7.515625 -6.125 6.070312 -6.125 Z M 6.070312 -6.125 "/></g></g></g><g fill="rgb(0%, 0%, 0%)" fill-opacity="1"><g transform="translate(216.479424, 121.162294)"><g><path d="M 10.96875 -3.917969 L 10.96875 -8.296875 C 10.96875 -11.230469 8.183594 -12.492188 5.976562 -12.492188 C 3.769531 -12.492188 1.019531 -11.230469 1.019531 -8.296875 L 1.019531 -3.917969 C 1.019531 -0.984375 3.769531 0.277344 5.976562 0.277344 C 8.183594 0.277344 10.96875 -0.984375 10.96875 -3.917969 Z M 8.054688 -8.035156 L 8.054688 -4.175781 C 8.054688 -2.988281 7.203125 -2.300781 5.976562 -2.300781 C 4.769531 -2.300781 3.917969 -2.988281 3.917969 -4.175781 L 3.917969 -8.035156 C 3.917969 -9.226562 4.769531 -9.910156 5.976562 -9.910156 C 7.203125 -9.910156 8.054688 -9.226562 8.054688 -8.035156 Z M 8.054688 -8.035156 "/></g></g></g><g fill="rgb(0%, 0%, 0%)" fill-opacity="1"><g transform="translate(230.897133, 121.162294)"><g/></g></g><g fill="rgb(0%, 0%, 0%)" fill-opacity="1"><g transform="translate(238.375672, 121.162294)"><g><path d="M 9.632812 -12.210938 L 1.019531 -12.210938 C 0.59375 -12.210938 0.484375 -12.007812 0.484375 -11.675781 L 0.484375 -10.132812 C 0.484375 -9.800781 0.59375 -9.597656 1.019531 -9.597656 L 3.878906 -9.597656 L 3.878906 -0.539062 C 3.878906 -0.113281 4.082031 0 4.417969 0 L 6.253906 0 C 6.589844 0 6.792969 -0.113281 6.792969 -0.539062 L 6.792969 -9.597656 L 9.632812 -9.597656 C 10.058594 -9.597656 10.171875 -9.800781 10.171875 -10.132812 L 10.171875 -11.675781 C 10.171875 -12.007812 10.058594 -12.210938 9.632812 -12.210938 Z M 9.632812 -12.210938 "/></g></g></g><g fill="rgb(0%, 0%, 0%)" fill-opacity="1"><g transform="translate(251.476048, 121.162294)"><g><path d="M 10.226562 -2.597656 L 4.304688 -2.597656 L 4.304688 -5.046875 L 9.28125 -5.046875 C 9.707031 -5.046875 9.820312 -5.253906 9.820312 -5.585938 L 9.820312 -7.035156 C 9.820312 -7.367188 9.707031 -7.574219 9.28125 -7.574219 L 4.304688 -7.574219 L 4.304688 -9.597656 L 9.910156 -9.597656 C 10.339844 -9.597656 10.449219 -9.800781 10.449219 -10.132812 L 10.449219 -11.675781 C 10.449219 -12.007812 10.339844 -12.210938 9.910156 -12.210938 L 1.910156 -12.210938 C 1.484375 -12.210938 1.375 -12.007812 1.375 -11.675781 L 1.375 -0.539062 C 1.375 -0.203125 1.484375 0 1.910156 0 L 10.226562 0 C 10.652344 0 10.765625 -0.203125 10.765625 -0.539062 L 10.765625 -2.058594 C 10.765625 -2.394531 10.652344 -2.597656 10.226562 -2.597656 Z M 10.226562 -2.597656 "/></g></g></g><g fill="rgb(0%, 0%, 0%)" fill-opacity="1"><g transform="translate(265.559778, 121.162294)"><g><path d="M 12.324219 -12.230469 L 10.542969 -12.230469 C 9.929688 -12.230469 9.835938 -11.824219 9.707031 -11.601562 L 7.144531 -7.035156 L 4.601562 -11.601562 C 4.453125 -11.824219 4.378906 -12.230469 3.75 -12.230469 L 1.910156 -12.230469 C 1.484375 -12.230469 1.375 -12.027344 1.375 -11.691406 L 1.375 -0.539062 C 1.375 -0.113281 1.578125 0 1.910156 0 L 3.75 0 C 4.082031 0 4.289062 -0.113281 4.289062 -0.539062 L 4.289062 -6.832031 L 6.164062 -3.582031 C 6.253906 -3.433594 6.402344 -3.191406 6.683594 -3.191406 L 7.609375 -3.191406 C 7.886719 -3.191406 8.054688 -3.433594 8.148438 -3.582031 L 10.003906 -6.832031 L 10.003906 -0.539062 C 10.003906 -0.113281 10.207031 0 10.542969 0 L 12.324219 0 C 12.660156 0 12.863281 -0.113281 12.863281 -0.539062 L 12.863281 -11.691406 C 12.863281 -12.027344 12.75 -12.230469 12.324219 -12.230469 Z M 12.324219 -12.230469 "/></g></g></g><g fill="rgb(0%, 0%, 0%)" fill-opacity="1"><g transform="translate(57.571107, 147.01522)"><g><path d="M 6.070312 -12.210938 L 1.910156 -12.210938 C 1.484375 -12.210938 1.375 -12.007812 1.375 -11.675781 L 1.375 -0.539062 C 1.375 -0.203125 1.484375 0 1.910156 0 L 6.070312 0 C 8.277344 0 11.0625 -1.261719 11.0625 -4.175781 L 11.0625 -8.035156 C 11.0625 -10.933594 8.277344 -12.210938 6.070312 -12.210938 Z M 8.148438 -7.777344 L 8.148438 -4.4375 C 8.148438 -3.25 7.292969 -2.578125 6.070312 -2.578125 L 4.289062 -2.578125 L 4.289062 -9.632812 L 6.070312 -9.632812 C 7.292969 -9.632812 8.148438 -8.945312 8.148438 -7.777344 Z M 8.148438 -7.777344 "/></g></g></g><g fill="rgb(0%, 0%, 0%)" fill-opacity="1"><g transform="translate(72.081585, 147.01522)"><g><path d="M 6.683594 -2.542969 L 5.511719 -2.542969 L 5.511719 -9.632812 L 6.625 -9.632812 C 7.054688 -9.632812 7.164062 -9.835938 7.164062 -10.171875 L 7.164062 -11.675781 C 7.164062 -12.007812 7.054688 -12.210938 6.625 -12.210938 L 1.464844 -12.210938 C 1.039062 -12.210938 0.929688 -12.007812 0.929688 -11.675781 L 0.929688 -10.171875 C 0.929688 -9.835938 1.039062 -9.632812 1.464844 -9.632812 L 2.597656 -9.632812 L 2.597656 -2.542969 L 1.429688 -2.542969 C 1.003906 -2.542969 0.890625 -2.339844 0.890625 -2.003906 L 0.890625 -0.539062 C 0.890625 -0.203125 1.003906 0 1.429688 0 L 6.683594 0 C 7.109375 0 7.21875 -0.203125 7.21875 -0.539062 L 7.21875 -2.003906 C 7.21875 -2.339844 7.109375 -2.542969 6.683594 -2.542969 Z M 6.683594 -2.542969 "/></g></g></g><g fill="rgb(0%, 0%, 0%)" fill-opacity="1"><g transform="translate(82.769947, 147.01522)"><g><path d="M 9.894531 -12.210938 L 1.910156 -12.210938 C 1.484375 -12.210938 1.375 -12.007812 1.375 -11.675781 L 1.375 -0.539062 C 1.375 -0.203125 1.484375 0 1.910156 0 L 3.75 0 C 4.175781 0 4.289062 -0.0742188 4.289062 -0.558594 L 4.289062 -4.898438 L 9.113281 -4.898438 C 9.539062 -4.898438 9.652344 -5.105469 9.652344 -5.4375 L 9.652344 -6.90625 C 9.652344 -7.238281 9.539062 -7.441406 9.113281 -7.441406 L 4.289062 -7.441406 L 4.289062 -9.613281 L 9.894531 -9.613281 C 10.320312 -9.613281 10.429688 -9.820312 10.429688 -10.152344 L 10.429688 -11.675781 C 10.429688 -12.007812 10.320312 -12.210938 9.894531 -12.210938 Z M 9.894531 -12.210938 "/></g></g></g><g fill="rgb(0%, 0%, 0%)" fill-opacity="1"><g transform="translate(96.389828, 147.01522)"><g><path d="M 10.226562 -2.597656 L 4.304688 -2.597656 L 4.304688 -5.046875 L 9.28125 -5.046875 C 9.707031 -5.046875 9.820312 -5.253906 9.820312 -5.585938 L 9.820312 -7.035156 C 9.820312 -7.367188 9.707031 -7.574219 9.28125 -7.574219 L 4.304688 -7.574219 L 4.304688 -9.597656 L 9.910156 -9.597656 C 10.339844 -9.597656 10.449219 -9.800781 10.449219 -10.132812 L 10.449219 -11.675781 C 10.449219 -12.007812 10.339844 -12.210938 9.910156 -12.210938 L 1.910156 -12.210938 C 1.484375 -12.210938 1.375 -12.007812 1.375 -11.675781 L 1.375 -0.539062 C 1.375 -0.203125 1.484375 0 1.910156 0 L 10.226562 0 C 10.652344 0 10.765625 -0.203125 10.765625 -0.539062 L 10.765625 -2.058594 C 10.765625 -2.394531 10.652344 -2.597656 10.226562 -2.597656 Z M 10.226562 -2.597656 "/></g></g></g><g fill="rgb(0%, 0%, 0%)" fill-opacity="1"><g transform="translate(110.473558, 147.01522)"><g><path d="M 11.378906 -0.59375 L 8.761719 -4.398438 C 9.910156 -4.789062 11.339844 -6.144531 11.339844 -8.09375 C 11.339844 -9.28125 10.949219 -10.339844 10.265625 -11.007812 C 9.484375 -11.785156 8.59375 -12.195312 6.570312 -12.195312 L 1.894531 -12.195312 C 1.464844 -12.195312 1.375 -11.988281 1.375 -11.65625 L 1.375 -0.539062 C 1.375 -0.113281 1.558594 0 1.894531 0 L 3.730469 0 C 4.066406 0 4.269531 -0.113281 4.269531 -0.539062 L 4.269531 -9.597656 L 6.738281 -9.597656 C 7.703125 -9.597656 8.445312 -8.984375 8.445312 -8.019531 C 8.445312 -7.144531 7.589844 -6.515625 6.683594 -6.515625 L 6.3125 -6.515625 C 5.882812 -6.515625 5.773438 -6.3125 5.773438 -5.976562 L 5.773438 -4.492188 C 5.773438 -3.972656 5.808594 -3.769531 5.976562 -3.546875 L 7.980469 -0.558594 C 8.242188 -0.167969 8.464844 0 8.910156 0 L 11.097656 0 C 11.453125 0 11.542969 -0.335938 11.378906 -0.59375 Z M 11.378906 -0.59375 "/></g></g></g><g fill="rgb(0%, 0%, 0%)" fill-opacity="1"><g transform="translate(125.280895, 147.01522)"><g><path d="M 10.226562 -2.597656 L 4.304688 -2.597656 L 4.304688 -5.046875 L 9.28125 -5.046875 C 9.707031 -5.046875 9.820312 -5.253906 9.820312 -5.585938 L 9.820312 -7.035156 C 9.820312 -7.367188 9.707031 -7.574219 9.28125 -7.574219 L 4.304688 -7.574219 L 4.304688 -9.597656 L 9.910156 -9.597656 C 10.339844 -9.597656 10.449219 -9.800781 10.449219 -10.132812 L 10.449219 -11.675781 C 10.449219 -12.007812 10.339844 -12.210938 9.910156 -12.210938 L 1.910156 -12.210938 C 1.484375 -12.210938 1.375 -12.007812 1.375 -11.675781 L 1.375 -0.539062 C 1.375 -0.203125 1.484375 0 1.910156 0 L 10.226562 0 C 10.652344 0 10.765625 -0.203125 10.765625 -0.539062 L 10.765625 -2.058594 C 10.765625 -2.394531 10.652344 -2.597656 10.226562 -2.597656 Z M 10.226562 -2.597656 "/></g></g></g><g fill="rgb(0%, 0%, 0%)" fill-opacity="1"><g transform="translate(139.364625, 147.01522)"><g><path d="M 10.746094 -12.210938 L 8.964844 -12.210938 C 8.628906 -12.210938 8.425781 -12.101562 8.425781 -11.675781 L 8.425781 -5.234375 L 4.492188 -11.582031 C 4.25 -11.953125 4.121094 -12.210938 3.65625 -12.210938 L 1.910156 -12.210938 C 1.484375 -12.210938 1.375 -12.007812 1.375 -11.675781 L 1.375 -0.539062 C 1.375 -0.113281 1.578125 0 1.910156 0 L 3.75 0 C 4.082031 0 4.289062 -0.113281 4.289062 -0.539062 L 4.289062 -6.996094 L 8.222656 -0.632812 C 8.464844 -0.261719 8.59375 0 9.058594 0 L 10.746094 0 C 11.171875 0 11.285156 -0.203125 11.285156 -0.539062 L 11.285156 -11.675781 C 11.285156 -12.101562 11.082031 -12.210938 10.746094 -12.210938 Z M 10.746094 -12.210938 "/></g></g></g><g fill="rgb(0%, 0%, 0%)" fill-opacity="1"><g transform="translate(154.468832, 147.01522)"><g><path d="M 9.632812 -12.210938 L 1.019531 -12.210938 C 0.59375 -12.210938 0.484375 -12.007812 0.484375 -11.675781 L 0.484375 -10.132812 C 0.484375 -9.800781 0.59375 -9.597656 1.019531 -9.597656 L 3.878906 -9.597656 L 3.878906 -0.539062 C 3.878906 -0.113281 4.082031 0 4.417969 0 L 6.253906 0 C 6.589844 0 6.792969 -0.113281 6.792969 -0.539062 L 6.792969 -9.597656 L 9.632812 -9.597656 C 10.058594 -9.597656 10.171875 -9.800781 10.171875 -10.132812 L 10.171875 -11.675781 C 10.171875 -12.007812 10.058594 -12.210938 9.632812 -12.210938 Z M 9.632812 -12.210938 "/></g></g></g><g fill="rgb(0%, 0%, 0%)" fill-opacity="1"><g transform="translate(167.569208, 147.01522)"><g><path d="M 10.226562 -2.597656 L 4.304688 -2.597656 L 4.304688 -5.046875 L 9.28125 -5.046875 C 9.707031 -5.046875 9.820312 -5.253906 9.820312 -5.585938 L 9.820312 -7.035156 C 9.820312 -7.367188 9.707031 -7.574219 9.28125 -7.574219 L 4.304688 -7.574219 L 4.304688 -9.597656 L 9.910156 -9.597656 C 10.339844 -9.597656 10.449219 -9.800781 10.449219 -10.132812 L 10.449219 -11.675781 C 10.449219 -12.007812 10.339844 -12.210938 9.910156 -12.210938 L 1.910156 -12.210938 C 1.484375 -12.210938 1.375 -12.007812 1.375 -11.675781 L 1.375 -0.539062 C 1.375 -0.203125 1.484375 0 1.910156 0 L 10.226562 0 C 10.652344 0 10.765625 -0.203125 10.765625 -0.539062 L 10.765625 -2.058594 C 10.765625 -2.394531 10.652344 -2.597656 10.226562 -2.597656 Z M 10.226562 -2.597656 "/></g></g></g><g fill="rgb(0%, 0%, 0%)" fill-opacity="1"><g transform="translate(181.652932, 147.01522)"><g><path d="M 7.128906 -7.089844 C 6.386719 -7.386719 3.65625 -7.796875 3.65625 -8.925781 C 3.65625 -9.761719 4.675781 -10.003906 5.289062 -10.003906 C 5.847656 -10.003906 6.515625 -9.835938 6.867188 -9.503906 C 7.089844 -9.28125 7.183594 -9.132812 7.257812 -8.945312 C 7.351562 -8.703125 7.40625 -8.445312 7.757812 -8.445312 L 9.578125 -8.445312 C 10.003906 -8.445312 10.117188 -8.519531 10.117188 -8.964844 C 10.117188 -11.414062 7.535156 -12.492188 5.179688 -12.492188 C 2.859375 -12.398438 0.667969 -11.210938 0.667969 -8.796875 C 0.667969 -6.441406 2.394531 -5.699219 4.269531 -5.105469 C 5.847656 -4.601562 7.5 -4.585938 7.5 -3.546875 C 7.5 -2.503906 6.683594 -2.28125 5.679688 -2.28125 C 4.992188 -2.28125 4.230469 -2.449219 3.859375 -2.894531 C 3.621094 -3.175781 3.527344 -3.414062 3.507812 -3.65625 C 3.472656 -4.121094 3.265625 -4.175781 2.839844 -4.175781 L 1.039062 -4.175781 C 0.613281 -4.175781 0.5 -4.082031 0.5 -3.65625 C 0.5 -1.058594 3.175781 0.277344 5.492188 0.277344 C 8.351562 0.277344 10.429688 -0.984375 10.429688 -3.621094 C 10.429688 -6.144531 8.464844 -6.683594 7.128906 -7.089844 Z M 7.128906 -7.089844 "/></g></g></g><g fill="rgb(0%, 0%, 0%)" fill-opacity="1"><g transform="translate(195.32848, 147.01522)"><g/></g></g><g fill="rgb(0%, 0%, 0%)" fill-opacity="1"><g transform="translate(202.807019, 147.01522)"><g><path d="M 9.632812 -12.210938 L 1.019531 -12.210938 C 0.59375 -12.210938 0.484375 -12.007812 0.484375 -11.675781 L 0.484375 -10.132812 C 0.484375 -9.800781 0.59375 -9.597656 1.019531 -9.597656 L 3.878906 -9.597656 L 3.878906 -0.539062 C 3.878906 -0.113281 4.082031 0 4.417969 0 L 6.253906 0 C 6.589844 0 6.792969 -0.113281 6.792969 -0.539062 L 6.792969 -9.597656 L 9.632812 -9.597656 C 10.058594 -9.597656 10.171875 -9.800781 10.171875 -10.132812 L 10.171875 -11.675781 C 10.171875 -12.007812 10.058594 -12.210938 9.632812 -12.210938 Z M 9.632812 -12.210938 "/></g></g></g><g fill="rgb(0%, 0%, 0%)" fill-opacity="1"><g transform="translate(215.907394, 147.01522)"><g><path d="M 6.683594 -2.542969 L 5.511719 -2.542969 L 5.511719 -9.632812 L 6.625 -9.632812 C 7.054688 -9.632812 7.164062 -9.835938 7.164062 -10.171875 L 7.164062 -11.675781 C 7.164062 -12.007812 7.054688 -12.210938 6.625 -12.210938 L 1.464844 -12.210938 C 1.039062 -12.210938 0.929688 -12.007812 0.929688 -11.675781 L 0.929688 -10.171875 C 0.929688 -9.835938 1.039062 -9.632812 1.464844 -9.632812 L 2.597656 -9.632812 L 2.597656 -2.542969 L 1.429688 -2.542969 C 1.003906 -2.542969 0.890625 -2.339844 0.890625 -2.003906 L 0.890625 -0.539062 C 0.890625 -0.203125 1.003906 0 1.429688 0 L 6.683594 0 C 7.109375 0 7.21875 -0.203125 7.21875 -0.539062 L 7.21875 -2.003906 C 7.21875 -2.339844 7.109375 -2.542969 6.683594 -2.542969 Z M 6.683594 -2.542969 "/></g></g></g><g fill="rgb(0%, 0%, 0%)" fill-opacity="1"><g transform="translate(226.595757, 147.01522)"><g><path d="M 6.085938 -12.210938 L 1.910156 -12.210938 C 1.484375 -12.210938 1.375 -12.007812 1.375 -11.675781 L 1.375 -0.539062 C 1.375 -0.113281 1.578125 0 1.910156 0 L 3.75 0 C 4.082031 0 4.289062 -0.113281 4.289062 -0.539062 L 4.289062 -3.621094 L 6.070312 -3.621094 C 9.242188 -3.621094 10.949219 -5.328125 10.949219 -7.90625 C 10.949219 -10.46875 9.28125 -12.210938 6.085938 -12.210938 Z M 6.070312 -6.125 L 4.289062 -6.125 L 4.289062 -9.597656 L 6.070312 -9.597656 C 7.515625 -9.597656 8.148438 -8.816406 8.148438 -7.851562 C 8.148438 -6.921875 7.515625 -6.125 6.070312 -6.125 Z M 6.070312 -6.125 "/></g></g></g><g fill="rgb(0%, 0%, 0%)" fill-opacity="1"><g transform="translate(240.698042, 147.01522)"><g><path d="M 10.96875 -3.917969 L 10.96875 -8.296875 C 10.96875 -11.230469 8.183594 -12.492188 5.976562 -12.492188 C 3.769531 -12.492188 1.019531 -11.230469 1.019531 -8.296875 L 1.019531 -3.917969 C 1.019531 -0.984375 3.769531 0.277344 5.976562 0.277344 C 8.183594 0.277344 10.96875 -0.984375 10.96875 -3.917969 Z M 8.054688 -8.035156 L 8.054688 -4.175781 C 8.054688 -2.988281 7.203125 -2.300781 5.976562 -2.300781 C 4.769531 -2.300781 3.917969 -2.988281 3.917969 -4.175781 L 3.917969 -8.035156 C 3.917969 -9.226562 4.769531 -9.910156 5.976562 -9.910156 C 7.203125 -9.910156 8.054688 -9.226562 8.054688 -8.035156 Z M 8.054688 -8.035156 "/></g></g></g><g fill="rgb(0%, 0%, 0%)" fill-opacity="1"><g transform="translate(255.115751, 147.01522)"><g><path d="M 7.128906 -7.089844 C 6.386719 -7.386719 3.65625 -7.796875 3.65625 -8.925781 C 3.65625 -9.761719 4.675781 -10.003906 5.289062 -10.003906 C 5.847656 -10.003906 6.515625 -9.835938 6.867188 -9.503906 C 7.089844 -9.28125 7.183594 -9.132812 7.257812 -8.945312 C 7.351562 -8.703125 7.40625 -8.445312 7.757812 -8.445312 L 9.578125 -8.445312 C 10.003906 -8.445312 10.117188 -8.519531 10.117188 -8.964844 C 10.117188 -11.414062 7.535156 -12.492188 5.179688 -12.492188 C 2.859375 -12.398438 0.667969 -11.210938 0.667969 -8.796875 C 0.667969 -6.441406 2.394531 -5.699219 4.269531 -5.105469 C 5.847656 -4.601562 7.5 -4.585938 7.5 -3.546875 C 7.5 -2.503906 6.683594 -2.28125 5.679688 -2.28125 C 4.992188 -2.28125 4.230469 -2.449219 3.859375 -2.894531 C 3.621094 -3.175781 3.527344 -3.414062 3.507812 -3.65625 C 3.472656 -4.121094 3.265625 -4.175781 2.839844 -4.175781 L 1.039062 -4.175781 C 0.613281 -4.175781 0.5 -4.082031 0.5 -3.65625 C 0.5 -1.058594 3.175781 0.277344 5.492188 0.277344 C 8.351562 0.277344 10.429688 -0.984375 10.429688 -3.621094 C 10.429688 -6.144531 8.464844 -6.683594 7.128906 -7.089844 Z M 7.128906 -7.089844 "/></g></g></g><g fill="rgb(0%, 0%, 0%)" fill-opacity="1"><g transform="translate(268.791298, 147.01522)"><g/></g></g><g fill="rgb(0%, 0%, 0%)" fill-opacity="1"><g transform="translate(276.269837, 147.01522)"><g><path d="M 6.070312 -12.210938 L 1.910156 -12.210938 C 1.484375 -12.210938 1.375 -12.007812 1.375 -11.675781 L 1.375 -0.539062 C 1.375 -0.203125 1.484375 0 1.910156 0 L 6.070312 0 C 8.277344 0 11.0625 -1.261719 11.0625 -4.175781 L 11.0625 -8.035156 C 11.0625 -10.933594 8.277344 -12.210938 6.070312 -12.210938 Z M 8.148438 -7.777344 L 8.148438 -4.4375 C 8.148438 -3.25 7.292969 -2.578125 6.070312 -2.578125 L 4.289062 -2.578125 L 4.289062 -9.632812 L 6.070312 -9.632812 C 7.292969 -9.632812 8.148438 -8.945312 8.148438 -7.777344 Z M 8.148438 -7.777344 "/></g></g></g><g fill="rgb(0%, 0%, 0%)" fill-opacity="1"><g transform="translate(290.780318, 147.01522)"><g><path d="M 10.226562 -2.597656 L 4.304688 -2.597656 L 4.304688 -5.046875 L 9.28125 -5.046875 C 9.707031 -5.046875 9.820312 -5.253906 9.820312 -5.585938 L 9.820312 -7.035156 C 9.820312 -7.367188 9.707031 -7.574219 9.28125 -7.574219 L 4.304688 -7.574219 L 4.304688 -9.597656 L 9.910156 -9.597656 C 10.339844 -9.597656 10.449219 -9.800781 10.449219 -10.132812 L 10.449219 -11.675781 C 10.449219 -12.007812 10.339844 -12.210938 9.910156 -12.210938 L 1.910156 -12.210938 C 1.484375 -12.210938 1.375 -12.007812 1.375 -11.675781 L 1.375 -0.539062 C 1.375 -0.203125 1.484375 0 1.910156 0 L 10.226562 0 C 10.652344 0 10.765625 -0.203125 10.765625 -0.539062 L 10.765625 -2.058594 C 10.765625 -2.394531 10.652344 -2.597656 10.226562 -2.597656 Z M 10.226562 -2.597656 "/></g></g></g><g fill="rgb(0%, 0%, 0%)" fill-opacity="1"><g transform="translate(45.271466, 172.868146)"><g><path d="M 12.324219 -12.230469 L 10.542969 -12.230469 C 9.929688 -12.230469 9.835938 -11.824219 9.707031 -11.601562 L 7.144531 -7.035156 L 4.601562 -11.601562 C 4.453125 -11.824219 4.378906 -12.230469 3.75 -12.230469 L 1.910156 -12.230469 C 1.484375 -12.230469 1.375 -12.027344 1.375 -11.691406 L 1.375 -0.539062 C 1.375 -0.113281 1.578125 0 1.910156 0 L 3.75 0 C 4.082031 0 4.289062 -0.113281 4.289062 -0.539062 L 4.289062 -6.832031 L 6.164062 -3.582031 C 6.253906 -3.433594 6.402344 -3.191406 6.683594 -3.191406 L 7.609375 -3.191406 C 7.886719 -3.191406 8.054688 -3.433594 8.148438 -3.582031 L 10.003906 -6.832031 L 10.003906 -0.539062 C 10.003906 -0.113281 10.207031 0 10.542969 0 L 12.324219 0 C 12.660156 0 12.863281 -0.113281 12.863281 -0.539062 L 12.863281 -11.691406 C 12.863281 -12.027344 12.75 -12.230469 12.324219 -12.230469 Z M 12.324219 -12.230469 "/></g></g></g><g fill="rgb(0%, 0%, 0%)" fill-opacity="1"><g transform="translate(61.952751, 172.868146)"><g><path d="M 10.226562 -2.597656 L 4.304688 -2.597656 L 4.304688 -5.046875 L 9.28125 -5.046875 C 9.707031 -5.046875 9.820312 -5.253906 9.820312 -5.585938 L 9.820312 -7.035156 C 9.820312 -7.367188 9.707031 -7.574219 9.28125 -7.574219 L 4.304688 -7.574219 L 4.304688 -9.597656 L 9.910156 -9.597656 C 10.339844 -9.597656 10.449219 -9.800781 10.449219 -10.132812 L 10.449219 -11.675781 C 10.449219 -12.007812 10.339844 -12.210938 9.910156 -12.210938 L 1.910156 -12.210938 C 1.484375 -12.210938 1.375 -12.007812 1.375 -11.675781 L 1.375 -0.539062 C 1.375 -0.203125 1.484375 0 1.910156 0 L 10.226562 0 C 10.652344 0 10.765625 -0.203125 10.765625 -0.539062 L 10.765625 -2.058594 C 10.765625 -2.394531 10.652344 -2.597656 10.226562 -2.597656 Z M 10.226562 -2.597656 "/></g></g></g><g fill="rgb(0%, 0%, 0%)" fill-opacity="1"><g transform="translate(76.03648, 172.868146)"><g><path d="M 10.785156 -3.621094 C 10.785156 -4.066406 10.636719 -4.25 10.226562 -4.25 L 8.40625 -4.25 C 8 -4.25 7.960938 -3.953125 7.90625 -3.582031 C 7.757812 -2.691406 6.960938 -2.320312 5.957031 -2.320312 C 4.734375 -2.320312 3.898438 -2.988281 3.898438 -4.175781 L 3.898438 -8.035156 C 3.898438 -9.207031 4.734375 -9.894531 5.957031 -9.894531 C 6.960938 -9.894531 7.480469 -9.613281 7.871094 -9 C 8.019531 -8.777344 8.035156 -8.425781 8.425781 -8.425781 L 10.207031 -8.425781 C 10.636719 -8.425781 10.785156 -8.519531 10.785156 -8.964844 C 10.542969 -11.320312 8.257812 -12.492188 5.957031 -12.492188 C 3.75 -12.492188 0.984375 -11.210938 0.984375 -8.296875 L 0.984375 -3.917969 C 0.984375 -1.003906 3.75 0.277344 5.957031 0.277344 C 8.257812 0.277344 10.785156 -1.226562 10.785156 -3.621094 Z M 10.785156 -3.621094 "/></g></g></g><g fill="rgb(0%, 0%, 0%)" fill-opacity="1"><g transform="translate(90.212978, 172.868146)"><g><path d="M 11.878906 -0.519531 L 7.777344 -11.636719 C 7.609375 -12.027344 7.425781 -12.210938 7.015625 -12.210938 L 5.234375 -12.210938 C 4.824219 -12.210938 4.621094 -12.027344 4.472656 -11.636719 L 0.351562 -0.519531 C 0.261719 -0.296875 0.261719 0 0.667969 0 L 2.617188 0 C 3.023438 0 3.175781 -0.113281 3.324219 -0.558594 L 3.84375 -2.023438 L 8.390625 -2.023438 L 8.910156 -0.558594 C 9.058594 -0.113281 9.207031 0 9.613281 0 L 11.5625 0 C 11.972656 0 11.972656 -0.296875 11.878906 -0.519531 Z M 6.125 -8.722656 L 7.515625 -4.621094 L 4.734375 -4.621094 Z M 6.125 -8.722656 "/></g></g></g><g fill="rgb(0%, 0%, 0%)" fill-opacity="1"><g transform="translate(104.816231, 172.868146)"><g><path d="M 10.746094 -12.210938 L 8.964844 -12.210938 C 8.628906 -12.210938 8.425781 -12.101562 8.425781 -11.675781 L 8.425781 -5.234375 L 4.492188 -11.582031 C 4.25 -11.953125 4.121094 -12.210938 3.65625 -12.210938 L 1.910156 -12.210938 C 1.484375 -12.210938 1.375 -12.007812 1.375 -11.675781 L 1.375 -0.539062 C 1.375 -0.113281 1.578125 0 1.910156 0 L 3.75 0 C 4.082031 0 4.289062 -0.113281 4.289062 -0.539062 L 4.289062 -6.996094 L 8.222656 -0.632812 C 8.464844 -0.261719 8.59375 0 9.058594 0 L 10.746094 0 C 11.171875 0 11.285156 -0.203125 11.285156 -0.539062 L 11.285156 -11.675781 C 11.285156 -12.101562 11.082031 -12.210938 10.746094 -12.210938 Z M 10.746094 -12.210938 "/></g></g></g><g fill="rgb(0%, 0%, 0%)" fill-opacity="1"><g transform="translate(119.920438, 172.868146)"><g><path d="M 6.683594 -2.542969 L 5.511719 -2.542969 L 5.511719 -9.632812 L 6.625 -9.632812 C 7.054688 -9.632812 7.164062 -9.835938 7.164062 -10.171875 L 7.164062 -11.675781 C 7.164062 -12.007812 7.054688 -12.210938 6.625 -12.210938 L 1.464844 -12.210938 C 1.039062 -12.210938 0.929688 -12.007812 0.929688 -11.675781 L 0.929688 -10.171875 C 0.929688 -9.835938 1.039062 -9.632812 1.464844 -9.632812 L 2.597656 -9.632812 L 2.597656 -2.542969 L 1.429688 -2.542969 C 1.003906 -2.542969 0.890625 -2.339844 0.890625 -2.003906 L 0.890625 -0.539062 C 0.890625 -0.203125 1.003906 0 1.429688 0 L 6.683594 0 C 7.109375 0 7.21875 -0.203125 7.21875 -0.539062 L 7.21875 -2.003906 C 7.21875 -2.339844 7.109375 -2.542969 6.683594 -2.542969 Z M 6.683594 -2.542969 "/></g></g></g><g fill="rgb(0%, 0%, 0%)" fill-opacity="1"><g transform="translate(130.608801, 172.868146)"><g><path d="M 7.128906 -7.089844 C 6.386719 -7.386719 3.65625 -7.796875 3.65625 -8.925781 C 3.65625 -9.761719 4.675781 -10.003906 5.289062 -10.003906 C 5.847656 -10.003906 6.515625 -9.835938 6.867188 -9.503906 C 7.089844 -9.28125 7.183594 -9.132812 7.257812 -8.945312 C 7.351562 -8.703125 7.40625 -8.445312 7.757812 -8.445312 L 9.578125 -8.445312 C 10.003906 -8.445312 10.117188 -8.519531 10.117188 -8.964844 C 10.117188 -11.414062 7.535156 -12.492188 5.179688 -12.492188 C 2.859375 -12.398438 0.667969 -11.210938 0.667969 -8.796875 C 0.667969 -6.441406 2.394531 -5.699219 4.269531 -5.105469 C 5.847656 -4.601562 7.5 -4.585938 7.5 -3.546875 C 7.5 -2.503906 6.683594 -2.28125 5.679688 -2.28125 C 4.992188 -2.28125 4.230469 -2.449219 3.859375 -2.894531 C 3.621094 -3.175781 3.527344 -3.414062 3.507812 -3.65625 C 3.472656 -4.121094 3.265625 -4.175781 2.839844 -4.175781 L 1.039062 -4.175781 C 0.613281 -4.175781 0.5 -4.082031 0.5 -3.65625 C 0.5 -1.058594 3.175781 0.277344 5.492188 0.277344 C 8.351562 0.277344 10.429688 -0.984375 10.429688 -3.621094 C 10.429688 -6.144531 8.464844 -6.683594 7.128906 -7.089844 Z M 7.128906 -7.089844 "/></g></g></g><g fill="rgb(0%, 0%, 0%)" fill-opacity="1"><g transform="translate(144.284349, 172.868146)"><g><path d="M 12.324219 -12.230469 L 10.542969 -12.230469 C 9.929688 -12.230469 9.835938 -11.824219 9.707031 -11.601562 L 7.144531 -7.035156 L 4.601562 -11.601562 C 4.453125 -11.824219 4.378906 -12.230469 3.75 -12.230469 L 1.910156 -12.230469 C 1.484375 -12.230469 1.375 -12.027344 1.375 -11.691406 L 1.375 -0.539062 C 1.375 -0.113281 1.578125 0 1.910156 0 L 3.75 0 C 4.082031 0 4.289062 -0.113281 4.289062 -0.539062 L 4.289062 -6.832031 L 6.164062 -3.582031 C 6.253906 -3.433594 6.402344 -3.191406 6.683594 -3.191406 L 7.609375 -3.191406 C 7.886719 -3.191406 8.054688 -3.433594 8.148438 -3.582031 L 10.003906 -6.832031 L 10.003906 -0.539062 C 10.003906 -0.113281 10.207031 0 10.542969 0 L 12.324219 0 C 12.660156 0 12.863281 -0.113281 12.863281 -0.539062 L 12.863281 -11.691406 C 12.863281 -12.027344 12.75 -12.230469 12.324219 -12.230469 Z M 12.324219 -12.230469 "/></g></g></g><g fill="rgb(0%, 0%, 0%)" fill-opacity="1"><g transform="translate(160.965629, 172.868146)"><g><path d="M 10.96875 -3.917969 L 10.96875 -8.296875 C 10.96875 -11.230469 8.183594 -12.492188 5.976562 -12.492188 C 3.769531 -12.492188 1.019531 -11.230469 1.019531 -8.296875 L 1.019531 -3.917969 C 1.019531 -0.984375 3.769531 0.277344 5.976562 0.277344 C 8.183594 0.277344 10.96875 -0.984375 10.96875 -3.917969 Z M 8.054688 -8.035156 L 8.054688 -4.175781 C 8.054688 -2.988281 7.203125 -2.300781 5.976562 -2.300781 C 4.769531 -2.300781 3.917969 -2.988281 3.917969 -4.175781 L 3.917969 -8.035156 C 3.917969 -9.226562 4.769531 -9.910156 5.976562 -9.910156 C 7.203125 -9.910156 8.054688 -9.226562 8.054688 -8.035156 Z M 8.054688 -8.035156 "/></g></g></g><g fill="rgb(0%, 0%, 0%)" fill-opacity="1"><g transform="translate(175.383338, 172.868146)"><g><path d="M 7.128906 -7.089844 C 6.386719 -7.386719 3.65625 -7.796875 3.65625 -8.925781 C 3.65625 -9.761719 4.675781 -10.003906 5.289062 -10.003906 C 5.847656 -10.003906 6.515625 -9.835938 6.867188 -9.503906 C 7.089844 -9.28125 7.183594 -9.132812 7.257812 -8.945312 C 7.351562 -8.703125 7.40625 -8.445312 7.757812 -8.445312 L 9.578125 -8.445312 C 10.003906 -8.445312 10.117188 -8.519531 10.117188 -8.964844 C 10.117188 -11.414062 7.535156 -12.492188 5.179688 -12.492188 C 2.859375 -12.398438 0.667969 -11.210938 0.667969 -8.796875 C 0.667969 -6.441406 2.394531 -5.699219 4.269531 -5.105469 C 5.847656 -4.601562 7.5 -4.585938 7.5 -3.546875 C 7.5 -2.503906 6.683594 -2.28125 5.679688 -2.28125 C 4.992188 -2.28125 4.230469 -2.449219 3.859375 -2.894531 C 3.621094 -3.175781 3.527344 -3.414062 3.507812 -3.65625 C 3.472656 -4.121094 3.265625 -4.175781 2.839844 -4.175781 L 1.039062 -4.175781 C 0.613281 -4.175781 0.5 -4.082031 0.5 -3.65625 C 0.5 -1.058594 3.175781 0.277344 5.492188 0.277344 C 8.351562 0.277344 10.429688 -0.984375 10.429688 -3.621094 C 10.429688 -6.144531 8.464844 -6.683594 7.128906 -7.089844 Z M 7.128906 -7.089844 "/></g></g></g><g fill="rgb(0%, 0%, 0%)" fill-opacity="1"><g transform="translate(189.058886, 172.868146)"><g/></g></g><g fill="rgb(0%, 0%, 0%)" fill-opacity="1"><g transform="translate(196.537424, 172.868146)"><g><path d="M 6.070312 -12.210938 L 1.910156 -12.210938 C 1.484375 -12.210938 1.375 -12.007812 1.375 -11.675781 L 1.375 -0.539062 C 1.375 -0.203125 1.484375 0 1.910156 0 L 6.070312 0 C 8.277344 0 11.0625 -1.261719 11.0625 -4.175781 L 11.0625 -8.035156 C 11.0625 -10.933594 8.277344 -12.210938 6.070312 -12.210938 Z M 8.148438 -7.777344 L 8.148438 -4.4375 C 8.148438 -3.25 7.292969 -2.578125 6.070312 -2.578125 L 4.289062 -2.578125 L 4.289062 -9.632812 L 6.070312 -9.632812 C 7.292969 -9.632812 8.148438 -8.945312 8.148438 -7.777344 Z M 8.148438 -7.777344 "/></g></g></g><g fill="rgb(0%, 0%, 0%)" fill-opacity="1"><g transform="translate(211.047905, 172.868146)"><g><path d="M 10.226562 -2.597656 L 4.304688 -2.597656 L 4.304688 -5.046875 L 9.28125 -5.046875 C 9.707031 -5.046875 9.820312 -5.253906 9.820312 -5.585938 L 9.820312 -7.035156 C 9.820312 -7.367188 9.707031 -7.574219 9.28125 -7.574219 L 4.304688 -7.574219 L 4.304688 -9.597656 L 9.910156 -9.597656 C 10.339844 -9.597656 10.449219 -9.800781 10.449219 -10.132812 L 10.449219 -11.675781 C 10.449219 -12.007812 10.339844 -12.210938 9.910156 -12.210938 L 1.910156 -12.210938 C 1.484375 -12.210938 1.375 -12.007812 1.375 -11.675781 L 1.375 -0.539062 C 1.375 -0.203125 1.484375 0 1.910156 0 L 10.226562 0 C 10.652344 0 10.765625 -0.203125 10.765625 -0.539062 L 10.765625 -2.058594 C 10.765625 -2.394531 10.652344 -2.597656 10.226562 -2.597656 Z M 10.226562 -2.597656 "/></g></g></g><g fill="rgb(0%, 0%, 0%)" fill-opacity="1"><g transform="translate(225.131635, 172.868146)"><g/></g></g><g fill="rgb(0%, 0%, 0%)" fill-opacity="1"><g transform="translate(232.610174, 172.868146)"><g><path d="M 6.070312 -12.210938 L 1.910156 -12.210938 C 1.484375 -12.210938 1.375 -12.007812 1.375 -11.675781 L 1.375 -0.539062 C 1.375 -0.203125 1.484375 0 1.910156 0 L 6.070312 0 C 8.277344 0 11.0625 -1.261719 11.0625 -4.175781 L 11.0625 -8.035156 C 11.0625 -10.933594 8.277344 -12.210938 6.070312 -12.210938 Z M 8.148438 -7.777344 L 8.148438 -4.4375 C 8.148438 -3.25 7.292969 -2.578125 6.070312 -2.578125 L 4.289062 -2.578125 L 4.289062 -9.632812 L 6.070312 -9.632812 C 7.292969 -9.632812 8.148438 -8.945312 8.148438 -7.777344 Z M 8.148438 -7.777344 "/></g></g></g><g fill="rgb(0%, 0%, 0%)" fill-opacity="1"><g transform="translate(247.120655, 172.868146)"><g><path d="M 10.226562 -2.597656 L 4.304688 -2.597656 L 4.304688 -5.046875 L 9.28125 -5.046875 C 9.707031 -5.046875 9.820312 -5.253906 9.820312 -5.585938 L 9.820312 -7.035156 C 9.820312 -7.367188 9.707031 -7.574219 9.28125 -7.574219 L 4.304688 -7.574219 L 4.304688 -9.597656 L 9.910156 -9.597656 C 10.339844 -9.597656 10.449219 -9.800781 10.449219 -10.132812 L 10.449219 -11.675781 C 10.449219 -12.007812 10.339844 -12.210938 9.910156 -12.210938 L 1.910156 -12.210938 C 1.484375 -12.210938 1.375 -12.007812 1.375 -11.675781 L 1.375 -0.539062 C 1.375 -0.203125 1.484375 0 1.910156 0 L 10.226562 0 C 10.652344 0 10.765625 -0.203125 10.765625 -0.539062 L 10.765625 -2.058594 C 10.765625 -2.394531 10.652344 -2.597656 10.226562 -2.597656 Z M 10.226562 -2.597656 "/></g></g></g><g fill="rgb(0%, 0%, 0%)" fill-opacity="1"><g transform="translate(261.204385, 172.868146)"><g><path d="M 9.894531 -12.210938 L 1.910156 -12.210938 C 1.484375 -12.210938 1.375 -12.007812 1.375 -11.675781 L 1.375 -0.539062 C 1.375 -0.203125 1.484375 0 1.910156 0 L 3.75 0 C 4.175781 0 4.289062 -0.0742188 4.289062 -0.558594 L 4.289062 -4.898438 L 9.113281 -4.898438 C 9.539062 -4.898438 9.652344 -5.105469 9.652344 -5.4375 L 9.652344 -6.90625 C 9.652344 -7.238281 9.539062 -7.441406 9.113281 -7.441406 L 4.289062 -7.441406 L 4.289062 -9.613281 L 9.894531 -9.613281 C 10.320312 -9.613281 10.429688 -9.820312 10.429688 -10.152344 L 10.429688 -11.675781 C 10.429688 -12.007812 10.320312 -12.210938 9.894531 -12.210938 Z M 9.894531 -12.210938 "/></g></g></g><g fill="rgb(0%, 0%, 0%)" fill-opacity="1"><g transform="translate(274.82427, 172.868146)"><g><path d="M 10.226562 -2.597656 L 4.304688 -2.597656 L 4.304688 -5.046875 L 9.28125 -5.046875 C 9.707031 -5.046875 9.820312 -5.253906 9.820312 -5.585938 L 9.820312 -7.035156 C 9.820312 -7.367188 9.707031 -7.574219 9.28125 -7.574219 L 4.304688 -7.574219 L 4.304688 -9.597656 L 9.910156 -9.597656 C 10.339844 -9.597656 10.449219 -9.800781 10.449219 -10.132812 L 10.449219 -11.675781 C 10.449219 -12.007812 10.339844 -12.210938 9.910156 -12.210938 L 1.910156 -12.210938 C 1.484375 -12.210938 1.375 -12.007812 1.375 -11.675781 L 1.375 -0.539062 C 1.375 -0.203125 1.484375 0 1.910156 0 L 10.226562 0 C 10.652344 0 10.765625 -0.203125 10.765625 -0.539062 L 10.765625 -2.058594 C 10.765625 -2.394531 10.652344 -2.597656 10.226562 -2.597656 Z M 10.226562 -2.597656 "/></g></g></g><g fill="rgb(0%, 0%, 0%)" fill-opacity="1"><g transform="translate(288.907986, 172.868146)"><g><path d="M 7.128906 -7.089844 C 6.386719 -7.386719 3.65625 -7.796875 3.65625 -8.925781 C 3.65625 -9.761719 4.675781 -10.003906 5.289062 -10.003906 C 5.847656 -10.003906 6.515625 -9.835938 6.867188 -9.503906 C 7.089844 -9.28125 7.183594 -9.132812 7.257812 -8.945312 C 7.351562 -8.703125 7.40625 -8.445312 7.757812 -8.445312 L 9.578125 -8.445312 C 10.003906 -8.445312 10.117188 -8.519531 10.117188 -8.964844 C 10.117188 -11.414062 7.535156 -12.492188 5.179688 -12.492188 C 2.859375 -12.398438 0.667969 -11.210938 0.667969 -8.796875 C 0.667969 -6.441406 2.394531 -5.699219 4.269531 -5.105469 C 5.847656 -4.601562 7.5 -4.585938 7.5 -3.546875 C 7.5 -2.503906 6.683594 -2.28125 5.679688 -2.28125 C 4.992188 -2.28125 4.230469 -2.449219 3.859375 -2.894531 C 3.621094 -3.175781 3.527344 -3.414062 3.507812 -3.65625 C 3.472656 -4.121094 3.265625 -4.175781 2.839844 -4.175781 L 1.039062 -4.175781 C 0.613281 -4.175781 0.5 -4.082031 0.5 -3.65625 C 0.5 -1.058594 3.175781 0.277344 5.492188 0.277344 C 8.351562 0.277344 10.429688 -0.984375 10.429688 -3.621094 C 10.429688 -6.144531 8.464844 -6.683594 7.128906 -7.089844 Z M 7.128906 -7.089844 "/></g></g></g><g fill="rgb(0%, 0%, 0%)" fill-opacity="1"><g transform="translate(302.583534, 172.868146)"><g><path d="M 11.878906 -0.519531 L 7.777344 -11.636719 C 7.609375 -12.027344 7.425781 -12.210938 7.015625 -12.210938 L 5.234375 -12.210938 C 4.824219 -12.210938 4.621094 -12.027344 4.472656 -11.636719 L 0.351562 -0.519531 C 0.261719 -0.296875 0.261719 0 0.667969 0 L 2.617188 0 C 3.023438 0 3.175781 -0.113281 3.324219 -0.558594 L 3.84375 -2.023438 L 8.390625 -2.023438 L 8.910156 -0.558594 C 9.058594 -0.113281 9.207031 0 9.613281 0 L 11.5625 0 C 11.972656 0 11.972656 -0.296875 11.878906 -0.519531 Z M 6.125 -8.722656 L 7.515625 -4.621094 L 4.734375 -4.621094 Z M 6.125 -8.722656 "/></g></g></g><g fill="rgb(0%, 0%, 0%)" fill-opacity="1"><g transform="translate(84.287654, 198.721071)"><g><path d="M 10.746094 -12.210938 L 8.964844 -12.210938 C 8.628906 -12.210938 8.425781 -12.101562 8.425781 -11.675781 L 8.425781 -5.234375 L 4.492188 -11.582031 C 4.25 -11.953125 4.121094 -12.210938 3.65625 -12.210938 L 1.910156 -12.210938 C 1.484375 -12.210938 1.375 -12.007812 1.375 -11.675781 L 1.375 -0.539062 C 1.375 -0.113281 1.578125 0 1.910156 0 L 3.75 0 C 4.082031 0 4.289062 -0.113281 4.289062 -0.539062 L 4.289062 -6.996094 L 8.222656 -0.632812 C 8.464844 -0.261719 8.59375 0 9.058594 0 L 10.746094 0 C 11.171875 0 11.285156 -0.203125 11.285156 -0.539062 L 11.285156 -11.675781 C 11.285156 -12.101562 11.082031 -12.210938 10.746094 -12.210938 Z M 10.746094 -12.210938 "/></g></g></g><g fill="rgb(0%, 0%, 0%)" fill-opacity="1"><g transform="translate(99.391859, 198.721071)"><g><path d="M 11.878906 -0.519531 L 7.777344 -11.636719 C 7.609375 -12.027344 7.425781 -12.210938 7.015625 -12.210938 L 5.234375 -12.210938 C 4.824219 -12.210938 4.621094 -12.027344 4.472656 -11.636719 L 0.351562 -0.519531 C 0.261719 -0.296875 0.261719 0 0.667969 0 L 2.617188 0 C 3.023438 0 3.175781 -0.113281 3.324219 -0.558594 L 3.84375 -2.023438 L 8.390625 -2.023438 L 8.910156 -0.558594 C 9.058594 -0.113281 9.207031 0 9.613281 0 L 11.5625 0 C 11.972656 0 11.972656 -0.296875 11.878906 -0.519531 Z M 6.125 -8.722656 L 7.515625 -4.621094 L 4.734375 -4.621094 Z M 6.125 -8.722656 "/></g></g></g><g fill="rgb(0%, 0%, 0%)" fill-opacity="1"><g transform="translate(113.99511, 198.721071)"><g><path d="M 9.632812 -12.210938 L 1.019531 -12.210938 C 0.59375 -12.210938 0.484375 -12.007812 0.484375 -11.675781 L 0.484375 -10.132812 C 0.484375 -9.800781 0.59375 -9.597656 1.019531 -9.597656 L 3.878906 -9.597656 L 3.878906 -0.539062 C 3.878906 -0.113281 4.082031 0 4.417969 0 L 6.253906 0 C 6.589844 0 6.792969 -0.113281 6.792969 -0.539062 L 6.792969 -9.597656 L 9.632812 -9.597656 C 10.058594 -9.597656 10.171875 -9.800781 10.171875 -10.132812 L 10.171875 -11.675781 C 10.171875 -12.007812 10.058594 -12.210938 9.632812 -12.210938 Z M 9.632812 -12.210938 "/></g></g></g><g fill="rgb(0%, 0%, 0%)" fill-opacity="1"><g transform="translate(127.095482, 198.721071)"><g><path d="M 10.503906 -12.210938 L 8.667969 -12.210938 C 8.332031 -12.210938 8.128906 -12.101562 8.128906 -11.675781 L 8.128906 -4.140625 C 8.128906 -2.96875 7.351562 -2.300781 6.125 -2.300781 C 4.898438 -2.300781 4.140625 -2.96875 4.140625 -4.140625 L 4.140625 -11.675781 C 4.140625 -12.101562 3.933594 -12.210938 3.601562 -12.210938 L 1.761719 -12.210938 C 1.429688 -12.210938 1.226562 -12.101562 1.226562 -11.675781 L 1.226562 -3.730469 C 1.226562 -0.816406 3.917969 0.277344 6.125 0.277344 C 8.332031 0.277344 11.042969 -0.816406 11.042969 -3.730469 L 11.042969 -11.675781 C 11.042969 -12.101562 10.839844 -12.210938 10.503906 -12.210938 Z M 10.503906 -12.210938 "/></g></g></g><g fill="rgb(0%, 0%, 0%)" fill-opacity="1"><g transform="translate(141.810047, 198.721071)"><g><path d="M 11.378906 -0.59375 L 8.761719 -4.398438 C 9.910156 -4.789062 11.339844 -6.144531 11.339844 -8.09375 C 11.339844 -9.28125 10.949219 -10.339844 10.265625 -11.007812 C 9.484375 -11.785156 8.59375 -12.195312 6.570312 -12.195312 L 1.894531 -12.195312 C 1.464844 -12.195312 1.375 -11.988281 1.375 -11.65625 L 1.375 -0.539062 C 1.375 -0.113281 1.558594 0 1.894531 0 L 3.730469 0 C 4.066406 0 4.269531 -0.113281 4.269531 -0.539062 L 4.269531 -9.597656 L 6.738281 -9.597656 C 7.703125 -9.597656 8.445312 -8.984375 8.445312 -8.019531 C 8.445312 -7.144531 7.589844 -6.515625 6.683594 -6.515625 L 6.3125 -6.515625 C 5.882812 -6.515625 5.773438 -6.3125 5.773438 -5.976562 L 5.773438 -4.492188 C 5.773438 -3.972656 5.808594 -3.769531 5.976562 -3.546875 L 7.980469 -0.558594 C 8.242188 -0.167969 8.464844 0 8.910156 0 L 11.097656 0 C 11.453125 0 11.542969 -0.335938 11.378906 -0.59375 Z M 11.378906 -0.59375 "/></g></g></g><g fill="rgb(0%, 0%, 0%)" fill-opacity="1"><g transform="translate(156.617384, 198.721071)"><g><path d="M 11.878906 -0.519531 L 7.777344 -11.636719 C 7.609375 -12.027344 7.425781 -12.210938 7.015625 -12.210938 L 5.234375 -12.210938 C 4.824219 -12.210938 4.621094 -12.027344 4.472656 -11.636719 L 0.351562 -0.519531 C 0.261719 -0.296875 0.261719 0 0.667969 0 L 2.617188 0 C 3.023438 0 3.175781 -0.113281 3.324219 -0.558594 L 3.84375 -2.023438 L 8.390625 -2.023438 L 8.910156 -0.558594 C 9.058594 -0.113281 9.207031 0 9.613281 0 L 11.5625 0 C 11.972656 0 11.972656 -0.296875 11.878906 -0.519531 Z M 6.125 -8.722656 L 7.515625 -4.621094 L 4.734375 -4.621094 Z M 6.125 -8.722656 "/></g></g></g><g fill="rgb(0%, 0%, 0%)" fill-opacity="1"><g transform="translate(171.220637, 198.721071)"><g><path d="M 9.632812 -2.597656 L 4.289062 -2.597656 L 4.289062 -11.675781 C 4.289062 -12.101562 4.082031 -12.210938 3.75 -12.210938 L 1.910156 -12.210938 C 1.578125 -12.210938 1.375 -12.101562 1.375 -11.675781 L 1.375 -0.539062 C 1.375 -0.203125 1.484375 0 1.910156 0 L 9.632812 0 C 10.058594 0 10.171875 -0.203125 10.171875 -0.539062 L 10.171875 -2.058594 C 10.171875 -2.394531 10.058594 -2.597656 9.632812 -2.597656 Z M 9.632812 -2.597656 "/></g></g></g><g fill="rgb(0%, 0%, 0%)" fill-opacity="1"><g transform="translate(184.469448, 198.721071)"><g/></g></g><g fill="rgb(0%, 0%, 0%)" fill-opacity="1"><g transform="translate(191.947987, 198.721071)"><g><path d="M 10.785156 -3.621094 C 10.785156 -4.066406 10.636719 -4.25 10.226562 -4.25 L 8.40625 -4.25 C 8 -4.25 7.960938 -3.953125 7.90625 -3.582031 C 7.757812 -2.691406 6.960938 -2.320312 5.957031 -2.320312 C 4.734375 -2.320312 3.898438 -2.988281 3.898438 -4.175781 L 3.898438 -8.035156 C 3.898438 -9.207031 4.734375 -9.894531 5.957031 -9.894531 C 6.960938 -9.894531 7.480469 -9.613281 7.871094 -9 C 8.019531 -8.777344 8.035156 -8.425781 8.425781 -8.425781 L 10.207031 -8.425781 C 10.636719 -8.425781 10.785156 -8.519531 10.785156 -8.964844 C 10.542969 -11.320312 8.257812 -12.492188 5.957031 -12.492188 C 3.75 -12.492188 0.984375 -11.210938 0.984375 -8.296875 L 0.984375 -3.917969 C 0.984375 -1.003906 3.75 0.277344 5.957031 0.277344 C 8.257812 0.277344 10.785156 -1.226562 10.785156 -3.621094 Z M 10.785156 -3.621094 "/></g></g></g><g fill="rgb(0%, 0%, 0%)" fill-opacity="1"><g transform="translate(206.124482, 198.721071)"><g><path d="M 10.96875 -3.917969 L 10.96875 -8.296875 C 10.96875 -11.230469 8.183594 -12.492188 5.976562 -12.492188 C 3.769531 -12.492188 1.019531 -11.230469 1.019531 -8.296875 L 1.019531 -3.917969 C 1.019531 -0.984375 3.769531 0.277344 5.976562 0.277344 C 8.183594 0.277344 10.96875 -0.984375 10.96875 -3.917969 Z M 8.054688 -8.035156 L 8.054688 -4.175781 C 8.054688 -2.988281 7.203125 -2.300781 5.976562 -2.300781 C 4.769531 -2.300781 3.917969 -2.988281 3.917969 -4.175781 L 3.917969 -8.035156 C 3.917969 -9.226562 4.769531 -9.910156 5.976562 -9.910156 C 7.203125 -9.910156 8.054688 -9.226562 8.054688 -8.035156 Z M 8.054688 -8.035156 "/></g></g></g><g fill="rgb(0%, 0%, 0%)" fill-opacity="1"><g transform="translate(220.542191, 198.721071)"><g><path d="M 10.746094 -12.210938 L 8.964844 -12.210938 C 8.628906 -12.210938 8.425781 -12.101562 8.425781 -11.675781 L 8.425781 -5.234375 L 4.492188 -11.582031 C 4.25 -11.953125 4.121094 -12.210938 3.65625 -12.210938 L 1.910156 -12.210938 C 1.484375 -12.210938 1.375 -12.007812 1.375 -11.675781 L 1.375 -0.539062 C 1.375 -0.113281 1.578125 0 1.910156 0 L 3.75 0 C 4.082031 0 4.289062 -0.113281 4.289062 -0.539062 L 4.289062 -6.996094 L 8.222656 -0.632812 C 8.464844 -0.261719 8.59375 0 9.058594 0 L 10.746094 0 C 11.171875 0 11.285156 -0.203125 11.285156 -0.539062 L 11.285156 -11.675781 C 11.285156 -12.101562 11.082031 -12.210938 10.746094 -12.210938 Z M 10.746094 -12.210938 "/></g></g></g><g fill="rgb(0%, 0%, 0%)" fill-opacity="1"><g transform="translate(235.646398, 198.721071)"><g><path d="M 9.632812 -12.210938 L 1.019531 -12.210938 C 0.59375 -12.210938 0.484375 -12.007812 0.484375 -11.675781 L 0.484375 -10.132812 C 0.484375 -9.800781 0.59375 -9.597656 1.019531 -9.597656 L 3.878906 -9.597656 L 3.878906 -0.539062 C 3.878906 -0.113281 4.082031 0 4.417969 0 L 6.253906 0 C 6.589844 0 6.792969 -0.113281 6.792969 -0.539062 L 6.792969 -9.597656 L 9.632812 -9.597656 C 10.058594 -9.597656 10.171875 -9.800781 10.171875 -10.132812 L 10.171875 -11.675781 C 10.171875 -12.007812 10.058594 -12.210938 9.632812 -12.210938 Z M 9.632812 -12.210938 "/></g></g></g><g fill="rgb(0%, 0%, 0%)" fill-opacity="1"><g transform="translate(248.746774, 198.721071)"><g><path d="M 11.378906 -0.59375 L 8.761719 -4.398438 C 9.910156 -4.789062 11.339844 -6.144531 11.339844 -8.09375 C 11.339844 -9.28125 10.949219 -10.339844 10.265625 -11.007812 C 9.484375 -11.785156 8.59375 -12.195312 6.570312 -12.195312 L 1.894531 -12.195312 C 1.464844 -12.195312 1.375 -11.988281 1.375 -11.65625 L 1.375 -0.539062 C 1.375 -0.113281 1.558594 0 1.894531 0 L 3.730469 0 C 4.066406 0 4.269531 -0.113281 4.269531 -0.539062 L 4.269531 -9.597656 L 6.738281 -9.597656 C 7.703125 -9.597656 8.445312 -8.984375 8.445312 -8.019531 C 8.445312 -7.144531 7.589844 -6.515625 6.683594 -6.515625 L 6.3125 -6.515625 C 5.882812 -6.515625 5.773438 -6.3125 5.773438 -5.976562 L 5.773438 -4.492188 C 5.773438 -3.972656 5.808594 -3.769531 5.976562 -3.546875 L 7.980469 -0.558594 C 8.242188 -0.167969 8.464844 0 8.910156 0 L 11.097656 0 C 11.453125 0 11.542969 -0.335938 11.378906 -0.59375 Z M 11.378906 -0.59375 "/></g></g></g><g fill="rgb(0%, 0%, 0%)" fill-opacity="1"><g transform="translate(263.554111, 198.721071)"><g><path d="M 11.878906 -0.519531 L 7.777344 -11.636719 C 7.609375 -12.027344 7.425781 -12.210938 7.015625 -12.210938 L 5.234375 -12.210938 C 4.824219 -12.210938 4.621094 -12.027344 4.472656 -11.636719 L 0.351562 -0.519531 C 0.261719 -0.296875 0.261719 0 0.667969 0 L 2.617188 0 C 3.023438 0 3.175781 -0.113281 3.324219 -0.558594 L 3.84375 -2.023438 L 8.390625 -2.023438 L 8.910156 -0.558594 C 9.058594 -0.113281 9.207031 0 9.613281 0 L 11.5625 0 C 11.972656 0 11.972656 -0.296875 11.878906 -0.519531 Z M 6.125 -8.722656 L 7.515625 -4.621094 L 4.734375 -4.621094 Z M 6.125 -8.722656 "/></g></g></g><g fill="rgb(0%, 0%, 0%)" fill-opacity="1"><g transform="translate(56.428898, 224.573997)"><g><path d="M 12.324219 -12.230469 L 10.542969 -12.230469 C 9.929688 -12.230469 9.835938 -11.824219 9.707031 -11.601562 L 7.144531 -7.035156 L 4.601562 -11.601562 C 4.453125 -11.824219 4.378906 -12.230469 3.75 -12.230469 L 1.910156 -12.230469 C 1.484375 -12.230469 1.375 -12.027344 1.375 -11.691406 L 1.375 -0.539062 C 1.375 -0.113281 1.578125 0 1.910156 0 L 3.75 0 C 4.082031 0 4.289062 -0.113281 4.289062 -0.539062 L 4.289062 -6.832031 L 6.164062 -3.582031 C 6.253906 -3.433594 6.402344 -3.191406 6.683594 -3.191406 L 7.609375 -3.191406 C 7.886719 -3.191406 8.054688 -3.433594 8.148438 -3.582031 L 10.003906 -6.832031 L 10.003906 -0.539062 C 10.003906 -0.113281 10.207031 0 10.542969 0 L 12.324219 0 C 12.660156 0 12.863281 -0.113281 12.863281 -0.539062 L 12.863281 -11.691406 C 12.863281 -12.027344 12.75 -12.230469 12.324219 -12.230469 Z M 12.324219 -12.230469 "/></g></g></g><g fill="rgb(0%, 0%, 0%)" fill-opacity="1"><g transform="translate(73.110183, 224.573997)"><g><path d="M 6.683594 -2.542969 L 5.511719 -2.542969 L 5.511719 -9.632812 L 6.625 -9.632812 C 7.054688 -9.632812 7.164062 -9.835938 7.164062 -10.171875 L 7.164062 -11.675781 C 7.164062 -12.007812 7.054688 -12.210938 6.625 -12.210938 L 1.464844 -12.210938 C 1.039062 -12.210938 0.929688 -12.007812 0.929688 -11.675781 L 0.929688 -10.171875 C 0.929688 -9.835938 1.039062 -9.632812 1.464844 -9.632812 L 2.597656 -9.632812 L 2.597656 -2.542969 L 1.429688 -2.542969 C 1.003906 -2.542969 0.890625 -2.339844 0.890625 -2.003906 L 0.890625 -0.539062 C 0.890625 -0.203125 1.003906 0 1.429688 0 L 6.683594 0 C 7.109375 0 7.21875 -0.203125 7.21875 -0.539062 L 7.21875 -2.003906 C 7.21875 -2.339844 7.109375 -2.542969 6.683594 -2.542969 Z M 6.683594 -2.542969 "/></g></g></g><g fill="rgb(0%, 0%, 0%)" fill-opacity="1"><g transform="translate(83.798544, 224.573997)"><g><path d="M 10.785156 -3.621094 C 10.785156 -4.066406 10.636719 -4.25 10.226562 -4.25 L 8.40625 -4.25 C 8 -4.25 7.960938 -3.953125 7.90625 -3.582031 C 7.757812 -2.691406 6.960938 -2.320312 5.957031 -2.320312 C 4.734375 -2.320312 3.898438 -2.988281 3.898438 -4.175781 L 3.898438 -8.035156 C 3.898438 -9.207031 4.734375 -9.894531 5.957031 -9.894531 C 6.960938 -9.894531 7.480469 -9.613281 7.871094 -9 C 8.019531 -8.777344 8.035156 -8.425781 8.425781 -8.425781 L 10.207031 -8.425781 C 10.636719 -8.425781 10.785156 -8.519531 10.785156 -8.964844 C 10.542969 -11.320312 8.257812 -12.492188 5.957031 -12.492188 C 3.75 -12.492188 0.984375 -11.210938 0.984375 -8.296875 L 0.984375 -3.917969 C 0.984375 -1.003906 3.75 0.277344 5.957031 0.277344 C 8.257812 0.277344 10.785156 -1.226562 10.785156 -3.621094 Z M 10.785156 -3.621094 "/></g></g></g><g fill="rgb(0%, 0%, 0%)" fill-opacity="1"><g transform="translate(97.975043, 224.573997)"><g><path d="M 11.378906 -0.59375 L 8.761719 -4.398438 C 9.910156 -4.789062 11.339844 -6.144531 11.339844 -8.09375 C 11.339844 -9.28125 10.949219 -10.339844 10.265625 -11.007812 C 9.484375 -11.785156 8.59375 -12.195312 6.570312 -12.195312 L 1.894531 -12.195312 C 1.464844 -12.195312 1.375 -11.988281 1.375 -11.65625 L 1.375 -0.539062 C 1.375 -0.113281 1.558594 0 1.894531 0 L 3.730469 0 C 4.066406 0 4.269531 -0.113281 4.269531 -0.539062 L 4.269531 -9.597656 L 6.738281 -9.597656 C 7.703125 -9.597656 8.445312 -8.984375 8.445312 -8.019531 C 8.445312 -7.144531 7.589844 -6.515625 6.683594 -6.515625 L 6.3125 -6.515625 C 5.882812 -6.515625 5.773438 -6.3125 5.773438 -5.976562 L 5.773438 -4.492188 C 5.773438 -3.972656 5.808594 -3.769531 5.976562 -3.546875 L 7.980469 -0.558594 C 8.242188 -0.167969 8.464844 0 8.910156 0 L 11.097656 0 C 11.453125 0 11.542969 -0.335938 11.378906 -0.59375 Z M 11.378906 -0.59375 "/></g></g></g><g fill="rgb(0%, 0%, 0%)" fill-opacity="1"><g transform="translate(112.78238, 224.573997)"><g><path d="M 10.96875 -3.917969 L 10.96875 -8.296875 C 10.96875 -11.230469 8.183594 -12.492188 5.976562 -12.492188 C 3.769531 -12.492188 1.019531 -11.230469 1.019531 -8.296875 L 1.019531 -3.917969 C 1.019531 -0.984375 3.769531 0.277344 5.976562 0.277344 C 8.183594 0.277344 10.96875 -0.984375 10.96875 -3.917969 Z M 8.054688 -8.035156 L 8.054688 -4.175781 C 8.054688 -2.988281 7.203125 -2.300781 5.976562 -2.300781 C 4.769531 -2.300781 3.917969 -2.988281 3.917969 -4.175781 L 3.917969 -8.035156 C 3.917969 -9.226562 4.769531 -9.910156 5.976562 -9.910156 C 7.203125 -9.910156 8.054688 -9.226562 8.054688 -8.035156 Z M 8.054688 -8.035156 "/></g></g></g><g fill="rgb(0%, 0%, 0%)" fill-opacity="1"><g transform="translate(127.200089, 224.573997)"><g><path d="M 11.378906 -0.59375 L 8.761719 -4.398438 C 9.910156 -4.789062 11.339844 -6.144531 11.339844 -8.09375 C 11.339844 -9.28125 10.949219 -10.339844 10.265625 -11.007812 C 9.484375 -11.785156 8.59375 -12.195312 6.570312 -12.195312 L 1.894531 -12.195312 C 1.464844 -12.195312 1.375 -11.988281 1.375 -11.65625 L 1.375 -0.539062 C 1.375 -0.113281 1.558594 0 1.894531 0 L 3.730469 0 C 4.066406 0 4.269531 -0.113281 4.269531 -0.539062 L 4.269531 -9.597656 L 6.738281 -9.597656 C 7.703125 -9.597656 8.445312 -8.984375 8.445312 -8.019531 C 8.445312 -7.144531 7.589844 -6.515625 6.683594 -6.515625 L 6.3125 -6.515625 C 5.882812 -6.515625 5.773438 -6.3125 5.773438 -5.976562 L 5.773438 -4.492188 C 5.773438 -3.972656 5.808594 -3.769531 5.976562 -3.546875 L 7.980469 -0.558594 C 8.242188 -0.167969 8.464844 0 8.910156 0 L 11.097656 0 C 11.453125 0 11.542969 -0.335938 11.378906 -0.59375 Z M 11.378906 -0.59375 "/></g></g></g><g fill="rgb(0%, 0%, 0%)" fill-opacity="1"><g transform="translate(142.007426, 224.573997)"><g><path d="M 10.449219 -6.8125 L 6.386719 -6.8125 C 5.957031 -6.8125 5.847656 -6.609375 5.847656 -6.273438 L 5.847656 -4.824219 C 5.847656 -4.492188 5.957031 -4.289062 6.386719 -4.289062 L 8.054688 -4.289062 C 8.054688 -2.859375 7.203125 -2.300781 5.996094 -2.300781 C 4.769531 -2.300781 3.953125 -2.988281 3.953125 -4.175781 L 3.953125 -7.90625 C 3.953125 -9.09375 4.769531 -9.910156 5.996094 -9.910156 C 7.238281 -9.910156 7.90625 -9.355469 8.109375 -8.777344 C 8.203125 -8.519531 8.128906 -8.148438 8.648438 -8.148438 L 10.449219 -8.148438 C 10.875 -8.148438 10.988281 -8.222656 10.988281 -8.667969 C 10.988281 -11.15625 8.316406 -12.492188 5.996094 -12.492188 C 3.804688 -12.492188 1.003906 -11.246094 1.003906 -8.316406 L 1.003906 -3.75 C 1.003906 -0.835938 3.804688 0.277344 5.996094 0.277344 C 8.109375 0.277344 10.820312 -0.910156 10.988281 -3.582031 L 10.988281 -6.273438 C 10.988281 -6.609375 10.875 -6.8125 10.449219 -6.8125 Z M 10.449219 -6.8125 "/></g></g></g><g fill="rgb(0%, 0%, 0%)" fill-opacity="1"><g transform="translate(156.443689, 224.573997)"><g><path d="M 11.878906 -0.519531 L 7.777344 -11.636719 C 7.609375 -12.027344 7.425781 -12.210938 7.015625 -12.210938 L 5.234375 -12.210938 C 4.824219 -12.210938 4.621094 -12.027344 4.472656 -11.636719 L 0.351562 -0.519531 C 0.261719 -0.296875 0.261719 0 0.667969 0 L 2.617188 0 C 3.023438 0 3.175781 -0.113281 3.324219 -0.558594 L 3.84375 -2.023438 L 8.390625 -2.023438 L 8.910156 -0.558594 C 9.058594 -0.113281 9.207031 0 9.613281 0 L 11.5625 0 C 11.972656 0 11.972656 -0.296875 11.878906 -0.519531 Z M 6.125 -8.722656 L 7.515625 -4.621094 L 4.734375 -4.621094 Z M 6.125 -8.722656 "/></g></g></g><g fill="rgb(0%, 0%, 0%)" fill-opacity="1"><g transform="translate(171.046934, 224.573997)"><g><path d="M 10.746094 -12.210938 L 8.964844 -12.210938 C 8.628906 -12.210938 8.425781 -12.101562 8.425781 -11.675781 L 8.425781 -5.234375 L 4.492188 -11.582031 C 4.25 -11.953125 4.121094 -12.210938 3.65625 -12.210938 L 1.910156 -12.210938 C 1.484375 -12.210938 1.375 -12.007812 1.375 -11.675781 L 1.375 -0.539062 C 1.375 -0.113281 1.578125 0 1.910156 0 L 3.75 0 C 4.082031 0 4.289062 -0.113281 4.289062 -0.539062 L 4.289062 -6.996094 L 8.222656 -0.632812 C 8.464844 -0.261719 8.59375 0 9.058594 0 L 10.746094 0 C 11.171875 0 11.285156 -0.203125 11.285156 -0.539062 L 11.285156 -11.675781 C 11.285156 -12.101562 11.082031 -12.210938 10.746094 -12.210938 Z M 10.746094 -12.210938 "/></g></g></g><g fill="rgb(0%, 0%, 0%)" fill-opacity="1"><g transform="translate(186.151142, 224.573997)"><g><path d="M 6.683594 -2.542969 L 5.511719 -2.542969 L 5.511719 -9.632812 L 6.625 -9.632812 C 7.054688 -9.632812 7.164062 -9.835938 7.164062 -10.171875 L 7.164062 -11.675781 C 7.164062 -12.007812 7.054688 -12.210938 6.625 -12.210938 L 1.464844 -12.210938 C 1.039062 -12.210938 0.929688 -12.007812 0.929688 -11.675781 L 0.929688 -10.171875 C 0.929688 -9.835938 1.039062 -9.632812 1.464844 -9.632812 L 2.597656 -9.632812 L 2.597656 -2.542969 L 1.429688 -2.542969 C 1.003906 -2.542969 0.890625 -2.339844 0.890625 -2.003906 L 0.890625 -0.539062 C 0.890625 -0.203125 1.003906 0 1.429688 0 L 6.683594 0 C 7.109375 0 7.21875 -0.203125 7.21875 -0.539062 L 7.21875 -2.003906 C 7.21875 -2.339844 7.109375 -2.542969 6.683594 -2.542969 Z M 6.683594 -2.542969 "/></g></g></g><g fill="rgb(0%, 0%, 0%)" fill-opacity="1"><g transform="translate(196.839504, 224.573997)"><g><path d="M 7.128906 -7.089844 C 6.386719 -7.386719 3.65625 -7.796875 3.65625 -8.925781 C 3.65625 -9.761719 4.675781 -10.003906 5.289062 -10.003906 C 5.847656 -10.003906 6.515625 -9.835938 6.867188 -9.503906 C 7.089844 -9.28125 7.183594 -9.132812 7.257812 -8.945312 C 7.351562 -8.703125 7.40625 -8.445312 7.757812 -8.445312 L 9.578125 -8.445312 C 10.003906 -8.445312 10.117188 -8.519531 10.117188 -8.964844 C 10.117188 -11.414062 7.535156 -12.492188 5.179688 -12.492188 C 2.859375 -12.398438 0.667969 -11.210938 0.667969 -8.796875 C 0.667969 -6.441406 2.394531 -5.699219 4.269531 -5.105469 C 5.847656 -4.601562 7.5 -4.585938 7.5 -3.546875 C 7.5 -2.503906 6.683594 -2.28125 5.679688 -2.28125 C 4.992188 -2.28125 4.230469 -2.449219 3.859375 -2.894531 C 3.621094 -3.175781 3.527344 -3.414062 3.507812 -3.65625 C 3.472656 -4.121094 3.265625 -4.175781 2.839844 -4.175781 L 1.039062 -4.175781 C 0.613281 -4.175781 0.5 -4.082031 0.5 -3.65625 C 0.5 -1.058594 3.175781 0.277344 5.492188 0.277344 C 8.351562 0.277344 10.429688 -0.984375 10.429688 -3.621094 C 10.429688 -6.144531 8.464844 -6.683594 7.128906 -7.089844 Z M 7.128906 -7.089844 "/></g></g></g><g fill="rgb(0%, 0%, 0%)" fill-opacity="1"><g transform="translate(210.515052, 224.573997)"><g><path d="M 12.324219 -12.230469 L 10.542969 -12.230469 C 9.929688 -12.230469 9.835938 -11.824219 9.707031 -11.601562 L 7.144531 -7.035156 L 4.601562 -11.601562 C 4.453125 -11.824219 4.378906 -12.230469 3.75 -12.230469 L 1.910156 -12.230469 C 1.484375 -12.230469 1.375 -12.027344 1.375 -11.691406 L 1.375 -0.539062 C 1.375 -0.113281 1.578125 0 1.910156 0 L 3.75 0 C 4.082031 0 4.289062 -0.113281 4.289062 -0.539062 L 4.289062 -6.832031 L 6.164062 -3.582031 C 6.253906 -3.433594 6.402344 -3.191406 6.683594 -3.191406 L 7.609375 -3.191406 C 7.886719 -3.191406 8.054688 -3.433594 8.148438 -3.582031 L 10.003906 -6.832031 L 10.003906 -0.539062 C 10.003906 -0.113281 10.207031 0 10.542969 0 L 12.324219 0 C 12.660156 0 12.863281 -0.113281 12.863281 -0.539062 L 12.863281 -11.691406 C 12.863281 -12.027344 12.75 -12.230469 12.324219 -12.230469 Z M 12.324219 -12.230469 "/></g></g></g><g fill="rgb(0%, 0%, 0%)" fill-opacity="1"><g transform="translate(227.196339, 224.573997)"><g><path d="M 10.96875 -3.917969 L 10.96875 -8.296875 C 10.96875 -11.230469 8.183594 -12.492188 5.976562 -12.492188 C 3.769531 -12.492188 1.019531 -11.230469 1.019531 -8.296875 L 1.019531 -3.917969 C 1.019531 -0.984375 3.769531 0.277344 5.976562 0.277344 C 8.183594 0.277344 10.96875 -0.984375 10.96875 -3.917969 Z M 8.054688 -8.035156 L 8.054688 -4.175781 C 8.054688 -2.988281 7.203125 -2.300781 5.976562 -2.300781 C 4.769531 -2.300781 3.917969 -2.988281 3.917969 -4.175781 L 3.917969 -8.035156 C 3.917969 -9.226562 4.769531 -9.910156 5.976562 -9.910156 C 7.203125 -9.910156 8.054688 -9.226562 8.054688 -8.035156 Z M 8.054688 -8.035156 "/></g></g></g><g fill="rgb(0%, 0%, 0%)" fill-opacity="1"><g transform="translate(241.614048, 224.573997)"><g><path d="M 7.128906 -7.089844 C 6.386719 -7.386719 3.65625 -7.796875 3.65625 -8.925781 C 3.65625 -9.761719 4.675781 -10.003906 5.289062 -10.003906 C 5.847656 -10.003906 6.515625 -9.835938 6.867188 -9.503906 C 7.089844 -9.28125 7.183594 -9.132812 7.257812 -8.945312 C 7.351562 -8.703125 7.40625 -8.445312 7.757812 -8.445312 L 9.578125 -8.445312 C 10.003906 -8.445312 10.117188 -8.519531 10.117188 -8.964844 C 10.117188 -11.414062 7.535156 -12.492188 5.179688 -12.492188 C 2.859375 -12.398438 0.667969 -11.210938 0.667969 -8.796875 C 0.667969 -6.441406 2.394531 -5.699219 4.269531 -5.105469 C 5.847656 -4.601562 7.5 -4.585938 7.5 -3.546875 C 7.5 -2.503906 6.683594 -2.28125 5.679688 -2.28125 C 4.992188 -2.28125 4.230469 -2.449219 3.859375 -2.894531 C 3.621094 -3.175781 3.527344 -3.414062 3.507812 -3.65625 C 3.472656 -4.121094 3.265625 -4.175781 2.839844 -4.175781 L 1.039062 -4.175781 C 0.613281 -4.175781 0.5 -4.082031 0.5 -3.65625 C 0.5 -1.058594 3.175781 0.277344 5.492188 0.277344 C 8.351562 0.277344 10.429688 -0.984375 10.429688 -3.621094 C 10.429688 -6.144531 8.464844 -6.683594 7.128906 -7.089844 Z M 7.128906 -7.089844 "/></g></g></g><g fill="rgb(0%, 0%, 0%)" fill-opacity="1"><g transform="translate(255.289596, 224.573997)"><g/></g></g><g fill="rgb(0%, 0%, 0%)" fill-opacity="1"><g transform="translate(262.768135, 224.573997)"><g><path d="M 11.007812 -0.871094 L 10.300781 -1.671875 C 10.785156 -2.28125 10.949219 -2.949219 10.949219 -3.898438 L 10.949219 -8.277344 C 10.949219 -11.210938 8.167969 -12.472656 5.957031 -12.472656 C 3.75 -12.472656 1.003906 -11.210938 1.003906 -8.277344 L 1.003906 -3.898438 C 1.003906 -0.964844 3.75 0.296875 5.957031 0.296875 C 6.757812 0.296875 7.535156 0.222656 8.316406 -0.113281 L 9.207031 0.796875 C 9.449219 1.039062 9.746094 1.003906 10.042969 0.707031 L 10.933594 -0.0195312 C 11.246094 -0.335938 11.246094 -0.648438 11.007812 -0.871094 Z M 8.054688 -8.035156 L 8.054688 -4.175781 C 8.054688 -2.988281 7.203125 -2.300781 5.976562 -2.300781 C 4.769531 -2.300781 3.917969 -2.988281 3.917969 -4.175781 L 3.917969 -8.035156 C 3.917969 -9.226562 4.769531 -9.910156 5.976562 -9.910156 C 7.203125 -9.910156 8.054688 -9.226562 8.054688 -8.035156 Z M 8.054688 -8.035156 "/></g></g></g><g fill="rgb(0%, 0%, 0%)" fill-opacity="1"><g transform="translate(277.204398, 224.573997)"><g><path d="M 10.503906 -12.210938 L 8.667969 -12.210938 C 8.332031 -12.210938 8.128906 -12.101562 8.128906 -11.675781 L 8.128906 -4.140625 C 8.128906 -2.96875 7.351562 -2.300781 6.125 -2.300781 C 4.898438 -2.300781 4.140625 -2.96875 4.140625 -4.140625 L 4.140625 -11.675781 C 4.140625 -12.101562 3.933594 -12.210938 3.601562 -12.210938 L 1.761719 -12.210938 C 1.429688 -12.210938 1.226562 -12.101562 1.226562 -11.675781 L 1.226562 -3.730469 C 1.226562 -0.816406 3.917969 0.277344 6.125 0.277344 C 8.332031 0.277344 11.042969 -0.816406 11.042969 -3.730469 L 11.042969 -11.675781 C 11.042969 -12.101562 10.839844 -12.210938 10.503906 -12.210938 Z M 10.503906 -12.210938 "/></g></g></g><g fill="rgb(0%, 0%, 0%)" fill-opacity="1"><g transform="translate(291.918963, 224.573997)"><g><path d="M 10.226562 -2.597656 L 4.304688 -2.597656 L 4.304688 -5.046875 L 9.28125 -5.046875 C 9.707031 -5.046875 9.820312 -5.253906 9.820312 -5.585938 L 9.820312 -7.035156 C 9.820312 -7.367188 9.707031 -7.574219 9.28125 -7.574219 L 4.304688 -7.574219 L 4.304688 -9.597656 L 9.910156 -9.597656 C 10.339844 -9.597656 10.449219 -9.800781 10.449219 -10.132812 L 10.449219 -11.675781 C 10.449219 -12.007812 10.339844 -12.210938 9.910156 -12.210938 L 1.910156 -12.210938 C 1.484375 -12.210938 1.375 -12.007812 1.375 -11.675781 L 1.375 -0.539062 C 1.375 -0.203125 1.484375 0 1.910156 0 L 10.226562 0 C 10.652344 0 10.765625 -0.203125 10.765625 -0.539062 L 10.765625 -2.058594 C 10.765625 -2.394531 10.652344 -2.597656 10.226562 -2.597656 Z M 10.226562 -2.597656 "/></g></g></g><g fill="rgb(0%, 0%, 0%)" fill-opacity="1"><g transform="translate(39.058963, 250.426922)"><g><path d="M 6.085938 -12.210938 L 1.910156 -12.210938 C 1.484375 -12.210938 1.375 -12.007812 1.375 -11.675781 L 1.375 -0.539062 C 1.375 -0.113281 1.578125 0 1.910156 0 L 3.75 0 C 4.082031 0 4.289062 -0.113281 4.289062 -0.539062 L 4.289062 -3.621094 L 6.070312 -3.621094 C 9.242188 -3.621094 10.949219 -5.328125 10.949219 -7.90625 C 10.949219 -10.46875 9.28125 -12.210938 6.085938 -12.210938 Z M 6.070312 -6.125 L 4.289062 -6.125 L 4.289062 -9.597656 L 6.070312 -9.597656 C 7.515625 -9.597656 8.148438 -8.816406 8.148438 -7.851562 C 8.148438 -6.921875 7.515625 -6.125 6.070312 -6.125 Z M 6.070312 -6.125 "/></g></g></g><g fill="rgb(0%, 0%, 0%)" fill-opacity="1"><g transform="translate(53.161246, 250.426922)"><g><path d="M 10.96875 -3.917969 L 10.96875 -8.296875 C 10.96875 -11.230469 8.183594 -12.492188 5.976562 -12.492188 C 3.769531 -12.492188 1.019531 -11.230469 1.019531 -8.296875 L 1.019531 -3.917969 C 1.019531 -0.984375 3.769531 0.277344 5.976562 0.277344 C 8.183594 0.277344 10.96875 -0.984375 10.96875 -3.917969 Z M 8.054688 -8.035156 L 8.054688 -4.175781 C 8.054688 -2.988281 7.203125 -2.300781 5.976562 -2.300781 C 4.769531 -2.300781 3.917969 -2.988281 3.917969 -4.175781 L 3.917969 -8.035156 C 3.917969 -9.226562 4.769531 -9.910156 5.976562 -9.910156 C 7.203125 -9.910156 8.054688 -9.226562 8.054688 -8.035156 Z M 8.054688 -8.035156 "/></g></g></g><g fill="rgb(0%, 0%, 0%)" fill-opacity="1"><g transform="translate(67.578953, 250.426922)"><g><path d="M 6.070312 -12.210938 L 1.910156 -12.210938 C 1.484375 -12.210938 1.375 -12.007812 1.375 -11.675781 L 1.375 -0.539062 C 1.375 -0.203125 1.484375 0 1.910156 0 L 6.070312 0 C 8.277344 0 11.0625 -1.261719 11.0625 -4.175781 L 11.0625 -8.035156 C 11.0625 -10.933594 8.277344 -12.210938 6.070312 -12.210938 Z M 8.148438 -7.777344 L 8.148438 -4.4375 C 8.148438 -3.25 7.292969 -2.578125 6.070312 -2.578125 L 4.289062 -2.578125 L 4.289062 -9.632812 L 6.070312 -9.632812 C 7.292969 -9.632812 8.148438 -8.945312 8.148438 -7.777344 Z M 8.148438 -7.777344 "/></g></g></g><g fill="rgb(0%, 0%, 0%)" fill-opacity="1"><g transform="translate(82.08943, 250.426922)"><g><path d="M 10.226562 -2.597656 L 4.304688 -2.597656 L 4.304688 -5.046875 L 9.28125 -5.046875 C 9.707031 -5.046875 9.820312 -5.253906 9.820312 -5.585938 L 9.820312 -7.035156 C 9.820312 -7.367188 9.707031 -7.574219 9.28125 -7.574219 L 4.304688 -7.574219 L 4.304688 -9.597656 L 9.910156 -9.597656 C 10.339844 -9.597656 10.449219 -9.800781 10.449219 -10.132812 L 10.449219 -11.675781 C 10.449219 -12.007812 10.339844 -12.210938 9.910156 -12.210938 L 1.910156 -12.210938 C 1.484375 -12.210938 1.375 -12.007812 1.375 -11.675781 L 1.375 -0.539062 C 1.375 -0.203125 1.484375 0 1.910156 0 L 10.226562 0 C 10.652344 0 10.765625 -0.203125 10.765625 -0.539062 L 10.765625 -2.058594 C 10.765625 -2.394531 10.652344 -2.597656 10.226562 -2.597656 Z M 10.226562 -2.597656 "/></g></g></g><g fill="rgb(0%, 0%, 0%)" fill-opacity="1"><g transform="translate(96.173161, 250.426922)"><g><path d="M 12.324219 -12.230469 L 10.542969 -12.230469 C 9.929688 -12.230469 9.835938 -11.824219 9.707031 -11.601562 L 7.144531 -7.035156 L 4.601562 -11.601562 C 4.453125 -11.824219 4.378906 -12.230469 3.75 -12.230469 L 1.910156 -12.230469 C 1.484375 -12.230469 1.375 -12.027344 1.375 -11.691406 L 1.375 -0.539062 C 1.375 -0.113281 1.578125 0 1.910156 0 L 3.75 0 C 4.082031 0 4.289062 -0.113281 4.289062 -0.539062 L 4.289062 -6.832031 L 6.164062 -3.582031 C 6.253906 -3.433594 6.402344 -3.191406 6.683594 -3.191406 L 7.609375 -3.191406 C 7.886719 -3.191406 8.054688 -3.433594 8.148438 -3.582031 L 10.003906 -6.832031 L 10.003906 -0.539062 C 10.003906 -0.113281 10.207031 0 10.542969 0 L 12.324219 0 C 12.660156 0 12.863281 -0.113281 12.863281 -0.539062 L 12.863281 -11.691406 C 12.863281 -12.027344 12.75 -12.230469 12.324219 -12.230469 Z M 12.324219 -12.230469 "/></g></g></g><g fill="rgb(0%, 0%, 0%)" fill-opacity="1"><g transform="translate(112.854448, 250.426922)"><g/></g></g><g fill="rgb(0%, 0%, 0%)" fill-opacity="1"><g transform="translate(120.332987, 250.426922)"><g><path d="M 10.785156 -3.621094 C 10.785156 -4.066406 10.636719 -4.25 10.226562 -4.25 L 8.40625 -4.25 C 8 -4.25 7.960938 -3.953125 7.90625 -3.582031 C 7.757812 -2.691406 6.960938 -2.320312 5.957031 -2.320312 C 4.734375 -2.320312 3.898438 -2.988281 3.898438 -4.175781 L 3.898438 -8.035156 C 3.898438 -9.207031 4.734375 -9.894531 5.957031 -9.894531 C 6.960938 -9.894531 7.480469 -9.613281 7.871094 -9 C 8.019531 -8.777344 8.035156 -8.425781 8.425781 -8.425781 L 10.207031 -8.425781 C 10.636719 -8.425781 10.785156 -8.519531 10.785156 -8.964844 C 10.542969 -11.320312 8.257812 -12.492188 5.957031 -12.492188 C 3.75 -12.492188 0.984375 -11.210938 0.984375 -8.296875 L 0.984375 -3.917969 C 0.984375 -1.003906 3.75 0.277344 5.957031 0.277344 C 8.257812 0.277344 10.785156 -1.226562 10.785156 -3.621094 Z M 10.785156 -3.621094 "/></g></g></g><g fill="rgb(0%, 0%, 0%)" fill-opacity="1"><g transform="translate(134.509489, 250.426922)"><g><path d="M 11.878906 -0.519531 L 7.777344 -11.636719 C 7.609375 -12.027344 7.425781 -12.210938 7.015625 -12.210938 L 5.234375 -12.210938 C 4.824219 -12.210938 4.621094 -12.027344 4.472656 -11.636719 L 0.351562 -0.519531 C 0.261719 -0.296875 0.261719 0 0.667969 0 L 2.617188 0 C 3.023438 0 3.175781 -0.113281 3.324219 -0.558594 L 3.84375 -2.023438 L 8.390625 -2.023438 L 8.910156 -0.558594 C 9.058594 -0.113281 9.207031 0 9.613281 0 L 11.5625 0 C 11.972656 0 11.972656 -0.296875 11.878906 -0.519531 Z M 6.125 -8.722656 L 7.515625 -4.621094 L 4.734375 -4.621094 Z M 6.125 -8.722656 "/></g></g></g><g fill="rgb(0%, 0%, 0%)" fill-opacity="1"><g transform="translate(149.112742, 250.426922)"><g><path d="M 10.503906 -12.210938 L 8.667969 -12.210938 C 8.332031 -12.210938 8.128906 -12.101562 8.128906 -11.675781 L 8.128906 -4.140625 C 8.128906 -2.96875 7.351562 -2.300781 6.125 -2.300781 C 4.898438 -2.300781 4.140625 -2.96875 4.140625 -4.140625 L 4.140625 -11.675781 C 4.140625 -12.101562 3.933594 -12.210938 3.601562 -12.210938 L 1.761719 -12.210938 C 1.429688 -12.210938 1.226562 -12.101562 1.226562 -11.675781 L 1.226562 -3.730469 C 1.226562 -0.816406 3.917969 0.277344 6.125 0.277344 C 8.332031 0.277344 11.042969 -0.816406 11.042969 -3.730469 L 11.042969 -11.675781 C 11.042969 -12.101562 10.839844 -12.210938 10.503906 -12.210938 Z M 10.503906 -12.210938 "/></g></g></g><g fill="rgb(0%, 0%, 0%)" fill-opacity="1"><g transform="translate(163.8273, 250.426922)"><g><path d="M 7.128906 -7.089844 C 6.386719 -7.386719 3.65625 -7.796875 3.65625 -8.925781 C 3.65625 -9.761719 4.675781 -10.003906 5.289062 -10.003906 C 5.847656 -10.003906 6.515625 -9.835938 6.867188 -9.503906 C 7.089844 -9.28125 7.183594 -9.132812 7.257812 -8.945312 C 7.351562 -8.703125 7.40625 -8.445312 7.757812 -8.445312 L 9.578125 -8.445312 C 10.003906 -8.445312 10.117188 -8.519531 10.117188 -8.964844 C 10.117188 -11.414062 7.535156 -12.492188 5.179688 -12.492188 C 2.859375 -12.398438 0.667969 -11.210938 0.667969 -8.796875 C 0.667969 -6.441406 2.394531 -5.699219 4.269531 -5.105469 C 5.847656 -4.601562 7.5 -4.585938 7.5 -3.546875 C 7.5 -2.503906 6.683594 -2.28125 5.679688 -2.28125 C 4.992188 -2.28125 4.230469 -2.449219 3.859375 -2.894531 C 3.621094 -3.175781 3.527344 -3.414062 3.507812 -3.65625 C 3.472656 -4.121094 3.265625 -4.175781 2.839844 -4.175781 L 1.039062 -4.175781 C 0.613281 -4.175781 0.5 -4.082031 0.5 -3.65625 C 0.5 -1.058594 3.175781 0.277344 5.492188 0.277344 C 8.351562 0.277344 10.429688 -0.984375 10.429688 -3.621094 C 10.429688 -6.144531 8.464844 -6.683594 7.128906 -7.089844 Z M 7.128906 -7.089844 "/></g></g></g><g fill="rgb(0%, 0%, 0%)" fill-opacity="1"><g transform="translate(177.502848, 250.426922)"><g><path d="M 11.878906 -0.519531 L 7.777344 -11.636719 C 7.609375 -12.027344 7.425781 -12.210938 7.015625 -12.210938 L 5.234375 -12.210938 C 4.824219 -12.210938 4.621094 -12.027344 4.472656 -11.636719 L 0.351562 -0.519531 C 0.261719 -0.296875 0.261719 0 0.667969 0 L 2.617188 0 C 3.023438 0 3.175781 -0.113281 3.324219 -0.558594 L 3.84375 -2.023438 L 8.390625 -2.023438 L 8.910156 -0.558594 C 9.058594 -0.113281 9.207031 0 9.613281 0 L 11.5625 0 C 11.972656 0 11.972656 -0.296875 11.878906 -0.519531 Z M 6.125 -8.722656 L 7.515625 -4.621094 L 4.734375 -4.621094 Z M 6.125 -8.722656 "/></g></g></g><g fill="rgb(0%, 0%, 0%)" fill-opacity="1"><g transform="translate(192.1061, 250.426922)"><g><path d="M 11.378906 -0.59375 L 8.761719 -4.398438 C 9.910156 -4.789062 11.339844 -6.144531 11.339844 -8.09375 C 11.339844 -9.28125 10.949219 -10.339844 10.265625 -11.007812 C 9.484375 -11.785156 8.59375 -12.195312 6.570312 -12.195312 L 1.894531 -12.195312 C 1.464844 -12.195312 1.375 -11.988281 1.375 -11.65625 L 1.375 -0.539062 C 1.375 -0.113281 1.558594 0 1.894531 0 L 3.730469 0 C 4.066406 0 4.269531 -0.113281 4.269531 -0.539062 L 4.269531 -9.597656 L 6.738281 -9.597656 C 7.703125 -9.597656 8.445312 -8.984375 8.445312 -8.019531 C 8.445312 -7.144531 7.589844 -6.515625 6.683594 -6.515625 L 6.3125 -6.515625 C 5.882812 -6.515625 5.773438 -6.3125 5.773438 -5.976562 L 5.773438 -4.492188 C 5.773438 -3.972656 5.808594 -3.769531 5.976562 -3.546875 L 7.980469 -0.558594 C 8.242188 -0.167969 8.464844 0 8.910156 0 L 11.097656 0 C 11.453125 0 11.542969 -0.335938 11.378906 -0.59375 Z M 11.378906 -0.59375 "/></g></g></g><g fill="rgb(0%, 0%, 0%)" fill-opacity="1"><g transform="translate(206.913437, 250.426922)"><g/></g></g><g fill="rgb(0%, 0%, 0%)" fill-opacity="1"><g transform="translate(214.391976, 250.426922)"><g><path d="M 6.070312 -12.210938 L 1.910156 -12.210938 C 1.484375 -12.210938 1.375 -12.007812 1.375 -11.675781 L 1.375 -0.539062 C 1.375 -0.203125 1.484375 0 1.910156 0 L 6.070312 0 C 8.277344 0 11.0625 -1.261719 11.0625 -4.175781 L 11.0625 -8.035156 C 11.0625 -10.933594 8.277344 -12.210938 6.070312 -12.210938 Z M 8.148438 -7.777344 L 8.148438 -4.4375 C 8.148438 -3.25 7.292969 -2.578125 6.070312 -2.578125 L 4.289062 -2.578125 L 4.289062 -9.632812 L 6.070312 -9.632812 C 7.292969 -9.632812 8.148438 -8.945312 8.148438 -7.777344 Z M 8.148438 -7.777344 "/></g></g></g><g fill="rgb(0%, 0%, 0%)" fill-opacity="1"><g transform="translate(228.902457, 250.426922)"><g><path d="M 10.96875 -3.917969 L 10.96875 -8.296875 C 10.96875 -11.230469 8.183594 -12.492188 5.976562 -12.492188 C 3.769531 -12.492188 1.019531 -11.230469 1.019531 -8.296875 L 1.019531 -3.917969 C 1.019531 -0.984375 3.769531 0.277344 5.976562 0.277344 C 8.183594 0.277344 10.96875 -0.984375 10.96875 -3.917969 Z M 8.054688 -8.035156 L 8.054688 -4.175781 C 8.054688 -2.988281 7.203125 -2.300781 5.976562 -2.300781 C 4.769531 -2.300781 3.917969 -2.988281 3.917969 -4.175781 L 3.917969 -8.035156 C 3.917969 -9.226562 4.769531 -9.910156 5.976562 -9.910156 C 7.203125 -9.910156 8.054688 -9.226562 8.054688 -8.035156 Z M 8.054688 -8.035156 "/></g></g></g><g fill="rgb(0%, 0%, 0%)" fill-opacity="1"><g transform="translate(243.320166, 250.426922)"><g><path d="M 10.226562 -2.597656 L 4.304688 -2.597656 L 4.304688 -5.046875 L 9.28125 -5.046875 C 9.707031 -5.046875 9.820312 -5.253906 9.820312 -5.585938 L 9.820312 -7.035156 C 9.820312 -7.367188 9.707031 -7.574219 9.28125 -7.574219 L 4.304688 -7.574219 L 4.304688 -9.597656 L 9.910156 -9.597656 C 10.339844 -9.597656 10.449219 -9.800781 10.449219 -10.132812 L 10.449219 -11.675781 C 10.449219 -12.007812 10.339844 -12.210938 9.910156 -12.210938 L 1.910156 -12.210938 C 1.484375 -12.210938 1.375 -12.007812 1.375 -11.675781 L 1.375 -0.539062 C 1.375 -0.203125 1.484375 0 1.910156 0 L 10.226562 0 C 10.652344 0 10.765625 -0.203125 10.765625 -0.539062 L 10.765625 -2.058594 C 10.765625 -2.394531 10.652344 -2.597656 10.226562 -2.597656 Z M 10.226562 -2.597656 "/></g></g></g><g fill="rgb(0%, 0%, 0%)" fill-opacity="1"><g transform="translate(257.403896, 250.426922)"><g><path d="M 10.746094 -12.210938 L 8.964844 -12.210938 C 8.628906 -12.210938 8.425781 -12.101562 8.425781 -11.675781 L 8.425781 -5.234375 L 4.492188 -11.582031 C 4.25 -11.953125 4.121094 -12.210938 3.65625 -12.210938 L 1.910156 -12.210938 C 1.484375 -12.210938 1.375 -12.007812 1.375 -11.675781 L 1.375 -0.539062 C 1.375 -0.113281 1.578125 0 1.910156 0 L 3.75 0 C 4.082031 0 4.289062 -0.113281 4.289062 -0.539062 L 4.289062 -6.996094 L 8.222656 -0.632812 C 8.464844 -0.261719 8.59375 0 9.058594 0 L 10.746094 0 C 11.171875 0 11.285156 -0.203125 11.285156 -0.539062 L 11.285156 -11.675781 C 11.285156 -12.101562 11.082031 -12.210938 10.746094 -12.210938 Z M 10.746094 -12.210938 "/></g></g></g><g fill="rgb(0%, 0%, 0%)" fill-opacity="1"><g transform="translate(272.508103, 250.426922)"><g><path d="M 10.785156 -3.621094 C 10.785156 -4.066406 10.636719 -4.25 10.226562 -4.25 L 8.40625 -4.25 C 8 -4.25 7.960938 -3.953125 7.90625 -3.582031 C 7.757812 -2.691406 6.960938 -2.320312 5.957031 -2.320312 C 4.734375 -2.320312 3.898438 -2.988281 3.898438 -4.175781 L 3.898438 -8.035156 C 3.898438 -9.207031 4.734375 -9.894531 5.957031 -9.894531 C 6.960938 -9.894531 7.480469 -9.613281 7.871094 -9 C 8.019531 -8.777344 8.035156 -8.425781 8.425781 -8.425781 L 10.207031 -8.425781 C 10.636719 -8.425781 10.785156 -8.519531 10.785156 -8.964844 C 10.542969 -11.320312 8.257812 -12.492188 5.957031 -12.492188 C 3.75 -12.492188 0.984375 -11.210938 0.984375 -8.296875 L 0.984375 -3.917969 C 0.984375 -1.261719 3.285156 0.0390625 5.363281 0.242188 C 5.179688 0.613281 4.972656 1.078125 4.675781 1.652344 C 4.546875 1.96875 4.621094 2.171875 4.9375 2.171875 L 6.273438 2.171875 C 7.128906 2.207031 7.089844 3.601562 6.273438 3.601562 L 5.105469 3.601562 C 4.882812 3.601562 4.675781 3.488281 4.527344 3.359375 C 3.695312 2.5625 2.449219 3.785156 3.285156 4.621094 C 3.695312 5.046875 4.304688 5.308594 5.066406 5.308594 L 6.3125 5.308594 C 9.242188 5.308594 9.746094 1.152344 6.90625 0.855469 L 7.21875 0.128906 C 9.09375 -0.296875 10.785156 -1.652344 10.785156 -3.621094 Z M 10.785156 -3.621094 "/></g></g></g><g fill="rgb(0%, 0%, 0%)" fill-opacity="1"><g transform="translate(286.684591, 250.426922)"><g><path d="M 11.878906 -0.519531 L 7.777344 -11.636719 C 7.609375 -12.027344 7.425781 -12.210938 7.015625 -12.210938 L 5.234375 -12.210938 C 4.824219 -12.210938 4.621094 -12.027344 4.472656 -11.636719 L 0.351562 -0.519531 C 0.261719 -0.296875 0.261719 0 0.667969 0 L 2.617188 0 C 3.023438 0 3.175781 -0.113281 3.324219 -0.558594 L 3.84375 -2.023438 L 8.390625 -2.023438 L 8.910156 -0.558594 C 9.058594 -0.113281 9.207031 0 9.613281 0 L 11.5625 0 C 11.972656 0 11.972656 -0.296875 11.878906 -0.519531 Z M 6.125 -8.722656 L 7.515625 -4.621094 L 4.734375 -4.621094 Z M 6.125 -8.722656 "/></g></g></g><g fill="rgb(0%, 0%, 0%)" fill-opacity="1"><g transform="translate(301.28783, 250.426922)"><g><path d="M 7.128906 -7.089844 C 6.386719 -7.386719 3.65625 -7.796875 3.65625 -8.925781 C 3.65625 -9.761719 4.675781 -10.003906 5.289062 -10.003906 C 5.847656 -10.003906 6.515625 -9.835938 6.867188 -9.503906 C 7.089844 -9.28125 7.183594 -9.132812 7.257812 -8.945312 C 7.351562 -8.703125 7.40625 -8.445312 7.757812 -8.445312 L 9.578125 -8.445312 C 10.003906 -8.445312 10.117188 -8.519531 10.117188 -8.964844 C 10.117188 -11.414062 7.535156 -12.492188 5.179688 -12.492188 C 2.859375 -12.398438 0.667969 -11.210938 0.667969 -8.796875 C 0.667969 -6.441406 2.394531 -5.699219 4.269531 -5.105469 C 5.847656 -4.601562 7.5 -4.585938 7.5 -3.546875 C 7.5 -2.503906 6.683594 -2.28125 5.679688 -2.28125 C 4.992188 -2.28125 4.230469 -2.449219 3.859375 -2.894531 C 3.621094 -3.175781 3.527344 -3.414062 3.507812 -3.65625 C 3.472656 -4.121094 3.265625 -4.175781 2.839844 -4.175781 L 1.039062 -4.175781 C 0.613281 -4.175781 0.5 -4.082031 0.5 -3.65625 C 0.5 -1.058594 3.175781 0.277344 5.492188 0.277344 C 8.351562 0.277344 10.429688 -0.984375 10.429688 -3.621094 C 10.429688 -6.144531 8.464844 -6.683594 7.128906 -7.089844 Z M 7.128906 -7.089844 "/></g></g></g><g fill="rgb(0%, 0%, 0%)" fill-opacity="1"><g transform="translate(314.963378, 250.426922)"><g><path d="M 2.617188 -3.84375 L 3.527344 -3.84375 C 3.953125 -3.84375 3.992188 -3.898438 4.046875 -4.378906 C 4.84375 -11.710938 4.863281 -11.765625 4.863281 -11.824219 C 4.863281 -12.15625 4.695312 -12.210938 4.304688 -12.210938 L 1.820312 -12.210938 C 1.449219 -12.210938 1.28125 -12.136719 1.28125 -11.824219 C 1.28125 -11.765625 1.300781 -11.710938 2.078125 -4.378906 C 2.132812 -3.917969 2.171875 -3.84375 2.617188 -3.84375 Z M 4.101562 -3.136719 L 2.042969 -3.136719 C 1.707031 -3.136719 1.503906 -3.023438 1.503906 -2.597656 L 1.503906 -0.539062 C 1.503906 -0.113281 1.707031 0 2.042969 0 L 4.101562 0 C 4.4375 0 4.640625 -0.113281 4.640625 -0.539062 L 4.640625 -2.597656 C 4.640625 -3.023438 4.4375 -3.136719 4.101562 -3.136719 Z M 4.101562 -3.136719 "/></g></g></g></svg>