<svg xmlns="http://www.w3.org/2000/svg" xmlns:xlink="http://www.w3.org/1999/xlink" width="480" zoomAndPan="magnify" viewBox="0 0 360 359.999987" height="480" preserveAspectRatio="xMidYMid meet" version="1.0"><defs><g/></defs><path fill="rgb(10.198975%, 74.119568%, 61.569214%)" d="M 179.929688 0 C 80.558594 0 0 80.558594 0 179.929688 C 0 279.300781 80.558594 359.859375 179.929688 359.859375 C 279.300781 359.859375 359.859375 279.300781 359.859375 179.929688 C 359.859375 80.558594 279.300781 0 179.929688 0 " fill-opacity="1" fill-rule="nonzero"/><g fill="rgb(0%, 0%, 0%)" fill-opacity="1"><g transform="translate(92.682201, 109.810947)"><g><path d="M 8.503906 -8.457031 C 7.617188 -8.8125 4.363281 -9.300781 4.363281 -10.648438 C 4.363281 -11.644531 5.578125 -11.933594 6.308594 -11.933594 C 6.972656 -11.933594 7.773438 -11.734375 8.191406 -11.335938 C 8.457031 -11.070312 8.570312 -10.894531 8.65625 -10.671875 C 8.769531 -10.382812 8.835938 -10.074219 9.253906 -10.074219 L 11.425781 -10.074219 C 11.933594 -10.074219 12.066406 -10.164062 12.066406 -10.695312 C 12.066406 -13.617188 8.988281 -14.902344 6.175781 -14.902344 C 3.410156 -14.789062 0.796875 -13.375 0.796875 -10.496094 C 0.796875 -7.683594 2.855469 -6.796875 5.09375 -6.089844 C 6.972656 -5.492188 8.945312 -5.46875 8.945312 -4.230469 C 8.945312 -2.988281 7.972656 -2.722656 6.773438 -2.722656 C 5.957031 -2.722656 5.046875 -2.921875 4.605469 -3.453125 C 4.316406 -3.785156 4.207031 -4.074219 4.183594 -4.363281 C 4.140625 -4.914062 3.898438 -4.980469 3.386719 -4.980469 L 1.238281 -4.980469 C 0.730469 -4.980469 0.597656 -4.871094 0.597656 -4.363281 C 0.597656 -1.261719 3.785156 0.332031 6.554688 0.332031 C 9.964844 0.332031 12.445312 -1.171875 12.445312 -4.316406 C 12.445312 -7.328125 10.097656 -7.972656 8.503906 -8.457031 Z M 8.503906 -8.457031 "/></g></g></g><g fill="rgb(0%, 0%, 0%)" fill-opacity="1"><g transform="translate(108.99612, 109.810947)"><g><path d="M 12.199219 -3.101562 L 5.136719 -3.101562 L 5.136719 -6.023438 L 11.070312 -6.023438 C 11.578125 -6.023438 11.710938 -6.265625 11.710938 -6.664062 L 11.710938 -8.390625 C 11.710938 -8.789062 11.578125 -9.035156 11.070312 -9.035156 L 5.136719 -9.035156 L 5.136719 -11.445312 L 11.824219 -11.445312 C 12.332031 -11.445312 12.464844 -11.691406 12.464844 -12.089844 L 12.464844 -13.925781 C 12.464844 -14.324219 12.332031 -14.570312 11.824219 -14.570312 L 2.28125 -14.570312 C 1.769531 -14.570312 1.636719 -14.324219 1.636719 -13.925781 L 1.636719 -0.640625 C 1.636719 -0.242188 1.769531 0 2.28125 0 L 12.199219 0 C 12.710938 0 12.84375 -0.242188 12.84375 -0.640625 L 12.84375 -2.457031 C 12.84375 -2.855469 12.710938 -3.101562 12.199219 -3.101562 Z M 12.199219 -3.101562 "/></g></g></g><g fill="rgb(0%, 0%, 0%)" fill-opacity="1"><g transform="translate(125.79697, 109.810947)"><g><path d="M 12.53125 -14.570312 L 10.339844 -14.570312 C 9.941406 -14.570312 9.699219 -14.4375 9.699219 -13.925781 L 9.699219 -4.9375 C 9.699219 -3.542969 8.769531 -2.746094 7.308594 -2.746094 C 5.84375 -2.746094 4.9375 -3.542969 4.9375 -4.9375 L 4.9375 -13.925781 C 4.9375 -14.4375 4.695312 -14.570312 4.296875 -14.570312 L 2.101562 -14.570312 C 1.703125 -14.570312 1.460938 -14.4375 1.460938 -13.925781 L 1.460938 -4.449219 C 1.460938 -0.972656 4.671875 0.332031 7.308594 0.332031 C 9.941406 0.332031 13.175781 -0.972656 13.175781 -4.449219 L 13.175781 -13.925781 C 13.175781 -14.4375 12.929688 -14.570312 12.53125 -14.570312 Z M 12.53125 -14.570312 "/></g></g></g><g fill="rgb(0%, 0%, 0%)" fill-opacity="1"><g transform="translate(143.350358, 109.810947)"><g/></g></g><g fill="rgb(0%, 0%, 0%)" fill-opacity="1"><g transform="translate(152.271704, 109.810947)"><g><path d="M 12.863281 -4.316406 C 12.863281 -4.847656 12.6875 -5.070312 12.199219 -5.070312 L 10.03125 -5.070312 C 9.542969 -5.070312 9.5 -4.714844 9.433594 -4.273438 C 9.253906 -3.210938 8.304688 -2.769531 7.105469 -2.769531 C 5.644531 -2.769531 4.648438 -3.566406 4.648438 -4.980469 L 4.648438 -9.585938 C 4.648438 -10.980469 5.644531 -11.800781 7.105469 -11.800781 C 8.304688 -11.800781 8.921875 -11.46875 9.386719 -10.738281 C 9.566406 -10.472656 9.585938 -10.050781 10.050781 -10.050781 L 12.179688 -10.050781 C 12.6875 -10.050781 12.863281 -10.164062 12.863281 -10.695312 C 12.578125 -13.507812 9.851562 -14.902344 7.105469 -14.902344 C 4.472656 -14.902344 1.171875 -13.375 1.171875 -9.898438 L 1.171875 -4.671875 C 1.171875 -1.195312 4.472656 0.332031 7.105469 0.332031 C 9.851562 0.332031 12.863281 -1.460938 12.863281 -4.316406 Z M 12.863281 -4.316406 "/></g></g></g><g fill="rgb(0%, 0%, 0%)" fill-opacity="1"><g transform="translate(169.183226, 109.810947)"><g><path d="M 12.199219 -3.101562 L 5.136719 -3.101562 L 5.136719 -6.023438 L 11.070312 -6.023438 C 11.578125 -6.023438 11.710938 -6.265625 11.710938 -6.664062 L 11.710938 -8.390625 C 11.710938 -8.789062 11.578125 -9.035156 11.070312 -9.035156 L 5.136719 -9.035156 L 5.136719 -11.445312 L 11.824219 -11.445312 C 12.332031 -11.445312 12.464844 -11.691406 12.464844 -12.089844 L 12.464844 -13.925781 C 12.464844 -14.324219 12.332031 -14.570312 11.824219 -14.570312 L 2.28125 -14.570312 C 1.769531 -14.570312 1.636719 -14.324219 1.636719 -13.925781 L 1.636719 -0.640625 C 1.636719 -0.242188 1.769531 0 2.28125 0 L 12.199219 0 C 12.710938 0 12.84375 -0.242188 12.84375 -0.640625 L 12.84375 -2.457031 C 12.84375 -2.855469 12.710938 -3.101562 12.199219 -3.101562 Z M 12.199219 -3.101562 "/></g></g></g><g fill="rgb(0%, 0%, 0%)" fill-opacity="1"><g transform="translate(185.984079, 109.810947)"><g><path d="M 11.492188 -3.101562 L 5.113281 -3.101562 L 5.113281 -13.925781 C 5.113281 -14.4375 4.871094 -14.570312 4.472656 -14.570312 L 2.28125 -14.570312 C 1.882812 -14.570312 1.636719 -14.4375 1.636719 -13.925781 L 1.636719 -0.640625 C 1.636719 -0.242188 1.769531 0 2.28125 0 L 11.492188 0 C 12 0 12.132812 -0.242188 12.132812 -0.640625 L 12.132812 -2.457031 C 12.132812 -2.855469 12 -3.101562 11.492188 -3.101562 Z M 11.492188 -3.101562 "/></g></g></g><g fill="rgb(0%, 0%, 0%)" fill-opacity="1"><g transform="translate(201.788934, 109.810947)"><g><path d="M 12.53125 -14.570312 L 10.339844 -14.570312 C 9.941406 -14.570312 9.699219 -14.4375 9.699219 -13.925781 L 9.699219 -4.9375 C 9.699219 -3.542969 8.769531 -2.746094 7.308594 -2.746094 C 5.84375 -2.746094 4.9375 -3.542969 4.9375 -4.9375 L 4.9375 -13.925781 C 4.9375 -14.4375 4.695312 -14.570312 4.296875 -14.570312 L 2.101562 -14.570312 C 1.703125 -14.570312 1.460938 -14.4375 1.460938 -13.925781 L 1.460938 -4.449219 C 1.460938 -0.972656 4.671875 0.332031 7.308594 0.332031 C 9.941406 0.332031 13.175781 -0.972656 13.175781 -4.449219 L 13.175781 -13.925781 C 13.175781 -14.4375 12.929688 -14.570312 12.53125 -14.570312 Z M 12.53125 -14.570312 "/></g></g></g><g fill="rgb(0%, 0%, 0%)" fill-opacity="1"><g transform="translate(219.342326, 109.810947)"><g><path d="M 11.492188 -3.101562 L 5.113281 -3.101562 L 5.113281 -13.925781 C 5.113281 -14.4375 4.871094 -14.570312 4.472656 -14.570312 L 2.28125 -14.570312 C 1.882812 -14.570312 1.636719 -14.4375 1.636719 -13.925781 L 1.636719 -0.640625 C 1.636719 -0.242188 1.769531 0 2.28125 0 L 11.492188 0 C 12 0 12.132812 -0.242188 12.132812 -0.640625 L 12.132812 -2.457031 C 12.132812 -2.855469 12 -3.101562 11.492188 -3.101562 Z M 11.492188 -3.101562 "/></g></g></g><g fill="rgb(0%, 0%, 0%)" fill-opacity="1"><g transform="translate(235.147173, 109.810947)"><g><path d="M 14.171875 -0.621094 L 9.277344 -13.882812 C 9.078125 -14.347656 8.855469 -14.570312 8.371094 -14.570312 L 6.242188 -14.570312 C 5.757812 -14.570312 5.511719 -14.347656 5.335938 -13.882812 L 0.421875 -0.621094 C 0.308594 -0.355469 0.308594 0 0.796875 0 L 3.121094 0 C 3.609375 0 3.785156 -0.132812 3.964844 -0.664062 L 4.582031 -2.414062 L 10.007812 -2.414062 L 10.628906 -0.664062 C 10.804688 -0.132812 10.980469 0 11.46875 0 L 13.792969 0 C 14.28125 0 14.28125 -0.355469 14.171875 -0.621094 Z M 7.308594 -10.40625 L 8.96875 -5.511719 L 5.644531 -5.511719 Z M 7.308594 -10.40625 "/></g></g></g><g fill="rgb(0%, 0%, 0%)" fill-opacity="1"><g transform="translate(252.567777, 109.810947)"><g><path d="M 13.574219 -0.707031 L 10.449219 -5.246094 C 11.824219 -5.710938 13.527344 -7.328125 13.527344 -9.652344 C 13.527344 -11.070312 13.0625 -12.332031 12.246094 -13.128906 C 11.3125 -14.058594 10.25 -14.546875 7.839844 -14.546875 L 2.257812 -14.546875 C 1.75 -14.546875 1.636719 -14.304688 1.636719 -13.90625 L 1.636719 -0.640625 C 1.636719 -0.132812 1.859375 0 2.257812 0 L 4.449219 0 C 4.847656 0 5.09375 -0.132812 5.09375 -0.640625 L 5.09375 -11.445312 L 8.039062 -11.445312 C 9.1875 -11.445312 10.074219 -10.714844 10.074219 -9.566406 C 10.074219 -8.523438 9.054688 -7.773438 7.972656 -7.773438 L 7.527344 -7.773438 C 7.019531 -7.773438 6.886719 -7.527344 6.886719 -7.128906 L 6.886719 -5.359375 C 6.886719 -4.738281 6.929688 -4.496094 7.128906 -4.230469 L 9.519531 -0.664062 C 9.832031 -0.199219 10.097656 0 10.628906 0 L 13.242188 0 C 13.660156 0 13.773438 -0.398438 13.574219 -0.707031 Z M 13.574219 -0.707031 "/></g></g></g><g fill="rgb(0%, 0%, 0%)" fill-opacity="1"><g transform="translate(85.636711, 140.651582)"><g><path d="M 7.261719 -14.570312 L 2.28125 -14.570312 C 1.769531 -14.570312 1.636719 -14.324219 1.636719 -13.925781 L 1.636719 -0.640625 C 1.636719 -0.132812 1.882812 0 2.28125 0 L 4.472656 0 C 4.871094 0 5.113281 -0.132812 5.113281 -0.640625 L 5.113281 -4.316406 L 7.242188 -4.316406 C 11.027344 -4.316406 13.0625 -6.355469 13.0625 -9.433594 C 13.0625 -12.488281 11.070312 -14.570312 7.261719 -14.570312 Z M 7.242188 -7.308594 L 5.113281 -7.308594 L 5.113281 -11.445312 L 7.242188 -11.445312 C 8.96875 -11.445312 9.71875 -10.515625 9.71875 -9.367188 C 9.71875 -8.257812 8.96875 -7.308594 7.242188 -7.308594 Z M 7.242188 -7.308594 "/></g></g></g><g fill="rgb(0%, 0%, 0%)" fill-opacity="1"><g transform="translate(102.459695, 140.651582)"><g><path d="M 13.085938 -4.671875 L 13.085938 -9.898438 C 13.085938 -13.394531 9.765625 -14.902344 7.128906 -14.902344 C 4.496094 -14.902344 1.21875 -13.394531 1.21875 -9.898438 L 1.21875 -4.671875 C 1.21875 -1.171875 4.496094 0.332031 7.128906 0.332031 C 9.765625 0.332031 13.085938 -1.171875 13.085938 -4.671875 Z M 9.609375 -9.585938 L 9.609375 -4.980469 C 9.609375 -3.566406 8.589844 -2.746094 7.128906 -2.746094 C 5.691406 -2.746094 4.671875 -3.566406 4.671875 -4.980469 L 4.671875 -9.585938 C 4.671875 -11.003906 5.691406 -11.824219 7.128906 -11.824219 C 8.589844 -11.824219 9.609375 -11.003906 9.609375 -9.585938 Z M 9.609375 -9.585938 "/></g></g></g><g fill="rgb(0%, 0%, 0%)" fill-opacity="1"><g transform="translate(119.658958, 140.651582)"><g><path d="M 7.242188 -14.570312 L 2.28125 -14.570312 C 1.769531 -14.570312 1.636719 -14.324219 1.636719 -13.925781 L 1.636719 -0.640625 C 1.636719 -0.242188 1.769531 0 2.28125 0 L 7.242188 0 C 9.875 0 13.195312 -1.503906 13.195312 -4.980469 L 13.195312 -9.585938 C 13.195312 -13.042969 9.875 -14.570312 7.242188 -14.570312 Z M 9.71875 -9.277344 L 9.71875 -5.292969 C 9.71875 -3.875 8.703125 -3.078125 7.242188 -3.078125 L 5.113281 -3.078125 L 5.113281 -11.492188 L 7.242188 -11.492188 C 8.703125 -11.492188 9.71875 -10.671875 9.71875 -9.277344 Z M 9.71875 -9.277344 "/></g></g></g><g fill="rgb(0%, 0%, 0%)" fill-opacity="1"><g transform="translate(136.968888, 140.651582)"><g><path d="M 12.199219 -3.101562 L 5.136719 -3.101562 L 5.136719 -6.023438 L 11.070312 -6.023438 C 11.578125 -6.023438 11.710938 -6.265625 11.710938 -6.664062 L 11.710938 -8.390625 C 11.710938 -8.789062 11.578125 -9.035156 11.070312 -9.035156 L 5.136719 -9.035156 L 5.136719 -11.445312 L 11.824219 -11.445312 C 12.332031 -11.445312 12.464844 -11.691406 12.464844 -12.089844 L 12.464844 -13.925781 C 12.464844 -14.324219 12.332031 -14.570312 11.824219 -14.570312 L 2.28125 -14.570312 C 1.769531 -14.570312 1.636719 -14.324219 1.636719 -13.925781 L 1.636719 -0.640625 C 1.636719 -0.242188 1.769531 0 2.28125 0 L 12.199219 0 C 12.710938 0 12.84375 -0.242188 12.84375 -0.640625 L 12.84375 -2.457031 C 12.84375 -2.855469 12.710938 -3.101562 12.199219 -3.101562 Z M 12.199219 -3.101562 "/></g></g></g><g fill="rgb(0%, 0%, 0%)" fill-opacity="1"><g transform="translate(153.76974, 140.651582)"><g/></g></g><g fill="rgb(0%, 0%, 0%)" fill-opacity="1"><g transform="translate(162.691086, 140.651582)"><g><path d="M 8.503906 -8.457031 C 7.617188 -8.8125 4.363281 -9.300781 4.363281 -10.648438 C 4.363281 -11.644531 5.578125 -11.933594 6.308594 -11.933594 C 6.972656 -11.933594 7.773438 -11.734375 8.191406 -11.335938 C 8.457031 -11.070312 8.570312 -10.894531 8.65625 -10.671875 C 8.769531 -10.382812 8.835938 -10.074219 9.253906 -10.074219 L 11.425781 -10.074219 C 11.933594 -10.074219 12.066406 -10.164062 12.066406 -10.695312 C 12.066406 -13.617188 8.988281 -14.902344 6.175781 -14.902344 C 3.410156 -14.789062 0.796875 -13.375 0.796875 -10.496094 C 0.796875 -7.683594 2.855469 -6.796875 5.09375 -6.089844 C 6.972656 -5.492188 8.945312 -5.46875 8.945312 -4.230469 C 8.945312 -2.988281 7.972656 -2.722656 6.773438 -2.722656 C 5.957031 -2.722656 5.046875 -2.921875 4.605469 -3.453125 C 4.316406 -3.785156 4.207031 -4.074219 4.183594 -4.363281 C 4.140625 -4.914062 3.898438 -4.980469 3.386719 -4.980469 L 1.238281 -4.980469 C 0.730469 -4.980469 0.597656 -4.871094 0.597656 -4.363281 C 0.597656 -1.261719 3.785156 0.332031 6.554688 0.332031 C 9.964844 0.332031 12.445312 -1.171875 12.445312 -4.316406 C 12.445312 -7.328125 10.097656 -7.972656 8.503906 -8.457031 Z M 8.503906 -8.457031 "/></g></g></g><g fill="rgb(0%, 0%, 0%)" fill-opacity="1"><g transform="translate(179.005007, 140.651582)"><g><path d="M 12.199219 -3.101562 L 5.136719 -3.101562 L 5.136719 -6.023438 L 11.070312 -6.023438 C 11.578125 -6.023438 11.710938 -6.265625 11.710938 -6.664062 L 11.710938 -8.390625 C 11.710938 -8.789062 11.578125 -9.035156 11.070312 -9.035156 L 5.136719 -9.035156 L 5.136719 -11.445312 L 11.824219 -11.445312 C 12.332031 -11.445312 12.464844 -11.691406 12.464844 -12.089844 L 12.464844 -13.925781 C 12.464844 -14.324219 12.332031 -14.570312 11.824219 -14.570312 L 2.28125 -14.570312 C 1.769531 -14.570312 1.636719 -14.324219 1.636719 -13.925781 L 1.636719 -0.640625 C 1.636719 -0.242188 1.769531 0 2.28125 0 L 12.199219 0 C 12.710938 0 12.84375 -0.242188 12.84375 -0.640625 L 12.84375 -2.457031 C 12.84375 -2.855469 12.710938 -3.101562 12.199219 -3.101562 Z M 12.199219 -3.101562 "/></g></g></g><g fill="rgb(0%, 0%, 0%)" fill-opacity="1"><g transform="translate(195.805859, 140.651582)"><g><path d="M 13.574219 -0.707031 L 10.449219 -5.246094 C 11.824219 -5.710938 13.527344 -7.328125 13.527344 -9.652344 C 13.527344 -11.070312 13.0625 -12.332031 12.246094 -13.128906 C 11.3125 -14.058594 10.25 -14.546875 7.839844 -14.546875 L 2.257812 -14.546875 C 1.75 -14.546875 1.636719 -14.304688 1.636719 -13.90625 L 1.636719 -0.640625 C 1.636719 -0.132812 1.859375 0 2.257812 0 L 4.449219 0 C 4.847656 0 5.09375 -0.132812 5.09375 -0.640625 L 5.09375 -11.445312 L 8.039062 -11.445312 C 9.1875 -11.445312 10.074219 -10.714844 10.074219 -9.566406 C 10.074219 -8.523438 9.054688 -7.773438 7.972656 -7.773438 L 7.527344 -7.773438 C 7.019531 -7.773438 6.886719 -7.527344 6.886719 -7.128906 L 6.886719 -5.359375 C 6.886719 -4.738281 6.929688 -4.496094 7.128906 -4.230469 L 9.519531 -0.664062 C 9.832031 -0.199219 10.097656 0 10.628906 0 L 13.242188 0 C 13.660156 0 13.773438 -0.398438 13.574219 -0.707031 Z M 13.574219 -0.707031 "/></g></g></g><g fill="rgb(0%, 0%, 0%)" fill-opacity="1"><g transform="translate(213.469921, 140.651582)"><g/></g></g><g fill="rgb(0%, 0%, 0%)" fill-opacity="1"><g transform="translate(222.391259, 140.651582)"><g><path d="M 12.53125 -14.570312 L 10.339844 -14.570312 C 9.941406 -14.570312 9.699219 -14.4375 9.699219 -13.925781 L 9.699219 -4.9375 C 9.699219 -3.542969 8.769531 -2.746094 7.308594 -2.746094 C 5.84375 -2.746094 4.9375 -3.542969 4.9375 -4.9375 L 4.9375 -13.925781 C 4.9375 -14.4375 4.695312 -14.570312 4.296875 -14.570312 L 2.101562 -14.570312 C 1.703125 -14.570312 1.460938 -14.4375 1.460938 -13.925781 L 1.460938 -4.449219 C 1.460938 -0.972656 4.671875 0.332031 7.308594 0.332031 C 9.941406 0.332031 13.175781 -0.972656 13.175781 -4.449219 L 13.175781 -13.925781 C 13.175781 -14.4375 12.929688 -14.570312 12.53125 -14.570312 Z M 12.53125 -14.570312 "/></g></g></g><g fill="rgb(0%, 0%, 0%)" fill-opacity="1"><g transform="translate(239.944651, 140.651582)"><g><path d="M 14.703125 -14.589844 L 12.578125 -14.589844 C 11.84375 -14.589844 11.734375 -14.105469 11.578125 -13.839844 L 8.523438 -8.390625 L 5.492188 -13.839844 C 5.3125 -14.105469 5.226562 -14.589844 4.472656 -14.589844 L 2.28125 -14.589844 C 1.769531 -14.589844 1.636719 -14.347656 1.636719 -13.949219 L 1.636719 -0.640625 C 1.636719 -0.132812 1.882812 0 2.28125 0 L 4.472656 0 C 4.871094 0 5.113281 -0.132812 5.113281 -0.640625 L 5.113281 -8.148438 L 7.351562 -4.273438 C 7.460938 -4.097656 7.640625 -3.808594 7.972656 -3.808594 L 9.078125 -3.808594 C 9.410156 -3.808594 9.609375 -4.097656 9.71875 -4.273438 L 11.933594 -8.148438 L 11.933594 -0.640625 C 11.933594 -0.132812 12.179688 0 12.578125 0 L 14.703125 0 C 15.101562 0 15.34375 -0.132812 15.34375 -0.640625 L 15.34375 -13.949219 C 15.34375 -14.347656 15.210938 -14.589844 14.703125 -14.589844 Z M 14.703125 -14.589844 "/></g></g></g><g fill="rgb(0%, 0%, 0%)" fill-opacity="1"><g transform="translate(259.844197, 140.651582)"><g><path d="M 14.171875 -0.621094 L 9.277344 -13.882812 C 9.078125 -14.347656 8.855469 -14.570312 8.371094 -14.570312 L 6.242188 -14.570312 C 5.757812 -14.570312 5.511719 -14.347656 5.335938 -13.882812 L 0.421875 -0.621094 C 0.308594 -0.355469 0.308594 0 0.796875 0 L 3.121094 0 C 3.609375 0 3.785156 -0.132812 3.964844 -0.664062 L 4.582031 -2.414062 L 10.007812 -2.414062 L 10.628906 -0.664062 C 10.804688 -0.132812 10.980469 0 11.46875 0 L 13.792969 0 C 14.28125 0 14.28125 -0.355469 14.171875 -0.621094 Z M 7.308594 -10.40625 L 8.96875 -5.511719 L 5.644531 -5.511719 Z M 7.308594 -10.40625 "/></g></g></g><g fill="rgb(0%, 0%, 0%)" fill-opacity="1"><g transform="translate(117.989468, 171.492217)"><g><path d="M 11.800781 -14.570312 L 2.28125 -14.570312 C 1.769531 -14.570312 1.636719 -14.324219 1.636719 -13.925781 L 1.636719 -0.640625 C 1.636719 -0.242188 1.769531 0 2.28125 0 L 4.472656 0 C 4.980469 0 5.113281 -0.0898438 5.113281 -0.664062 L 5.113281 -5.84375 L 10.871094 -5.84375 C 11.378906 -5.84375 11.511719 -6.089844 11.511719 -6.488281 L 11.511719 -8.238281 C 11.511719 -8.636719 11.378906 -8.878906 10.871094 -8.878906 L 5.113281 -8.878906 L 5.113281 -11.46875 L 11.800781 -11.46875 C 12.3125 -11.46875 12.445312 -11.710938 12.445312 -12.113281 L 12.445312 -13.925781 C 12.445312 -14.324219 12.3125 -14.570312 11.800781 -14.570312 Z M 11.800781 -14.570312 "/></g></g></g><g fill="rgb(0%, 0%, 0%)" fill-opacity="1"><g transform="translate(134.236985, 171.492217)"><g><path d="M 13.085938 -4.671875 L 13.085938 -9.898438 C 13.085938 -13.394531 9.765625 -14.902344 7.128906 -14.902344 C 4.496094 -14.902344 1.21875 -13.394531 1.21875 -9.898438 L 1.21875 -4.671875 C 1.21875 -1.171875 4.496094 0.332031 7.128906 0.332031 C 9.765625 0.332031 13.085938 -1.171875 13.085938 -4.671875 Z M 9.609375 -9.585938 L 9.609375 -4.980469 C 9.609375 -3.566406 8.589844 -2.746094 7.128906 -2.746094 C 5.691406 -2.746094 4.671875 -3.566406 4.671875 -4.980469 L 4.671875 -9.585938 C 4.671875 -11.003906 5.691406 -11.824219 7.128906 -11.824219 C 8.589844 -11.824219 9.609375 -11.003906 9.609375 -9.585938 Z M 9.609375 -9.585938 "/></g></g></g><g fill="rgb(0%, 0%, 0%)" fill-opacity="1"><g transform="translate(151.436247, 171.492217)"><g><path d="M 12.820312 -14.570312 L 10.695312 -14.570312 C 10.296875 -14.570312 10.050781 -14.4375 10.050781 -13.925781 L 10.050781 -6.242188 L 5.359375 -13.816406 C 5.070312 -14.257812 4.914062 -14.570312 4.363281 -14.570312 L 2.28125 -14.570312 C 1.769531 -14.570312 1.636719 -14.324219 1.636719 -13.925781 L 1.636719 -0.640625 C 1.636719 -0.132812 1.882812 0 2.28125 0 L 4.472656 0 C 4.871094 0 5.113281 -0.132812 5.113281 -0.640625 L 5.113281 -8.347656 L 9.808594 -0.753906 C 10.097656 -0.308594 10.25 0 10.804688 0 L 12.820312 0 C 13.328125 0 13.460938 -0.242188 13.460938 -0.640625 L 13.460938 -13.925781 C 13.460938 -14.4375 13.21875 -14.570312 12.820312 -14.570312 Z M 12.820312 -14.570312 "/></g></g></g><g fill="rgb(0%, 0%, 0%)" fill-opacity="1"><g transform="translate(169.454449, 171.492217)"><g><path d="M 11.492188 -14.570312 L 1.21875 -14.570312 C 0.707031 -14.570312 0.574219 -14.324219 0.574219 -13.925781 L 0.574219 -12.089844 C 0.574219 -11.691406 0.707031 -11.445312 1.21875 -11.445312 L 4.628906 -11.445312 L 4.628906 -0.640625 C 4.628906 -0.132812 4.871094 0 5.269531 0 L 7.460938 0 C 7.859375 0 8.105469 -0.132812 8.105469 -0.640625 L 8.105469 -11.445312 L 11.492188 -11.445312 C 12 -11.445312 12.132812 -11.691406 12.132812 -12.089844 L 12.132812 -13.925781 C 12.132812 -14.324219 12 -14.570312 11.492188 -14.570312 Z M 11.492188 -14.570312 "/></g></g></g><g fill="rgb(0%, 0%, 0%)" fill-opacity="1"><g transform="translate(185.082232, 171.492217)"><g><path d="M 12.199219 -3.101562 L 5.136719 -3.101562 L 5.136719 -6.023438 L 11.070312 -6.023438 C 11.578125 -6.023438 11.710938 -6.265625 11.710938 -6.664062 L 11.710938 -8.390625 C 11.710938 -8.789062 11.578125 -9.035156 11.070312 -9.035156 L 5.136719 -9.035156 L 5.136719 -11.445312 L 11.824219 -11.445312 C 12.332031 -11.445312 12.464844 -11.691406 12.464844 -12.089844 L 12.464844 -13.925781 C 12.464844 -14.324219 12.332031 -14.570312 11.824219 -14.570312 L 2.28125 -14.570312 C 1.769531 -14.570312 1.636719 -14.324219 1.636719 -13.925781 L 1.636719 -0.640625 C 1.636719 -0.242188 1.769531 0 2.28125 0 L 12.199219 0 C 12.710938 0 12.84375 -0.242188 12.84375 -0.640625 L 12.84375 -2.457031 C 12.84375 -2.855469 12.710938 -3.101562 12.199219 -3.101562 Z M 12.199219 -3.101562 "/></g></g></g><g fill="rgb(0%, 0%, 0%)" fill-opacity="1"><g transform="translate(201.883084, 171.492217)"><g/></g></g><g fill="rgb(0%, 0%, 0%)" fill-opacity="1"><g transform="translate(210.80443, 171.492217)"><g><path d="M 7.242188 -14.570312 L 2.28125 -14.570312 C 1.769531 -14.570312 1.636719 -14.324219 1.636719 -13.925781 L 1.636719 -0.640625 C 1.636719 -0.242188 1.769531 0 2.28125 0 L 7.242188 0 C 9.875 0 13.195312 -1.503906 13.195312 -4.980469 L 13.195312 -9.585938 C 13.195312 -13.042969 9.875 -14.570312 7.242188 -14.570312 Z M 9.71875 -9.277344 L 9.71875 -5.292969 C 9.71875 -3.875 8.703125 -3.078125 7.242188 -3.078125 L 5.113281 -3.078125 L 5.113281 -11.492188 L 7.242188 -11.492188 C 8.703125 -11.492188 9.71875 -10.671875 9.71875 -9.277344 Z M 9.71875 -9.277344 "/></g></g></g><g fill="rgb(0%, 0%, 0%)" fill-opacity="1"><g transform="translate(228.114365, 171.492217)"><g><path d="M 12.199219 -3.101562 L 5.136719 -3.101562 L 5.136719 -6.023438 L 11.070312 -6.023438 C 11.578125 -6.023438 11.710938 -6.265625 11.710938 -6.664062 L 11.710938 -8.390625 C 11.710938 -8.789062 11.578125 -9.035156 11.070312 -9.035156 L 5.136719 -9.035156 L 5.136719 -11.445312 L 11.824219 -11.445312 C 12.332031 -11.445312 12.464844 -11.691406 12.464844 -12.089844 L 12.464844 -13.925781 C 12.464844 -14.324219 12.332031 -14.570312 11.824219 -14.570312 L 2.28125 -14.570312 C 1.769531 -14.570312 1.636719 -14.324219 1.636719 -13.925781 L 1.636719 -0.640625 C 1.636719 -0.242188 1.769531 0 2.28125 0 L 12.199219 0 C 12.710938 0 12.84375 -0.242188 12.84375 -0.640625 L 12.84375 -2.457031 C 12.84375 -2.855469 12.710938 -3.101562 12.199219 -3.101562 Z M 12.199219 -3.101562 "/></g></g></g><g fill="rgb(0%, 0%, 0%)" fill-opacity="1"><g transform="translate(79.056489, 202.332853)"><g><path d="M 12.863281 -4.316406 C 12.863281 -4.847656 12.6875 -5.070312 12.199219 -5.070312 L 10.03125 -5.070312 C 9.542969 -5.070312 9.5 -4.714844 9.433594 -4.273438 C 9.253906 -3.210938 8.304688 -2.769531 7.105469 -2.769531 C 5.644531 -2.769531 4.648438 -3.566406 4.648438 -4.980469 L 4.648438 -9.585938 C 4.648438 -10.980469 5.644531 -11.800781 7.105469 -11.800781 C 8.304688 -11.800781 8.921875 -11.46875 9.386719 -10.738281 C 9.566406 -10.472656 9.585938 -10.050781 10.050781 -10.050781 L 12.179688 -10.050781 C 12.6875 -10.050781 12.863281 -10.164062 12.863281 -10.695312 C 12.578125 -13.507812 9.851562 -14.902344 7.105469 -14.902344 C 4.472656 -14.902344 1.171875 -13.375 1.171875 -9.898438 L 1.171875 -4.671875 C 1.171875 -1.195312 4.472656 0.332031 7.105469 0.332031 C 9.851562 0.332031 12.863281 -1.460938 12.863281 -4.316406 Z M 12.863281 -4.316406 "/></g></g></g><g fill="rgb(0%, 0%, 0%)" fill-opacity="1"><g transform="translate(95.96801, 202.332853)"><g><path d="M 13.085938 -4.671875 L 13.085938 -9.898438 C 13.085938 -13.394531 9.765625 -14.902344 7.128906 -14.902344 C 4.496094 -14.902344 1.21875 -13.394531 1.21875 -9.898438 L 1.21875 -4.671875 C 1.21875 -1.171875 4.496094 0.332031 7.128906 0.332031 C 9.765625 0.332031 13.085938 -1.171875 13.085938 -4.671875 Z M 9.609375 -9.585938 L 9.609375 -4.980469 C 9.609375 -3.566406 8.589844 -2.746094 7.128906 -2.746094 C 5.691406 -2.746094 4.671875 -3.566406 4.671875 -4.980469 L 4.671875 -9.585938 C 4.671875 -11.003906 5.691406 -11.824219 7.128906 -11.824219 C 8.589844 -11.824219 9.609375 -11.003906 9.609375 -9.585938 Z M 9.609375 -9.585938 "/></g></g></g><g fill="rgb(0%, 0%, 0%)" fill-opacity="1"><g transform="translate(113.167272, 202.332853)"><g><path d="M 12.820312 -14.570312 L 10.695312 -14.570312 C 10.296875 -14.570312 10.050781 -14.4375 10.050781 -13.925781 L 10.050781 -6.242188 L 5.359375 -13.816406 C 5.070312 -14.257812 4.914062 -14.570312 4.363281 -14.570312 L 2.28125 -14.570312 C 1.769531 -14.570312 1.636719 -14.324219 1.636719 -13.925781 L 1.636719 -0.640625 C 1.636719 -0.132812 1.882812 0 2.28125 0 L 4.472656 0 C 4.871094 0 5.113281 -0.132812 5.113281 -0.640625 L 5.113281 -8.347656 L 9.808594 -0.753906 C 10.097656 -0.308594 10.25 0 10.804688 0 L 12.820312 0 C 13.328125 0 13.460938 -0.242188 13.460938 -0.640625 L 13.460938 -13.925781 C 13.460938 -14.4375 13.21875 -14.570312 12.820312 -14.570312 Z M 12.820312 -14.570312 "/></g></g></g><g fill="rgb(0%, 0%, 0%)" fill-opacity="1"><g transform="translate(131.185474, 202.332853)"><g><path d="M 11.492188 -14.570312 L 1.21875 -14.570312 C 0.707031 -14.570312 0.574219 -14.324219 0.574219 -13.925781 L 0.574219 -12.089844 C 0.574219 -11.691406 0.707031 -11.445312 1.21875 -11.445312 L 4.628906 -11.445312 L 4.628906 -0.640625 C 4.628906 -0.132812 4.871094 0 5.269531 0 L 7.460938 0 C 7.859375 0 8.105469 -0.132812 8.105469 -0.640625 L 8.105469 -11.445312 L 11.492188 -11.445312 C 12 -11.445312 12.132812 -11.691406 12.132812 -12.089844 L 12.132812 -13.925781 C 12.132812 -14.324219 12 -14.570312 11.492188 -14.570312 Z M 11.492188 -14.570312 "/></g></g></g><g fill="rgb(0%, 0%, 0%)" fill-opacity="1"><g transform="translate(146.813257, 202.332853)"><g><path d="M 14.171875 -0.621094 L 9.277344 -13.882812 C 9.078125 -14.347656 8.855469 -14.570312 8.371094 -14.570312 L 6.242188 -14.570312 C 5.757812 -14.570312 5.511719 -14.347656 5.335938 -13.882812 L 0.421875 -0.621094 C 0.308594 -0.355469 0.308594 0 0.796875 0 L 3.121094 0 C 3.609375 0 3.785156 -0.132812 3.964844 -0.664062 L 4.582031 -2.414062 L 10.007812 -2.414062 L 10.628906 -0.664062 C 10.804688 -0.132812 10.980469 0 11.46875 0 L 13.792969 0 C 14.28125 0 14.28125 -0.355469 14.171875 -0.621094 Z M 7.308594 -10.40625 L 8.96875 -5.511719 L 5.644531 -5.511719 Z M 7.308594 -10.40625 "/></g></g></g><g fill="rgb(0%, 0%, 0%)" fill-opacity="1"><g transform="translate(164.233861, 202.332853)"><g><path d="M 14.703125 -14.589844 L 12.578125 -14.589844 C 11.84375 -14.589844 11.734375 -14.105469 11.578125 -13.839844 L 8.523438 -8.390625 L 5.492188 -13.839844 C 5.3125 -14.105469 5.226562 -14.589844 4.472656 -14.589844 L 2.28125 -14.589844 C 1.769531 -14.589844 1.636719 -14.347656 1.636719 -13.949219 L 1.636719 -0.640625 C 1.636719 -0.132812 1.882812 0 2.28125 0 L 4.472656 0 C 4.871094 0 5.113281 -0.132812 5.113281 -0.640625 L 5.113281 -8.148438 L 7.351562 -4.273438 C 7.460938 -4.097656 7.640625 -3.808594 7.972656 -3.808594 L 9.078125 -3.808594 C 9.410156 -3.808594 9.609375 -4.097656 9.71875 -4.273438 L 11.933594 -8.148438 L 11.933594 -0.640625 C 11.933594 -0.132812 12.179688 0 12.578125 0 L 14.703125 0 C 15.101562 0 15.34375 -0.132812 15.34375 -0.640625 L 15.34375 -13.949219 C 15.34375 -14.347656 15.210938 -14.589844 14.703125 -14.589844 Z M 14.703125 -14.589844 "/></g></g></g><g fill="rgb(0%, 0%, 0%)" fill-opacity="1"><g transform="translate(184.133408, 202.332853)"><g><path d="M 7.972656 -3.035156 L 6.574219 -3.035156 L 6.574219 -11.492188 L 7.90625 -11.492188 C 8.414062 -11.492188 8.546875 -11.734375 8.546875 -12.132812 L 8.546875 -13.925781 C 8.546875 -14.324219 8.414062 -14.570312 7.90625 -14.570312 L 1.75 -14.570312 C 1.238281 -14.570312 1.105469 -14.324219 1.105469 -13.925781 L 1.105469 -12.132812 C 1.105469 -11.734375 1.238281 -11.492188 1.75 -11.492188 L 3.101562 -11.492188 L 3.101562 -3.035156 L 1.703125 -3.035156 C 1.195312 -3.035156 1.0625 -2.789062 1.0625 -2.390625 L 1.0625 -0.640625 C 1.0625 -0.242188 1.195312 0 1.703125 0 L 7.972656 0 C 8.480469 0 8.613281 -0.242188 8.613281 -0.640625 L 8.613281 -2.390625 C 8.613281 -2.789062 8.480469 -3.035156 7.972656 -3.035156 Z M 7.972656 -3.035156 "/></g></g></g><g fill="rgb(0%, 0%, 0%)" fill-opacity="1"><g transform="translate(196.883837, 202.332853)"><g><path d="M 12.820312 -14.570312 L 10.695312 -14.570312 C 10.296875 -14.570312 10.050781 -14.4375 10.050781 -13.925781 L 10.050781 -6.242188 L 5.359375 -13.816406 C 5.070312 -14.257812 4.914062 -14.570312 4.363281 -14.570312 L 2.28125 -14.570312 C 1.769531 -14.570312 1.636719 -14.324219 1.636719 -13.925781 L 1.636719 -0.640625 C 1.636719 -0.132812 1.882812 0 2.28125 0 L 4.472656 0 C 4.871094 0 5.113281 -0.132812 5.113281 -0.640625 L 5.113281 -8.347656 L 9.808594 -0.753906 C 10.097656 -0.308594 10.25 0 10.804688 0 L 12.820312 0 C 13.328125 0 13.460938 -0.242188 13.460938 -0.640625 L 13.460938 -13.925781 C 13.460938 -14.4375 13.21875 -14.570312 12.820312 -14.570312 Z M 12.820312 -14.570312 "/></g></g></g><g fill="rgb(0%, 0%, 0%)" fill-opacity="1"><g transform="translate(214.902043, 202.332853)"><g><path d="M 14.171875 -0.621094 L 9.277344 -13.882812 C 9.078125 -14.347656 8.855469 -14.570312 8.371094 -14.570312 L 6.242188 -14.570312 C 5.757812 -14.570312 5.511719 -14.347656 5.335938 -13.882812 L 0.421875 -0.621094 C 0.308594 -0.355469 0.308594 0 0.796875 0 L 3.121094 0 C 3.609375 0 3.785156 -0.132812 3.964844 -0.664062 L 4.582031 -2.414062 L 10.007812 -2.414062 L 10.628906 -0.664062 C 10.804688 -0.132812 10.980469 0 11.46875 0 L 13.792969 0 C 14.28125 0 14.28125 -0.355469 14.171875 -0.621094 Z M 7.308594 -10.40625 L 8.96875 -5.511719 L 5.644531 -5.511719 Z M 7.308594 -10.40625 "/></g></g></g><g fill="rgb(0%, 0%, 0%)" fill-opacity="1"><g transform="translate(232.322639, 202.332853)"><g><path d="M 12.863281 -4.316406 C 12.863281 -4.847656 12.6875 -5.070312 12.199219 -5.070312 L 10.03125 -5.070312 C 9.542969 -5.070312 9.5 -4.714844 9.433594 -4.273438 C 9.253906 -3.210938 8.304688 -2.769531 7.105469 -2.769531 C 5.644531 -2.769531 4.648438 -3.566406 4.648438 -4.980469 L 4.648438 -9.585938 C 4.648438 -10.980469 5.644531 -11.800781 7.105469 -11.800781 C 8.304688 -11.800781 8.921875 -11.46875 9.386719 -10.738281 C 9.566406 -10.472656 9.585938 -10.050781 10.050781 -10.050781 L 12.179688 -10.050781 C 12.6875 -10.050781 12.863281 -10.164062 12.863281 -10.695312 C 12.578125 -13.507812 9.851562 -14.902344 7.105469 -14.902344 C 4.472656 -14.902344 1.171875 -13.375 1.171875 -9.898438 L 1.171875 -4.671875 C 1.171875 -1.503906 3.917969 0.0429688 6.398438 0.289062 C 6.175781 0.730469 5.933594 1.285156 5.578125 1.96875 C 5.425781 2.347656 5.511719 2.589844 5.890625 2.589844 L 7.484375 2.589844 C 8.503906 2.636719 8.457031 4.296875 7.484375 4.296875 L 6.089844 4.296875 C 5.824219 4.296875 5.578125 4.164062 5.402344 4.007812 C 4.40625 3.054688 2.921875 4.515625 3.917969 5.511719 C 4.40625 6.023438 5.136719 6.332031 6.042969 6.332031 L 7.527344 6.332031 C 11.027344 6.332031 11.625 1.371094 8.238281 1.019531 L 8.613281 0.15625 C 10.847656 -0.355469 12.863281 -1.96875 12.863281 -4.316406 Z M 12.863281 -4.316406 "/></g></g></g><g fill="rgb(0%, 0%, 0%)" fill-opacity="1"><g transform="translate(249.234161, 202.332853)"><g><path d="M 11.335938 -18.753906 L 10.316406 -18.753906 C 9.917969 -18.753906 9.832031 -18.578125 9.765625 -18.355469 C 9.632812 -17.914062 9.277344 -17.800781 8.988281 -17.847656 C 8.722656 -17.890625 7.417969 -18.355469 7.417969 -18.355469 C 6.929688 -18.53125 6.199219 -18.753906 5.625 -18.753906 C 4.183594 -18.753906 3.234375 -17.625 3.234375 -16.316406 L 3.234375 -16.296875 C 3.234375 -16.164062 3.234375 -15.851562 3.5 -15.851562 L 4.515625 -15.851562 C 4.914062 -15.851562 5.003906 -16.03125 5.070312 -16.25 C 5.203125 -16.695312 5.558594 -16.804688 5.84375 -16.761719 C 6.109375 -16.714844 7.417969 -16.25 7.417969 -16.25 C 7.90625 -16.074219 8.636719 -15.851562 9.210938 -15.851562 C 10.648438 -15.851562 11.601562 -16.984375 11.601562 -18.289062 L 11.601562 -18.3125 C 11.601562 -18.445312 11.601562 -18.753906 11.335938 -18.753906 Z M 14.171875 -0.621094 L 9.277344 -13.882812 C 9.078125 -14.347656 8.855469 -14.570312 8.371094 -14.570312 L 6.242188 -14.570312 C 5.757812 -14.570312 5.511719 -14.347656 5.335938 -13.882812 L 0.421875 -0.621094 C 0.308594 -0.355469 0.308594 0 0.796875 0 L 3.121094 0 C 3.609375 0 3.785156 -0.132812 3.964844 -0.664062 L 4.582031 -2.414062 L 10.007812 -2.414062 L 10.628906 -0.664062 C 10.804688 -0.132812 10.980469 0 11.46875 0 L 13.792969 0 C 14.28125 0 14.28125 -0.355469 14.171875 -0.621094 Z M 7.308594 -10.40625 L 8.96875 -5.511719 L 5.644531 -5.511719 Z M 7.308594 -10.40625 "/></g></g></g><g fill="rgb(0%, 0%, 0%)" fill-opacity="1"><g transform="translate(266.654766, 202.332853)"><g><path d="M 13.085938 -4.671875 L 13.085938 -9.898438 C 13.085938 -13.394531 9.765625 -14.902344 7.128906 -14.902344 C 4.496094 -14.902344 1.21875 -13.394531 1.21875 -9.898438 L 1.21875 -4.671875 C 1.21875 -1.171875 4.496094 0.332031 7.128906 0.332031 C 9.765625 0.332031 13.085938 -1.171875 13.085938 -4.671875 Z M 9.609375 -9.585938 L 9.609375 -4.980469 C 9.609375 -3.566406 8.589844 -2.746094 7.128906 -2.746094 C 5.691406 -2.746094 4.671875 -3.566406 4.671875 -4.980469 L 4.671875 -9.585938 C 4.671875 -11.003906 5.691406 -11.824219 7.128906 -11.824219 C 8.589844 -11.824219 9.609375 -11.003906 9.609375 -9.585938 Z M 9.609375 -9.585938 "/></g></g></g><g fill="rgb(0%, 0%, 0%)" fill-opacity="1"><g transform="translate(97.201949, 233.173488)"><g><path d="M 7.261719 -14.570312 L 2.28125 -14.570312 C 1.769531 -14.570312 1.636719 -14.324219 1.636719 -13.925781 L 1.636719 -0.640625 C 1.636719 -0.132812 1.882812 0 2.28125 0 L 4.472656 0 C 4.871094 0 5.113281 -0.132812 5.113281 -0.640625 L 5.113281 -4.316406 L 7.242188 -4.316406 C 11.027344 -4.316406 13.0625 -6.355469 13.0625 -9.433594 C 13.0625 -12.488281 11.070312 -14.570312 7.261719 -14.570312 Z M 7.242188 -7.308594 L 5.113281 -7.308594 L 5.113281 -11.445312 L 7.242188 -11.445312 C 8.96875 -11.445312 9.71875 -10.515625 9.71875 -9.367188 C 9.71875 -8.257812 8.96875 -7.308594 7.242188 -7.308594 Z M 7.242188 -7.308594 "/></g></g></g><g fill="rgb(0%, 0%, 0%)" fill-opacity="1"><g transform="translate(114.024934, 233.173488)"><g><path d="M 13.085938 -4.671875 L 13.085938 -9.898438 C 13.085938 -13.394531 9.765625 -14.902344 7.128906 -14.902344 C 4.496094 -14.902344 1.21875 -13.394531 1.21875 -9.898438 L 1.21875 -4.671875 C 1.21875 -1.171875 4.496094 0.332031 7.128906 0.332031 C 9.765625 0.332031 13.085938 -1.171875 13.085938 -4.671875 Z M 9.609375 -9.585938 L 9.609375 -4.980469 C 9.609375 -3.566406 8.589844 -2.746094 7.128906 -2.746094 C 5.691406 -2.746094 4.671875 -3.566406 4.671875 -4.980469 L 4.671875 -9.585938 C 4.671875 -11.003906 5.691406 -11.824219 7.128906 -11.824219 C 8.589844 -11.824219 9.609375 -11.003906 9.609375 -9.585938 Z M 9.609375 -9.585938 "/></g></g></g><g fill="rgb(0%, 0%, 0%)" fill-opacity="1"><g transform="translate(131.224196, 233.173488)"><g><path d="M 13.574219 -0.707031 L 10.449219 -5.246094 C 11.824219 -5.710938 13.527344 -7.328125 13.527344 -9.652344 C 13.527344 -11.070312 13.0625 -12.332031 12.246094 -13.128906 C 11.3125 -14.058594 10.25 -14.546875 7.839844 -14.546875 L 2.257812 -14.546875 C 1.75 -14.546875 1.636719 -14.304688 1.636719 -13.90625 L 1.636719 -0.640625 C 1.636719 -0.132812 1.859375 0 2.257812 0 L 4.449219 0 C 4.847656 0 5.09375 -0.132812 5.09375 -0.640625 L 5.09375 -11.445312 L 8.039062 -11.445312 C 9.1875 -11.445312 10.074219 -10.714844 10.074219 -9.566406 C 10.074219 -8.523438 9.054688 -7.773438 7.972656 -7.773438 L 7.527344 -7.773438 C 7.019531 -7.773438 6.886719 -7.527344 6.886719 -7.128906 L 6.886719 -5.359375 C 6.886719 -4.738281 6.929688 -4.496094 7.128906 -4.230469 L 9.519531 -0.664062 C 9.832031 -0.199219 10.097656 0 10.628906 0 L 13.242188 0 C 13.660156 0 13.773438 -0.398438 13.574219 -0.707031 Z M 13.574219 -0.707031 "/></g></g></g><g fill="rgb(0%, 0%, 0%)" fill-opacity="1"><g transform="translate(148.888254, 233.173488)"><g/></g></g><g fill="rgb(0%, 0%, 0%)" fill-opacity="1"><g transform="translate(157.8096, 233.173488)"><g><path d="M 13.261719 -14.570312 L 10.914062 -14.570312 C 10.316406 -14.570312 10.164062 -14.390625 9.984375 -13.859375 L 6.996094 -4.695312 L 3.984375 -13.859375 C 3.808594 -14.390625 3.652344 -14.570312 3.078125 -14.570312 L 0.621094 -14.570312 C 0.199219 -14.570312 0.109375 -14.214844 0.222656 -13.925781 L 4.980469 -0.664062 C 5.246094 -0.0898438 5.402344 0 5.890625 0 L 8.015625 0 C 8.503906 0 8.65625 -0.0898438 8.921875 -0.664062 L 13.660156 -13.925781 C 13.773438 -14.214844 13.683594 -14.570312 13.261719 -14.570312 Z M 13.261719 -14.570312 "/></g></g></g><g fill="rgb(0%, 0%, 0%)" fill-opacity="1"><g transform="translate(174.809658, 233.173488)"><g><path d="M 3.941406 -15.851562 L 6.109375 -15.851562 C 6.664062 -15.851562 6.839844 -16.164062 7.152344 -16.472656 L 9.367188 -18.863281 C 9.566406 -19.0625 9.5 -19.484375 8.945312 -19.484375 L 6.132812 -19.484375 C 5.644531 -19.484375 5.46875 -19.417969 5.136719 -18.863281 L 3.652344 -16.472656 C 3.519531 -16.273438 3.519531 -15.851562 3.941406 -15.851562 Z M 8.769531 -3.101562 L 7.0625 -3.101562 L 7.0625 -11.46875 L 8.390625 -11.46875 C 8.902344 -11.46875 9.035156 -11.710938 9.035156 -12.113281 L 9.035156 -13.925781 C 9.035156 -14.324219 8.902344 -14.570312 8.390625 -14.570312 L 2.234375 -14.570312 C 1.726562 -14.570312 1.59375 -14.324219 1.59375 -13.925781 L 1.59375 -12.113281 C 1.59375 -11.710938 1.726562 -11.46875 2.234375 -11.46875 L 3.585938 -11.46875 L 3.585938 -3.101562 L 1.882812 -3.101562 C 1.371094 -3.101562 1.238281 -2.855469 1.238281 -2.457031 L 1.238281 -0.640625 C 1.238281 -0.242188 1.371094 0 1.882812 0 L 8.769531 0 C 9.277344 0 9.410156 -0.242188 9.410156 -0.640625 L 9.410156 -2.457031 C 9.410156 -2.855469 9.277344 -3.101562 8.769531 -3.101562 Z M 8.769531 -3.101562 "/></g></g></g><g fill="rgb(0%, 0%, 0%)" fill-opacity="1"><g transform="translate(188.44543, 233.173488)"><g><path d="M 13.574219 -0.707031 L 10.449219 -5.246094 C 11.824219 -5.710938 13.527344 -7.328125 13.527344 -9.652344 C 13.527344 -11.070312 13.0625 -12.332031 12.246094 -13.128906 C 11.3125 -14.058594 10.25 -14.546875 7.839844 -14.546875 L 2.257812 -14.546875 C 1.75 -14.546875 1.636719 -14.304688 1.636719 -13.90625 L 1.636719 -0.640625 C 1.636719 -0.132812 1.859375 0 2.257812 0 L 4.449219 0 C 4.847656 0 5.09375 -0.132812 5.09375 -0.640625 L 5.09375 -11.445312 L 8.039062 -11.445312 C 9.1875 -11.445312 10.074219 -10.714844 10.074219 -9.566406 C 10.074219 -8.523438 9.054688 -7.773438 7.972656 -7.773438 L 7.527344 -7.773438 C 7.019531 -7.773438 6.886719 -7.527344 6.886719 -7.128906 L 6.886719 -5.359375 C 6.886719 -4.738281 6.929688 -4.496094 7.128906 -4.230469 L 9.519531 -0.664062 C 9.832031 -0.199219 10.097656 0 10.628906 0 L 13.242188 0 C 13.660156 0 13.773438 -0.398438 13.574219 -0.707031 Z M 13.574219 -0.707031 "/></g></g></g><g fill="rgb(0%, 0%, 0%)" fill-opacity="1"><g transform="translate(206.109492, 233.173488)"><g><path d="M 12.53125 -14.570312 L 10.339844 -14.570312 C 9.941406 -14.570312 9.699219 -14.4375 9.699219 -13.925781 L 9.699219 -4.9375 C 9.699219 -3.542969 8.769531 -2.746094 7.308594 -2.746094 C 5.84375 -2.746094 4.9375 -3.542969 4.9375 -4.9375 L 4.9375 -13.925781 C 4.9375 -14.4375 4.695312 -14.570312 4.296875 -14.570312 L 2.101562 -14.570312 C 1.703125 -14.570312 1.460938 -14.4375 1.460938 -13.925781 L 1.460938 -4.449219 C 1.460938 -0.972656 4.671875 0.332031 7.308594 0.332031 C 9.941406 0.332031 13.175781 -0.972656 13.175781 -4.449219 L 13.175781 -13.925781 C 13.175781 -14.4375 12.929688 -14.570312 12.53125 -14.570312 Z M 12.53125 -14.570312 "/></g></g></g><g fill="rgb(0%, 0%, 0%)" fill-opacity="1"><g transform="translate(223.662884, 233.173488)"><g><path d="M 8.503906 -8.457031 C 7.617188 -8.8125 4.363281 -9.300781 4.363281 -10.648438 C 4.363281 -11.644531 5.578125 -11.933594 6.308594 -11.933594 C 6.972656 -11.933594 7.773438 -11.734375 8.191406 -11.335938 C 8.457031 -11.070312 8.570312 -10.894531 8.65625 -10.671875 C 8.769531 -10.382812 8.835938 -10.074219 9.253906 -10.074219 L 11.425781 -10.074219 C 11.933594 -10.074219 12.066406 -10.164062 12.066406 -10.695312 C 12.066406 -13.617188 8.988281 -14.902344 6.175781 -14.902344 C 3.410156 -14.789062 0.796875 -13.375 0.796875 -10.496094 C 0.796875 -7.683594 2.855469 -6.796875 5.09375 -6.089844 C 6.972656 -5.492188 8.945312 -5.46875 8.945312 -4.230469 C 8.945312 -2.988281 7.972656 -2.722656 6.773438 -2.722656 C 5.957031 -2.722656 5.046875 -2.921875 4.605469 -3.453125 C 4.316406 -3.785156 4.207031 -4.074219 4.183594 -4.363281 C 4.140625 -4.914062 3.898438 -4.980469 3.386719 -4.980469 L 1.238281 -4.980469 C 0.730469 -4.980469 0.597656 -4.871094 0.597656 -4.363281 C 0.597656 -1.261719 3.785156 0.332031 6.554688 0.332031 C 9.964844 0.332031 12.445312 -1.171875 12.445312 -4.316406 C 12.445312 -7.328125 10.097656 -7.972656 8.503906 -8.457031 Z M 8.503906 -8.457031 "/></g></g></g><g fill="rgb(0%, 0%, 0%)" fill-opacity="1"><g transform="translate(239.976797, 233.173488)"><g/></g></g><g fill="rgb(0%, 0%, 0%)" fill-opacity="1"><g transform="translate(248.898143, 233.173488)"><g><path d="M 12.199219 -3.101562 L 5.136719 -3.101562 L 5.136719 -6.023438 L 11.070312 -6.023438 C 11.578125 -6.023438 11.710938 -6.265625 11.710938 -6.664062 L 11.710938 -8.390625 C 11.710938 -8.789062 11.578125 -9.035156 11.070312 -9.035156 L 5.136719 -9.035156 L 5.136719 -11.445312 L 11.824219 -11.445312 C 12.332031 -11.445312 12.464844 -11.691406 12.464844 -12.089844 L 12.464844 -13.925781 C 12.464844 -14.324219 12.332031 -14.570312 11.824219 -14.570312 L 2.28125 -14.570312 C 1.769531 -14.570312 1.636719 -14.324219 1.636719 -13.925781 L 1.636719 -0.640625 C 1.636719 -0.242188 1.769531 0 2.28125 0 L 12.199219 0 C 12.710938 0 12.84375 -0.242188 12.84375 -0.640625 L 12.84375 -2.457031 C 12.84375 -2.855469 12.710938 -3.101562 12.199219 -3.101562 Z M 12.199219 -3.101562 "/></g></g></g><g fill="rgb(0%, 0%, 0%)" fill-opacity="1"><g transform="translate(57.820319, 264.014123)"><g><path d="M 14.703125 -14.589844 L 12.578125 -14.589844 C 11.84375 -14.589844 11.734375 -14.105469 11.578125 -13.839844 L 8.523438 -8.390625 L 5.492188 -13.839844 C 5.3125 -14.105469 5.226562 -14.589844 4.472656 -14.589844 L 2.28125 -14.589844 C 1.769531 -14.589844 1.636719 -14.347656 1.636719 -13.949219 L 1.636719 -0.640625 C 1.636719 -0.132812 1.882812 0 2.28125 0 L 4.472656 0 C 4.871094 0 5.113281 -0.132812 5.113281 -0.640625 L 5.113281 -8.148438 L 7.351562 -4.273438 C 7.460938 -4.097656 7.640625 -3.808594 7.972656 -3.808594 L 9.078125 -3.808594 C 9.410156 -3.808594 9.609375 -4.097656 9.71875 -4.273438 L 11.933594 -8.148438 L 11.933594 -0.640625 C 11.933594 -0.132812 12.179688 0 12.578125 0 L 14.703125 0 C 15.101562 0 15.34375 -0.132812 15.34375 -0.640625 L 15.34375 -13.949219 C 15.34375 -14.347656 15.210938 -14.589844 14.703125 -14.589844 Z M 14.703125 -14.589844 "/></g></g></g><g fill="rgb(0%, 0%, 0%)" fill-opacity="1"><g transform="translate(77.719864, 264.014123)"><g><path d="M 7.972656 -3.035156 L 6.574219 -3.035156 L 6.574219 -11.492188 L 7.90625 -11.492188 C 8.414062 -11.492188 8.546875 -11.734375 8.546875 -12.132812 L 8.546875 -13.925781 C 8.546875 -14.324219 8.414062 -14.570312 7.90625 -14.570312 L 1.75 -14.570312 C 1.238281 -14.570312 1.105469 -14.324219 1.105469 -13.925781 L 1.105469 -12.132812 C 1.105469 -11.734375 1.238281 -11.492188 1.75 -11.492188 L 3.101562 -11.492188 L 3.101562 -3.035156 L 1.703125 -3.035156 C 1.195312 -3.035156 1.0625 -2.789062 1.0625 -2.390625 L 1.0625 -0.640625 C 1.0625 -0.242188 1.195312 0 1.703125 0 L 7.972656 0 C 8.480469 0 8.613281 -0.242188 8.613281 -0.640625 L 8.613281 -2.390625 C 8.613281 -2.789062 8.480469 -3.035156 7.972656 -3.035156 Z M 7.972656 -3.035156 "/></g></g></g><g fill="rgb(0%, 0%, 0%)" fill-opacity="1"><g transform="translate(90.470291, 264.014123)"><g><path d="M 12.863281 -4.316406 C 12.863281 -4.847656 12.6875 -5.070312 12.199219 -5.070312 L 10.03125 -5.070312 C 9.542969 -5.070312 9.5 -4.714844 9.433594 -4.273438 C 9.253906 -3.210938 8.304688 -2.769531 7.105469 -2.769531 C 5.644531 -2.769531 4.648438 -3.566406 4.648438 -4.980469 L 4.648438 -9.585938 C 4.648438 -10.980469 5.644531 -11.800781 7.105469 -11.800781 C 8.304688 -11.800781 8.921875 -11.46875 9.386719 -10.738281 C 9.566406 -10.472656 9.585938 -10.050781 10.050781 -10.050781 L 12.179688 -10.050781 C 12.6875 -10.050781 12.863281 -10.164062 12.863281 -10.695312 C 12.578125 -13.507812 9.851562 -14.902344 7.105469 -14.902344 C 4.472656 -14.902344 1.171875 -13.375 1.171875 -9.898438 L 1.171875 -4.671875 C 1.171875 -1.195312 4.472656 0.332031 7.105469 0.332031 C 9.851562 0.332031 12.863281 -1.460938 12.863281 -4.316406 Z M 12.863281 -4.316406 "/></g></g></g><g fill="rgb(0%, 0%, 0%)" fill-opacity="1"><g transform="translate(107.381809, 264.014123)"><g><path d="M 13.574219 -0.707031 L 10.449219 -5.246094 C 11.824219 -5.710938 13.527344 -7.328125 13.527344 -9.652344 C 13.527344 -11.070312 13.0625 -12.332031 12.246094 -13.128906 C 11.3125 -14.058594 10.25 -14.546875 7.839844 -14.546875 L 2.257812 -14.546875 C 1.75 -14.546875 1.636719 -14.304688 1.636719 -13.90625 L 1.636719 -0.640625 C 1.636719 -0.132812 1.859375 0 2.257812 0 L 4.449219 0 C 4.847656 0 5.09375 -0.132812 5.09375 -0.640625 L 5.09375 -11.445312 L 8.039062 -11.445312 C 9.1875 -11.445312 10.074219 -10.714844 10.074219 -9.566406 C 10.074219 -8.523438 9.054688 -7.773438 7.972656 -7.773438 L 7.527344 -7.773438 C 7.019531 -7.773438 6.886719 -7.527344 6.886719 -7.128906 L 6.886719 -5.359375 C 6.886719 -4.738281 6.929688 -4.496094 7.128906 -4.230469 L 9.519531 -0.664062 C 9.832031 -0.199219 10.097656 0 10.628906 0 L 13.242188 0 C 13.660156 0 13.773438 -0.398438 13.574219 -0.707031 Z M 13.574219 -0.707031 "/></g></g></g><g fill="rgb(0%, 0%, 0%)" fill-opacity="1"><g transform="translate(125.045871, 264.014123)"><g><path d="M 13.085938 -4.671875 L 13.085938 -9.898438 C 13.085938 -13.394531 9.765625 -14.902344 7.128906 -14.902344 C 4.496094 -14.902344 1.21875 -13.394531 1.21875 -9.898438 L 1.21875 -4.671875 C 1.21875 -1.171875 4.496094 0.332031 7.128906 0.332031 C 9.765625 0.332031 13.085938 -1.171875 13.085938 -4.671875 Z M 9.609375 -9.585938 L 9.609375 -4.980469 C 9.609375 -3.566406 8.589844 -2.746094 7.128906 -2.746094 C 5.691406 -2.746094 4.671875 -3.566406 4.671875 -4.980469 L 4.671875 -9.585938 C 4.671875 -11.003906 5.691406 -11.824219 7.128906 -11.824219 C 8.589844 -11.824219 9.609375 -11.003906 9.609375 -9.585938 Z M 9.609375 -9.585938 "/></g></g></g><g fill="rgb(0%, 0%, 0%)" fill-opacity="1"><g transform="translate(142.245135, 264.014123)"><g><path d="M 13.574219 -0.707031 L 10.449219 -5.246094 C 11.824219 -5.710938 13.527344 -7.328125 13.527344 -9.652344 C 13.527344 -11.070312 13.0625 -12.332031 12.246094 -13.128906 C 11.3125 -14.058594 10.25 -14.546875 7.839844 -14.546875 L 2.257812 -14.546875 C 1.75 -14.546875 1.636719 -14.304688 1.636719 -13.90625 L 1.636719 -0.640625 C 1.636719 -0.132812 1.859375 0 2.257812 0 L 4.449219 0 C 4.847656 0 5.09375 -0.132812 5.09375 -0.640625 L 5.09375 -11.445312 L 8.039062 -11.445312 C 9.1875 -11.445312 10.074219 -10.714844 10.074219 -9.566406 C 10.074219 -8.523438 9.054688 -7.773438 7.972656 -7.773438 L 7.527344 -7.773438 C 7.019531 -7.773438 6.886719 -7.527344 6.886719 -7.128906 L 6.886719 -5.359375 C 6.886719 -4.738281 6.929688 -4.496094 7.128906 -4.230469 L 9.519531 -0.664062 C 9.832031 -0.199219 10.097656 0 10.628906 0 L 13.242188 0 C 13.660156 0 13.773438 -0.398438 13.574219 -0.707031 Z M 13.574219 -0.707031 "/></g></g></g><g fill="rgb(0%, 0%, 0%)" fill-opacity="1"><g transform="translate(159.909197, 264.014123)"><g><path d="M 12.464844 -8.125 L 7.617188 -8.125 C 7.105469 -8.125 6.972656 -7.882812 6.972656 -7.484375 L 6.972656 -5.757812 C 6.972656 -5.359375 7.105469 -5.113281 7.617188 -5.113281 L 9.609375 -5.113281 C 9.609375 -3.410156 8.589844 -2.746094 7.152344 -2.746094 C 5.691406 -2.746094 4.714844 -3.566406 4.714844 -4.980469 L 4.714844 -9.433594 C 4.714844 -10.847656 5.691406 -11.824219 7.152344 -11.824219 C 8.636719 -11.824219 9.433594 -11.160156 9.675781 -10.472656 C 9.785156 -10.164062 9.699219 -9.71875 10.316406 -9.71875 L 12.464844 -9.71875 C 12.976562 -9.71875 13.109375 -9.808594 13.109375 -10.339844 C 13.109375 -13.308594 9.917969 -14.902344 7.152344 -14.902344 C 4.539062 -14.902344 1.195312 -13.417969 1.195312 -9.917969 L 1.195312 -4.472656 C 1.195312 -0.996094 4.539062 0.332031 7.152344 0.332031 C 9.675781 0.332031 12.910156 -1.085938 13.109375 -4.273438 L 13.109375 -7.484375 C 13.109375 -7.882812 12.976562 -8.125 12.464844 -8.125 Z M 12.464844 -8.125 "/></g></g></g><g fill="rgb(0%, 0%, 0%)" fill-opacity="1"><g transform="translate(177.130595, 264.014123)"><g><path d="M 14.171875 -0.621094 L 9.277344 -13.882812 C 9.078125 -14.347656 8.855469 -14.570312 8.371094 -14.570312 L 6.242188 -14.570312 C 5.757812 -14.570312 5.511719 -14.347656 5.335938 -13.882812 L 0.421875 -0.621094 C 0.308594 -0.355469 0.308594 0 0.796875 0 L 3.121094 0 C 3.609375 0 3.785156 -0.132812 3.964844 -0.664062 L 4.582031 -2.414062 L 10.007812 -2.414062 L 10.628906 -0.664062 C 10.804688 -0.132812 10.980469 0 11.46875 0 L 13.792969 0 C 14.28125 0 14.28125 -0.355469 14.171875 -0.621094 Z M 7.308594 -10.40625 L 8.96875 -5.511719 L 5.644531 -5.511719 Z M 7.308594 -10.40625 "/></g></g></g><g fill="rgb(0%, 0%, 0%)" fill-opacity="1"><g transform="translate(194.551191, 264.014123)"><g><path d="M 12.820312 -14.570312 L 10.695312 -14.570312 C 10.296875 -14.570312 10.050781 -14.4375 10.050781 -13.925781 L 10.050781 -6.242188 L 5.359375 -13.816406 C 5.070312 -14.257812 4.914062 -14.570312 4.363281 -14.570312 L 2.28125 -14.570312 C 1.769531 -14.570312 1.636719 -14.324219 1.636719 -13.925781 L 1.636719 -0.640625 C 1.636719 -0.132812 1.882812 0 2.28125 0 L 4.472656 0 C 4.871094 0 5.113281 -0.132812 5.113281 -0.640625 L 5.113281 -8.347656 L 9.808594 -0.753906 C 10.097656 -0.308594 10.25 0 10.804688 0 L 12.820312 0 C 13.328125 0 13.460938 -0.242188 13.460938 -0.640625 L 13.460938 -13.925781 C 13.460938 -14.4375 13.21875 -14.570312 12.820312 -14.570312 Z M 12.820312 -14.570312 "/></g></g></g><g fill="rgb(0%, 0%, 0%)" fill-opacity="1"><g transform="translate(212.569398, 264.014123)"><g><path d="M 7.972656 -3.035156 L 6.574219 -3.035156 L 6.574219 -11.492188 L 7.90625 -11.492188 C 8.414062 -11.492188 8.546875 -11.734375 8.546875 -12.132812 L 8.546875 -13.925781 C 8.546875 -14.324219 8.414062 -14.570312 7.90625 -14.570312 L 1.75 -14.570312 C 1.238281 -14.570312 1.105469 -14.324219 1.105469 -13.925781 L 1.105469 -12.132812 C 1.105469 -11.734375 1.238281 -11.492188 1.75 -11.492188 L 3.101562 -11.492188 L 3.101562 -3.035156 L 1.703125 -3.035156 C 1.195312 -3.035156 1.0625 -2.789062 1.0625 -2.390625 L 1.0625 -0.640625 C 1.0625 -0.242188 1.195312 0 1.703125 0 L 7.972656 0 C 8.480469 0 8.613281 -0.242188 8.613281 -0.640625 L 8.613281 -2.390625 C 8.613281 -2.789062 8.480469 -3.035156 7.972656 -3.035156 Z M 7.972656 -3.035156 "/></g></g></g><g fill="rgb(0%, 0%, 0%)" fill-opacity="1"><g transform="translate(225.319827, 264.014123)"><g><path d="M 8.503906 -8.457031 C 7.617188 -8.8125 4.363281 -9.300781 4.363281 -10.648438 C 4.363281 -11.644531 5.578125 -11.933594 6.308594 -11.933594 C 6.972656 -11.933594 7.773438 -11.734375 8.191406 -11.335938 C 8.457031 -11.070312 8.570312 -10.894531 8.65625 -10.671875 C 8.769531 -10.382812 8.835938 -10.074219 9.253906 -10.074219 L 11.425781 -10.074219 C 11.933594 -10.074219 12.066406 -10.164062 12.066406 -10.695312 C 12.066406 -13.617188 8.988281 -14.902344 6.175781 -14.902344 C 3.410156 -14.789062 0.796875 -13.375 0.796875 -10.496094 C 0.796875 -7.683594 2.855469 -6.796875 5.09375 -6.089844 C 6.972656 -5.492188 8.945312 -5.46875 8.945312 -4.230469 C 8.945312 -2.988281 7.972656 -2.722656 6.773438 -2.722656 C 5.957031 -2.722656 5.046875 -2.921875 4.605469 -3.453125 C 4.316406 -3.785156 4.207031 -4.074219 4.183594 -4.363281 C 4.140625 -4.914062 3.898438 -4.980469 3.386719 -4.980469 L 1.238281 -4.980469 C 0.730469 -4.980469 0.597656 -4.871094 0.597656 -4.363281 C 0.597656 -1.261719 3.785156 0.332031 6.554688 0.332031 C 9.964844 0.332031 12.445312 -1.171875 12.445312 -4.316406 C 12.445312 -7.328125 10.097656 -7.972656 8.503906 -8.457031 Z M 8.503906 -8.457031 "/></g></g></g><g fill="rgb(0%, 0%, 0%)" fill-opacity="1"><g transform="translate(241.633747, 264.014123)"><g><path d="M 14.703125 -14.589844 L 12.578125 -14.589844 C 11.84375 -14.589844 11.734375 -14.105469 11.578125 -13.839844 L 8.523438 -8.390625 L 5.492188 -13.839844 C 5.3125 -14.105469 5.226562 -14.589844 4.472656 -14.589844 L 2.28125 -14.589844 C 1.769531 -14.589844 1.636719 -14.347656 1.636719 -13.949219 L 1.636719 -0.640625 C 1.636719 -0.132812 1.882812 0 2.28125 0 L 4.472656 0 C 4.871094 0 5.113281 -0.132812 5.113281 -0.640625 L 5.113281 -8.148438 L 7.351562 -4.273438 C 7.460938 -4.097656 7.640625 -3.808594 7.972656 -3.808594 L 9.078125 -3.808594 C 9.410156 -3.808594 9.609375 -4.097656 9.71875 -4.273438 L 11.933594 -8.148438 L 11.933594 -0.640625 C 11.933594 -0.132812 12.179688 0 12.578125 0 L 14.703125 0 C 15.101562 0 15.34375 -0.132812 15.34375 -0.640625 L 15.34375 -13.949219 C 15.34375 -14.347656 15.210938 -14.589844 14.703125 -14.589844 Z M 14.703125 -14.589844 "/></g></g></g><g fill="rgb(0%, 0%, 0%)" fill-opacity="1"><g transform="translate(261.533294, 264.014123)"><g><path d="M 13.085938 -4.671875 L 13.085938 -9.898438 C 13.085938 -13.394531 9.765625 -14.902344 7.128906 -14.902344 C 4.496094 -14.902344 1.21875 -13.394531 1.21875 -9.898438 L 1.21875 -4.671875 C 1.21875 -1.171875 4.496094 0.332031 7.128906 0.332031 C 9.765625 0.332031 13.085938 -1.171875 13.085938 -4.671875 Z M 9.609375 -9.585938 L 9.609375 -4.980469 C 9.609375 -3.566406 8.589844 -2.746094 7.128906 -2.746094 C 5.691406 -2.746094 4.671875 -3.566406 4.671875 -4.980469 L 4.671875 -9.585938 C 4.671875 -11.003906 5.691406 -11.824219 7.128906 -11.824219 C 8.589844 -11.824219 9.609375 -11.003906 9.609375 -9.585938 Z M 9.609375 -9.585938 "/></g></g></g><g fill="rgb(0%, 0%, 0%)" fill-opacity="1"><g transform="translate(278.732558, 264.014123)"><g><path d="M 8.503906 -8.457031 C 7.617188 -8.8125 4.363281 -9.300781 4.363281 -10.648438 C 4.363281 -11.644531 5.578125 -11.933594 6.308594 -11.933594 C 6.972656 -11.933594 7.773438 -11.734375 8.191406 -11.335938 C 8.457031 -11.070312 8.570312 -10.894531 8.65625 -10.671875 C 8.769531 -10.382812 8.835938 -10.074219 9.253906 -10.074219 L 11.425781 -10.074219 C 11.933594 -10.074219 12.066406 -10.164062 12.066406 -10.695312 C 12.066406 -13.617188 8.988281 -14.902344 6.175781 -14.902344 C 3.410156 -14.789062 0.796875 -13.375 0.796875 -10.496094 C 0.796875 -7.683594 2.855469 -6.796875 5.09375 -6.089844 C 6.972656 -5.492188 8.945312 -5.46875 8.945312 -4.230469 C 8.945312 -2.988281 7.972656 -2.722656 6.773438 -2.722656 C 5.957031 -2.722656 5.046875 -2.921875 4.605469 -3.453125 C 4.316406 -3.785156 4.207031 -4.074219 4.183594 -4.363281 C 4.140625 -4.914062 3.898438 -4.980469 3.386719 -4.980469 L 1.238281 -4.980469 C 0.730469 -4.980469 0.597656 -4.871094 0.597656 -4.363281 C 0.597656 -1.261719 3.785156 0.332031 6.554688 0.332031 C 9.964844 0.332031 12.445312 -1.171875 12.445312 -4.316406 C 12.445312 -7.328125 10.097656 -7.972656 8.503906 -8.457031 Z M 8.503906 -8.457031 "/></g></g></g><g fill="rgb(0%, 0%, 0%)" fill-opacity="1"><g transform="translate(295.046479, 264.014123)"><g><path d="M 3.121094 -4.582031 L 4.207031 -4.582031 C 4.714844 -4.582031 4.761719 -4.648438 4.828125 -5.226562 C 5.777344 -13.972656 5.800781 -14.039062 5.800781 -14.105469 C 5.800781 -14.503906 5.601562 -14.570312 5.136719 -14.570312 L 2.167969 -14.570312 C 1.726562 -14.570312 1.527344 -14.480469 1.527344 -14.105469 C 1.527344 -14.039062 1.550781 -13.972656 2.480469 -5.226562 C 2.546875 -4.671875 2.589844 -4.582031 3.121094 -4.582031 Z M 4.894531 -3.742188 L 2.4375 -3.742188 C 2.035156 -3.742188 1.792969 -3.609375 1.792969 -3.101562 L 1.792969 -0.640625 C 1.792969 -0.132812 2.035156 0 2.4375 0 L 4.894531 0 C 5.292969 0 5.535156 -0.132812 5.535156 -0.640625 L 5.535156 -3.101562 C 5.535156 -3.609375 5.292969 -3.742188 4.894531 -3.742188 Z M 4.894531 -3.742188 "/></g></g></g></svg>