<svg xmlns="http://www.w3.org/2000/svg" xmlns:xlink="http://www.w3.org/1999/xlink" width="480" zoomAndPan="magnify" viewBox="0 0 360 359.999987" height="480" preserveAspectRatio="xMidYMid meet" version="1.0"><defs><g/></defs><path fill="rgb(35.688782%, 93.728638%, 82.348633%)" d="M 180.019531 0 C 80.597656 0 0 80.597656 0 180.019531 C 0 279.441406 80.597656 360.039062 180.019531 360.039062 C 279.441406 360.039062 360.039062 279.441406 360.039062 180.019531 C 360.039062 80.597656 279.441406 0 180.019531 0 " fill-opacity="1" fill-rule="nonzero"/><g fill="rgb(0%, 0%, 0%)" fill-opacity="1"><g transform="translate(69.163321, 131.718242)"><g><path d="M 16.054688 -5.734375 L 16.054688 -12.144531 C 16.054688 -16.4375 11.980469 -18.285156 8.75 -18.285156 C 5.515625 -18.285156 1.496094 -16.4375 1.496094 -12.144531 L 1.496094 -5.734375 C 1.496094 -1.441406 5.515625 0.40625 8.75 0.40625 C 11.980469 0.40625 16.054688 -1.441406 16.054688 -5.734375 Z M 11.792969 -11.765625 L 11.792969 -6.113281 C 11.792969 -4.375 10.542969 -3.367188 8.75 -3.367188 C 6.980469 -3.367188 5.734375 -4.375 5.734375 -6.113281 L 5.734375 -11.765625 C 5.734375 -13.503906 6.980469 -14.507812 8.75 -14.507812 C 10.542969 -14.507812 11.792969 -13.503906 11.792969 -11.765625 Z M 11.792969 -11.765625 "/></g></g></g><g fill="rgb(0%, 0%, 0%)" fill-opacity="1"><g transform="translate(90.267368, 131.718242)"><g/></g></g><g fill="rgb(0%, 0%, 0%)" fill-opacity="1"><g transform="translate(101.214142, 131.718242)"><g><path d="M 2.582031 -9.726562 L 5.597656 -9.726562 C 6.085938 -9.726562 6.382812 -9.890625 6.382812 -10.515625 L 6.382812 -13.53125 C 6.382812 -14.15625 6.085938 -14.316406 5.597656 -14.316406 L 4.78125 -14.316406 L 6.25 -17.117188 C 6.464844 -17.46875 6.355469 -17.875 6.003906 -17.875 L 4.265625 -17.875 C 3.914062 -17.875 3.722656 -17.714844 3.53125 -17.386719 L 1.984375 -14.234375 C 1.820312 -13.800781 1.792969 -13.558594 1.792969 -12.960938 L 1.792969 -10.515625 C 1.792969 -9.890625 2.09375 -9.726562 2.582031 -9.726562 Z M 9.238281 -9.726562 L 12.253906 -9.726562 C 12.742188 -9.726562 13.039062 -9.890625 13.039062 -10.515625 L 13.039062 -13.53125 C 13.039062 -14.15625 12.742188 -14.316406 12.253906 -14.316406 L 11.4375 -14.316406 L 12.933594 -17.117188 C 13.121094 -17.46875 13.011719 -17.875 12.660156 -17.875 L 10.921875 -17.875 C 10.570312 -17.875 10.378906 -17.714844 10.1875 -17.386719 L 8.640625 -14.234375 C 8.476562 -13.800781 8.449219 -13.558594 8.449219 -12.960938 L 8.449219 -10.515625 C 8.449219 -9.890625 8.75 -9.726562 9.238281 -9.726562 Z M 9.238281 -9.726562 "/></g></g></g><g fill="rgb(0%, 0%, 0%)" fill-opacity="1"><g transform="translate(119.629493, 131.718242)"><g><path d="M 15.785156 -5.296875 C 15.785156 -5.949219 15.566406 -6.222656 14.96875 -6.222656 L 12.308594 -6.222656 C 11.710938 -6.222656 11.65625 -5.785156 11.574219 -5.242188 C 11.355469 -3.9375 10.1875 -3.394531 8.722656 -3.394531 C 6.929688 -3.394531 5.707031 -4.375 5.707031 -6.113281 L 5.707031 -11.765625 C 5.707031 -13.476562 6.929688 -14.480469 8.722656 -14.480469 C 10.1875 -14.480469 10.949219 -14.074219 11.519531 -13.175781 C 11.738281 -12.851562 11.765625 -12.335938 12.335938 -12.335938 L 14.941406 -12.335938 C 15.566406 -12.335938 15.785156 -12.46875 15.785156 -13.121094 C 15.429688 -16.574219 12.089844 -18.285156 8.722656 -18.285156 C 5.488281 -18.285156 1.441406 -16.410156 1.441406 -12.144531 L 1.441406 -5.734375 C 1.441406 -1.46875 5.488281 0.40625 8.722656 0.40625 C 12.089844 0.40625 15.785156 -1.792969 15.785156 -5.296875 Z M 15.785156 -5.296875 "/></g></g></g><g fill="rgb(0%, 0%, 0%)" fill-opacity="1"><g transform="translate(140.380473, 131.718242)"><g><path d="M 15.8125 -17.875 L 13.121094 -17.875 C 12.632812 -17.875 12.335938 -17.714844 12.335938 -17.089844 L 12.335938 -10.949219 L 6.277344 -10.949219 L 6.277344 -17.089844 C 6.277344 -17.714844 6.003906 -17.875 5.488281 -17.875 L 2.796875 -17.875 C 2.308594 -17.875 2.011719 -17.714844 2.011719 -17.089844 L 2.011719 -0.789062 C 2.011719 -0.164062 2.308594 0 2.796875 0 L 5.488281 0 C 6.003906 0 6.277344 -0.164062 6.277344 -0.789062 L 6.277344 -6.929688 L 12.335938 -6.929688 L 12.335938 -0.789062 C 12.335938 -0.164062 12.632812 0 13.121094 0 L 15.8125 0 C 16.300781 0 16.601562 -0.164062 16.601562 -0.789062 L 16.601562 -17.089844 C 16.601562 -17.714844 16.300781 -17.875 15.8125 -17.875 Z M 15.8125 -17.875 "/></g></g></g><g fill="rgb(0%, 0%, 0%)" fill-opacity="1"><g transform="translate(162.570867, 131.718242)"><g><path d="M 14.96875 -3.804688 L 6.304688 -3.804688 L 6.304688 -7.390625 L 13.585938 -7.390625 C 14.210938 -7.390625 14.371094 -7.6875 14.371094 -8.175781 L 14.371094 -10.296875 C 14.371094 -10.785156 14.210938 -11.085938 13.585938 -11.085938 L 6.304688 -11.085938 L 6.304688 -14.046875 L 14.507812 -14.046875 C 15.132812 -14.046875 15.296875 -14.34375 15.296875 -14.832031 L 15.296875 -17.089844 C 15.296875 -17.578125 15.132812 -17.875 14.507812 -17.875 L 2.796875 -17.875 C 2.171875 -17.875 2.011719 -17.578125 2.011719 -17.089844 L 2.011719 -0.789062 C 2.011719 -0.300781 2.171875 0 2.796875 0 L 14.96875 0 C 15.59375 0 15.757812 -0.300781 15.757812 -0.789062 L 15.757812 -3.015625 C 15.757812 -3.503906 15.59375 -3.804688 14.96875 -3.804688 Z M 14.96875 -3.804688 "/></g></g></g><g fill="rgb(0%, 0%, 0%)" fill-opacity="1"><g transform="translate(183.186052, 131.718242)"><g><path d="M 9.78125 -3.722656 L 8.070312 -3.722656 L 8.070312 -14.101562 L 9.699219 -14.101562 C 10.324219 -14.101562 10.488281 -14.398438 10.488281 -14.886719 L 10.488281 -17.089844 C 10.488281 -17.578125 10.324219 -17.875 9.699219 -17.875 L 2.144531 -17.875 C 1.519531 -17.875 1.359375 -17.578125 1.359375 -17.089844 L 1.359375 -14.886719 C 1.359375 -14.398438 1.519531 -14.101562 2.144531 -14.101562 L 3.804688 -14.101562 L 3.804688 -3.722656 L 2.09375 -3.722656 C 1.46875 -3.722656 1.304688 -3.421875 1.304688 -2.933594 L 1.304688 -0.789062 C 1.304688 -0.300781 1.46875 0 2.09375 0 L 9.78125 0 C 10.40625 0 10.570312 -0.300781 10.570312 -0.789062 L 10.570312 -2.933594 C 10.570312 -3.421875 10.40625 -3.722656 9.78125 -3.722656 Z M 9.78125 -3.722656 "/></g></g></g><g fill="rgb(0%, 0%, 0%)" fill-opacity="1"><g transform="translate(198.831237, 131.718242)"><g><path d="M 16.652344 -0.871094 L 12.824219 -6.4375 C 14.507812 -7.007812 16.601562 -8.992188 16.601562 -11.84375 C 16.601562 -13.585938 16.027344 -15.132812 15.023438 -16.109375 C 13.882812 -17.25 12.578125 -17.847656 9.617188 -17.847656 L 2.769531 -17.847656 C 2.144531 -17.847656 2.011719 -17.550781 2.011719 -17.0625 L 2.011719 -0.789062 C 2.011719 -0.164062 2.28125 0 2.769531 0 L 5.460938 0 C 5.949219 0 6.25 -0.164062 6.25 -0.789062 L 6.25 -14.046875 L 9.863281 -14.046875 C 11.273438 -14.046875 12.363281 -13.148438 12.363281 -11.738281 C 12.363281 -10.460938 11.113281 -9.535156 9.78125 -9.535156 L 9.238281 -9.535156 C 8.613281 -9.535156 8.449219 -9.238281 8.449219 -8.75 L 8.449219 -6.574219 C 8.449219 -5.8125 8.503906 -5.515625 8.75 -5.1875 L 11.683594 -0.816406 C 12.0625 -0.246094 12.390625 0 13.039062 0 L 16.246094 0 C 16.761719 0 16.898438 -0.488281 16.652344 -0.871094 Z M 16.652344 -0.871094 "/></g></g></g><g fill="rgb(0%, 0%, 0%)" fill-opacity="1"><g transform="translate(220.505607, 131.718242)"><g><path d="M 16.054688 -5.734375 L 16.054688 -12.144531 C 16.054688 -16.4375 11.980469 -18.285156 8.75 -18.285156 C 5.515625 -18.285156 1.496094 -16.4375 1.496094 -12.144531 L 1.496094 -5.734375 C 1.496094 -1.441406 5.515625 0.40625 8.75 0.40625 C 11.980469 0.40625 16.054688 -1.441406 16.054688 -5.734375 Z M 11.792969 -11.765625 L 11.792969 -6.113281 C 11.792969 -4.375 10.542969 -3.367188 8.75 -3.367188 C 6.980469 -3.367188 5.734375 -4.375 5.734375 -6.113281 L 5.734375 -11.765625 C 5.734375 -13.503906 6.980469 -14.507812 8.75 -14.507812 C 10.542969 -14.507812 11.792969 -13.503906 11.792969 -11.765625 Z M 11.792969 -11.765625 "/></g></g></g><g fill="rgb(0%, 0%, 0%)" fill-opacity="1"><g transform="translate(241.609646, 131.718242)"><g/></g></g><g fill="rgb(0%, 0%, 0%)" fill-opacity="1"><g transform="translate(252.556424, 131.718242)"><g><path d="M 8.882812 -17.875 L 2.796875 -17.875 C 2.171875 -17.875 2.011719 -17.578125 2.011719 -17.089844 L 2.011719 -0.789062 C 2.011719 -0.300781 2.171875 0 2.796875 0 L 8.882812 0 C 12.117188 0 16.191406 -1.847656 16.191406 -6.113281 L 16.191406 -11.765625 C 16.191406 -16.003906 12.117188 -17.875 8.882812 -17.875 Z M 11.925781 -11.382812 L 11.925781 -6.492188 C 11.925781 -4.753906 10.675781 -3.777344 8.882812 -3.777344 L 6.277344 -3.777344 L 6.277344 -14.101562 L 8.882812 -14.101562 C 10.675781 -14.101562 11.925781 -13.09375 11.925781 -11.382812 Z M 11.925781 -11.382812 "/></g></g></g><g fill="rgb(0%, 0%, 0%)" fill-opacity="1"><g transform="translate(273.796268, 131.718242)"><g><path d="M 14.96875 -3.804688 L 6.304688 -3.804688 L 6.304688 -7.390625 L 13.585938 -7.390625 C 14.210938 -7.390625 14.371094 -7.6875 14.371094 -8.175781 L 14.371094 -10.296875 C 14.371094 -10.785156 14.210938 -11.085938 13.585938 -11.085938 L 6.304688 -11.085938 L 6.304688 -14.046875 L 14.507812 -14.046875 C 15.132812 -14.046875 15.296875 -14.34375 15.296875 -14.832031 L 15.296875 -17.089844 C 15.296875 -17.578125 15.132812 -17.875 14.507812 -17.875 L 2.796875 -17.875 C 2.171875 -17.875 2.011719 -17.578125 2.011719 -17.089844 L 2.011719 -0.789062 C 2.011719 -0.300781 2.171875 0 2.796875 0 L 14.96875 0 C 15.59375 0 15.757812 -0.300781 15.757812 -0.789062 L 15.757812 -3.015625 C 15.757812 -3.503906 15.59375 -3.804688 14.96875 -3.804688 Z M 14.96875 -3.804688 "/></g></g></g><g fill="rgb(0%, 0%, 0%)" fill-opacity="1"><g transform="translate(103.437651, 169.56069)"><g><path d="M 15.785156 -5.296875 C 15.785156 -5.949219 15.566406 -6.222656 14.96875 -6.222656 L 12.308594 -6.222656 C 11.710938 -6.222656 11.65625 -5.785156 11.574219 -5.242188 C 11.355469 -3.9375 10.1875 -3.394531 8.722656 -3.394531 C 6.929688 -3.394531 5.707031 -4.375 5.707031 -6.113281 L 5.707031 -11.765625 C 5.707031 -13.476562 6.929688 -14.480469 8.722656 -14.480469 C 10.1875 -14.480469 10.949219 -14.074219 11.519531 -13.175781 C 11.738281 -12.851562 11.765625 -12.335938 12.335938 -12.335938 L 14.941406 -12.335938 C 15.566406 -12.335938 15.785156 -12.46875 15.785156 -13.121094 C 15.429688 -16.574219 12.089844 -18.285156 8.722656 -18.285156 C 5.488281 -18.285156 1.441406 -16.410156 1.441406 -12.144531 L 1.441406 -5.734375 C 1.441406 -1.46875 5.488281 0.40625 8.722656 0.40625 C 12.089844 0.40625 15.785156 -1.792969 15.785156 -5.296875 Z M 15.785156 -5.296875 "/></g></g></g><g fill="rgb(0%, 0%, 0%)" fill-opacity="1"><g transform="translate(124.188628, 169.56069)"><g><path d="M 15.8125 -17.875 L 13.121094 -17.875 C 12.632812 -17.875 12.335938 -17.714844 12.335938 -17.089844 L 12.335938 -10.949219 L 6.277344 -10.949219 L 6.277344 -17.089844 C 6.277344 -17.714844 6.003906 -17.875 5.488281 -17.875 L 2.796875 -17.875 C 2.308594 -17.875 2.011719 -17.714844 2.011719 -17.089844 L 2.011719 -0.789062 C 2.011719 -0.164062 2.308594 0 2.796875 0 L 5.488281 0 C 6.003906 0 6.277344 -0.164062 6.277344 -0.789062 L 6.277344 -6.929688 L 12.335938 -6.929688 L 12.335938 -0.789062 C 12.335938 -0.164062 12.632812 0 13.121094 0 L 15.8125 0 C 16.300781 0 16.601562 -0.164062 16.601562 -0.789062 L 16.601562 -17.089844 C 16.601562 -17.714844 16.300781 -17.875 15.8125 -17.875 Z M 15.8125 -17.875 "/></g></g></g><g fill="rgb(0%, 0%, 0%)" fill-opacity="1"><g transform="translate(146.37902, 169.56069)"><g><path d="M 15.378906 -17.875 L 12.6875 -17.875 C 12.199219 -17.875 11.898438 -17.714844 11.898438 -17.089844 L 11.898438 -6.058594 C 11.898438 -4.347656 10.757812 -3.367188 8.964844 -3.367188 C 7.171875 -3.367188 6.058594 -4.347656 6.058594 -6.058594 L 6.058594 -17.089844 C 6.058594 -17.714844 5.757812 -17.875 5.269531 -17.875 L 2.582031 -17.875 C 2.09375 -17.875 1.792969 -17.714844 1.792969 -17.089844 L 1.792969 -5.460938 C 1.792969 -1.195312 5.734375 0.40625 8.964844 0.40625 C 12.199219 0.40625 16.164062 -1.195312 16.164062 -5.460938 L 16.164062 -17.089844 C 16.164062 -17.714844 15.867188 -17.875 15.378906 -17.875 Z M 15.378906 -17.875 "/></g></g></g><g fill="rgb(0%, 0%, 0%)" fill-opacity="1"><g transform="translate(167.91759, 169.56069)"><g><path d="M 16.273438 -17.875 L 13.394531 -17.875 C 12.660156 -17.875 12.46875 -17.660156 12.253906 -17.007812 L 8.585938 -5.757812 L 4.890625 -17.007812 C 4.671875 -17.660156 4.484375 -17.875 3.777344 -17.875 L 0.761719 -17.875 C 0.246094 -17.875 0.136719 -17.441406 0.273438 -17.089844 L 6.113281 -0.816406 C 6.4375 -0.109375 6.628906 0 7.226562 0 L 9.835938 0 C 10.433594 0 10.621094 -0.109375 10.949219 -0.816406 L 16.761719 -17.089844 C 16.898438 -17.441406 16.789062 -17.875 16.273438 -17.875 Z M 16.273438 -17.875 "/></g></g></g><g fill="rgb(0%, 0%, 0%)" fill-opacity="1"><g transform="translate(188.777206, 169.56069)"><g><path d="M 17.386719 -0.761719 L 11.382812 -17.035156 C 11.140625 -17.605469 10.867188 -17.875 10.269531 -17.875 L 7.660156 -17.875 C 7.0625 -17.875 6.765625 -17.605469 6.546875 -17.035156 L 0.515625 -0.761719 C 0.378906 -0.433594 0.378906 0 0.976562 0 L 3.832031 0 C 4.429688 0 4.644531 -0.164062 4.863281 -0.816406 L 5.625 -2.960938 L 12.28125 -2.960938 L 13.039062 -0.816406 C 13.257812 -0.164062 13.476562 0 14.074219 0 L 16.925781 0 C 17.523438 0 17.523438 -0.433594 17.386719 -0.761719 Z M 8.964844 -12.769531 L 11.003906 -6.765625 L 6.929688 -6.765625 Z M 8.964844 -12.769531 "/></g></g></g><g fill="rgb(0%, 0%, 0%)" fill-opacity="1"><g transform="translate(210.152846, 169.56069)"><g><path d="M 5.597656 -17.875 L 2.582031 -17.875 C 2.09375 -17.875 1.792969 -17.714844 1.792969 -17.089844 L 1.792969 -14.074219 C 1.792969 -13.449219 2.09375 -13.285156 2.582031 -13.285156 L 3.394531 -13.285156 L 1.902344 -10.488281 C 1.710938 -10.132812 1.820312 -9.726562 2.171875 -9.726562 L 3.914062 -9.726562 C 4.265625 -9.726562 4.457031 -9.890625 4.644531 -10.214844 L 6.195312 -13.367188 C 6.355469 -13.800781 6.382812 -14.046875 6.382812 -14.644531 L 6.382812 -17.089844 C 6.382812 -17.714844 6.085938 -17.875 5.597656 -17.875 Z M 12.253906 -17.875 L 9.238281 -17.875 C 8.75 -17.875 8.449219 -17.714844 8.449219 -17.089844 L 8.449219 -14.074219 C 8.449219 -13.449219 8.75 -13.285156 9.238281 -13.285156 L 10.050781 -13.285156 L 8.585938 -10.488281 C 8.367188 -10.132812 8.476562 -9.726562 8.828125 -9.726562 L 10.570312 -9.726562 C 10.921875 -9.726562 11.113281 -9.890625 11.300781 -10.214844 L 12.851562 -13.367188 C 13.011719 -13.800781 13.039062 -14.046875 13.039062 -14.644531 L 13.039062 -17.089844 C 13.039062 -17.714844 12.742188 -17.875 12.253906 -17.875 Z M 12.253906 -17.875 "/></g></g></g><g fill="rgb(0%, 0%, 0%)" fill-opacity="1"><g transform="translate(228.568202, 169.56069)"><g/></g></g><g fill="rgb(0%, 0%, 0%)" fill-opacity="1"><g transform="translate(239.514979, 169.56069)"><g><path d="M 6.902344 -19.453125 L 9.5625 -19.453125 C 10.242188 -19.453125 10.460938 -19.832031 10.839844 -20.214844 L 13.558594 -23.148438 C 13.800781 -23.390625 13.71875 -23.90625 13.039062 -23.90625 L 9.589844 -23.90625 C 8.992188 -23.90625 8.773438 -23.828125 8.367188 -23.148438 L 6.546875 -20.214844 C 6.382812 -19.96875 6.382812 -19.453125 6.902344 -19.453125 Z M 14.96875 -3.804688 L 6.304688 -3.804688 L 6.304688 -7.390625 L 13.585938 -7.390625 C 14.210938 -7.390625 14.371094 -7.6875 14.371094 -8.175781 L 14.371094 -10.296875 C 14.371094 -10.785156 14.210938 -11.085938 13.585938 -11.085938 L 6.304688 -11.085938 L 6.304688 -14.046875 L 14.507812 -14.046875 C 15.132812 -14.046875 15.296875 -14.34375 15.296875 -14.832031 L 15.296875 -17.089844 C 15.296875 -17.578125 15.132812 -17.875 14.507812 -17.875 L 2.796875 -17.875 C 2.171875 -17.875 2.011719 -17.578125 2.011719 -17.089844 L 2.011719 -0.789062 C 2.011719 -0.300781 2.171875 0 2.796875 0 L 14.96875 0 C 15.59375 0 15.757812 -0.300781 15.757812 -0.789062 L 15.757812 -3.015625 C 15.757812 -3.503906 15.59375 -3.804688 14.96875 -3.804688 Z M 14.96875 -3.804688 "/></g></g></g><g fill="rgb(0%, 0%, 0%)" fill-opacity="1"><g transform="translate(70.896408, 207.403138)"><g><path d="M 15.785156 -5.296875 C 15.785156 -5.949219 15.566406 -6.222656 14.96875 -6.222656 L 12.308594 -6.222656 C 11.710938 -6.222656 11.65625 -5.785156 11.574219 -5.242188 C 11.355469 -3.9375 10.1875 -3.394531 8.722656 -3.394531 C 6.929688 -3.394531 5.707031 -4.375 5.707031 -6.113281 L 5.707031 -11.765625 C 5.707031 -13.476562 6.929688 -14.480469 8.722656 -14.480469 C 10.1875 -14.480469 10.949219 -14.074219 11.519531 -13.175781 C 11.738281 -12.851562 11.765625 -12.335938 12.335938 -12.335938 L 14.941406 -12.335938 C 15.566406 -12.335938 15.785156 -12.46875 15.785156 -13.121094 C 15.429688 -16.574219 12.089844 -18.285156 8.722656 -18.285156 C 5.488281 -18.285156 1.441406 -16.410156 1.441406 -12.144531 L 1.441406 -5.734375 C 1.441406 -1.46875 5.488281 0.40625 8.722656 0.40625 C 12.089844 0.40625 15.785156 -1.792969 15.785156 -5.296875 Z M 15.785156 -5.296875 "/></g></g></g><g fill="rgb(0%, 0%, 0%)" fill-opacity="1"><g transform="translate(91.647385, 207.403138)"><g><path d="M 17.386719 -0.761719 L 11.382812 -17.035156 C 11.140625 -17.605469 10.867188 -17.875 10.269531 -17.875 L 7.660156 -17.875 C 7.0625 -17.875 6.765625 -17.605469 6.546875 -17.035156 L 0.515625 -0.761719 C 0.378906 -0.433594 0.378906 0 0.976562 0 L 3.832031 0 C 4.429688 0 4.644531 -0.164062 4.863281 -0.816406 L 5.625 -2.960938 L 12.28125 -2.960938 L 13.039062 -0.816406 C 13.257812 -0.164062 13.476562 0 14.074219 0 L 16.925781 0 C 17.523438 0 17.523438 -0.433594 17.386719 -0.761719 Z M 8.964844 -12.769531 L 11.003906 -6.765625 L 6.929688 -6.765625 Z M 8.964844 -12.769531 "/></g></g></g><g fill="rgb(0%, 0%, 0%)" fill-opacity="1"><g transform="translate(113.023022, 207.403138)"><g><path d="M 15.378906 -17.875 L 12.6875 -17.875 C 12.199219 -17.875 11.898438 -17.714844 11.898438 -17.089844 L 11.898438 -6.058594 C 11.898438 -4.347656 10.757812 -3.367188 8.964844 -3.367188 C 7.171875 -3.367188 6.058594 -4.347656 6.058594 -6.058594 L 6.058594 -17.089844 C 6.058594 -17.714844 5.757812 -17.875 5.269531 -17.875 L 2.582031 -17.875 C 2.09375 -17.875 1.792969 -17.714844 1.792969 -17.089844 L 1.792969 -5.460938 C 1.792969 -1.195312 5.734375 0.40625 8.964844 0.40625 C 12.199219 0.40625 16.164062 -1.195312 16.164062 -5.460938 L 16.164062 -17.089844 C 16.164062 -17.714844 15.867188 -17.875 15.378906 -17.875 Z M 15.378906 -17.875 "/></g></g></g><g fill="rgb(0%, 0%, 0%)" fill-opacity="1"><g transform="translate(134.561592, 207.403138)"><g><path d="M 10.433594 -10.378906 C 9.347656 -10.8125 5.351562 -11.410156 5.351562 -13.066406 C 5.351562 -14.289062 6.847656 -14.644531 7.742188 -14.644531 C 8.558594 -14.644531 9.535156 -14.398438 10.050781 -13.910156 C 10.378906 -13.585938 10.515625 -13.367188 10.621094 -13.09375 C 10.757812 -12.742188 10.839844 -12.363281 11.355469 -12.363281 L 14.019531 -12.363281 C 14.644531 -12.363281 14.808594 -12.46875 14.808594 -13.121094 C 14.808594 -16.707031 11.03125 -18.285156 7.578125 -18.285156 C 4.183594 -18.148438 0.976562 -16.410156 0.976562 -12.878906 C 0.976562 -9.425781 3.503906 -8.339844 6.25 -7.472656 C 8.558594 -6.738281 10.976562 -6.710938 10.976562 -5.1875 C 10.976562 -3.667969 9.78125 -3.339844 8.3125 -3.339844 C 7.308594 -3.339844 6.195312 -3.585938 5.652344 -4.238281 C 5.296875 -4.644531 5.160156 -5 5.136719 -5.351562 C 5.082031 -6.03125 4.78125 -6.113281 4.15625 -6.113281 L 1.519531 -6.113281 C 0.898438 -6.113281 0.734375 -5.976562 0.734375 -5.351562 C 0.734375 -1.546875 4.644531 0.40625 8.042969 0.40625 C 12.226562 0.40625 15.269531 -1.441406 15.269531 -5.296875 C 15.269531 -8.992188 12.390625 -9.78125 10.433594 -10.378906 Z M 10.433594 -10.378906 "/></g></g></g><g fill="rgb(0%, 0%, 0%)" fill-opacity="1"><g transform="translate(154.579296, 207.403138)"><g><path d="M 17.386719 -0.761719 L 11.382812 -17.035156 C 11.140625 -17.605469 10.867188 -17.875 10.269531 -17.875 L 7.660156 -17.875 C 7.0625 -17.875 6.765625 -17.605469 6.546875 -17.035156 L 0.515625 -0.761719 C 0.378906 -0.433594 0.378906 0 0.976562 0 L 3.832031 0 C 4.429688 0 4.644531 -0.164062 4.863281 -0.816406 L 5.625 -2.960938 L 12.28125 -2.960938 L 13.039062 -0.816406 C 13.257812 -0.164062 13.476562 0 14.074219 0 L 16.925781 0 C 17.523438 0 17.523438 -0.433594 17.386719 -0.761719 Z M 8.964844 -12.769531 L 11.003906 -6.765625 L 6.929688 -6.765625 Z M 8.964844 -12.769531 "/></g></g></g><g fill="rgb(0%, 0%, 0%)" fill-opacity="1"><g transform="translate(175.954936, 207.403138)"><g><path d="M 8.882812 -17.875 L 2.796875 -17.875 C 2.171875 -17.875 2.011719 -17.578125 2.011719 -17.089844 L 2.011719 -0.789062 C 2.011719 -0.300781 2.171875 0 2.796875 0 L 8.882812 0 C 12.117188 0 16.191406 -1.847656 16.191406 -6.113281 L 16.191406 -11.765625 C 16.191406 -16.003906 12.117188 -17.875 8.882812 -17.875 Z M 11.925781 -11.382812 L 11.925781 -6.492188 C 11.925781 -4.753906 10.675781 -3.777344 8.882812 -3.777344 L 6.277344 -3.777344 L 6.277344 -14.101562 L 8.882812 -14.101562 C 10.675781 -14.101562 11.925781 -13.09375 11.925781 -11.382812 Z M 11.925781 -11.382812 "/></g></g></g><g fill="rgb(0%, 0%, 0%)" fill-opacity="1"><g transform="translate(197.19478, 207.403138)"><g><path d="M 16.054688 -5.734375 L 16.054688 -12.144531 C 16.054688 -16.4375 11.980469 -18.285156 8.75 -18.285156 C 5.515625 -18.285156 1.496094 -16.4375 1.496094 -12.144531 L 1.496094 -5.734375 C 1.496094 -1.441406 5.515625 0.40625 8.75 0.40625 C 11.980469 0.40625 16.054688 -1.441406 16.054688 -5.734375 Z M 11.792969 -11.765625 L 11.792969 -6.113281 C 11.792969 -4.375 10.542969 -3.367188 8.75 -3.367188 C 6.980469 -3.367188 5.734375 -4.375 5.734375 -6.113281 L 5.734375 -11.765625 C 5.734375 -13.503906 6.980469 -14.507812 8.75 -14.507812 C 10.542969 -14.507812 11.792969 -13.503906 11.792969 -11.765625 Z M 11.792969 -11.765625 "/></g></g></g><g fill="rgb(0%, 0%, 0%)" fill-opacity="1"><g transform="translate(218.298829, 207.403138)"><g/></g></g><g fill="rgb(0%, 0%, 0%)" fill-opacity="1"><g transform="translate(229.245606, 207.403138)"><g><path d="M 8.910156 -17.875 L 2.796875 -17.875 C 2.171875 -17.875 2.011719 -17.578125 2.011719 -17.089844 L 2.011719 -0.789062 C 2.011719 -0.164062 2.308594 0 2.796875 0 L 5.488281 0 C 5.976562 0 6.277344 -0.164062 6.277344 -0.789062 L 6.277344 -5.296875 L 8.882812 -5.296875 C 13.53125 -5.296875 16.027344 -7.796875 16.027344 -11.574219 C 16.027344 -15.324219 13.585938 -17.875 8.910156 -17.875 Z M 8.882812 -8.964844 L 6.277344 -8.964844 L 6.277344 -14.046875 L 8.882812 -14.046875 C 11.003906 -14.046875 11.925781 -12.90625 11.925781 -11.492188 C 11.925781 -10.132812 11.003906 -8.964844 8.882812 -8.964844 Z M 8.882812 -8.964844 "/></g></g></g><g fill="rgb(0%, 0%, 0%)" fill-opacity="1"><g transform="translate(249.88794, 207.403138)"><g><path d="M 16.054688 -5.734375 L 16.054688 -12.144531 C 16.054688 -16.4375 11.980469 -18.285156 8.75 -18.285156 C 5.515625 -18.285156 1.496094 -16.4375 1.496094 -12.144531 L 1.496094 -5.734375 C 1.496094 -1.441406 5.515625 0.40625 8.75 0.40625 C 11.980469 0.40625 16.054688 -1.441406 16.054688 -5.734375 Z M 11.792969 -11.765625 L 11.792969 -6.113281 C 11.792969 -4.375 10.542969 -3.367188 8.75 -3.367188 C 6.980469 -3.367188 5.734375 -4.375 5.734375 -6.113281 L 5.734375 -11.765625 C 5.734375 -13.503906 6.980469 -14.507812 8.75 -14.507812 C 10.542969 -14.507812 11.792969 -13.503906 11.792969 -11.765625 Z M 11.792969 -11.765625 "/></g></g></g><g fill="rgb(0%, 0%, 0%)" fill-opacity="1"><g transform="translate(270.991989, 207.403138)"><g><path d="M 16.652344 -0.871094 L 12.824219 -6.4375 C 14.507812 -7.007812 16.601562 -8.992188 16.601562 -11.84375 C 16.601562 -13.585938 16.027344 -15.132812 15.023438 -16.109375 C 13.882812 -17.25 12.578125 -17.847656 9.617188 -17.847656 L 2.769531 -17.847656 C 2.144531 -17.847656 2.011719 -17.550781 2.011719 -17.0625 L 2.011719 -0.789062 C 2.011719 -0.164062 2.28125 0 2.769531 0 L 5.460938 0 C 5.949219 0 6.25 -0.164062 6.25 -0.789062 L 6.25 -14.046875 L 9.863281 -14.046875 C 11.273438 -14.046875 12.363281 -13.148438 12.363281 -11.738281 C 12.363281 -10.460938 11.113281 -9.535156 9.78125 -9.535156 L 9.238281 -9.535156 C 8.613281 -9.535156 8.449219 -9.238281 8.449219 -8.75 L 8.449219 -6.574219 C 8.449219 -5.8125 8.503906 -5.515625 8.75 -5.1875 L 11.683594 -0.816406 C 12.0625 -0.246094 12.390625 0 13.039062 0 L 16.246094 0 C 16.761719 0 16.898438 -0.488281 16.652344 -0.871094 Z M 16.652344 -0.871094 "/></g></g></g><g fill="rgb(0%, 0%, 0%)" fill-opacity="1"><g transform="translate(84.169809, 245.245586)"><g><path d="M 14.753906 -9.265625 C 14.996094 -9.375 16.734375 -10.242188 16.734375 -12.988281 C 16.734375 -15.539062 14.832031 -17.902344 10.40625 -17.902344 L 2.796875 -17.902344 C 2.171875 -17.902344 2.011719 -17.605469 2.011719 -17.117188 L 2.011719 -0.789062 C 2.011719 -0.300781 2.171875 0 2.796875 0 L 10.785156 0 C 14.5625 0 17.25 -1.765625 17.25 -5.214844 C 17.25 -8.152344 14.96875 -9.183594 14.753906 -9.265625 Z M 10.839844 -3.859375 L 6.277344 -3.859375 L 6.277344 -14.074219 L 10.40625 -14.074219 C 11.816406 -14.074219 12.660156 -13.773438 12.660156 -12.550781 C 12.660156 -11.492188 11.980469 -10.921875 10.40625 -10.921875 L 10.050781 -10.921875 C 9.425781 -10.921875 9.265625 -10.621094 9.265625 -10.132812 L 9.265625 -8.070312 C 9.265625 -7.578125 9.425781 -7.28125 10.050781 -7.28125 L 10.675781 -7.28125 C 11.980469 -7.28125 12.933594 -6.902344 12.933594 -5.625 C 12.933594 -4.402344 12.171875 -3.859375 10.839844 -3.859375 Z M 10.839844 -3.859375 "/></g></g></g><g fill="rgb(0%, 0%, 0%)" fill-opacity="1"><g transform="translate(106.414519, 245.245586)"><g><path d="M 17.386719 -0.761719 L 11.382812 -17.035156 C 11.140625 -17.605469 10.867188 -17.875 10.269531 -17.875 L 7.660156 -17.875 C 7.0625 -17.875 6.765625 -17.605469 6.546875 -17.035156 L 0.515625 -0.761719 C 0.378906 -0.433594 0.378906 0 0.976562 0 L 3.832031 0 C 4.429688 0 4.644531 -0.164062 4.863281 -0.816406 L 5.625 -2.960938 L 12.28125 -2.960938 L 13.039062 -0.816406 C 13.257812 -0.164062 13.476562 0 14.074219 0 L 16.925781 0 C 17.523438 0 17.523438 -0.433594 17.386719 -0.761719 Z M 8.964844 -12.769531 L 11.003906 -6.765625 L 6.929688 -6.765625 Z M 8.964844 -12.769531 "/></g></g></g><g fill="rgb(0%, 0%, 0%)" fill-opacity="1"><g transform="translate(127.790156, 245.245586)"><g><path d="M 15.785156 -5.296875 C 15.785156 -5.949219 15.566406 -6.222656 14.96875 -6.222656 L 12.308594 -6.222656 C 11.710938 -6.222656 11.65625 -5.785156 11.574219 -5.242188 C 11.355469 -3.9375 10.1875 -3.394531 8.722656 -3.394531 C 6.929688 -3.394531 5.707031 -4.375 5.707031 -6.113281 L 5.707031 -11.765625 C 5.707031 -13.476562 6.929688 -14.480469 8.722656 -14.480469 C 10.1875 -14.480469 10.949219 -14.074219 11.519531 -13.175781 C 11.738281 -12.851562 11.765625 -12.335938 12.335938 -12.335938 L 14.941406 -12.335938 C 15.566406 -12.335938 15.785156 -12.46875 15.785156 -13.121094 C 15.429688 -16.574219 12.089844 -18.285156 8.722656 -18.285156 C 5.488281 -18.285156 1.441406 -16.410156 1.441406 -12.144531 L 1.441406 -5.734375 C 1.441406 -1.46875 5.488281 0.40625 8.722656 0.40625 C 12.089844 0.40625 15.785156 -1.792969 15.785156 -5.296875 Z M 15.785156 -5.296875 "/></g></g></g><g fill="rgb(0%, 0%, 0%)" fill-opacity="1"><g transform="translate(148.541132, 245.245586)"><g><path d="M 14.101562 -17.875 L 1.496094 -17.875 C 0.871094 -17.875 0.707031 -17.578125 0.707031 -17.089844 L 0.707031 -14.832031 C 0.707031 -14.34375 0.871094 -14.046875 1.496094 -14.046875 L 5.679688 -14.046875 L 5.679688 -0.789062 C 5.679688 -0.164062 5.976562 0 6.464844 0 L 9.15625 0 C 9.644531 0 9.945312 -0.164062 9.945312 -0.789062 L 9.945312 -14.046875 L 14.101562 -14.046875 C 14.726562 -14.046875 14.886719 -14.34375 14.886719 -14.832031 L 14.886719 -17.089844 C 14.886719 -17.578125 14.726562 -17.875 14.101562 -17.875 Z M 14.101562 -17.875 "/></g></g></g><g fill="rgb(0%, 0%, 0%)" fill-opacity="1"><g transform="translate(167.716923, 245.245586)"><g><path d="M 6.902344 -19.453125 L 9.5625 -19.453125 C 10.242188 -19.453125 10.460938 -19.832031 10.839844 -20.214844 L 13.558594 -23.148438 C 13.800781 -23.390625 13.71875 -23.90625 13.039062 -23.90625 L 9.589844 -23.90625 C 8.992188 -23.90625 8.773438 -23.828125 8.367188 -23.148438 L 6.546875 -20.214844 C 6.382812 -19.96875 6.382812 -19.453125 6.902344 -19.453125 Z M 14.96875 -3.804688 L 6.304688 -3.804688 L 6.304688 -7.390625 L 13.585938 -7.390625 C 14.210938 -7.390625 14.371094 -7.6875 14.371094 -8.175781 L 14.371094 -10.296875 C 14.371094 -10.785156 14.210938 -11.085938 13.585938 -11.085938 L 6.304688 -11.085938 L 6.304688 -14.046875 L 14.507812 -14.046875 C 15.132812 -14.046875 15.296875 -14.34375 15.296875 -14.832031 L 15.296875 -17.089844 C 15.296875 -17.578125 15.132812 -17.875 14.507812 -17.875 L 2.796875 -17.875 C 2.171875 -17.875 2.011719 -17.578125 2.011719 -17.089844 L 2.011719 -0.789062 C 2.011719 -0.300781 2.171875 0 2.796875 0 L 14.96875 0 C 15.59375 0 15.757812 -0.300781 15.757812 -0.789062 L 15.757812 -3.015625 C 15.757812 -3.503906 15.59375 -3.804688 14.96875 -3.804688 Z M 14.96875 -3.804688 "/></g></g></g><g fill="rgb(0%, 0%, 0%)" fill-opacity="1"><g transform="translate(188.332107, 245.245586)"><g><path d="M 16.652344 -0.871094 L 12.824219 -6.4375 C 14.507812 -7.007812 16.601562 -8.992188 16.601562 -11.84375 C 16.601562 -13.585938 16.027344 -15.132812 15.023438 -16.109375 C 13.882812 -17.25 12.578125 -17.847656 9.617188 -17.847656 L 2.769531 -17.847656 C 2.144531 -17.847656 2.011719 -17.550781 2.011719 -17.0625 L 2.011719 -0.789062 C 2.011719 -0.164062 2.28125 0 2.769531 0 L 5.460938 0 C 5.949219 0 6.25 -0.164062 6.25 -0.789062 L 6.25 -14.046875 L 9.863281 -14.046875 C 11.273438 -14.046875 12.363281 -13.148438 12.363281 -11.738281 C 12.363281 -10.460938 11.113281 -9.535156 9.78125 -9.535156 L 9.238281 -9.535156 C 8.613281 -9.535156 8.449219 -9.238281 8.449219 -8.75 L 8.449219 -6.574219 C 8.449219 -5.8125 8.503906 -5.515625 8.75 -5.1875 L 11.683594 -0.816406 C 12.0625 -0.246094 12.390625 0 13.039062 0 L 16.246094 0 C 16.761719 0 16.898438 -0.488281 16.652344 -0.871094 Z M 16.652344 -0.871094 "/></g></g></g><g fill="rgb(0%, 0%, 0%)" fill-opacity="1"><g transform="translate(210.006478, 245.245586)"><g><path d="M 9.78125 -3.722656 L 8.070312 -3.722656 L 8.070312 -14.101562 L 9.699219 -14.101562 C 10.324219 -14.101562 10.488281 -14.398438 10.488281 -14.886719 L 10.488281 -17.089844 C 10.488281 -17.578125 10.324219 -17.875 9.699219 -17.875 L 2.144531 -17.875 C 1.519531 -17.875 1.359375 -17.578125 1.359375 -17.089844 L 1.359375 -14.886719 C 1.359375 -14.398438 1.519531 -14.101562 2.144531 -14.101562 L 3.804688 -14.101562 L 3.804688 -3.722656 L 2.09375 -3.722656 C 1.46875 -3.722656 1.304688 -3.421875 1.304688 -2.933594 L 1.304688 -0.789062 C 1.304688 -0.300781 1.46875 0 2.09375 0 L 9.78125 0 C 10.40625 0 10.570312 -0.300781 10.570312 -0.789062 L 10.570312 -2.933594 C 10.570312 -3.421875 10.40625 -3.722656 9.78125 -3.722656 Z M 9.78125 -3.722656 "/></g></g></g><g fill="rgb(0%, 0%, 0%)" fill-opacity="1"><g transform="translate(225.651663, 245.245586)"><g><path d="M 17.386719 -0.761719 L 11.382812 -17.035156 C 11.140625 -17.605469 10.867188 -17.875 10.269531 -17.875 L 7.660156 -17.875 C 7.0625 -17.875 6.765625 -17.605469 6.546875 -17.035156 L 0.515625 -0.761719 C 0.378906 -0.433594 0.378906 0 0.976562 0 L 3.832031 0 C 4.429688 0 4.644531 -0.164062 4.863281 -0.816406 L 5.625 -2.960938 L 12.28125 -2.960938 L 13.039062 -0.816406 C 13.257812 -0.164062 13.476562 0 14.074219 0 L 16.925781 0 C 17.523438 0 17.523438 -0.433594 17.386719 -0.761719 Z M 8.964844 -12.769531 L 11.003906 -6.765625 L 6.929688 -6.765625 Z M 8.964844 -12.769531 "/></g></g></g><g fill="rgb(0%, 0%, 0%)" fill-opacity="1"><g transform="translate(247.027303, 245.245586)"><g><path d="M 10.433594 -10.378906 C 9.347656 -10.8125 5.351562 -11.410156 5.351562 -13.066406 C 5.351562 -14.289062 6.847656 -14.644531 7.742188 -14.644531 C 8.558594 -14.644531 9.535156 -14.398438 10.050781 -13.910156 C 10.378906 -13.585938 10.515625 -13.367188 10.621094 -13.09375 C 10.757812 -12.742188 10.839844 -12.363281 11.355469 -12.363281 L 14.019531 -12.363281 C 14.644531 -12.363281 14.808594 -12.46875 14.808594 -13.121094 C 14.808594 -16.707031 11.03125 -18.285156 7.578125 -18.285156 C 4.183594 -18.148438 0.976562 -16.410156 0.976562 -12.878906 C 0.976562 -9.425781 3.503906 -8.339844 6.25 -7.472656 C 8.558594 -6.738281 10.976562 -6.710938 10.976562 -5.1875 C 10.976562 -3.667969 9.78125 -3.339844 8.3125 -3.339844 C 7.308594 -3.339844 6.195312 -3.585938 5.652344 -4.238281 C 5.296875 -4.644531 5.160156 -5 5.136719 -5.351562 C 5.082031 -6.03125 4.78125 -6.113281 4.15625 -6.113281 L 1.519531 -6.113281 C 0.898438 -6.113281 0.734375 -5.976562 0.734375 -5.351562 C 0.734375 -1.546875 4.644531 0.40625 8.042969 0.40625 C 12.226562 0.40625 15.269531 -1.441406 15.269531 -5.296875 C 15.269531 -8.992188 12.390625 -9.78125 10.433594 -10.378906 Z M 10.433594 -10.378906 "/></g></g></g><g fill="rgb(0%, 0%, 0%)" fill-opacity="1"><g transform="translate(267.044997, 245.245586)"><g><path d="M 3.832031 -5.625 L 5.160156 -5.625 C 5.785156 -5.625 5.839844 -5.707031 5.921875 -6.410156 C 7.089844 -17.144531 7.117188 -17.226562 7.117188 -17.304688 C 7.117188 -17.796875 6.875 -17.875 6.304688 -17.875 L 2.664062 -17.875 C 2.117188 -17.875 1.875 -17.769531 1.875 -17.304688 C 1.875 -17.226562 1.902344 -17.144531 3.042969 -6.410156 C 3.125 -5.734375 3.179688 -5.625 3.832031 -5.625 Z M 6.003906 -4.589844 L 2.988281 -4.589844 C 2.5 -4.589844 2.199219 -4.429688 2.199219 -3.804688 L 2.199219 -0.789062 C 2.199219 -0.164062 2.5 0 2.988281 0 L 6.003906 0 C 6.492188 0 6.792969 -0.164062 6.792969 -0.789062 L 6.792969 -3.804688 C 6.792969 -4.429688 6.492188 -4.589844 6.003906 -4.589844 Z M 6.003906 -4.589844 "/></g></g></g></svg>