<svg xmlns="http://www.w3.org/2000/svg" xmlns:xlink="http://www.w3.org/1999/xlink" width="480" zoomAndPan="magnify" viewBox="0 0 360 359.999987" height="480" preserveAspectRatio="xMidYMid meet" version="1.0"><defs><g/></defs><path fill="rgb(50.588989%, 83.139038%, 98.039246%)" d="M 179.941406 0 C 80.5625 0 0 80.5625 0 179.941406 C 0 279.320312 80.5625 359.882812 179.941406 359.882812 C 279.320312 359.882812 359.882812 279.320312 359.882812 179.941406 C 359.882812 80.5625 279.320312 0 179.941406 0 " fill-opacity="1" fill-rule="nonzero"/><g fill="rgb(0%, 0%, 0%)" fill-opacity="1"><g transform="translate(100.62995, 108.148417)"><g><path d="M 12.488281 -3.171875 L 5.257812 -3.171875 L 5.257812 -6.164062 L 11.332031 -6.164062 C 11.855469 -6.164062 11.992188 -6.414062 11.992188 -6.824219 L 11.992188 -8.589844 C 11.992188 -9 11.855469 -9.246094 11.332031 -9.246094 L 5.257812 -9.246094 L 5.257812 -11.71875 L 12.105469 -11.71875 C 12.625 -11.71875 12.761719 -11.96875 12.761719 -12.375 L 12.761719 -14.257812 C 12.761719 -14.664062 12.625 -14.914062 12.105469 -14.914062 L 2.335938 -14.914062 C 1.8125 -14.914062 1.675781 -14.664062 1.675781 -14.257812 L 1.675781 -0.65625 C 1.675781 -0.25 1.8125 0 2.335938 0 L 12.488281 0 C 13.011719 0 13.144531 -0.25 13.144531 -0.65625 L 13.144531 -2.515625 C 13.144531 -2.925781 13.011719 -3.171875 12.488281 -3.171875 Z M 12.488281 -3.171875 "/></g></g></g><g fill="rgb(0%, 0%, 0%)" fill-opacity="1"><g transform="translate(117.828757, 108.148417)"><g><path d="M 12.761719 -0.703125 L 8.75 -7.636719 L 12.828125 -14.28125 C 12.988281 -14.527344 12.875 -14.914062 12.488281 -14.914062 L 9.835938 -14.914062 C 9.382812 -14.914062 9.226562 -14.734375 8.90625 -14.257812 L 6.664062 -10.609375 L 4.398438 -14.257812 C 4.101562 -14.734375 3.921875 -14.914062 3.492188 -14.914062 L 0.816406 -14.914062 C 0.429688 -14.914062 0.339844 -14.527344 0.476562 -14.28125 L 4.578125 -7.636719 L 0.542969 -0.703125 C 0.363281 -0.429688 0.476562 0 0.816406 0 L 3.398438 0 C 3.898438 0 4.101562 -0.046875 4.398438 -0.632812 L 6.664062 -4.667969 L 8.90625 -0.632812 C 9.226562 -0.046875 9.40625 0 9.90625 0 L 12.488281 0 C 12.828125 0 12.941406 -0.429688 12.761719 -0.703125 Z M 12.761719 -0.703125 "/></g></g></g><g fill="rgb(0%, 0%, 0%)" fill-opacity="1"><g transform="translate(134.098607, 108.148417)"><g><path d="M 8.160156 -3.105469 L 6.730469 -3.105469 L 6.730469 -11.761719 L 8.089844 -11.761719 C 8.613281 -11.761719 8.75 -12.011719 8.75 -12.421875 L 8.75 -14.257812 C 8.75 -14.664062 8.613281 -14.914062 8.089844 -14.914062 L 1.789062 -14.914062 C 1.269531 -14.914062 1.132812 -14.664062 1.132812 -14.257812 L 1.132812 -12.421875 C 1.132812 -12.011719 1.269531 -11.761719 1.789062 -11.761719 L 3.171875 -11.761719 L 3.171875 -3.105469 L 1.746094 -3.105469 C 1.222656 -3.105469 1.089844 -2.855469 1.089844 -2.449219 L 1.089844 -0.65625 C 1.089844 -0.25 1.222656 0 1.746094 0 L 8.160156 0 C 8.679688 0 8.816406 -0.25 8.816406 -0.65625 L 8.816406 -2.449219 C 8.816406 -2.855469 8.679688 -3.105469 8.160156 -3.105469 Z M 8.160156 -3.105469 "/></g></g></g><g fill="rgb(0%, 0%, 0%)" fill-opacity="1"><g transform="translate(147.151047, 108.148417)"><g><path d="M 8.703125 -8.660156 C 7.796875 -9.019531 4.464844 -9.519531 4.464844 -10.902344 C 4.464844 -11.921875 5.710938 -12.21875 6.460938 -12.21875 C 7.140625 -12.21875 7.957031 -12.011719 8.386719 -11.605469 C 8.660156 -11.332031 8.773438 -11.152344 8.863281 -10.925781 C 8.976562 -10.628906 9.042969 -10.3125 9.472656 -10.3125 L 11.695312 -10.3125 C 12.21875 -10.3125 12.351562 -10.402344 12.351562 -10.949219 C 12.351562 -13.941406 9.203125 -15.253906 6.324219 -15.253906 C 3.492188 -15.140625 0.816406 -13.691406 0.816406 -10.742188 C 0.816406 -7.863281 2.925781 -6.957031 5.214844 -6.234375 C 7.140625 -5.621094 9.15625 -5.597656 9.15625 -4.328125 C 9.15625 -3.058594 8.160156 -2.789062 6.9375 -2.789062 C 6.097656 -2.789062 5.167969 -2.992188 4.714844 -3.535156 C 4.417969 -3.875 4.304688 -4.171875 4.285156 -4.464844 C 4.238281 -5.03125 3.988281 -5.101562 3.46875 -5.101562 L 1.269531 -5.101562 C 0.746094 -5.101562 0.613281 -4.988281 0.613281 -4.464844 C 0.613281 -1.292969 3.875 0.339844 6.710938 0.339844 C 10.199219 0.339844 12.738281 -1.203125 12.738281 -4.417969 C 12.738281 -7.503906 10.335938 -8.160156 8.703125 -8.660156 Z M 8.703125 -8.660156 "/></g></g></g><g fill="rgb(0%, 0%, 0%)" fill-opacity="1"><g transform="translate(163.85139, 108.148417)"><g><path d="M 11.761719 -14.914062 L 1.246094 -14.914062 C 0.726562 -14.914062 0.589844 -14.664062 0.589844 -14.257812 L 0.589844 -12.375 C 0.589844 -11.96875 0.726562 -11.71875 1.246094 -11.71875 L 4.738281 -11.71875 L 4.738281 -0.65625 C 4.738281 -0.136719 4.988281 0 5.394531 0 L 7.636719 0 C 8.046875 0 8.296875 -0.136719 8.296875 -0.65625 L 8.296875 -11.71875 L 11.761719 -11.71875 C 12.285156 -11.71875 12.421875 -11.96875 12.421875 -12.375 L 12.421875 -14.257812 C 12.421875 -14.664062 12.285156 -14.914062 11.761719 -14.914062 Z M 11.761719 -14.914062 "/></g></g></g><g fill="rgb(0%, 0%, 0%)" fill-opacity="1"><g transform="translate(179.849344, 108.148417)"><g><path d="M 12.488281 -3.171875 L 5.257812 -3.171875 L 5.257812 -6.164062 L 11.332031 -6.164062 C 11.855469 -6.164062 11.992188 -6.414062 11.992188 -6.824219 L 11.992188 -8.589844 C 11.992188 -9 11.855469 -9.246094 11.332031 -9.246094 L 5.257812 -9.246094 L 5.257812 -11.71875 L 12.105469 -11.71875 C 12.625 -11.71875 12.761719 -11.96875 12.761719 -12.375 L 12.761719 -14.257812 C 12.761719 -14.664062 12.625 -14.914062 12.105469 -14.914062 L 2.335938 -14.914062 C 1.8125 -14.914062 1.675781 -14.664062 1.675781 -14.257812 L 1.675781 -0.65625 C 1.675781 -0.25 1.8125 0 2.335938 0 L 12.488281 0 C 13.011719 0 13.144531 -0.25 13.144531 -0.65625 L 13.144531 -2.515625 C 13.144531 -2.925781 13.011719 -3.171875 12.488281 -3.171875 Z M 12.488281 -3.171875 "/></g></g></g><g fill="rgb(0%, 0%, 0%)" fill-opacity="1"><g transform="translate(197.048152, 108.148417)"><g/></g></g><g fill="rgb(0%, 0%, 0%)" fill-opacity="1"><g transform="translate(206.180815, 108.148417)"><g><path d="M 12.828125 -14.914062 L 10.585938 -14.914062 C 10.175781 -14.914062 9.925781 -14.777344 9.925781 -14.257812 L 9.925781 -5.054688 C 9.925781 -3.625 8.976562 -2.8125 7.480469 -2.8125 C 5.984375 -2.8125 5.054688 -3.625 5.054688 -5.054688 L 5.054688 -14.257812 C 5.054688 -14.777344 4.804688 -14.914062 4.398438 -14.914062 L 2.152344 -14.914062 C 1.746094 -14.914062 1.496094 -14.777344 1.496094 -14.257812 L 1.496094 -4.554688 C 1.496094 -0.996094 4.78125 0.339844 7.480469 0.339844 C 10.175781 0.339844 13.484375 -0.996094 13.484375 -4.554688 L 13.484375 -14.257812 C 13.484375 -14.777344 13.238281 -14.914062 12.828125 -14.914062 Z M 12.828125 -14.914062 "/></g></g></g><g fill="rgb(0%, 0%, 0%)" fill-opacity="1"><g transform="translate(224.149988, 108.148417)"><g><path d="M 15.050781 -14.9375 L 12.875 -14.9375 C 12.125 -14.9375 12.011719 -14.4375 11.855469 -14.167969 L 8.726562 -8.589844 L 5.621094 -14.167969 C 5.441406 -14.4375 5.347656 -14.9375 4.578125 -14.9375 L 2.335938 -14.9375 C 1.8125 -14.9375 1.675781 -14.6875 1.675781 -14.28125 L 1.675781 -0.65625 C 1.675781 -0.136719 1.925781 0 2.335938 0 L 4.578125 0 C 4.988281 0 5.234375 -0.136719 5.234375 -0.65625 L 5.234375 -8.339844 L 7.523438 -4.375 C 7.636719 -4.191406 7.820312 -3.898438 8.160156 -3.898438 L 9.292969 -3.898438 C 9.632812 -3.898438 9.835938 -4.191406 9.949219 -4.375 L 12.21875 -8.339844 L 12.21875 -0.65625 C 12.21875 -0.136719 12.464844 0 12.875 0 L 15.050781 0 C 15.457031 0 15.707031 -0.136719 15.707031 -0.65625 L 15.707031 -14.28125 C 15.707031 -14.6875 15.570312 -14.9375 15.050781 -14.9375 Z M 15.050781 -14.9375 "/></g></g></g><g fill="rgb(0%, 0%, 0%)" fill-opacity="1"><g transform="translate(244.52088, 108.148417)"><g><path d="M 14.507812 -0.632812 L 9.496094 -14.210938 C 9.292969 -14.6875 9.066406 -14.914062 8.566406 -14.914062 L 6.390625 -14.914062 C 5.894531 -14.914062 5.644531 -14.6875 5.460938 -14.210938 L 0.429688 -0.632812 C 0.316406 -0.363281 0.316406 0 0.816406 0 L 3.195312 0 C 3.695312 0 3.875 -0.136719 4.058594 -0.679688 L 4.691406 -2.46875 L 10.246094 -2.46875 L 10.878906 -0.679688 C 11.0625 -0.136719 11.242188 0 11.742188 0 L 14.121094 0 C 14.621094 0 14.621094 -0.363281 14.507812 -0.632812 Z M 7.480469 -10.652344 L 9.179688 -5.644531 L 5.78125 -5.644531 Z M 7.480469 -10.652344 "/></g></g></g><g fill="rgb(0%, 0%, 0%)" fill-opacity="1"><g transform="translate(65.962926, 139.719564)"><g><path d="M 12.308594 -7.730469 C 12.511719 -7.820312 13.960938 -8.546875 13.960938 -10.835938 C 13.960938 -12.964844 12.375 -14.9375 8.679688 -14.9375 L 2.335938 -14.9375 C 1.8125 -14.9375 1.675781 -14.6875 1.675781 -14.28125 L 1.675781 -0.65625 C 1.675781 -0.25 1.8125 0 2.335938 0 L 9 0 C 12.148438 0 14.394531 -1.472656 14.394531 -4.351562 C 14.394531 -6.800781 12.488281 -7.660156 12.308594 -7.730469 Z M 9.042969 -3.21875 L 5.234375 -3.21875 L 5.234375 -11.742188 L 8.679688 -11.742188 C 9.859375 -11.742188 10.5625 -11.492188 10.5625 -10.472656 C 10.5625 -9.585938 9.996094 -9.113281 8.679688 -9.113281 L 8.386719 -9.113281 C 7.863281 -9.113281 7.730469 -8.863281 7.730469 -8.453125 L 7.730469 -6.730469 C 7.730469 -6.324219 7.863281 -6.074219 8.386719 -6.074219 L 8.90625 -6.074219 C 9.996094 -6.074219 10.789062 -5.757812 10.789062 -4.691406 C 10.789062 -3.671875 10.15625 -3.21875 9.042969 -3.21875 Z M 9.042969 -3.21875 "/></g></g></g><g fill="rgb(0%, 0%, 0%)" fill-opacity="1"><g transform="translate(84.521212, 139.719564)"><g><path d="M 14.507812 -0.632812 L 9.496094 -14.210938 C 9.292969 -14.6875 9.066406 -14.914062 8.566406 -14.914062 L 6.390625 -14.914062 C 5.894531 -14.914062 5.644531 -14.6875 5.460938 -14.210938 L 0.429688 -0.632812 C 0.316406 -0.363281 0.316406 0 0.816406 0 L 3.195312 0 C 3.695312 0 3.875 -0.136719 4.058594 -0.679688 L 4.691406 -2.46875 L 10.246094 -2.46875 L 10.878906 -0.679688 C 11.0625 -0.136719 11.242188 0 11.742188 0 L 14.121094 0 C 14.621094 0 14.621094 -0.363281 14.507812 -0.632812 Z M 7.480469 -10.652344 L 9.179688 -5.644531 L 5.78125 -5.644531 Z M 7.480469 -10.652344 "/></g></g></g><g fill="rgb(0%, 0%, 0%)" fill-opacity="1"><g transform="translate(102.35445, 139.719564)"><g><path d="M 13.167969 -4.417969 C 13.167969 -4.964844 12.988281 -5.191406 12.488281 -5.191406 L 10.269531 -5.191406 C 9.769531 -5.191406 9.722656 -4.828125 9.65625 -4.375 C 9.472656 -3.285156 8.5 -2.832031 7.277344 -2.832031 C 5.78125 -2.832031 4.761719 -3.648438 4.761719 -5.101562 L 4.761719 -9.8125 C 4.761719 -11.242188 5.78125 -12.082031 7.277344 -12.082031 C 8.5 -12.082031 9.132812 -11.742188 9.609375 -10.992188 C 9.792969 -10.722656 9.8125 -10.289062 10.289062 -10.289062 L 12.464844 -10.289062 C 12.988281 -10.289062 13.167969 -10.402344 13.167969 -10.949219 C 12.875 -13.828125 10.085938 -15.253906 7.277344 -15.253906 C 4.578125 -15.253906 1.203125 -13.691406 1.203125 -10.132812 L 1.203125 -4.78125 C 1.203125 -1.222656 4.578125 0.339844 7.277344 0.339844 C 10.085938 0.339844 13.167969 -1.496094 13.167969 -4.417969 Z M 13.167969 -4.417969 "/></g></g></g><g fill="rgb(0%, 0%, 0%)" fill-opacity="1"><g transform="translate(119.666546, 139.719564)"><g><path d="M 11.761719 -14.914062 L 1.246094 -14.914062 C 0.726562 -14.914062 0.589844 -14.664062 0.589844 -14.257812 L 0.589844 -12.375 C 0.589844 -11.96875 0.726562 -11.71875 1.246094 -11.71875 L 4.738281 -11.71875 L 4.738281 -0.65625 C 4.738281 -0.136719 4.988281 0 5.394531 0 L 7.636719 0 C 8.046875 0 8.296875 -0.136719 8.296875 -0.65625 L 8.296875 -11.71875 L 11.761719 -11.71875 C 12.285156 -11.71875 12.421875 -11.96875 12.421875 -12.375 L 12.421875 -14.257812 C 12.421875 -14.664062 12.285156 -14.914062 11.761719 -14.914062 Z M 11.761719 -14.914062 "/></g></g></g><g fill="rgb(0%, 0%, 0%)" fill-opacity="1"><g transform="translate(135.664499, 139.719564)"><g><path d="M 5.757812 -16.230469 L 7.976562 -16.230469 C 8.546875 -16.230469 8.726562 -16.546875 9.042969 -16.863281 L 11.308594 -19.3125 C 11.515625 -19.515625 11.445312 -19.945312 10.878906 -19.945312 L 8 -19.945312 C 7.503906 -19.945312 7.320312 -19.878906 6.980469 -19.3125 L 5.460938 -16.863281 C 5.328125 -16.660156 5.328125 -16.230469 5.757812 -16.230469 Z M 12.488281 -3.171875 L 5.257812 -3.171875 L 5.257812 -6.164062 L 11.332031 -6.164062 C 11.855469 -6.164062 11.992188 -6.414062 11.992188 -6.824219 L 11.992188 -8.589844 C 11.992188 -9 11.855469 -9.246094 11.332031 -9.246094 L 5.257812 -9.246094 L 5.257812 -11.71875 L 12.105469 -11.71875 C 12.625 -11.71875 12.761719 -11.96875 12.761719 -12.375 L 12.761719 -14.257812 C 12.761719 -14.664062 12.625 -14.914062 12.105469 -14.914062 L 2.335938 -14.914062 C 1.8125 -14.914062 1.675781 -14.664062 1.675781 -14.257812 L 1.675781 -0.65625 C 1.675781 -0.25 1.8125 0 2.335938 0 L 12.488281 0 C 13.011719 0 13.144531 -0.25 13.144531 -0.65625 L 13.144531 -2.515625 C 13.144531 -2.925781 13.011719 -3.171875 12.488281 -3.171875 Z M 12.488281 -3.171875 "/></g></g></g><g fill="rgb(0%, 0%, 0%)" fill-opacity="1"><g transform="translate(152.863308, 139.719564)"><g><path d="M 13.894531 -0.726562 L 10.699219 -5.371094 C 12.105469 -5.847656 13.847656 -7.503906 13.847656 -9.882812 C 13.847656 -11.332031 13.371094 -12.625 12.535156 -13.441406 C 11.582031 -14.394531 10.496094 -14.890625 8.023438 -14.890625 L 2.3125 -14.890625 C 1.789062 -14.890625 1.675781 -14.640625 1.675781 -14.234375 L 1.675781 -0.65625 C 1.675781 -0.136719 1.902344 0 2.3125 0 L 4.554688 0 C 4.964844 0 5.214844 -0.136719 5.214844 -0.65625 L 5.214844 -11.71875 L 8.226562 -11.71875 C 9.40625 -11.71875 10.3125 -10.96875 10.3125 -9.792969 C 10.3125 -8.726562 9.269531 -7.957031 8.160156 -7.957031 L 7.707031 -7.957031 C 7.183594 -7.957031 7.050781 -7.707031 7.050781 -7.296875 L 7.050781 -5.484375 C 7.050781 -4.851562 7.09375 -4.601562 7.296875 -4.328125 L 9.746094 -0.679688 C 10.0625 -0.203125 10.335938 0 10.878906 0 L 13.554688 0 C 13.984375 0 14.097656 -0.40625 13.894531 -0.726562 Z M 13.894531 -0.726562 "/></g></g></g><g fill="rgb(0%, 0%, 0%)" fill-opacity="1"><g transform="translate(170.945772, 139.719564)"><g><path d="M 8.160156 -3.105469 L 6.730469 -3.105469 L 6.730469 -11.761719 L 8.089844 -11.761719 C 8.613281 -11.761719 8.75 -12.011719 8.75 -12.421875 L 8.75 -14.257812 C 8.75 -14.664062 8.613281 -14.914062 8.089844 -14.914062 L 1.789062 -14.914062 C 1.269531 -14.914062 1.132812 -14.664062 1.132812 -14.257812 L 1.132812 -12.421875 C 1.132812 -12.011719 1.269531 -11.761719 1.789062 -11.761719 L 3.171875 -11.761719 L 3.171875 -3.105469 L 1.746094 -3.105469 C 1.222656 -3.105469 1.089844 -2.855469 1.089844 -2.449219 L 1.089844 -0.65625 C 1.089844 -0.25 1.222656 0 1.746094 0 L 8.160156 0 C 8.679688 0 8.816406 -0.25 8.816406 -0.65625 L 8.816406 -2.449219 C 8.816406 -2.855469 8.679688 -3.105469 8.160156 -3.105469 Z M 8.160156 -3.105469 "/></g></g></g><g fill="rgb(0%, 0%, 0%)" fill-opacity="1"><g transform="translate(183.998217, 139.719564)"><g><path d="M 14.507812 -0.632812 L 9.496094 -14.210938 C 9.292969 -14.6875 9.066406 -14.914062 8.566406 -14.914062 L 6.390625 -14.914062 C 5.894531 -14.914062 5.644531 -14.6875 5.460938 -14.210938 L 0.429688 -0.632812 C 0.316406 -0.363281 0.316406 0 0.816406 0 L 3.195312 0 C 3.695312 0 3.875 -0.136719 4.058594 -0.679688 L 4.691406 -2.46875 L 10.246094 -2.46875 L 10.878906 -0.679688 C 11.0625 -0.136719 11.242188 0 11.742188 0 L 14.121094 0 C 14.621094 0 14.621094 -0.363281 14.507812 -0.632812 Z M 7.480469 -10.652344 L 9.179688 -5.644531 L 5.78125 -5.644531 Z M 7.480469 -10.652344 "/></g></g></g><g fill="rgb(0%, 0%, 0%)" fill-opacity="1"><g transform="translate(201.831457, 139.719564)"><g/></g></g><g fill="rgb(0%, 0%, 0%)" fill-opacity="1"><g transform="translate(210.964111, 139.719564)"><g><path d="M 13.167969 -4.417969 C 13.167969 -4.964844 12.988281 -5.191406 12.488281 -5.191406 L 10.269531 -5.191406 C 9.769531 -5.191406 9.722656 -4.828125 9.65625 -4.375 C 9.472656 -3.285156 8.5 -2.832031 7.277344 -2.832031 C 5.78125 -2.832031 4.761719 -3.648438 4.761719 -5.101562 L 4.761719 -9.8125 C 4.761719 -11.242188 5.78125 -12.082031 7.277344 -12.082031 C 8.5 -12.082031 9.132812 -11.742188 9.609375 -10.992188 C 9.792969 -10.722656 9.8125 -10.289062 10.289062 -10.289062 L 12.464844 -10.289062 C 12.988281 -10.289062 13.167969 -10.402344 13.167969 -10.949219 C 12.875 -13.828125 10.085938 -15.253906 7.277344 -15.253906 C 4.578125 -15.253906 1.203125 -13.691406 1.203125 -10.132812 L 1.203125 -4.78125 C 1.203125 -1.222656 4.578125 0.339844 7.277344 0.339844 C 10.085938 0.339844 13.167969 -1.496094 13.167969 -4.417969 Z M 13.167969 -4.417969 "/></g></g></g><g fill="rgb(0%, 0%, 0%)" fill-opacity="1"><g transform="translate(228.276211, 139.719564)"><g><path d="M 14.507812 -0.632812 L 9.496094 -14.210938 C 9.292969 -14.6875 9.066406 -14.914062 8.566406 -14.914062 L 6.390625 -14.914062 C 5.894531 -14.914062 5.644531 -14.6875 5.460938 -14.210938 L 0.429688 -0.632812 C 0.316406 -0.363281 0.316406 0 0.816406 0 L 3.195312 0 C 3.695312 0 3.875 -0.136719 4.058594 -0.679688 L 4.691406 -2.46875 L 10.246094 -2.46875 L 10.878906 -0.679688 C 11.0625 -0.136719 11.242188 0 11.742188 0 L 14.121094 0 C 14.621094 0 14.621094 -0.363281 14.507812 -0.632812 Z M 7.480469 -10.652344 L 9.179688 -5.644531 L 5.78125 -5.644531 Z M 7.480469 -10.652344 "/></g></g></g><g fill="rgb(0%, 0%, 0%)" fill-opacity="1"><g transform="translate(246.109451, 139.719564)"><g><path d="M 7.433594 -14.914062 L 2.335938 -14.914062 C 1.8125 -14.914062 1.675781 -14.664062 1.675781 -14.257812 L 1.675781 -0.65625 C 1.675781 -0.136719 1.925781 0 2.335938 0 L 4.578125 0 C 4.988281 0 5.234375 -0.136719 5.234375 -0.65625 L 5.234375 -4.417969 L 7.410156 -4.417969 C 11.289062 -4.417969 13.371094 -6.503906 13.371094 -9.65625 C 13.371094 -12.785156 11.332031 -14.914062 7.433594 -14.914062 Z M 7.410156 -7.480469 L 5.234375 -7.480469 L 5.234375 -11.71875 L 7.410156 -11.71875 C 9.179688 -11.71875 9.949219 -10.765625 9.949219 -9.585938 C 9.949219 -8.453125 9.179688 -7.480469 7.410156 -7.480469 Z M 7.410156 -7.480469 "/></g></g></g><g fill="rgb(0%, 0%, 0%)" fill-opacity="1"><g transform="translate(263.330918, 139.719564)"><g><path d="M 14.507812 -0.632812 L 9.496094 -14.210938 C 9.292969 -14.6875 9.066406 -14.914062 8.566406 -14.914062 L 6.390625 -14.914062 C 5.894531 -14.914062 5.644531 -14.6875 5.460938 -14.210938 L 0.429688 -0.632812 C 0.316406 -0.363281 0.316406 0 0.816406 0 L 3.195312 0 C 3.695312 0 3.875 -0.136719 4.058594 -0.679688 L 4.691406 -2.46875 L 10.246094 -2.46875 L 10.878906 -0.679688 C 11.0625 -0.136719 11.242188 0 11.742188 0 L 14.121094 0 C 14.621094 0 14.621094 -0.363281 14.507812 -0.632812 Z M 7.480469 -10.652344 L 9.179688 -5.644531 L 5.78125 -5.644531 Z M 7.480469 -10.652344 "/></g></g></g><g fill="rgb(0%, 0%, 0%)" fill-opacity="1"><g transform="translate(281.164158, 139.719564)"><g><path d="M 11.378906 -3.171875 L 5.078125 -3.171875 L 11.152344 -11.605469 C 11.378906 -11.898438 11.445312 -12.195312 11.445312 -12.488281 L 11.445312 -14.257812 C 11.445312 -14.664062 11.308594 -14.914062 10.789062 -14.914062 L 1.675781 -14.914062 C 1.15625 -14.914062 1.019531 -14.664062 1.019531 -14.257812 L 1.019531 -12.398438 C 1.019531 -11.992188 1.15625 -11.742188 1.675781 -11.742188 L 7.230469 -11.742188 L 1.109375 -3.285156 C 1.109375 -3.285156 0.816406 -2.945312 0.816406 -2.425781 L 0.816406 -0.65625 C 0.816406 -0.113281 0.90625 0 1.496094 0 L 11.378906 0 C 11.898438 0 12.035156 -0.25 12.035156 -0.65625 L 12.035156 -2.515625 C 12.035156 -2.925781 11.898438 -3.171875 11.378906 -3.171875 Z M 11.378906 -3.171875 "/></g></g></g><g fill="rgb(0%, 0%, 0%)" fill-opacity="1"><g transform="translate(88.416543, 171.290711)"><g><path d="M 7.410156 -14.914062 L 2.335938 -14.914062 C 1.8125 -14.914062 1.675781 -14.664062 1.675781 -14.257812 L 1.675781 -0.65625 C 1.675781 -0.25 1.8125 0 2.335938 0 L 7.410156 0 C 10.109375 0 13.507812 -1.542969 13.507812 -5.101562 L 13.507812 -9.8125 C 13.507812 -13.351562 10.109375 -14.914062 7.410156 -14.914062 Z M 9.949219 -9.496094 L 9.949219 -5.417969 C 9.949219 -3.964844 8.90625 -3.152344 7.410156 -3.152344 L 5.234375 -3.152344 L 5.234375 -11.761719 L 7.410156 -11.761719 C 8.90625 -11.761719 9.949219 -10.925781 9.949219 -9.496094 Z M 9.949219 -9.496094 "/></g></g></g><g fill="rgb(0%, 0%, 0%)" fill-opacity="1"><g transform="translate(106.13649, 171.290711)"><g><path d="M 12.488281 -3.171875 L 5.257812 -3.171875 L 5.257812 -6.164062 L 11.332031 -6.164062 C 11.855469 -6.164062 11.992188 -6.414062 11.992188 -6.824219 L 11.992188 -8.589844 C 11.992188 -9 11.855469 -9.246094 11.332031 -9.246094 L 5.257812 -9.246094 L 5.257812 -11.71875 L 12.105469 -11.71875 C 12.625 -11.71875 12.761719 -11.96875 12.761719 -12.375 L 12.761719 -14.257812 C 12.761719 -14.664062 12.625 -14.914062 12.105469 -14.914062 L 2.335938 -14.914062 C 1.8125 -14.914062 1.675781 -14.664062 1.675781 -14.257812 L 1.675781 -0.65625 C 1.675781 -0.25 1.8125 0 2.335938 0 L 12.488281 0 C 13.011719 0 13.144531 -0.25 13.144531 -0.65625 L 13.144531 -2.515625 C 13.144531 -2.925781 13.011719 -3.171875 12.488281 -3.171875 Z M 12.488281 -3.171875 "/></g></g></g><g fill="rgb(0%, 0%, 0%)" fill-opacity="1"><g transform="translate(123.335296, 171.290711)"><g/></g></g><g fill="rgb(0%, 0%, 0%)" fill-opacity="1"><g transform="translate(132.467955, 171.290711)"><g><path d="M 7.410156 -14.914062 L 2.335938 -14.914062 C 1.8125 -14.914062 1.675781 -14.664062 1.675781 -14.257812 L 1.675781 -0.65625 C 1.675781 -0.25 1.8125 0 2.335938 0 L 7.410156 0 C 10.109375 0 13.507812 -1.542969 13.507812 -5.101562 L 13.507812 -9.8125 C 13.507812 -13.351562 10.109375 -14.914062 7.410156 -14.914062 Z M 9.949219 -9.496094 L 9.949219 -5.417969 C 9.949219 -3.964844 8.90625 -3.152344 7.410156 -3.152344 L 5.234375 -3.152344 L 5.234375 -11.761719 L 7.410156 -11.761719 C 8.90625 -11.761719 9.949219 -10.925781 9.949219 -9.496094 Z M 9.949219 -9.496094 "/></g></g></g><g fill="rgb(0%, 0%, 0%)" fill-opacity="1"><g transform="translate(150.187904, 171.290711)"><g><path d="M 12.488281 -3.171875 L 5.257812 -3.171875 L 5.257812 -6.164062 L 11.332031 -6.164062 C 11.855469 -6.164062 11.992188 -6.414062 11.992188 -6.824219 L 11.992188 -8.589844 C 11.992188 -9 11.855469 -9.246094 11.332031 -9.246094 L 5.257812 -9.246094 L 5.257812 -11.71875 L 12.105469 -11.71875 C 12.625 -11.71875 12.761719 -11.96875 12.761719 -12.375 L 12.761719 -14.257812 C 12.761719 -14.664062 12.625 -14.914062 12.105469 -14.914062 L 2.335938 -14.914062 C 1.8125 -14.914062 1.675781 -14.664062 1.675781 -14.257812 L 1.675781 -0.65625 C 1.675781 -0.25 1.8125 0 2.335938 0 L 12.488281 0 C 13.011719 0 13.144531 -0.25 13.144531 -0.65625 L 13.144531 -2.515625 C 13.144531 -2.925781 13.011719 -3.171875 12.488281 -3.171875 Z M 12.488281 -3.171875 "/></g></g></g><g fill="rgb(0%, 0%, 0%)" fill-opacity="1"><g transform="translate(167.386712, 171.290711)"><g><path d="M 12.761719 -8.320312 L 7.796875 -8.320312 C 7.277344 -8.320312 7.140625 -8.070312 7.140625 -7.660156 L 7.140625 -5.894531 C 7.140625 -5.484375 7.277344 -5.234375 7.796875 -5.234375 L 9.835938 -5.234375 C 9.835938 -3.492188 8.792969 -2.8125 7.320312 -2.8125 C 5.824219 -2.8125 4.828125 -3.648438 4.828125 -5.101562 L 4.828125 -9.65625 C 4.828125 -11.105469 5.824219 -12.105469 7.320312 -12.105469 C 8.839844 -12.105469 9.65625 -11.421875 9.90625 -10.722656 C 10.019531 -10.402344 9.925781 -9.949219 10.5625 -9.949219 L 12.761719 -9.949219 C 13.28125 -9.949219 13.417969 -10.039062 13.417969 -10.585938 C 13.417969 -13.621094 10.15625 -15.253906 7.320312 -15.253906 C 4.648438 -15.253906 1.222656 -13.734375 1.222656 -10.15625 L 1.222656 -4.578125 C 1.222656 -1.019531 4.648438 0.339844 7.320312 0.339844 C 9.90625 0.339844 13.214844 -1.109375 13.417969 -4.375 L 13.417969 -7.660156 C 13.417969 -8.070312 13.28125 -8.320312 12.761719 -8.320312 Z M 12.761719 -8.320312 "/></g></g></g><g fill="rgb(0%, 0%, 0%)" fill-opacity="1"><g transform="translate(185.016028, 171.290711)"><g><path d="M 13.894531 -0.726562 L 10.699219 -5.371094 C 12.105469 -5.847656 13.847656 -7.503906 13.847656 -9.882812 C 13.847656 -11.332031 13.371094 -12.625 12.535156 -13.441406 C 11.582031 -14.394531 10.496094 -14.890625 8.023438 -14.890625 L 2.3125 -14.890625 C 1.789062 -14.890625 1.675781 -14.640625 1.675781 -14.234375 L 1.675781 -0.65625 C 1.675781 -0.136719 1.902344 0 2.3125 0 L 4.554688 0 C 4.964844 0 5.214844 -0.136719 5.214844 -0.65625 L 5.214844 -11.71875 L 8.226562 -11.71875 C 9.40625 -11.71875 10.3125 -10.96875 10.3125 -9.792969 C 10.3125 -8.726562 9.269531 -7.957031 8.160156 -7.957031 L 7.707031 -7.957031 C 7.183594 -7.957031 7.050781 -7.707031 7.050781 -7.296875 L 7.050781 -5.484375 C 7.050781 -4.851562 7.09375 -4.601562 7.296875 -4.328125 L 9.746094 -0.679688 C 10.0625 -0.203125 10.335938 0 10.878906 0 L 13.554688 0 C 13.984375 0 14.097656 -0.40625 13.894531 -0.726562 Z M 13.894531 -0.726562 "/></g></g></g><g fill="rgb(0%, 0%, 0%)" fill-opacity="1"><g transform="translate(203.098493, 171.290711)"><g><path d="M 14.507812 -0.632812 L 9.496094 -14.210938 C 9.292969 -14.6875 9.066406 -14.914062 8.566406 -14.914062 L 6.390625 -14.914062 C 5.894531 -14.914062 5.644531 -14.6875 5.460938 -14.210938 L 0.429688 -0.632812 C 0.316406 -0.363281 0.316406 0 0.816406 0 L 3.195312 0 C 3.695312 0 3.875 -0.136719 4.058594 -0.679688 L 4.691406 -2.46875 L 10.246094 -2.46875 L 10.878906 -0.679688 C 11.0625 -0.136719 11.242188 0 11.742188 0 L 14.121094 0 C 14.621094 0 14.621094 -0.363281 14.507812 -0.632812 Z M 7.480469 -10.652344 L 9.179688 -5.644531 L 5.78125 -5.644531 Z M 7.480469 -10.652344 "/></g></g></g><g fill="rgb(0%, 0%, 0%)" fill-opacity="1"><g transform="translate(220.931733, 171.290711)"><g><path d="M 7.410156 -14.914062 L 2.335938 -14.914062 C 1.8125 -14.914062 1.675781 -14.664062 1.675781 -14.257812 L 1.675781 -0.65625 C 1.675781 -0.25 1.8125 0 2.335938 0 L 7.410156 0 C 10.109375 0 13.507812 -1.542969 13.507812 -5.101562 L 13.507812 -9.8125 C 13.507812 -13.351562 10.109375 -14.914062 7.410156 -14.914062 Z M 9.949219 -9.496094 L 9.949219 -5.417969 C 9.949219 -3.964844 8.90625 -3.152344 7.410156 -3.152344 L 5.234375 -3.152344 L 5.234375 -11.761719 L 7.410156 -11.761719 C 8.90625 -11.761719 9.949219 -10.925781 9.949219 -9.496094 Z M 9.949219 -9.496094 "/></g></g></g><g fill="rgb(0%, 0%, 0%)" fill-opacity="1"><g transform="translate(238.651673, 171.290711)"><g><path d="M 14.507812 -0.632812 L 9.496094 -14.210938 C 9.292969 -14.6875 9.066406 -14.914062 8.566406 -14.914062 L 6.390625 -14.914062 C 5.894531 -14.914062 5.644531 -14.6875 5.460938 -14.210938 L 0.429688 -0.632812 C 0.316406 -0.363281 0.316406 0 0.816406 0 L 3.195312 0 C 3.695312 0 3.875 -0.136719 4.058594 -0.679688 L 4.691406 -2.46875 L 10.246094 -2.46875 L 10.878906 -0.679688 C 11.0625 -0.136719 11.242188 0 11.742188 0 L 14.121094 0 C 14.621094 0 14.621094 -0.363281 14.507812 -0.632812 Z M 7.480469 -10.652344 L 9.179688 -5.644531 L 5.78125 -5.644531 Z M 7.480469 -10.652344 "/></g></g></g><g fill="rgb(0%, 0%, 0%)" fill-opacity="1"><g transform="translate(256.484913, 171.290711)"><g><path d="M 13.894531 -0.726562 L 10.699219 -5.371094 C 12.105469 -5.847656 13.847656 -7.503906 13.847656 -9.882812 C 13.847656 -11.332031 13.371094 -12.625 12.535156 -13.441406 C 11.582031 -14.394531 10.496094 -14.890625 8.023438 -14.890625 L 2.3125 -14.890625 C 1.789062 -14.890625 1.675781 -14.640625 1.675781 -14.234375 L 1.675781 -0.65625 C 1.675781 -0.136719 1.902344 0 2.3125 0 L 4.554688 0 C 4.964844 0 5.214844 -0.136719 5.214844 -0.65625 L 5.214844 -11.71875 L 8.226562 -11.71875 C 9.40625 -11.71875 10.3125 -10.96875 10.3125 -9.792969 C 10.3125 -8.726562 9.269531 -7.957031 8.160156 -7.957031 L 7.707031 -7.957031 C 7.183594 -7.957031 7.050781 -7.707031 7.050781 -7.296875 L 7.050781 -5.484375 C 7.050781 -4.851562 7.09375 -4.601562 7.296875 -4.328125 L 9.746094 -0.679688 C 10.0625 -0.203125 10.335938 0 10.878906 0 L 13.554688 0 C 13.984375 0 14.097656 -0.40625 13.894531 -0.726562 Z M 13.894531 -0.726562 "/></g></g></g><g fill="rgb(0%, 0%, 0%)" fill-opacity="1"><g transform="translate(56.794365, 202.861858)"><g><path d="M 7.433594 -14.914062 L 2.335938 -14.914062 C 1.8125 -14.914062 1.675781 -14.664062 1.675781 -14.257812 L 1.675781 -0.65625 C 1.675781 -0.136719 1.925781 0 2.335938 0 L 4.578125 0 C 4.988281 0 5.234375 -0.136719 5.234375 -0.65625 L 5.234375 -4.417969 L 7.410156 -4.417969 C 11.289062 -4.417969 13.371094 -6.503906 13.371094 -9.65625 C 13.371094 -12.785156 11.332031 -14.914062 7.433594 -14.914062 Z M 7.410156 -7.480469 L 5.234375 -7.480469 L 5.234375 -11.71875 L 7.410156 -11.71875 C 9.179688 -11.71875 9.949219 -10.765625 9.949219 -9.585938 C 9.949219 -8.453125 9.179688 -7.480469 7.410156 -7.480469 Z M 7.410156 -7.480469 "/></g></g></g><g fill="rgb(0%, 0%, 0%)" fill-opacity="1"><g transform="translate(74.01583, 202.861858)"><g><path d="M 11.761719 -3.171875 L 5.234375 -3.171875 L 5.234375 -14.257812 C 5.234375 -14.777344 4.988281 -14.914062 4.578125 -14.914062 L 2.335938 -14.914062 C 1.925781 -14.914062 1.675781 -14.777344 1.675781 -14.257812 L 1.675781 -0.65625 C 1.675781 -0.25 1.8125 0 2.335938 0 L 11.761719 0 C 12.285156 0 12.421875 -0.25 12.421875 -0.65625 L 12.421875 -2.515625 C 12.421875 -2.925781 12.285156 -3.171875 11.761719 -3.171875 Z M 11.761719 -3.171875 "/></g></g></g><g fill="rgb(0%, 0%, 0%)" fill-opacity="1"><g transform="translate(90.195047, 202.861858)"><g><path d="M 6.4375 -16.230469 L 8.660156 -16.230469 C 9.226562 -16.230469 9.40625 -16.546875 9.722656 -16.863281 L 11.992188 -19.3125 C 12.195312 -19.515625 12.125 -19.945312 11.558594 -19.945312 L 8.679688 -19.945312 C 8.183594 -19.945312 8 -19.878906 7.660156 -19.3125 L 6.140625 -16.863281 C 6.007812 -16.660156 6.007812 -16.230469 6.4375 -16.230469 Z M 14.507812 -0.632812 L 9.496094 -14.210938 C 9.292969 -14.6875 9.066406 -14.914062 8.566406 -14.914062 L 6.390625 -14.914062 C 5.894531 -14.914062 5.644531 -14.6875 5.460938 -14.210938 L 0.429688 -0.632812 C 0.316406 -0.363281 0.316406 0 0.816406 0 L 3.195312 0 C 3.695312 0 3.875 -0.136719 4.058594 -0.679688 L 4.691406 -2.46875 L 10.246094 -2.46875 L 10.878906 -0.679688 C 11.0625 -0.136719 11.242188 0 11.742188 0 L 14.121094 0 C 14.621094 0 14.621094 -0.363281 14.507812 -0.632812 Z M 7.480469 -10.652344 L 9.179688 -5.644531 L 5.78125 -5.644531 Z M 7.480469 -10.652344 "/></g></g></g><g fill="rgb(0%, 0%, 0%)" fill-opacity="1"><g transform="translate(108.028283, 202.861858)"><g><path d="M 8.703125 -8.660156 C 7.796875 -9.019531 4.464844 -9.519531 4.464844 -10.902344 C 4.464844 -11.921875 5.710938 -12.21875 6.460938 -12.21875 C 7.140625 -12.21875 7.957031 -12.011719 8.386719 -11.605469 C 8.660156 -11.332031 8.773438 -11.152344 8.863281 -10.925781 C 8.976562 -10.628906 9.042969 -10.3125 9.472656 -10.3125 L 11.695312 -10.3125 C 12.21875 -10.3125 12.351562 -10.402344 12.351562 -10.949219 C 12.351562 -13.941406 9.203125 -15.253906 6.324219 -15.253906 C 3.492188 -15.140625 0.816406 -13.691406 0.816406 -10.742188 C 0.816406 -7.863281 2.925781 -6.957031 5.214844 -6.234375 C 7.140625 -5.621094 9.15625 -5.597656 9.15625 -4.328125 C 9.15625 -3.058594 8.160156 -2.789062 6.9375 -2.789062 C 6.097656 -2.789062 5.167969 -2.992188 4.714844 -3.535156 C 4.417969 -3.875 4.304688 -4.171875 4.285156 -4.464844 C 4.238281 -5.03125 3.988281 -5.101562 3.46875 -5.101562 L 1.269531 -5.101562 C 0.746094 -5.101562 0.613281 -4.988281 0.613281 -4.464844 C 0.613281 -1.292969 3.875 0.339844 6.710938 0.339844 C 10.199219 0.339844 12.738281 -1.203125 12.738281 -4.417969 C 12.738281 -7.503906 10.335938 -8.160156 8.703125 -8.660156 Z M 8.703125 -8.660156 "/></g></g></g><g fill="rgb(0%, 0%, 0%)" fill-opacity="1"><g transform="translate(124.728626, 202.861858)"><g><path d="M 11.761719 -14.914062 L 1.246094 -14.914062 C 0.726562 -14.914062 0.589844 -14.664062 0.589844 -14.257812 L 0.589844 -12.375 C 0.589844 -11.96875 0.726562 -11.71875 1.246094 -11.71875 L 4.738281 -11.71875 L 4.738281 -0.65625 C 4.738281 -0.136719 4.988281 0 5.394531 0 L 7.636719 0 C 8.046875 0 8.296875 -0.136719 8.296875 -0.65625 L 8.296875 -11.71875 L 11.761719 -11.71875 C 12.285156 -11.71875 12.421875 -11.96875 12.421875 -12.375 L 12.421875 -14.257812 C 12.421875 -14.664062 12.285156 -14.914062 11.761719 -14.914062 Z M 11.761719 -14.914062 "/></g></g></g><g fill="rgb(0%, 0%, 0%)" fill-opacity="1"><g transform="translate(140.72658, 202.861858)"><g><path d="M 8.160156 -3.105469 L 6.730469 -3.105469 L 6.730469 -11.761719 L 8.089844 -11.761719 C 8.613281 -11.761719 8.75 -12.011719 8.75 -12.421875 L 8.75 -14.257812 C 8.75 -14.664062 8.613281 -14.914062 8.089844 -14.914062 L 1.789062 -14.914062 C 1.269531 -14.914062 1.132812 -14.664062 1.132812 -14.257812 L 1.132812 -12.421875 C 1.132812 -12.011719 1.269531 -11.761719 1.789062 -11.761719 L 3.171875 -11.761719 L 3.171875 -3.105469 L 1.746094 -3.105469 C 1.222656 -3.105469 1.089844 -2.855469 1.089844 -2.449219 L 1.089844 -0.65625 C 1.089844 -0.25 1.222656 0 1.746094 0 L 8.160156 0 C 8.679688 0 8.816406 -0.25 8.816406 -0.65625 L 8.816406 -2.449219 C 8.816406 -2.855469 8.679688 -3.105469 8.160156 -3.105469 Z M 8.160156 -3.105469 "/></g></g></g><g fill="rgb(0%, 0%, 0%)" fill-opacity="1"><g transform="translate(153.779024, 202.861858)"><g><path d="M 13.167969 -4.417969 C 13.167969 -4.964844 12.988281 -5.191406 12.488281 -5.191406 L 10.269531 -5.191406 C 9.769531 -5.191406 9.722656 -4.828125 9.65625 -4.375 C 9.472656 -3.285156 8.5 -2.832031 7.277344 -2.832031 C 5.78125 -2.832031 4.761719 -3.648438 4.761719 -5.101562 L 4.761719 -9.8125 C 4.761719 -11.242188 5.78125 -12.082031 7.277344 -12.082031 C 8.5 -12.082031 9.132812 -11.742188 9.609375 -10.992188 C 9.792969 -10.722656 9.8125 -10.289062 10.289062 -10.289062 L 12.464844 -10.289062 C 12.988281 -10.289062 13.167969 -10.402344 13.167969 -10.949219 C 12.875 -13.828125 10.085938 -15.253906 7.277344 -15.253906 C 4.578125 -15.253906 1.203125 -13.691406 1.203125 -10.132812 L 1.203125 -4.78125 C 1.203125 -1.222656 4.578125 0.339844 7.277344 0.339844 C 10.085938 0.339844 13.167969 -1.496094 13.167969 -4.417969 Z M 13.167969 -4.417969 "/></g></g></g><g fill="rgb(0%, 0%, 0%)" fill-opacity="1"><g transform="translate(171.091124, 202.861858)"><g><path d="M 13.394531 -4.78125 L 13.394531 -10.132812 C 13.394531 -13.710938 9.996094 -15.253906 7.296875 -15.253906 C 4.601562 -15.253906 1.246094 -13.710938 1.246094 -10.132812 L 1.246094 -4.78125 C 1.246094 -1.203125 4.601562 0.339844 7.296875 0.339844 C 9.996094 0.339844 13.394531 -1.203125 13.394531 -4.78125 Z M 9.835938 -9.8125 L 9.835938 -5.101562 C 9.835938 -3.648438 8.792969 -2.8125 7.296875 -2.8125 C 5.824219 -2.8125 4.78125 -3.648438 4.78125 -5.101562 L 4.78125 -9.8125 C 4.78125 -11.265625 5.824219 -12.105469 7.296875 -12.105469 C 8.792969 -12.105469 9.835938 -11.265625 9.835938 -9.8125 Z M 9.835938 -9.8125 "/></g></g></g><g fill="rgb(0%, 0%, 0%)" fill-opacity="1"><g transform="translate(188.697781, 202.861858)"><g/></g></g><g fill="rgb(0%, 0%, 0%)" fill-opacity="1"><g transform="translate(197.830436, 202.861858)"><g><path d="M 7.410156 -14.914062 L 2.335938 -14.914062 C 1.8125 -14.914062 1.675781 -14.664062 1.675781 -14.257812 L 1.675781 -0.65625 C 1.675781 -0.25 1.8125 0 2.335938 0 L 7.410156 0 C 10.109375 0 13.507812 -1.542969 13.507812 -5.101562 L 13.507812 -9.8125 C 13.507812 -13.351562 10.109375 -14.914062 7.410156 -14.914062 Z M 9.949219 -9.496094 L 9.949219 -5.417969 C 9.949219 -3.964844 8.90625 -3.152344 7.410156 -3.152344 L 5.234375 -3.152344 L 5.234375 -11.761719 L 7.410156 -11.761719 C 8.90625 -11.761719 9.949219 -10.925781 9.949219 -9.496094 Z M 9.949219 -9.496094 "/></g></g></g><g fill="rgb(0%, 0%, 0%)" fill-opacity="1"><g transform="translate(215.550384, 202.861858)"><g><path d="M 13.394531 -4.78125 L 13.394531 -10.132812 C 13.394531 -13.710938 9.996094 -15.253906 7.296875 -15.253906 C 4.601562 -15.253906 1.246094 -13.710938 1.246094 -10.132812 L 1.246094 -4.78125 C 1.246094 -1.203125 4.601562 0.339844 7.296875 0.339844 C 9.996094 0.339844 13.394531 -1.203125 13.394531 -4.78125 Z M 9.835938 -9.8125 L 9.835938 -5.101562 C 9.835938 -3.648438 8.792969 -2.8125 7.296875 -2.8125 C 5.824219 -2.8125 4.78125 -3.648438 4.78125 -5.101562 L 4.78125 -9.8125 C 4.78125 -11.265625 5.824219 -12.105469 7.296875 -12.105469 C 8.792969 -12.105469 9.835938 -11.265625 9.835938 -9.8125 Z M 9.835938 -9.8125 "/></g></g></g><g fill="rgb(0%, 0%, 0%)" fill-opacity="1"><g transform="translate(233.157042, 202.861858)"><g/></g></g><g fill="rgb(0%, 0%, 0%)" fill-opacity="1"><g transform="translate(242.289705, 202.861858)"><g><path d="M 11.761719 -14.914062 L 1.246094 -14.914062 C 0.726562 -14.914062 0.589844 -14.664062 0.589844 -14.257812 L 0.589844 -12.375 C 0.589844 -11.96875 0.726562 -11.71875 1.246094 -11.71875 L 4.738281 -11.71875 L 4.738281 -0.65625 C 4.738281 -0.136719 4.988281 0 5.394531 0 L 7.636719 0 C 8.046875 0 8.296875 -0.136719 8.296875 -0.65625 L 8.296875 -11.71875 L 11.761719 -11.71875 C 12.285156 -11.71875 12.421875 -11.96875 12.421875 -12.375 L 12.421875 -14.257812 C 12.421875 -14.664062 12.285156 -14.914062 11.761719 -14.914062 Z M 11.761719 -14.914062 "/></g></g></g><g fill="rgb(0%, 0%, 0%)" fill-opacity="1"><g transform="translate(258.287658, 202.861858)"><g><path d="M 8.160156 -3.105469 L 6.730469 -3.105469 L 6.730469 -11.761719 L 8.089844 -11.761719 C 8.613281 -11.761719 8.75 -12.011719 8.75 -12.421875 L 8.75 -14.257812 C 8.75 -14.664062 8.613281 -14.914062 8.089844 -14.914062 L 1.789062 -14.914062 C 1.269531 -14.914062 1.132812 -14.664062 1.132812 -14.257812 L 1.132812 -12.421875 C 1.132812 -12.011719 1.269531 -11.761719 1.789062 -11.761719 L 3.171875 -11.761719 L 3.171875 -3.105469 L 1.746094 -3.105469 C 1.222656 -3.105469 1.089844 -2.855469 1.089844 -2.449219 L 1.089844 -0.65625 C 1.089844 -0.25 1.222656 0 1.746094 0 L 8.160156 0 C 8.679688 0 8.816406 -0.25 8.816406 -0.65625 L 8.816406 -2.449219 C 8.816406 -2.855469 8.679688 -3.105469 8.160156 -3.105469 Z M 8.160156 -3.105469 "/></g></g></g><g fill="rgb(0%, 0%, 0%)" fill-opacity="1"><g transform="translate(271.340102, 202.861858)"><g><path d="M 7.433594 -14.914062 L 2.335938 -14.914062 C 1.8125 -14.914062 1.675781 -14.664062 1.675781 -14.257812 L 1.675781 -0.65625 C 1.675781 -0.136719 1.925781 0 2.335938 0 L 4.578125 0 C 4.988281 0 5.234375 -0.136719 5.234375 -0.65625 L 5.234375 -4.417969 L 7.410156 -4.417969 C 11.289062 -4.417969 13.371094 -6.503906 13.371094 -9.65625 C 13.371094 -12.785156 11.332031 -14.914062 7.433594 -14.914062 Z M 7.410156 -7.480469 L 5.234375 -7.480469 L 5.234375 -11.71875 L 7.410156 -11.71875 C 9.179688 -11.71875 9.949219 -10.765625 9.949219 -9.585938 C 9.949219 -8.453125 9.179688 -7.480469 7.410156 -7.480469 Z M 7.410156 -7.480469 "/></g></g></g><g fill="rgb(0%, 0%, 0%)" fill-opacity="1"><g transform="translate(288.561569, 202.861858)"><g><path d="M 13.394531 -4.78125 L 13.394531 -10.132812 C 13.394531 -13.710938 9.996094 -15.253906 7.296875 -15.253906 C 4.601562 -15.253906 1.246094 -13.710938 1.246094 -10.132812 L 1.246094 -4.78125 C 1.246094 -1.203125 4.601562 0.339844 7.296875 0.339844 C 9.996094 0.339844 13.394531 -1.203125 13.394531 -4.78125 Z M 9.835938 -9.8125 L 9.835938 -5.101562 C 9.835938 -3.648438 8.792969 -2.8125 7.296875 -2.8125 C 5.824219 -2.8125 4.78125 -3.648438 4.78125 -5.101562 L 4.78125 -9.8125 C 4.78125 -11.265625 5.824219 -12.105469 7.296875 -12.105469 C 8.792969 -12.105469 9.835938 -11.265625 9.835938 -9.8125 Z M 9.835938 -9.8125 "/></g></g></g><g fill="rgb(0%, 0%, 0%)" fill-opacity="1"><g transform="translate(56.301066, 234.433005)"><g><path d="M 7.433594 -14.914062 L 2.335938 -14.914062 C 1.8125 -14.914062 1.675781 -14.664062 1.675781 -14.257812 L 1.675781 -0.65625 C 1.675781 -0.136719 1.925781 0 2.335938 0 L 4.578125 0 C 4.988281 0 5.234375 -0.136719 5.234375 -0.65625 L 5.234375 -4.417969 L 7.410156 -4.417969 C 11.289062 -4.417969 13.371094 -6.503906 13.371094 -9.65625 C 13.371094 -12.785156 11.332031 -14.914062 7.433594 -14.914062 Z M 7.410156 -7.480469 L 5.234375 -7.480469 L 5.234375 -11.71875 L 7.410156 -11.71875 C 9.179688 -11.71875 9.949219 -10.765625 9.949219 -9.585938 C 9.949219 -8.453125 9.179688 -7.480469 7.410156 -7.480469 Z M 7.410156 -7.480469 "/></g></g></g><g fill="rgb(0%, 0%, 0%)" fill-opacity="1"><g transform="translate(73.522531, 234.433005)"><g><path d="M 12.488281 -3.171875 L 5.257812 -3.171875 L 5.257812 -6.164062 L 11.332031 -6.164062 C 11.855469 -6.164062 11.992188 -6.414062 11.992188 -6.824219 L 11.992188 -8.589844 C 11.992188 -9 11.855469 -9.246094 11.332031 -9.246094 L 5.257812 -9.246094 L 5.257812 -11.71875 L 12.105469 -11.71875 C 12.625 -11.71875 12.761719 -11.96875 12.761719 -12.375 L 12.761719 -14.257812 C 12.761719 -14.664062 12.625 -14.914062 12.105469 -14.914062 L 2.335938 -14.914062 C 1.8125 -14.914062 1.675781 -14.664062 1.675781 -14.257812 L 1.675781 -0.65625 C 1.675781 -0.25 1.8125 0 2.335938 0 L 12.488281 0 C 13.011719 0 13.144531 -0.25 13.144531 -0.65625 L 13.144531 -2.515625 C 13.144531 -2.925781 13.011719 -3.171875 12.488281 -3.171875 Z M 12.488281 -3.171875 "/></g></g></g><g fill="rgb(0%, 0%, 0%)" fill-opacity="1"><g transform="translate(90.721337, 234.433005)"><g><path d="M 11.761719 -14.914062 L 1.246094 -14.914062 C 0.726562 -14.914062 0.589844 -14.664062 0.589844 -14.257812 L 0.589844 -12.375 C 0.589844 -11.96875 0.726562 -11.71875 1.246094 -11.71875 L 4.738281 -11.71875 L 4.738281 -0.65625 C 4.738281 -0.136719 4.988281 0 5.394531 0 L 7.636719 0 C 8.046875 0 8.296875 -0.136719 8.296875 -0.65625 L 8.296875 -11.71875 L 11.761719 -11.71875 C 12.285156 -11.71875 12.421875 -11.96875 12.421875 -12.375 L 12.421875 -14.257812 C 12.421875 -14.664062 12.285156 -14.914062 11.761719 -14.914062 Z M 11.761719 -14.914062 "/></g></g></g><g fill="rgb(0%, 0%, 0%)" fill-opacity="1"><g transform="translate(106.719286, 234.433005)"><g/></g></g><g fill="rgb(0%, 0%, 0%)" fill-opacity="1"><g transform="translate(115.851949, 234.433005)"><g><path d="M 4.894531 -5.914062 C 4.917969 -9.066406 5.460938 -11.71875 6.867188 -14.710938 C 6.980469 -14.960938 6.890625 -15.277344 6.550781 -15.277344 L 4.125 -15.277344 C 3.785156 -15.277344 3.605469 -15.027344 3.511719 -14.824219 C 2.152344 -11.945312 1.496094 -9.042969 1.496094 -5.914062 C 1.496094 -2.8125 2.152344 0.0898438 3.511719 2.96875 C 3.605469 3.171875 3.785156 3.421875 4.125 3.421875 L 6.550781 3.421875 C 6.890625 3.421875 6.980469 3.105469 6.867188 2.855469 C 5.460938 -0.136719 4.917969 -2.789062 4.894531 -5.914062 Z M 4.894531 -5.914062 "/></g></g></g><g fill="rgb(0%, 0%, 0%)" fill-opacity="1"><g transform="translate(126.933174, 234.433005)"><g><path d="M 7.433594 -14.914062 L 2.335938 -14.914062 C 1.8125 -14.914062 1.675781 -14.664062 1.675781 -14.257812 L 1.675781 -0.65625 C 1.675781 -0.136719 1.925781 0 2.335938 0 L 4.578125 0 C 4.988281 0 5.234375 -0.136719 5.234375 -0.65625 L 5.234375 -4.417969 L 7.410156 -4.417969 C 11.289062 -4.417969 13.371094 -6.503906 13.371094 -9.65625 C 13.371094 -12.785156 11.332031 -14.914062 7.433594 -14.914062 Z M 7.410156 -7.480469 L 5.234375 -7.480469 L 5.234375 -11.71875 L 7.410156 -11.71875 C 9.179688 -11.71875 9.949219 -10.765625 9.949219 -9.585938 C 9.949219 -8.453125 9.179688 -7.480469 7.410156 -7.480469 Z M 7.410156 -7.480469 "/></g></g></g><g fill="rgb(0%, 0%, 0%)" fill-opacity="1"><g transform="translate(144.15464, 234.433005)"><g><path d="M 13.394531 -4.78125 L 13.394531 -10.132812 C 13.394531 -13.710938 9.996094 -15.253906 7.296875 -15.253906 C 4.601562 -15.253906 1.246094 -13.710938 1.246094 -10.132812 L 1.246094 -4.78125 C 1.246094 -1.203125 4.601562 0.339844 7.296875 0.339844 C 9.996094 0.339844 13.394531 -1.203125 13.394531 -4.78125 Z M 9.835938 -9.8125 L 9.835938 -5.101562 C 9.835938 -3.648438 8.792969 -2.8125 7.296875 -2.8125 C 5.824219 -2.8125 4.78125 -3.648438 4.78125 -5.101562 L 4.78125 -9.8125 C 4.78125 -11.265625 5.824219 -12.105469 7.296875 -12.105469 C 8.792969 -12.105469 9.835938 -11.265625 9.835938 -9.8125 Z M 9.835938 -9.8125 "/></g></g></g><g fill="rgb(0%, 0%, 0%)" fill-opacity="1"><g transform="translate(161.761298, 234.433005)"><g><path d="M 11.761719 -3.171875 L 5.234375 -3.171875 L 5.234375 -14.257812 C 5.234375 -14.777344 4.988281 -14.914062 4.578125 -14.914062 L 2.335938 -14.914062 C 1.925781 -14.914062 1.675781 -14.777344 1.675781 -14.257812 L 1.675781 -0.65625 C 1.675781 -0.25 1.8125 0 2.335938 0 L 11.761719 0 C 12.285156 0 12.421875 -0.25 12.421875 -0.65625 L 12.421875 -2.515625 C 12.421875 -2.925781 12.285156 -3.171875 11.761719 -3.171875 Z M 11.761719 -3.171875 "/></g></g></g><g fill="rgb(0%, 0%, 0%)" fill-opacity="1"><g transform="translate(177.940517, 234.433005)"><g><path d="M 8.160156 -3.105469 L 6.730469 -3.105469 L 6.730469 -11.761719 L 8.089844 -11.761719 C 8.613281 -11.761719 8.75 -12.011719 8.75 -12.421875 L 8.75 -14.257812 C 8.75 -14.664062 8.613281 -14.914062 8.089844 -14.914062 L 1.789062 -14.914062 C 1.269531 -14.914062 1.132812 -14.664062 1.132812 -14.257812 L 1.132812 -12.421875 C 1.132812 -12.011719 1.269531 -11.761719 1.789062 -11.761719 L 3.171875 -11.761719 L 3.171875 -3.105469 L 1.746094 -3.105469 C 1.222656 -3.105469 1.089844 -2.855469 1.089844 -2.449219 L 1.089844 -0.65625 C 1.089844 -0.25 1.222656 0 1.746094 0 L 8.160156 0 C 8.679688 0 8.816406 -0.25 8.816406 -0.65625 L 8.816406 -2.449219 C 8.816406 -2.855469 8.679688 -3.105469 8.160156 -3.105469 Z M 8.160156 -3.105469 "/></g></g></g><g fill="rgb(0%, 0%, 0%)" fill-opacity="1"><g transform="translate(190.992962, 234.433005)"><g><path d="M 12.488281 -3.171875 L 5.257812 -3.171875 L 5.257812 -6.164062 L 11.332031 -6.164062 C 11.855469 -6.164062 11.992188 -6.414062 11.992188 -6.824219 L 11.992188 -8.589844 C 11.992188 -9 11.855469 -9.246094 11.332031 -9.246094 L 5.257812 -9.246094 L 5.257812 -11.71875 L 12.105469 -11.71875 C 12.625 -11.71875 12.761719 -11.96875 12.761719 -12.375 L 12.761719 -14.257812 C 12.761719 -14.664062 12.625 -14.914062 12.105469 -14.914062 L 2.335938 -14.914062 C 1.8125 -14.914062 1.675781 -14.664062 1.675781 -14.257812 L 1.675781 -0.65625 C 1.675781 -0.25 1.8125 0 2.335938 0 L 12.488281 0 C 13.011719 0 13.144531 -0.25 13.144531 -0.65625 L 13.144531 -2.515625 C 13.144531 -2.925781 13.011719 -3.171875 12.488281 -3.171875 Z M 12.488281 -3.171875 "/></g></g></g><g fill="rgb(0%, 0%, 0%)" fill-opacity="1"><g transform="translate(208.191762, 234.433005)"><g><path d="M 11.761719 -14.914062 L 1.246094 -14.914062 C 0.726562 -14.914062 0.589844 -14.664062 0.589844 -14.257812 L 0.589844 -12.375 C 0.589844 -11.96875 0.726562 -11.71875 1.246094 -11.71875 L 4.738281 -11.71875 L 4.738281 -0.65625 C 4.738281 -0.136719 4.988281 0 5.394531 0 L 7.636719 0 C 8.046875 0 8.296875 -0.136719 8.296875 -0.65625 L 8.296875 -11.71875 L 11.761719 -11.71875 C 12.285156 -11.71875 12.421875 -11.96875 12.421875 -12.375 L 12.421875 -14.257812 C 12.421875 -14.664062 12.285156 -14.914062 11.761719 -14.914062 Z M 11.761719 -14.914062 "/></g></g></g><g fill="rgb(0%, 0%, 0%)" fill-opacity="1"><g transform="translate(224.189715, 234.433005)"><g><path d="M 8.160156 -3.105469 L 6.730469 -3.105469 L 6.730469 -11.761719 L 8.089844 -11.761719 C 8.613281 -11.761719 8.75 -12.011719 8.75 -12.421875 L 8.75 -14.257812 C 8.75 -14.664062 8.613281 -14.914062 8.089844 -14.914062 L 1.789062 -14.914062 C 1.269531 -14.914062 1.132812 -14.664062 1.132812 -14.257812 L 1.132812 -12.421875 C 1.132812 -12.011719 1.269531 -11.761719 1.789062 -11.761719 L 3.171875 -11.761719 L 3.171875 -3.105469 L 1.746094 -3.105469 C 1.222656 -3.105469 1.089844 -2.855469 1.089844 -2.449219 L 1.089844 -0.65625 C 1.089844 -0.25 1.222656 0 1.746094 0 L 8.160156 0 C 8.679688 0 8.816406 -0.25 8.816406 -0.65625 L 8.816406 -2.449219 C 8.816406 -2.855469 8.679688 -3.105469 8.160156 -3.105469 Z M 8.160156 -3.105469 "/></g></g></g><g fill="rgb(0%, 0%, 0%)" fill-opacity="1"><g transform="translate(237.242159, 234.433005)"><g><path d="M 11.761719 -3.171875 L 5.234375 -3.171875 L 5.234375 -14.257812 C 5.234375 -14.777344 4.988281 -14.914062 4.578125 -14.914062 L 2.335938 -14.914062 C 1.925781 -14.914062 1.675781 -14.777344 1.675781 -14.257812 L 1.675781 -0.65625 C 1.675781 -0.25 1.8125 0 2.335938 0 L 11.761719 0 C 12.285156 0 12.421875 -0.25 12.421875 -0.65625 L 12.421875 -2.515625 C 12.421875 -2.925781 12.285156 -3.171875 11.761719 -3.171875 Z M 11.761719 -3.171875 "/></g></g></g><g fill="rgb(0%, 0%, 0%)" fill-opacity="1"><g transform="translate(253.421379, 234.433005)"><g><path d="M 12.488281 -3.171875 L 5.257812 -3.171875 L 5.257812 -6.164062 L 11.332031 -6.164062 C 11.855469 -6.164062 11.992188 -6.414062 11.992188 -6.824219 L 11.992188 -8.589844 C 11.992188 -9 11.855469 -9.246094 11.332031 -9.246094 L 5.257812 -9.246094 L 5.257812 -11.71875 L 12.105469 -11.71875 C 12.625 -11.71875 12.761719 -11.96875 12.761719 -12.375 L 12.761719 -14.257812 C 12.761719 -14.664062 12.625 -14.914062 12.105469 -14.914062 L 2.335938 -14.914062 C 1.8125 -14.914062 1.675781 -14.664062 1.675781 -14.257812 L 1.675781 -0.65625 C 1.675781 -0.25 1.8125 0 2.335938 0 L 12.488281 0 C 13.011719 0 13.144531 -0.25 13.144531 -0.65625 L 13.144531 -2.515625 C 13.144531 -2.925781 13.011719 -3.171875 12.488281 -3.171875 Z M 12.488281 -3.171875 "/></g></g></g><g fill="rgb(0%, 0%, 0%)" fill-opacity="1"><g transform="translate(270.620187, 234.433005)"><g><path d="M 13.125 -14.914062 L 10.949219 -14.914062 C 10.539062 -14.914062 10.289062 -14.777344 10.289062 -14.257812 L 10.289062 -6.390625 L 5.484375 -14.144531 C 5.191406 -14.597656 5.03125 -14.914062 4.464844 -14.914062 L 2.335938 -14.914062 C 1.8125 -14.914062 1.675781 -14.664062 1.675781 -14.257812 L 1.675781 -0.65625 C 1.675781 -0.136719 1.925781 0 2.335938 0 L 4.578125 0 C 4.988281 0 5.234375 -0.136719 5.234375 -0.65625 L 5.234375 -8.546875 L 10.039062 -0.769531 C 10.335938 -0.316406 10.496094 0 11.0625 0 L 13.125 0 C 13.644531 0 13.78125 -0.25 13.78125 -0.65625 L 13.78125 -14.257812 C 13.78125 -14.777344 13.53125 -14.914062 13.125 -14.914062 Z M 13.125 -14.914062 "/></g></g></g><g fill="rgb(0%, 0%, 0%)" fill-opacity="1"><g transform="translate(289.065185, 234.433005)"><g><path d="M 13.394531 -4.78125 L 13.394531 -10.132812 C 13.394531 -13.710938 9.996094 -15.253906 7.296875 -15.253906 C 4.601562 -15.253906 1.246094 -13.710938 1.246094 -10.132812 L 1.246094 -4.78125 C 1.246094 -1.203125 4.601562 0.339844 7.296875 0.339844 C 9.996094 0.339844 13.394531 -1.203125 13.394531 -4.78125 Z M 9.835938 -9.8125 L 9.835938 -5.101562 C 9.835938 -3.648438 8.792969 -2.8125 7.296875 -2.8125 C 5.824219 -2.8125 4.78125 -3.648438 4.78125 -5.101562 L 4.78125 -9.8125 C 4.78125 -11.265625 5.824219 -12.105469 7.296875 -12.105469 C 8.792969 -12.105469 9.835938 -11.265625 9.835938 -9.8125 Z M 9.835938 -9.8125 "/></g></g></g><g fill="rgb(0%, 0%, 0%)" fill-opacity="1"><g transform="translate(77.529941, 266.004152)"><g><path d="M 11.761719 -14.914062 L 1.246094 -14.914062 C 0.726562 -14.914062 0.589844 -14.664062 0.589844 -14.257812 L 0.589844 -12.375 C 0.589844 -11.96875 0.726562 -11.71875 1.246094 -11.71875 L 4.738281 -11.71875 L 4.738281 -0.65625 C 4.738281 -0.136719 4.988281 0 5.394531 0 L 7.636719 0 C 8.046875 0 8.296875 -0.136719 8.296875 -0.65625 L 8.296875 -11.71875 L 11.761719 -11.71875 C 12.285156 -11.71875 12.421875 -11.96875 12.421875 -12.375 L 12.421875 -14.257812 C 12.421875 -14.664062 12.285156 -14.914062 11.761719 -14.914062 Z M 11.761719 -14.914062 "/></g></g></g><g fill="rgb(0%, 0%, 0%)" fill-opacity="1"><g transform="translate(93.527892, 266.004152)"><g><path d="M 12.488281 -3.171875 L 5.257812 -3.171875 L 5.257812 -6.164062 L 11.332031 -6.164062 C 11.855469 -6.164062 11.992188 -6.414062 11.992188 -6.824219 L 11.992188 -8.589844 C 11.992188 -9 11.855469 -9.246094 11.332031 -9.246094 L 5.257812 -9.246094 L 5.257812 -11.71875 L 12.105469 -11.71875 C 12.625 -11.71875 12.761719 -11.96875 12.761719 -12.375 L 12.761719 -14.257812 C 12.761719 -14.664062 12.625 -14.914062 12.105469 -14.914062 L 2.335938 -14.914062 C 1.8125 -14.914062 1.675781 -14.664062 1.675781 -14.257812 L 1.675781 -0.65625 C 1.675781 -0.25 1.8125 0 2.335938 0 L 12.488281 0 C 13.011719 0 13.144531 -0.25 13.144531 -0.65625 L 13.144531 -2.515625 C 13.144531 -2.925781 13.011719 -3.171875 12.488281 -3.171875 Z M 12.488281 -3.171875 "/></g></g></g><g fill="rgb(0%, 0%, 0%)" fill-opacity="1"><g transform="translate(110.726698, 266.004152)"><g><path d="M 13.894531 -0.726562 L 10.699219 -5.371094 C 12.105469 -5.847656 13.847656 -7.503906 13.847656 -9.882812 C 13.847656 -11.332031 13.371094 -12.625 12.535156 -13.441406 C 11.582031 -14.394531 10.496094 -14.890625 8.023438 -14.890625 L 2.3125 -14.890625 C 1.789062 -14.890625 1.675781 -14.640625 1.675781 -14.234375 L 1.675781 -0.65625 C 1.675781 -0.136719 1.902344 0 2.3125 0 L 4.554688 0 C 4.964844 0 5.214844 -0.136719 5.214844 -0.65625 L 5.214844 -11.71875 L 8.226562 -11.71875 C 9.40625 -11.71875 10.3125 -10.96875 10.3125 -9.792969 C 10.3125 -8.726562 9.269531 -7.957031 8.160156 -7.957031 L 7.707031 -7.957031 C 7.183594 -7.957031 7.050781 -7.707031 7.050781 -7.296875 L 7.050781 -5.484375 C 7.050781 -4.851562 7.09375 -4.601562 7.296875 -4.328125 L 9.746094 -0.679688 C 10.0625 -0.203125 10.335938 0 10.878906 0 L 13.554688 0 C 13.984375 0 14.097656 -0.40625 13.894531 -0.726562 Z M 13.894531 -0.726562 "/></g></g></g><g fill="rgb(0%, 0%, 0%)" fill-opacity="1"><g transform="translate(128.809159, 266.004152)"><g><path d="M 12.488281 -3.171875 L 5.257812 -3.171875 L 5.257812 -6.164062 L 11.332031 -6.164062 C 11.855469 -6.164062 11.992188 -6.414062 11.992188 -6.824219 L 11.992188 -8.589844 C 11.992188 -9 11.855469 -9.246094 11.332031 -9.246094 L 5.257812 -9.246094 L 5.257812 -11.71875 L 12.105469 -11.71875 C 12.625 -11.71875 12.761719 -11.96875 12.761719 -12.375 L 12.761719 -14.257812 C 12.761719 -14.664062 12.625 -14.914062 12.105469 -14.914062 L 2.335938 -14.914062 C 1.8125 -14.914062 1.675781 -14.664062 1.675781 -14.257812 L 1.675781 -0.65625 C 1.675781 -0.25 1.8125 0 2.335938 0 L 12.488281 0 C 13.011719 0 13.144531 -0.25 13.144531 -0.65625 L 13.144531 -2.515625 C 13.144531 -2.925781 13.011719 -3.171875 12.488281 -3.171875 Z M 12.488281 -3.171875 "/></g></g></g><g fill="rgb(0%, 0%, 0%)" fill-opacity="1"><g transform="translate(146.007967, 266.004152)"><g><path d="M 12.082031 -14.914062 L 2.335938 -14.914062 C 1.8125 -14.914062 1.675781 -14.664062 1.675781 -14.257812 L 1.675781 -0.65625 C 1.675781 -0.25 1.8125 0 2.335938 0 L 4.578125 0 C 5.101562 0 5.234375 -0.0898438 5.234375 -0.679688 L 5.234375 -5.984375 L 11.128906 -5.984375 C 11.648438 -5.984375 11.785156 -6.234375 11.785156 -6.640625 L 11.785156 -8.433594 C 11.785156 -8.839844 11.648438 -9.089844 11.128906 -9.089844 L 5.234375 -9.089844 L 5.234375 -11.742188 L 12.082031 -11.742188 C 12.601562 -11.742188 12.738281 -11.992188 12.738281 -12.398438 L 12.738281 -14.257812 C 12.738281 -14.664062 12.601562 -14.914062 12.082031 -14.914062 Z M 12.082031 -14.914062 "/></g></g></g><g fill="rgb(0%, 0%, 0%)" fill-opacity="1"><g transform="translate(162.640336, 266.004152)"><g><path d="M 11.761719 -14.914062 L 1.246094 -14.914062 C 0.726562 -14.914062 0.589844 -14.664062 0.589844 -14.257812 L 0.589844 -12.375 C 0.589844 -11.96875 0.726562 -11.71875 1.246094 -11.71875 L 4.738281 -11.71875 L 4.738281 -0.65625 C 4.738281 -0.136719 4.988281 0 5.394531 0 L 7.636719 0 C 8.046875 0 8.296875 -0.136719 8.296875 -0.65625 L 8.296875 -11.71875 L 11.761719 -11.71875 C 12.285156 -11.71875 12.421875 -11.96875 12.421875 -12.375 L 12.421875 -14.257812 C 12.421875 -14.664062 12.285156 -14.914062 11.761719 -14.914062 Z M 11.761719 -14.914062 "/></g></g></g><g fill="rgb(0%, 0%, 0%)" fill-opacity="1"><g transform="translate(178.638289, 266.004152)"><g><path d="M 14.507812 -0.632812 L 9.496094 -14.210938 C 9.292969 -14.6875 9.066406 -14.914062 8.566406 -14.914062 L 6.390625 -14.914062 C 5.894531 -14.914062 5.644531 -14.6875 5.460938 -14.210938 L 0.429688 -0.632812 C 0.316406 -0.363281 0.316406 0 0.816406 0 L 3.195312 0 C 3.695312 0 3.875 -0.136719 4.058594 -0.679688 L 4.691406 -2.46875 L 10.246094 -2.46875 L 10.878906 -0.679688 C 11.0625 -0.136719 11.242188 0 11.742188 0 L 14.121094 0 C 14.621094 0 14.621094 -0.363281 14.507812 -0.632812 Z M 7.480469 -10.652344 L 9.179688 -5.644531 L 5.78125 -5.644531 Z M 7.480469 -10.652344 "/></g></g></g><g fill="rgb(0%, 0%, 0%)" fill-opacity="1"><g transform="translate(196.471529, 266.004152)"><g><path d="M 11.761719 -3.171875 L 5.234375 -3.171875 L 5.234375 -14.257812 C 5.234375 -14.777344 4.988281 -14.914062 4.578125 -14.914062 L 2.335938 -14.914062 C 1.925781 -14.914062 1.675781 -14.777344 1.675781 -14.257812 L 1.675781 -0.65625 C 1.675781 -0.25 1.8125 0 2.335938 0 L 11.761719 0 C 12.285156 0 12.421875 -0.25 12.421875 -0.65625 L 12.421875 -2.515625 C 12.421875 -2.925781 12.285156 -3.171875 11.761719 -3.171875 Z M 11.761719 -3.171875 "/></g></g></g><g fill="rgb(0%, 0%, 0%)" fill-opacity="1"><g transform="translate(212.650748, 266.004152)"><g><path d="M 14.507812 -0.632812 L 9.496094 -14.210938 C 9.292969 -14.6875 9.066406 -14.914062 8.566406 -14.914062 L 6.390625 -14.914062 C 5.894531 -14.914062 5.644531 -14.6875 5.460938 -14.210938 L 0.429688 -0.632812 C 0.316406 -0.363281 0.316406 0 0.816406 0 L 3.195312 0 C 3.695312 0 3.875 -0.136719 4.058594 -0.679688 L 4.691406 -2.46875 L 10.246094 -2.46875 L 10.878906 -0.679688 C 11.0625 -0.136719 11.242188 0 11.742188 0 L 14.121094 0 C 14.621094 0 14.621094 -0.363281 14.507812 -0.632812 Z M 7.480469 -10.652344 L 9.179688 -5.644531 L 5.78125 -5.644531 Z M 7.480469 -10.652344 "/></g></g></g><g fill="rgb(0%, 0%, 0%)" fill-opacity="1"><g transform="translate(230.48398, 266.004152)"><g><path d="M 11.761719 -14.914062 L 1.246094 -14.914062 C 0.726562 -14.914062 0.589844 -14.664062 0.589844 -14.257812 L 0.589844 -12.375 C 0.589844 -11.96875 0.726562 -11.71875 1.246094 -11.71875 L 4.738281 -11.71875 L 4.738281 -0.65625 C 4.738281 -0.136719 4.988281 0 5.394531 0 L 7.636719 0 C 8.046875 0 8.296875 -0.136719 8.296875 -0.65625 L 8.296875 -11.71875 L 11.761719 -11.71875 C 12.285156 -11.71875 12.421875 -11.96875 12.421875 -12.375 L 12.421875 -14.257812 C 12.421875 -14.664062 12.285156 -14.914062 11.761719 -14.914062 Z M 11.761719 -14.914062 "/></g></g></g><g fill="rgb(0%, 0%, 0%)" fill-opacity="1"><g transform="translate(246.481934, 266.004152)"><g><path d="M 13.394531 -4.78125 L 13.394531 -10.132812 C 13.394531 -13.710938 9.996094 -15.253906 7.296875 -15.253906 C 4.601562 -15.253906 1.246094 -13.710938 1.246094 -10.132812 L 1.246094 -4.78125 C 1.246094 -1.203125 4.601562 0.339844 7.296875 0.339844 C 9.996094 0.339844 13.394531 -1.203125 13.394531 -4.78125 Z M 9.835938 -9.8125 L 9.835938 -5.101562 C 9.835938 -3.648438 8.792969 -2.8125 7.296875 -2.8125 C 5.824219 -2.8125 4.78125 -3.648438 4.78125 -5.101562 L 4.78125 -9.8125 C 4.78125 -11.265625 5.824219 -12.105469 7.296875 -12.105469 C 8.792969 -12.105469 9.835938 -11.265625 9.835938 -9.8125 Z M 9.835938 -9.8125 "/></g></g></g><g fill="rgb(0%, 0%, 0%)" fill-opacity="1"><g transform="translate(264.088591, 266.004152)"><g><path d="M 3.195312 -5.914062 C 3.171875 -2.789062 2.628906 -0.136719 1.222656 2.855469 C 1.109375 3.105469 1.203125 3.421875 1.542969 3.421875 L 3.964844 3.421875 C 4.304688 3.421875 4.488281 3.171875 4.578125 2.96875 C 5.9375 0.0898438 6.597656 -2.8125 6.597656 -5.914062 C 6.597656 -9.042969 5.9375 -11.945312 4.578125 -14.824219 C 4.488281 -15.027344 4.304688 -15.277344 3.964844 -15.277344 L 1.542969 -15.277344 C 1.203125 -15.277344 1.109375 -14.960938 1.222656 -14.710938 C 2.628906 -11.71875 3.171875 -9.066406 3.195312 -5.914062 Z M 3.195312 -5.914062 "/></g></g></g><g fill="rgb(0%, 0%, 0%)" fill-opacity="1"><g transform="translate(275.169815, 266.004152)"><g><path d="M 3.195312 -4.691406 L 4.304688 -4.691406 C 4.828125 -4.691406 4.875 -4.761719 4.941406 -5.347656 C 5.914062 -14.300781 5.9375 -14.371094 5.9375 -14.4375 C 5.9375 -14.847656 5.734375 -14.914062 5.257812 -14.914062 L 2.222656 -14.914062 C 1.769531 -14.914062 1.5625 -14.824219 1.5625 -14.4375 C 1.5625 -14.371094 1.585938 -14.300781 2.539062 -5.347656 C 2.605469 -4.78125 2.652344 -4.691406 3.195312 -4.691406 Z M 5.007812 -3.832031 L 2.492188 -3.832031 C 2.085938 -3.832031 1.835938 -3.695312 1.835938 -3.171875 L 1.835938 -0.65625 C 1.835938 -0.136719 2.085938 0 2.492188 0 L 5.007812 0 C 5.417969 0 5.667969 -0.136719 5.667969 -0.65625 L 5.667969 -3.171875 C 5.667969 -3.695312 5.417969 -3.832031 5.007812 -3.832031 Z M 5.007812 -3.832031 "/></g></g></g></svg>